<svg width="48" height="48" viewBox="0 0 48 48" xmlns="http://www.w3.org/2000/svg"><title>FC750804-E5C7-4592-B4C4-F9A5F2F3337D</title><path d="M40.97 7.03A23.843 23.843 0 0 0 24 0a23.868 23.868 0 0 0-13.581 4.211.938.938 0 0 0 1.062 1.546A21.997 21.997 0 0 1 24 1.875C36.2 1.875 46.125 11.8 46.125 24S36.2 46.125 24 46.125 1.875 36.2 1.875 24a22 22 0 0 1 3.881-12.519.937.937 0 1 0-1.545-1.062A23.866 23.866 0 0 0 0 24c0 6.41 2.496 12.438 7.03 16.97A23.843 23.843 0 0 0 24 48c6.41 0 12.438-2.496 16.97-7.03A23.843 23.843 0 0 0 48 24c0-6.41-2.496-12.438-7.03-16.97z"/><path d="M39.136 34.461a.938.938 0 0 0 1.29-.303A19.267 19.267 0 0 0 43.313 24C43.313 13.351 34.65 4.687 24 4.687 13.351 4.688 4.687 13.351 4.687 24S13.351 43.313 24 43.313c3.6 0 7.111-.998 10.157-2.886a.938.938 0 1 0-.987-1.594A17.391 17.391 0 0 1 24 41.438c-9.615 0-17.438-7.823-17.438-17.438 0-9.615 7.823-17.438 17.438-17.438 9.615 0 17.438 7.823 17.438 17.438 0 3.25-.901 6.42-2.605 9.17a.938.938 0 0 0 .303 1.291z"/><path d="M24 19.313A4.693 4.693 0 0 0 19.312 24 4.693 4.693 0 0 0 24 28.688 4.693 4.693 0 0 0 28.688 24 4.693 4.693 0 0 0 24 19.312zm0 1.875c1.222 0 2.264.783 2.651 1.875h-5.302A2.817 2.817 0 0 1 24 21.188zm0 5.625a2.817 2.817 0 0 1-2.651-1.875h5.302A2.816 2.816 0 0 1 24 26.813zM24 8.25a4.693 4.693 0 0 0-4.688 4.688A4.693 4.693 0 0 0 24 17.625a4.693 4.693 0 0 0 4.688-4.688A4.693 4.693 0 0 0 24 8.25zm0 7.5a2.816 2.816 0 0 1-2.813-2.813A2.816 2.816 0 0 1 24 10.126a2.816 2.816 0 0 1 2.813 2.813A2.816 2.816 0 0 1 24 15.75zm-7.237-1.34a4.693 4.693 0 0 0-6.403 1.715 4.693 4.693 0 0 0 4.052 7.033 4.72 4.72 0 0 0 1.22-.161 4.657 4.657 0 0 0 2.847-2.184 4.693 4.693 0 0 0-1.716-6.404zm.092 5.465a2.794 2.794 0 0 1-1.707 1.31 2.792 2.792 0 0 1-2.135-.28 2.816 2.816 0 0 1-1.03-3.843 2.814 2.814 0 0 1 3.843-1.029 2.816 2.816 0 0 1 1.03 3.842zm-1.222 5.128a4.656 4.656 0 0 0-3.557.469 4.693 4.693 0 0 0-1.716 6.403 4.69 4.69 0 0 0 6.403 1.716 4.693 4.693 0 0 0 1.716-6.404 4.657 4.657 0 0 0-2.846-2.184zm.193 6.964a2.816 2.816 0 0 1-3.842-1.03 2.816 2.816 0 0 1 2.431-4.22c.244 0 .49.033.733.098.725.194 1.332.66 1.707 1.31a2.816 2.816 0 0 1-1.03 3.842zM24 30.375a4.693 4.693 0 0 0-4.688 4.688A4.693 4.693 0 0 0 24 39.75a4.693 4.693 0 0 0 4.688-4.688A4.693 4.693 0 0 0 24 30.375zm0 7.5a2.816 2.816 0 0 1-2.813-2.813A2.816 2.816 0 0 1 24 32.25a2.816 2.816 0 0 1 2.813 2.813A2.816 2.816 0 0 1 24 37.874zm11.924-12.403a4.656 4.656 0 0 0-3.557-.469 4.657 4.657 0 0 0-2.846 2.184 4.693 4.693 0 0 0 1.716 6.404 4.691 4.691 0 0 0 6.403-1.716 4.693 4.693 0 0 0-1.716-6.403zm.092 5.465a2.816 2.816 0 0 1-3.842 1.03 2.816 2.816 0 0 1-1.03-3.842 2.795 2.795 0 0 1 1.708-1.31 2.797 2.797 0 0 1 2.134.28 2.816 2.816 0 0 1 1.03 3.843zm1.624-14.812a4.693 4.693 0 0 0-6.403-1.716 4.693 4.693 0 0 0-1.716 6.403 4.656 4.656 0 0 0 2.846 2.185 4.661 4.661 0 0 0 3.557-.468 4.693 4.693 0 0 0 1.716-6.404zm-2.653 4.78a2.794 2.794 0 0 1-2.135.28 2.793 2.793 0 0 1-1.707-1.31 2.815 2.815 0 0 1 2.43-4.218c.973 0 1.92.504 2.44 1.405a2.815 2.815 0 0 1-1.028 3.842zM7.692 8.63A.937.937 0 1 0 7.058 7v.001a.937.937 0 0 0 .634 1.628zM36.36 36.302h-.001a.937.937 0 1 0 1.265 1.383.937.937 0 0 0-1.264-1.383z"/></svg>