<svg width="48" height="44" viewBox="0 0 48 44" xmlns="http://www.w3.org/2000/svg"><title>9DC1FF6C-04AB-4818-A431-1BE8492B3DDF</title><path d="M.77 22.202a.77.77 0 0 1-.77-.77V9.118a.77.77 0 0 1 .77-.77h12.315a.77.77 0 1 1 0 1.54H1.54v11.546a.77.77 0 0 1-.77.77z"/><path d="M.77 30.015a.77.77 0 0 1-.77-.77v-8.5a.77.77 0 0 1 .445-.698l6.157-2.863a.778.778 0 0 1 .65 0l5.334 2.48a.77.77 0 0 1-.65 1.396l-5.008-2.33-5.389 2.506v8.01a.77.77 0 0 1-.77.769z"/><path d="M.77 39.324a.77.77 0 0 1-.77-.77v-9.713c0-.258.128-.497.342-.64l5.773-3.863a.772.772 0 0 1 .856 0l5.772 3.863a.767.767 0 0 1 .342.64v8.882a.77.77 0 0 1-1.54 0v-8.471l-5.002-3.348-5.004 3.348v9.302a.77.77 0 0 1-.77.77zm11.687-17.122a.77.77 0 0 1-.77-.77V9.118a.77.77 0 0 1 .77-.77h12.315a.77.77 0 1 1 0 1.54H13.227v11.546a.77.77 0 0 1-.77.77z"/><path d="M12.457 30.015a.77.77 0 0 1-.77-.77v-8.5c0-.299.173-.572.445-.698l6.158-2.863a.778.778 0 0 1 .65 0l5.333 2.48a.77.77 0 0 1-.65 1.396l-5.009-2.33-5.387 2.506v8.01a.77.77 0 0 1-.77.769z"/><path d="M12.457 38.554a.77.77 0 0 1-.77-.77v-8.943c0-.258.128-.497.342-.64l5.773-3.863a.772.772 0 0 1 .856 0l5.772 3.863a.767.767 0 0 1 .342.64v8.882a.77.77 0 0 1-1.54 0v-8.471l-5.002-3.348-5.003 3.348v8.533a.77.77 0 0 1-.77.77zm11.269-16.352a.77.77 0 0 1-.77-.77V9.118a.77.77 0 0 1 .77-.77h6.158a.77.77 0 1 1 0 1.54h-5.388v11.546a.77.77 0 0 1-.77.77z"/><path d="M23.726 29.836a.77.77 0 0 1-.77-.77v-8.5a.77.77 0 0 1 .445-.698l5.773-2.684a.77.77 0 0 1 .65 1.397l-5.328 2.476v8.01a.77.77 0 0 1-.77.769z"/><path d="M23.726 38.554a.77.77 0 0 1-.77-.77v-8.943c0-.258.128-.497.343-.64l5.772-3.863a.771.771 0 0 1 .856 0l5.773 3.863a.767.767 0 0 1 .342.64v8.882a.77.77 0 1 1-1.54 0v-8.471L29.5 25.904l-5.004 3.348v8.533a.77.77 0 0 1-.77.77zM47.057 29.9a.77.77 0 0 1-.77-.77V9.887h-5.03a.77.77 0 1 1 0-1.54h5.8a.77.77 0 0 1 .77.77V29.13a.77.77 0 0 1-.77.77z"/><path d="M47.002 21.132a.774.774 0 0 1-.324-.072l-5.009-2.329-.088.042a.77.77 0 0 1-.648-1.397l.413-.192a.776.776 0 0 1 .648 0l5.334 2.48a.77.77 0 0 1-.326 1.468zm-11.589 8.942a.77.77 0 0 1-.77-.77v-8.5a.77.77 0 1 1 1.54 0v8.5a.77.77 0 0 1-.77.77z"/><path d="M46.959 39.263a.77.77 0 0 1-.77-.77v-9.241l-5.003-3.348-5.003 3.348v8.533a.77.77 0 1 1-1.54 0V28.84c0-.258.128-.497.343-.64l5.772-3.863a.772.772 0 0 1 .856 0l5.773 3.863a.767.767 0 0 1 .342.64v9.652a.77.77 0 0 1-.77.77z"/><path d="M46.952 43.152a.769.769 0 0 1-.42-.124l-5.511-3.592-5.418 3.473a.774.774 0 0 1-.843-.008l-5.156-3.455-5.186 3.456a.772.772 0 0 1-.853 0l-5.247-3.477-6.048 3.502a.77.77 0 0 1-.847-.05l-4.578-3.423-5.664 3.58A.769.769 0 1 1 0 42.383l-.001-3.941c0-.264.136-.51.359-.651l6.117-3.863a.766.766 0 0 1 .863.028l4.757 3.446 5.958-3.487a.77.77 0 0 1 .815.023l5.2 3.458 5.206-3.458a.771.771 0 0 1 .85 0l5.226 3.46 5.254-3.461a.768.768 0 0 1 .844-.003l5.923 3.863a.77.77 0 0 1 .35.645v3.942a.77.77 0 0 1-.77.768zm-17.216-5.41c.15 0 .3.044.428.13l5.164 3.461 5.411-3.468a.768.768 0 0 1 .836.003l4.738 3.087v-2.104l-5.151-3.36-5.258 3.464a.77.77 0 0 1-.848 0l-5.224-3.46-5.207 3.458a.772.772 0 0 1-.852 0l-5.226-3.475-5.976 3.499a.768.768 0 0 1-.84-.041L6.987 35.5 1.67 38.858v2.12l4.93-3.116a.77.77 0 0 1 .873.034l4.596 3.437 6.02-3.486a.77.77 0 0 1 .811.024l5.22 3.459 5.19-3.458a.768.768 0 0 1 .426-.13zM40.763 5.388H29.987a.77.77 0 0 1-.77-.77V.77a.77.77 0 0 1 .77-.769h10.776a.77.77 0 0 1 .77.77v3.848a.77.77 0 0 1-.77.77zM30.887 3.56h9.237V1.252h-9.237v2.31z"/><path d="M35.344 21.043a.763.763 0 0 1-.256-.043l-5.358-1.893a.77.77 0 0 1-.513-.726V4.526a.77.77 0 0 1 .77-.77h10.776a.77.77 0 0 1 .77.77v13.855a.77.77 0 0 1-.516.727l-5.419 1.893a.775.775 0 0 1-.254.042zm-4.457-3.076l4.589 1.622 4.648-1.624V5.426h-9.237v12.54z"/><path d="M40.866 9.052h-4.618a.77.77 0 1 1 0-1.539h4.618a.77.77 0 1 1 0 1.54zm-6.261 3.758h-4.618a.77.77 0 0 1 0-1.54h4.618a.77.77 0 1 1 0 1.54z"/></svg>