<svg width="48" height="48" viewBox="0 0 48 48" xmlns="http://www.w3.org/2000/svg"><title>8B890FCB-EB7B-481A-8474-CE8B6265E330</title><path d="M11.953 2.953h-3.75C3.68 2.953 0 6.633 0 11.156v30.938a3.52 3.52 0 0 0 3.516 3.515H16.64a3.52 3.52 0 0 0 3.515-3.515V11.156c0-4.523-3.68-8.203-8.203-8.203zM7.434 4.404a6.993 6.993 0 0 1-5.983 5.984 6.808 6.808 0 0 1 5.983-5.984zM1.406 22.781c0-1.281.28-2.5.781-3.595l1.849 2.63a2.093 2.093 0 0 0-.286 1.059v10.313c0 .32.073.625.201.897L1.805 37.14a2.104 2.104 0 0 1-.399-1.233V22.781zM5.86 35.297h8.438a2.1 2.1 0 0 0 .899-.202l2 2.846a2.103 2.103 0 0 1-.555.075H3.516a2.12 2.12 0 0 1-.556-.075l2-2.846c.273.13.578.202.9.202zm-.703-2.11V22.876c0-.388.316-.703.703-.703h8.438c.388 0 .703.315.703.703v10.313a.704.704 0 0 1-.703.703H5.859a.704.704 0 0 1-.703-.703zm9.888-12.284a2.1 2.1 0 0 0-.747-.137H5.859a2.1 2.1 0 0 0-.747.137l-2.154-3.066a8.667 8.667 0 0 1 7.12-3.728 8.667 8.667 0 0 1 7.12 3.728l-2.154 3.066zm3.706 21.19c0 1.164-.946 2.11-2.11 2.11H3.517a2.112 2.112 0 0 1-2.11-2.11v-3.376a3.497 3.497 0 0 0 2.11.705H16.64c.79 0 1.52-.263 2.109-.705v3.377zm0-6.187c0 .46-.148.886-.4 1.233l-2.145-3.054c.129-.272.201-.577.201-.898V22.876c0-.386-.104-.747-.286-1.058l1.849-2.63a8.62 8.62 0 0 1 .781 3.594v13.125zm0-18.254a10.083 10.083 0 0 0-8.672-4.949 10.083 10.083 0 0 0-8.672 4.95v-5.845a8.397 8.397 0 0 0 7.45-7.449h2.725a8.378 8.378 0 0 0 2.314 4.937 8.375 8.375 0 0 0 4.855 2.477v5.88zm-5.74-13.21a6.81 6.81 0 0 1 5.69 5.898c-2.942-.531-5.262-2.937-5.69-5.898zm26.786-1.489h-3.75c-4.523 0-8.203 3.68-8.203 8.203v30.938a3.52 3.52 0 0 0 3.515 3.515h13.125A3.52 3.52 0 0 0 48 42.094V11.156c0-4.523-3.68-8.203-8.203-8.203zm6.746 7.387c-2.94-.531-5.262-2.937-5.69-5.898a6.81 6.81 0 0 1 5.69 5.898zM35.278 4.404a6.993 6.993 0 0 1-5.983 5.984 6.808 6.808 0 0 1 5.983-5.984zM29.25 22.781c0-1.281.28-2.5.781-3.595l1.849 2.63a2.093 2.093 0 0 0-.286 1.059v10.313c0 .32.072.625.2.897L29.65 37.14a2.104 2.104 0 0 1-.399-1.233V22.781zm4.453 12.516h8.438a2.1 2.1 0 0 0 .899-.202l2 2.846a2.103 2.103 0 0 1-.556.075H31.36c-.192 0-.378-.027-.555-.075l2-2.846c.273.13.578.202.9.202zM33 33.187V22.876c0-.388.315-.703.703-.703h8.438c.387 0 .703.315.703.703v10.313a.704.704 0 0 1-.703.703h-8.438a.704.704 0 0 1-.703-.703zm9.888-12.284a2.1 2.1 0 0 0-.747-.137h-8.438a2.1 2.1 0 0 0-.747.137l-2.154-3.066a8.667 8.667 0 0 1 7.12-3.728 8.667 8.667 0 0 1 7.12 3.728l-2.154 3.066zm3.706 21.19c0 1.164-.947 2.11-2.11 2.11H31.36a2.112 2.112 0 0 1-2.109-2.11v-3.376a3.497 3.497 0 0 0 2.11.705h13.124c.791 0 1.522-.263 2.11-.705v3.377zm0-6.187c0 .46-.149.886-.4 1.233l-2.145-3.054c.128-.272.201-.577.201-.898V22.876c0-.386-.104-.747-.286-1.058l1.849-2.63a8.62 8.62 0 0 1 .78 3.594v13.125zm0-18.254a10.083 10.083 0 0 0-8.672-4.949 10.083 10.083 0 0 0-8.672 4.95v-5.845A8.397 8.397 0 0 0 36.7 4.36h2.725a8.378 8.378 0 0 0 2.314 4.937 8.375 8.375 0 0 0 4.855 2.477v5.88zm-23.25 28.942h1.406V48h-1.406zm0-43.781h1.406v42.374h-1.406zm0-2.813h1.406v1.406h-1.406z"/><path d="M2.766 41.39h1.406v1.407H2.766zm13.218 0h1.407v1.407h-1.407zm14.813 0h1.406v1.407h-1.406zm13.219 0h1.406v1.407h-1.406z"/></svg>