<svg width="48" height="48" viewBox="0 0 48 48" xmlns="http://www.w3.org/2000/svg"><title>8A0A3898-46A6-4229-9596-5FDBB37CFC51</title><path d="M48 5.6V.8c0-.01-.005-.019-.006-.029a.79.79 0 0 0-.055-.277l-.001-.002c-.003-.008-.009-.013-.012-.02a.786.786 0 0 0-.37-.38A.764.764 0 0 0 47.2 0H21.6a.8.8 0 0 0-.566.234l-20.8 20.8v.002a.792.792 0 0 0-.224.515c-.001.017-.01.031-.01.049v4.8a.8.8 0 0 0 .8.8h6a3.604 3.604 0 0 1 3.6 3.6v.869L.235 41.834A.812.812 0 0 0 0 42.4v4.8a.8.8 0 0 0 .8.8h25.6a.795.795 0 0 0 .314-.065c.01-.004.018-.014.029-.02a.8.8 0 0 0 .229-.158l.007-.005 15.987-16.786 4.8-4.8A.8.8 0 0 0 48 25.6v-4.8c0-.01-.005-.019-.006-.029a.79.79 0 0 0-.055-.277l-.001-.002c-.003-.008-.009-.013-.012-.02a.829.829 0 0 0-.447-.416A.789.789 0 0 0 47.2 20h-6a.767.767 0 0 0-.2.04.775.775 0 0 0-.2-.04 3.593 3.593 0 0 1-3.57-3.3L47.765 6.167A.81.81 0 0 0 48 5.6zM21.97 1.385h23.337l-19.2 19.2H2.769l19.2-19.2zM10.437 33.692v4.07a3.604 3.604 0 0 1-3.6 3.6H2.769l7.669-7.67zm14.947 12.462h-24v-3.2h5.2a5.206 5.206 0 0 0 5.2-5.2v-7.2a5.206 5.206 0 0 0-5.2-5.2h-5.2v-3.2h24v3.2h-5.2a5.206 5.206 0 0 0-5.2 5.2v7.2a5.206 5.206 0 0 0 5.2 5.2h5.2v3.2zM46.43 25.153l-4.58 4.58-14.62 15.35v-2.48L42.996 26.05l3.435-3.435v2.538zm-5.816-3.61a.767.767 0 0 0 .2-.04.775.775 0 0 0 .2.04h4.07l-3.45 3.45-15.763 16.55h-5.657a3.604 3.604 0 0 1-3.6-3.6v-7.2a3.604 3.604 0 0 1 3.6-3.6h6a.806.806 0 0 0 .566-.234L35.691 18a5.206 5.206 0 0 0 4.924 3.544zM46.43 5.307L35.865 15.872l-8.634 8.635v-2.538l19.2-19.2v2.538z"/></svg>