<svg width="48" height="48" viewBox="0 0 48 48" xmlns="http://www.w3.org/2000/svg"><title>68F0E93E-1421-47DF-8905-1FF164B8F06B</title><path d="M46.456 15.33C47.982 7.7 48 1.66 48 1.407A1.405 1.405 0 0 0 46.594 0C46.34 0 40.3.018 32.669 1.544a67.91 67.91 0 0 0-7.705 1.998l-.049.016a53.658 53.658 0 0 0-4.467 1.674 42.83 42.83 0 0 0-4.976 2.515c-2.404 1.427-4.503 3.031-6.269 4.797A18.442 18.442 0 0 0 3.766 25.67c0 4.487 1.581 8.73 4.48 12.096L.412 45.599a1.406 1.406 0 1 0 1.989 1.989l7.833-7.834a18.426 18.426 0 0 0 12.095 4.48c4.96 0 9.62-1.93 13.127-5.437 1.766-1.766 3.37-3.865 4.797-6.27a42.824 42.824 0 0 0 2.515-4.976 53.651 53.651 0 0 0 1.689-4.511 67.967 67.967 0 0 0 2-7.71zM33.166 4.313a80.254 80.254 0 0 1 11.98-1.459 80.243 80.243 0 0 1-1.459 11.98 65.783 65.783 0 0 1-1.614 6.398H28.757l8.18-8.18a1.407 1.407 0 0 0-1.988-1.989l-8.18 8.18V5.928a65.783 65.783 0 0 1 6.398-1.614zm5.1 26.018H19.659l6.287-6.286h15.18c-.781 2.123-1.723 4.257-2.858 6.286zM23.957 6.875v15.18L17.67 28.34V9.733c2.03-1.135 4.163-2.077 6.286-2.858zM6.578 25.67c0-4.207 1.639-8.162 4.614-11.137a27.005 27.005 0 0 1 3.665-3.045v19.666l-4.615 4.616a15.63 15.63 0 0 1-3.664-10.1zm26.89 11.139a15.65 15.65 0 0 1-11.139 4.612c-3.734 0-7.27-1.292-10.099-3.663l4.616-4.615h19.667a27.012 27.012 0 0 1-3.045 3.666z"/></svg>