<svg width="48" height="48" viewBox="0 0 48 48" xmlns="http://www.w3.org/2000/svg"><title>DFEC92BA-1692-48CC-8218-BA8590A7D9CB</title><path d="M46.4 24.147V5.6A2.4 2.4 0 0 0 44 3.2H32v-.8A2.4 2.4 0 0 0 29.6 0H18.4A2.4 2.4 0 0 0 16 2.4v.8H4a2.4 2.4 0 0 0-2.4 2.4v18.547A2.4 2.4 0 0 0 0 26.4v19.2A2.4 2.4 0 0 0 2.4 48h43.2a2.4 2.4 0 0 0 2.4-2.4V26.4a2.4 2.4 0 0 0-1.6-2.253zM17.6 2.4a.8.8 0 0 1 .8-.8h11.2a.8.8 0 0 1 .8.8v.8H17.6v-.8zM3.2 5.6a.8.8 0 0 1 .8-.8h40a.8.8 0 0 1 .8.8V24h-1.6V7.2a.8.8 0 0 0-.8-.8H5.6a.8.8 0 0 0-.8.8V24H3.2V5.6zM33.6 24v-6.4h.8a.8.8 0 0 0 .8-.8V16h.8a1.6 1.6 0 0 0 1.6 1.6h1.6a.8.8 0 0 0 .8-.8v-6.4a.8.8 0 0 0-.8-.8h-1.6a1.6 1.6 0 0 0-1.6 1.6h-.8a1.6 1.6 0 0 0-1.6-1.6h-4a7.208 7.208 0 0 0-7.2 7.2v1.6a.8.8 0 0 0 1.425.5l2.24-2.8a2.358 2.358 0 0 1 1.135-.78v1.48a.8.8 0 0 0 .8.8h.8V24H17.6v-2.822a.81.81 0 0 1 .37-.668 6.395 6.395 0 0 0-.828-11.09.8.8 0 0 0-1.142.72v4.629l-1.6 1.071-1.6-1.066v-4.63a.8.8 0 0 0-1.142-.72 6.394 6.394 0 0 0-.828 11.088.812.812 0 0 1 .37.669V24H6.4V8h35.2v16h-8zm.8-11.2h2.4a.8.8 0 0 0 .8-.8v-.8h.8V16h-.8v-.8a.8.8 0 0 0-.8-.8h-2.4a.8.8 0 0 0-.8.8v.8h-4.8v-1.6a.854.854 0 0 0-.862-.8 3.98 3.98 0 0 0-3.124 1.502l-.764.96A5.607 5.607 0 0 1 29.6 11.2h4v.8a.8.8 0 0 0 .8.8zm-4 4.8H32V24h-1.6v-6.4zm-18.68 1.58a4.8 4.8 0 0 1-.52-7.562V15.2a.8.8 0 0 0 .356.666l2.4 1.6a.8.8 0 0 0 .888 0l2.4-1.6a.8.8 0 0 0 .356-.666v-3.582a4.8 4.8 0 0 1-.52 7.563 2.406 2.406 0 0 0-1.08 2V24h-3.2v-2.822a2.409 2.409 0 0 0-1.08-1.998zM46.4 45.6a.8.8 0 0 1-.8.8H2.4a.8.8 0 0 1-.8-.8V26.4a.8.8 0 0 1 .8-.8h43.2a.8.8 0 0 1 .8.8v19.2z"/><path d="M31.2 27.2H16.8a2.4 2.4 0 1 0 0 4.8h14.4a2.4 2.4 0 1 0 0-4.8zm0 3.2H16.8a.8.8 0 1 1 0-1.6h14.4a.8.8 0 1 1 0 1.6z"/></svg>