<svg width="48" height="48" viewBox="0 0 48 48" xmlns="http://www.w3.org/2000/svg"><title>0CF22DC7-78F6-46B0-9C34-7DF90B791665</title><path d="M47.234 46.238c-1.294 0-2.482-.658-3.257-1.805a.747.747 0 0 0-.616-.34.747.747 0 0 0-.617.34c-.761 1.13-1.977 1.805-3.253 1.805s-2.494-.675-3.258-1.805a.747.747 0 0 0-.616-.34.747.747 0 0 0-.616.34c-.764 1.13-1.982 1.805-3.257 1.805-1.292 0-2.479-.658-3.255-1.805a.747.747 0 0 0-.616-.34.747.747 0 0 0-.616.34c-.764 1.13-1.982 1.805-3.257 1.805-1.276 0-2.492-.674-3.253-1.804a.747.747 0 0 0-.616-.341.747.747 0 0 0-.616.338c-.78 1.149-1.967 1.807-3.259 1.807-1.276 0-2.492-.674-3.253-1.804a.747.747 0 0 0-.616-.341.747.747 0 0 0-.617.34c-.764 1.13-1.983 1.805-3.26 1.805-1.274 0-2.49-.675-3.255-1.806a.747.747 0 0 0-.616-.339.747.747 0 0 0-.616.34C3.248 45.58 2.06 46.238.766 46.238c-.423 0-.766.375-.766.837 0 .463.343.838.766.838 1.447 0 2.84-.629 3.873-1.718 1.034 1.09 2.425 1.718 3.87 1.718 1.45 0 2.842-.629 3.877-1.717 1.031 1.088 2.423 1.717 3.87 1.717 1.469 0 2.839-.616 3.875-1.716 1.031 1.088 2.422 1.716 3.87 1.716 1.445 0 2.837-.628 3.87-1.716 1.034 1.1 2.403 1.716 3.873 1.716 1.447 0 2.84-.629 3.873-1.718 1.034 1.089 2.426 1.718 3.874 1.718s2.839-.629 3.87-1.717c1.034 1.088 2.426 1.717 3.873 1.717.423 0 .766-.375.766-.838 0-.462-.343-.837-.766-.837zM.766 40.744c1.447 0 2.84-.628 3.873-1.717a5.58 5.58 0 0 0 2.154 1.414c.55.197 1.128.303 1.716.303.59 0 1.17-.105 1.72-.302a5.578 5.578 0 0 0 2.157-1.415c1.031 1.089 2.423 1.717 3.87 1.717 1.469 0 2.839-.615 3.875-1.715a5.562 5.562 0 0 0 2.153 1.414c.55.196 1.128.301 1.716.301.588 0 1.165-.105 1.714-.3a5.578 5.578 0 0 0 2.157-1.414c1.034 1.099 2.403 1.714 3.873 1.714 1.447 0 2.84-.628 3.873-1.717 1.034 1.089 2.426 1.717 3.874 1.717s2.839-.628 3.87-1.716c1.034 1.088 2.426 1.716 3.873 1.716.423 0 .766-.375.766-.837 0-.462-.343-.837-.766-.837-1.294 0-2.482-.658-3.257-1.806a.747.747 0 0 0-.616-.34.747.747 0 0 0-.617.342c-.761 1.13-1.977 1.804-3.253 1.804s-2.494-.675-3.258-1.806a.747.747 0 0 0-.616-.34.747.747 0 0 0-.616.34c-.764 1.13-1.982 1.806-3.257 1.806-1.292 0-2.478-.658-3.254-1.806a.747.747 0 0 0-.616-.34.747.747 0 0 0-.616.34 4.3 4.3 0 0 1-.96 1.014V11.065c0-3.283 2.444-5.954 5.447-5.954 3.004 0 5.448 2.67 5.448 5.954 0 1.385 1.03 2.511 2.298 2.511 1.267 0 2.297-1.126 2.297-2.511 0-6.053-4.505-10.978-10.043-10.978-5.537 0-10.043 4.925-10.043 10.978v9.115H10.807v-9.115c0-3.283 2.444-5.954 5.448-5.954 1.31 0 2.579.52 3.571 1.464a.721.721 0 0 0 1.08-.08.892.892 0 0 0-.074-1.182c-1.271-1.21-2.897-1.877-4.577-1.877-3.849 0-6.98 3.422-6.98 7.629v9.115h-1.53v-9.115c0-5.13 3.818-9.303 8.51-9.303 1.875 0 3.654.656 5.145 1.898.337.28.817.209 1.074-.159.256-.368.191-.893-.146-1.173-1.76-1.466-3.86-2.24-6.072-2.24-5.538 0-10.043 4.924-10.043 10.977v27.21a4.27 4.27 0 0 1-.957-1.01.747.747 0 0 0-.616-.34.747.747 0 0 0-.616.34C3.248 38.411 2.06 39.07.766 39.07c-.423 0-.766.375-.766.837 0 .462.343.837.766.837zm19.98-3.478a.747.747 0 0 0-.614-.341.747.747 0 0 0-.617.338c-.78 1.148-1.967 1.807-3.258 1.807-1.277 0-2.493-.675-3.253-1.804a.747.747 0 0 0-.617-.341.747.747 0 0 0-.616.34c-.27.399-.598.74-.964 1.016v-4.705h10.895v4.702a4.243 4.243 0 0 1-.955-1.012zm.956-12.062v3.349H10.807v-3.35h10.895zM9.275 28.553H7.744v-3.35h1.531v3.35zm-1.531 1.674h13.958V31.9H7.744v-1.674zm15.49-19.162c0-5.13 3.818-9.303 8.511-9.303s8.511 4.173 8.511 9.303c0 .461-.343.837-.765.837-.423 0-.766-.376-.766-.837 0-4.207-3.131-7.629-6.98-7.629-3.848 0-6.979 3.422-6.979 7.629v27.922a3.63 3.63 0 0 1-1.532 0V11.065zm-1.532 10.79v1.674H7.744v-1.674h13.958zM7.744 33.575h1.531v5.412a3.63 3.63 0 0 1-.766.083 3.63 3.63 0 0 1-.765-.084v-5.41z"/></svg>