<svg width="48" height="48" viewBox="0 0 48 48" xmlns="http://www.w3.org/2000/svg"><title>DACDEE0D-4E30-4E86-9F5B-FC7317A6EE89</title><path d="M28 29.6h1.6a1.6 1.6 0 0 0 1.6-1.6v-8a1.6 1.6 0 0 0-1.6-1.6H28a1.6 1.6 0 0 0-1.6 1.6v8a1.6 1.6 0 0 0 1.6 1.6zm0-9.6h1.6v8H28v-8zm-9.6 9.6H20a1.6 1.6 0 0 0 1.6-1.6v-8a1.6 1.6 0 0 0-1.6-1.6h-1.6a1.6 1.6 0 0 0-1.6 1.6v8a1.6 1.6 0 0 0 1.6 1.6zm0-9.6H20v8h-1.6v-8z"/><path d="M47.2 46.4h-.8v-44A2.4 2.4 0 0 0 44 0H4a2.4 2.4 0 0 0-2.4 2.4v44H.8a.8.8 0 1 0 0 1.6h46.4a.8.8 0 1 0 0-1.6zM41.6 4.8v41H24.8v-41h16.8zm-18.4 41H6.4v-41h16.8v41zM42.069 3.2H5.93l-1.6-1.6h39.34l-1.6 1.6zM3.2 2.731l1.6 1.6V46.4H3.2V2.731zm40 43.669V4.331l1.6-1.6V46.4h-1.6z"/></svg>