<svg width="48" height="42" viewBox="0 0 48 42" xmlns="http://www.w3.org/2000/svg"><title>FB5D7850-374C-4399-BCB0-3F2F25F726ED</title><path d="M41.472 17.067c-1.728 0-2.609-.806-3.385-1.516-.702-.642-1.256-1.15-2.44-1.15-1.183 0-1.738.508-2.439 1.15-.777.71-1.657 1.516-3.385 1.516-1.729 0-2.61-.806-3.386-1.516-.701-.642-1.255-1.15-2.439-1.15-1.184 0-1.738.508-2.439 1.15-.777.71-1.657 1.516-3.385 1.516-1.729 0-2.609-.806-3.385-1.516-.702-.642-1.256-1.15-2.44-1.15-1.183 0-1.737.508-2.438 1.15-.777.71-1.657 1.516-3.386 1.516-1.728 0-2.608-.806-3.385-1.516-.701-.642-1.255-1.15-2.44-1.15A.7.7 0 0 1 .7 13c1.73 0 2.61.806 3.386 1.517.702.642 1.256 1.149 2.44 1.149 1.183 0 1.737-.507 2.438-1.15.777-.71 1.657-1.516 3.386-1.516 1.728 0 2.608.806 3.385 1.517.701.642 1.255 1.149 2.439 1.149 1.183 0 1.737-.507 2.439-1.15.776-.71 1.657-1.516 3.385-1.516 1.728 0 2.609.806 3.385 1.517.702.642 1.256 1.149 2.44 1.149s1.738-.507 2.439-1.15c.777-.71 1.657-1.516 3.385-1.516 1.729 0 2.61.806 3.386 1.517.701.642 1.255 1.149 2.44 1.149 1.183 0 1.737-.507 2.439-1.15.777-.71 1.657-1.516 3.386-1.516a.7.7 0 0 1 0 1.401c-1.184 0-1.739.508-2.44 1.15-.777.71-1.657 1.516-3.386 1.516zm0-6.073c-1.728 0-2.609-.806-3.385-1.516-.702-.642-1.256-1.15-2.44-1.15-1.183 0-1.738.508-2.439 1.15-.777.71-1.657 1.516-3.385 1.516-1.729 0-2.61-.806-3.386-1.516-.701-.642-1.255-1.15-2.439-1.15-1.184 0-1.738.508-2.439 1.15-.777.71-1.657 1.516-3.385 1.516-1.729 0-2.609-.806-3.385-1.516-.702-.642-1.256-1.15-2.44-1.15-1.183 0-1.737.508-2.438 1.15-.777.71-1.657 1.516-3.386 1.516-1.728 0-2.608-.806-3.385-1.516-.701-.642-1.255-1.15-2.44-1.15a.7.7 0 0 1 0-1.401c1.73 0 2.61.806 3.386 1.517.702.642 1.256 1.149 2.44 1.149 1.183 0 1.737-.507 2.438-1.15.777-.71 1.657-1.516 3.386-1.516 1.728 0 2.608.806 3.385 1.517.701.642 1.255 1.149 2.439 1.149 1.183 0 1.737-.507 2.439-1.15.776-.71 1.657-1.516 3.385-1.516 1.728 0 2.609.806 3.385 1.517.702.642 1.256 1.149 2.44 1.149s1.738-.507 2.439-1.15c.777-.71 1.657-1.516 3.385-1.516 1.729 0 2.61.806 3.386 1.517.701.642 1.255 1.149 2.44 1.149 1.183 0 1.737-.507 2.439-1.15.777-.71 1.657-1.516 3.386-1.516a.7.7 0 0 1 0 1.401c-1.184 0-1.739.508-2.44 1.15-.777.71-1.657 1.516-3.386 1.516zm0-6c-1.728 0-2.609-.806-3.385-1.516-.702-.642-1.256-1.15-2.44-1.15-1.183 0-1.738.508-2.439 1.15-.777.71-1.657 1.516-3.385 1.516-1.729 0-2.61-.806-3.386-1.516-.701-.642-1.255-1.15-2.439-1.15-1.184 0-1.738.508-2.439 1.15-.777.71-1.657 1.516-3.385 1.516-1.729 0-2.609-.806-3.385-1.516-.702-.642-1.256-1.15-2.44-1.15-1.183 0-1.737.508-2.438 1.15-.777.71-1.657 1.516-3.386 1.516-1.728 0-2.608-.806-3.385-1.516-.701-.642-1.255-1.15-2.44-1.15A.7.7 0 0 1 .7.927c1.73 0 2.61.806 3.386 1.517.702.642 1.256 1.149 2.44 1.149 1.183 0 1.737-.507 2.438-1.15.777-.71 1.657-1.516 3.386-1.516 1.728 0 2.608.806 3.385 1.517.701.642 1.255 1.149 2.439 1.149 1.183 0 1.737-.507 2.439-1.15.776-.71 1.657-1.516 3.385-1.516 1.728 0 2.609.806 3.385 1.517.702.642 1.256 1.149 2.44 1.149s1.738-.507 2.439-1.15c.777-.71 1.657-1.516 3.385-1.516 1.729 0 2.61.806 3.386 1.517.701.642 1.255 1.149 2.44 1.149 1.183 0 1.737-.507 2.439-1.15.777-.71 1.657-1.516 3.386-1.516a.7.7 0 0 1 0 1.401c-1.184 0-1.739.508-2.44 1.15-.777.71-1.657 1.516-3.386 1.516zm0 18.156c-1.728 0-2.609-.806-3.385-1.517-.702-.642-1.256-1.15-2.44-1.15-1.183 0-1.738.508-2.439 1.15-.777.71-1.657 1.516-3.385 1.516-1.729 0-2.61-.805-3.386-1.516-.701-.642-1.255-1.15-2.439-1.15-1.184 0-1.738.508-2.439 1.15-.777.71-1.657 1.516-3.385 1.516-1.729 0-2.609-.805-3.385-1.516-.702-.642-1.256-1.15-2.44-1.15-1.183 0-1.737.508-2.438 1.15-.777.71-1.657 1.516-3.386 1.516-1.728 0-2.608-.805-3.385-1.516-.701-.642-1.255-1.15-2.44-1.15a.7.7 0 0 1 0-1.4c1.73 0 2.61.805 3.386 1.516.702.642 1.256 1.149 2.44 1.149 1.183 0 1.737-.507 2.438-1.149.777-.71 1.657-1.517 3.386-1.517 1.728 0 2.608.806 3.385 1.517.701.642 1.255 1.149 2.439 1.149 1.183 0 1.737-.507 2.439-1.149.776-.71 1.657-1.517 3.385-1.517 1.728 0 2.609.806 3.385 1.517.702.642 1.256 1.149 2.44 1.149s1.738-.507 2.439-1.149c.777-.71 1.657-1.517 3.385-1.517 1.729 0 2.61.806 3.386 1.517.701.642 1.255 1.149 2.44 1.149 1.183 0 1.737-.507 2.439-1.15.777-.71 1.657-1.516 3.386-1.516a.7.7 0 0 1 0 1.402c-1.184 0-1.739.507-2.44 1.149-.777.71-1.657 1.516-3.386 1.516zm0 6.073c-1.728 0-2.609-.806-3.385-1.517-.702-.642-1.256-1.15-2.44-1.15-1.183 0-1.738.508-2.439 1.15-.777.71-1.657 1.517-3.385 1.517-1.729 0-2.61-.806-3.386-1.517-.701-.642-1.255-1.15-2.439-1.15-1.184 0-1.738.508-2.439 1.15-.777.71-1.657 1.517-3.385 1.517-1.729 0-2.609-.806-3.385-1.517-.702-.642-1.256-1.15-2.44-1.15-1.183 0-1.737.508-2.438 1.15-.777.71-1.657 1.517-3.386 1.517-1.728 0-2.608-.806-3.385-1.517-.701-.642-1.256-1.15-2.44-1.15a.7.7 0 0 1 0-1.4c1.73 0 2.61.805 3.386 1.516.702.642 1.256 1.15 2.44 1.15 1.183 0 1.737-.508 2.438-1.15.777-.71 1.657-1.517 3.386-1.517 1.728 0 2.608.806 3.385 1.517.701.642 1.255 1.15 2.439 1.15 1.183 0 1.737-.508 2.439-1.15.776-.71 1.657-1.517 3.385-1.517 1.728 0 2.609.806 3.385 1.517.702.642 1.256 1.15 2.44 1.15s1.738-.508 2.439-1.15c.777-.71 1.657-1.517 3.385-1.517 1.729 0 2.61.806 3.386 1.517.701.642 1.255 1.15 2.44 1.15 1.183 0 1.737-.508 2.439-1.15.777-.71 1.657-1.517 3.386-1.517a.7.7 0 0 1 0 1.402c-1.184 0-1.739.507-2.44 1.149-.777.71-1.657 1.517-3.386 1.517zm0 6.073c-1.728 0-2.609-.806-3.385-1.517-.702-.642-1.256-1.15-2.44-1.15-1.183 0-1.738.508-2.439 1.15-.777.71-1.657 1.517-3.385 1.517-1.729 0-2.61-.806-3.386-1.517-.701-.642-1.255-1.15-2.439-1.15-1.184 0-1.738.508-2.439 1.15-.777.71-1.657 1.517-3.385 1.517-1.729 0-2.609-.806-3.385-1.517-.702-.642-1.256-1.15-2.44-1.15-1.183 0-1.737.508-2.438 1.15-.777.71-1.657 1.517-3.386 1.517-1.728 0-2.608-.806-3.385-1.517-.701-.642-1.256-1.15-2.44-1.15a.7.7 0 0 1 0-1.4c1.73 0 2.61.805 3.386 1.516.702.642 1.256 1.15 2.44 1.15 1.183 0 1.737-.508 2.438-1.15.777-.71 1.657-1.517 3.386-1.517 1.728 0 2.608.806 3.385 1.517.701.642 1.255 1.15 2.439 1.15 1.183 0 1.737-.508 2.439-1.15.776-.71 1.657-1.517 3.385-1.517 1.728 0 2.609.806 3.385 1.517.702.642 1.256 1.15 2.44 1.15s1.738-.508 2.439-1.15c.777-.71 1.657-1.517 3.385-1.517 1.729 0 2.61.806 3.386 1.517.701.642 1.255 1.15 2.44 1.15 1.183 0 1.737-.508 2.439-1.15.777-.71 1.657-1.517 3.386-1.517a.7.7 0 0 1 0 1.402c-1.184 0-1.739.507-2.44 1.149-.777.71-1.657 1.517-3.386 1.517zm0 6.073c-1.728 0-2.609-.806-3.385-1.517-.702-.642-1.256-1.15-2.44-1.15-1.183 0-1.738.508-2.439 1.15-.777.71-1.657 1.517-3.385 1.517-1.729 0-2.61-.806-3.386-1.517-.701-.642-1.255-1.15-2.439-1.15-1.184 0-1.738.508-2.439 1.15-.777.71-1.657 1.517-3.385 1.517-1.729 0-2.609-.806-3.385-1.517-.702-.642-1.256-1.15-2.44-1.15-1.183 0-1.737.508-2.438 1.15-.777.71-1.657 1.517-3.386 1.517-1.728 0-2.608-.806-3.385-1.517-.701-.642-1.256-1.15-2.44-1.15a.7.7 0 0 1 0-1.4c1.73 0 2.61.805 3.386 1.516.702.642 1.256 1.15 2.44 1.15 1.183 0 1.737-.508 2.438-1.15.777-.71 1.657-1.517 3.386-1.517 1.728 0 2.608.806 3.385 1.517.701.642 1.255 1.15 2.439 1.15 1.183 0 1.737-.508 2.439-1.15.776-.71 1.657-1.517 3.385-1.517 1.728 0 2.609.806 3.385 1.517.702.642 1.256 1.15 2.44 1.15s1.738-.508 2.439-1.15c.777-.71 1.657-1.517 3.385-1.517 1.729 0 2.61.806 3.386 1.517.701.642 1.255 1.15 2.44 1.15 1.183 0 1.737-.508 2.439-1.15.777-.71 1.657-1.517 3.386-1.517a.7.7 0 1 1 0 1.402c-1.184 0-1.739.507-2.44 1.149-.777.71-1.657 1.517-3.386 1.517z"/></svg>