<svg width="48" height="48" viewBox="0 0 48 48" xmlns="http://www.w3.org/2000/svg"><title>46CDB3D8-647D-4FFA-8B78-35C70991F3ED</title><path d="M47.01 47.86H.85a.85.85 0 0 1-.85-.85V.85C0 .381.38 0 .851 0H47.01c.47 0 .85.38.85.851V47.01a.85.85 0 0 1-.85.85zM36 45.913h10.374V35.538l-9.623 9.623-.004.004-.005.005-.742.742zM22.615 46h10.842l1.348-1.349-5.42-5.42-6.77 6.77zm-12.461.084h9.961l14.796-14.796-4.98-4.98-15.711 15.71-4.066 4.066zm-8.308-.186h6.059l4.668-4.668L7.343 36l-5.497 5.497v4.4zm28.616-7.634l5.42 5.42 10.229-10.228v-10.84l-9.429 9.427-6.22 6.221zM8.308 34.871l5.229 5.23 26.101-26.102-5.23-5.23-10.232 10.233-.002.002L8.308 34.871zm-6.462-7.022v11.433l4.887-4.887.008-.008.009-.009L22.607 18.52l-5.597-5.597L1.846 27.85zm29.077-2.684l4.98 4.98L45.91 20.141l.025-.025v-9.962l-15.01 15.01zM1.846 13.83v11.502l6.74-6.634-5.775-5.776-.965.908zm1.846-1.791l5.75 5.749L25.638 1.846H14.515L3.692 12.04zM18 11.48l5.588 5.588L39.27 1.385H28.257L18 11.48zm17.538-4.045l5.23 5.23 5.222-5.222V1.385h-4.401l-6.05 6.05zM1.846 1.385v9.988l.318-.3a.9.9 0 0 1 .161-.151L12.45 1.385H1.846z"/></svg>