<svg width="48" height="48" viewBox="0 0 48 48" xmlns="http://www.w3.org/2000/svg"><title>00140C85-75AA-4E38-BAE2-E30D857C8F24</title><path d="M46.75 9.6H32.488a.792.792 0 0 0-.793.792v18.225H14.263V26.24a.792.792 0 0 0-.793-.792h-2.377v1.584h1.585v1.585h-3.17v-3.17H7.925v3.17h-3.17v-1.585H6.34v-1.584H3.962a.792.792 0 0 0-.792.792v2.377H.792A.792.792 0 0 0 0 29.41v17.432c0 .437.355.792.792.792H46.75a.792.792 0 0 0 .793-.792v-36.45a.792.792 0 0 0-.793-.792zm-13.379 1.371H46.05v9.509H33.37v-9.509zm-1.737 22.37H17.371v-3.17h14.263v3.17zm-30.263-3.17h14.263v3.17H1.371v-3.17zm0 4.572h14.263v11.093H1.371V34.743zm16 0h6.34v11.093h-6.34V34.743zm7.772 0h6.339v11.093h-6.34V34.743zm8.228 10.971V21.943H46.05v23.771H33.37z"/><path d="M34.743 14.171h1.585v3.17h-1.585zm0 10.972h1.585v3.17h-1.585zM4.785 31.421a.792.792 0 1 1-1.585 0 .792.792 0 0 1 1.585 0zm3.2 0a.792.792 0 1 1-1.585 0 .792.792 0 0 1 1.585 0zm3.2 0a.792.792 0 1 1-1.585 0 .792.792 0 0 1 1.585 0zm3.2 0a.792.792 0 1 1-1.585 0 .792.792 0 0 1 1.585 0zM.792 15.055H16.64a.792.792 0 0 0 .792-.792v-2.377a.792.792 0 0 0-.232-.56l-3.17-3.17a.792.792 0 0 0-.56-.232h-.792V.792A.792.792 0 0 0 11.886 0h-6.34a.792.792 0 0 0-.792.792v7.132h-.792a.792.792 0 0 0-.56.232l-3.17 3.17a.792.792 0 0 0-.232.56v2.377c0 .437.355.792.792.792zM6.4 1.371h4.754v6.34H6.4V1.37zM1.371 12.305L4.077 9.6h8.852l2.705 2.705v1.257H1.371v-1.257zm12.13 23.809H3.992a.792.792 0 0 0-.792.793v6.339c0 .437.355.792.792.792h9.509a.792.792 0 0 0 .792-.792v-6.34a.792.792 0 0 0-.792-.792zm-1.006 6.583H4.571v-4.754h7.924v4.754zm10.362-12.068h3.17v1.584h-3.17zm-2.286 8.228h1.585v3.17h-1.585zm6.4 0h1.585v3.17h-1.585zM19.078 19.81h4.754a.792.792 0 0 0 .793-.793v-.792a3.17 3.17 0 0 0-2.377-3.057V0h-1.585v15.168a3.17 3.17 0 0 0-2.377 3.057v.792c0 .438.355.793.792.793zm2.164-3.353c.875 0 1.585.71 1.585 1.585h-3.17c0-.875.71-1.585 1.585-1.585z"/><path d="M24.564 13.47h4.754a.792.792 0 0 0 .792-.792v-.792a3.17 3.17 0 0 0-2.377-3.057V0H26.15v8.829a3.17 3.17 0 0 0-2.378 3.057v.792c0 .438.355.792.793.792zm2.164-3.413c.875 0 1.584.71 1.584 1.585h-3.17c0-.875.71-1.585 1.586-1.585z"/></svg>