<?xml version="1.0" encoding="UTF-8"?>
<svg width="39px" height="48px" viewBox="0 0 39 48" version="1.1" xmlns="http://www.w3.org/2000/svg" xmlns:xlink="http://www.w3.org/1999/xlink">
    <!-- Generator: sketchtool 60.1 (101010) - https://sketch.com -->
    <title>7F419FE8-0887-480E-8364-62919765B98E</title>
    <desc>Created with sketchtool.</desc>
    <g id="Pac-primário" stroke="none" stroke-width="1" fill="none" fill-rule="evenodd">
        <g id="BIM---1-biblioteca" transform="translate(-1029.000000, -398.000000)" fill="#FFB919" fill-rule="nonzero">
            <g id="Group" transform="translate(337.000000, 180.000000)">
                <g id="Group-2-Copy" transform="translate(692.000000, 218.000000)">
                    <g id="budget-(1)">
                        <path d="M7.94521875,9.04125 L7.94521875,6.42965625 C8.499,6.61115625 8.84709375,6.9765 8.84709375,7.3153125 C8.84709375,7.73034375 9.1835625,8.06690625 9.5986875,8.06690625 C10.0138125,8.06690625 10.3502813,7.7304375 10.3502813,7.3153125 C10.3502813,6.1168125 9.34078125,5.1405 7.94521875,4.87940625 L7.94521875,4.75996875 C7.94521875,4.3449375 7.60875,4.008375 7.193625,4.008375 C6.7785,4.008375 6.44203125,4.34484375 6.44203125,4.75996875 L6.44203125,4.87940625 C5.0465625,5.14059375 4.03696875,6.11690625 4.03696875,7.3153125 C4.03696875,8.989875 5.37440625,9.69365625 6.44203125,10.09875 L6.44203125,12.7104375 C5.88825,12.5289375 5.54015625,12.1635938 5.54015625,11.8247812 C5.54015625,11.40975 5.2036875,11.0731875 4.7885625,11.0731875 C4.3734375,11.0731875 4.03696875,11.4096563 4.03696875,11.8247812 C4.03696875,13.0232813 5.04646875,13.9995938 6.44203125,14.2606875 L6.44203125,14.380125 C6.44203125,14.7951562 6.7785,15.1317188 7.193625,15.1317188 C7.60875,15.1317188 7.94521875,14.79525 7.94521875,14.380125 L7.94521875,14.2606875 C9.3406875,13.9995 10.3502813,13.0231875 10.3502813,11.8247812 C10.3502813,10.150125 9.01284375,9.44634375 7.94521875,9.04125 Z M6.442125,8.45896875 C5.692875,8.09175 5.54025,7.77103125 5.54025,7.3153125 C5.54025,6.9765 5.88834375,6.61115625 6.442125,6.42965625 L6.442125,8.45896875 Z M7.94521875,12.7103437 L7.94521875,10.6810313 C8.69446875,11.04825 8.84709375,11.3689687 8.84709375,11.8246875 C8.84709375,12.1635 8.499,12.5288438 7.94521875,12.7103437 Z" id="Shape"></path>
                        <path d="M19.21875,5.6116875 L12.8054062,5.6116875 C12.390375,5.6116875 12.0538125,5.94815625 12.0538125,6.36328125 C12.0538125,6.7783125 12.3902812,7.114875 12.8054062,7.114875 L19.21875,7.114875 C19.6337813,7.114875 19.9703437,6.77840625 19.9703437,6.36328125 C19.9703437,5.94825 19.6337813,5.6116875 19.21875,5.6116875 Z" id="Path"></path>
                        <path d="M13.6070625,12.025125 L12.8054062,12.025125 C12.390375,12.025125 12.0538125,12.3615937 12.0538125,12.7767187 C12.0538125,13.1918437 12.3902812,13.5283125 12.8054062,13.5283125 L13.6070625,13.5283125 C14.0220937,13.5283125 14.3586562,13.1918437 14.3586562,12.7767187 C14.3586562,12.3615937 14.0220937,12.025125 13.6070625,12.025125 Z" id="Path"></path>
                        <path d="M27.2355,17.636625 L4.78865625,17.636625 C4.373625,17.636625 4.0370625,17.9730938 4.0370625,18.3882188 C4.0370625,18.8033437 4.37353125,19.1398125 4.78865625,19.1398125 L27.2355,19.1398125 C27.6505313,19.1398125 27.9870937,18.8033437 27.9870937,18.3882188 C27.9870937,17.9730938 27.6505313,17.636625 27.2355,17.636625 Z" id="Path"></path>
                        <path d="M12.0036562,22.4466563 L9.59859375,22.4466563 C9.1835625,22.4466563 8.847,22.783125 8.847,23.19825 C8.847,23.613375 9.18346875,23.9498438 9.59859375,23.9498438 L12.0036562,23.9498438 C12.4186875,23.9498438 12.75525,23.613375 12.75525,23.19825 C12.75525,22.783125 12.4187813,22.4466563 12.0036562,22.4466563 Z" id="Path"></path>
                        <path d="M6.39196875,22.4466563 L4.78865625,22.4466563 C4.373625,22.4466563 4.0370625,22.783125 4.0370625,23.19825 C4.0370625,23.613375 4.37353125,23.9498438 4.78865625,23.9498438 L6.39196875,23.9498438 C6.807,23.9498438 7.1435625,23.613375 7.1435625,23.19825 C7.1435625,22.783125 6.807,22.4466563 6.39196875,22.4466563 Z" id="Path"></path>
                        <path d="M12.0036562,25.653375 L9.59859375,25.653375 C9.1835625,25.653375 8.847,25.9898438 8.847,26.4049688 C8.847,26.82 9.18346875,27.1565625 9.59859375,27.1565625 L12.0036562,27.1565625 C12.4186875,27.1565625 12.75525,26.8200938 12.75525,26.4049688 C12.75525,25.9898438 12.4187813,25.653375 12.0036562,25.653375 Z" id="Path"></path>
                        <path d="M6.39196875,25.653375 L4.78865625,25.653375 C4.373625,25.653375 4.0370625,25.9898438 4.0370625,26.4049688 C4.0370625,26.82 4.37353125,27.1565625 4.78865625,27.1565625 L6.39196875,27.1565625 C6.807,27.1565625 7.1435625,26.8200938 7.1435625,26.4049688 C7.1435625,25.9898438 6.807,25.653375 6.39196875,25.653375 Z" id="Path"></path>
                        <path d="M12.0036562,28.8600938 L9.59859375,28.8600938 C9.1835625,28.8600938 8.847,29.1965625 8.847,29.6116875 C8.847,30.0268125 9.18346875,30.3632812 9.59859375,30.3632812 L12.0036562,30.3632812 C12.4186875,30.3632812 12.75525,30.0268125 12.75525,29.6116875 C12.75525,29.1965625 12.4187813,28.8600938 12.0036562,28.8600938 Z" id="Path"></path>
                        <path d="M6.39196875,28.8600938 L4.78865625,28.8600938 C4.373625,28.8600938 4.0370625,29.1965625 4.0370625,29.6116875 C4.0370625,30.0268125 4.37353125,30.3632812 4.78865625,30.3632812 L6.39196875,30.3632812 C6.807,30.3632812 7.1435625,30.0268125 7.1435625,29.6116875 C7.1435625,29.1965625 6.807,28.8600938 6.39196875,28.8600938 Z" id="Path"></path>
                        <path d="M12.0036562,32.0667187 L9.59859375,32.0667187 C9.1835625,32.0667187 8.847,32.4031875 8.847,32.8183125 C8.847,33.2334375 9.18346875,33.5699063 9.59859375,33.5699063 L12.0036562,33.5699063 C12.4186875,33.5699063 12.75525,33.2334375 12.75525,32.8183125 C12.75525,32.4031875 12.4187813,32.0667187 12.0036562,32.0667187 Z" id="Path"></path>
                        <path d="M6.39196875,32.0667187 L4.78865625,32.0667187 C4.373625,32.0667187 4.0370625,32.4031875 4.0370625,32.8183125 C4.0370625,33.2334375 4.37353125,33.5699063 4.78865625,33.5699063 L6.39196875,33.5699063 C6.807,33.5699063 7.1435625,33.2334375 7.1435625,32.8183125 C7.1435625,32.4031875 6.807,32.0667187 6.39196875,32.0667187 Z" id="Path"></path>
                        <path d="M12.0036562,35.2734375 L9.59859375,35.2734375 C9.1835625,35.2734375 8.847,35.6099063 8.847,36.0250313 C8.847,36.4401563 9.18346875,36.776625 9.59859375,36.776625 L12.0036562,36.776625 C12.4186875,36.776625 12.75525,36.4401563 12.75525,36.0250313 C12.75525,35.6099063 12.4187813,35.2734375 12.0036562,35.2734375 Z" id="Path"></path>
                        <path d="M6.39196875,35.2734375 L4.78865625,35.2734375 C4.373625,35.2734375 4.0370625,35.6099063 4.0370625,36.0250313 C4.0370625,36.4401563 4.37353125,36.776625 4.78865625,36.776625 L6.39196875,36.776625 C6.807,36.776625 7.1435625,36.4401563 7.1435625,36.0250313 C7.1435625,35.6099063 6.807,35.2734375 6.39196875,35.2734375 Z" id="Path"></path>
                        <path d="M21.6238125,12.025125 L20.8221563,12.025125 C20.407125,12.025125 20.0705625,12.3615937 20.0705625,12.7767187 C20.0705625,13.1918437 20.4070313,13.5283125 20.8221563,13.5283125 L21.6238125,13.5283125 C22.0388438,13.5283125 22.3754063,13.1918437 22.3754063,12.7767187 C22.3754063,12.3615937 22.0388438,12.025125 21.6238125,12.025125 Z" id="Path"></path>
                        <path d="M25.6320937,12.025125 L24.8304375,12.025125 C24.4154063,12.025125 24.0788438,12.3615937 24.0788438,12.7767187 C24.0788438,13.1918437 24.4153125,13.5283125 24.8304375,13.5283125 L25.6320937,13.5283125 C26.047125,13.5283125 26.3836875,13.1918437 26.3836875,12.7767187 C26.3836875,12.3615937 26.0472187,12.025125 25.6320937,12.025125 Z" id="Path"></path>
                        <path d="M17.6154375,12.025125 L16.8137813,12.025125 C16.39875,12.025125 16.0621875,12.3615937 16.0621875,12.7767187 C16.0621875,13.1918437 16.3986563,13.5283125 16.8137813,13.5283125 L17.6154375,13.5283125 C18.0304688,13.5283125 18.3670313,13.1918437 18.3670313,12.7767187 C18.3670313,12.3615937 18.0304688,12.025125 17.6154375,12.025125 Z" id="Path"></path>
                        <path d="M20.8220625,8.81840625 L12.8053125,8.81840625 C12.3902813,8.81840625 12.0537187,9.154875 12.0537187,9.57 C12.0537187,9.985125 12.3901875,10.3215937 12.8053125,10.3215937 L20.8220625,10.3215937 C21.2370938,10.3215937 21.5736562,9.985125 21.5736562,9.57 C21.5736562,9.154875 21.2371875,8.81840625 20.8220625,8.81840625 Z" id="Path"></path>
                        <path d="M35.25225,20.8433438 L31.9954688,20.8433438 L31.9954688,8.76834375 C31.9954688,8.56903125 31.9163438,8.377875 31.7753438,8.23696875 L23.7585,0.220125 C23.6175938,0.079125 23.4264375,0 23.227125,0 L2.38359375,0 C1.0850625,0 0.0286875,1.056375 0.0286875,2.35490625 L0.0286875,40.8350625 C0.0286875,42.1335937 1.0850625,43.1899687 2.38359375,43.1899687 L14.4587812,43.1899687 L14.4587812,44.8434375 C14.4587812,46.584 15.874875,48 17.6153438,48 L35.2521563,48 C36.9927188,48 38.4087188,46.5839062 38.4087188,44.8434375 L38.4087188,23.9999062 C38.4087188,22.2593437 36.9927188,20.8433438 35.25225,20.8433438 Z M23.9787188,2.5659375 L29.4295313,8.01675 L25.6321875,8.01675 C24.7204688,8.01675 23.9787188,7.275 23.9787188,6.36328125 L23.9787188,2.5659375 Z M14.4587812,23.9999062 L14.4587812,41.6867812 L2.38359375,41.6867812 C1.91390625,41.6867812 1.53178125,41.3046562 1.53178125,40.8349688 L1.53178125,2.35490625 C1.53178125,1.88521875 1.91390625,1.50309375 2.38359375,1.50309375 L22.4755312,1.50309375 L22.4755312,6.36328125 C22.4755312,8.10384375 23.891625,9.51984375 25.6320937,9.51984375 L30.4922813,9.51984375 L30.4922813,20.84325 L17.6154375,20.84325 C15.874875,20.8433437 14.4587812,22.2593437 14.4587812,23.9999062 Z M36.9057187,44.8434375 C36.9057187,45.7551562 36.1639688,46.4969063 35.25225,46.4969063 L17.6154375,46.4969063 C16.7037188,46.4969063 15.9619687,45.7551562 15.9619687,44.8434375 L15.9619687,23.9999063 C15.9619687,23.0881875 16.7037188,22.3464375 17.6154375,22.3464375 L35.25225,22.3464375 C36.1639688,22.3464375 36.9057187,23.0881875 36.9057187,23.9999063 L36.9057187,44.8434375 Z" id="Shape"></path>
                        <path d="M33.6488438,24.0499688 L19.21875,24.0499688 C18.36225,24.0499688 17.6655,24.7467188 17.6655,25.6032187 L17.6655,28.8099375 C17.6655,29.6664375 18.36225,30.3631875 19.21875,30.3631875 L33.6488438,30.3631875 C34.5053438,30.3631875 35.2020938,29.6664375 35.2020938,28.8099375 L35.2020938,25.6032187 C35.2020938,24.7467187 34.5053438,24.0499688 33.6488438,24.0499688 Z M33.699,28.8099375 C33.699,28.8375938 33.6765938,28.86 33.6489375,28.86 L19.21875,28.86 C19.1910938,28.86 19.1686875,28.8375938 19.1686875,28.8099375 L19.1686875,25.6032187 C19.1686875,25.5755625 19.1910938,25.5531563 19.21875,25.5531563 L33.6488438,25.5531563 C33.6765,25.5531563 33.699,25.5755625 33.699,25.6032187 L33.699,28.8099375 L33.699,28.8099375 Z" id="Shape"></path>
                        <path d="M20.8220625,32.868375 L19.21875,32.868375 C18.36225,32.868375 17.6655,33.565125 17.6655,34.421625 L17.6655,36.0249375 C17.6655,36.8814375 18.36225,37.5781875 19.21875,37.5781875 L20.8220625,37.5781875 C21.6785625,37.5781875 22.3753125,36.8814375 22.3753125,36.0249375 L22.3753125,34.421625 C22.3753125,33.565125 21.6785625,32.868375 20.8220625,32.868375 Z M20.8722188,36.0250313 C20.8722188,36.0526875 20.8498125,36.0750938 20.8221563,36.0750938 L19.21875,36.0750938 C19.1910938,36.0750938 19.1686875,36.0526875 19.1686875,36.0250313 L19.1686875,34.4217188 C19.1686875,34.3940625 19.1910938,34.3716563 19.21875,34.3716563 L20.8220625,34.3716563 C20.8497188,34.3716563 20.872125,34.3940625 20.872125,34.4217188 L20.872125,36.0250313 L20.8722188,36.0250313 Z" id="Shape"></path>
                        <path d="M33.6488438,32.868375 L32.0455313,32.868375 C31.1890312,32.868375 30.4922813,33.565125 30.4922813,34.421625 L30.4922813,36.0249375 C30.4922813,36.8814375 31.1890313,37.5781875 32.0455313,37.5781875 L33.6488438,37.5781875 C34.5053438,37.5781875 35.2020938,36.8814375 35.2020938,36.0249375 L35.2020938,34.421625 C35.2020938,33.565125 34.5053438,32.868375 33.6488438,32.868375 Z M33.699,36.0250313 C33.699,36.0526875 33.6765938,36.0750938 33.6489375,36.0750938 L32.045625,36.0750938 C32.0179688,36.0750938 31.9955625,36.0526875 31.9955625,36.0250313 L31.9955625,34.4217188 C31.9955625,34.3940625 32.0179688,34.3716563 32.045625,34.3716563 L33.6489375,34.3716563 C33.6765938,34.3716563 33.699,34.3940625 33.699,34.4217188 L33.699,36.0250313 Z" id="Shape"></path>
                        <path d="M27.2355,32.868375 L25.6321875,32.868375 C24.7756875,32.868375 24.0789375,33.565125 24.0789375,34.421625 L24.0789375,36.0249375 C24.0789375,36.8814375 24.7756875,37.5781875 25.6321875,37.5781875 L27.2355,37.5781875 C28.092,37.5781875 28.78875,36.8814375 28.78875,36.0249375 L28.78875,34.421625 C28.78875,33.565125 28.092,32.868375 27.2355,32.868375 Z M27.2855625,36.0250313 C27.2855625,36.0526875 27.2631563,36.0750938 27.2355,36.0750938 L25.6321875,36.0750938 C25.6045313,36.0750938 25.582125,36.0526875 25.582125,36.0250313 L25.582125,34.4217188 C25.582125,34.3940625 25.6045313,34.3716563 25.6321875,34.3716563 L27.2355,34.3716563 C27.2631563,34.3716563 27.2855625,34.3940625 27.2855625,34.4217188 L27.2855625,36.0250313 Z" id="Shape"></path>
                        <path d="M20.8220625,39.2818125 L19.21875,39.2818125 C18.36225,39.2818125 17.6655,39.9785625 17.6655,40.8350625 L17.6655,42.438375 C17.6655,43.294875 18.36225,43.991625 19.21875,43.991625 L20.8220625,43.991625 C21.6785625,43.991625 22.3753125,43.294875 22.3753125,42.438375 L22.3753125,40.8350625 C22.3753125,39.9785625 21.6785625,39.2818125 20.8220625,39.2818125 Z M20.8722188,42.438375 C20.8722188,42.4660313 20.8498125,42.4884375 20.8221563,42.4884375 L19.21875,42.4884375 C19.1910938,42.4884375 19.1686875,42.4660313 19.1686875,42.438375 L19.1686875,40.8350625 C19.1686875,40.8074062 19.1910938,40.785 19.21875,40.785 L20.8220625,40.785 C20.8497188,40.785 20.872125,40.8074062 20.872125,40.8350625 L20.872125,42.438375 L20.8722188,42.438375 Z" id="Shape"></path>
                        <path d="M33.6488438,39.2818125 L32.0455313,39.2818125 C31.1890312,39.2818125 30.4922813,39.9785625 30.4922813,40.8350625 L30.4922813,42.438375 C30.4922813,43.294875 31.1890313,43.991625 32.0455313,43.991625 L33.6488438,43.991625 C34.5053438,43.991625 35.2020938,43.294875 35.2020938,42.438375 L35.2020938,40.8350625 C35.2020938,39.9785625 34.5053438,39.2818125 33.6488438,39.2818125 Z M33.699,42.438375 C33.699,42.4660313 33.6765938,42.4884375 33.6489375,42.4884375 L32.045625,42.4884375 C32.0179688,42.4884375 31.9955625,42.4660313 31.9955625,42.438375 L31.9955625,40.8350625 C31.9955625,40.8074062 32.0179688,40.785 32.045625,40.785 L33.6489375,40.785 C33.6765938,40.785 33.699,40.8074062 33.699,40.8350625 L33.699,42.438375 Z" id="Shape"></path>
                        <path d="M27.2355,39.2818125 L25.6321875,39.2818125 C24.7756875,39.2818125 24.0789375,39.9785625 24.0789375,40.8350625 L24.0789375,42.438375 C24.0789375,43.294875 24.7756875,43.991625 25.6321875,43.991625 L27.2355,43.991625 C28.092,43.991625 28.78875,43.294875 28.78875,42.438375 L28.78875,40.8350625 C28.78875,39.9785625 28.092,39.2818125 27.2355,39.2818125 Z M27.2855625,42.438375 C27.2855625,42.4660313 27.2631563,42.4884375 27.2355,42.4884375 L25.6321875,42.4884375 C25.6045313,42.4884375 25.582125,42.4660313 25.582125,42.438375 L25.582125,40.8350625 C25.582125,40.8074062 25.6045313,40.785 25.6321875,40.785 L27.2355,40.785 C27.2631563,40.785 27.2855625,40.8074062 27.2855625,40.8350625 L27.2855625,42.438375 Z" id="Shape"></path>
                    </g>
                </g>
            </g>
        </g>
    </g>
</svg>