<?xml version="1.0" encoding="UTF-8"?>
<svg width="48px" height="48px" viewBox="0 0 48 48" version="1.1" xmlns="http://www.w3.org/2000/svg" xmlns:xlink="http://www.w3.org/1999/xlink">
    <!-- Generator: sketchtool 60.1 (101010) - https://sketch.com -->
    <title>7982A553-8EE0-4FF0-AFBA-E9A6E96E8C56</title>
    <desc>Created with sketchtool.</desc>
    <g id="Pac-primário" stroke="none" stroke-width="1" fill="none" fill-rule="evenodd">
        <g id="BIM---1-biblioteca" transform="translate(-1028.000000, -312.000000)" fill="#FFB919" fill-rule="nonzero">
            <g id="Group" transform="translate(337.000000, 180.000000)">
                <g id="Group-2" transform="translate(691.000000, 132.000000)">
                    <g id="project-management">
                        <path d="M47.2314037,12.5816646 C47.2313043,12.5816646 47.2313043,12.5816646 47.231205,12.5816646 L47.2296149,12.5800745 L44.1369441,12.1388323 C43.7022609,12.0769193 43.4000497,11.6743354 43.4619627,11.2396522 C43.491677,11.0307578 43.6032795,10.8423354 43.7720248,10.7157267 L46.2716025,8.84104348 C46.6229068,8.57759006 46.6940621,8.07930435 46.4306087,7.728 L43.5684969,3.91185093 C43.3050435,3.56054658 42.8067578,3.4893913 42.4554534,3.75284472 L39.9566708,5.62752795 C39.6068571,5.89296894 39.1081739,5.82459627 38.8427329,5.47478261 C38.7138385,5.3049441 38.6585839,5.09038509 38.6893913,4.87940373 L39.1314286,1.78673292 C39.1937391,1.35204969 38.8919255,0.949267081 38.4573416,0.886857143 C38.4570435,0.886857143 38.4567453,0.886757764 38.4564472,0.886757764 L33.7371429,0.212571429 C33.302559,0.150161491 32.8995776,0.451875776 32.8371677,0.886559006 C32.8371677,0.886658385 32.8371677,0.886658385 32.8371677,0.886757764 L32.3951304,3.97942857 C32.3332174,4.4141118 31.9306335,4.71632298 31.4959503,4.65440994 C31.2870559,4.62469565 31.0986335,4.51309317 30.9720248,4.34434783 L29.0981366,1.84477019 C28.8346832,1.49346584 28.3363975,1.42231056 27.9850932,1.68576398 L25.5960248,3.47855901 C24.5151801,3.36367702 23.4251925,3.36367702 22.3443478,3.47855901 C15.2659876,4.28760248 9.71518012,9.93252174 9.02519255,17.0235031 C9.00372671,17.2484969 8.9957764,17.4719006 8.98464596,17.6953043 L8.74613665,17.6953043 C8.36889441,17.696 8.04402484,17.9617391 7.96859627,18.3313292 L7.41922981,20.9438012 L5.21858385,19.426087 C4.90275776,19.2081491 4.4762236,19.2470062 4.20491925,19.5183106 L1.81982609,21.9034037 C1.54891925,22.1746087 1.51016149,22.6005466 1.72760248,22.9162733 L3.23816149,25.1129441 L0.62489441,25.6623106 C0.259378882,25.7424099 -0.000795031056,26.0664845 -1.81707224e-06,26.440646 L-1.81707224e-06,29.6207702 C-1.81707224e-06,29.9968199 0.263254658,30.3215901 0.631254658,30.3991056 L3.24452174,30.948472 L1.73396273,33.1451429 C1.51652174,33.4608696 1.5552795,33.8868075 1.82618634,34.1580124 L4.2112795,36.5431056 C4.48258385,36.8144099 4.90911801,36.8532671 5.2249441,36.6353292 L7.42161491,35.120795 L7.97098137,37.7340621 C8.04640994,38.1036522 8.3712795,38.3693913 8.74852174,38.370087 L11.928646,38.370087 C12.3046957,38.3702857 12.6294658,38.1068323 12.7069814,37.7388323 L13.2563478,35.1255652 L15.4530186,36.6361242 C15.7687453,36.8535652 16.1946832,36.8148075 16.4658882,36.5439006 L17.7005714,35.3052422 L17.7005714,37.5710807 C17.7041491,38.7021118 18.3100621,39.7454907 19.2906335,40.3091677 L19.2906335,44.7263602 C19.2906335,46.4826832 20.7144348,47.9064845 22.4707578,47.9064845 L25.650882,47.9064845 C27.407205,47.9064845 28.8310062,46.4826832 28.8310062,44.7263602 L28.8310062,40.3091677 C29.8115776,39.7454907 30.4174907,38.7021118 30.4210683,37.5710807 L30.4210683,34.4243478 C30.4426335,33.100323 31.1353043,31.8779627 32.2599752,31.1790311 C32.9197516,30.7510062 33.545441,30.2724969 34.1314783,29.7479752 L33.0709068,28.5633789 C32.5466832,29.0332422 31.9865839,29.4614658 31.3957764,29.8441739 C29.8171429,30.8349814 28.8507826,32.5605963 28.8310062,34.4243478 L28.8310062,37.5710807 C28.8310062,38.4492919 28.1191553,39.1611429 27.2409441,39.1611429 L20.8806957,39.1611429 C20.0024845,39.1611429 19.2906335,38.4492919 19.2906335,37.5710807 L19.2906335,34.3583602 C19.2722484,32.5298882 18.3210932,30.8375652 16.768795,29.871205 C10.4674783,25.9117516 8.5689441,17.5938385 12.5283975,11.2925217 C14.9850435,7.38285714 19.2724472,5.00322981 23.8898882,4.98673292 C23.8780621,5.0150559 23.8676273,5.04397516 23.858882,5.0733913 C23.8293665,5.28208696 23.8840248,5.49406211 24.0107329,5.66250932 L25.8846211,8.16129193 C26.0821863,8.41699379 26.1011677,8.76819876 25.932323,9.0437764 C25.7697391,9.32104348 25.4554037,9.47229814 25.1372919,9.42618634 L22.0446211,8.98414907 C21.6099379,8.92183851 21.2071553,9.22365217 21.1447453,9.65823602 C21.1447453,9.65853416 21.144646,9.6588323 21.144646,9.65913043 L20.4696646,14.3808199 C20.407354,14.8154037 20.7091677,15.2182857 21.1437516,15.2806957 C21.1440497,15.2806957 21.1443478,15.280795 21.144646,15.280795 L24.2373168,15.7228323 C24.672,15.7847453 24.9742112,16.1873292 24.9122981,16.6220124 C24.8825839,16.8309068 24.7709814,17.0193292 24.602236,17.1459379 L22.1034534,19.0198261 C21.7521491,19.2832795 21.6809938,19.7815652 21.9444472,20.1328696 L24.806559,23.9490186 C25.0700124,24.300323 25.5682981,24.3714783 25.9196025,24.1080248 L28.4191801,22.2341366 C28.7707826,21.9711801 29.2690683,22.0430311 29.5320248,22.3947329 C29.6578385,22.5629814 29.712,22.7742609 29.6824845,22.9822609 L29.2412422,26.0749317 C29.1788323,26.5095155 29.4805466,26.9124969 29.9152298,26.9749068 C29.9153292,26.9749068 29.9153292,26.9749068 29.9154286,26.9749068 L34.637913,27.6498882 C34.6750807,27.6546584 34.7125466,27.6570435 34.7500124,27.6570435 C35.1458385,27.6575404 35.4816398,27.3667578 35.5378882,26.9749068 L35.9791304,23.882236 C36.0410435,23.4475528 36.4436273,23.1453416 36.8783106,23.2072547 C37.087205,23.2369689 37.2756273,23.3485714 37.402236,23.5173168 L39.2769193,26.0160994 C39.5403727,26.3674037 40.0386584,26.438559 40.3899627,26.1751056 L44.2061118,23.3129938 C44.5574161,23.0495404 44.6285714,22.5512547 44.365118,22.1999503 L42.4912298,19.7011677 C42.294559,19.4450683 42.2755776,19.0944596 42.443528,18.8186832 C42.6026335,18.5377391 42.9198509,18.3854907 43.238559,18.4370683 L46.3312298,18.8783106 C46.7658137,18.9407205 47.168795,18.6389068 47.231205,18.204323 C47.231205,18.2042236 47.231205,18.2042236 47.231205,18.2041242 L47.9053913,13.4816398 C47.9678012,13.0469565 47.666087,12.6440745 47.2314037,12.5816646 Z M20.8806957,40.751205 L27.2409441,40.751205 L27.2409441,42.3412671 L20.8806957,42.3412671 L20.8806957,40.751205 L20.8806957,40.751205 Z M20.8806957,43.9313292 L27.2409441,43.9313292 L27.2409441,44.7263602 C27.2409441,45.6045714 26.5290932,46.3164224 25.650882,46.3164224 L22.4707578,46.3164224 C21.5925466,46.3164224 20.8806957,45.6045714 20.8806957,44.7263602 L20.8806957,43.9313292 L20.8806957,43.9313292 Z M14.5514534,30.2210186 C14.9855404,30.576 15.4391056,30.9065342 15.9101615,31.2108323 C16.6613665,31.6855652 17.2268323,32.4037764 17.5121491,33.2453168 L15.8068075,34.9474783 L14.155528,33.8089938 C13.4324472,33.3107081 12.4423354,33.4929689 11.9439503,34.2160497 C11.8244969,34.3894658 11.7406211,34.5848447 11.6972919,34.7908571 L11.2806957,36.7760497 L9.39090683,36.7760497 L8.97431056,34.7940373 C8.79344099,33.9347081 7.95021118,33.384646 7.09088199,33.5655155 C6.88486957,33.6088447 6.68949068,33.6927205 6.51607453,33.8121739 L4.864,34.9474783 L3.41545342,33.5021118 L4.55314286,31.8516273 C5.05192547,31.1288447 4.87026087,30.1386335 4.14747826,29.6398509 C3.97396273,29.5200994 3.77838509,29.4360248 3.57207453,29.3925963 L1.59006211,28.975205 L1.59006211,27.0862112 L3.57207453,26.6688199 C4.43110559,26.4866584 4.97987578,25.6426335 4.79771429,24.7835031 C4.75448447,24.579677 4.67170186,24.3863851 4.55393789,24.214559 L3.41545342,22.5593043 L4.864,21.1139379 L6.51686957,22.2524224 C7.24024845,22.7502112 8.23036025,22.567354 8.72814907,21.8439752 C8.84740373,21.6707578 8.93108075,21.4755776 8.97431056,21.269764 L9.11344099,20.6082981 C9.24084472,21.5243727 9.45182609,22.4267329 9.74390062,23.3042484 C7.12795031,23.6160994 5.26012422,25.9896646 5.57197516,28.6056149 C5.88382609,31.2215652 8.2573913,33.0893913 10.8733416,32.7775404 C12.4480994,32.5897143 13.8265839,31.6316025 14.5514534,30.2210186 Z M13.3167702,29.1008199 C12.7230807,30.7510062 10.9041491,31.6074534 9.25396273,31.0138634 C7.6037764,30.4201739 6.74732919,28.6012422 7.34091925,26.9510559 C7.79508075,25.688646 8.99368944,24.8478012 10.3353043,24.850577 C10.3456398,24.850577 10.3551801,24.850577 10.3655155,24.850577 C11.096646,26.4270311 12.0951056,27.8649441 13.3167702,29.1008199 Z M45.7651677,17.1896646 L43.4595776,16.8605217 C42.155528,16.6742857 40.9474783,17.5805217 40.7612422,18.884472 C40.6718012,19.5106584 40.8347826,20.1467826 41.2144099,20.6528199 L42.6112795,22.5155776 L40.0671801,24.4236522 L38.6695155,22.5616894 C37.8792547,21.5077764 36.3842981,21.2940124 35.3304845,22.0842733 C34.8244472,22.4637019 34.4898385,23.0286708 34.4001988,23.6548571 L34.0782112,25.9636273 L30.9306832,25.5136398 L31.2598261,23.2080497 C31.446559,21.9040994 30.5408199,20.6956522 29.2368696,20.5090186 C28.6102857,20.4192795 27.9738634,20.5822609 27.467528,20.962087 L25.6047702,22.3589565 L23.6966957,19.8148571 L25.5586584,18.4171925 C26.6125714,17.6269317 26.8263354,16.1319752 26.0360745,15.0781615 C25.656646,14.5721242 25.091677,14.2375155 24.4654907,14.1478758 L22.1599006,13.8187329 L22.6098882,10.671205 L24.9154783,11.0003478 C26.2194286,11.1870807 27.4278758,10.2813416 27.6145093,8.9773913 C27.7042484,8.35080745 27.5412671,7.71438509 27.161441,7.20804969 L25.7598012,5.34370186 L28.3039006,3.43562733 L29.7015652,5.29838509 C30.4918261,6.35229814 31.9867826,6.56606211 33.0405963,5.77580124 C33.5466335,5.39637267 33.8812422,4.83140373 33.970882,4.20521739 L34.3000248,1.89962733 L37.4475528,2.34881988 L37.1184099,4.65440994 C36.9321739,5.95845963 37.8383106,7.16650932 39.1423602,7.35274534 C39.7685466,7.44218634 40.4046708,7.27920497 40.9107081,6.89957764 L42.7734658,5.50270807 L44.6815404,8.04680745 L42.8187826,9.44447205 C41.7648696,10.2347329 41.5511056,11.7296894 42.3413665,12.7835031 C42.720795,13.2895404 43.285764,13.6241491 43.9119503,13.7137888 L46.2175404,14.0429317 L45.7651677,17.1896646 Z" id="Shape"></path>
                        <path d="M34.1863354,7.56978882 C30.6736894,7.56978882 27.826087,10.4173913 27.826087,13.9300373 C27.826087,17.4426832 30.6736894,20.2902857 34.1863354,20.2902857 C37.6989814,20.2902857 40.5465839,17.4426832 40.5465839,13.9300373 C40.5426087,10.4189814 37.6973913,7.5736646 34.1863354,7.56978882 Z M34.1863354,18.7002236 C31.5518012,18.7002236 29.4161491,16.5645714 29.4161491,13.9300373 C29.4161491,11.2955031 31.5518012,9.15985093 34.1863354,9.15985093 C36.8208696,9.15985093 38.9565217,11.2955031 38.9565217,13.9300373 C38.953441,16.5632795 36.8195776,18.6971429 34.1863354,18.7002236 Z" id="Shape"></path>
                        <rect id="Rectangle" x="23.2657888" y="35.1859876" width="1.59006211" height="2.38509317"></rect>
                        <path d="M20.583354,27.3779876 C15.675528,25.4607702 13.2511801,19.9279503 15.1684969,15.0201242 C15.9114534,13.1184099 17.2448199,11.5051925 18.9726211,10.4175901 L18.1227329,9.07239752 C12.9216398,12.3490186 11.3614907,19.2215652 14.6381118,24.4226584 C15.9070807,26.4369689 17.7885217,27.991354 20.0061615,28.8575404 C21.9690932,29.6096398 23.2652919,31.4938634 23.2657888,33.5959255 L24.8558537,33.5959255 C24.8583354,30.8379627 23.1587578,28.3645217 20.583354,27.3779876 Z" id="Path"></path>
                        <rect id="Rectangle" x="39.1664099" y="29.6207702" width="5.56521739" height="1.59006211"></rect>
                        <polygon id="Rectangle" transform="translate(40.756777, 36.377676) rotate(-50.201031) translate(-40.756777, -36.377676) " points="39.9617406 33.2730601 41.5518129 33.2730601 41.5518129 39.4822927 39.9617406 39.4822927"></polygon>
                        <rect id="Rectangle" x="34.3962236" y="35.9810186" width="1.59006211" height="5.56521739"></rect>
                        <polygon id="Rectangle" transform="translate(4.184432, 13.719168) rotate(-14.034854) translate(-4.184432, -13.719168) " points="0.906682351 12.9245738 7.46218149 12.9245738 7.46218149 14.5137617 0.906682351 14.5137617"></polygon>
                        <polygon id="Rectangle" transform="translate(5.376713, 6.962853) rotate(-54.462988) translate(-5.376713, -6.962853) " points="4.58211917 3.54359385 6.17130769 3.54359385 6.17130769 10.3821129 4.58211917 10.3821129"></polygon>
                        <polygon id="Rectangle" transform="translate(10.527644, 3.383437) rotate(-14.341974) translate(-10.527644, -3.383437) " points="9.73264098 0.101268271 11.3226464 0.101268271 11.3226464 6.66560577 9.73264098 6.66560577"></polygon>
                    </g>
                </g>
            </g>
        </g>
    </g>
</svg>