<?xml version="1.0" encoding="UTF-8"?>
<svg width="48px" height="48px" viewBox="0 0 48 48" version="1.1" xmlns="http://www.w3.org/2000/svg" xmlns:xlink="http://www.w3.org/1999/xlink">
    <!-- Generator: sketchtool 60.1 (101010) - https://sketch.com -->
    <title>DDD47982-96B5-4F69-80E1-C17E88C1829A</title>
    <desc>Created with sketchtool.</desc>
    <g id="Pac-primário" stroke="none" stroke-width="1" fill="none" fill-rule="evenodd">
        <g id="BIM---1-biblioteca" transform="translate(-1028.000000, -573.000000)" fill="#FFB919" fill-rule="nonzero">
            <g id="Group" transform="translate(337.000000, 180.000000)">
                <g id="Group-2-Copy-3" transform="translate(691.000000, 393.000000)">
                    <g id="target">
                        <path d="M35.1595312,21.105375 C34.9296562,20.52375 34.2718125,20.2389375 33.69,20.468625 C33.108375,20.6985938 32.823375,21.3565313 33.05325,21.9381563 C33.6287812,23.393625 33.9204375,24.931875 33.9204375,26.5103438 C33.9204375,33.3672188 28.3420312,38.9458125 21.4849687,38.9458125 C14.6274375,38.9458125 9.04828125,33.3672188 9.04828125,26.5103438 C9.04828125,19.6534688 14.6274375,14.074875 21.4849687,14.074875 C23.0689687,14.074875 24.6098437,14.3684063 26.0648437,14.9473125 C26.6458125,15.1787813 27.3044062,14.8948125 27.5356875,14.3138438 C27.7669687,13.7326875 27.4832812,13.0741875 26.9022188,12.843 C25.1796562,12.1575 23.3569688,11.8099688 21.4850625,11.8099688 C13.3786875,11.8099688 6.78346875,18.4044375 6.78346875,26.51025 C6.78346875,34.6160625 13.3784062,41.210625 21.4849687,41.210625 C29.5906875,41.210625 36.18525,34.6161563 36.18525,26.5103438 C36.18525,24.6455625 35.8400625,22.8271875 35.1595312,21.105375 Z" id="Path"></path>
                        <path d="M42.1411875,20.5881562 C41.9691562,19.9868437 41.342625,19.6393125 40.7409375,19.8109688 C40.139625,19.9830938 39.7917188,20.61 39.96375,21.2112188 C40.454625,22.9270312 40.7035312,24.7099688 40.7035312,26.5101563 C40.7035312,37.1080313 32.0820937,45.7302188 21.484875,45.7302188 C10.887,45.7302188 2.26490625,37.108125 2.26490625,26.5101563 C2.26490625,15.9121875 10.8869063,7.29028125 21.484875,7.29028125 C23.2891875,7.29028125 25.075125,7.5403125 26.7928125,8.03353125 C27.3940313,8.20603125 28.0212188,7.85878125 28.1937188,7.2575625 C28.3663125,6.65634375 28.0189688,6.02915625 27.41775,5.85665625 C25.4969063,5.30503125 23.5006875,5.02528125 21.484875,5.02528125 C9.6380625,5.02528125 0,14.6634375 0,26.51025 C0,38.3570625 9.6380625,47.9952187 21.484875,47.9952187 C33.3309375,47.9952187 42.9684375,38.3571563 42.9684375,26.51025 C42.9684375,24.499125 42.6900938,22.5066562 42.1411875,20.5881562 Z" id="Path"></path>
                        <path d="M29.3698125,25.8188438 C29.3143125,25.195875 28.7639063,24.738375 28.1412188,24.7915312 C27.51825,24.847125 27.0582188,25.39725 27.1139062,26.0202188 C27.12825,26.1814688 27.1355625,26.346375 27.1355625,26.5103438 C27.1355625,29.6263125 24.6005625,32.161125 21.4847812,32.161125 C18.3681562,32.161125 15.8325937,29.626125 15.8325937,26.5103438 C15.8327813,23.393625 18.36825,20.8581563 21.484875,20.8581563 C21.6589687,20.8581563 21.8294063,20.86575 21.9916875,20.8806563 C22.6150313,20.9378438 23.1659062,20.4797812 23.223375,19.8569063 C23.28075,19.234125 22.8224063,18.6827813 22.199625,18.6252188 C21.968625,18.6039375 21.7281563,18.5931562 21.4849688,18.5931562 C17.1195,18.5931562 13.567875,22.1445938 13.567875,26.5101563 C13.567875,30.8749688 17.1195,34.4258437 21.4849688,34.4258437 C25.8496875,34.4258437 29.4006563,30.8749688 29.4006563,26.5101563 C29.4006563,26.2794375 29.39025,26.0466563 29.3698125,25.8188438 Z" id="Path"></path>
                        <path d="M47.8264688,7.6185 C47.474625,6.7689375 46.653,6.2199375 45.7334063,6.2199375 L41.78475,6.2199375 L41.78475,2.271375 C41.78475,1.3516875 41.23575,0.53015625 40.3861875,0.1783125 C39.537,-0.1734375 38.5682812,0.01940625 37.9182188,0.66946875 L31.3204687,7.2673125 C30.6790312,7.90865625 30.325875,8.76159375 30.325875,9.669 L30.325875,16.0772813 L21.1224375,25.2807188 C20.6802187,25.7229375 20.6802187,26.4400313 21.1224375,26.8823438 C21.3435,27.1034063 21.633375,27.2140313 21.9231562,27.2140313 C22.2129375,27.2140313 22.5028125,27.1034063 22.723875,26.8823438 L31.9274062,17.6788125 L38.3356875,17.6788125 C39.2430937,17.6788125 40.096125,17.3255625 40.737375,16.6843125 L47.3352187,10.0862813 C47.9854688,9.436125 48.1782187,8.46759375 47.8264688,7.6185 Z M32.5907812,9.66890625 C32.590875,9.3665625 32.7085312,9.0823125 32.9220937,8.86884375 L39.5198437,2.27203125 L39.5198437,6.88340625 L32.5906875,13.8125625 L32.5906875,9.66890625 L32.5907812,9.66890625 Z M39.1359375,15.0826875 C38.9255625,15.2930625 38.6338125,15.4139062 38.3357812,15.4139062 L34.1924062,15.4139062 L41.121375,8.4849375 L45.733125,8.4855 L39.1359375,15.0826875 Z" id="Shape"></path>
                    </g>
                </g>
            </g>
        </g>
    </g>
</svg>