<svg id="Group_42" data-name="Group 42" xmlns="http://www.w3.org/2000/svg" width="50" height="50.109" viewBox="0 0 50 50.109">
  <rect id="Rectangle_263" data-name="Rectangle 263" width="50" height="50" fill="none"/>
  <g id="icon-baby-tutor" transform="translate(0.638 0.638)">
    <path id="Path_632" data-name="Path 632" d="M18.225,13.179H4.571v1.782A9.933,9.933,0,0,0,14.5,24.894H27.685a9.933,9.933,0,0,0,9.933-9.933V13.523c0-.116-.014-.229-.017-.344Z" transform="translate(-0.638 -0.93)" fill="#fff"/>
    <line id="Line_52" data-name="Line 52" x2="33.048" transform="translate(3.932 12.318)" fill="none" stroke="#fff" stroke-linecap="round" stroke-linejoin="round" stroke-width="1.276"/>
    <path id="Path_633" data-name="Path 633" d="M.638,9.247A3.932,3.932,0,0,1,4.57,13.179v1.782A9.934,9.934,0,0,0,14.5,24.894H27.685a9.933,9.933,0,0,0,9.933-9.933V13.524A12.885,12.885,0,0,0,24.733.638H18.225V13.179" transform="translate(-0.638 -0.638)" fill="none" stroke="#fff" stroke-linecap="round" stroke-linejoin="round" stroke-width="1.276"/>
    <path id="Path_634" data-name="Path 634" d="M11.79,32.963a17.184,17.184,0,0,0,2.5-.1c5.607-.63,10.118-3.875,11.766-7.971" transform="translate(-0.916 -1.153)" fill="none" stroke="#fff" stroke-linecap="round" stroke-linejoin="round" stroke-width="1.276"/>
    <path id="Path_635" data-name="Path 635" d="M10.9,32.963a.893.893,0,1,0,.893-.893.893.893,0,0,0-.893.893" transform="translate(-0.827 -1.218)" fill="#fff"/>
    <path id="Path_636" data-name="Path 636" d="M6.621,32.963a5.169,5.169,0,1,0,5.17-5.17A5.17,5.17,0,0,0,6.621,32.963Z" transform="translate(-0.638 -1.248)" fill="none" stroke="#fff" stroke-linecap="round" stroke-linejoin="round" stroke-width="1.276"/>
    <line id="Line_53" data-name="Line 53" x1="0.263" y1="0.496" transform="translate(34.7 37.473)" fill="none" stroke="#fff" stroke-linecap="round" stroke-linejoin="round" stroke-width="1.276"/>
    <path id="Path_637" data-name="Path 637" d="M30.482,36.1l-6.038,3.2a1.735,1.735,0,0,0-.721,2.346l4.069,7.673a1.736,1.736,0,0,0,2.346.72l5.775-3.063" transform="translate(-1.18 -1.52)" fill="none" stroke="#fff" stroke-linecap="round" stroke-linejoin="round" stroke-width="1.276"/>
    <path id="Path_638" data-name="Path 638" d="M32.391,40.158a1.518,1.518,0,0,1-.134,1.795,1.52,1.52,0,0,1,1.7.946c.694,1.309-.243,2.122-1.446,2.76a12.731,12.731,0,0,1-2.013.874l-2.949-5.562a12.534,12.534,0,0,1,1.754-1.123c1.083-.574,2.387-1.01,3.086.31m-2.219,3.355.957,1.805a7.454,7.454,0,0,0,.937-.424c.774-.411,1.246-.809.823-1.6-.434-.819-1.078-.645-1.837-.242Zm.5-1.174c.742-.393,1.2-.8.8-1.562s-.964-.578-1.758-.157a7.542,7.542,0,0,0-.808.5L29.8,42.8Z" transform="translate(-1.19 -1.52)" fill="#fff"/>
    <path id="Path_639" data-name="Path 639" d="M44.881,35.716,46.6,28.65a1.735,1.735,0,0,0-1.277-2.095l-8.44-2.047a1.734,1.734,0,0,0-2.095,1.277l-2.048,8.439a1.736,1.736,0,0,0,1.277,2.1l3.248.788" transform="translate(-1.52 -1.206)" fill="none" stroke="#fff" stroke-linecap="round" stroke-linejoin="round" stroke-width="1.276"/>
    <rect id="Rectangle_262" data-name="Rectangle 262" width="12.155" height="12.155" rx="2.998" transform="translate(36.569 36.569)" fill="none" stroke="#fff" stroke-linecap="round" stroke-linejoin="round" stroke-width="1.276"/>
    <path id="Path_640" data-name="Path 640" d="M36.045,33.939l3.281-5.166a1,1,0,0,1,1.893.46l.519,6.087-1.172-.284-.127-1.808-2.327-.565-.933,1.551Zm4.333-1.608-.215-3.079-1.588,2.641Z" transform="translate(-1.349 -1.21)" fill="#fff"/>
    <path id="Path_641" data-name="Path 641" d="M31.361,27.869a5.069,5.069,0,0,0-.754-.076,5.17,5.17,0,0,0-5.169,5.17,5.107,5.107,0,0,0,.565,2.3" transform="translate(-1.139 -1.206)" fill="none" stroke="#fff" stroke-linecap="round" stroke-linejoin="round" stroke-width="1.276"/>
    <path id="Path_642" data-name="Path 642" d="M16.339,24.894c1.647,4.1,6.158,7.341,11.765,7.97a17.029,17.029,0,0,0,2.449.1l.04-.008" transform="translate(-1.03 -1.153)" fill="none" stroke="#fff" stroke-linecap="round" stroke-linejoin="round" stroke-width="1.276"/>
    <path id="Path_643" data-name="Path 643" d="M47.246,38.089H41.087a3,3,0,0,0-3,3v6.159a3,3,0,0,0,3,3h6.159a3,3,0,0,0,3-3V41.087a3,3,0,0,0-3-3m-2.279,8.473a8.882,8.882,0,0,0,1.447-.121l.13,1.106a7.348,7.348,0,0,1-1.84.211c-2.339,0-2.916-1.093-2.916-3.592s.58-3.592,2.916-3.592a7.3,7.3,0,0,1,1.84.215l-.127,1.1a9.062,9.062,0,0,0-1.45-.121c-1.692,0-1.723,1.013-1.723,2.4s.025,2.4,1.723,2.4" transform="translate(-1.52 -1.52)" fill="#fff"/>
  </g>
</svg>
