<svg xmlns="http://www.w3.org/2000/svg" width="50.022" height="50.022" viewBox="0 0 50.022 50.022">
  <g id="icon-nutritionist" transform="translate(0.011 0.011)">
    <rect id="grid-50x50" width="50" height="50" fill="#ffb919" opacity="0"/>
    <g id="icon" transform="translate(0 0)">
      <path id="Path_576" data-name="Path 576" d="M34.433,43.921V39.181l2.543-8.2a10.561,10.561,0,0,1-5.152,1.144,10.663,10.663,0,0,1-5.076-1.1l2.53,8.156v4.739Z" transform="translate(-0.464 -0.537)" fill="#fff"/>
      <path id="Path_577" data-name="Path 577" d="M29.225,39.117,25.54,27.241l-1.7,2.5a.574.574,0,0,0,.039.7l.941,1.1-1.228,1.126Z" transform="translate(-0.409 -0.472)" fill="none" stroke="#fff" stroke-linecap="round" stroke-linejoin="round" stroke-width="1.276"/>
      <path id="Path_578" data-name="Path 578" d="M45.564,43.856V34.393a7.153,7.153,0,0,0-7.152-7.152" transform="translate(-0.666 -0.472)" fill="none" stroke="#fff" stroke-linecap="round" stroke-linejoin="round" stroke-width="1.276"/>
      <line id="Line_43" data-name="Line 43" x2="27.039" transform="translate(22.334 43.384)" fill="none" stroke="#fff" stroke-linecap="round" stroke-linejoin="round" stroke-width="1.276"/>
      <path id="Path_579" data-name="Path 579" d="M25.481,27.149A2.049,2.049,0,0,0,27.53,25.1V21.931" transform="translate(-0.442 -0.38)" fill="none" stroke="#fff" stroke-linecap="round" stroke-linejoin="round" stroke-width="1.276"/>
      <path id="Path_580" data-name="Path 580" d="M34.569,39.117l3.685-11.876,1.7,2.5a.574.574,0,0,1-.039.7l-.941,1.1L40.2,32.667Z" transform="translate(-0.599 -0.472)" fill="none" stroke="#fff" stroke-linecap="round" stroke-linejoin="round" stroke-width="1.276"/>
      <path id="Path_581" data-name="Path 581" d="M38.376,27.149A2.049,2.049,0,0,1,36.327,25.1V21.931" transform="translate(-0.63 -0.38)" fill="none" stroke="#fff" stroke-linecap="round" stroke-linejoin="round" stroke-width="1.276"/>
      <path id="Path_582" data-name="Path 582" d="M26.748,31.026a10.666,10.666,0,0,0,5.076,1.1,10.556,10.556,0,0,0,5.153-1.145" transform="translate(-0.464 -0.537)" fill="none" stroke="#fff" stroke-linecap="round" stroke-linejoin="round" stroke-width="1.276"/>
      <line id="Line_44" data-name="Line 44" y1="4.739" transform="translate(33.97 38.645)" fill="none" stroke="#fff" stroke-linecap="round" stroke-linejoin="round" stroke-width="1.276"/>
      <line id="Line_45" data-name="Line 45" y2="4.739" transform="translate(28.815 38.645)" fill="none" stroke="#fff" stroke-linecap="round" stroke-linejoin="round" stroke-width="1.276"/>
      <path id="Path_583" data-name="Path 583" d="M24.536,15.652c-1.488,0-2.693-.885-2.693-1.978s1.2-1.978,2.693-1.978h.532" transform="translate(-0.379 -0.203)" fill="none" stroke="#fff" stroke-linecap="round" stroke-linejoin="round" stroke-width="1.276"/>
      <path id="Path_584" data-name="Path 584" d="M39.048,11.631V15.8a6.605,6.605,0,0,1-6.6,6.605H31.207A6.605,6.605,0,0,1,24.6,15.8V12.091l1.426-1.084a3.464,3.464,0,0,0,.682-2.065V7.862h.478a3.624,3.624,0,0,1,1.72.434l5.057,2.729a4.076,4.076,0,0,0,1.931.487h2.165l1.074.118c1.488,0,2.693.885,2.693,1.978s-1.206,1.978-2.693,1.978h-.086" transform="translate(-0.426 -0.136)" fill="none" stroke="#fff" stroke-linecap="round" stroke-linejoin="round" stroke-width="1.276"/>
      <path id="Path_585" data-name="Path 585" d="M32.564,13.934v.915a1.449,1.449,0,0,1-1.508,1.382" transform="translate(-0.538 -0.241)" fill="none" stroke="#fff" stroke-linecap="round" stroke-linejoin="round" stroke-width="0.992"/>
      <path id="Path_586" data-name="Path 586" d="M34.165,18.735a2.836,2.836,0,0,1-2.423,1.059,2.967,2.967,0,0,1-2.338-.933" transform="translate(-0.51 -0.325)" fill="none" stroke="#fff" stroke-linecap="round" stroke-linejoin="round" stroke-width="0.992"/>
      <path id="Path_587" data-name="Path 587" d="M37.845,25.6a1.416,1.416,0,0,1,2-1.33,1.412,1.412,0,0,0,1.874-1.865,1.41,1.41,0,0,1,1.337-1.99,1.407,1.407,0,0,0,1.014-2.436,1.405,1.405,0,0,1,.47-2.348,1.406,1.406,0,0,0,0-2.637,1.4,1.4,0,0,1-.47-2.347,1.408,1.408,0,0,0-1.014-2.437,1.41,1.41,0,0,1-1.337-1.99,1.412,1.412,0,0,0-1.874-1.864,1.416,1.416,0,0,1-2-1.33,1.417,1.417,0,0,0-2.45-1.01,1.419,1.419,0,0,1-2.359-.467,1.419,1.419,0,0,0-2.651,0,1.419,1.419,0,0,1-2.359.467,1.418,1.418,0,0,0-2.45,1.01,1.415,1.415,0,0,1-2,1.33A1.412,1.412,0,0,0,21.7,6.222a1.409,1.409,0,0,1-1.336,1.99,1.409,1.409,0,0,0-1.015,2.437A1.4,1.4,0,0,1,18.881,13a1.406,1.406,0,0,0,0,2.637,1.405,1.405,0,0,1,.469,2.348,1.408,1.408,0,0,0,1.015,2.436,1.41,1.41,0,0,1,1.336,1.99,1.412,1.412,0,0,0,1.875,1.865,1.415,1.415,0,0,1,2,1.33" transform="translate(-0.311 -0.011)" fill="none" stroke="#fff" stroke-linecap="round" stroke-linejoin="round" stroke-width="1.276"/>
      <circle id="Ellipse_9" data-name="Ellipse 9" cx="1.435" cy="1.435" r="1.435" transform="translate(38.166 36.706)" fill="none" stroke="#fff" stroke-linecap="round" stroke-linejoin="round" stroke-width="0.992"/>
      <line id="Line_46" data-name="Line 46" y1="3.792" transform="translate(39.601 32.914)" fill="none" stroke="#fff" stroke-linecap="round" stroke-linejoin="round" stroke-width="0.992"/>
      <path id="Path_588" data-name="Path 588" d="M25.4,27.241A7.114,7.114,0,0,0,20.61,29.09" transform="translate(-0.357 -0.472)" fill="none" stroke="#fff" stroke-linecap="round" stroke-linejoin="round" stroke-width="1.276"/>
      <path id="Rectangle_255" data-name="Rectangle 255" d="M2.428,0h14.5a2.428,2.428,0,0,1,2.428,2.428v14.5a2.428,2.428,0,0,1-2.428,2.428H2.427A2.427,2.427,0,0,1,0,16.932V2.428A2.428,2.428,0,0,1,2.428,0Z" transform="translate(0.627 30.014)" fill="none" stroke="#fff" stroke-linecap="round" stroke-linejoin="round" stroke-width="1.276"/>
      <line id="Line_47" data-name="Line 47" y1="7.731" transform="translate(10.306 39.519)" fill="none" stroke="#fff" stroke-linecap="round" stroke-linejoin="round" stroke-width="1.276"/>
      <line id="Line_48" data-name="Line 48" y1="1.614" transform="translate(10.306 34.829)" fill="none" stroke="#fff" stroke-linecap="round" stroke-linejoin="round" stroke-width="1.276"/>
      <path id="Path_589" data-name="Path 589" d="M14.308,37.145a.835.835,0,0,1-1.032.534,9.936,9.936,0,0,0-2.891-.377,9.692,9.692,0,0,0-2.856.379.826.826,0,0,1-1.023-.527l-.859-2.537a.834.834,0,0,1,.6-1.081,18.324,18.324,0,0,1,4.142-.448,18.3,18.3,0,0,1,4.154.451.848.848,0,0,1,.611,1.1Z" transform="translate(-0.097 -0.573)" fill="none" stroke="#fff" stroke-linecap="round" stroke-linejoin="round" stroke-width="1.276"/>
    </g>
  </g>
</svg>
