<svg xmlns="http://www.w3.org/2000/svg" width="50" height="50.083" viewBox="0 0 50 50.083">
  <g id="icon-pharmacy" transform="translate(1 0.072)">
    <rect id="grid-50x50" width="50" height="50" transform="translate(-1)" fill="#ffb919" opacity="0"/>
    <g id="icon">
      <path id="Path_425" data-name="Path 425" d="M8.515.638l-2.267,11.5H39.295L37.028.638Z" fill="#2d2d2d"/>
      <path id="Path_426" data-name="Path 426" d="M12.742,14.155a3.248,3.248,0,0,1-6.5,0v-2.02H38.722v2.02a3.247,3.247,0,1,1-6.494,0,3.248,3.248,0,0,1-6.5,0,3.247,3.247,0,1,1-6.494,0,3.248,3.248,0,0,1-6.5,0Z" transform="translate(-0.108 -0.21)" fill="#2d2d2d"/>
      <path id="Path_427" data-name="Path 427" d="M12.742,14.155a3.248,3.248,0,0,1-6.5,0v-2.02H38.722v2.02a3.247,3.247,0,1,1-6.494,0,3.248,3.248,0,0,1-6.5,0,3.247,3.247,0,1,1-6.494,0,3.248,3.248,0,0,1-6.5,0Z" transform="translate(-0.108 -0.21)" fill="none" stroke="#fff" stroke-linecap="round" stroke-linejoin="round" stroke-width="1.276"/>
      <path id="Path_428" data-name="Path 428" d="M36.494.638H8.476l-2.229,11.3H38.723Z" transform="translate(-0.108 -0.011)" fill="none" stroke="#fff" stroke-linecap="round" stroke-linejoin="round" stroke-width="1.276"/>
      <line id="Line_28" data-name="Line 28" y1="13.318" x2="1.342" transform="translate(12.634 0.627)" fill="none" stroke="#fff" stroke-linecap="round" stroke-linejoin="round" stroke-width="1.276"/>
      <line id="Line_29" data-name="Line 29" x1="0.456" y2="13.318" transform="translate(19.13 0.627)" fill="none" stroke="#fff" stroke-linecap="round" stroke-linejoin="round" stroke-width="1.276"/>
      <line id="Line_30" data-name="Line 30" x2="0.429" y2="13.318" transform="translate(25.195 0.627)" fill="none" stroke="#fff" stroke-linecap="round" stroke-linejoin="round" stroke-width="1.276"/>
      <line id="Line_31" data-name="Line 31" x2="1.316" y2="13.318" transform="translate(30.804 0.627)" fill="none" stroke="#fff" stroke-linecap="round" stroke-linejoin="round" stroke-width="1.276"/>
      <path id="Path_429" data-name="Path 429" d="M8,19.758V35.7H19.233V19.758" transform="translate(-0.139 -0.342)" fill="none" stroke="#fff" stroke-linecap="round" stroke-linejoin="round" stroke-width="1.276"/>
      <path id="Path_430" data-name="Path 430" d="M19.431,19.758V35.7h17.8V19.758" transform="translate(-0.337 -0.342)" fill="none" stroke="#fff" stroke-linecap="round" stroke-linejoin="round" stroke-width="1.276"/>
      <line id="Line_32" data-name="Line 32" x2="32.475" transform="translate(6.139 35.356)" fill="none" stroke="#fff" stroke-linecap="round" stroke-linejoin="round" stroke-width="1.276"/>
      <line id="Line_33" data-name="Line 33" x2="0.591" transform="translate(16.086 25.245)" fill="none" stroke="#fff" stroke-linecap="round" stroke-linejoin="round" stroke-width="1.276"/>
      <path id="Path_431" data-name="Path 431" d="M29.8,22.83v4.176H25.628a1.39,1.39,0,1,1,0-2.781h1.4v-1.4a1.39,1.39,0,1,1,2.781,0" transform="translate(-0.42 -0.371)" fill="#fff"/>
      <path id="Path_432" data-name="Path 432" d="M45.852,39.667H34.108a1.4,1.4,0,0,0-1.021.441L29.513,43.9a1.4,1.4,0,0,0,0,1.923l3.574,3.8a1.4,1.4,0,0,0,1.021.44H45.852a1.4,1.4,0,0,0,1.4-1.4V41.069a1.4,1.4,0,0,0-1.4-1.4m-12.12,6.59a1.393,1.393,0,1,1,1.392-1.392,1.393,1.393,0,0,1-1.392,1.392" transform="translate(-0.505 -0.687)" fill="#fff"/>
      <path id="Path_433" data-name="Path 433" d="M47.255,41.069v7.589a1.4,1.4,0,0,1-1.4,1.4H34.109a1.4,1.4,0,0,1-1.021-.441l-3.575-3.794a1.4,1.4,0,0,1,0-1.923l3.575-3.8a1.4,1.4,0,0,1,1.021-.44H45.853A1.4,1.4,0,0,1,47.255,41.069Z" transform="translate(-0.505 -0.687)" fill="none" stroke="#fff" stroke-linecap="round" stroke-linejoin="round" stroke-width="1.276"/>
      <path id="Path_434" data-name="Path 434" d="M33.788,43.538A1.393,1.393,0,1,1,32.4,44.93,1.393,1.393,0,0,1,33.788,43.538Z" transform="translate(-0.562 -0.755)" fill="none" stroke="#2d2d2d" stroke-miterlimit="10" stroke-width="1"/>
      <line id="Line_34" data-name="Line 34" x2="4.89" y2="2.482" transform="translate(38.802 42.936)" fill="none" stroke="#2d2d2d" stroke-linecap="round" stroke-linejoin="round" stroke-width="1.276"/>
      <path id="Path_435" data-name="Path 435" d="M40.4,46.218a.907.907,0,1,1-.917.907.912.912,0,0,1,.917-.907" transform="translate(-0.684 -0.801)" fill="#2d2d2d"/>
      <path id="Path_436" data-name="Path 436" d="M43.513,41.846a.907.907,0,1,1-.917.907.912.912,0,0,1,.917-.907" transform="translate(-0.738 -0.725)" fill="#2d2d2d"/>
      <path id="Path_437" data-name="Path 437" d="M29.8,22.83v4.176H25.628a1.39,1.39,0,1,1,0-2.781h1.4v-1.4a1.39,1.39,0,1,1,2.781,0Z" transform="translate(-0.42 -0.371)" fill="none" stroke="#fff" stroke-linecap="round" stroke-linejoin="round" stroke-width="1.276"/>
      <path id="Path_438" data-name="Path 438" d="M32.694,25.661a1.394,1.394,0,0,1-1.4,1.4H29.9V24.275h1.4A1.392,1.392,0,0,1,32.694,25.661Z" transform="translate(-0.518 -0.421)" fill="none" stroke="#fff" stroke-linecap="round" stroke-linejoin="round" stroke-width="1.276"/>
      <path id="Path_439" data-name="Path 439" d="M29.854,27.1v1.4a1.39,1.39,0,1,1-2.781,0V27.1Z" transform="translate(-0.469 -0.47)" fill="none" stroke="#fff" stroke-linecap="round" stroke-linejoin="round" stroke-width="1.276"/>
      <path id="Path_440" data-name="Path 440" d="M33.238,44.748H6.527a5.889,5.889,0,1,1,0-11.778H7.869" transform="translate(-0.011 -0.571)" fill="none" stroke="#fff" stroke-linecap="round" stroke-linejoin="round" stroke-width="1.276"/>
    </g>
  </g>
</svg>
