<svg xmlns="http://www.w3.org/2000/svg" width="50" height="50.022" viewBox="0 0 50 50.022">
  <g id="icon-support-home-office" transform="translate(4 0.011)">
    <rect id="grid-50x50" width="50" height="50" transform="translate(-4)" fill="#ffb919" opacity="0"/>
    <g id="icon" transform="translate(0 0)">
      <path id="Path_503" data-name="Path 503" d="M40.379,6.916A6.309,6.309,0,1,1,34.071.638a6.293,6.293,0,0,1,6.309,6.278" transform="translate(-0.481 -0.011)" fill="#fff"/>
      <ellipse id="Ellipse_8" data-name="Ellipse 8" cx="6.309" cy="6.278" rx="6.309" ry="6.278" transform="translate(27.28 0.627)" fill="none" stroke="#fff" stroke-linecap="round" stroke-linejoin="round" stroke-width="1.276"/>
      <path id="Path_504" data-name="Path 504" d="M36.137,8.186A1.6,1.6,0,0,1,34.8,9.915v1H33.487V10A6.708,6.708,0,0,1,32.4,9.867l-.251-.051.141-1.141.281.041a10.126,10.126,0,0,0,1.309.1c.778,0,.915-.2.915-.607s-.222-.507-.91-.712c-.98-.294-1.73-.613-1.73-1.805a1.522,1.522,0,0,1,1.332-1.671V3H34.8v.967a8.45,8.45,0,0,1,.993.122l.254.049-.134,1.128-.283-.041A7.845,7.845,0,0,0,34.56,5.13c-.906,0-1.09.178-1.09.464,0,.438.121.5.959.735.891.246,1.708.639,1.708,1.856" transform="translate(-0.557 -0.052)" fill="#2d2d2d"/>
      <path id="Path_505" data-name="Path 505" d="M20.092,42.219H29.61a2.219,2.219,0,0,0,0-4.438H23.481a3.051,3.051,0,0,1-2.257-1.041,6.534,6.534,0,0,0-5.055-2.057s-4.219,0-9.087,5.274" transform="translate(-0.123 -0.601)" fill="none" stroke="#fff" stroke-linecap="round" stroke-linejoin="round" stroke-width="1.276"/>
      <path id="Path_506" data-name="Path 506" d="M16.659,49.231H27.843a6.752,6.752,0,0,0,4.128-1.4L42.292,35.221a2.219,2.219,0,0,0-3.138-3.139l-4.334,4.334" transform="translate(-0.289 -0.545)" fill="none" stroke="#fff" stroke-linecap="round" stroke-linejoin="round" stroke-width="1.276"/>
      <path id="Path_507" data-name="Path 507" d="M24.456,11.734h0A2.763,2.763,0,0,0,21.7,8.961h-5a2.763,2.763,0,0,0-2.752,2.773v1.727h10.5Z" transform="translate(-0.242 -0.155)" fill="#2d2d2d"/>
      <path id="Path_508" data-name="Path 508" d="M8.462,19.512H7.124a1.431,1.431,0,0,0-1.432,1.431v4.7h4.2v-4.7A1.431,1.431,0,0,0,8.462,19.512Z" transform="translate(-0.099 -0.338)" fill="none" stroke="#fff" stroke-linecap="round" stroke-linejoin="round" stroke-width="1.276"/>
      <rect id="Rectangle_243" data-name="Rectangle 243" width="7.156" height="5.566" transform="translate(5.593 25.305)" fill="none" stroke="#fff" stroke-linecap="round" stroke-linejoin="round" stroke-width="1.276"/>
      <path id="Path_509" data-name="Path 509" d="M12.23,10.251h-.046A4.371,4.371,0,0,0,7.83,14.638V19.35" transform="translate(-0.136 -0.178)" fill="none" stroke="#fff" stroke-linecap="round" stroke-linejoin="round" stroke-width="1.276"/>
      <rect id="Rectangle_259" data-name="Rectangle 259" width="14.711" height="6.25" transform="translate(11.607 13.305)" fill="#fff"/>
      <rect id="Rectangle_244" data-name="Rectangle 244" width="14.711" height="6.25" transform="translate(11.607 13.305)" fill="none" stroke="#fff" stroke-linecap="round" stroke-linejoin="round" stroke-width="1.276"/>
      <path id="Path_510" data-name="Path 510" d="M24.667,22.114h1.855V20.094H11.812v2.019h1.855" transform="translate(-0.205 -0.348)" fill="none" stroke="#fff" stroke-linecap="round" stroke-linejoin="round" stroke-width="1.276"/>
      <path id="Path_511" data-name="Path 511" d="M19.217,8.775a3.168,3.168,0,0,1-1.34-.3,1.3,1.3,0,0,0-.3.82,1.545,1.545,0,0,0,1.64,1.429,1.545,1.545,0,0,0,1.64-1.429,1.3,1.3,0,0,0-.3-.82A3.168,3.168,0,0,1,19.217,8.775Z" transform="translate(-0.305 -0.147)" fill="none" stroke="#fff" stroke-linecap="round" stroke-linejoin="round" stroke-width="1.276"/>
      <path id="Path_512" data-name="Path 512" d="M22.072,5.167c0,2-1.288,3.626-2.878,3.626S16.317,7.17,16.317,5.167s2.3-3.4,3.889-3.4S22.072,3.164,22.072,5.167Z" transform="translate(-0.283 -0.031)" fill="none" stroke="#fff" stroke-linecap="round" stroke-linejoin="round" stroke-width="1.276"/>
      <path id="Path_513" data-name="Path 513" d="M24.456,11.734h0A2.763,2.763,0,0,0,21.7,8.961h-5a2.763,2.763,0,0,0-2.752,2.773v1.727h10.5Z" transform="translate(-0.242 -0.155)" fill="none" stroke="#fff" stroke-linecap="round" stroke-linejoin="round" stroke-width="1.276"/>
      <line id="Line_40" data-name="Line 40" y1="3.599" transform="translate(30.618 15.575)" fill="none" stroke="#fff" stroke-linecap="round" stroke-linejoin="round" stroke-width="1.276"/>
      <path id="Path_514" data-name="Path 514" d="M16.317,4.986c1.237-2.049,2.927-.586,4.467-1.279" transform="translate(-0.283 -0.064)" fill="none" stroke="#fff" stroke-linecap="round" stroke-linejoin="round" stroke-width="1.276"/>
      <path id="Path_515" data-name="Path 515" d="M4.806,37.808.638,41.977l8.051,8.052h8.338Z" transform="translate(-0.011 -0.655)" fill="none" stroke="#fff" stroke-linecap="round" stroke-linejoin="round" stroke-width="1.276"/>
      <path id="Path_516" data-name="Path 516" d="M19.243,31.257V23.774a1.431,1.431,0,0,0-1.431-1.431H16.473a1.431,1.431,0,0,0-1.431,1.431v7.483" transform="translate(-0.261 -0.387)" fill="none" stroke="#fff" stroke-linecap="round" stroke-linejoin="round" stroke-width="1.276"/>
      <path id="Path_517" data-name="Path 517" d="M23.518,31.257V23.774a1.431,1.431,0,0,0-1.431-1.431H20.748a1.431,1.431,0,0,0-1.431,1.431v7.483" transform="translate(-0.335 -0.387)" fill="none" stroke="#fff" stroke-linecap="round" stroke-linejoin="round" stroke-width="1.276"/>
      <path id="Path_518" data-name="Path 518" d="M30.1,19.512h1.338a1.431,1.431,0,0,1,1.432,1.431v4.7h-4.2v-4.7A1.431,1.431,0,0,1,30.1,19.512Z" transform="translate(-0.497 -0.338)" fill="none" stroke="#fff" stroke-linecap="round" stroke-linejoin="round" stroke-width="1.276"/>
      <rect id="Rectangle_245" data-name="Rectangle 245" width="7.156" height="5.566" transform="translate(25.215 25.305)" fill="none" stroke="#fff" stroke-linecap="round" stroke-linejoin="round" stroke-width="1.276"/>
    </g>
  </g>
</svg>
