<svg xmlns="http://www.w3.org/2000/svg" width="50" height="50" viewBox="0 0 50 50">
  <g id="icon-parking" transform="translate(0 1)">
    <rect id="grid-50x50" width="50" height="50" transform="translate(0 -1)" fill="#ffb919" opacity="0"/>
    <g id="icon">
      <path id="Path_353" data-name="Path 353" d="M16.524,225.573h2.929q.977,0,1.954-.005a2.5,2.5,0,0,0,2.731-2.738q0-.934,0-1.868v-1.438a.258.258,0,0,0-.412-.208,4.088,4.088,0,0,1-2.627.709h-.031q-2.864-.006-5.729-.005l-4.993,0H9.185l-.33,0-.342,0a4.207,4.207,0,0,1-2.731-.7.259.259,0,0,0-.414.207v3.142a2.558,2.558,0,0,0,2.873,2.894h8.283Z" transform="translate(-4.403 -179.846)" fill="#2d2d2d"/>
      <path id="Path_354" data-name="Path 354" d="M174.449,12.939c2.165,0,3.943,0,5.595.013a3.452,3.452,0,0,1,3.635,3.7v.218c0,10.454.005,21.263,0,31.895a8.338,8.338,0,0,1-6.59,8.352,6.679,6.679,0,0,1-1.509.178h-.416c-.354,0-.709,0-1.064.006s-.707.006-1.061.006a25.889,25.889,0,0,1-3.079-.147,8.175,8.175,0,0,1-6.868-6.887,3.565,3.565,0,0,0-.077-.35q-.015-.058-.029-.116V15.926a3.883,3.883,0,0,1,1.252-2.178,3.618,3.618,0,0,1,2.393-.8l3.681,0q2.069,0,4.138,0m8.01,7.264a.259.259,0,0,0,.259-.259V18.079q0-.714,0-1.428a2.5,2.5,0,0,0-2.73-2.739q-2.823,0-5.647,0l-4.831,0h-2.833c-.172,0-.341.015-.468.028a2.353,2.353,0,0,0-2.221,2.16c-.051.868-.04,1.725-.028,2.631.005.393.01.793.01,1.2a.259.259,0,0,0,.414.207,4.164,4.164,0,0,1,2.666-.684l.4,0,.406,0h10.9c.151,0,.293,0,.436,0s.281,0,.422,0a4.188,4.188,0,0,1,2.69.7.259.259,0,0,0,.155.052m-4.5,3.659a1.726,1.726,0,0,0,1.683-.951c.28-.457.6-.9.938-1.365.156-.215.316-.436.479-.668a.258.258,0,0,0-.211-.407H165.856a.258.258,0,0,0-.22.395c.04.064.075.122.107.175.063.1.118.195.179.283.127.183.26.363.392.543A12.443,12.443,0,0,1,167.089,23a1.475,1.475,0,0,0,1.229.924,1.506,1.506,0,0,0,.569-.122h.02c.813,0,1.639-.006,2.438-.012s1.623-.012,2.434-.012c1.567,0,2.833.024,3.987.076.066,0,.129,0,.19,0m3.689,16.875a.259.259,0,0,0,.212-.148,9.329,9.329,0,0,0,.859-4.027q0-1.87,0-3.74V29q0-2.974,0-5.947a2.277,2.277,0,0,0-.507-1.583.259.259,0,0,0-.2-.09H182a.259.259,0,0,0-.2.109q-.27.385-.532.761c-.428.614-.832,1.193-1.257,1.77a1.377,1.377,0,0,0-.307,1.5,1.071,1.071,0,0,1,.031.426c0,.067-.006.134-.006.2l0,1.834c0,2.63.006,5.35-.01,8.024a5.737,5.737,0,0,1-.119.97c-.032.177-.065.36-.089.544a.689.689,0,0,0,.066.491c.469.684.938,1.351,1.436,2.058l.395.562a.258.258,0,0,0,.212.11h.022m-16.6,0a.258.258,0,0,0,.211-.11c.163-.231.32-.458.474-.681.364-.525.707-1.02,1.071-1.5a1.213,1.213,0,0,0,.219-1.364,1.772,1.772,0,0,1-.081-.7v-.115c-.006-3.139-.01-6.517,0-9.957a5.692,5.692,0,0,1,.074-.77c.024-.17.049-.345.064-.521a.834.834,0,0,0-.11-.527c-.54-.783-1.1-1.573-1.635-2.337l-.456-.647a.258.258,0,0,0-.186-.109l-.16-.016H164.5a.258.258,0,0,0-.252.2c-.03.135-.068.27-.108.412a3.741,3.741,0,0,0-.183.988c-.022,4.676-.017,9.335-.01,13.706a9.08,9.08,0,0,0,.856,3.9.258.258,0,0,0,.211.149h.023m8.28-3.123q2.1,0,4.192,0c.892,0,1.256-.37,1.257-1.27q0-5.154,0-10.308c0-.91-.353-1.266-1.259-1.268q-2.083,0-4.166,0t-4.168,0c-.933,0-1.28.353-1.281,1.3q0,1.847,0,3.694v2.938q0,1.838,0,3.676c0,.869.371,1.24,1.234,1.242q2.1,0,4.192,0m.913.967c-.753,0-1.373,0-1.951-.009-.779-.008-1.572-.03-2.339-.051-.563-.015-1.126-.031-1.69-.042h0a.634.634,0,0,0-.485.25c-.569.8-1.136,1.608-1.685,2.391l-.42.6a.259.259,0,0,0-.043.193c0,.018,0,.031.006.042a.319.319,0,0,0,.055.155,9.339,9.339,0,0,0,15.166.172.785.785,0,0,0-.021-.787c-.185-.282-.385-.559-.578-.827-.268-.372-.546-.757-.78-1.152a1.689,1.689,0,0,0-1.4-1.032,1.75,1.75,0,0,0-.556.1.193.193,0,0,1-.058.006c-.035,0-.07,0-.106-.006s-.1-.007-.146-.007l-1.487,0-1.486,0m-.875,8.439A10.534,10.534,0,0,1,164.427,42a.259.259,0,0,0-.478.138v1.05c0,1.691,0,3.289.016,4.893,0,.275.365.491.558.53a8.564,8.564,0,0,1,6.913,7.163.607.607,0,0,0,.671.595h.028c.419-.008.763-.012,1.082-.012.351,0,.67,0,.975.013h.045c.524,0,.651-.329.707-.651a8.258,8.258,0,0,1,4.449-6.216,13.26,13.26,0,0,1,2.087-.8c.337-.109.685-.222,1.028-.346a.259.259,0,0,0,.171-.243V42.2a.259.259,0,0,0-.478-.138,10.414,10.414,0,0,1-8.84,4.956m2.833,9.263a7.17,7.17,0,0,0,4.561-2.348,6.459,6.459,0,0,0,1.833-4.115.259.259,0,0,0-.259-.26h-.012a6.786,6.786,0,0,0-4.3,2.161,6.632,6.632,0,0,0-2.11,4.3.259.259,0,0,0,.258.265h.024m-5.988-.12a.258.258,0,0,0,.254-.306,7.59,7.59,0,0,0-6.073-6.263.259.259,0,0,0-.313.266c.146,2.788,3,6.244,6.127,6.3Z" transform="translate(-133.682 -10.613)" fill="#fff"/>
      <rect id="Rectangle_196" data-name="Rectangle 196" width="0.963" height="0.93" transform="translate(24.569 47.813)" fill="#fff"/>
      <path id="Path_355" data-name="Path 355" d="M9.3,57.145q-2.751,0-5.5,0A3.49,3.49,0,0,1,0,53.347Q0,47.58,0,41.813V37.119q0-2.4,0-4.792c0-3.618,0-7.36,0-11.04a8.26,8.26,0,0,1,5.653-8.044,10.047,10.047,0,0,1,2.776-.461c.566-.027,1.151-.04,1.79-.04.761,0,1.594.019,2.623.059a8.347,8.347,0,0,1,7.74,7.035,10.927,10.927,0,0,1,.106,1.487c.006,11.048.006,21.961,0,32.109a3.44,3.44,0,0,1-2.629,3.589,4.636,4.636,0,0,1-1.154.116q-3.807.007-7.614.007m2.821-.966H15.05q.977,0,1.954-.005a2.5,2.5,0,0,0,2.731-2.737q0-.934,0-1.869V50.133a.259.259,0,0,0-.412-.208,4.088,4.088,0,0,1-2.627.709h-.031q-2.864-.006-5.729-.005l-4.993,0H4.782l-.33,0-.342,0a4.207,4.207,0,0,1-2.731-.7.259.259,0,0,0-.414.207v3.142a2.558,2.558,0,0,0,2.873,2.894h8.283ZM5.149,46.156a.636.636,0,0,0-.5.2c-.523.723-1.036,1.454-1.579,2.227l-.437.621a.258.258,0,0,0,.211.407H17.856a.259.259,0,0,0,.212-.407l-.438-.624c-.541-.772-1.052-1.5-1.575-2.223a.634.634,0,0,0-.5-.2l-.06,0c-.174.013-.346.036-.512.06a5.3,5.3,0,0,1-.687.065c-1.312.006-2.632.009-3.924.009s-2.591,0-3.863-.009a6.291,6.291,0,0,1-.755-.065c-.177-.022-.36-.046-.544-.059l-.059,0m-3.111-16.8a.258.258,0,0,0-.212.147,8.636,8.636,0,0,0-.851,3.73c-.016,4.961-.014,9.525,0,13.953a3.286,3.286,0,0,0,.184.93c.04.132.078.258.108.383a.259.259,0,0,0,.251.2.253.253,0,0,0,.042,0l.174-.028a.258.258,0,0,0,.171-.107q.255-.362.507-.725c.406-.582.825-1.183,1.251-1.763a1.377,1.377,0,0,0,.308-1.5,1.07,1.07,0,0,1-.031-.426c0-.067.006-.134.006-.2l0-1.806c0-2.655-.006-5.4.01-8.1a5.349,5.349,0,0,1,.119-.935c.032-.172.065-.35.089-.528A.685.685,0,0,0,4.1,32.08c-.467-.682-.935-1.347-1.43-2.051l-.4-.569a.258.258,0,0,0-.211-.11H2.037m16.6,0a.258.258,0,0,0-.211.11L18,30.067c-.478.678-.93,1.318-1.378,1.976a.82.82,0,0,0-.071.578c.022.162.054.322.086.476a3.916,3.916,0,0,1,.1.744c.016,3.113.017,6.379,0,9.709a7.827,7.827,0,0,1-.079.928c-.025.2-.05.406-.066.612a.85.85,0,0,0,.129.522c.534.772,1.084,1.553,1.615,2.307l.449.637a.258.258,0,0,0,.18.108l.2.024.032,0a.258.258,0,0,0,.254-.209c.028-.141.062-.282.1-.43a4.547,4.547,0,0,0,.169-1.019c.021-1.574.018-3.174.015-4.721q0-.845,0-1.691v-2.07q0-2.515,0-5.029a9.3,9.3,0,0,0-.859-4.022.258.258,0,0,0-.211-.148h-.023m-8.3,3.121q-2.084,0-4.169,0c-.893,0-1.257.369-1.257,1.269q0,5.154,0,10.308c0,.9.365,1.267,1.258,1.269q2.07,0,4.141,0,2.1,0,4.194,0c.934,0,1.281-.352,1.282-1.294q0-1.848,0-3.7V37.4q0-1.841,0-3.682c0-.869-.371-1.241-1.233-1.243q-2.108,0-4.215,0m-.373-.966c.991,0,1.8,0,2.558.008.545,0,1.1.026,1.638.047.412.016.837.033,1.257.041h0a.686.686,0,0,0,.516-.278c.557-.779,1.117-1.578,1.659-2.351l.447-.637a.258.258,0,0,0,0-.3,9.442,9.442,0,0,0-7.728-4.028,9.194,9.194,0,0,0-7.457,3.736.638.638,0,0,0-.013.857l.233.319c.444.61.9,1.24,1.306,1.886A1.344,1.344,0,0,0,5.5,31.6a1.437,1.437,0,0,0,.463-.083.427.427,0,0,1,.133-.016c.048,0,.1,0,.146.006s.119.007.176.007l1.68,0,1.87,0M9.429,13.719a.636.636,0,0,0-.687.626,8.485,8.485,0,0,1-3.888,5.938,8.6,8.6,0,0,1-3.639,1.286.259.259,0,0,0-.224.256V27.91a.258.258,0,0,0,.474.143,10.25,10.25,0,0,1,8.879-5,10.253,10.253,0,0,1,8.885,4.983.259.259,0,0,0,.474-.144V21.824a.258.258,0,0,0-.134-.227l-.042-.025a.437.437,0,0,0-.145-.063,8.469,8.469,0,0,1-7.166-7.271.746.746,0,0,0-.627-.5c-.312-.013-.616-.015-.872-.015l-.649,0c-.2,0-.4,0-.6-.006Zm-1.92.076H7.483C4.513,14.1,1.078,17,1.1,20.274a.259.259,0,0,0,.259.257h.023a7.445,7.445,0,0,0,6.386-6.458.258.258,0,0,0-.258-.276m5.962.092a.258.258,0,0,0-.256.3,7.538,7.538,0,0,0,6.1,6.275l.031,0a.259.259,0,0,0,.258-.274,7.2,7.2,0,0,0-6.117-6.3h-.022" transform="translate(0 -10.452)" fill="#fff"/>
      <rect id="Rectangle_197" data-name="Rectangle 197" width="0.903" height="44.023" transform="translate(24.595 2.201)" fill="#fff"/>
      <rect id="Rectangle_198" data-name="Rectangle 198" width="0.911" height="0.902" transform="translate(24.591)" fill="#fff"/>
      <rect id="Rectangle_199" data-name="Rectangle 199" width="0.872" height="0.908" transform="translate(45.973 5.312)" fill="#161615"/>
      <rect id="Rectangle_200" data-name="Rectangle 200" width="0.896" height="0.896" transform="translate(32.05 5.335)" fill="#161615"/>
      <rect id="Rectangle_201" data-name="Rectangle 201" width="0.894" height="0.894" transform="translate(2.939 42.802)" fill="#fff"/>
      <rect id="Rectangle_202" data-name="Rectangle 202" width="0.876" height="0.911" transform="translate(16.868 42.802)" fill="#fff"/>
      <path id="Path_356" data-name="Path 356" d="M13.956,18.169a.636.636,0,0,0-.687.626,8.485,8.485,0,0,1-3.888,5.937,8.6,8.6,0,0,1-3.639,1.287.258.258,0,0,0-.224.256V32.36a.259.259,0,0,0,.184.248.262.262,0,0,0,.075.011.259.259,0,0,0,.215-.115,10.251,10.251,0,0,1,8.879-5,10.253,10.253,0,0,1,8.885,4.983.259.259,0,0,0,.215.115.263.263,0,0,0,.075-.011.259.259,0,0,0,.184-.247V26.274a.259.259,0,0,0-.134-.227l-.041-.024a.436.436,0,0,0-.145-.064,8.469,8.469,0,0,1-7.166-7.271.746.746,0,0,0-.627-.5c-.312-.013-.616-.015-.872-.015h-.649c-.2,0-.4,0-.6-.006Z" transform="translate(-4.526 -14.902)" fill="#fff" stroke="#fff" stroke-width="1"/>
      <path id="Path_357" data-name="Path 357" d="M32.743,122.474q-2.084,0-4.169,0c-.893,0-1.257.369-1.257,1.269q0,5.154,0,10.308c0,.9.365,1.267,1.258,1.268q2.071,0,4.141,0,2.1,0,4.193,0c.934,0,1.281-.352,1.283-1.294q0-1.848,0-3.7V127.4q0-1.841,0-3.682c0-.869-.371-1.241-1.233-1.243q-2.108,0-4.215,0" transform="translate(-22.405 -100.454)" fill="#2d2d2d"/>
      <path id="Path_358" data-name="Path 358" d="M176.054,18.172h-2.929q-.977,0-1.954.005a2.5,2.5,0,0,0-2.731,2.737q0,.934,0,1.868v1.438a.259.259,0,0,0,.412.208,4.087,4.087,0,0,1,2.627-.709h.031q2.864.006,5.729.005l4.993,0h1.161l.33,0,.341,0a4.207,4.207,0,0,1,2.731.7.259.259,0,0,0,.414-.207V21.067a2.558,2.558,0,0,0-2.873-2.894h-8.283Z" transform="translate(-138.156 -14.902)" fill="#2d2d2d"/>
      <path id="Path_359" data-name="Path 359" d="M178.889,188.429a.636.636,0,0,0,.687-.626,8.485,8.485,0,0,1,3.888-5.937,8.6,8.6,0,0,1,3.639-1.287.258.258,0,0,0,.224-.256v-6.085a.259.259,0,0,0-.184-.248.262.262,0,0,0-.075-.011.259.259,0,0,0-.215.115,10.4,10.4,0,0,1-17.765.018.259.259,0,0,0-.215-.115.263.263,0,0,0-.075.011.259.259,0,0,0-.184.247v6.068a.259.259,0,0,0,.134.227l.041.024a.44.44,0,0,0,.145.064,8.469,8.469,0,0,1,7.166,7.271.746.746,0,0,0,.627.5c.312.013.616.015.872.015h.649c.2,0,.4,0,.6.006Z" transform="translate(-138.3 -142.699)" fill="#fff" stroke="#fff" stroke-width="1"/>
      <path id="Path_360" data-name="Path 360" d="M195.84,91.4q2.084,0,4.169,0c.893,0,1.257-.369,1.257-1.269q0-5.154,0-10.308c0-.9-.365-1.267-1.258-1.268q-2.071,0-4.141,0-2.1,0-4.194,0c-.934,0-1.281.352-1.282,1.294q0,1.848,0,3.7v2.93q0,1.841,0,3.682c0,.869.371,1.241,1.233,1.243q2.108,0,4.215,0" transform="translate(-156.16 -64.427)" fill="#2d2d2d"/>
    </g>
  </g>
</svg>
