<svg xmlns="http://www.w3.org/2000/svg" width="50.023" height="50" viewBox="0 0 50.023 50">
  <g id="icon-life-balance" transform="translate(0.012 2)">
    <rect id="grid-50x50" width="50" height="50" transform="translate(0 -2)" fill="#ffb919" opacity="0"/>
    <g id="icon" transform="translate(0 0)">
      <path id="Path_527" data-name="Path 527" d="M33.864,2.484a4.877,4.877,0,0,0-3.516,7.982L37.7,19.514a1.423,1.423,0,0,0,2.207,0l7.356-9.047A4.877,4.877,0,0,0,43.75,2.484h-.091a5.548,5.548,0,0,0-4.851,2.883,5.546,5.546,0,0,0-4.85-2.883Z" transform="translate(-0.507 -0.043)" fill="#fff"/>
      <path id="Path_528" data-name="Path 528" d="M.764,4.067v7.1S3.247,12.832,9.289,13.2V11.289h4.3v1.935a22.953,22.953,0,0,0,9.076-2.06v-7.1Z" transform="translate(-0.013 -0.071)" fill="#fff"/>
      <path id="Path_529" data-name="Path 529" d="M21.486,11.816A26.366,26.366,0,0,1,13.6,13.358v1.574H9.3V13.337a23,23,0,0,1-7.489-1.521H1.587v8.77H21.866v-8.77Z" transform="translate(-0.028 -0.205)" fill="#2d2d2d"/>
      <path id="Path_530" data-name="Path 530" d="M33.864,2.484a4.877,4.877,0,0,0-3.516,7.982L37.7,19.514a1.423,1.423,0,0,0,2.207,0l7.356-9.047A4.877,4.877,0,0,0,43.75,2.484h-.091a5.548,5.548,0,0,0-4.851,2.883,5.546,5.546,0,0,0-4.85-2.883Z" transform="translate(-0.507 -0.043)" fill="none" stroke="#fff" stroke-linecap="round" stroke-linejoin="round" stroke-width="1.276"/>
      <path id="Path_531" data-name="Path 531" d="M21.867,11.816v8.77H1.586v-8.77" transform="translate(-0.027 -0.205)" fill="none" stroke="#fff" stroke-linecap="round" stroke-linejoin="round" stroke-width="1.276"/>
      <path id="Path_532" data-name="Path 532" d="M13.956,13.2a22.628,22.628,0,0,0,8.7-2.038v-7.1H.765v7.1s2.395,1.61,8.2,2.018" transform="translate(-0.013 -0.071)" fill="none" stroke="#fff" stroke-linecap="round" stroke-linejoin="round" stroke-width="1.276"/>
      <rect id="Rectangle_248" data-name="Rectangle 248" width="8.699" height="3.509" transform="translate(7.349 0.487)" fill="none" stroke="#fff" stroke-linecap="round" stroke-linejoin="round" stroke-width="0.992"/>
      <path id="Path_533" data-name="Path 533" d="M49.38,28.181.637,28.221l0-4.564,48.743-.039Z" transform="translate(-0.011 -0.409)" fill="none" stroke="#fff" stroke-linecap="round" stroke-linejoin="round" stroke-width="1.276"/>
      <path id="Path_534" data-name="Path 534" d="M31.773,23.869l0,3.042A1.269,1.269,0,0,1,30.5,28.179H29.79a1.265,1.265,0,0,1-1.266-1.267,1.271,1.271,0,0,1-1.269,1.269h-.712a1.264,1.264,0,0,1-1.266-1.266,1.269,1.269,0,0,1-1.268,1.268H23.3a1.265,1.265,0,0,1-1.267-1.266,1.269,1.269,0,0,1-1.268,1.268h-.712a1.265,1.265,0,0,1-1.266-1.267l0-3.041a1.27,1.27,0,0,1,1.268-1.269h.713a1.264,1.264,0,0,1,1.266,1.266A1.268,1.268,0,0,1,23.3,22.609h.712a1.266,1.266,0,0,1,1.267,1.266,1.269,1.269,0,0,1,1.268-1.268h.712a1.265,1.265,0,0,1,1.266,1.267A1.271,1.271,0,0,1,29.795,22.6h.712a1.264,1.264,0,0,1,1.266,1.266" transform="translate(-0.326 -0.392)" fill="#2d2d2d"/>
      <path id="Path_535" data-name="Path 535" d="M19.947,46.765l.011-7.084a.614.614,0,0,0-.166-.421l-3.169-3.386a.613.613,0,0,1-.166-.421l0-6.549a.617.617,0,0,1,.616-.616l4.881,0a1.912,1.912,0,1,1,0,3.824l-2.231,0V33.7s5.21-.041,5.205,5.194" transform="translate(-0.285 -0.49)" fill="none" stroke="#fff" stroke-linecap="round" stroke-linejoin="round" stroke-width="1.276"/>
      <path id="Path_536" data-name="Path 536" d="M32.435,28.276l-.006,7.165a.853.853,0,0,1-.1.422l-1.988,3.39a.847.847,0,0,0-.1.421l-.011,7.092" transform="translate(-0.524 -0.49)" fill="none" stroke="#fff" stroke-linecap="round" stroke-linejoin="round" stroke-width="1.276"/>
      <path id="Path_541" data-name="Path 541" d="M20.763,28.187h-.712a1.265,1.265,0,0,1-1.266-1.267l0-3.041a1.27,1.27,0,0,1,1.268-1.269h.713a1.264,1.264,0,0,1,1.266,1.266l0,3.042A1.269,1.269,0,0,1,20.763,28.187Z" transform="translate(-0.326 -0.392)" fill="none" stroke="#fff" stroke-linecap="round" stroke-linejoin="round" stroke-width="1.276"/>
      <path id="Path_542" data-name="Path 542" d="M24.067,28.185h-.712a1.265,1.265,0,0,1-1.266-1.267l0-3.041a1.27,1.27,0,0,1,1.268-1.269h.713a1.264,1.264,0,0,1,1.266,1.266l0,3.042A1.269,1.269,0,0,1,24.067,28.185Z" transform="translate(-0.383 -0.392)" fill="none" stroke="#fff" stroke-linecap="round" stroke-linejoin="round" stroke-width="1.276"/>
      <path id="Path_543" data-name="Path 543" d="M27.371,28.182h-.712a1.265,1.265,0,0,1-1.266-1.267l0-3.041a1.27,1.27,0,0,1,1.268-1.269h.713a1.264,1.264,0,0,1,1.266,1.266l0,3.042A1.269,1.269,0,0,1,27.371,28.182Z" transform="translate(-0.44 -0.392)" fill="none" stroke="#fff" stroke-linecap="round" stroke-linejoin="round" stroke-width="1.276"/>
      <path id="Path_544" data-name="Path 544" d="M30.674,28.179h-.712A1.265,1.265,0,0,1,28.7,26.913l0-3.041A1.27,1.27,0,0,1,29.966,22.6h.713a1.264,1.264,0,0,1,1.266,1.266l0,3.042A1.269,1.269,0,0,1,30.674,28.179Z" transform="translate(-0.497 -0.392)" fill="none" stroke="#fff" stroke-linecap="round" stroke-linejoin="round" stroke-width="1.276"/>
      <rect id="Rectangle_249" data-name="Rectangle 249" width="11.142" height="2.826" transform="translate(6.128 20.381)" fill="none" stroke="#fff" stroke-linecap="round" stroke-linejoin="round" stroke-width="1.276"/>
      <rect id="Rectangle_250" data-name="Rectangle 250" width="11.142" height="2.826" transform="translate(32.73 20.381)" fill="none" stroke="#fff" stroke-linecap="round" stroke-linejoin="round" stroke-width="1.276"/>
      <rect id="Rectangle_251" data-name="Rectangle 251" width="4.294" height="3.509" transform="translate(9.276 11.218)" fill="none" stroke="#fff" stroke-linecap="round" stroke-linejoin="round" stroke-width="0.992"/>
    </g>
  </g>
</svg>
