<svg xmlns="http://www.w3.org/2000/svg" width="50" height="50" viewBox="0 0 50 50">
  <g id="icon-food" transform="translate(-980 -3754)">
    <rect id="grid-50x50" width="50" height="50" transform="translate(980 3754)" fill="#ffb919" opacity="0"/>
    <g id="icon">
      <path id="Path_305" data-name="Path 305" d="M27.462,5A22.494,22.494,0,0,0,11.521,43.374a22.157,22.157,0,0,0,15.815,6.64,22.6,22.6,0,0,0,16.028-6.556A22.5,22.5,0,0,0,27.463,5Z" transform="translate(978.074 3752.041)" fill="none"/>
      <path id="Path_306" data-name="Path 306" d="M72.924,62.368a10.584,10.584,0,0,0-7.5,18.057,10.427,10.427,0,0,0,7.442,3.124,10.632,10.632,0,0,0,7.541-3.085,10.586,10.586,0,0,0-7.482-18.1Z" transform="translate(932.615 3706.588)" fill="none"/>
      <path id="Path_307" data-name="Path 307" d="M21.347,47.08c-.381-.077-.763-.149-1.146-.22-.826-.155-1.68-.315-2.5-.527A23.128,23.128,0,0,1,3.881,36.453,22.484,22.484,0,0,1,.089,21.746a23.027,23.027,0,0,1,10.616-17.9A22.474,22.474,0,0,1,23.436,0c.6,0,1.219.022,1.834.065A22.7,22.7,0,0,1,38.516,5.4a23.216,23.216,0,0,1,8.419,15.533,1.275,1.275,0,0,0,.114.364l.028.066v4.359l-.029.069a1.3,1.3,0,0,0-.111.367A22.779,22.779,0,0,1,43.254,36.4a23.258,23.258,0,0,1-13.783,9.921c-.834.221-1.705.381-2.547.536-.384.07-.78.143-1.17.221ZM23.536,1.038A22.494,22.494,0,0,0,7.595,39.415a22.157,22.157,0,0,0,15.815,6.64A22.6,22.6,0,0,0,39.438,39.5a22.566,22.566,0,0,0,.048-31.877,22.368,22.368,0,0,0-15.95-6.584Z" transform="translate(982 3756)" fill="#fff"/>
      <path id="Path_308" data-name="Path 308" d="M126.377,83.871a2.332,2.332,0,0,1-2.1-1.256,3.1,3.1,0,0,1-.262-1.429c.1-2.674.219-5.393.338-8.022q.057-1.263.114-2.527a.277.277,0,0,0,.015-.091c0-.059,0-.118,0-.177a1.59,1.59,0,0,1,.005-.3,2.438,2.438,0,0,0-.988-2.552,3.843,3.843,0,0,1-1.173-3.678,19.36,19.36,0,0,1,1.02-4.391,3,3,0,0,1,3.025-2.013h.027a3.042,3.042,0,0,1,3.034,1.982,11.17,11.17,0,0,1,.977,5.712,3.9,3.9,0,0,1-1.573,2.814,1.2,1.2,0,0,0-.573,1.164c.164,3.511.311,7.082.453,10.535l.068,1.654a2.422,2.422,0,0,1-2.4,2.57m-1.27-5.132a.3.3,0,0,0-.089.212q0,.372,0,.745c0,.562,0,1.142,0,1.714a1.245,1.245,0,0,0,1.354,1.387h.046a1.243,1.243,0,0,0,1.327-1.371c.006-.407-.011-.82-.029-1.209l-.094-2.056c-.146-3.2-.3-6.511-.458-9.766-.026-.523.111-.771.524-.948A2.8,2.8,0,0,0,129.384,65a10.731,10.731,0,0,0-.869-5.144,2.112,2.112,0,0,0-2.081-1.392h-.057a2.107,2.107,0,0,0-2.116,1.378,10.688,10.688,0,0,0-.87,5.22,2.794,2.794,0,0,0,1.673,2.379.811.811,0,0,1,.539.94c-.132,2.635-.253,5.315-.37,7.906l-.11,2.437-.016.014" transform="translate(885.124 3710.492)" fill="#fff"/>
      <path id="Path_309" data-name="Path 309" d="M68.707,83.887a2.311,2.311,0,0,1-1.686-.72,2.526,2.526,0,0,1-.683-1.882c.079-1.783.166-3.6.251-5.349.119-2.461.241-5.006.343-7.51a1.732,1.732,0,0,0-.548-1.322,4.417,4.417,0,0,1-1.814-4.372,21.124,21.124,0,0,0,.057-2.938c-.012-.439-.024-.893-.023-1.335,0-1,.348-1,.479-1l.055,0c.464.036.533.248.532.958q0,.574,0,1.149c-.005,1.5-.011,3.06.021,4.591a1.717,1.717,0,0,0,.537,1.257c1.443,1.024,1.946,2.348,1.738,4.57-.231,2.456-.337,4.96-.44,7.383-.042.993-.086,2.02-.138,3.029l0,.086c-.017.32-.034.651-.021.983a1.273,1.273,0,0,0,1.354,1.348h.016a1.266,1.266,0,0,0,1.343-1.389c-.027-1.175-.087-2.367-.145-3.52l-.036-.726q-.068-1.377-.138-2.754c-.112-2.214-.228-4.5-.323-6.757a1.189,1.189,0,0,1,.168-.473c.041-.081.083-.166.119-.252a.412.412,0,0,1,.054-.042,4.776,4.776,0,0,0,2.024-4.894,17.65,17.65,0,0,1-.049-2.541c.011-.4.023-.812.022-1.219a.962.962,0,0,1,.162-.668.49.49,0,0,1,.361-.113c.283,0,.533.063.538.794.006.764,0,1.541,0,2.292q0,.491,0,.982c0,.3,0,.6.008.9.01.726.02,1.478-.03,2.206a2.82,2.82,0,0,1-.435,1.07l-.029.051a1.63,1.63,0,0,1-.525.529c-1.367.889-1.4,2.239-1.32,3.434.243,3.721.413,7.511.577,11.175l.018.409a2.487,2.487,0,0,1-.662,1.839,2.354,2.354,0,0,1-1.7.74Z" transform="translate(930.877 3710.478)" fill="#fff"/>
      <path id="Path_310" data-name="Path 310" d="M77.085,64.791l-.057,0c-.252-.015-.461-.077-.456-.7,0-.676,0-1.352,0-2.029V60.378q0-1.121,0-2.242c0-.6.24-.657.488-.663h.024c.159,0,.491,0,.5.634.014,1.9.015,3.869,0,6.02,0,.664-.337.664-.5.664" transform="translate(921.335 3710.466)" fill="#fff"/>
      <path id="Path_311" data-name="Path 311" d="M88.428,64.79c-.134,0-.489,0-.494-.6-.016-2.015-.017-4.066,0-6.094,0-.625.346-.625.492-.625h.032c.255.008.484.066.482.671q0,1.033,0,2.066v1.427q0,1.266,0,2.532c0,.552-.238.609-.461.62h-.048" transform="translate(912.343 3710.468)" fill="#fff"/>
    </g>
  </g>
</svg>
