<svg xmlns="http://www.w3.org/2000/svg" width="50.023" height="50" viewBox="0 0 50.023 50">
  <g id="icon-digital-care" transform="translate(0.012 7)">
    <rect id="grid-50x50" width="50" height="50" transform="translate(0 -7)" fill="#ffb919" opacity="0"/>
    <g id="icon" transform="translate(0 0)">
      <path id="Path_465" data-name="Path 465" d="M46.613,36.964H3.408A2.771,2.771,0,0,1,.637,34.193V32.275H49.384v1.918a2.771,2.771,0,0,1-2.771,2.771" transform="translate(-0.011 -0.559)" fill="#2d2d2d"/>
      <path id="Path_466" data-name="Path 466" d="M46.613,36.964H3.408A2.771,2.771,0,0,1,.637,34.193V32.275H49.384v1.918A2.771,2.771,0,0,1,46.613,36.964Z" transform="translate(-0.011 -0.559)" fill="none" stroke="#fff" stroke-linecap="round" stroke-linejoin="round" stroke-width="1.276"/>
      <path id="Path_467" data-name="Path 467" d="M28.716,34.393h-7.13a1.117,1.117,0,0,1-1.117-1.116v-1h9.364v1A1.116,1.116,0,0,1,28.716,34.393Z" transform="translate(-0.355 -0.559)" fill="none" stroke="#fff" stroke-linecap="round" stroke-linejoin="round" stroke-width="1.276"/>
      <path id="Path_468" data-name="Path 468" d="M44.422.638H5.709A1.934,1.934,0,0,0,3.774,2.572V31.727H46.356V2.572A1.933,1.933,0,0,0,44.422.638Z" transform="translate(-0.065 -0.011)" fill="none" stroke="#fff" stroke-linecap="round" stroke-linejoin="round" stroke-width="1.276"/>
      <rect id="Rectangle_234" data-name="Rectangle 234" width="37.273" height="24.848" transform="translate(6.364 3.748)" fill="none" stroke="#fff" stroke-linecap="round" stroke-linejoin="round" stroke-width="1.276"/>
      <path id="Path_469" data-name="Path 469" d="M28.181,20.684l-5.1-1.64,1.641,5.1,1.21-1.21,2.845,2.846a.738.738,0,1,0,1.045-1.044l-2.846-2.846Z" transform="translate(-0.4 -0.33)" fill="#fff"/>
      <rect id="Rectangle_235" data-name="Rectangle 235" width="30.641" height="2.869" transform="translate(9.679 12.508)" fill="none" stroke="#fff" stroke-linecap="round" stroke-linejoin="round" stroke-width="1.276"/>
      <path id="Path_470" data-name="Path 470" d="M13.545,18.369h0a1.217,1.217,0,0,1-1.218-1.217V11.076a1.217,1.217,0,0,1,2.434,0v6.077a1.216,1.216,0,0,1-1.217,1.217" transform="translate(-0.214 -0.171)" fill="#fff"/>
      <path id="Path_471" data-name="Path 471" d="M16.022,20.69h0A1.218,1.218,0,0,1,14.8,19.472V8.673a1.217,1.217,0,0,1,2.434,0v10.8a1.217,1.217,0,0,1-1.217,1.218" transform="translate(-0.257 -0.129)" fill="#fff"/>
      <path id="Path_472" data-name="Path 472" d="M37.295,18.369h0a1.216,1.216,0,0,0,1.217-1.217V11.076a1.217,1.217,0,0,0-2.434,0v6.077a1.217,1.217,0,0,0,1.218,1.217" transform="translate(-0.625 -0.171)" fill="#fff"/>
      <path id="Path_473" data-name="Path 473" d="M34.818,20.69h0a1.217,1.217,0,0,0,1.217-1.218V8.673a1.217,1.217,0,1,0-2.433,0v10.8a1.217,1.217,0,0,0,1.217,1.218" transform="translate(-0.582 -0.129)" fill="#fff"/>
      <path id="Path_474" data-name="Path 474" d="M13.545,18.369h0a1.217,1.217,0,0,1-1.218-1.217V11.076a1.217,1.217,0,0,1,2.434,0v6.077A1.216,1.216,0,0,1,13.545,18.369Z" transform="translate(-0.214 -0.171)" fill="none" stroke="#fff" stroke-linecap="round" stroke-linejoin="round" stroke-width="1.276"/>
      <path id="Path_475" data-name="Path 475" d="M16.022,20.69h0A1.218,1.218,0,0,1,14.8,19.472V8.673a1.217,1.217,0,0,1,2.434,0v10.8A1.217,1.217,0,0,1,16.022,20.69Z" transform="translate(-0.257 -0.129)" fill="none" stroke="#fff" stroke-linecap="round" stroke-linejoin="round" stroke-width="1.276"/>
      <path id="Path_476" data-name="Path 476" d="M37.295,18.369h0a1.216,1.216,0,0,0,1.217-1.217V11.076a1.217,1.217,0,0,0-2.434,0v6.077A1.217,1.217,0,0,0,37.295,18.369Z" transform="translate(-0.625 -0.171)" fill="none" stroke="#fff" stroke-linecap="round" stroke-linejoin="round" stroke-width="1.276"/>
      <path id="Path_477" data-name="Path 477" d="M34.818,20.69h0a1.217,1.217,0,0,0,1.217-1.218V8.673a1.217,1.217,0,1,0-2.433,0v10.8A1.217,1.217,0,0,0,34.818,20.69Z" transform="translate(-0.582 -0.129)" fill="none" stroke="#fff" stroke-linecap="round" stroke-linejoin="round" stroke-width="1.276"/>
    </g>
  </g>
</svg>
