<svg xmlns="http://www.w3.org/2000/svg" width="50" height="50.022" viewBox="0 0 50 50.022">
  <g id="icon-life-insurence" transform="translate(9 0.011)">
    <rect id="grid-50x50" width="50" height="50" transform="translate(-9)" fill="#ffb919" opacity="0"/>
    <g id="icon">
      <path id="Path_497" data-name="Path 497" d="M16.011,22.344h0a9.6,9.6,0,0,0-9.6,9.6V46.051h19.2V31.943A9.6,9.6,0,0,0,16.011,22.344Z" transform="translate(-0.111 -0.387)" fill="none" stroke="#fff" stroke-linecap="round" stroke-linejoin="round" stroke-width="1.276"/>
      <path id="Path_498" data-name="Path 498" d="M20.487,30.911v2.251H17.235v7.606H14.977V33.162h-3.26V30.911h3.26v-3.1h2.258v3.1Z" transform="translate(-0.203 -0.482)" fill="none" stroke="#fff" stroke-linecap="round" stroke-linejoin="round" stroke-width="1.276"/>
      <rect id="Rectangle_241" data-name="Rectangle 241" width="25.974" height="3.711" transform="translate(2.912 45.662)" fill="none" stroke="#fff" stroke-linecap="round" stroke-linejoin="round" stroke-width="1.276"/>
      <path id="Path_499" data-name="Path 499" d="M10.57,15.418a7.011,7.011,0,0,1,5.3-2.22,7.008,7.008,0,0,1,5.3,2.22,7.012,7.012,0,0,1,5.3-2.22,7.237,7.237,0,0,1,4.715,1.649C31.035,7.664,24.256,1.88,15.91,1.88,7.591,1.88.83,7.625.637,14.774A7.272,7.272,0,0,1,5.27,13.2a7.022,7.022,0,0,1,5.3,2.22" transform="translate(-0.011 -0.032)" fill="#2d2d2d"/>
      <path id="Path_501" data-name="Path 501" d="M10.57,15.418a7.011,7.011,0,0,1,5.3-2.22,7.008,7.008,0,0,1,5.3,2.22,7.012,7.012,0,0,1,5.3-2.22,7.237,7.237,0,0,1,4.715,1.649C31.035,7.664,24.256,1.88,15.91,1.88,7.591,1.88.83,7.625.637,14.774A7.272,7.272,0,0,1,5.27,13.2,7.022,7.022,0,0,1,10.57,15.418Z" transform="translate(-0.011 -0.032)" fill="#fff" stroke="#fff" stroke-linecap="round" stroke-linejoin="round" stroke-width="1.276"/>
      <line id="Line_38" data-name="Line 38" y2="4.956" transform="translate(15.899 13.351)" fill="none" stroke="#fff" stroke-linecap="round" stroke-linejoin="round" stroke-width="1.276"/>
      <path id="Path_500" data-name="Path 500" d="M10.734,15.471a11.078,11.078,0,0,1-.781-4.1A10.877,10.877,0,0,1,11.87,5.139" transform="translate(-0.173 -0.089)" fill="none" stroke="#2d2d2d" stroke-linecap="round" stroke-linejoin="round" stroke-width="1.276"/>
      <path id="Path_502" data-name="Path 502" d="M21.508,15.475a9.585,9.585,0,0,0,.874-3.8,12.173,12.173,0,0,0-2.171-6.541" transform="translate(-0.35 -0.089)" fill="none" stroke="#2d2d2d" stroke-linecap="round" stroke-linejoin="round" stroke-width="1.276"/>
      <line id="Line_39" data-name="Line 39" y2="1.23" transform="translate(15.899 0.627)" fill="none" stroke="#fff" stroke-linecap="round" stroke-linejoin="round" stroke-width="1.276"/>
    </g>
  </g>
</svg>
