<svg xmlns="http://www.w3.org/2000/svg" width="50.026" height="50.208" viewBox="0 0 50.026 50.208">
  <g id="icon-plurality" transform="translate(0.011 0.196)">
    <rect id="grid-50x50" width="50" height="50" fill="#ffb919" opacity="0"/>
    <g id="icon" transform="translate(0 0)">
      <path id="Path_590" data-name="Path 590" d="M50.04,16.27A2.232,2.232,0,0,0,47.931,13.9a2.352,2.352,0,0,0-1.211.276,2.218,2.218,0,0,0-2.213-2.092,2.244,2.244,0,0,0-2.248,2.247v.018a2.2,2.2,0,0,0-1.331-.449,2.243,2.243,0,0,0-2.248,2.247v1.243a1.244,1.244,0,0,0,1.243,1.243H48.8a1.244,1.244,0,0,0,1.243-1.243Z" transform="translate(-0.67 -0.209)" fill="#2d2d2d"/>
      <path id="Path_591" data-name="Path 591" d="M12,7.654A2.232,2.232,0,0,0,9.889,5.286a2.362,2.362,0,0,0-1.211.276A2.218,2.218,0,0,0,6.465,3.47,2.244,2.244,0,0,0,4.217,5.717v.018a2.2,2.2,0,0,0-1.331-.449A2.243,2.243,0,0,0,.638,7.533V8.776a1.244,1.244,0,0,0,1.243,1.243h8.877A1.244,1.244,0,0,0,12,8.776Z" transform="translate(-0.011 -0.06)" fill="#2d2d2d"/>
      <path id="Path_592" data-name="Path 592" d="M12,7.654A2.232,2.232,0,0,0,9.889,5.286a2.362,2.362,0,0,0-1.211.276A2.218,2.218,0,0,0,6.465,3.47,2.244,2.244,0,0,0,4.217,5.717v.018a2.2,2.2,0,0,0-1.331-.449A2.243,2.243,0,0,0,.638,7.533V8.776a1.244,1.244,0,0,0,1.243,1.243h8.877A1.244,1.244,0,0,0,12,8.776Z" transform="translate(-0.011 -0.06)" fill="none" stroke="#fff" stroke-linecap="round" stroke-linejoin="round" stroke-width="1.276"/>
      <path id="Path_593" data-name="Path 593" d="M5.415,13.411a24.455,24.455,0,0,0-1.982,9.651" transform="translate(-0.06 -0.232)" fill="none" stroke="#fff" stroke-linecap="round" stroke-linejoin="round" stroke-width="1.276"/>
      <path id="Path_594" data-name="Path 594" d="M9.445,13.411a20.687,20.687,0,0,0-2.367,9.651" transform="translate(-0.123 -0.232)" fill="none" stroke="#fff" stroke-linecap="round" stroke-linejoin="round" stroke-width="1.276"/>
      <path id="Path_595" data-name="Path 595" d="M37.146,11.7A15.124,15.124,0,0,0,26.053,6.8c-8.55,0-15.481,7.228-15.481,16.144" transform="translate(-0.183 -0.118)" fill="none" stroke="#fff" stroke-linecap="round" stroke-linejoin="round" stroke-width="1.276"/>
      <path id="Path_596" data-name="Path 596" d="M50.04,16.27A2.232,2.232,0,0,0,47.931,13.9a2.352,2.352,0,0,0-1.211.276,2.218,2.218,0,0,0-2.213-2.092,2.244,2.244,0,0,0-2.248,2.247v.018a2.2,2.2,0,0,0-1.331-.449,2.243,2.243,0,0,0-2.248,2.247v1.243a1.244,1.244,0,0,0,1.243,1.243H48.8a1.244,1.244,0,0,0,1.243-1.243Z" transform="translate(-0.67 -0.209)" fill="none" stroke="#fff" stroke-linecap="round" stroke-linejoin="round" stroke-width="1.276"/>
      <path id="Path_597" data-name="Path 597" d="M40.574,10.014A18.491,18.491,0,0,0,26.136,2.94,18.152,18.152,0,0,0,15.367,6.5" transform="translate(-0.266 -0.051)" fill="none" stroke="#fff" stroke-linecap="round" stroke-linejoin="round" stroke-width="1.276"/>
      <path id="Path_598" data-name="Path 598" d="M45.573,23.211c0-.4-.034-.79-.057-1.184" transform="translate(-0.789 -0.382)" fill="none" stroke="#fff" stroke-linecap="round" stroke-linejoin="round" stroke-width="1.276"/>
      <path id="Path_599" data-name="Path 599" d="M49.217,23.211c0-.406-.038-.8-.058-1.2" transform="translate(-0.852 -0.381)" fill="none" stroke="#fff" stroke-linecap="round" stroke-linejoin="round" stroke-width="1.276"/>
      <path id="Path_600" data-name="Path 600" d="M19.007,42.8a31.829,31.829,0,0,0-3.361-.559l-3.6.012a6.452,6.452,0,0,0-6.016,6.466v1.384h2.82l0-2.483,0,2.483h8.459" transform="translate(-0.104 -0.732)" fill="#2d2d2d"/>
      <path id="Path_601" data-name="Path 601" d="M34,50.078H44.621V47.163A6.49,6.49,0,0,0,38.563,40.7L35,40.7a5.955,5.955,0,0,0-3.616,1.118" transform="translate(-0.544 -0.705)" fill="#2d2d2d"/>
      <path id="Path_602" data-name="Path 602" d="M19.007,42.8a31.829,31.829,0,0,0-3.361-.559l-3.6.012a6.452,6.452,0,0,0-6.016,6.466v1.384h2.82l0-2.483,0,2.483h8.459" transform="translate(-0.104 -0.732)" fill="none" stroke="#fff" stroke-linecap="round" stroke-linejoin="round" stroke-width="1.276"/>
      <path id="Path_603" data-name="Path 603" d="M15.752,41.281v1.138a1.773,1.773,0,0,1-1.8,1.571,1.8,1.8,0,0,1-1.8-1.8v-.907" transform="translate(-0.211 -0.715)" fill="none" stroke="#fff" stroke-linecap="round" stroke-linejoin="round" stroke-width="1.276"/>
      <path id="Path_604" data-name="Path 604" d="M9.743,38.415a3.15,3.15,0,0,1-.653.135,1.216,1.216,0,0,1-1.225-1.208,1.171,1.171,0,0,1,.149-.576,1.272,1.272,0,0,1-.26.027,1.217,1.217,0,0,1-1.226-1.208,1.2,1.2,0,0,1,.553-1.01A1.2,1.2,0,0,1,6.8,32.29a1.2,1.2,0,0,1,.255-2.28,1.192,1.192,0,0,1-.3-.795,1.216,1.216,0,0,1,1.225-1.208,1.231,1.231,0,0,1,.4.068,1.169,1.169,0,0,1-.07-.4A1.216,1.216,0,0,1,9.535,26.47a1.23,1.23,0,0,1,.8.29,1,1,0,0,1-.016-.18,1.229,1.229,0,0,1,2.291-.6.823.823,0,0,1,.06-.145.922.922,0,0,1,.1-.166c.018-.027.038-.053.06-.08s.049-.057.076-.084l.007-.007a.937.937,0,0,1,.083-.072c.029-.027.063-.048.093-.071a.967.967,0,0,1,.1-.059c.033-.02.067-.035.1-.053h0a1.078,1.078,0,0,1,.112-.039.865.865,0,0,1,.1-.027l.029-.007a.742.742,0,0,1,.1-.013.92.92,0,0,1,.139-.009.907.907,0,0,1,.138.009.758.758,0,0,1,.1.013l.028.007a.818.818,0,0,1,.1.027,1,1,0,0,1,.112.039h0a1.165,1.165,0,0,1,.105.053,1.059,1.059,0,0,1,.1.059.932.932,0,0,1,.093.071.814.814,0,0,1,.083.072l.007.007c.027.027.051.055.076.084a.843.843,0,0,1,.06.08.912.912,0,0,1,.1.166.823.823,0,0,1,.06.145,1.229,1.229,0,0,1,2.291.6.913.913,0,0,1-.016.18,1.234,1.234,0,0,1,.8-.29,1.317,1.317,0,0,1,1.206.914" transform="translate(-0.105 -0.436)" fill="none" stroke="#fff" stroke-linecap="round" stroke-linejoin="round" stroke-width="1.276"/>
      <path id="Path_605" data-name="Path 605" d="M21.26,34.972l-.042.783a1.216,1.216,0,0,1-1.225,1.208,1.337,1.337,0,0,1-.26-.026,1.167,1.167,0,0,1,.149.575,1.216,1.216,0,0,1-1.225,1.208,2.388,2.388,0,0,1-.633-.156" transform="translate(-0.312 -0.606)" fill="none" stroke="#fff" stroke-linecap="round" stroke-linejoin="round" stroke-width="1.276"/>
      <path id="Path_606" data-name="Path 606" d="M17.893,36.97v-.445a1.677,1.677,0,0,0,0-3.354v-.445a3.338,3.338,0,0,0-2.353-3.189v.118a1.4,1.4,0,0,1-1.472,1.317h-.372a1.4,1.4,0,0,1-1.472-1.317V29.53a3.338,3.338,0,0,0-2.377,3.2v.447a1.676,1.676,0,0,0,0,3.351v.446C9.846,42.443,17.893,42.45,17.893,36.97Z" transform="translate(-0.142 -0.512)" fill="none" stroke="#fff" stroke-linecap="round" stroke-linejoin="round" stroke-width="1.276"/>
      <path id="Path_607" data-name="Path 607" d="M15.385,38.268a2.018,2.018,0,0,1-2.856,0" transform="translate(-0.217 -0.663)" fill="none" stroke="#fff" stroke-linecap="round" stroke-linejoin="round" stroke-width="1.276"/>
      <path id="Path_608" data-name="Path 608" d="M34,50.078H44.621V47.163A6.49,6.49,0,0,0,38.563,40.7L35,40.7a5.955,5.955,0,0,0-3.616,1.118" transform="translate(-0.544 -0.705)" fill="none" stroke="#fff" stroke-linecap="round" stroke-linejoin="round" stroke-width="1.276"/>
      <path id="Path_609" data-name="Path 609" d="M38.627,38.516v2.122a1.78,1.78,0,1,1-3.559,0V38.526" transform="translate(-0.608 -0.668)" fill="none" stroke="#fff" stroke-linecap="round" stroke-linejoin="round" stroke-width="1.276"/>
      <path id="Path_610" data-name="Path 610" d="M32.28,31.735a1.655,1.655,0,0,0,.516,3.219v.135a3.6,3.6,0,0,0,3.6,3.6h.747a3.6,3.6,0,0,0,3.6-3.6v-.134a1.656,1.656,0,0,0,.541-3.22" transform="translate(-0.54 -0.55)" fill="none" stroke="#fff" stroke-linecap="round" stroke-linejoin="round" stroke-width="1.276"/>
      <path id="Path_611" data-name="Path 611" d="M31.818,28.951,36.5,26.038a.532.532,0,0,1,.567,0l7.286,4.622a.529.529,0,0,1-.284.975H30.058" transform="translate(-0.521 -0.45)" fill="none" stroke="#fff" stroke-linecap="round" stroke-linejoin="round" stroke-width="1.276"/>
      <line id="Line_49" data-name="Line 49" y1="4.014" transform="translate(41.251 45.359)" fill="none" stroke="#fff" stroke-linecap="round" stroke-linejoin="round" stroke-width="1.276"/>
      <path id="Path_612" data-name="Path 612" d="M38.229,35.939a1.943,1.943,0,0,1-2.748,0" transform="translate(-0.615 -0.623)" fill="none" stroke="#fff" stroke-linecap="round" stroke-linejoin="round" stroke-width="1.276"/>
      <path id="Path_613" data-name="Path 613" d="M27.459,40.54h-3.7a6.708,6.708,0,0,0-6.254,6.721v2.813H33.754V47.262a6.744,6.744,0,0,0-6.295-6.722" transform="translate(-0.303 -0.703)" fill="#2d2d2d"/>
      <path id="Path_614" data-name="Path 614" d="M27.459,40.54h-3.7a6.708,6.708,0,0,0-6.254,6.721v2.813H33.754V47.262A6.744,6.744,0,0,0,27.459,40.54Z" transform="translate(-0.303 -0.703)" fill="none" stroke="#fff" stroke-linecap="round" stroke-linejoin="round" stroke-width="1.276"/>
      <path id="Path_615" data-name="Path 615" d="M18.175,39.208a1.814,1.814,0,0,0,1.383.619h1.057l3.284,0" transform="translate(-0.315 -0.68)" fill="none" stroke="#fff" stroke-linecap="round" stroke-linejoin="round" stroke-width="1.276"/>
      <path id="Path_616" data-name="Path 616" d="M32.356,31.595a1.011,1.011,0,0,1-.672-.934v-.509a4.56,4.56,0,0,0-4.732-4.366H24.289a4.559,4.559,0,0,0-4.731,4.366v.509a1.012,1.012,0,0,1-.672.934,1.756,1.756,0,0,0-.7.482" transform="translate(-0.315 -0.447)" fill="none" stroke="#fff" stroke-linecap="round" stroke-linejoin="round" stroke-width="1.276"/>
      <path id="Path_617" data-name="Path 617" d="M27.557,39.757l3.232,0h1.057a1.7,1.7,0,0,0,1.76-1.624,1.631,1.631,0,0,0-1.088-1.5,1.01,1.01,0,0,1-.672-.934v0a.979.979,0,0,1,.325-.722" transform="translate(-0.478 -0.606)" fill="none" stroke="#fff" stroke-linecap="round" stroke-linejoin="round" stroke-width="1.276"/>
      <path id="Path_618" data-name="Path 618" d="M27.5,38.491v2.081a1.746,1.746,0,0,1-3.492,0V38.491" transform="translate(-0.416 -0.667)" fill="none" stroke="#fff" stroke-linecap="round" stroke-linejoin="round" stroke-width="1.276"/>
      <path id="Path_619" data-name="Path 619" d="M25.66,29.792a1.908,1.908,0,0,1-1.9,1.9l-1.982,0a1.623,1.623,0,0,0,0,3.246v.132a3.531,3.531,0,0,0,3.531,3.532h.733a3.531,3.531,0,0,0,3.531-3.532v-.131a1.624,1.624,0,0,0,0-3.249h-2a1.908,1.908,0,0,1-1.9-1.9v-.98" transform="translate(-0.35 -0.499)" fill="none" stroke="#fff" stroke-linecap="round" stroke-linejoin="round" stroke-width="1.276"/>
      <path id="Path_620" data-name="Path 620" d="M27.155,36A2.018,2.018,0,0,1,24.3,36" transform="translate(-0.421 -0.624)" fill="none" stroke="#fff" stroke-linecap="round" stroke-linejoin="round" stroke-width="1.276"/>
      <line id="Line_50" data-name="Line 50" x1="0.007" y2="3.956" transform="translate(20.132 45.417)" fill="none" stroke="#fff" stroke-linecap="round" stroke-linejoin="round" stroke-width="1.276"/>
      <line id="Line_51" data-name="Line 51" y2="3.956" transform="translate(30.515 45.417)" fill="none" stroke="#fff" stroke-linecap="round" stroke-linejoin="round" stroke-width="1.276"/>
      <path id="Path_621" data-name="Path 621" d="M18.519.638A22.014,22.014,0,0,0,13.492,3.3" transform="translate(-0.234 -0.011)" fill="none" stroke="#fff" stroke-linecap="round" stroke-linejoin="round" stroke-width="1.276"/>
      <path id="Path_622" data-name="Path 622" d="M44.416,8.669A22.7,22.7,0,0,0,34.056.638" transform="translate(-0.59 -0.011)" fill="none" stroke="#fff" stroke-linecap="round" stroke-linejoin="round" stroke-width="1.276"/>
      <path id="Path_623" data-name="Path 623" d="M25.348,21.353s5.282-2.862,5.282-6.311a2.75,2.75,0,0,0-5.282-1.072,2.75,2.75,0,0,0-5.282,1.072c0,3.449,5.282,6.311,5.282,6.311" transform="translate(-0.348 -0.213)" fill="#fff"/>
      <path id="Path_624" data-name="Path 624" d="M25.348,21.353s5.282-2.862,5.282-6.311a2.75,2.75,0,0,0-5.282-1.072,2.75,2.75,0,0,0-5.282,1.072C20.066,18.492,25.348,21.353,25.348,21.353Z" transform="translate(-0.348 -0.213)" fill="none" stroke="#fff" stroke-linecap="round" stroke-linejoin="round" stroke-width="1.276"/>
    </g>
  </g>
</svg>
