<svg xmlns="http://www.w3.org/2000/svg" width="50.023" height="50" viewBox="0 0 50.023 50">
  <g id="icon-gympass" transform="translate(0.012 6)">
    <rect id="grid-50x50" width="50" height="50" transform="translate(0 -6)" fill="#ffb919" opacity="0"/>
    <g id="icon">
      <path id="Path_478" data-name="Path 478" d="M49.38,13.584.637,13.623l0-4.564,48.743-.039Z" transform="translate(-0.011 -0.156)" fill="none" stroke="#fff" stroke-linecap="round" stroke-linejoin="round" stroke-width="1.276"/>
      <g id="color">
        <path id="Path_479" data-name="Path 479" d="M6.935,18.026h-.85a1.509,1.509,0,0,1-1.509-1.51L4.584,6A1.515,1.515,0,0,1,6.1,4.489h.85A1.509,1.509,0,0,1,8.457,6L8.448,16.514a1.515,1.515,0,0,1-1.512,1.512" transform="translate(-0.079 -0.078)" fill="#fff"/>
        <path id="Path_480" data-name="Path 480" d="M10.873,21.715h-.85a1.509,1.509,0,0,1-1.509-1.51l.014-18.03A1.514,1.514,0,0,1,10.04.663h.85a1.509,1.509,0,0,1,1.51,1.51L12.386,20.2a1.515,1.515,0,0,1-1.512,1.512" transform="translate(-0.147 -0.011)" fill="#fff"/>
        <path id="Path_481" data-name="Path 481" d="M43.867,18h.85a1.514,1.514,0,0,0,1.512-1.512l.009-10.516a1.509,1.509,0,0,0-1.51-1.509h-.85a1.514,1.514,0,0,0-1.512,1.512l-.008,10.516A1.507,1.507,0,0,0,43.867,18" transform="translate(-0.734 -0.077)" fill="#fff"/>
        <path id="Path_482" data-name="Path 482" d="M39.923,21.691h.85a1.514,1.514,0,0,0,1.512-1.512L42.3,2.147A1.51,1.51,0,0,0,40.79.637h-.85A1.515,1.515,0,0,0,38.428,2.15l-.014,18.031a1.507,1.507,0,0,0,1.509,1.509" transform="translate(-0.666 -0.011)" fill="#fff"/>
      </g>
      <path id="Path_483" data-name="Path 483" d="M6.935,18.026h-.85a1.509,1.509,0,0,1-1.509-1.51L4.584,6A1.515,1.515,0,0,1,6.1,4.489h.85A1.509,1.509,0,0,1,8.457,6L8.448,16.514A1.515,1.515,0,0,1,6.935,18.026Z" transform="translate(-0.079 -0.078)" fill="none" stroke="#fff" stroke-linecap="round" stroke-linejoin="round" stroke-width="1.276"/>
      <path id="Path_484" data-name="Path 484" d="M10.873,21.715h-.85a1.509,1.509,0,0,1-1.509-1.51l.014-18.03A1.514,1.514,0,0,1,10.04.663h.85a1.509,1.509,0,0,1,1.51,1.51L12.386,20.2A1.515,1.515,0,0,1,10.873,21.715Z" transform="translate(-0.147 -0.011)" fill="none" stroke="#fff" stroke-linecap="round" stroke-linejoin="round" stroke-width="1.276"/>
      <path id="Path_485" data-name="Path 485" d="M43.867,18h.85a1.514,1.514,0,0,0,1.512-1.512l.009-10.516a1.509,1.509,0,0,0-1.51-1.509h-.85a1.514,1.514,0,0,0-1.512,1.512l-.008,10.516A1.507,1.507,0,0,0,43.867,18Z" transform="translate(-0.734 -0.077)" fill="none" stroke="#fff" stroke-linecap="round" stroke-linejoin="round" stroke-width="1.276"/>
      <path id="Path_486" data-name="Path 486" d="M39.923,21.691h.85a1.514,1.514,0,0,0,1.512-1.512L42.3,2.147A1.51,1.51,0,0,0,40.79.637h-.85A1.515,1.515,0,0,0,38.428,2.15l-.014,18.031A1.507,1.507,0,0,0,39.923,21.691Z" transform="translate(-0.666 -0.011)" fill="none" stroke="#fff" stroke-linecap="round" stroke-linejoin="round" stroke-width="1.276"/>
      <path id="Path_487" data-name="Path 487" d="M32.548,13.679l-.006,7.165a.853.853,0,0,1-.1.422l-1.988,3.39a.847.847,0,0,0-.1.421l-.011,13.378L20.3,38.462l.011-13.378a.617.617,0,0,0-.165-.421l-3.17-3.386a.614.614,0,0,1-.166-.421l.006-6.548a.617.617,0,0,1,.616-.617l4.88,0a1.912,1.912,0,1,1,0,3.824l-2.231,0v1.593s5.21-.04,5.206,5.2" transform="translate(-0.291 -0.237)" fill="none" stroke="#fff" stroke-linecap="round" stroke-linejoin="round" stroke-width="1.276"/>
      <g id="color-2" data-name="color">
        <path id="Path_492" data-name="Path 492" d="M21.115,13.59H20.4a1.265,1.265,0,0,1-1.266-1.267l0-3.041a1.27,1.27,0,0,1,1.268-1.269h.713A1.264,1.264,0,0,1,22.386,9.28l0,3.042a1.269,1.269,0,0,1-1.268,1.268" transform="translate(-0.332 -0.139)" fill="#2d2d2d"/>
        <path id="Path_493" data-name="Path 493" d="M24.419,13.587h-.712a1.265,1.265,0,0,1-1.266-1.267l0-3.041a1.27,1.27,0,0,1,1.268-1.269h.713A1.264,1.264,0,0,1,25.69,9.277l0,3.042a1.269,1.269,0,0,1-1.268,1.268" transform="translate(-0.389 -0.139)" fill="#2d2d2d"/>
        <path id="Path_494" data-name="Path 494" d="M27.722,13.585H27.01a1.265,1.265,0,0,1-1.266-1.267l0-3.041a1.27,1.27,0,0,1,1.268-1.269h.713a1.264,1.264,0,0,1,1.266,1.266l0,3.042a1.269,1.269,0,0,1-1.268,1.268" transform="translate(-0.446 -0.139)" fill="#2d2d2d"/>
        <path id="Path_495" data-name="Path 495" d="M31.026,13.582h-.712a1.265,1.265,0,0,1-1.266-1.267l0-3.041a1.27,1.27,0,0,1,1.268-1.269h.713A1.264,1.264,0,0,1,32.3,9.272l0,3.042a1.269,1.269,0,0,1-1.268,1.268" transform="translate(-0.503 -0.139)" fill="#2d2d2d"/>
      </g>
      <path id="Path_496" data-name="Path 496" d="M21.115,13.59H20.4a1.265,1.265,0,0,1-1.266-1.267l0-3.041a1.27,1.27,0,0,1,1.268-1.269h.713A1.264,1.264,0,0,1,22.386,9.28l0,3.042A1.269,1.269,0,0,1,21.115,13.59Z" transform="translate(-0.332 -0.139)" fill="none" stroke="#fff" stroke-linecap="round" stroke-linejoin="round" stroke-width="1.276"/>
      <path id="Rectangle_237" data-name="Rectangle 237" d="M1.292,0h.666A1.288,1.288,0,0,1,3.246,1.288v3a1.29,1.29,0,0,1-1.29,1.29H1.287A1.287,1.287,0,0,1,0,4.289v-3A1.292,1.292,0,0,1,1.292,0Z" transform="translate(22.049 7.875) rotate(-0.079)" fill="none" stroke="#fff" stroke-linecap="round" stroke-linejoin="round" stroke-width="1.276"/>
      <path id="Rectangle_238" data-name="Rectangle 238" d="M1.292,0h.666A1.288,1.288,0,0,1,3.246,1.288v3a1.29,1.29,0,0,1-1.29,1.29H1.288A1.288,1.288,0,0,1,0,4.288v-3A1.292,1.292,0,0,1,1.292,0Z" transform="translate(25.295 7.872) rotate(-0.079)" fill="none" stroke="#fff" stroke-linecap="round" stroke-linejoin="round" stroke-width="1.276"/>
      <path id="Rectangle_239" data-name="Rectangle 239" d="M1.291,0h.667A1.288,1.288,0,0,1,3.246,1.288v3a1.29,1.29,0,0,1-1.29,1.29H1.288A1.288,1.288,0,0,1,0,4.288v-3A1.291,1.291,0,0,1,1.291,0Z" transform="translate(28.542 7.869) rotate(-0.079)" fill="none" stroke="#fff" stroke-linecap="round" stroke-linejoin="round" stroke-width="1.276"/>
    </g>
  </g>
</svg>
