<svg xmlns="http://www.w3.org/2000/svg" width="50.022" height="50.022" viewBox="0 0 50.022 50.022">
  <g id="icon-culture-and-leisure" transform="translate(0.011 0.011)">
    <rect id="grid-50x50" width="50" height="50" fill="#ffb919" opacity="0"/>
    <g id="icon" transform="translate(0 0)">
      <path id="Path_545" data-name="Path 545" d="M21.443,33.651h-.478a6.3,6.3,0,0,1-6.3-6.3V18.8h13.07v8.556a6.3,6.3,0,0,1-6.3,6.3" transform="translate(-0.254 -0.326)" fill="#fff"/>
      <path id="Path_546" data-name="Path 546" d="M21.443,33.651h-.478a6.3,6.3,0,0,1-6.3-6.3V18.8h13.07v8.556A6.3,6.3,0,0,1,21.443,33.651Z" transform="translate(-0.254 -0.326)" fill="none" stroke="#fff" stroke-linecap="round" stroke-linejoin="round" stroke-width="1.276"/>
      <path id="Path_547" data-name="Path 547" d="M20.169,24.722a1.718,1.718,0,0,0-3.2,0" transform="translate(-0.294 -0.409)" fill="none" stroke="#2d2d2d" stroke-linecap="round" stroke-linejoin="round" stroke-width="1.276"/>
      <path id="Path_548" data-name="Path 548" d="M25.616,24.722a1.718,1.718,0,0,0-3.2,0" transform="translate(-0.389 -0.409)" fill="none" stroke="#2d2d2d" stroke-linecap="round" stroke-linejoin="round" stroke-width="1.276"/>
      <path id="Path_549" data-name="Path 549" d="M24.964,28.124a3.981,3.981,0,0,1-7.42,0" transform="translate(-0.304 -0.487)" fill="none" stroke="#2d2d2d" stroke-linecap="round" stroke-linejoin="round" stroke-width="1.276"/>
      <path id="Path_550" data-name="Path 550" d="M34.112,18.474a1.718,1.718,0,0,1-3.2,0" transform="translate(-0.536 -0.32)" fill="none" stroke="#fff" stroke-linecap="round" stroke-linejoin="round" stroke-width="1.276"/>
      <path id="Path_551" data-name="Path 551" d="M29.629,28.5c.024,0,.047,0,.072,0a6.32,6.32,0,0,0,6.535-6.082v-8.77H23.165v3.368" transform="translate(-0.402 -0.236)" fill="none" stroke="#fff" stroke-linecap="round" stroke-linejoin="round" stroke-width="1.276"/>
      <path id="Path_552" data-name="Path 552" d="M33.526,25.509a3.879,3.879,0,0,0-3.7-2.537" transform="translate(-0.517 -0.398)" fill="none" stroke="#fff" stroke-linecap="round" stroke-linejoin="round" stroke-width="1.276"/>
      <path id="Path_553" data-name="Path 553" d="M47.772,21.3l-1.444,2.311A33.165,33.165,0,0,0,42.964,34.7h6.758V16.124a17.079,17.079,0,0,0-.532-4.235,34.262,34.262,0,0,1-1-8.8L35.747.637c0,13.037,12.025,20.667,12.025,20.667" transform="translate(-0.62 -0.011)" fill="none"/>
      <path id="Path_554" data-name="Path 554" d="M2.864,21.3l1.444,2.311A33.165,33.165,0,0,1,7.672,34.7H.914V16.124a17.079,17.079,0,0,1,.532-4.235,34.262,34.262,0,0,0,1-8.8L14.888.637C14.888,13.674,2.864,21.3,2.864,21.3" transform="translate(-0.016 -0.011)" fill="none"/>
      <path id="Path_555" data-name="Path 555" d="M9.157,42.046v-.879a2.689,2.689,0,0,0-2.689-2.689H4.16a2.689,2.689,0,0,0-2.689,2.689v.879Z" transform="translate(-0.025 -0.667)" fill="#fff"/>
      <path id="Path_556" data-name="Path 556" d="M29.216,42.046v-.879a2.689,2.689,0,0,0-2.689-2.689H24.219a2.689,2.689,0,0,0-2.689,2.689v.879Z" transform="translate(-0.373 -0.667)" fill="#fff"/>
      <path id="Path_557" data-name="Path 557" d="M23.788,50.148V48.212A3.513,3.513,0,0,0,20.275,44.7H17.257a3.512,3.512,0,0,0-3.513,3.513v1.936Z" transform="translate(-0.238 -0.775)" fill="#fff"/>
      <path id="Path_558" data-name="Path 558" d="M50.067,50.148V48.212A3.513,3.513,0,0,0,46.554,44.7H43.536a3.512,3.512,0,0,0-3.513,3.513v1.936Z" transform="translate(-0.694 -0.775)" fill="#fff"/>
      <path id="Path_559" data-name="Path 559" d="M15.2.638c0,13.037-12.025,20.667-12.025,20.667" transform="translate(-0.055 -0.011)" fill="none" stroke="#fff" stroke-linecap="round" stroke-linejoin="round" stroke-width="1.276"/>
      <path id="Path_560" data-name="Path 560" d="M2.724,3.133A33.4,33.4,0,0,1,1.19,13.815" transform="translate(-0.021 -0.054)" fill="none" stroke="#fff" stroke-linecap="round" stroke-linejoin="round" stroke-width="1.276"/>
      <path id="Path_561" data-name="Path 561" d="M.638,21.327H3.131s5.2-6.364,5.2-19.4" transform="translate(-0.011 -0.033)" fill="none" stroke="#fff" stroke-linecap="round" stroke-linejoin="round" stroke-width="1.276"/>
      <path id="Path_562" data-name="Path 562" d="M4.643,24.022A33.157,33.157,0,0,1,8.008,35.1" transform="translate(-0.08 -0.416)" fill="none" stroke="#fff" stroke-linecap="round" stroke-linejoin="round" stroke-width="1.276"/>
      <line id="Line_41" data-name="Line 41" y2="6.864" transform="translate(1.17 23.871)" fill="none" stroke="#fff" stroke-linecap="round" stroke-linejoin="round" stroke-width="1.276"/>
      <path id="Path_563" data-name="Path 563" d="M1.471,42.046v-.879A2.689,2.689,0,0,1,4.16,38.478H6.469a2.689,2.689,0,0,1,2.689,2.689v.879" transform="translate(-0.025 -0.667)" fill="none" stroke="#fff" stroke-linecap="square" stroke-linejoin="round" stroke-width="1.276"/>
      <path id="Path_564" data-name="Path 564" d="M11.5,42.046v-.879a2.689,2.689,0,0,1,2.689-2.689H16.5a2.689,2.689,0,0,1,2.689,2.689v.879" transform="translate(-0.199 -0.667)" fill="none" stroke="#fff" stroke-linecap="square" stroke-linejoin="round" stroke-width="1.276"/>
      <path id="Path_565" data-name="Path 565" d="M21.53,42.046v-.879a2.689,2.689,0,0,1,2.689-2.689h2.309a2.689,2.689,0,0,1,2.689,2.689v.879" transform="translate(-0.373 -0.667)" fill="none" stroke="#fff" stroke-linecap="square" stroke-linejoin="round" stroke-width="1.276"/>
      <path id="Path_566" data-name="Path 566" d="M.638,50.148V48.212A3.513,3.513,0,0,1,4.151,44.7H7.169a3.512,3.512,0,0,1,3.513,3.513v1.936" transform="translate(-0.011 -0.775)" fill="none" stroke="#fff" stroke-linecap="square" stroke-linejoin="round" stroke-width="1.276"/>
      <path id="Path_567" data-name="Path 567" d="M13.744,50.148V48.212A3.513,3.513,0,0,1,17.257,44.7h3.018a3.512,3.512,0,0,1,3.513,3.513v1.936" transform="translate(-0.238 -0.775)" fill="none" stroke="#fff" stroke-linecap="square" stroke-linejoin="round" stroke-width="1.276"/>
      <path id="Path_568" data-name="Path 568" d="M35.47.638c0,13.037,12.025,20.667,12.025,20.667" transform="translate(-0.615 -0.011)" fill="none" stroke="#fff" stroke-linecap="round" stroke-linejoin="round" stroke-width="1.276"/>
      <path id="Path_569" data-name="Path 569" d="M48.131,3.133a33.4,33.4,0,0,0,1.534,10.682" transform="translate(-0.834 -0.054)" fill="none" stroke="#fff" stroke-linecap="round" stroke-linejoin="round" stroke-width="1.276"/>
      <path id="Path_570" data-name="Path 570" d="M50.108,21.327H47.615s-5.2-6.364-5.2-19.4" transform="translate(-0.735 -0.033)" fill="none" stroke="#fff" stroke-linecap="round" stroke-linejoin="round" stroke-width="1.276"/>
      <path id="Path_571" data-name="Path 571" d="M46.18,24.022A33.157,33.157,0,0,0,42.815,35.1" transform="translate(-0.742 -0.416)" fill="none" stroke="#fff" stroke-linecap="round" stroke-linejoin="round" stroke-width="1.276"/>
      <line id="Line_42" data-name="Line 42" y2="6.864" transform="translate(48.83 23.871)" fill="none" stroke="#fff" stroke-linecap="round" stroke-linejoin="round" stroke-width="1.276"/>
      <path id="Path_572" data-name="Path 572" d="M49.275,42.046v-.879a2.689,2.689,0,0,0-2.689-2.689H44.278a2.689,2.689,0,0,0-2.689,2.689v.879" transform="translate(-0.721 -0.667)" fill="none" stroke="#fff" stroke-linecap="square" stroke-linejoin="round" stroke-width="1.276"/>
      <path id="Path_573" data-name="Path 573" d="M39.245,42.046v-.879a2.689,2.689,0,0,0-2.689-2.689H34.248a2.689,2.689,0,0,0-2.689,2.689v.879" transform="translate(-0.547 -0.667)" fill="none" stroke="#fff" stroke-linecap="square" stroke-linejoin="round" stroke-width="1.276"/>
      <path id="Path_574" data-name="Path 574" d="M50.067,50.148V48.212A3.513,3.513,0,0,0,46.554,44.7H43.536a3.512,3.512,0,0,0-3.513,3.513v1.936" transform="translate(-0.694 -0.775)" fill="none" stroke="#fff" stroke-linecap="square" stroke-linejoin="round" stroke-width="1.276"/>
      <path id="Path_575" data-name="Path 575" d="M36.961,50.148V48.212A3.513,3.513,0,0,0,33.448,44.7H30.43a3.512,3.512,0,0,0-3.513,3.513v1.936" transform="translate(-0.467 -0.775)" fill="none" stroke="#fff" stroke-linecap="square" stroke-linejoin="round" stroke-width="1.276"/>
    </g>
  </g>
</svg>
