<?xml version="1.0" encoding="UTF-8"?>
<svg width="16px" height="16px" viewBox="0 0 16 16" version="1.1" xmlns="http://www.w3.org/2000/svg" xmlns:xlink="http://www.w3.org/1999/xlink">
    <!-- Generator: sketchtool 64 (101010) - https://sketch.com -->
    <title>6222A925-B9A7-452C-81D2-ECAEA33BB6C2</title>
    <desc>Created with sketchtool.</desc>
    <g id="Pac-secundário" stroke="none" stroke-width="1" fill="none" fill-rule="evenodd">
        <g id="Instituto-Vedacit" transform="translate(-336.000000, -3288.000000)" fill="#000000" fill-rule="nonzero">
            <g id="Group-3" transform="translate(336.000000, 2736.000000)">
                <g id="Post-video-Copy-3" transform="translate(0.000000, 294.000000)">
                    <g id="Group-4" transform="translate(0.000000, 256.000000)">
                        <g id="calendar-(1)" transform="translate(0.000000, 2.000000)">
                            <path d="M14.166626,16 L1.83337403,16 C0.8220215,16 -8.8817842e-16,15.1779785 -8.8817842e-16,14.166626 L-8.8817842e-16,3.16662597 C-8.8817842e-16,2.15527344 0.8220215,1.33337403 1.83337403,1.33337403 L14.166626,1.33337403 C15.1779785,1.33337403 16,2.15527344 16,3.16662597 L16,14.166626 C16,15.1779785 15.1779785,16 14.166626,16 Z M1.83337403,2.33337403 C1.37402344,2.33337403 1,2.70727538 1,3.16662597 L1,14.166626 C1,14.6259766 1.37402344,15 1.83337403,15 L14.166626,15 C14.6259766,15 15,14.6259766 15,14.166626 L15,3.16662597 C15,2.70727538 14.6259766,2.33337403 14.166626,2.33337403 L1.83337403,2.33337403 Z" id="Shape"></path>
                            <path d="M15.5,6.33337403 L0.5,6.33337403 C0.223999031,6.33337403 0,6.109375 0,5.83337403 C0,5.55737306 0.223999031,5.33337403 0.5,5.33337403 L15.5,5.33337403 C15.776001,5.33337403 16,5.55737306 16,5.83337403 C16,6.109375 15.776001,6.33337403 15.5,6.33337403 Z" id="Path"></path>
                            <path d="M3.83337403,4 C3.55737306,4 3.33337403,3.77600097 3.33337403,3.5 L3.33337403,0.5 C3.33337403,0.223999031 3.55737306,0 3.83337403,0 C4.109375,0 4.33337403,0.223999031 4.33337403,0.5 L4.33337403,3.5 C4.33337403,3.77600097 4.109375,4 3.83337403,4 Z" id="Path"></path>
                            <path d="M12.166626,4 C11.890625,4 11.666626,3.77600097 11.666626,3.5 L11.666626,0.5 C11.666626,0.223999031 11.890625,0 12.166626,0 C12.4426269,0 12.666626,0.223999031 12.666626,0.5 L12.666626,3.5 C12.666626,3.77600097 12.4426269,4 12.166626,4 Z" id="Path"></path>
                        </g>
                    </g>
                </g>
            </g>
        </g>
    </g>
</svg>