<?xml version="1.0" encoding="UTF-8"?>
<svg width="48px" height="48px" viewBox="0 0 48 48" version="1.1" xmlns="http://www.w3.org/2000/svg" xmlns:xlink="http://www.w3.org/1999/xlink">
    <!-- Generator: sketchtool 64 (101010) - https://sketch.com -->
    <title>1C8E74A5-7018-4080-94C2-09A61D89BA1C</title>
    <desc>Created with sketchtool.</desc>
    <g id="Pac-secundário" stroke="none" stroke-width="1" fill="none" fill-rule="evenodd">
        <g id="Instituto-Vedacit" transform="translate(-1216.000000, -1617.000000)" fill="#000000" fill-rule="nonzero">
            <g id="Group-9-Copy" transform="translate(311.000000, 1386.000000)">
                <g id="Group-5">
                    <g id="Group-2-Copy-2" transform="translate(905.000000, 231.000000)">
                        <g id="ecology">
                            <path d="M20.7808,40 C20.5759,35.9997 18.3688,32.3721 14.9104,30.3512 L9.384,24.2112 C8.6407,23.369 7.4879,23.0148 6.4,23.2944 L6.4,12.8 C6.4,11.0327 4.9673,9.6 3.2,9.6 C1.4327,9.6 0,11.0327 0,12.8 L0,27.9416 C0.0008,29.1657 0.3127,30.3695 0.9064,31.44 L8,44.2072 L8,47.2 C8,47.6418 8.3582,48 8.8,48 L20,48 C20.4418,48 20.8,47.6418 20.8,47.2 L20.8,40 L20.7808,40 Z M19.2,46.4 L9.6,46.4 L9.6,44 C9.6,43.8639 9.5653,43.7301 9.4992,43.6112 L2.3048,30.6616 C1.8434,29.8292 1.6009,28.8933 1.6,27.9416 L1.6,12.8 C1.6,11.9163 2.3163,11.2 3.2,11.2 C4.0837,11.2 4.8,11.9163 4.8,12.8 L4.8,24.2824 C3.799,25.4457 3.822,27.1726 4.8536,28.3088 L11.408,35.52 L12.592,34.4432 L6.0376,27.2328 C5.5152,26.6582 5.5363,25.7745 6.0856,25.2256 C6.653,24.6577 7.5734,24.6573 8.1413,25.2248 C8.1598,25.2433 8.1777,25.2622 8.1952,25.2816 L13.8056,31.5152 C13.877,31.587 13.9577,31.6489 14.0456,31.6992 C17.2295,33.5235 19.1953,36.9105 19.2,40.58 L19.2,46.4 Z" id="Shape"></path>
                            <path d="M44.8,9.6 C43.0327,9.6 41.6,11.0327 41.6,12.8 L41.6,23.2944 C41.3407,23.2288 41.0739,23.1971 40.8064,23.2 C39.9678,23.2187 39.1746,23.5846 38.616,24.2104 L33.0912,30.3488 C29.6281,32.3663 27.4191,35.9971 27.2192,40 L27.2,40 L27.2,47.2 C27.2,47.6418 27.5582,48 28,48 L39.2,48 C39.6418,48 40,47.6418 40,47.2 L40,44.2056 L47.0056,31.508 C47.6563,30.4015 47.9996,29.1413 48,27.8576 L48,12.8 C48,11.0327 46.5673,9.6 44.8,9.6 Z M46.4,27.8576 C46.3988,28.8633 46.1281,29.8504 45.616,30.716 L38.496,43.6136 C38.4319,43.7323 38.3989,43.8652 38.4,44 L38.4,46.4 L28.8,46.4 L28.8,40.58 C28.8098,36.8962 30.7923,33.4999 33.9952,31.68 C34.0697,31.6377 34.137,31.5837 34.1944,31.52 L39.8048,25.28 C40.3436,24.6835 41.2639,24.6368 41.8604,25.1756 C42.4569,25.7144 42.5036,26.6347 41.9648,27.2312 L35.408,34.4416 L36.592,35.52 L43.1464,28.3104 C44.179,27.1739 44.2019,25.4459 43.2,24.2824 L43.2,12.8 C43.2,11.9163 43.9163,11.2 44.8,11.2 C45.6837,11.2 46.4,11.9163 46.4,12.8 L46.4,27.8576 Z" id="Shape"></path>
                            <path d="M33.6,20 L32,20 C29.1302,20.0031 26.4425,21.4067 24.8,23.76 L24.8,18.4 L25.6,18.4 C30.4577,18.3943 34.3943,14.4577 34.4,9.6 C34.4,9.1582 34.0418,8.8 33.6,8.8 L32,8.8 C29.1302,8.8031 26.4425,10.2067 24.8,12.56 L24.8,7.2 L25.6,7.2 C29.133,7.196 31.996,4.333 32,0.8 C32,0.3582 31.6418,0 31.2,0 L29.6,0 C27.2702,0.0014 25.1253,1.2688 24,3.3088 C22.8747,1.2688 20.7298,0.0014 18.4,0 L16.8,0 C16.3582,0 16,0.3582 16,0.8 C16.004,4.333 18.867,7.196 22.4,7.2 L23.2,7.2 L23.2,12.56 C21.5575,10.2067 18.8698,8.8031 16,8.8 L14.4,8.8 C13.9582,8.8 13.6,9.1582 13.6,9.6 C13.6057,14.4577 17.5423,18.3943 22.4,18.4 L23.2,18.4 L23.2,23.76 C21.5575,21.4067 18.8698,20.0031 16,20 L14.4,20 C13.9582,20 13.6,20.3582 13.6,20.8 C13.6057,25.6577 17.5423,29.5943 22.4,29.6 L23.2,29.6 L23.2,36 L24.8,36 L24.8,29.6 L25.6,29.6 C30.4577,29.5943 34.3943,25.6577 34.4,20.8 C34.4,20.3582 34.0418,20 33.6,20 Z M32,10.4 L32.756,10.4 C32.344,14.0421 29.2653,16.7956 25.6,16.8 L24.844,16.8 C25.256,13.1579 28.3347,10.4044 32,10.4 Z M29.6,1.6 L30.3336,1.6 C29.9401,3.908 27.9413,5.5971 25.6,5.6 L24.8664,5.6 C25.2599,3.292 27.2587,1.6029 29.6,1.6 Z M22.4,5.6 C20.0587,5.5971 18.0599,3.908 17.6664,1.6 L18.4,1.6 C20.7413,1.6029 22.7401,3.292 23.1336,5.6 L22.4,5.6 Z M22.4,16.8 C18.7347,16.7956 15.656,14.0421 15.244,10.4 L16,10.4 C19.6653,10.4044 22.744,13.1579 23.156,16.8 L22.4,16.8 Z M22.4,28 C18.7347,27.9956 15.656,25.2421 15.244,21.6 L16,21.6 C19.6653,21.6044 22.744,24.3579 23.156,28 L22.4,28 Z M25.6,28 L24.844,28 C25.256,24.3579 28.3347,21.6044 32,21.6 L32.756,21.6 C32.344,25.2421 29.2653,27.9956 25.6,28 Z" id="Shape"></path>
                        </g>
                    </g>
                </g>
            </g>
        </g>
    </g>
</svg>