<?xml version="1.0" encoding="UTF-8"?>
<svg width="48px" height="47px" viewBox="0 0 48 47" version="1.1" xmlns="http://www.w3.org/2000/svg" xmlns:xlink="http://www.w3.org/1999/xlink">
    <!-- Generator: sketchtool 64 (101010) - https://sketch.com -->
    <title>6DF18331-11BB-41E4-A838-A865728563C9</title>
    <desc>Created with sketchtool.</desc>
    <g id="Pac-secundário" stroke="none" stroke-width="1" fill="none" fill-rule="evenodd">
        <g id="Instituto-Vedacit" transform="translate(-336.000000, -1617.000000)" fill="#000000" fill-rule="nonzero">
            <g id="Group-9-Copy" transform="translate(311.000000, 1386.000000)">
                <g id="Group-5">
                    <g id="Group-2" transform="translate(25.000000, 231.000000)">
                        <g id="puzzle">
                            <path d="M47.296875,27.6234375 L39.6968437,27.6234375 C39.501375,27.6234375 39.3147187,27.7049063 39.1815937,27.8481563 C39.0485625,27.9914063 38.9811562,28.1835938 38.9956875,28.3785938 C39.0445312,29.0385938 39.3965625,29.6387813 39.9375,29.98425 C40.756125,30.5070938 41.231625,31.4354063 41.1780937,32.4064688 C41.1036563,33.7434375 39.9992812,34.8563438 38.6638125,34.9400625 C37.9090312,34.9875 37.1929687,34.7301563 36.6454687,34.2158438 C36.0972187,33.700875 35.7953437,33.0030938 35.7953437,32.2510313 C35.7953437,31.3328438 36.2578125,30.4874062 37.0339687,29.98875 C37.578,29.6371875 37.93275,29.0359688 37.9830937,28.380375 C37.9980937,28.1850938 37.9309687,27.9924375 37.7979375,27.8488125 C37.6648125,27.7050937 37.477875,27.6234375 37.2820312,27.6234375 L29.7245625,27.6234375 C29.3361562,27.6234375 29.0214375,27.93825 29.0214375,28.3265625 L29.0214375,34.5477188 C28.2467812,33.5929687 27.0891562,33.0349687 25.8439687,33.0349687 C24.717,33.0349687 23.6279062,33.5059688 22.8559687,34.3273125 C22.0726875,35.1606563 21.6804375,36.2509688 21.7515,37.3978125 C21.8811562,39.4663125 23.5401562,41.113125 25.61025,41.2281563 C26.9286562,41.302125 28.1979375,40.7327813 29.0213437,39.7215938 L29.0213437,45.8990625 C29.0213437,46.287375 29.3360625,46.6021875 29.7244687,46.6021875 L37.9864687,46.6021875 C38.374875,46.6021875 38.6895937,46.287375 38.6895937,45.8990625 C38.6895937,45.51075 38.374875,45.1959375 37.9864687,45.1959375 L30.4275937,45.1959375 L30.4275937,38.3469375 C30.4275937,38.1479063 30.3432187,37.9581563 30.195375,37.8248437 C30.0475312,37.6915312 29.8500937,37.6273125 29.6521875,37.6474688 C29.0110312,37.71375 28.4492812,38.0552813 28.111125,38.5845 C27.5874375,39.4035 26.6612812,39.87825 25.6885312,39.8241563 C24.3515625,39.7498125 23.23875,38.6453438 23.1550312,37.3103438 C23.1081562,36.5554687 23.365875,35.8380937 23.8805625,35.2905 C24.39525,34.7429062 25.0924687,34.4413125 25.843875,34.4413125 C26.7617812,34.4413125 27.6077812,34.9040625 28.1063437,35.6781563 C28.4479687,36.2104687 29.0108437,36.5545312 29.6506875,36.6219375 C29.8495312,36.6428437 30.0466875,36.578625 30.1949062,36.4453125 C30.3430312,36.312 30.4275937,36.1219687 30.4275937,35.9226562 L30.4275937,29.0296875 L35.958,29.0296875 C34.9689375,29.8030312 34.389,30.9810937 34.389,32.2510312 C34.389,33.3788437 34.8604687,34.4685 35.6826562,35.2408125 C36.5161875,36.023625 37.6051875,36.41475 38.75175,36.3435 C40.82025,36.21375 42.4669687,34.55475 42.5820937,32.4840937 C42.6561562,31.140375 42.0644062,29.8506562 41.0194687,29.0296875 L46.59375,29.0296875 L46.59375,41.284875 C46.59375,43.4414062 44.8393125,45.1958437 42.6827812,45.1958437 L40.7985,45.1958437 C40.4100938,45.1958437 40.095375,45.5106562 40.095375,45.8989687 C40.095375,46.2872812 40.4100938,46.6021875 40.7985,46.6021875 L42.6827812,46.6021875 C45.614625,46.6021875 48,44.2168125 48,41.284875 L48,28.3266563 C48,27.9383438 47.6852812,27.6234375 47.296875,27.6234375 Z" id="Shape"></path>
                            <path d="M14.3949375,24.4755 C15.3129375,24.4755 16.1588437,24.93825 16.6574063,25.7123438 C16.9990313,26.2446563 17.5619062,26.5887188 18.20175,26.656125 C18.3998437,26.6770312 18.59775,26.6128125 18.745875,26.4795 C18.894,26.3461875 18.9785625,26.1561562 18.9785625,25.9568438 L18.9785625,19.063875 L24.5090625,19.063875 C23.52,19.837125 22.9399688,21.0151875 22.9399688,22.2852187 C22.9399688,23.4130312 23.4114375,24.5026875 24.233625,25.2749062 C25.0021875,25.996875 25.9887188,26.386125 27.0360937,26.3860312 C27.1245937,26.3860312 27.2136562,26.3832188 27.3029062,26.3776875 C29.3714063,26.2479375 31.018125,24.5889375 31.1331562,22.5182813 C31.2072188,21.1744687 30.6155625,19.8848437 29.570625,19.063875 L35.8479375,19.063875 C36.2363437,19.063875 36.5510625,18.7490625 36.5510625,18.36075 L36.5510625,5.40253125 C36.5510625,2.47059375 34.1657812,0.0853125 31.2338437,0.0853125 L18.2755313,0.0853125 L9.89625,0.0853125 C9.5079375,0.0853125 9.193125,0.400125 9.193125,0.7884375 C9.193125,1.17675 9.5079375,1.4915625 9.89625,1.4915625 L17.5724063,1.4915625 L17.5724063,8.42971875 C17.5724063,8.62875 17.6567813,8.81840625 17.8045313,8.9518125 C17.952375,9.085125 18.1500938,9.149625 18.347625,9.1291875 C18.9887813,9.063 19.550625,8.72146875 19.8889688,8.19215625 C20.4125625,7.37334375 21.3414375,6.89840625 22.311375,6.9511875 C23.3976563,7.0115625 24.3360938,7.752375 24.6946875,8.74453125 C24.7084688,8.7826875 24.7214063,8.82121875 24.7335,8.860125 C24.7816875,9.01565625 24.8158125,9.17671875 24.8341875,9.3418125 C24.8387813,9.3830625 24.8424375,9.42459375 24.8450625,9.4663125 C24.8918438,10.2209063 24.634125,10.9380938 24.11925,11.485875 C23.6044688,12.0335625 22.90725,12.33525 22.1562188,12.33525 C21.2387812,12.33525 20.3927812,11.8720313 19.8930937,11.0960625 C19.5504375,10.5642188 18.98775,10.2205313 18.3493125,10.1532188 C18.2997188,10.1479688 18.2502188,10.1480625 18.2014688,10.1532188 C18.0552188,10.1686875 17.9162813,10.2299063 17.8051875,10.3298438 C17.6940938,10.429875 17.6187187,10.5616875 17.5879687,10.7055 C17.57775,10.7534063 17.5724063,10.802625 17.5724063,10.8525 L17.5724063,17.657625 L16.4704687,17.657625 C16.0821563,17.657625 15.7673438,17.9724375 15.7673438,18.36075 C15.7673438,18.7490625 16.0821563,19.063875 16.4704687,19.063875 L17.5724063,19.063875 L17.5724063,24.5818125 C16.79775,23.62725 15.6400312,23.0690625 14.3949375,23.0690625 C13.2679687,23.0690625 12.178875,23.5400625 11.4069375,24.3613125 C10.6236562,25.19475 10.2313125,26.2849688 10.3024687,27.4318125 C10.4322187,29.5004063 12.0912187,31.147125 14.1612188,31.2621563 C15.4809375,31.3363125 16.7488125,30.7666875 17.5723125,29.7555 L17.5723125,35.2298438 L5.31721875,35.2298438 C3.1606875,35.230125 1.40625,33.4756875 1.40625,31.3191563 L1.40625,19.0639688 L8.293875,19.0639688 C8.49675,19.0639688 8.6896875,18.9763125 8.8231875,18.8236875 C8.9566875,18.6710625 9.01771875,18.468 8.990625,18.267 C8.90803125,17.6540625 8.5700625,17.1163125 8.0625,16.7910938 C7.243875,16.2683438 6.76846875,15.3405938 6.82190625,14.3701875 C6.89625,13.0332188 8.00071875,11.9203125 9.33628125,11.8365938 C10.0904062,11.7886875 10.8074062,12.0465938 11.355,12.5609063 C11.9030625,13.0756875 12.2048438,13.7729063 12.2048438,14.524125 C12.2048438,15.4431563 11.7422813,16.2890625 10.9662187,16.7877188 C10.4580937,17.1159375 10.1176875,17.6537813 10.032375,18.2633438 C10.0041563,18.4648125 10.064625,18.6687188 10.1982188,18.8221875 C10.3317188,18.97575 10.5252188,19.063875 10.72875,19.063875 L13.65825,19.063875 C14.0465625,19.063875 14.361375,18.7490625 14.361375,18.36075 C14.361375,17.9724375 14.0465625,17.657625 13.65825,17.657625 L12.1521563,17.657625 C13.074,16.884375 13.6111875,15.7469063 13.6111875,14.524125 C13.6111875,13.3970625 13.1398125,12.307875 12.3179063,11.5358438 C11.4842813,10.7528438 10.3945313,10.3614375 9.2484375,10.4329688 C7.17984375,10.562625 5.533125,12.221625 5.418,14.292375 C5.34665625,15.58875 5.895375,16.8347813 6.87253125,17.657625 L1.40625,17.657625 L1.40625,5.40253125 C1.40625,3.246 3.1606875,1.4915625 5.31721875,1.4915625 L7.08384375,1.4915625 C7.47215625,1.4915625 7.78696875,1.17675 7.78696875,0.7884375 C7.78696875,0.400125 7.47215625,0.0853125 7.08384375,0.0853125 L5.31721875,0.0853125 C2.38528125,0.0853125 0,2.47059375 0,5.40253125 L0,18.3608438 L0,31.3191563 C0,34.2510938 2.38528125,36.636375 5.31721875,36.636375 L18.2755313,36.636375 C18.6638438,36.636375 18.9786563,36.3215625 18.9786563,35.93325 L18.9786563,28.381125 C18.9786563,28.1820938 18.8942812,27.9923438 18.7464375,27.8590313 C18.5985938,27.7257188 18.4011563,27.6614062 18.20325,27.6816563 C17.5620937,27.7479375 17.00025,28.0894688 16.6620938,28.6186875 C16.1385,29.4375938 15.2104688,29.9124375 14.2396875,29.8583438 C12.9027188,29.784 11.7898125,28.6795313 11.7060938,27.3445313 C11.6592188,26.5895625 11.9170313,25.8721875 12.4317188,25.3245938 C12.9464063,24.7770938 13.643625,24.4755 14.3949375,24.4755 Z M18.9786563,12.227625 C19.7536875,13.183125 20.9114063,13.7415938 22.156125,13.7415938 C23.2829062,13.7415938 24.3718125,13.2705 25.1438438,12.4490625 C25.9273125,11.6154375 26.3196562,10.5252188 26.2485,9.37884375 C26.1188438,7.3095 24.4598438,5.66221875 22.3890938,5.547 C21.069375,5.4751875 19.8017813,6.04425 18.9786563,7.0550625 L18.9786563,1.4915625 L31.2338438,1.4915625 C33.390375,1.4915625 35.1448125,3.246 35.1448125,5.40253125 L35.1448125,17.6577188 L28.2479062,17.6577188 C28.0524375,17.6577188 27.8657812,17.7390938 27.7326563,17.8823438 C27.599625,18.0255937 27.5322188,18.2177813 27.54675,18.4127813 C27.5955938,19.0727812 27.9477187,19.6729687 28.4886563,20.0184375 C29.3072813,20.5411875 29.7826875,21.4695 29.7291563,22.4406562 C29.6548125,23.777625 28.5504375,24.8905312 27.2149688,24.97425 C26.4609375,25.02225 25.7440313,24.7643437 25.1965313,24.2500312 C24.6482813,23.7350625 24.3464063,23.0372812 24.3464063,22.2853125 C24.3464063,21.367125 24.8089688,20.5216875 25.585125,20.0230312 C26.1290625,19.6714687 26.4838125,19.07025 26.5341563,18.4146562 C26.5491563,18.219375 26.4820313,18.0267187 26.349,17.8830937 C26.215875,17.739375 26.0289375,17.6577187 25.8330938,17.6577187 L18.9786563,17.6577187 L18.9786563,12.227625 L18.9786563,12.227625 Z" id="Shape"></path>
                        </g>
                    </g>
                </g>
            </g>
        </g>
    </g>
</svg>