<?xml version="1.0" encoding="UTF-8"?>
<svg width="24px" height="21px" viewBox="0 0 24 21" version="1.1" xmlns="http://www.w3.org/2000/svg" xmlns:xlink="http://www.w3.org/1999/xlink">
    <!-- Generator: sketchtool 60.1 (101010) - https://sketch.com -->
    <title>8A4BDEF4-CF7A-4B2D-A599-6787021C7B4B</title>
    <desc>Created with sketchtool.</desc>
    <g id="Symbols" stroke="none" stroke-width="1" fill="none" fill-rule="evenodd">
        <g id="Footer" transform="translate(-331.000000, -609.000000)" fill="#FFB919" fill-rule="nonzero">
            <g id="Bloco-1">
                <g transform="translate(295.000000, 56.000000)">
                    <path d="M60,555.434718 C59.1170816,555.848233 58.1682186,556.126487 57.1717295,556.254019 C58.1865362,555.608626 58.9705391,554.592228 59.3368954,553.378734 C58.384369,553.973887 57.329263,554.406726 56.2082123,554.638603 C55.3106396,553.629935 54.0320565,553 52.6142574,553 C49.8958934,553 47.6904291,555.326508 47.6904291,558.194063 C47.6904291,558.59985 47.7343918,558.997907 47.818654,559.376641 C43.7264537,559.160222 40.099527,557.08878 37.6705846,553.946835 C37.2456113,554.715896 37.0038167,555.608626 37.0038167,556.56319 C37.0038167,558.364107 37.8720808,559.952471 39.1946267,560.883846 C38.3849796,560.856795 37.6266219,560.624917 36.9635172,560.234588 C36.9635172,560.257777 36.9635172,560.2771 36.9635172,560.300288 C36.9635172,562.816162 38.659747,564.914656 40.9128375,565.39387 C40.4988551,565.513674 40.0665552,565.575508 39.6159367,565.575508 C39.2972065,565.575508 38.9894672,565.544591 38.6890555,565.482757 C39.3155241,567.542605 41.1326512,569.049811 43.2868261,569.088457 C41.6052515,570.483589 39.4803851,571.31062 37.1723401,571.31062 C36.773012,571.31062 36.3846739,571.287432 36,571.241056 C38.1761568,572.713481 40.7662949,573.571429 43.5469393,573.571429 C52.6032665,573.571429 57.5564034,565.656665 57.5564034,558.796946 C57.5564034,558.568933 57.5527401,558.344784 57.5417491,558.120636 C58.5052664,557.394086 59.3405587,556.478167 60,555.434718" id="Shape"></path>
                </g>
            </g>
        </g>
    </g>
</svg>