<?xml version="1.0" encoding="UTF-8"?>
<svg width="24px" height="17px" viewBox="0 0 24 17" version="1.1" xmlns="http://www.w3.org/2000/svg" xmlns:xlink="http://www.w3.org/1999/xlink">
    <!-- Generator: sketchtool 60.1 (101010) - https://sketch.com -->
    <title>F06AE7D5-36D2-42A0-AA7F-A19C11FD63B8</title>
    <desc>Created with sketchtool.</desc>
    <g id="Symbols" stroke="none" stroke-width="1" fill="none" fill-rule="evenodd">
        <g id="Footer" transform="translate(-427.000000, -611.000000)" fill="#FFB919" fill-rule="nonzero">
            <g id="Bloco-1">
                <g transform="translate(295.000000, 56.000000)">
                    <path d="M151.015508,555 L136.984492,555 C134.231631,555 132,557.207583 132,559.93078 L132,566.86922 C132,569.592417 134.231631,571.8 136.984492,571.8 L151.015508,571.8 C153.768369,571.8 156,569.592417 156,566.86922 L156,559.93078 C156,557.207583 153.768369,555 151.015508,555 Z M147.64453,563.73758 L141.081768,566.833892 C140.906896,566.916394 140.704901,566.790271 140.704901,566.598641 L140.704901,560.212483 C140.704901,560.018123 140.912206,559.892155 141.087442,559.980013 L147.650205,563.26986 C147.845328,563.367658 147.841944,563.644469 147.64453,563.73758 Z" id="Shape"></path>
                </g>
            </g>
        </g>
    </g>
</svg>