<?xml version="1.0" encoding="UTF-8"?>
<svg width="48px" height="48px" viewBox="0 0 48 48" version="1.1" xmlns="http://www.w3.org/2000/svg" xmlns:xlink="http://www.w3.org/1999/xlink">
    <!-- Generator: sketchtool 61.2 (101010) - https://sketch.com -->
    <title>42FE0E5F-CC40-48BF-A39E-7FF67093F0C9</title>
    <desc>Created with sketchtool.</desc>
    <g id="Pac-primário" stroke="none" stroke-width="1" fill="none" fill-rule="evenodd">
        <g id="Home-v2---areas-de-aplicação" transform="translate(-1292.000000, -1192.000000)" fill="#000000" fill-rule="nonzero">
            <g id="Group-8" transform="translate(336.000000, 740.000000)">
                <g id="Group-3" transform="translate(0.000000, 241.000000)">
                    <g id="4-copy" transform="translate(956.000000, 211.000000)">
                        <g id="armchair">
                            <path d="M47.802125,18.345 C47.214875,15.94525 45.189875,13.990875 42.764,13.483 C42.56375,13.441 42.364125,13.448375 42.1635,13.424375 C40.358625,5.599 33.479,0 25.335375,0 L22.6685,0 C14.526375,0 7.645625,5.600125 5.839875,13.424625 C4.563875,13.586375 3.34475,14.074375 2.34925,14.9205 C0.856875,16.190125 0,18.041625 0,20 C0,22.084625 1.00525,24.053375 2.666875,25.306 L2.666875,37.333375 C2.666875,39.299 3.74725,41 5.33375,41.925 L5.33375,44 C5.33375,46.20575 7.128125,48 9.334125,48 C11.540125,48 13.3345,46.20575 13.3345,44 L13.3345,42.666625 L34.669625,42.666625 L34.669625,44 C34.669625,46.20575 36.464,48 38.67,48 C40.876,48 42.670375,46.20575 42.670375,44 L42.670375,41.925 C44.256875,41 45.33725,39.299 45.33725,37.333375 L45.33725,25.307375 C47.46875,23.708375 48.451875,21.00525 47.802125,18.345 Z M22.666625,2.666625 L25.33325,2.666625 C32.085375,2.666625 37.802875,7.21925 39.468875,13.630875 C38.628375,13.875875 37.828125,14.25875 37.13275,14.822875 C35.565,16.09625 34.666625,17.983 34.666625,20 L34.666625,26.666625 L13.333375,26.666625 L13.333375,20.285125 C13.333375,17.168875 11.311875,14.453125 8.532375,13.6235 C10.199875,7.21675 15.917625,2.666625 22.666625,2.666625 Z M37.333375,30.666625 C37.333375,31.40225 36.73575,32 36,32 L12,32 C11.264375,32 10.666625,31.402375 10.666625,30.666625 C10.666625,29.931 11.26425,29.33325 12,29.33325 L36,29.33325 C36.735625,29.333375 37.333375,29.931 37.333375,30.666625 Z M10.666625,44 C10.666625,44.735625 10.069,45.333375 9.33325,45.333375 C8.597625,45.333375 8,44.735625 8,44 L8,42.666625 L10.666625,42.666625 L10.666625,44 Z M40,44 C40,44.735625 39.402375,45.333375 38.666625,45.333375 C37.931,45.333375 37.33325,44.73575 37.33325,44 L37.33325,42.666625 L40,42.666625 L40,44 Z M43.329375,23.441375 C42.91925,23.679625 42.666625,24.1185 42.666625,24.59375 L42.666625,37.333375 C42.666625,38.803375 41.47,40 40,40 L8,40 C6.53,40 5.333375,38.803375 5.333375,37.333375 L5.333375,24.59375 C5.333375,24.11975 5.08075,23.681 4.670625,23.441375 C3.415375,22.711 2.666625,21.4245 2.666625,20 C2.666625,18.8255 3.181,17.7135 4.07675,16.951875 C4.985625,16.178375 6.151,15.86075 7.347625,16.056 C9.2395,16.36325 10.666625,18.18225 10.666625,20.285125 L10.666625,26.91225 C9.118,27.4645 8,28.930625 8,30.666625 C8,32.872375 9.79425,34.666625 12,34.666625 L36,34.666625 C38.20575,34.666625 40,32.872375 40,30.666625 C40,28.930625 38.882,27.4645 37.333375,26.91225 L37.333375,20 C37.333375,18.789 37.8725,17.6575 38.813875,16.89325 C39.76825,16.1185 40.975375,15.833375 42.213625,16.0925 C43.656375,16.394625 44.8595,17.55475 45.207125,18.977875 C45.645875,20.770875 44.908875,22.522125 43.329375,23.441375 Z" id="Shape"></path>
                        </g>
                    </g>
                </g>
            </g>
        </g>
    </g>
</svg>