<?xml version="1.0" encoding="UTF-8"?>
<svg width="48px" height="48px" viewBox="0 0 48 48" version="1.1" xmlns="http://www.w3.org/2000/svg" xmlns:xlink="http://www.w3.org/1999/xlink">
    <!-- Generator: sketchtool 61 (101010) - https://sketch.com -->
    <title>8A0A3898-46A6-4229-9596-5FDBB37CFC51</title>
    <desc>Created with sketchtool.</desc>
    <g id="Pac-primário" stroke="none" stroke-width="1" fill="none" fill-rule="evenodd">
        <g id="Produto" transform="translate(-1400.000000, -826.000000)" fill="#000000" fill-rule="nonzero">
            <g id="Group-5" transform="translate(306.000000, 826.000000)">
                <g id="Group-4" transform="translate(454.000000, 0.000000)">
                    <g id="5-copy-3" transform="translate(640.000000, 0.000000)">
                        <g id="beam">
                            <path d="M48,5.59996875 L48,0.79996875 C48,0.78975 47.9945625,0.78121875 47.9941875,0.77109375 C47.9926875,0.67603125 47.9739375,0.58209375 47.9390625,0.4936875 L47.9378437,0.491625 C47.9348437,0.4843125 47.929125,0.47896875 47.9259375,0.47184375 C47.8902187,0.39384375 47.8419375,0.32221875 47.7830625,0.25978125 C47.7636562,0.240375 47.7433125,0.222 47.7220312,0.20475 C47.6715937,0.16040625 47.615625,0.122625 47.5555312,0.09253125 C47.5307812,0.079125 47.505375,0.06703125 47.4793125,0.0564375 C47.3903437,0.0208125 47.29575,0.0016875 47.1999375,0 L21.6,0 C21.3878437,0 21.1844062,0.084375 21.0344062,0.234375 L0.23465625,21.034125 L0.2334375,21.035625 C0.169125,21.1021875 0.117,21.1795312 0.07940625,21.2640937 C0.04265625,21.3557812 0.0193125,21.45225 0.0099375,21.5505937 C0.0088125,21.5678437 0,21.5824687 0,21.6 L0,26.4 C0,26.8418437 0.358125,27.1999687 0.79996875,27.1999687 L6.79996875,27.1999687 C8.78728125,27.202125 10.3978125,28.8126562 10.3999687,30.7999687 L10.3999687,31.66875 L0.23465625,41.8341562 C0.0855,41.9849062 0.0013125,42.1879687 0,42.4000312 L0,47.2000312 C0,47.641875 0.358125,48 0.79996875,48 L26.4,48 C26.5079062,48 26.6145937,47.9780625 26.7137812,47.9355 C26.7245625,47.9309062 26.73225,47.9209687 26.7428437,47.9159062 C26.8277812,47.8767187 26.9052187,47.8229062 26.9715937,47.7569062 L26.9792812,47.7515625 L42.965625,30.965625 L47.765625,26.165625 C47.915625,26.015625 48,25.8121875 48,25.6000312 L48,20.8000312 C48,20.7898125 47.9945625,20.7812812 47.9941875,20.7711562 C47.9926875,20.6760937 47.9739375,20.5821562 47.9390625,20.49375 L47.9378437,20.4916875 C47.9348437,20.484375 47.929125,20.4790312 47.9259375,20.4719062 C47.847375,20.3083125 47.71725,20.1750937 47.555625,20.0925937 C47.530875,20.0790937 47.5054687,20.0670937 47.4794062,20.0564062 C47.3904375,20.0207812 47.2958437,20.0016562 47.2000312,19.9999687 L41.2000312,19.9999687 C41.131875,20.0044687 41.0646562,20.0180625 41.0000625,20.040375 C40.9354687,20.0181562 40.86825,20.0045625 40.8000937,19.9999687 C38.9339062,19.99425 37.3828125,18.5607187 37.2304687,16.7007187 L47.7651562,6.166125 C47.9145,6.01546875 47.9987812,5.81221875 48,5.59996875 Z M21.9692308,1.38461538 L45.3066995,1.38461538 L26.1066995,20.5846154 L2.76923077,20.5846154 L21.9692308,1.38461538 Z M10.4379808,33.6923077 L10.4379808,37.7610577 C10.4358245,39.7483702 8.82529327,41.3589014 6.83798077,41.3610577 L2.76923077,41.3610577 L10.4379808,33.6923077 Z M25.3846154,46.1538462 L1.38461538,46.1538462 L1.38461538,42.9538774 L6.58464663,42.9538774 C9.45517788,42.9505962 11.7813029,40.6243774 11.7846779,37.7538462 L11.7846779,30.5538462 C11.7813966,27.6833149 9.45517788,25.3571899 6.58464663,25.3538149 L1.38461538,25.3538149 L1.38461538,22.1538462 L25.3846154,22.1538462 L25.3846154,25.3538149 L20.1845841,25.3538149 C17.3140529,25.3570962 14.9879279,27.6833149 14.9845529,30.5538462 L14.9845529,37.7538462 C14.9878341,40.6243774 17.3140529,42.9505024 20.1845841,42.9538774 L25.3846154,42.9538774 L25.3846154,46.1538462 L25.3846154,46.1538462 Z M46.430863,25.1528221 L41.8510817,29.7325096 L27.2307692,45.0838846 L27.2307692,42.6039159 L42.9964255,26.0497284 L46.430863,22.6153846 L46.430863,25.1528221 L46.430863,25.1528221 Z M40.6153846,21.5439375 C40.6835409,21.5394375 40.7507596,21.5258437 40.8153534,21.5035312 C40.8799471,21.52575 40.9471659,21.5393438 41.0153221,21.5439375 L45.0840721,21.5439375 L41.6356659,24.9923438 L25.8723534,41.5439063 L20.2153846,41.5439063 C18.2280721,41.54175 16.6175409,39.9312188 16.6153846,37.9439063 L16.6153846,30.7439063 C16.6175409,28.7565938 18.2280721,27.1460625 20.2153846,27.1439063 L26.2153846,27.1439063 C26.4275409,27.14325 26.6308846,27.0589688 26.7812596,26.90925 L35.6905096,18 C36.4029159,20.1148125 38.3838534,21.5402812 40.6153846,21.5439375 Z M46.4307692,5.30676202 L35.8654255,15.8721058 L35.8649567,15.8725745 L27.2307692,24.506762 L27.2307692,21.9692308 L46.4307692,2.76923077 L46.4307692,5.30676202 Z" id="Shape"></path>
                        </g>
                    </g>
                </g>
            </g>
        </g>
    </g>
</svg>