<?xml version="1.0" encoding="UTF-8"?>
<svg width="48px" height="48px" viewBox="0 0 48 48" version="1.1" xmlns="http://www.w3.org/2000/svg" xmlns:xlink="http://www.w3.org/1999/xlink">
    <!-- Generator: sketchtool 61 (101010) - https://sketch.com -->
    <title>6C0FB129-1F4B-4EDB-AB4A-138637B34953</title>
    <desc>Created with sketchtool.</desc>
    <g id="Pac-primário" stroke="none" stroke-width="1" fill="none" fill-rule="evenodd">
        <g id="Produto" transform="translate(-1804.000000, -826.000000)" fill="#000000" fill-rule="nonzero">
            <g id="Group-5" transform="translate(306.000000, 826.000000)">
                <g id="Group-4" transform="translate(454.000000, 0.000000)">
                    <g id="5-copy-5" transform="translate(1044.000000, 0.000000)">
                        <g id="brick-wall">
                            <path d="M47.25,9.65625 C47.6641846,9.65625 48,9.32043457 48,8.90625 C48,8.49206543 47.6641846,8.15625 47.25,8.15625 L36.75,8.15625 L36.75,3.65625 L47.25,3.65625 C47.6641846,3.65625 48,3.32043457 48,2.90625 C48,2.49206543 47.6641846,2.15625 47.25,2.15625 L42.75,2.15625 L42.75,0.75 C42.75,0.335792541 42.4142075,0 42,0 C41.5857925,0 41.25,0.335792541 41.25,0.75 L41.25,2.15625 L30.75,2.15625 L30.75,0.75 C30.75,0.335792541 30.4142075,0 30,0 C29.5857925,0 29.25,0.335792541 29.25,0.75 L29.25,2.15625 L18.75,2.15625 L18.75,0.75 C18.75,0.335792541 18.4142075,0 18,0 C17.5857925,0 17.25,0.335792541 17.25,0.75 L17.25,2.15625 L6.75,2.15625 L6.75,0.75 C6.75,0.335792541 6.41420746,0 6,0 C5.58579254,0 5.25,0.335792541 5.25,0.75 L5.25,2.15625 L0.75,2.15625 C0.335815425,2.15625 0,2.49206543 0,2.90625 C0,3.32043457 0.335815434,3.65625 0.75,3.65625 L11.25,3.65625 L11.25,8.15625 L0.75,8.15625 C0.335815425,8.15625 0,8.49206543 0,8.90625 C0,9.32043457 0.335815434,9.65625 0.75,9.65625 L5.25,9.65625 L5.25,14.15625 L0.75,14.15625 C0.335815425,14.15625 0,14.4920654 0,14.90625 C0,15.3204346 0.335815434,15.65625 0.75,15.65625 L11.25,15.65625 L11.25,20.15625 L0.75,20.15625 C0.335815425,20.15625 0,20.4920654 0,20.90625 C0,21.3204346 0.335815434,21.65625 0.75,21.65625 L5.25,21.65625 L5.25,26.15625 L0.75,26.15625 C0.335815425,26.15625 0,26.4920654 0,26.90625 C0,27.3204346 0.335815434,27.65625 0.75,27.65625 L11.25,27.65625 L11.25,32.15625 L0.75,32.15625 C0.335815425,32.15625 0,32.4920654 0,32.90625 C0,33.3204346 0.335815434,33.65625 0.75,33.65625 L5.25,33.65625 L5.25,38.15625 L0.75,38.15625 C0.335815425,38.15625 0,38.4920654 0,38.90625 C0,39.3204346 0.335815434,39.65625 0.75,39.65625 L11.25,39.65625 L11.25,44.15625 L0.75,44.15625 C0.335815425,44.15625 0,44.4920654 0,44.90625 C0,45.3204346 0.335815434,45.65625 0.75,45.65625 L5.25,45.65625 L5.25,47.15625 C5.25,47.5704575 5.58579254,47.90625 6,47.90625 C6.41420746,47.90625 6.75,47.5704575 6.75,47.15625 L6.75,45.65625 L17.25,45.65625 L17.25,47.15625 C17.25,47.5704575 17.5857925,47.90625 18,47.90625 C18.4142075,47.90625 18.75,47.5704575 18.75,47.15625 L18.75,45.65625 L29.25,45.65625 L29.25,47.15625 C29.25,47.5704575 29.5857925,47.90625 30,47.90625 C30.4142075,47.90625 30.75,47.5704575 30.75,47.15625 L30.75,45.65625 L41.25,45.65625 L41.25,47.15625 C41.25,47.5704575 41.5857925,47.90625 42,47.90625 C42.4142075,47.90625 42.75,47.5704575 42.75,47.15625 L42.75,45.65625 L47.25,45.65625 C47.6641846,45.65625 48,45.3204346 48,44.90625 C48,44.4920654 47.6641846,44.15625 47.25,44.15625 L36.75,44.15625 L36.75,39.65625 L47.25,39.65625 C47.6641846,39.65625 48,39.3204346 48,38.90625 C48,38.4920654 47.6641846,38.15625 47.25,38.15625 L42.75,38.15625 L42.75,33.65625 L47.25,33.65625 C47.6641846,33.65625 48,33.3204346 48,32.90625 C48,32.4920654 47.6641846,32.15625 47.25,32.15625 L36.75,32.15625 L36.75,27.65625 L47.25,27.65625 C47.6641846,27.65625 48,27.3204346 48,26.90625 C48,26.4920654 47.6641846,26.15625 47.25,26.15625 L42.75,26.15625 L42.75,21.65625 L47.25,21.65625 C47.6641846,21.65625 48,21.3204346 48,20.90625 C48,20.4920654 47.6641846,20.15625 47.25,20.15625 L36.75,20.15625 L36.75,15.65625 L47.25,15.65625 C47.6641846,15.65625 48,15.3204346 48,14.90625 C48,14.4920654 47.6641846,14.15625 47.25,14.15625 L42.75,14.15625 L42.75,9.65625 L47.25,9.65625 Z M35.25,8.15625 L24.75,8.15625 L24.75,3.65625 L35.25,3.65625 L35.25,8.15625 Z M18.75,14.15625 L18.75,9.65625 L29.25,9.65625 L29.25,14.15625 L18.75,14.15625 Z M12.75,3.65625 L23.25,3.65625 L23.25,8.15625 L12.75,8.15625 L12.75,3.65625 Z M6.75,9.65625 L17.25,9.65625 L17.25,14.15625 L6.75,14.15625 L6.75,9.65625 Z M12.75,15.65625 L23.25,15.65625 L23.25,20.15625 L12.75,20.15625 L12.75,15.65625 Z M18.75,26.15625 L18.75,21.65625 L29.25,21.65625 L29.25,26.15625 L18.75,26.15625 Z M6.75,21.65625 L17.25,21.65625 L17.25,26.15625 L6.75,26.15625 L6.75,21.65625 Z M12.75,27.65625 L23.25,27.65625 L23.25,32.15625 L12.75,32.15625 L12.75,27.65625 Z M18.75,38.15625 L18.75,33.65625 L29.25,33.65625 L29.25,38.15625 L18.75,38.15625 Z M6.75,33.65625 L17.25,33.65625 L17.25,38.15625 L6.75,38.15625 L6.75,33.65625 Z M12.75,39.65625 L23.25,39.65625 L23.25,44.15625 L12.75,44.15625 L12.75,39.65625 Z M35.25,44.15625 L24.75,44.15625 L24.75,39.65625 L35.25,39.65625 L35.25,44.15625 Z M41.25,38.15625 L30.75,38.15625 L30.75,33.65625 L41.25,33.65625 L41.25,38.15625 Z M35.25,32.15625 L24.75,32.15625 L24.75,27.65625 L35.25,27.65625 L35.25,32.15625 Z M41.25,26.15625 L30.75,26.15625 L30.75,21.65625 L41.25,21.65625 L41.25,26.15625 Z M35.25,20.15625 L24.75,20.15625 L24.75,15.65625 L35.25,15.65625 L35.25,20.15625 Z M41.25,14.15625 L30.75,14.15625 L30.75,9.65625 L41.25,9.65625 L41.25,14.15625 Z" id="Shape"></path>
                        </g>
                    </g>
                </g>
            </g>
        </g>
    </g>
</svg>