<?xml version="1.0" encoding="UTF-8"?>
<svg width="48px" height="48px" viewBox="0 0 48 48" version="1.1" xmlns="http://www.w3.org/2000/svg" xmlns:xlink="http://www.w3.org/1999/xlink">
    <!-- Generator: sketchtool 61.2 (101010) - https://sketch.com -->
    <title>DACDEE0D-4E30-4E86-9F5B-FC7317A6EE89</title>
    <desc>Created with sketchtool.</desc>
    <g id="Pac-primário" stroke="none" stroke-width="1" fill="none" fill-rule="evenodd">
        <g id="Home-v2---areas-de-aplicação" transform="translate(-972.000000, -1087.000000)" fill="#000000" fill-rule="nonzero">
            <g id="Group-8" transform="translate(336.000000, 740.000000)">
                <g id="Group-3" transform="translate(0.000000, 241.000000)">
                    <g id="5-copy-3" transform="translate(636.000000, 106.000000)">
                        <g id="doors-(1)">
                            <path d="M28.0001221,29.6000977 L29.6000977,29.6000977 C30.4837646,29.6000977 31.2000732,28.8837891 31.2000732,28.0001221 L31.2000732,19.9998779 C31.2000732,19.1162109 30.4837646,18.3999023 29.6000977,18.3999023 L28.0001221,18.3999023 C27.1164551,18.3999023 26.4001464,19.1162109 26.4001464,19.9998779 L26.4001464,28.0001221 C26.4001464,28.8837891 27.1164551,29.6000977 28.0001221,29.6000977 L28.0001221,29.6000977 Z M28.0001221,19.9998779 L29.6000977,19.9998779 L29.6000977,28.0001221 L28.0001221,28.0001221 L28.0001221,19.9998779 Z" id="Shape"></path>
                            <path d="M18.3999023,29.6000977 L19.9998779,29.6000977 C20.8835449,29.6000977 21.5998536,28.8837891 21.5998536,28.0001221 L21.5998536,19.9998779 C21.5998536,19.1162109 20.8835449,18.3999023 19.9998779,18.3999023 L18.3999023,18.3999023 C17.5162354,18.3999023 16.7999268,19.1162109 16.7999268,19.9998779 L16.7999268,28.0001221 C16.7999268,28.8837891 17.5162354,29.6000977 18.3999023,29.6000977 Z M18.3999023,19.9998779 L19.9998779,19.9998779 L19.9998779,28.0001221 L18.3999023,28.0001221 L18.3999023,19.9998779 Z" id="Shape"></path>
                            <path d="M47.1998291,46.4000244 L46.4000244,46.4000244 L46.4000244,2.40014644 C46.4000244,1.07446294 45.3255615,0 43.9998779,0 L4.00012209,0 C2.6744385,0 1.59997556,1.07446294 1.59997556,2.40014644 L1.59997556,46.4000244 L0.800170875,46.4000244 C0.35815425,46.4000244 0,46.7581787 0,47.1998291 C0,47.6418458 0.35815425,48 0.800170875,48 L47.1998291,48 C47.6418458,48 48,47.6418458 48,47.1998291 C48,46.7581787 47.6418457,46.4000244 47.1998291,46.4000244 Z M41.6000977,4.79992678 L41.6000977,45.7999268 L24.8001709,45.7999268 L24.8001709,4.79992678 L41.6000977,4.79992678 Z M23.1998291,45.7999268 L6.39990234,45.7999268 L6.39990234,4.79992678 L23.1998291,4.79992678 L23.1998291,45.7999268 Z M42.0688477,3.19995113 L5.93115234,3.19995113 L4.33117678,1.59997556 L43.6688232,1.59997556 L42.0688477,3.19995113 Z M3.19995112,2.73120113 L4.79992678,4.33117678 L4.79992678,46.4000244 L3.19995112,46.4000244 L3.19995112,2.73120113 Z M43.2000732,46.4000244 L43.2000732,4.33117678 L44.8000489,2.73120113 L44.8000489,46.4000244 L43.2000732,46.4000244 Z" id="Shape"></path>
                        </g>
                    </g>
                </g>
            </g>
        </g>
    </g>
</svg>