<?xml version="1.0" encoding="UTF-8"?>
<svg width="48px" height="48px" viewBox="0 0 48 48" version="1.1" xmlns="http://www.w3.org/2000/svg" xmlns:xlink="http://www.w3.org/1999/xlink">
    <!-- Generator: sketchtool 61.2 (101010) - https://sketch.com -->
    <title>FC750804-E5C7-4592-B4C4-F9A5F2F3337D</title>
    <desc>Created with sketchtool.</desc>
    <g id="Pac-primário" stroke="none" stroke-width="1" fill="none" fill-rule="evenodd">
        <g id="Home-v2---areas-de-aplicação" transform="translate(-654.000000, -1293.000000)" fill="#000000" fill-rule="nonzero">
            <g id="Group-8" transform="translate(336.000000, 740.000000)">
                <g id="Group-3" transform="translate(0.000000, 241.000000)">
                    <g id="5-copy-6" transform="translate(318.000000, 312.000000)">
                        <g id="drainage">
                            <path d="M40.970581,7.02941897 C36.4376221,2.49645994 30.4105224,0 24,0 C19.1220703,0 14.4257812,1.45642088 10.4187011,4.21142578 C9.99206541,4.505127 9.88403325,5.088501 10.1773682,5.51513672 C10.4707031,5.94213863 11.0544433,6.04980469 11.4810791,5.75683594 C15.1743164,3.21716306 19.5032959,1.875 24,1.875 C36.1995849,1.875 46.125,11.8004151 46.125,24 C46.125,36.1995849 36.1995849,46.125 24,46.125 C11.8000489,46.125 1.875,36.1995849 1.875,24 C1.875,19.5025635 3.21716306,15.1739502 5.75610356,11.4814453 C6.0494385,11.0548096 5.94140625,10.4714355 5.51477053,10.1781006 C5.08813481,9.88476562 4.50439453,9.99243169 4.21105959,10.4190674 C1.45642088,14.4254151 0,19.1217041 0,24 C0,30.4105224 2.49645994,36.4376221 7.02941897,40.970581 C11.5623779,45.5035401 17.5894776,48 24,48 C30.4105224,48 36.4376221,45.5035401 40.970581,40.970581 C45.5035401,36.4376221 48,30.4105224 48,24 C48,17.5894776 45.5035401,11.5623779 40.970581,7.02941897 Z" id="Path"></path>
                            <path d="M39.1362305,34.4611817 C39.5760498,34.7336426 40.1539307,34.5977783 40.4267578,34.1579589 C42.3145752,31.1114502 43.3125,27.5987549 43.3125,24 C43.3125,13.3509521 34.6486817,4.6875 24,4.6875 C13.3509521,4.6875 4.6875,13.3509521 4.6875,24 C4.6875,34.6490479 13.3509521,43.3125 24,43.3125 C27.5991211,43.3125 31.1114502,42.3145752 34.1572266,40.427124 C34.5974121,40.1542969 34.7332763,39.5764161 34.4604492,39.1362305 C34.1876221,38.6964112 33.6101074,38.5605469 33.1695557,38.833374 C30.4204102,40.5369873 27.2497558,41.4375 23.9996338,41.4375 C14.3847656,41.4375 6.5625,33.6152344 6.5625,24 C6.5625,14.3847656 14.3847656,6.5625 24,6.5625 C33.6148682,6.5625 41.4375,14.3847656 41.4375,24 C41.4375,27.2493896 40.5369873,30.4204102 38.8330078,33.1702881 C38.5601807,33.6104737 38.6960449,34.1883545 39.1362305,34.4611817 Z" id="Path"></path>
                            <path d="M24,19.3125 C21.4152833,19.3125 19.3125,21.4152833 19.3125,24 C19.3125,26.5847167 21.4152833,28.6875 24,28.6875 C26.5847167,28.6875 28.6875,26.5847167 28.6875,24 C28.6875,21.4152833 26.5847167,19.3125 24,19.3125 Z M24,21.1875 C25.2220459,21.1875 26.2642822,21.9711914 26.651001,23.0625 L21.3486328,23.0625 C21.7357177,21.9711914 22.7779541,21.1875 24,21.1875 L24,21.1875 Z M24,26.8125 C22.7779541,26.8125 21.7357177,26.0288086 21.3486328,24.9375 L26.651001,24.9375 C26.2642822,26.0288086 25.2220459,26.8125 24,26.8125 L24,26.8125 Z" id="Shape"></path>
                            <path d="M24,8.25 C21.4152833,8.25 19.3125,10.3527832 19.3125,12.9375 C19.3125,15.5222168 21.4152833,17.625 24,17.625 C26.5847167,17.625 28.6875,15.5222168 28.6875,12.9375 C28.6875,10.3527832 26.5847167,8.25 24,8.25 Z M24,15.75 C22.4490967,15.75 21.1875,14.4884033 21.1875,12.9375 C21.1875,11.3865967 22.4490967,10.125 24,10.125 C25.5505371,10.125 26.8125,11.3865967 26.8125,12.9375 C26.8125,14.4884033 25.5505371,15.75 24,15.75 Z" id="Shape"></path>
                            <path d="M16.7633057,14.4093018 C14.5246582,13.1169433 11.6524658,13.8867187 10.3601074,16.125 C9.067749,18.3632812 9.83752444,21.2358398 12.0758057,22.5281982 C12.7979737,22.9453125 13.5996094,23.158081 14.4118652,23.158081 C14.8190918,23.158081 15.229248,23.1046143 15.6328125,22.996582 C16.8420411,22.6724854 17.8531494,21.8968506 18.4790039,20.8125 C19.7713623,18.5742187 19.0015869,15.7016602 16.7633057,14.4093018 Z M16.8552246,19.875 C16.4798584,20.5253906 15.8730469,20.9908447 15.147583,21.1853027 C14.4217529,21.380127 13.6640625,21.2801513 13.0133057,20.904419 C11.6704102,20.1291504 11.2086182,18.4057617 11.9838867,17.0625 C12.5042724,16.1612549 13.4516602,15.6569824 14.4243164,15.6569824 C14.901123,15.6569824 15.3841552,15.7781982 15.8258057,16.033081 C17.1687011,16.8087158 17.6304932,18.5321045 16.8552246,19.875 Z" id="Shape"></path>
                            <path d="M15.6328125,25.003418 C14.4232177,24.6793213 13.1601562,24.845581 12.0758057,25.4718018 C9.83752444,26.7641602 9.067749,29.6367188 10.3601074,31.875 C11.2272949,33.3771973 12.8060302,34.2176513 14.4276123,34.2176513 C15.2222901,34.2176513 16.0272217,34.0158692 16.7633057,33.5906982 C19.0015869,32.2983398 19.7713623,29.4257812 18.4790039,27.1875 C17.8531494,26.1031494 16.8420411,25.3275146 15.6328125,25.003418 Z M15.8258057,31.966919 C14.4829102,32.7421875 12.7591552,32.2803955 11.9838867,30.9375 C11.2086182,29.5942383 11.6704102,27.8708496 13.0133057,27.095581 C13.4468994,26.8454589 13.9277344,26.7176513 14.4151612,26.7176513 C14.6594239,26.7176513 14.9051513,26.7495117 15.147583,26.8146973 C15.8730469,27.0091553 16.4798584,27.4742432 16.8552246,28.125 C17.6304932,29.4678955 17.1687011,31.1912842 15.8258057,31.966919 L15.8258057,31.966919 Z" id="Shape"></path>
                            <path d="M24,30.375 C21.4152833,30.375 19.3125,32.4777833 19.3125,35.0625 C19.3125,37.6472167 21.4152833,39.75 24,39.75 C26.5847167,39.75 28.6875,37.6472167 28.6875,35.0625 C28.6875,32.4777833 26.5847167,30.375 24,30.375 Z M24,37.875 C22.4490967,37.875 21.1875,36.6134033 21.1875,35.0625 C21.1875,33.5115967 22.4490967,32.25 24,32.25 C25.5505371,32.25 26.8125,33.5115967 26.8125,35.0625 C26.8125,36.6134033 25.5505371,37.875 24,37.875 Z" id="Shape"></path>
                            <path d="M35.9241943,25.4718018 C34.8398438,24.845581 33.5767823,24.6793213 32.3671875,25.003418 C31.1579589,25.3275146 30.1468506,26.1031494 29.5209961,27.1875 C28.2286377,29.4257813 28.9984131,32.2983398 31.2366943,33.5906982 C31.9731445,34.0158692 32.7777099,34.2176513 33.5727539,34.2176513 C35.1936036,34.2176513 36.7727051,33.376831 37.6398926,31.875 C38.932251,29.6367188 38.1624756,26.7641602 35.9241943,25.4718018 L35.9241943,25.4718018 Z M36.0161133,30.9375 C35.2404786,32.2803955 33.5170898,32.7421875 32.1741943,31.966919 C30.8312989,31.1916504 30.3691406,29.4678955 31.1447754,28.125 C31.5205078,27.4746094 32.1269531,27.0091553 32.852417,26.8146973 C33.0948487,26.7495117 33.3405761,26.7176513 33.5848388,26.7176513 C34.0722656,26.7176513 34.5534668,26.8454589 34.9866943,27.095581 C36.3295898,27.8708496 36.7913818,29.5942383 36.0161133,30.9375 Z" id="Shape"></path>
                            <path d="M37.6398926,16.125 C36.3475342,13.8867187 33.4749756,13.1169433 31.2366943,14.4093018 C28.9984131,15.7016602 28.2286377,18.5742187 29.5209961,20.8125 C30.1468506,21.8968506 31.1575927,22.6724854 32.3671875,22.996582 C32.770752,23.1046143 33.1809082,23.1584473 33.5877685,23.1584473 C34.4000244,23.1584473 35.2016602,22.9453125 35.9241943,22.5281982 C38.1624756,21.2358398 38.932251,18.3632812 37.6398926,16.125 L37.6398926,16.125 Z M34.9866943,20.904419 C34.3359375,21.2801513 33.5778808,21.3797607 32.852417,21.1853027 C32.1269531,20.9908447 31.5201416,20.5257568 31.1447754,19.875 C30.3691406,18.5321045 30.8309326,16.8083496 32.1741943,16.033081 C32.6158447,15.777832 33.0985107,15.6569824 33.5753174,15.6569824 C34.5479737,15.6569824 35.4957276,16.1612549 36.0157471,17.0625 C36.7913818,18.4057617 36.3295898,20.1291504 34.9866943,20.904419 Z" id="Shape"></path>
                            <path d="M7.69226072,8.62976072 C7.91857912,8.62976072 8.14562991,8.54846194 8.32580569,8.38330078 C8.70739744,8.03356931 8.73339844,7.44067387 8.38330078,7.05871584 C8.03356931,6.67749019 7.44067387,6.65148928 7.05871584,7.00122075 L7.05834956,7.00195312 C6.67675781,7.35168459 6.651123,7.94458012 7.00085447,8.32617188 C7.18579106,8.52758794 7.43847656,8.62976072 7.69226072,8.62976072 Z" id="Path"></path>
                            <path d="M36.3596192,36.302124 L36.3588867,36.3024902 C35.9772949,36.6522217 35.9516602,37.2451172 36.3017578,37.6267089 C36.4866943,37.8284912 36.7393799,37.9306641 36.9927979,37.9306641 C37.2194824,37.9306641 37.4465333,37.848999 37.6263427,37.6842041 C38.0083008,37.3344727 38.0339355,36.7412109 37.6842041,36.3596192 C37.3344727,35.9780273 36.7412109,35.9520263 36.3596192,36.302124 L36.3596192,36.302124 Z" id="Path"></path>
                        </g>
                    </g>
                </g>
            </g>
        </g>
    </g>
</svg>