<?xml version="1.0" encoding="UTF-8"?>
<svg width="48px" height="48px" viewBox="0 0 48 48" version="1.1" xmlns="http://www.w3.org/2000/svg" xmlns:xlink="http://www.w3.org/1999/xlink">
    <!-- Generator: sketchtool 51.3 (57544) - http://www.bohemiancoding.com/sketch -->
    <title>00140C85-75AA-4E38-BAE2-E30D857C8F24</title>
    <desc>Created with sketchtool.</desc>
    <defs></defs>
    <g id="Pac-primário" stroke="none" stroke-width="1" fill="none" fill-rule="evenodd">
        <g id="Home-v2" transform="translate(-336.000000, -1216.000000)" fill="#000000" fill-rule="nonzero">
            <g id="Group-17" transform="translate(306.000000, 740.000000)">
                <g id="5" transform="translate(30.000000, 476.000000)">
                    <g id="kitchen">
                        <path d="M46.7504762,9.6 L32.487619,9.6 C32.0500297,9.6 31.6952381,9.95479164 31.6952381,10.392381 L31.6952381,28.6171429 L14.2628571,28.6171429 L14.2628571,26.24 C14.2628571,25.8024107 13.9080655,25.447619 13.4704762,25.447619 L11.0933333,25.447619 L11.0933333,27.032381 L12.6780952,27.032381 L12.6780952,28.6171429 L9.50857143,28.6171429 L9.50857143,25.447619 L7.92380952,25.447619 L7.92380952,28.6171429 L4.75428571,28.6171429 L4.75428571,27.032381 L6.33904762,27.032381 L6.33904762,25.447619 L3.96190476,25.447619 C3.52431545,25.447619 3.16952381,25.8024107 3.16952381,26.24 L3.16952381,28.6171429 L0.792380952,28.6171429 C0.354791642,28.6171429 0,28.9719345 0,29.4095238 L0,46.8419048 C0,47.2794941 0.354791642,47.6342857 0.792380952,47.6342857 L46.7504762,47.6342857 C47.1880655,47.6342857 47.5428571,47.2794941 47.5428571,46.8419048 L47.5428571,10.392381 C47.5428571,9.95479164 47.1880655,9.6 46.7504762,9.6 Z M33.3714286,10.9714286 L46.0495238,10.9714286 L46.0495238,20.48 L33.3714286,20.48 L33.3714286,10.9714286 Z M31.6342857,33.3409524 L17.3714286,33.3409524 L17.3714286,30.1714286 L31.6342857,30.1714286 L31.6342857,33.3409524 Z M1.37142857,30.1714286 L15.6342857,30.1714286 L15.6342857,33.3409524 L1.37142857,33.3409524 L1.37142857,30.1714286 Z M1.37142857,34.7428571 L15.6342857,34.7428571 L15.6342857,45.8361905 L1.37142857,45.8361905 L1.37142857,34.7428571 Z M17.3714286,34.7428571 L23.7104762,34.7428571 L23.7104762,45.8361905 L17.3714286,45.8361905 L17.3714286,34.7428571 Z M25.1428571,34.7428571 L31.4819048,34.7428571 L31.4819048,45.8361905 L25.1428571,45.8361905 L25.1428571,34.7428571 Z M33.3714286,45.7142857 L33.3714286,21.9428571 L46.0495238,21.9428571 L46.0495238,45.7142857 L33.3714286,45.7142857 Z" id="Shape"></path>
                        <polygon id="Shape" points="34.7428571 14.1714286 36.327619 14.1714286 36.327619 17.3409524 34.7428571 17.3409524"></polygon>
                        <polygon id="Shape" points="34.7428571 25.1428571 36.327619 25.1428571 36.327619 28.312381 34.7428571 28.312381"></polygon>
                        <path d="M4.7847619,31.4209524 C4.7847619,31.8585417 4.42997026,32.2133333 3.99238095,32.2133333 C3.55479164,32.2133333 3.2,31.8585417 3.2,31.4209524 C3.2,30.9833631 3.55479164,30.6285714 3.99238095,30.6285714 C4.42997026,30.6285714 4.7847619,30.9833631 4.7847619,31.4209524 Z" id="Shape"></path>
                        <path d="M7.9847619,31.4209524 C7.9847619,31.8585417 7.62997026,32.2133333 7.19238095,32.2133333 C6.75479164,32.2133333 6.4,31.8585417 6.4,31.4209524 C6.4,30.9833631 6.75479164,30.6285714 7.19238095,30.6285714 C7.62997026,30.6285714 7.9847619,30.9833631 7.9847619,31.4209524 Z" id="Shape"></path>
                        <path d="M11.1847619,31.4209524 C11.1847619,31.8585417 10.8299703,32.2133333 10.392381,32.2133333 C9.95479164,32.2133333 9.6,31.8585417 9.6,31.4209524 C9.6,30.9833631 9.95479164,30.6285714 10.392381,30.6285714 C10.8299703,30.6285714 11.1847619,30.9833631 11.1847619,31.4209524 Z" id="Shape"></path>
                        <path d="M14.3847619,31.4209524 C14.3847619,31.8585417 14.0299703,32.2133333 13.592381,32.2133333 C13.1547916,32.2133333 12.8,31.8585417 12.8,31.4209524 C12.8,30.9833631 13.1547916,30.6285714 13.592381,30.6285714 C14.0299703,30.6285714 14.3847619,30.9833631 14.3847619,31.4209524 Z" id="Shape"></path>
                        <path d="M0.792380952,15.0552381 L16.64,15.0552381 C17.0775893,15.0552381 17.432381,14.7004465 17.432381,14.2628571 L17.432381,11.8857143 C17.432381,11.675625 17.3488095,11.4740476 17.2002381,11.3254762 L14.0307143,8.15595238 C13.8821429,8.00738095 13.6805655,7.92380952 13.4704762,7.92380952 L12.6780952,7.92380952 L12.6780952,0.792380952 C12.6780952,0.354791642 12.3233036,0 11.8857143,0 L5.54666667,0 C5.10907736,0 4.75428571,0.354791642 4.75428571,0.792380952 L4.75428571,7.92380952 L3.96190476,7.92380952 C3.75181545,7.92380952 3.5502381,8.00738095 3.40166667,8.15595238 L0.232142857,11.3254762 C0.0835714286,11.4740476 0,11.675625 0,11.8857143 L0,14.2628571 C0,14.7004465 0.354791642,15.0552381 0.792380952,15.0552381 Z M6.4,1.37142857 L11.1542857,1.37142857 L11.1542857,7.71047619 L6.4,7.71047619 L6.4,1.37142857 Z M1.37142857,12.3052381 L4.07666667,9.6 L12.9290476,9.6 L15.6342857,12.3052381 L15.6342857,13.5619048 L1.37142857,13.5619048 L1.37142857,12.3052381 Z" id="Shape"></path>
                        <path d="M13.5009524,36.1142857 L3.99238095,36.1142857 C3.55479164,36.1142857 3.2,36.4690774 3.2,36.9066667 L3.2,43.2457143 C3.2,43.6833036 3.55479164,44.0380952 3.99238095,44.0380952 L13.5009524,44.0380952 C13.9385417,44.0380952 14.2933333,43.6833036 14.2933333,43.2457143 L14.2933333,36.9066667 C14.2933333,36.4690774 13.9385417,36.1142857 13.5009524,36.1142857 Z M12.4952381,42.6971429 L4.57142857,42.6971429 L4.57142857,37.9428571 L12.4952381,37.9428571 L12.4952381,42.6971429 Z" id="Shape"></path>
                        <polygon id="Shape" points="22.8571429 30.6285714 26.0266667 30.6285714 26.0266667 32.2133333 22.8571429 32.2133333"></polygon>
                        <polygon id="Shape" points="20.5714286 38.8571429 22.1561905 38.8571429 22.1561905 42.0266667 20.5714286 42.0266667"></polygon>
                        <polygon id="Shape" points="26.9714286 38.8571429 28.5561905 38.8571429 28.5561905 42.0266667 26.9714286 42.0266667"></polygon>
                        <path d="M19.0780952,19.8095238 L23.832381,19.8095238 C24.2699703,19.8095238 24.6247619,19.4547322 24.6247619,19.0171429 L24.6247619,18.2247619 C24.6193452,16.7839286 23.6427977,15.5280358 22.247619,15.1678274 L22.247619,0 L20.6628571,0 L20.6628571,15.1678274 C19.2676785,15.5280358 18.291131,16.7839286 18.2857143,18.2247619 L18.2857143,19.0171429 C18.2857143,19.4547322 18.6405059,19.8095238 19.0780952,19.8095238 Z M21.2419048,16.4571429 C22.1170834,16.4571429 22.8266667,17.1667261 22.8266667,18.0419048 L19.6571429,18.0419048 C19.6571429,17.1667261 20.3667261,16.4571429 21.2419048,16.4571429 Z" id="Shape"></path>
                        <path d="M24.5638095,13.4704762 L29.3180952,13.4704762 C29.7556845,13.4704762 30.1104762,13.1156845 30.1104762,12.6780952 L30.1104762,11.8857143 C30.1050595,10.444881 29.128512,9.18898814 27.7333333,8.82877979 L27.7333333,0 L26.1485714,0 L26.1485714,8.82877979 C24.7533928,9.18898814 23.7768453,10.444881 23.7714286,11.8857143 L23.7714286,12.6780952 C23.7714286,13.1156845 24.1262202,13.4704762 24.5638095,13.4704762 Z M26.727619,10.0571429 C27.6027977,10.0571429 28.312381,10.7667261 28.312381,11.6419048 L25.1428571,11.6419048 C25.1428571,10.7667261 25.8524404,10.0571429 26.727619,10.0571429 Z" id="Shape"></path>
                    </g>
                </g>
            </g>
        </g>
    </g>
</svg>