<?xml version="1.0" encoding="UTF-8"?>
<svg width="48px" height="48px" viewBox="0 0 48 48" version="1.1" xmlns="http://www.w3.org/2000/svg" xmlns:xlink="http://www.w3.org/1999/xlink">
    <!-- Generator: sketchtool 61.2 (101010) - https://sketch.com -->
    <title>68F0E93E-1421-47DF-8905-1FF164B8F06B</title>
    <desc>Created with sketchtool.</desc>
    <g id="Pac-primário" stroke="none" stroke-width="1" fill="none" fill-rule="evenodd">
        <g id="Home-v2---areas-de-aplicação" transform="translate(-654.000000, -1085.000000)" fill="#000000" fill-rule="nonzero">
            <g id="Group-8" transform="translate(336.000000, 740.000000)">
                <g id="Group-3" transform="translate(0.000000, 241.000000)">
                    <g id="3" transform="translate(318.000000, 104.000000)">
                        <g id="leaf">
                            <path d="M46.4560547,15.3306885 C47.9824219,7.69958494 48,1.65966797 48,1.40625 C48,1.03344731 47.8520508,0.675659156 47.5880127,0.411987281 C47.3243408,0.148315406 46.966919,8.32667268e-17 46.59375,8.32667268e-17 C46.340332,8.32667268e-17 40.3004151,0.017578125 32.6693115,1.54394531 C29.9505615,2.08740234 27.3746338,2.75683594 24.963501,3.54199219 C24.9470214,3.54675291 24.9312744,3.55224609 24.9151612,3.55773928 C23.3543701,4.06750491 21.8624268,4.62597656 20.4484864,5.2316895 C18.7192383,5.97290044 17.1027832,6.78625491 15.604248,7.66772456 C15.5588379,7.69189453 15.5145263,7.71826172 15.4720459,7.74719241 C13.0678711,9.17431641 10.9691162,10.7779541 9.20324709,12.5438232 C5.69677734,16.050293 3.76574709,20.711792 3.76574709,25.6702881 C3.76574709,30.1571045 5.34704588,34.4007568 8.24560547,37.7655029 L0.411987281,45.5994873 C-0.137329125,46.1488037 -0.137329125,47.0390625 0.411987281,47.5880127 C0.686645531,47.8626709 1.04626463,48 1.40625,48 C1.76623538,48 2.12622075,47.8626709 2.40051272,47.5880127 L10.2344971,39.7543945 C13.598877,42.6525879 17.8425292,44.2338867 22.3293457,44.2338867 C27.288208,44.2338867 31.949707,42.3032227 35.4561768,38.7971192 C37.2224121,37.0308838 38.8256836,34.9317627 40.2528076,32.5275879 C40.2817383,32.4851074 40.3081055,32.4407959 40.3322754,32.3953857 C41.2137451,30.8964844 42.0270996,29.2803955 42.7679443,27.5515136 C43.3747558,26.1357422 43.9335937,24.6423339 44.4440917,23.0797119 C44.4484864,23.0665283 44.4528808,23.0529786 44.4569092,23.0397949 C45.2424317,20.6275635 45.9122315,18.0505371 46.4560547,15.3306885 L46.4560547,15.3306885 Z M33.166626,4.3125 C38.3917237,3.26367188 42.9287109,2.947998 45.1468506,2.85314944 C45.052002,5.07165525 44.7363281,9.60864262 43.6875,14.833374 C43.293457,16.7962646 42.7679443,18.977417 42.0732422,21.2310791 L28.7570801,21.2314453 L36.9375,13.0513916 C37.4864502,12.5020752 37.4864502,11.6114502 36.9375,11.0625 C36.3881836,10.5131836 35.4979248,10.5131836 34.9486084,11.0625 L26.7689209,19.2425537 L26.7689209,5.92675781 C29.022583,5.23205569 31.2037354,4.70654297 33.166626,4.3125 L33.166626,4.3125 Z M38.2668457,30.3303223 L19.6582031,30.3303223 L25.9445801,24.0439453 L41.1251221,24.0435791 C40.3439942,26.1665039 39.4024658,28.3007812 38.2668457,30.3303223 L38.2668457,30.3303223 Z M23.9564209,6.87487791 L23.9564209,22.0546875 L17.6696777,28.3410645 L17.6693115,9.73315425 C19.6992187,8.59753416 21.8331299,7.65600581 23.9564209,6.87487791 Z M6.57824709,25.6702881 C6.57824709,21.4632568 8.21667478,17.5078125 11.1917724,14.5327148 C12.3127442,13.4117432 13.5472412,12.4002685 14.8568115,11.4876709 L14.857544,31.1535645 L10.2418213,35.7696533 C7.87023928,32.9414063 6.57824709,29.4052734 6.57824709,25.6702881 L6.57824709,25.6702881 Z M33.4676513,36.8085938 C30.4925537,39.7833252 26.5367432,41.4213867 22.3293457,41.4213867 C18.5947266,41.4213867 15.0585937,40.1293945 12.2303467,37.7581787 L16.8457031,33.1428223 L36.5126953,33.1428223 C35.6000977,34.4527588 34.588623,35.6872558 33.4676513,36.8085938 L33.4676513,36.8085938 Z" id="Shape"></path>
                        </g>
                    </g>
                </g>
            </g>
        </g>
    </g>
</svg>