<?xml version="1.0" encoding="UTF-8"?>
<svg width="48px" height="48px" viewBox="0 0 48 48" version="1.1" xmlns="http://www.w3.org/2000/svg" xmlns:xlink="http://www.w3.org/1999/xlink">
    <!-- Generator: sketchtool 61.2 (101010) - https://sketch.com -->
    <title>8B890FCB-EB7B-481A-8474-CE8B6265E330</title>
    <desc>Created with sketchtool.</desc>
    <g id="Pac-primário" stroke="none" stroke-width="1" fill="none" fill-rule="evenodd">
        <g id="Home-v2---areas-de-aplicação" transform="translate(-654.000000, -1191.000000)" fill="#000000" fill-rule="nonzero">
            <g id="Group-8" transform="translate(336.000000, 740.000000)">
                <g id="Group-3" transform="translate(0.000000, 241.000000)">
                    <g id="2-copy" transform="translate(318.000000, 206.000000)">
                        <g id="parking" transform="translate(0.000000, 4.000000)">
                            <path d="M11.953125,2.953125 L8.203125,2.953125 C3.68005369,2.953125 0,6.63317869 0,11.15625 L0,42.09375 C0,44.0324708 1.57690425,45.609375 3.515625,45.609375 L16.640625,45.609375 C18.5793457,45.609375 20.15625,44.0324708 20.15625,42.09375 L20.15625,11.15625 C20.15625,6.63317869 16.4761963,2.953125 11.953125,2.953125 Z M7.43444822,4.40405269 C7.01330569,7.51245113 4.55932613,9.96643069 1.45092769,10.3875732 C1.80541987,7.25280759 4.29968259,4.75854488 7.43444822,4.40405269 Z M1.40625,22.78125 C1.40625,21.4995117 1.68603516,20.2818604 2.18737791,19.1861573 L4.03601072,21.8166504 C3.85437009,22.1279297 3.75,22.4893799 3.75,22.875 L3.75,33.1875 C3.75,33.5083008 3.82250981,33.8126221 3.95104978,34.085083 L1.80541988,37.1389161 C1.55456541,36.791748 1.40625,36.3662109 1.40625,35.90625 L1.40625,22.78125 Z M5.859375,35.296875 L14.296875,35.296875 C14.6184082,35.296875 14.9230957,35.2243652 15.1959229,35.0950927 L17.1958008,37.940918 C17.0189209,37.9892578 16.8328857,38.015625 16.640625,38.015625 L3.515625,38.015625 C3.32336428,38.015625 3.13732912,37.9892578 2.96044922,37.940918 L4.96032713,35.0950927 C5.23315425,35.2243652 5.53784175,35.296875 5.859375,35.296875 Z M5.15625,33.1875 L5.15625,22.875 C5.15625,22.4871826 5.47155759,22.171875 5.859375,22.171875 L14.296875,22.171875 C14.6846924,22.171875 15,22.4871826 15,22.875 L15,33.1875 C15,33.5753174 14.6846924,33.890625 14.296875,33.890625 L5.859375,33.890625 C5.47155759,33.890625 5.15625,33.5753174 5.15625,33.1875 Z M15.0439453,20.9025879 C14.8114013,20.814331 14.5598145,20.765625 14.296875,20.765625 L5.859375,20.765625 C5.5964355,20.765625 5.34484866,20.814331 5.11230469,20.9025879 L2.958252,17.8370362 C4.526001,15.5855713 7.13269041,14.109375 10.078125,14.109375 C13.0235596,14.109375 15.630249,15.5855713 17.197998,17.8370362 L15.0439453,20.9025879 Z M18.75,42.09375 C18.75,43.2568359 17.8037109,44.203125 16.640625,44.203125 L3.515625,44.203125 C2.35253906,44.203125 1.40625,43.2568359 1.40625,42.09375 L1.40625,38.716919 C1.99438481,39.1593018 2.72460938,39.421875 3.515625,39.421875 L16.640625,39.421875 C17.4316406,39.421875 18.1618652,39.1593018 18.75,38.716919 L18.75,42.09375 Z M18.75,35.90625 C18.75,36.3662109 18.6016846,36.791748 18.3508301,37.1385498 L16.2052002,34.085083 C16.3337402,33.8126221 16.40625,33.5083008 16.40625,33.1875 L16.40625,22.875 C16.40625,22.4893799 16.3018799,22.1279297 16.1202393,21.8166504 L17.9688721,19.1861573 C18.4702148,20.2818604 18.75,21.4995117 18.75,22.78125 L18.75,35.90625 Z M18.75,17.6520996 C16.9925537,14.6920166 13.7633057,12.703125 10.078125,12.703125 C6.39294431,12.703125 3.16369631,14.6920166 1.40625,17.6520996 L1.40625,11.8084717 C5.32873537,11.388794 8.43566897,8.28186037 8.85571294,4.359375 L11.5814209,4.359375 C11.7810058,6.21203616 12.5874023,7.94458012 13.8947754,9.29626462 C15.2025146,10.6486817 16.9072266,11.5125732 18.75,11.7733154 L18.75,17.6520996 Z M13.0100098,4.44213863 C15.9927979,4.90979006 18.3365479,7.32458494 18.6994629,10.340332 C15.7584229,9.80859375 13.4377442,7.40258794 13.0100098,4.44213863 Z" id="Shape"></path>
                            <path d="M39.796875,2.953125 L36.046875,2.953125 C31.5238037,2.953125 27.84375,6.63317869 27.84375,11.15625 L27.84375,42.09375 C27.84375,44.0324708 29.4206542,45.609375 31.359375,45.609375 L44.484375,45.609375 C46.4230958,45.609375 48,44.0324708 48,42.09375 L48,11.15625 C48,6.63317869 44.3199463,2.953125 39.796875,2.953125 Z M46.5432129,10.340332 C43.6021729,9.80859375 41.2814942,7.40258794 40.8537598,4.44213863 C43.8365479,4.90979006 46.1802979,7.32458494 46.5432129,10.340332 Z M35.2781982,4.40405269 C34.8570557,7.51245113 32.4030761,9.96643069 29.2946777,10.3875732 C29.6491699,7.25280759 32.1434326,4.75854488 35.2781982,4.40405269 Z M29.25,22.78125 C29.25,21.4995117 29.5297852,20.2818604 30.0311279,19.1861573 L31.8797607,21.8166504 C31.6981201,22.1279297 31.59375,22.4893799 31.59375,22.875 L31.59375,33.1875 C31.59375,33.5083008 31.6662598,33.8126221 31.7947998,34.085083 L29.6491699,37.1389161 C29.3983154,36.791748 29.25,36.3662109 29.25,35.90625 L29.25,22.78125 Z M33.703125,35.296875 L42.140625,35.296875 C42.4621583,35.296875 42.7668458,35.2243652 43.0396729,35.0950927 L45.0395508,37.940918 C44.8626709,37.9892578 44.6766357,38.015625 44.484375,38.015625 L31.359375,38.015625 C31.1671143,38.015625 30.9810791,37.9892578 30.8041992,37.940918 L32.8040771,35.0950927 C33.0769042,35.2243652 33.3815917,35.296875 33.703125,35.296875 Z M33,33.1875 L33,22.875 C33,22.4871826 33.3153076,22.171875 33.703125,22.171875 L42.140625,22.171875 C42.5284424,22.171875 42.84375,22.4871826 42.84375,22.875 L42.84375,33.1875 C42.84375,33.5753174 42.5284424,33.890625 42.140625,33.890625 L33.703125,33.890625 C33.3153076,33.890625 33,33.5753174 33,33.1875 Z M42.8876953,20.9025879 C42.6551513,20.814331 42.4035645,20.765625 42.140625,20.765625 L33.703125,20.765625 C33.4401855,20.765625 33.1885987,20.814331 32.9560547,20.9025879 L30.802002,17.8370362 C32.369751,15.5855713 34.9764404,14.109375 37.921875,14.109375 C40.8673096,14.109375 43.473999,15.5855713 45.041748,17.8370362 L42.8876953,20.9025879 Z M46.59375,42.09375 C46.59375,43.2568359 45.6474609,44.203125 44.484375,44.203125 L31.359375,44.203125 C30.1962891,44.203125 29.25,43.2568359 29.25,42.09375 L29.25,38.716919 C29.8381348,39.1593018 30.5683594,39.421875 31.359375,39.421875 L44.484375,39.421875 C45.2753906,39.421875 46.0056152,39.1593018 46.59375,38.716919 L46.59375,42.09375 Z M46.59375,35.90625 C46.59375,36.3662109 46.4454346,36.791748 46.1945801,37.1385498 L44.0489502,34.085083 C44.1774902,33.8126221 44.25,33.5083008 44.25,33.1875 L44.25,22.875 C44.25,22.4893799 44.1456299,22.1279297 43.9639893,21.8166504 L45.8126221,19.1861573 C46.3139648,20.2818604 46.59375,21.4995117 46.59375,22.78125 L46.59375,35.90625 Z M46.59375,17.6520996 C44.8363037,14.6920166 41.6070557,12.703125 37.921875,12.703125 C34.2366943,12.703125 31.0074463,14.6920166 29.25,17.6520996 L29.25,11.8084717 C33.1724854,11.388794 36.279419,8.28186037 36.6994629,4.359375 L39.4251709,4.359375 C39.6247558,6.21203616 40.4311523,7.94458012 41.7385254,9.29626462 C43.0462646,10.6486817 44.7509766,11.5125732 46.59375,11.7733154 L46.59375,17.6520996 Z" id="Shape"></path>
                            <polygon id="Path" points="23.34375 46.59375 24.75 46.59375 24.75 48 23.34375 48"></polygon>
                            <polygon id="Path" points="23.34375 2.8125 24.75 2.8125 24.75 45.1875 23.34375 45.1875"></polygon>
                            <polygon id="Path" points="23.34375 0 24.75 0 24.75 1.40625 23.34375 1.40625"></polygon>
                            <polygon id="Path" points="2.765625 41.390625 4.171875 41.390625 4.171875 42.796875 2.765625 42.796875"></polygon>
                            <polygon id="Path" points="15.984375 41.390625 17.390625 41.390625 17.390625 42.796875 15.984375 42.796875"></polygon>
                            <polygon id="Path" points="30.796875 41.390625 32.203125 41.390625 32.203125 42.796875 30.796875 42.796875"></polygon>
                            <polygon id="Path" points="44.015625 41.390625 45.421875 41.390625 45.421875 42.796875 44.015625 42.796875"></polygon>
                        </g>
                    </g>
                </g>
            </g>
        </g>
    </g>
</svg>