<?xml version="1.0" encoding="UTF-8"?>
<svg width="48px" height="48px" viewBox="0 0 48 48" version="1.1" xmlns="http://www.w3.org/2000/svg" xmlns:xlink="http://www.w3.org/1999/xlink">
    <!-- Generator: sketchtool 61.2 (101010) - https://sketch.com -->
    <title>46CDB3D8-647D-4FFA-8B78-35C70991F3ED</title>
    <desc>Created with sketchtool.</desc>
    <g id="Pac-primário" stroke="none" stroke-width="1" fill="none" fill-rule="evenodd">
        <g id="Home-v2---areas-de-aplicação" transform="translate(-972.000000, -985.000000)" fill="#000000" fill-rule="nonzero">
            <g id="Group-8" transform="translate(336.000000, 740.000000)">
                <g id="Group-3" transform="translate(0.000000, 241.000000)">
                    <g id="4" transform="translate(636.000000, 4.000000)">
                        <g id="parquet">
                            <path d="M47.0097021,47.860766 L0.85106383,47.860766 C0.38093617,47.860766 0,47.4798298 0,47.0097021 L0,0.85106383 C0,0.38093617 0.38093617,0 0.85106383,0 L47.0097021,0 C47.4798298,0 47.860766,0.38093617 47.860766,0.85106383 L47.860766,47.0097021 C47.860766,47.4798298 47.4798298,47.860766 47.0097021,47.860766 Z M36,45.9122488 L46.3737872,45.9122488 L46.3737872,35.5384615 L36.7513191,45.1609296 C36.7499574,45.1622913 36.7485957,45.1639935 36.7468936,45.1653552 C36.7455319,45.1667169 36.7438298,45.168419 36.7424681,45.1697807 L36,45.9122488 Z M22.6153846,46.0001309 L33.4565761,46.0001309 L34.8053421,44.651365 L29.3847463,39.2307692 L22.6153846,46.0001309 Z M10.1538462,46.0840327 L20.1153781,46.0840327 L34.9109525,31.2884583 L29.9301866,26.3076923 L14.2198887,42.0179902 L14.2198887,42.0179902 L10.1538462,46.0840327 Z M1.84615385,45.8975319 L7.90504746,45.8975319 L12.5729624,41.229617 L7.34334534,36 L1.84615385,41.4971915 L1.84615385,45.8975319 Z M30.4615385,38.2640655 L35.8821342,43.6846612 L46.1105597,33.4562357 L46.1105597,22.6153846 L36.6824746,32.0434697 L36.6824746,32.0434697 L30.4615385,38.2640655 Z M8.30769231,34.8706776 L13.5369689,40.1002946 L39.6384157,13.9988478 L34.4087987,8.76923077 L24.1759476,19.0024223 C24.1749264,19.0031031 24.1742455,19.003784 24.1735646,19.0044648 L8.30769231,34.8706776 Z M1.84615385,27.8490344 L1.84615385,39.2818854 L6.73262193,34.3950769 C6.73568576,34.3923535 6.73840917,34.3892897 6.74113257,34.3865663 C6.74385597,34.3835025 6.7469198,34.3807791 6.74964321,34.3780556 L22.6073453,18.5200131 L17.0104092,12.9230769 L1.84615385,27.8490344 Z M30.9230769,25.1645696 L35.9038429,30.1453355 L45.9089493,20.1405696 C45.9171195,20.1323993 45.9256301,20.1242291 45.9338003,20.1163993 L45.9338003,10.1538462 L30.9230769,25.1645696 Z M1.84615385,13.8313322 L1.84615385,25.3326088 L8.58589853,18.6987365 L2.81057938,12.9230769 L1.84615385,13.8313322 Z M3.69230769,12.039856 L9.44141408,17.7889624 L25.6388609,1.84615385 L14.5147758,1.84615385 L3.69230769,12.039856 Z M18,11.480275 L23.5877447,17.0680196 L39.2714894,1.38461538 L28.2570213,1.38461538 L18,11.480275 Z M35.5384615,7.43499836 L40.7680786,12.6646154 L45.9895254,7.44316858 L45.9895254,1.38461538 L41.5888445,1.38461538 L35.5384615,7.43499836 Z M1.84615385,1.38461538 L1.84615385,11.3727005 L2.16445172,11.073126 C2.18249427,11.0513388 2.20121768,11.0305728 2.22164321,11.0101473 C2.25432406,10.9774664 2.28904746,10.9478494 2.325473,10.9216367 L12.4497283,1.38461538 L1.84615385,1.38461538 Z" id="Shape"></path>
                        </g>
                    </g>
                </g>
            </g>
        </g>
    </g>
</svg>