<?xml version="1.0" encoding="UTF-8"?>
<svg width="46px" height="48px" viewBox="0 0 46 48" version="1.1" xmlns="http://www.w3.org/2000/svg" xmlns:xlink="http://www.w3.org/1999/xlink">
    <!-- Generator: sketchtool 61.2 (101010) - https://sketch.com -->
    <title>9D347FA8-9D62-4C4C-8EAD-CA73435E85B2</title>
    <desc>Created with sketchtool.</desc>
    <g id="Pac-primário" stroke="none" stroke-width="1" fill="none" fill-rule="evenodd">
        <g id="Home-v2---areas-de-aplicação" transform="translate(-337.000000, -1191.000000)" fill="#000000" fill-rule="nonzero">
            <g id="Group-8" transform="translate(336.000000, 740.000000)">
                <g id="Group-3" transform="translate(0.000000, 241.000000)">
                    <g id="1-copy" transform="translate(0.000000, 210.000000)">
                        <g id="group">
                            <path d="M46,38 L45,38 L45,28 L46,28 C46.552,28 47,27.552 47,27 C47,26.448 46.552,26 46,26 L45,26 L45,15.914 L45.908,15.996 C45.94,16 45.97,16 46,16 C46.512,16 46.948,15.61 46.998,15.09 C47.048,14.54 46.642,14.054 46.092,14.004 L45,13.906 L45,12 L46,12 C46.404,12 46.77,11.756 46.922,11.382 C47.078,11.008 46.992,10.578 46.706,10.292 L44.706,8.292 C44.316,7.902 43.682,7.902 43.292,8.292 L41.292,10.292 C41.006,10.578 40.92,11.008 41.076,11.382 C41.23,11.756 41.596,12 42,12 L43,12 L43,13.726 L35,13.004 L35,8 L36,8 C36.404,8 36.77,7.756 36.922,7.382 C37.078,7.008 36.992,6.578 36.706,6.292 L34.706,4.292 C34.316,3.902 33.682,3.902 33.292,4.292 L31.292,6.292 C31.006,6.578 30.92,7.008 31.076,7.382 C31.23,7.756 31.596,8 32,8 L33,8 L33,12.824 L25,12.102 L25,4 L26,4 C26.404,4 26.77,3.756 26.922,3.382 C27.078,3.008 26.992,2.578 26.706,2.292 L24.706,0.292 C24.316,-0.098 23.682,-0.098 23.292,0.292 L21.292,2.292 C21.006,2.578 20.92,3.008 21.076,3.382 C21.23,3.756 21.596,4 22,4 L23,4 L23,12.086 L15,12.814 L15,8 L16,8 C16.404,8 16.77,7.756 16.922,7.382 C17.078,7.008 16.992,6.578 16.706,6.292 L14.706,4.292 C14.316,3.902 13.682,3.902 13.292,4.292 L11.292,6.292 C11.006,6.578 10.92,7.008 11.076,7.382 C11.23,7.756 11.596,8 12,8 L13,8 L13,12.996 L5,13.724 L5,12 L6,12 C6.404,12 6.77,11.756 6.922,11.382 C7.078,11.008 6.992,10.578 6.706,10.292 L4.706,8.292 C4.316,7.902 3.682,7.902 3.292,8.292 L1.292,10.292 C1.006,10.578 0.92,11.008 1.076,11.382 C1.23,11.756 1.596,12 2,12 L3,12 L3,13.904 L1.91,14.004 C1.36,14.052 0.954,14.54 1.004,15.09 C1.054,15.64 1.528,16.046 2.09,15.996 L3,15.912 L3,26 L2,26 C1.448,26 1,26.448 1,27 C1,27.552 1.448,28 2,28 L3,28 L3,38 L2,38 C1.448,38 1,38.448 1,39 C1,39.552 1.448,40 2,40 L3,40 L3,47 C3,47.552 3.448,48 4,48 C4.552,48 5,47.552 5,47 L5,40 L13,40 L13,47 C13,47.552 13.448,48 14,48 C14.552,48 15,47.552 15,47 L15,40 L23,40 L23,47 C23,47.552 23.448,48 24,48 C24.552,48 25,47.552 25,47 L25,40 L33,40 L33,47 C33,47.552 33.448,48 34,48 C34.552,48 35,47.552 35,47 L35,40 L43,40 L43,47 C43,47.552 43.448,48 44,48 C44.552,48 45,47.552 45,47 L45,40 L46,40 C46.552,40 47,39.552 47,39 C47,38.448 46.552,38 46,38 Z M13,38 L5,38 L5,28 L13,28 L13,38 Z M13,26 L5,26 L5,15.73 L13,14.996 L13,26 Z M23,38 L15,38 L15,28 L23,28 L23,38 Z M23,26 L15,26 L15,14.812 L23,14.078 L23,26 Z M33,38 L25,38 L25,28 L33,28 L33,38 Z M33,26 L25,26 L25,14.096 L33,14.824 L33,26 Z M43,38 L35,38 L35,28 L43,28 L43,38 Z M43,26 L35,26 L35,15.004 L43,15.732 L43,26 Z" id="Shape"></path>
                        </g>
                    </g>
                </g>
            </g>
        </g>
    </g>
</svg>