<?xml version="1.0" encoding="UTF-8"?>
<svg width="48px" height="44px" viewBox="0 0 48 44" version="1.1" xmlns="http://www.w3.org/2000/svg" xmlns:xlink="http://www.w3.org/1999/xlink">
    <!-- Generator: sketchtool 51.3 (57544) - http://www.bohemiancoding.com/sketch -->
    <title>9DC1FF6C-04AB-4818-A431-1BE8492B3DDF</title>
    <desc>Created with sketchtool.</desc>
    <defs></defs>
    <g id="Pac-primário" stroke="none" stroke-width="1" fill="none" fill-rule="evenodd">
        <g id="Home-v2" transform="translate(-599.000000, -1042.000000)" fill="#000000" fill-rule="nonzero">
            <g id="Group-17" transform="translate(306.000000, 740.000000)">
                <g id="2" transform="translate(293.000000, 302.000000)">
                    <g id="roof-(1)">
                        <path d="M0.76987013,22.2024054 C0.344415641,22.2024054 0,21.8579899 0,21.4325354 L0,9.11725582 C0,8.69224173 0.344415641,8.34782609 0.76987013,8.34782609 L13.0851497,8.34782609 C13.5101638,8.34782609 13.8545793,8.69224173 13.8545793,9.11725582 C13.8545793,9.5427103 13.5101638,9.88712595 13.0851497,9.88712595 L1.53929986,9.88712595 L1.53929986,21.4325354 C1.53929986,21.8579899 1.19488422,22.2024054 0.76987013,22.2024054 Z" id="Shape"></path>
                        <path d="M0.76987013,30.0146443 C0.344415641,30.0146443 0,29.6702287 0,29.2452146 L0,20.7453727 C0,20.4463213 0.173529023,20.1732552 0.444833371,20.0472925 L6.60247321,17.1840626 C6.80859404,17.0893704 7.04598538,17.0893704 7.2521061,17.1840626 L12.585703,19.6636787 C12.9715189,19.8433738 13.1384416,20.3009797 12.9596273,20.6867956 C12.7799322,21.0721711 12.3236476,21.240415 11.9365105,21.0602795 L6.92750985,18.7308497 L1.53929986,21.2364512 L1.53929986,29.245655 C1.53929986,29.6702287 1.19488422,30.0146443 0.76987013,30.0146443 Z" id="Shape"></path>
                        <path d="M0.76987013,39.3242235 C0.344415641,39.3242235 0,38.979808 0,38.5543534 L0,28.8406889 C0,28.5834783 0.127724393,28.3438848 0.342213411,28.2011857 L6.11491813,24.3381818 C6.37345006,24.1655336 6.71169963,24.1655336 6.97067196,24.3381818 L12.7433767,28.2011857 C12.9574252,28.3438848 13.0851497,28.5834783 13.0851497,28.8406889 L13.0851497,37.7232637 C13.0851497,38.1482778 12.740734,38.4926933 12.3152794,38.4926933 C11.889825,38.4926933 11.5454094,38.1482778 11.5454094,37.7232637 L11.5454094,29.2516093 L6.54257484,25.9039073 L1.53929986,29.2516093 L1.53929986,38.5543534 C1.53929986,38.979808 1.19488422,39.3242235 0.76987013,39.3242235 Z" id="Shape"></path>
                        <path d="M12.4568265,22.2024054 C12.031372,22.2024054 11.6869565,21.8579899 11.6869565,21.4325354 L11.6869565,9.11725582 C11.6869565,8.69224173 12.031372,8.34782609 12.4568265,8.34782609 L24.7721061,8.34782609 C25.1975606,8.34782609 25.5419762,8.69224173 25.5419762,9.11725582 C25.5419762,9.5427103 25.1975606,9.88712595 24.7721061,9.88712595 L13.2266968,9.88712595 L13.2266968,21.4325354 C13.2266968,21.8579899 12.8822811,22.2024054 12.4568265,22.2024054 Z" id="Shape"></path>
                        <path d="M12.4568265,30.0146443 C12.031372,30.0146443 11.6869565,29.6702287 11.6869565,29.2452146 L11.6869565,20.7453727 C11.6869565,20.4463213 11.8604855,20.1732552 12.1322303,20.0472925 L18.2898701,17.1840626 C18.4955505,17.0893704 18.7329418,17.0893704 18.939503,17.1840626 L24.2730999,19.6636787 C24.6584753,19.8433738 24.8258385,20.3009797 24.6465838,20.6867956 C24.4668887,21.0721711 24.011485,21.240415 23.6239073,21.0602795 L18.6144664,18.7308497 L13.2266968,21.2364512 L13.2266968,29.245655 C13.2266968,29.6702287 12.8822811,30.0146443 12.4568265,30.0146443 Z" id="Shape"></path>
                        <path d="M12.4568265,38.5543534 C12.031372,38.5543534 11.6869565,38.2099379 11.6869565,37.7849237 L11.6869565,28.8406889 C11.6869565,28.5834783 11.8151213,28.3438848 12.0291699,28.2011857 L17.8018745,24.3381818 C18.060847,24.1655336 18.3990966,24.1655336 18.6576284,24.3381818 L24.4303331,28.2011857 C24.6443816,28.3438848 24.7721061,28.5834783 24.7721061,28.8406889 L24.7721061,37.7232637 C24.7721061,38.1482778 24.4276906,38.4926933 24.002236,38.4926933 C23.5772219,38.4926933 23.2328062,38.1482778 23.2328062,37.7232637 L23.2328062,29.2516093 L18.2295313,25.9039073 L13.2266968,29.2516093 L13.2266968,37.7849237 C13.2266968,38.2099379 12.8822811,38.5543534 12.4568265,38.5543534 Z" id="Shape"></path>
                        <path d="M23.7259515,22.2024054 C23.3009374,22.2024054 22.9565217,21.8579899 22.9565217,21.4325354 L22.9565217,9.11725582 C22.9565217,8.69224173 23.3009374,8.34782609 23.7259515,8.34782609 L29.8835912,8.34782609 C30.3090458,8.34782609 30.6534613,8.69224173 30.6534613,9.11725582 C30.6534613,9.5427103 30.3090458,9.88712595 29.8835912,9.88712595 L24.4958216,9.88712595 L24.4958216,21.4325354 C24.4958216,21.8579899 24.1514061,22.2024054 23.7259515,22.2024054 Z" id="Shape"></path>
                        <path d="M23.7259515,29.8355244 C23.3009374,29.8355244 22.9565217,29.4911088 22.9565217,29.0660947 L22.9565217,20.5662527 C22.9565217,20.2672013 23.1300509,19.9941353 23.4013552,19.8681726 L29.1740598,17.183757 C29.5611971,17.0071449 30.0174816,17.1723059 30.1971767,17.5572409 C30.375991,17.9430568 30.2090684,18.4006627 29.8232524,18.5803578 L24.4958216,21.0568907 L24.4958216,29.0660947 C24.4958216,29.4911088 24.1514061,29.8355244 23.7259515,29.8355244 Z" id="Shape"></path>
                        <path d="M23.7259515,38.5543534 C23.3009374,38.5543534 22.9565217,38.2099379 22.9565217,37.7849237 L22.9565217,28.8406889 C22.9565217,28.5834783 23.0842462,28.3438848 23.2987353,28.2011857 L29.0714399,24.3381818 C29.3299718,24.1655336 29.6682214,24.1655336 29.9267533,24.3381818 L35.6998984,28.2011857 C35.9139469,28.3438848 36.0416714,28.5834783 36.0416714,28.8406889 L36.0416714,37.7232637 C36.0416714,38.1482778 35.6972558,38.4926933 35.2722417,38.4926933 C34.8467871,38.4926933 34.5023716,38.1482778 34.5023716,37.7232637 L34.5023716,29.2516093 L29.499537,25.9039073 L24.4958216,29.2516093 L24.4958216,37.7849237 C24.4958216,38.2099379 24.1514061,38.5543534 23.7259515,38.5543534 Z" id="Shape"></path>
                        <path d="M47.0572783,29.8993451 C46.6322642,29.8993451 46.2878486,29.5549294 46.2878486,29.1299154 L46.2878486,9.88712595 L41.2568267,9.88712595 C40.8318126,9.88712595 40.4869565,9.5427103 40.4869565,9.11725582 C40.4869565,8.69224173 40.8318126,8.34782609 41.2568267,8.34782609 L47.0572783,8.34782609 C47.4827329,8.34782609 47.8271484,8.69224173 47.8271484,9.11725582 L47.8271484,29.1299154 C47.8271484,29.5549294 47.4827329,29.8993451 47.0572783,29.8993451 Z" id="Shape"></path>
                        <path d="M47.0020117,21.1320695 C46.8941066,21.1320695 46.7835588,21.1087268 46.6782962,21.0602795 L41.6692957,18.7312902 L41.5807695,18.7726906 C41.1967153,18.953707 40.738669,18.7845822 40.5585334,18.3978854 C40.3797192,18.0125099 40.5475227,17.5557849 40.9328982,17.3760898 L41.3455803,17.1840627 C41.5499394,17.0893704 41.7882115,17.0893704 41.9943325,17.1840627 L47.3279292,19.6636788 C47.7137452,19.8433739 47.8806678,20.3009798 47.7018536,20.6867956 C47.5706057,20.967349 47.2922545,21.1320695 47.0020117,21.1320695 Z" id="Shape"></path>
                        <path d="M35.4133484,30.0739244 C34.9878938,30.0739244 34.6434783,29.7295088 34.6434783,29.3044947 L34.6434783,20.8046527 C34.6434783,20.3791981 34.9878938,20.0347826 35.4133484,20.0347826 C35.8383625,20.0347826 36.182778,20.3791981 36.182778,20.8046527 L36.182778,29.3044947 C36.182778,29.7295088 35.8383625,30.0739244 35.4133484,30.0739244 Z" id="Shape"></path>
                        <path d="M46.9587577,39.2625635 C46.5337436,39.2625635 46.189328,38.9181479 46.189328,38.4926933 L46.189328,29.2516093 L41.186053,25.9039073 L36.182778,29.2516093 L36.182778,37.7849237 C36.182778,38.2099379 35.8383625,38.5543534 35.4133484,38.5543534 C34.9878938,38.5543534 34.6434783,38.2099379 34.6434783,37.7849237 L34.6434783,28.8406889 C34.6434783,28.5834783 34.7712027,28.3438848 34.9856917,28.2011857 L40.7583964,24.3381818 C41.0169282,24.1655336 41.3556183,24.1655336 41.6141502,24.3381818 L47.3868548,28.2011857 C47.6013438,28.3438848 47.7290682,28.5834783 47.7290682,28.8406889 L47.7290682,38.4926933 C47.7286278,38.9181479 47.3842123,39.2625635 46.9587577,39.2625635 Z" id="Shape"></path>
                        <path d="M46.951948,43.1522281 C46.8052851,43.1522281 46.6586223,43.1103873 46.5317787,43.0275866 L41.0206888,39.4363274 L35.6034106,42.9086707 C35.3439977,43.0733913 35.012795,43.0698678 34.7595482,42.900743 L29.6043252,39.4460169 L24.4178317,42.9016238 C24.1597403,43.0733913 23.8245737,43.0733913 23.5651609,42.9029452 L18.3178882,39.4248763 L12.2699153,42.9271688 C12.0038961,43.0813189 11.6704912,43.0619401 11.4234105,42.8774003 L6.84470918,39.4539446 L1.18079049,43.034193 C0.942518351,43.1830581 0.642586138,43.1927475 0.398147939,43.0575358 C0.152388425,42.922324 -8.52651283e-14,42.6642325 -8.52651283e-14,42.3832388 L-8.52651283e-14,38.4418385 C-8.52651283e-14,38.177581 0.135652174,37.9322619 0.358509373,37.7908842 L6.47607002,33.9283207 C6.74164881,33.7596363 7.08254091,33.7697662 7.33887072,33.9560677 L12.0959458,37.4024257 L18.0540711,33.9146674 C18.3073179,33.7666832 18.6244269,33.7750513 18.868865,33.9384506 L24.068131,37.3958192 L29.2748842,33.9384506 C29.5334161,33.7671236 29.8690231,33.767564 30.1257933,33.9375697 L35.3506042,37.3980214 L40.6053642,33.9366888 C40.8616939,33.7671236 41.1924562,33.767564 41.4487861,33.9344866 L47.3721175,37.7970502 C47.5896894,37.9393087 47.7213778,38.1819852 47.7213778,38.4422789 L47.7213778,42.3836792 C47.7213778,42.6664347 47.5667871,42.9258475 47.3183851,43.0606189 C47.2038735,43.121398 47.0783512,43.1522281 46.951948,43.1522281 Z M29.7363523,37.7429474 C29.8860982,37.7429474 30.0354037,37.7861095 30.1644494,37.8728741 L35.3276002,41.3333257 L40.739153,37.8645059 C40.9954827,37.7011067 41.3218408,37.7011067 41.5750875,37.8675889 L46.3127837,40.9549971 L46.3127837,38.8506267 L41.1615245,35.4910333 L35.9036815,38.954568 C35.6455901,39.1250141 35.3121851,39.1232524 35.0558554,38.9541276 L29.8323659,35.4949971 L24.6251722,38.9532467 C24.3657595,39.1250141 24.0305928,39.1236928 23.7725014,38.9532467 L18.5468097,35.4782609 L12.5706268,38.9765895 C12.3072501,39.1307397 11.9782495,39.115765 11.7302879,38.9356295 L6.98774695,35.5002823 L1.66956522,38.8576736 L1.66956522,40.9783399 L6.60060982,37.8618634 C6.86883114,37.6927386 7.2163297,37.7037493 7.47265951,37.8962168 L12.068978,41.3328853 L18.0896442,37.8468887 C18.3415697,37.7002258 18.6569169,37.7094748 18.9004742,37.8706719 L24.1195595,41.3298023 L29.3091361,37.8719931 C29.4381818,37.7856691 29.5874873,37.7429474 29.7363523,37.7429474 Z" id="Shape"></path>
                        <path d="M40.7628007,5.38776959 L29.986821,5.38776959 C29.5618069,5.38776959 29.2173913,5.04335407 29.2173913,4.61833998 L29.2173913,0.769429729 C29.2173913,0.344415641 29.5618069,0 29.986821,0 L40.7628007,0 C41.1882553,0 41.5326709,0.344415641 41.5326709,0.769429729 L41.5326709,4.61833998 C41.5326709,5.04335407 41.1882553,5.38776959 40.7628007,5.38776959 Z M30.8869565,3.5613439 L40.1236364,3.5613439 L40.1236364,1.25217391 L30.8869565,1.25217391 L30.8869565,3.5613439 Z" id="Shape"></path>
                        <path d="M35.344201,21.0433653 C35.2574365,21.0433653 35.170672,21.0292715 35.0878713,20.9997628 L29.7304913,19.1072388 C29.4230717,18.9980124 29.2173913,18.7073291 29.2173913,18.3809712 L29.2173913,4.52639187 C29.2173913,4.10093727 29.5618069,3.75652174 29.986821,3.75652174 L40.7628007,3.75652174 C41.1882553,3.75652174 41.5326709,4.10093727 41.5326709,4.52639187 L41.5326709,18.3809712 C41.5326709,18.7082101 41.3261096,18.9993337 41.0169283,19.1081197 L35.5983286,21.0006437 C35.5155281,21.0292715 35.4300848,21.0433653 35.344201,21.0433653 Z M30.8869565,17.9668662 L35.4757877,19.5885264 L40.1236364,17.9646641 L40.1236364,5.42608696 L30.8869565,5.42608696 L30.8869565,17.9668662 Z" id="Shape"></path>
                        <path d="M40.8660305,9.05234334 L36.2476905,9.05234334 C35.8226764,9.05234334 35.4782609,8.70792781 35.4782609,8.28291361 C35.4782609,7.85745912 35.8226764,7.51304348 36.2476905,7.51304348 L40.8660305,7.51304348 C41.2914851,7.51304348 41.6359006,7.85745912 41.6359006,8.28291361 C41.6359006,8.70792781 41.2914851,9.05234334 40.8660305,9.05234334 Z" id="Shape"></path>
                        <path d="M34.605161,12.8093055 L29.986821,12.8093055 C29.5618069,12.8093055 29.2173913,12.4644494 29.2173913,12.0394353 C29.2173913,11.6139807 29.5618069,11.2695652 29.986821,11.2695652 L34.605161,11.2695652 C35.0306155,11.2695652 35.3750311,11.6139807 35.3750311,12.0394353 C35.3750311,12.4644494 35.0306155,12.8093055 34.605161,12.8093055 Z" id="Shape"></path>
                    </g>
                </g>
            </g>
        </g>
    </g>
</svg>