<?xml version="1.0" encoding="UTF-8"?>
<svg width="48px" height="42px" viewBox="0 0 48 42" version="1.1" xmlns="http://www.w3.org/2000/svg" xmlns:xlink="http://www.w3.org/1999/xlink">
    <!-- Generator: sketchtool 61 (101010) - https://sketch.com -->
    <title>FB5D7850-374C-4399-BCB0-3F2F25F726ED</title>
    <desc>Created with sketchtool.</desc>
    <g id="Pac-primário" stroke="none" stroke-width="1" fill="none" fill-rule="evenodd">
        <g id="Produto" transform="translate(-962.000000, -832.000000)" fill="#000000" fill-rule="nonzero">
            <g id="Group-5" transform="translate(306.000000, 826.000000)">
                <g id="Group-4" transform="translate(454.000000, 0.000000)">
                    <g id="5-copy" transform="translate(202.000000, 6.000000)">
                        <g id="sea-waves-(1)">
                            <path d="M41.4721168,17.0671533 C39.7437664,17.0671533 38.8634161,16.2614307 38.0866569,15.5505401 C37.3853431,14.9085547 36.8312993,14.4014599 35.6474161,14.4014599 C34.4635328,14.4014599 33.9094891,14.9085547 33.2080584,15.5505401 C32.4314161,16.2614307 31.5510657,17.0671533 29.8225985,17.0671533 C28.0941314,17.0671533 27.2138978,16.2614307 26.4371387,15.5505401 C25.7358248,14.9085547 25.1818978,14.4014599 23.9980146,14.4014599 C22.8142482,14.4014599 22.2603212,14.9085547 21.5590073,15.5505401 C20.782365,16.2614307 19.9020146,17.0671533 18.1735474,17.0671533 C16.4453139,17.0671533 15.5651971,16.2614307 14.7885547,15.5505401 C14.0873577,14.9085547 13.5334307,14.4014599 12.349781,14.4014599 C11.1660146,14.4014599 10.6120876,14.9085547 9.91077372,15.5505401 C9.13413139,16.2614307 8.25378102,17.0671533 6.52543066,17.0671533 C4.7969635,17.0671533 3.91661314,16.2614307 3.13985401,15.5505401 C2.43854015,14.9085547 1.88461314,14.4014599 0.700729927,14.4014599 C0.313810219,14.4014599 0,14.0877664 0,13.7007299 C0,13.3138102 0.313810219,13 0.700729927,13 C2.42908029,13 3.30943066,13.8057226 4.08618978,14.5166131 C4.78750365,15.1585985 5.34154745,15.6656934 6.52543066,15.6656934 C7.70919708,15.6656934 8.26312409,15.1585985 8.96443796,14.5167299 C9.74108029,13.8057226 10.6214307,13 12.349781,13 C14.0780146,13 14.9582482,13.8058394 15.7348905,14.5167299 C16.4360876,15.1587153 16.9898978,15.6656934 18.1735474,15.6656934 C19.3574307,15.6656934 19.9113577,15.1585985 20.6126715,14.5167299 C21.3893139,13.8057226 22.2696642,13 23.9980146,13 C25.7264818,13 26.6067153,13.8057226 27.3834745,14.5167299 C28.0847883,15.1585985 28.6388321,15.6656934 29.8225985,15.6656934 C31.0065985,15.6656934 31.5605255,15.1585985 32.2618394,14.5167299 C33.0385985,13.8057226 33.9189489,13 35.6474161,13 C37.3758832,13 38.2562336,13.8057226 39.0329927,14.5167299 C39.7343066,15.1585985 40.2882336,15.6656934 41.4721168,15.6656934 C42.6562336,15.6656934 43.2102774,15.1585985 43.9118248,14.5166131 C44.6885839,13.8057226 45.5690511,13 47.297635,13 C47.6845547,13 47.998365,13.3138102 47.998365,13.7007299 C47.998365,14.0877664 47.6845547,14.4014599 47.297635,14.4014599 C46.1135182,14.4014599 45.5594745,14.9085547 44.857927,15.5505401 C44.0811679,16.2614307 43.2008175,17.0671533 41.4721168,17.0671533 Z" id="Shape"></path>
                            <path d="M41.4721168,10.9941606 C39.7437664,10.9941606 38.8634161,10.188438 38.0866569,9.47754745 C37.3853431,8.83556204 36.8312993,8.32846715 35.6474161,8.32846715 C34.4635328,8.32846715 33.9094891,8.83556204 33.2080584,9.47754745 C32.4314161,10.188438 31.5510657,10.9941606 29.8225985,10.9941606 C28.0941314,10.9941606 27.2138978,10.188438 26.4371387,9.47754745 C25.7358248,8.83556204 25.1818978,8.32846715 23.9980146,8.32846715 C22.8142482,8.32846715 22.2603212,8.83556204 21.5590073,9.47754745 C20.782365,10.188438 19.9020146,10.9941606 18.1735474,10.9941606 C16.4453139,10.9941606 15.5651971,10.188438 14.7885547,9.47754745 C14.0873577,8.83556204 13.5334307,8.32846715 12.349781,8.32846715 C11.1660146,8.32846715 10.6120876,8.83556204 9.91077372,9.47754745 C9.13413139,10.188438 8.25378102,10.9941606 6.52543066,10.9941606 C4.7969635,10.9941606 3.91661314,10.188438 3.13985401,9.47754745 C2.43854015,8.83556204 1.88461314,8.32846715 0.700729927,8.32846715 C0.313810219,8.32846715 0,8.01477372 0,7.62773723 C0,7.24081752 0.313810219,6.9270073 0.700729927,6.9270073 C2.42908029,6.9270073 3.30943066,7.73272993 4.08618978,8.44362044 C4.78750365,9.08560584 5.34154745,9.59270073 6.52543066,9.59270073 C7.70919708,9.59270073 8.26312409,9.08560584 8.96443796,8.44373723 C9.74108029,7.73272993 10.6214307,6.9270073 12.349781,6.9270073 C14.0780146,6.9270073 14.9582482,7.73284672 15.7348905,8.44373723 C16.4360876,9.08572263 16.9898978,9.59270073 18.1735474,9.59270073 C19.3574307,9.59270073 19.9113577,9.08560584 20.6126715,8.44373723 C21.3893139,7.73272993 22.2696642,6.9270073 23.9980146,6.9270073 C25.7264818,6.9270073 26.6067153,7.73272993 27.3834745,8.44373723 C28.0847883,9.08560584 28.6388321,9.59270073 29.8225985,9.59270073 C31.0065985,9.59270073 31.5605255,9.08560584 32.2618394,8.44373723 C33.0385985,7.73272993 33.9189489,6.9270073 35.6474161,6.9270073 C37.3758832,6.9270073 38.2562336,7.73272993 39.0329927,8.44373723 C39.7343066,9.08560584 40.2882336,9.59270073 41.4721168,9.59270073 C42.6562336,9.59270073 43.2102774,9.08560584 43.9118248,8.44362044 C44.6885839,7.73272993 45.5690511,6.9270073 47.297635,6.9270073 C47.6845547,6.9270073 47.998365,7.24081752 47.998365,7.62773723 C47.998365,8.01477372 47.6845547,8.32846715 47.297635,8.32846715 C46.1135182,8.32846715 45.5594745,8.83556204 44.857927,9.47754745 C44.0811679,10.188438 43.2008175,10.9941606 41.4721168,10.9941606 Z" id="Shape-Copy-3"></path>
                            <path d="M41.4721168,4.99416058 C39.7437664,4.99416058 38.8634161,4.18843796 38.0866569,3.47754745 C37.3853431,2.83556204 36.8312993,2.32846715 35.6474161,2.32846715 C34.4635328,2.32846715 33.9094891,2.83556204 33.2080584,3.47754745 C32.4314161,4.18843796 31.5510657,4.99416058 29.8225985,4.99416058 C28.0941314,4.99416058 27.2138978,4.18843796 26.4371387,3.47754745 C25.7358248,2.83556204 25.1818978,2.32846715 23.9980146,2.32846715 C22.8142482,2.32846715 22.2603212,2.83556204 21.5590073,3.47754745 C20.782365,4.18843796 19.9020146,4.99416058 18.1735474,4.99416058 C16.4453139,4.99416058 15.5651971,4.18843796 14.7885547,3.47754745 C14.0873577,2.83556204 13.5334307,2.32846715 12.349781,2.32846715 C11.1660146,2.32846715 10.6120876,2.83556204 9.91077372,3.47754745 C9.13413139,4.18843796 8.25378102,4.99416058 6.52543066,4.99416058 C4.7969635,4.99416058 3.91661314,4.18843796 3.13985401,3.47754745 C2.43854015,2.83556204 1.88461314,2.32846715 0.700729927,2.32846715 C0.313810219,2.32846715 0,2.01477372 0,1.62773723 C0,1.24081752 0.313810219,0.927007299 0.700729927,0.927007299 C2.42908029,0.927007299 3.30943066,1.73272993 4.08618978,2.44362044 C4.78750365,3.08560584 5.34154745,3.59270073 6.52543066,3.59270073 C7.70919708,3.59270073 8.26312409,3.08560584 8.96443796,2.44373723 C9.74108029,1.73272993 10.6214307,0.927007299 12.349781,0.927007299 C14.0780146,0.927007299 14.9582482,1.73284672 15.7348905,2.44373723 C16.4360876,3.08572263 16.9898978,3.59270073 18.1735474,3.59270073 C19.3574307,3.59270073 19.9113577,3.08560584 20.6126715,2.44373723 C21.3893139,1.73272993 22.2696642,0.927007299 23.9980146,0.927007299 C25.7264818,0.927007299 26.6067153,1.73272993 27.3834745,2.44373723 C28.0847883,3.08560584 28.6388321,3.59270073 29.8225985,3.59270073 C31.0065985,3.59270073 31.5605255,3.08560584 32.2618394,2.44373723 C33.0385985,1.73272993 33.9189489,0.927007299 35.6474161,0.927007299 C37.3758832,0.927007299 38.2562336,1.73272993 39.0329927,2.44373723 C39.7343066,3.08560584 40.2882336,3.59270073 41.4721168,3.59270073 C42.6562336,3.59270073 43.2102774,3.08560584 43.9118248,2.44362044 C44.6885839,1.73272993 45.5690511,0.927007299 47.297635,0.927007299 C47.6845547,0.927007299 47.998365,1.24081752 47.998365,1.62773723 C47.998365,2.01477372 47.6845547,2.32846715 47.297635,2.32846715 C46.1135182,2.32846715 45.5594745,2.83556204 44.857927,3.47754745 C44.0811679,4.18843796 43.2008175,4.99416058 41.4721168,4.99416058 Z" id="Shape-Copy-4"></path>
                            <path d="M41.4721168,23.1494891 C39.7437664,23.1494891 38.8634161,22.3437664 38.0866569,21.6328759 C37.3853431,20.9908905 36.8312993,20.4837956 35.6474161,20.4837956 C34.4635328,20.4837956 33.9094891,20.9908905 33.2080584,21.6328759 C32.4314161,22.3437664 31.5510657,23.1494891 29.8225985,23.1494891 C28.0941314,23.1494891 27.2138978,22.3437664 26.4371387,21.6328759 C25.7358248,20.9908905 25.1818978,20.4837956 23.9980146,20.4837956 C22.8142482,20.4837956 22.2603212,20.9908905 21.5590073,21.6328759 C20.782365,22.3437664 19.9020146,23.1494891 18.1735474,23.1494891 C16.4453139,23.1494891 15.5651971,22.3437664 14.7885547,21.6328759 C14.0873577,20.9908905 13.5334307,20.4837956 12.349781,20.4837956 C11.1660146,20.4837956 10.6120876,20.9908905 9.91077372,21.6328759 C9.13413139,22.3437664 8.25378102,23.1494891 6.52543066,23.1494891 C4.7969635,23.1494891 3.91661314,22.3437664 3.13985401,21.6328759 C2.43854015,20.9908905 1.88461314,20.4837956 0.700729927,20.4837956 C0.313810219,20.4837956 0,20.1701022 0,19.7830657 C0,19.396146 0.313810219,19.0823358 0.700729927,19.0823358 C2.42908029,19.0823358 3.30943066,19.8880584 4.08618978,20.5989489 C4.78750365,21.2409343 5.34154745,21.7480292 6.52543066,21.7480292 C7.70919708,21.7480292 8.26312409,21.2409343 8.96443796,20.5990657 C9.74108029,19.8880584 10.6214307,19.0823358 12.349781,19.0823358 C14.0780146,19.0823358 14.9582482,19.8881752 15.7348905,20.5990657 C16.4360876,21.2410511 16.9898978,21.7480292 18.1735474,21.7480292 C19.3574307,21.7480292 19.9113577,21.2409343 20.6126715,20.5990657 C21.3893139,19.8880584 22.2696642,19.0823358 23.9980146,19.0823358 C25.7264818,19.0823358 26.6067153,19.8880584 27.3834745,20.5990657 C28.0847883,21.2409343 28.6388321,21.7480292 29.8225985,21.7480292 C31.0065985,21.7480292 31.5605255,21.2409343 32.2618394,20.5990657 C33.0385985,19.8880584 33.9189489,19.0823358 35.6474161,19.0823358 C37.3758832,19.0823358 38.2562336,19.8880584 39.0329927,20.5990657 C39.7343066,21.2409343 40.2882336,21.7480292 41.4721168,21.7480292 C42.6562336,21.7480292 43.2102774,21.2409343 43.9118248,20.5989489 C44.6885839,19.8880584 45.5690511,19.0823358 47.297635,19.0823358 C47.6845547,19.0823358 47.998365,19.396146 47.998365,19.7830657 C47.998365,20.1701022 47.6845547,20.4837956 47.297635,20.4837956 C46.1135182,20.4837956 45.5594745,20.9908905 44.857927,21.6328759 C44.0811679,22.3437664 43.2008175,23.1494891 41.4721168,23.1494891 Z" id="Shape"></path>
                            <path d="M41.4721168,29.2225985 C39.7437664,29.2225985 38.8634161,28.4168759 38.0866569,27.7059854 C37.3853431,27.064 36.8312993,26.5569051 35.6474161,26.5569051 C34.4635328,26.5569051 33.9094891,27.064 33.2080584,27.7058686 C32.4314161,28.4168759 31.5510657,29.2225985 29.8225985,29.2225985 C28.0941314,29.2225985 27.2138978,28.4168759 26.4371387,27.7058686 C25.7358248,27.064 25.1818978,26.5569051 23.9980146,26.5569051 C22.8142482,26.5569051 22.2603212,27.064 21.5590073,27.7058686 C20.782365,28.4168759 19.9020146,29.2225985 18.1735474,29.2225985 C16.4453139,29.2225985 15.5651971,28.4168759 14.7885547,27.7058686 C14.0873577,27.064 13.5334307,26.5569051 12.349781,26.5569051 C11.1660146,26.5569051 10.6120876,27.064 9.91077372,27.7058686 C9.13413139,28.4168759 8.25378102,29.2225985 6.52543066,29.2225985 C4.7969635,29.2225985 3.91661314,28.4168759 3.13985401,27.7058686 C2.43854015,27.064 1.88449635,26.5569051 0.700729927,26.5569051 C0.313810219,26.5569051 -2.84217094e-14,26.2430949 -2.84217094e-14,25.8561752 C-2.84217094e-14,25.4691387 0.313810219,25.1554453 0.700729927,25.1554453 C2.42908029,25.1554453 3.30943066,25.9611679 4.08618978,26.6720584 C4.78750365,27.3140438 5.34154745,27.8211387 6.52543066,27.8211387 C7.70919708,27.8211387 8.26312409,27.3140438 8.96443796,26.6720584 C9.74108029,25.9611679 10.6214307,25.1554453 12.349781,25.1554453 C14.0780146,25.1554453 14.9582482,25.9611679 15.7348905,26.6721752 C16.4360876,27.3140438 16.9898978,27.8211387 18.1735474,27.8211387 C19.3574307,27.8211387 19.9113577,27.3140438 20.6126715,26.6720584 C21.3893139,25.9611679 22.2696642,25.1554453 23.9980146,25.1554453 C25.7264818,25.1554453 26.6067153,25.9611679 27.3834745,26.6720584 C28.0847883,27.3140438 28.6388321,27.8211387 29.8225985,27.8211387 C31.0065985,27.8211387 31.5605255,27.3140438 32.2618394,26.6720584 C33.0385985,25.9611679 33.9189489,25.1554453 35.6474161,25.1554453 C37.3758832,25.1554453 38.2562336,25.9611679 39.0329927,26.6720584 C39.7343066,27.3140438 40.2882336,27.8211387 41.4721168,27.8211387 C42.6562336,27.8211387 43.2102774,27.3140438 43.9118248,26.6720584 C44.6885839,25.9611679 45.5690511,25.1554453 47.297635,25.1554453 C47.6845547,25.1554453 47.998365,25.4691387 47.998365,25.8561752 C47.998365,26.2430949 47.6845547,26.5569051 47.297635,26.5569051 C46.1135182,26.5569051 45.5594745,27.064 44.857927,27.7059854 C44.0811679,28.4168759 43.2008175,29.2225985 41.4721168,29.2225985 Z" id="Shape"></path>
                            <path d="M41.4721168,35.2955912 C39.7437664,35.2955912 38.8634161,34.4898686 38.0866569,33.7789781 C37.3853431,33.1369927 36.8312993,32.6298978 35.6474161,32.6298978 C34.4635328,32.6298978 33.9094891,33.1369927 33.2080584,33.7788613 C32.4314161,34.4898686 31.5510657,35.2955912 29.8225985,35.2955912 C28.0941314,35.2955912 27.2138978,34.4898686 26.4371387,33.7788613 C25.7358248,33.1369927 25.1818978,32.6298978 23.9980146,32.6298978 C22.8142482,32.6298978 22.2603212,33.1369927 21.5590073,33.7788613 C20.782365,34.4898686 19.9020146,35.2955912 18.1735474,35.2955912 C16.4453139,35.2955912 15.5651971,34.4898686 14.7885547,33.7788613 C14.0873577,33.1369927 13.5334307,32.6298978 12.349781,32.6298978 C11.1660146,32.6298978 10.6120876,33.1369927 9.91077372,33.7788613 C9.13413139,34.4898686 8.25378102,35.2955912 6.52543066,35.2955912 C4.7969635,35.2955912 3.91661314,34.4898686 3.13985401,33.7788613 C2.43854015,33.1369927 1.88449635,32.6298978 0.700729927,32.6298978 C0.313810219,32.6298978 -2.84217094e-14,32.3160876 -2.84217094e-14,31.9291679 C-2.84217094e-14,31.5421314 0.313810219,31.228438 0.700729927,31.228438 C2.42908029,31.228438 3.30943066,32.0341606 4.08618978,32.7450511 C4.78750365,33.3870365 5.34154745,33.8941314 6.52543066,33.8941314 C7.70919708,33.8941314 8.26312409,33.3870365 8.96443796,32.7450511 C9.74108029,32.0341606 10.6214307,31.228438 12.349781,31.228438 C14.0780146,31.228438 14.9582482,32.0341606 15.7348905,32.7451679 C16.4360876,33.3870365 16.9898978,33.8941314 18.1735474,33.8941314 C19.3574307,33.8941314 19.9113577,33.3870365 20.6126715,32.7450511 C21.3893139,32.0341606 22.2696642,31.228438 23.9980146,31.228438 C25.7264818,31.228438 26.6067153,32.0341606 27.3834745,32.7450511 C28.0847883,33.3870365 28.6388321,33.8941314 29.8225985,33.8941314 C31.0065985,33.8941314 31.5605255,33.3870365 32.2618394,32.7450511 C33.0385985,32.0341606 33.9189489,31.228438 35.6474161,31.228438 C37.3758832,31.228438 38.2562336,32.0341606 39.0329927,32.7450511 C39.7343066,33.3870365 40.2882336,33.8941314 41.4721168,33.8941314 C42.6562336,33.8941314 43.2102774,33.3870365 43.9118248,32.7450511 C44.6885839,32.0341606 45.5690511,31.228438 47.297635,31.228438 C47.6845547,31.228438 47.998365,31.5421314 47.998365,31.9291679 C47.998365,32.3160876 47.6845547,32.6298978 47.297635,32.6298978 C46.1135182,32.6298978 45.5594745,33.1369927 44.857927,33.7789781 C44.0811679,34.4898686 43.2008175,35.2955912 41.4721168,35.2955912 Z" id="Shape"></path>
                            <path d="M41.4721168,41.3685839 C39.7437664,41.3685839 38.8634161,40.5628613 38.0866569,39.8519708 C37.3853431,39.2099854 36.8312993,38.7028905 35.6474161,38.7028905 C34.4635328,38.7028905 33.9094891,39.2099854 33.2080584,39.851854 C32.4314161,40.5628613 31.5510657,41.3685839 29.8225985,41.3685839 C28.0941314,41.3685839 27.2138978,40.5628613 26.4371387,39.851854 C25.7358248,39.2099854 25.1818978,38.7028905 23.9980146,38.7028905 C22.8142482,38.7028905 22.2603212,39.2099854 21.5590073,39.851854 C20.782365,40.5628613 19.9020146,41.3685839 18.1735474,41.3685839 C16.4453139,41.3685839 15.5651971,40.5628613 14.7885547,39.851854 C14.0873577,39.2099854 13.5334307,38.7028905 12.349781,38.7028905 C11.1660146,38.7028905 10.6120876,39.2099854 9.91077372,39.851854 C9.13413139,40.5628613 8.25378102,41.3685839 6.52543066,41.3685839 C4.7969635,41.3685839 3.91661314,40.5628613 3.13985401,39.851854 C2.43854015,39.2099854 1.88449635,38.7028905 0.700729927,38.7028905 C0.313810219,38.7028905 -2.84217094e-14,38.3890803 -2.84217094e-14,38.0021606 C-2.84217094e-14,37.6150073 0.313810219,37.3014307 0.700729927,37.3014307 C2.42908029,37.3014307 3.30943066,38.1071533 4.08618978,38.8180438 C4.78750365,39.4600292 5.34154745,39.9671241 6.52543066,39.9671241 C7.70919708,39.9671241 8.26312409,39.4600292 8.96443796,38.8180438 C9.74108029,38.1071533 10.6214307,37.3014307 12.349781,37.3014307 C14.0780146,37.3014307 14.9582482,38.1071533 15.7348905,38.8181606 C16.4360876,39.4600292 16.9898978,39.9671241 18.1735474,39.9671241 C19.3574307,39.9671241 19.9113577,39.4600292 20.6126715,38.8180438 C21.3893139,38.1071533 22.2696642,37.3014307 23.9980146,37.3014307 C25.7264818,37.3014307 26.6067153,38.1071533 27.3834745,38.8180438 C28.0847883,39.4600292 28.6388321,39.9671241 29.8225985,39.9671241 C31.0065985,39.9671241 31.5605255,39.4600292 32.2618394,38.8180438 C33.0385985,38.1071533 33.9189489,37.3014307 35.6474161,37.3014307 C37.3758832,37.3014307 38.2562336,38.1071533 39.0329927,38.8180438 C39.7343066,39.4600292 40.2882336,39.9671241 41.4721168,39.9671241 C42.6562336,39.9671241 43.2102774,39.4600292 43.9118248,38.8180438 C44.6885839,38.1071533 45.5690511,37.3014307 47.297635,37.3014307 C47.6845547,37.3014307 47.998365,37.6150073 47.998365,38.0021606 C47.998365,38.3890803 47.6845547,38.7028905 47.297635,38.7028905 C46.1135182,38.7028905 45.5594745,39.2099854 44.857927,39.8519708 C44.0811679,40.5628613 43.2008175,41.3685839 41.4721168,41.3685839 Z" id="Shape"></path>
                        </g>
                    </g>
                </g>
            </g>
        </g>
    </g>
</svg>