<?xml version="1.0" encoding="UTF-8"?>
<svg width="48px" height="48px" viewBox="0 0 48 48" version="1.1" xmlns="http://www.w3.org/2000/svg" xmlns:xlink="http://www.w3.org/1999/xlink">
    <!-- Generator: sketchtool 61.2 (101010) - https://sketch.com -->
    <title>0CF22DC7-78F6-46B0-9C34-7DF90B791665</title>
    <desc>Created with sketchtool.</desc>
    <g id="Pac-primário" stroke="none" stroke-width="1" fill="none" fill-rule="evenodd">
        <g id="Home-v2---areas-de-aplicação" transform="translate(-1290.000000, -1293.000000)" fill="#000000" fill-rule="nonzero">
            <g id="Group-8" transform="translate(336.000000, 740.000000)">
                <g id="Group-3" transform="translate(0.000000, 241.000000)">
                    <g id="5-copy-7" transform="translate(954.000000, 312.000000)">
                        <g id="swimming-pool" transform="translate(0.000000, 0.000000)">
                            <path d="M47.2340426,46.2381767 C45.9396766,46.2381767 44.7523404,45.5800186 43.9765787,44.432707 C43.8321702,44.2190512 43.6036085,44.0930233 43.3605447,44.0930233 C43.1165617,44.0932465 42.8878979,44.2198326 42.7436936,44.4339349 C41.9828426,45.5637209 40.7667064,46.2381767 39.4905191,46.2381767 C38.2150468,46.2381767 36.9973787,45.5632744 36.2330553,44.432707 C36.0886468,44.2190512 35.8600851,44.0930233 35.6170213,44.0930233 C35.3739574,44.0930233 35.1453957,44.2190512 35.0009872,44.432707 C34.2366638,45.5631628 33.0188936,46.2381767 31.7435234,46.2381767 C30.4516085,46.2381767 29.2654979,45.5800186 28.4894298,44.4325953 C28.3449191,44.2190512 28.1163574,44.0930233 27.8733957,44.0930233 C27.630434,44.0930233 27.4018723,44.2190512 27.2574638,44.432707 C26.4931404,45.5631628 25.2753702,46.2381767 24,46.2381767 C22.7237106,46.2381767 21.5075745,45.5637209 20.7467234,44.4339349 C20.6026213,44.2200558 20.374366,44.0935814 20.1314043,44.0930233 C19.8874213,44.0930233 19.6592681,44.218493 19.5147574,44.4312558 C18.735217,45.5795721 17.5475745,46.2381767 16.2564766,46.2381767 C14.9802894,46.2381767 13.7640511,45.5637209 13.0033021,44.4339349 C12.8590979,44.2198326 12.630434,44.0932465 12.387166,44.0930233 C12.1434894,44.0930233 11.9148255,44.2190512 11.770417,44.432707 C11.0061957,45.5632744 9.78709787,46.2381767 8.5092766,46.2381767 C7.23635745,46.2381767 6.01991489,45.5631628 5.25508085,44.4324837 C5.11057021,44.2189395 4.88211064,44.0930233 4.63904681,44.0930233 C4.39598298,44.0930233 4.1675234,44.2191628 4.02311489,44.432707 C3.24765957,45.5800186 2.06042553,46.2381767 0.765957447,46.2381767 C0.342944681,46.2381767 0,46.6129116 0,47.075386 C0,47.5378605 0.342944681,47.9125953 0.765957447,47.9125953 C2.21310638,47.9125953 3.60551489,47.2840186 4.63945532,46.1950884 C5.67329362,47.2841302 7.06437447,47.9125953 8.50948085,47.9125953 C9.95826383,47.9125953 11.3514894,47.2844651 12.3857362,46.1958698 C13.4174298,47.2843535 14.8087149,47.9125953 16.2566809,47.9125953 C17.724766,47.9125953 19.0945021,47.297414 20.1305872,46.1973209 C21.1621787,47.2849116 22.5529532,47.9125953 24.0003064,47.9125953 C25.446434,47.9125953 26.8378213,47.2850233 27.8715574,46.1973209 C28.9053957,47.297414 30.274417,47.9125953 31.7437277,47.9125953 C33.1907745,47.9125953 34.583183,47.2840186 35.6171234,46.1950884 C36.6510638,47.2840186 38.0433702,47.9125953 39.4906213,47.9125953 C40.9385872,47.9125953 42.3297702,47.2844651 43.3614638,46.1959814 C44.3954043,47.2843535 45.7874043,47.9125953 47.2340426,47.9125953 C47.6570553,47.9125953 48,47.5378605 48,47.075386 C48,46.6129116 47.6570553,46.2381767 47.2340426,46.2381767 Z" id="Path"></path>
                            <path d="M0.765957447,40.744186 C2.21310638,40.744186 3.60551489,40.1156093 4.63945532,39.0266791 C5.22321702,39.6416372 5.92095319,40.1094698 6.6779234,40.4004837 C6.71468936,40.4175628 6.75319149,40.4307349 6.79261277,40.4414512 C7.34236596,40.6383628 7.92122553,40.744186 8.50948085,40.744186 C9.09865532,40.744186 9.67822979,40.6386977 10.2285957,40.4421209 C10.2666894,40.4316279 10.303966,40.419014 10.3395064,40.4026047 C11.0998468,40.1119256 11.8003404,39.6436465 12.3857362,39.0274605 C13.4174298,40.1159442 14.8087149,40.744186 16.2566809,40.744186 C17.724766,40.744186 19.0945021,40.1290047 20.1305872,39.0289116 C20.7133277,39.6433116 21.4108596,40.1108093 22.1684426,40.4013767 C22.205617,40.4186791 22.2445277,40.4319628 22.2844596,40.4427907 C22.8337021,40.6389209 23.4120511,40.744186 24.0003064,40.744186 C24.5875404,40.744186 25.1652766,40.6390326 25.7142128,40.4432372 C25.7549617,40.4322977 25.7947915,40.4186791 25.8326809,40.4009302 C26.5899574,40.1102512 27.2877957,39.6430884 27.8715574,39.0288 C28.9053957,40.1290047 30.274417,40.744186 31.7437277,40.744186 C33.1907745,40.744186 34.583183,40.1156093 35.6171234,39.0266791 C36.6510638,40.1156093 38.0433702,40.744186 39.4906213,40.744186 C40.9385872,40.744186 42.3297702,40.1160558 43.3614638,39.0275721 C44.3954043,40.1159442 45.7874043,40.744186 47.2340426,40.744186 C47.6570553,40.744186 48,40.3694512 48,39.9069767 C48,39.4445023 47.6570553,39.0697674 47.2340426,39.0697674 C45.9396766,39.0697674 44.7523404,38.4116093 43.9765787,37.2642977 C43.8321702,37.0506419 43.6036085,36.924614 43.3605447,36.924614 C43.1165617,36.9248372 42.8878979,37.0514233 42.7436936,37.2655256 C41.9829447,38.3953116 40.7668085,39.0697674 39.4906213,39.0697674 C38.2151489,39.0697674 36.9974809,38.3948651 36.2331574,37.2642977 C36.0887489,37.0506419 35.8601872,36.924614 35.6171234,36.924614 C35.3740596,36.924614 35.1454979,37.0506419 35.0010894,37.2642977 C34.236766,38.3947535 33.0190979,39.0697674 31.7437277,39.0697674 C30.4518128,39.0697674 29.2657021,38.4116093 28.489634,37.264186 C28.3451234,37.0506419 28.1165617,36.924614 27.8736,36.924614 C27.6306383,36.924614 27.4020766,37.0506419 27.2576681,37.2642977 C26.9885617,37.6623628 26.662366,38.002493 26.2980766,38.2779907 L26.2980766,11.0646698 C26.2980766,7.78169302 28.7416851,5.11066047 31.7453617,5.11066047 C34.7490383,5.11066047 37.1926468,7.78169302 37.1926468,11.0646698 C37.1926468,12.4495256 38.2234213,13.5762977 39.4905191,13.5762977 C40.757617,13.5762977 41.7883915,12.4495256 41.7883915,11.0646698 C41.7883915,5.01175814 37.2831319,0.0874046512 31.7453617,0.0874046512 C26.2075915,0.0874046512 21.7023319,5.01175814 21.7023319,11.0646698 L21.7023319,20.1804279 L10.8073532,20.1804279 L10.8073532,11.0646698 C10.8073532,7.78169302 13.2509617,5.11066047 16.2546383,5.11066047 C17.5654468,5.11066047 18.8337702,5.63084651 19.8260426,6.57544186 C20.1449872,6.87940465 20.6288681,6.84290233 20.9067574,6.49406512 C21.1845447,6.14545116 21.1512511,5.61655814 20.8322043,5.31293023 C19.5610213,4.10277209 17.9353532,3.43624186 16.2547404,3.43624186 C12.406366,3.43624186 9.27554043,6.85830698 9.27554043,11.0646698 L9.27554043,20.1804279 L7.74362553,20.1804279 L7.74362553,11.0646698 C7.74362553,5.93503256 11.5616681,1.76182326 16.2547404,1.76182326 C18.1285787,1.76182326 19.9075404,2.41819535 21.399217,3.65983256 C21.7355234,3.9400186 22.2162383,3.8688 22.4726809,3.50098605 C22.7289191,3.13317209 22.663966,2.60785116 22.3273532,2.32766512 C20.5666723,0.861990698 18.4667234,0.0874046512 16.2547404,0.0874046512 C10.7169702,0.0874046512 6.21171064,5.01175814 6.21171064,11.0646698 L6.21171064,38.2755349 C5.84895319,38.0003721 5.52388085,37.6611349 5.25538723,37.2640744 C5.1108766,37.0505302 4.88241702,36.924614 4.63935319,36.924614 C4.39628936,36.924614 4.16782979,37.0507535 4.02342128,37.2642977 C3.24765957,38.4116093 2.06042553,39.0697674 0.765957447,39.0697674 C0.342944681,39.0697674 0,39.4445023 0,39.9069767 C0,40.3694512 0.342944681,40.744186 0.765957447,40.744186 Z M20.7469277,37.2655256 C20.6028255,37.0516465 20.3745702,36.9251721 20.1316085,36.924614 C19.8876255,36.924614 19.6594723,37.0500837 19.5149617,37.2628465 C18.7354213,38.4112744 17.5477787,39.0697674 16.2566809,39.0697674 C14.9804936,39.0697674 13.7642553,38.3953116 13.0035064,37.2655256 C12.8593021,37.0514233 12.6306383,36.9248372 12.3873702,36.924614 C12.1436936,36.924614 11.9150298,37.0506419 11.7706213,37.2642977 C11.5006979,37.6635907 11.1732766,38.004614 10.8073532,38.2805581 L10.8073532,33.5758884 L21.7023319,33.5758884 L21.7023319,38.2776558 C21.3392681,38.0023814 21.0145021,37.6628093 20.7469277,37.2655256 Z M21.7023319,25.2036837 L21.7023319,28.5525209 L10.8073532,28.5525209 L10.8073532,25.2036837 L21.7023319,25.2036837 L21.7023319,25.2036837 Z M9.2754383,28.5525209 L7.7435234,28.5525209 L7.7435234,25.2036837 L9.2754383,25.2036837 L9.2754383,28.5525209 Z M7.7435234,30.2269395 L21.7023319,30.2269395 L21.7023319,31.9013581 L7.7435234,31.9013581 L7.7435234,30.2269395 Z M23.2342468,11.0646698 C23.2342468,5.93503256 27.0522894,1.76182326 31.7453617,1.76182326 C36.438434,1.76182326 40.2564766,5.93503256 40.2564766,11.0646698 C40.2564766,11.5263628 39.912817,11.9018791 39.4905191,11.9018791 C39.0681191,11.9018791 38.7245617,11.5263628 38.7245617,11.0646698 C38.7245617,6.85830698 35.5937362,3.43624186 31.7453617,3.43624186 C27.8969872,3.43624186 24.7661617,6.85830698 24.7661617,11.0646698 L24.7661617,38.9868279 C24.5153362,39.0405209 24.2590979,39.0697674 24.0002043,39.0697674 C23.7412085,39.0697674 23.4849702,39.0406326 23.2342468,38.9868279 L23.2342468,11.0646698 Z M21.7023319,21.8548465 L21.7023319,23.5292651 L7.7435234,23.5292651 L7.7435234,21.8548465 L21.7023319,21.8548465 Z M7.7435234,33.5757767 L9.2754383,33.5757767 L9.2754383,38.9870512 C9.02461277,39.0406326 8.76837447,39.0697674 8.50948085,39.0697674 C8.25058723,39.0697674 7.99434894,39.0404093 7.7435234,38.986493 L7.7435234,33.5757767 Z" id="Shape"></path>
                        </g>
                    </g>
                </g>
            </g>
        </g>
    </g>
</svg>