<?xml version="1.0" encoding="UTF-8"?>
<svg width="48px" height="48px" viewBox="0 0 48 48" version="1.1" xmlns="http://www.w3.org/2000/svg" xmlns:xlink="http://www.w3.org/1999/xlink">
    <!-- Generator: sketchtool 61.2 (101010) - https://sketch.com -->
    <title>5A540627-8D0C-4809-BBD6-64BE8B4B7B86</title>
    <desc>Created with sketchtool.</desc>
    <g id="Pac-primário" stroke="none" stroke-width="1" fill="none" fill-rule="evenodd">
        <g id="Home-v2---areas-de-aplicação" transform="translate(-336.000000, -1293.000000)" fill="#000000" fill-rule="nonzero">
            <g id="Group-8" transform="translate(336.000000, 740.000000)">
                <g id="Group-3" transform="translate(0.000000, 241.000000)">
                    <g id="5-copy-4" transform="translate(0.000000, 312.000000)">
                        <g id="tiles-(1)">
                            <path d="M0.813559322,48 L46.3728814,48 C46.8219661,48 47.1864407,47.6355254 47.1864407,47.1864407 L47.1864407,24.4067797 C47.1864407,23.9576949 46.8219661,23.5932203 46.3728814,23.5932203 L24.4067797,23.5932203 L24.4067797,1.62711864 C24.4067797,1.1780339 24.0423051,0.813559322 23.5932203,0.813559322 L0.813559322,0.813559322 C0.364474576,0.813559322 0,1.1780339 0,1.62711864 L0,47.1864407 C0,47.6355254 0.364474576,48 0.813559322,48 Z M22.779661,33.3144407 C18.4848814,32.9174237 15.0825763,29.5151186 14.6855593,25.220339 L22.779661,25.220339 L22.779661,33.3144407 Z M22.779661,34.9521356 L22.779661,37.3985085 C16.2345763,36.980339 11.019661,31.7654237 10.6014915,25.220339 L13.0478644,25.220339 C13.4554576,30.4165424 17.5834576,34.5445424 22.779661,34.9521356 L22.779661,34.9521356 Z M24.4067797,25.220339 L32.5008814,25.220339 C32.1038644,29.5151186 28.7015593,32.9174237 24.4067797,33.3144407 L24.4067797,25.220339 Z M14.6855593,23.5932203 C15.0825763,19.2984407 18.4848814,15.8961356 22.779661,15.4991186 L22.779661,23.5932203 L14.6855593,23.5932203 Z M22.779661,13.8614237 C17.5834576,14.2690169 13.4554576,18.3970169 13.0478644,23.5932203 L10.6014915,23.5932203 C11.019661,17.0481356 16.2345763,11.8332203 22.779661,11.4150508 L22.779661,13.8614237 Z M8.99064407,25.220339 C9.41125424,32.6546441 15.3453559,38.5887458 22.779661,39.0093559 L22.779661,46.3728814 L12.9754576,46.3728814 C12.5621695,40.2850169 7.71498305,35.4378305 1.62711864,35.0245424 L1.62711864,25.220339 L8.99064407,25.220339 Z M1.62711864,39.9124068 C5.02291525,40.2972203 7.70277966,42.9770847 8.08759322,46.3728814 L1.62711864,46.3728814 L1.62711864,39.9124068 Z M9.72610169,46.3728814 C9.32827119,42.075661 5.92433898,38.6717288 1.62711864,38.2738983 L1.62711864,36.6410847 C6.82332203,37.048678 10.951322,41.176678 11.3589153,46.3728814 L9.72610169,46.3728814 Z M35.8275254,46.3728814 C36.2351186,41.176678 40.3631186,37.048678 45.559322,36.6410847 L45.559322,38.2738983 C41.2621017,38.6717288 37.8581695,42.075661 37.460339,46.3728814 L35.8275254,46.3728814 Z M39.0988475,46.3728814 C39.483661,42.9770847 42.1635254,40.2972203 45.559322,39.9124068 L45.559322,46.3728814 L39.0988475,46.3728814 Z M45.559322,35.0245424 C39.4714576,35.4378305 34.6242712,40.2850169 34.2109831,46.3728814 L24.4067797,46.3728814 L24.4067797,39.0093559 C31.8410847,38.5887458 37.7751864,32.6546441 38.1957966,25.220339 L45.559322,25.220339 L45.559322,35.0245424 Z M36.5849492,25.220339 C36.1667797,31.7654237 30.9518644,36.980339 24.4067797,37.3985085 L24.4067797,34.9521356 C29.6029831,34.5445424 33.7309831,30.4165424 34.1385763,25.220339 L36.5849492,25.220339 Z M22.779661,9.80420339 C15.3453559,10.2248136 9.41125424,16.1589153 8.99064407,23.5932203 L1.62711864,23.5932203 L1.62711864,13.7890169 C7.71498305,13.3757288 12.5621695,8.52854237 12.9754576,2.44067797 L22.779661,2.44067797 L22.779661,9.80420339 Z M11.3589153,2.44067797 C10.951322,7.63688136 6.82332203,11.7648814 1.62711864,12.1724746 L1.62711864,10.539661 C5.92433898,10.1418305 9.32827119,6.73789831 9.72610169,2.44067797 L11.3589153,2.44067797 Z M8.08759322,2.44067797 C7.70277966,5.83647458 5.02291525,8.51633898 1.62711864,8.90115254 L1.62711864,2.44067797 L8.08759322,2.44067797 Z" id="Shape"></path>
                            <path d="M26.5220339,14.1852203 L27.2599322,15.6602034 C27.3477966,15.8375593 27.4454237,16.0108475 27.5487458,16.1816949 L26.071322,20.9084746 C25.9362712,21.3372203 26.1746441,21.7936271 26.6033898,21.928678 C26.6823051,21.9530847 26.7644746,21.9661017 26.8474576,21.9661017 C26.9304407,21.9661017 27.0126102,21.9538983 27.0915254,21.9294915 L31.735322,20.4772881 L34.5014237,22.1369492 C35.2027119,22.5567458 36.0040678,22.779661 36.8216949,22.779661 L39.4446102,22.779661 C41.9373559,22.779661 43.9574237,20.7595932 43.9582373,18.267661 C43.9582373,17.6932881 43.8484068,17.1246102 43.6352542,16.5909153 L43.1812881,15.4576271 C44.0607458,13.227661 44.0021695,10.7365424 43.0185763,8.54969492 L47.7502373,3.81722034 C48.0675254,3.49911864 48.0675254,2.98494915 47.7502373,2.66684746 L45.3209492,0.238372881 C45.003661,-0.0789152542 44.4878644,-0.0789152542 44.1705763,0.238372881 L39.6764746,4.73247458 C38.6896271,4.10684746 37.5880678,3.68298305 36.4368814,3.48528814 L35.7705763,3.37383051 C35.2913898,3.29410169 34.8065085,3.25423729 34.3208136,3.25423729 L33.2452881,3.25423729 C29.0717288,3.27538983 25.7060339,6.67525424 25.7262812,10.848 C25.7320678,12.0065085 26.0046102,13.1487458 26.5220339,14.1852203 L26.5220339,14.1852203 Z M30.4743051,12.2725424 C31.0267119,10.5242034 32.647322,9.33477966 34.4802712,9.33071186 C34.6169492,9.33071186 34.7560678,9.33722034 34.8943729,9.35105085 C35.5777627,9.42183051 36.2334915,9.66101695 36.8021695,10.0474576 L35.2214237,11.6282034 L36.3717966,12.7785763 L37.9525424,11.1978305 C38.3389831,11.7665085 38.5781695,12.4222373 38.6489492,13.1056271 C38.8409492,15.0833898 37.6222373,16.9261017 35.7274576,17.5248814 L28.0865085,19.912678 L30.4743051,12.2725424 Z M41.6672542,14.8612881 L41.5492881,15.1557966 C41.4728136,15.3502373 41.4728136,15.5658305 41.5492881,15.7602712 L42.123661,17.1953898 C42.7159322,18.6736271 41.9983729,20.3528136 40.5201356,20.9450847 C40.1776271,21.0825763 39.8131525,21.1525459 39.4446102,21.1525459 L36.8216949,21.1525459 C36.2993898,21.1533559 35.7860339,21.0134237 35.3369492,20.7457627 L33.8139661,19.8321356 L36.212339,19.0820339 C38.8466441,18.2530169 40.539661,15.6919322 40.2711864,12.9437288 C40.1621695,11.8861017 39.7635254,10.8797288 39.1191864,10.0344407 L39.867661,9.2859661 L40.5006102,9.91891525 C40.8178983,10.2362034 41.3336949,10.2362034 41.6509831,9.91891525 L41.7656949,9.80501695 C42.3416949,11.4475932 42.3067119,13.2423051 41.6672542,14.8612881 L41.6672542,14.8612881 Z M44.7457627,1.9639322 L46.0238644,3.2420339 L41.0725424,8.19335593 L39.7944407,6.91525424 L44.7457627,1.9639322 Z M28.7186441,7.008 C29.835661,5.66074576 31.495322,4.88135593 33.2452881,4.88135593 L34.3208136,4.88135593 C34.7170169,4.88216949 35.1124068,4.91471186 35.5029153,4.97898305 L36.1692203,5.09044068 C36.9868475,5.2279322 37.7751864,5.50454237 38.4992542,5.90888136 L38.0688814,6.3400678 C37.7515932,6.65816949 37.7515932,7.17315254 38.0688814,7.49044068 L38.7140339,8.13559322 L37.9655593,8.8840678 C35.4199322,6.94698305 31.7857627,7.44 29.8478644,9.98562712 C29.4353898,10.5274576 29.1221695,11.1368136 28.9220339,11.7868475 L28.2378305,13.9777627 L27.9774915,13.4570847 C27.7374915,12.9762712 27.5642034,12.4645424 27.4608814,11.9373559 C27.1086102,10.1873898 27.5715254,8.37152542 28.7186441,7.0039322 L28.7186441,7.008 Z" id="Shape"></path>
                        </g>
                    </g>
                </g>
            </g>
        </g>
    </g>
</svg>