<?xml version="1.0" encoding="UTF-8"?>
<svg width="48px" height="48px" viewBox="0 0 48 48" version="1.1" xmlns="http://www.w3.org/2000/svg" xmlns:xlink="http://www.w3.org/1999/xlink">
    <!-- Generator: sketchtool 61.2 (101010) - https://sketch.com -->
    <title>DFEC92BA-1692-48CC-8218-BA8590A7D9CB</title>
    <desc>Created with sketchtool.</desc>
    <g id="Pac-primário" stroke="none" stroke-width="1" fill="none" fill-rule="evenodd">
        <g id="Home-v2---areas-de-aplicação" transform="translate(-971.000000, -1293.000000)" fill="#000000" fill-rule="nonzero">
            <g id="Group-8" transform="translate(336.000000, 740.000000)">
                <g id="Group-3" transform="translate(0.000000, 241.000000)">
                    <g id="5-copy-5" transform="translate(635.000000, 312.000000)">
                        <g id="tool-box">
                            <path d="M46.4,24.1472 L46.4,5.6 C46.4,4.2745166 45.3254834,3.2 44,3.2 L32,3.2 L32,2.4 C32,1.0745166 30.9254834,0 29.6,0 L18.4,0 C17.0745166,0 16,1.0745166 16,2.4 L16,3.2 L4,3.2 C2.6745166,3.2 1.6,4.2745166 1.6,5.6 L1.6,24.1472 C0.644519308,24.4850036 0.00420111481,25.3865717 0,26.4 L0,45.6 C0,46.9254834 1.0745166,48 2.4,48 L45.6,48 C46.9254834,48 48,46.9254834 48,45.6 L48,26.4 C47.9957989,25.3865717 47.3554807,24.4850036 46.4,24.1472 Z M17.6,2.4 C17.6,1.9581722 17.9581722,1.6 18.4,1.6 L29.6,1.6 C30.0418278,1.6 30.4,1.9581722 30.4,2.4 L30.4,3.2 L17.6,3.2 L17.6,2.4 Z M3.2,5.6 C3.2,5.1581722 3.5581722,4.8 4,4.8 L44,4.8 C44.4418278,4.8 44.8,5.1581722 44.8,5.6 L44.8,24 L43.2,24 L43.2,7.2 C43.2,6.7581722 42.8418278,6.4 42.4,6.4 L5.6,6.4 C5.1581722,6.4 4.8,6.7581722 4.8,7.2 L4.8,24 L3.2,24 L3.2,5.6 Z M33.6,24 L33.6,17.6 L34.4,17.6 C34.8418278,17.6 35.2,17.2418278 35.2,16.8 L35.2,16 L36,16 C36,16.8836556 36.7163444,17.6 37.6,17.6 L39.2,17.6 C39.6418278,17.6 40,17.2418278 40,16.8 L40,10.4 C40,9.9581722 39.6418278,9.6 39.2,9.6 L37.6,9.6 C36.7163444,9.6 36,10.3163444 36,11.2 L35.2,11.2 C35.2,10.3163444 34.4836556,9.6 33.6,9.6 L29.6,9.6 C25.6253775,9.6044089 22.4044089,12.8253775 22.4,16.8 L22.4,18.4 C22.3998745,18.7398613 22.6144964,19.0427059 22.9352,19.1552 C23.020412,19.1845561 23.1098736,19.1996916 23.2,19.2 C23.4430227,19.2000912 23.6729108,19.0897095 23.8248,18.9 L26.0648,16.1 C26.3571566,15.7328346 26.7524163,15.4612503 27.2,15.32 L27.2,16.8 C27.2,17.2418278 27.5581722,17.6 28,17.6 L28.8,17.6 L28.8,24 L17.6,24 L17.6,21.1776 C17.6040689,20.9070238 17.7430537,20.6563709 17.9704,20.5096 C19.879883,19.2270767 20.9535063,17.0178948 20.7820616,14.7240774 C20.6106169,12.43026 19.2205192,10.4052218 17.1416,9.4208 C16.8943218,9.30402881 16.604529,9.32165552 16.3732267,9.46753648 C16.1419243,9.61341744 16.0011615,9.86733941 16,10.1408 L16,14.7688 L14.4,15.84 L12.8,14.7736 L12.8,10.144 C12.7988385,9.87053941 12.6580757,9.61661744 12.4267733,9.47073648 C12.195471,9.32485552 11.9056782,9.30722881 11.6584,9.424 C9.57944913,10.4081843 8.1892743,12.4331078 8.01782276,14.7268514 C7.84637122,17.020595 8.92006412,19.2296864 10.8296,20.512 C11.0568571,20.6592289 11.1957701,20.9100524 11.2,21.1808 L11.2,24 L6.4,24 L6.4,8 L41.6,8 L41.6,24 L33.6,24 Z M34.4,12.8 L36.8,12.8 C37.2418278,12.8 37.6,12.4418278 37.6,12 L37.6,11.2 L38.4,11.2 L38.4,16 L37.6,16 L37.6,15.2 C37.6,14.7581722 37.2418278,14.4 36.8,14.4 L34.4,14.4 C33.9581722,14.4 33.6,14.7581722 33.6,15.2 L33.6,16 L28.8,16 L28.8,14.4 C28.7711047,13.9467046 28.3925906,13.5952523 27.9384,13.6 C26.7223492,13.5969935 25.5716499,14.1500954 24.8144,15.1016 L24.0496,16.0616 C24.422709,13.2805764 26.7940616,11.2035067 29.6,11.2 L33.6,11.2 L33.6,12 C33.6,12.4418278 33.9581722,12.8 34.4,12.8 Z M30.4,17.6 L32,17.6 L32,24 L30.4,24 L30.4,17.6 Z M11.72,19.18 C10.4902204,18.353081 9.71135204,17.0044808 9.6096919,15.5260295 C9.50803175,14.0475782 10.0949795,12.6050628 11.2,11.6176 L11.2,15.2 C11.19996,15.4674228 11.3335442,15.7171803 11.556,15.8656 L13.956,17.4656 C14.2248295,17.6449596 14.5751705,17.6449596 14.844,17.4656 L17.244,15.8656 C17.4664558,15.7171803 17.60004,15.4674228 17.6,15.2 L17.6,11.6176 C18.7053318,12.6050572 19.2924865,14.0477714 19.1908214,15.5264513 C19.0891563,17.0051312 18.3100753,18.3539113 17.08,19.1808 C16.4079939,19.6247279 16.002627,20.3754074 16,21.1808 L16,24 L12.8,24 L12.8,21.1776 C12.7961429,20.3731685 12.3909738,19.6237557 11.72,19.18 L11.72,19.18 Z M46.4,45.6 C46.4,46.0418278 46.0418278,46.4 45.6,46.4 L2.4,46.4 C1.9581722,46.4 1.6,46.0418278 1.6,45.6 L1.6,26.4 C1.6,25.9581722 1.9581722,25.6 2.4,25.6 L45.6,25.6 C46.0418278,25.6 46.4,25.9581722 46.4,26.4 L46.4,45.6 Z" id="Shape"></path>
                            <path d="M31.2,27.2 L16.8,27.2 C15.4745166,27.2 14.4,28.2745166 14.4,29.6 C14.4,30.9254834 15.4745166,32 16.8,32 L31.2,32 C32.5254834,32 33.6,30.9254834 33.6,29.6 C33.6,28.2745166 32.5254834,27.2 31.2,27.2 Z M31.2,30.4 L16.8,30.4 C16.3581722,30.4 16,30.0418278 16,29.6 C16,29.1581722 16.3581722,28.8 16.8,28.8 L31.2,28.8 C31.6418278,28.8 32,29.1581722 32,29.6 C32,30.0418278 31.6418278,30.4 31.2,30.4 Z" id="Shape"></path>
                        </g>
                    </g>
                </g>
            </g>
        </g>
    </g>
</svg>