<?xml version="1.0" encoding="UTF-8"?>
<svg width="48px" height="48px" viewBox="0 0 48 48" version="1.1" xmlns="http://www.w3.org/2000/svg" xmlns:xlink="http://www.w3.org/1999/xlink">
    <!-- Generator: sketchtool 61.2 (101010) - https://sketch.com -->
    <title>AEAC0A7A-4A75-493B-BB53-42B05876BED2</title>
    <desc>Created with sketchtool.</desc>
    <g id="Pac-primário" stroke="none" stroke-width="1" fill="none" fill-rule="evenodd">
        <g id="Home-v2---areas-de-aplicação" transform="translate(-1290.000000, -1085.000000)" fill="#000000" fill-rule="nonzero">
            <g id="Group-8" transform="translate(336.000000, 740.000000)">
                <g id="Group-3" transform="translate(0.000000, 241.000000)">
                    <g id="3-copy" transform="translate(954.000000, 104.000000)">
                        <g id="windows">
                            <path d="M46.387506,43.112625 L45.8910598,43.112625 L45.8910598,26.7552188 C45.8910598,26.377875 45.5791554,26.0720625 45.1942948,26.0720625 C44.8094343,26.0720625 44.4975299,26.377875 44.4975299,26.7552188 L44.4975299,43.112625 L42.114741,43.112625 L42.114741,4.385625 C42.114741,4.0245 41.8288446,3.72965625 41.4670279,3.70490625 C41.4594741,3.70434375 41.4519203,3.7040625 41.4443665,3.70378125 C41.4355697,3.7035 41.4269641,3.70246875 41.4180717,3.70246875 L6.58192829,3.70246875 C6.57351394,3.70246875 6.56529084,3.70340625 6.55687649,3.7036875 C6.54712351,3.7040625 6.53737052,3.70434375 6.52761753,3.70509375 C6.50744223,3.70659375 6.4876494,3.709125 6.46804781,3.7123125 C6.46183267,3.71334375 6.45561753,3.71390625 6.44949801,3.715125 C6.42243825,3.7201875 6.39595219,3.72675 6.37013546,3.7348125 C6.36841434,3.735375 6.36678884,3.736125 6.36506773,3.73659375 C6.34106773,3.74428125 6.31783267,3.753375 6.2950757,3.7635 C6.28895618,3.76621875 6.28302789,3.769125 6.27700398,3.77203125 C6.25778486,3.78121875 6.23904382,3.79125 6.22078088,3.802125 C6.21705179,3.80428125 6.21313147,3.805875 6.20949801,3.80821875 C6.20749004,3.80953125 6.20567331,3.81103125 6.20366534,3.81234375 C6.18081275,3.826875 6.1587251,3.84225 6.13788048,3.859125 C6.13711554,3.85978125 6.13644622,3.8604375 6.13577689,3.861 C6.11627092,3.87703125 6.09781673,3.8941875 6.08022311,3.9121875 C6.07467729,3.9178125 6.06941833,3.9238125 6.06406375,3.929625 C6.05115538,3.9436875 6.03891633,3.95821875 6.027251,3.9733125 C6.02256574,3.97940625 6.01778486,3.9853125 6.01338645,3.9915 C5.99913944,4.0111875 5.98584861,4.03153125 5.9738008,4.05271875 C5.97303586,4.05403125 5.9721753,4.05525 5.97141036,4.0565625 C5.95831076,4.07990625 5.94683665,4.1041875 5.93650996,4.129125 C5.93459761,4.1338125 5.93306773,4.13859375 5.931251,4.14328125 C5.92360159,4.1630625 5.91681275,4.18321875 5.91098008,4.2039375 C5.90897211,4.21096875 5.90715538,4.21809375 5.90543426,4.22521875 C5.90065339,4.24453125 5.8969243,4.264125 5.89386454,4.284 C5.89281275,4.291125 5.89137849,4.29815625 5.89051793,4.30528125 C5.88736255,4.331625 5.88525896,4.35834375 5.88525896,4.38553125 L5.88525896,43.1125313 L3.50247012,43.1125313 L3.50247012,26.7580313 C3.50247012,26.3806875 3.19056574,26.074875 2.80570518,26.074875 C2.42084462,26.074875 2.10894024,26.3806875 2.10894024,26.7580313 L2.10894024,43.112625 L1.61249402,43.112625 C0.756334661,43.112625 0.0596653386,43.7956875 0.0596653386,44.635125 L0.0596653386,46.4775 C0.0596653386,47.3169375 0.756334661,48 1.61249402,48 L46.3874104,48 C47.2435697,48 47.9402391,47.3169375 47.9402391,46.4775 L47.9402391,44.635125 C47.9402391,43.7956875 47.243761,43.112625 46.387506,43.112625 Z M40.7188207,5.46590625 L40.7188207,43.112625 L39.7824382,43.112625 L31.0189004,39.9006563 L31.0189004,9.97828125 L40.7188207,5.46590625 Z M38.321498,5.06878125 L30.3512988,8.7765 C29.9035219,8.9848125 29.6253705,9.39984375 29.6253705,9.85959375 L29.6253705,40.0288125 C29.6253705,40.526625 29.9530518,40.9685625 30.4603028,41.1546563 L35.802741,43.112625 L12.1947729,43.112625 L17.5373068,41.1545625 C18.0444622,40.9686562 18.3721434,40.5268125 18.3721434,40.0288125 L18.3721434,9.8596875 C18.3721434,9.40003125 18.0940876,8.985 17.6463108,8.77659375 L9.67592032,5.06878125 L38.321498,5.06878125 Z M7.27859761,5.46590625 L16.9785179,9.97828125 L16.9785179,39.9008437 L8.21498008,43.1127187 L7.27859761,43.1127187 L7.27859761,5.46590625 Z M46.3876016,46.6337813 L1.61258964,46.6337813 C1.52471713,46.6337813 1.45319522,46.5636563 1.45319522,46.4775 L1.45319522,44.635125 C1.45319522,44.5489688 1.52471713,44.4788438 1.61258964,44.4788438 L2.80570518,44.4788438 L6.58192829,44.4788438 L8.34100398,44.4788438 L39.6564143,44.4788438 L41.41549,44.4788438 L41.4180717,44.4788438 L45.1943904,44.4788438 L46.387506,44.4788438 C46.4753785,44.4788438 46.5469005,44.5489688 46.5469005,44.635125 L46.5469005,46.4775 L46.5469005,46.4775 C46.5469005,46.5636563 46.4754741,46.6337813 46.3876016,46.6337813 Z" id="Shape"></path>
                            <path d="M44.0881912,0 L3.91180876,0 C2.91767331,0 2.10903586,0.7929375 2.10903586,1.76765625 L2.10903586,23.4687188 C2.10903586,23.8460625 2.42094024,24.151875 2.8058008,24.151875 C3.19066135,24.151875 3.50256574,23.8460625 3.50256574,23.4687188 L3.50256574,1.76765625 C3.50256574,1.5463125 3.68624701,1.36621875 3.912,1.36621875 L44.0883825,1.36621875 C44.3141355,1.36621875 44.4978167,1.5463125 44.4978167,1.76765625 L44.4978167,23.5047188 C44.4978167,23.8820625 44.8097211,24.187875 45.1945817,24.187875 C45.5794422,24.187875 45.8913466,23.8820625 45.8913466,23.5047187 L45.8913466,1.76765625 C45.8913466,0.7929375 45.0824223,0 44.0881912,0 Z" id="Path"></path>
                            <path d="M38.4501992,8.7215625 C38.319012,8.7215625 38.1882072,8.75175 38.0719363,8.80865625 L33.2065339,11.194875 C32.9299124,11.3304375 32.7580876,11.6000625 32.7580876,11.8984688 L32.7580876,23.34675 C32.757992,23.78775 33.1377849,24.1490625 33.6043984,24.1519688 L38.4639681,24.1828125 C38.465498,24.1828125 38.4683665,24.1828125 38.4698964,24.1828125 C38.9328765,24.1828125 39.3094183,23.8243125 39.3094183,23.3835 L39.3094183,9.53803125 C39.3094183,9.08784375 38.9240797,8.7215625 38.4501992,8.7215625 Z M37.9157928,22.813125 L34.1513307,22.7893125 L34.1513307,12.2589375 L37.9157928,10.4128125 L37.9157928,22.813125 Z" id="Shape"></path>
                            <path d="M38.4616733,25.14825 L33.6015299,25.1961563 C33.1364462,25.2010313 32.757992,25.562625 32.757992,26.002125 L32.757992,38.0360625 C32.7578964,38.3585625 32.9589801,38.6455312 33.2710757,38.7675938 L38.1359044,40.6624688 C38.2358247,40.701375 38.3412908,40.7210625 38.4497211,40.7210625 C38.9236972,40.7210625 39.3093227,40.3545 39.3093227,39.9040313 L39.3093227,25.947 C39.3093227,25.5065625 38.9330677,25.14825 38.4616733,25.14825 Z M37.9157928,39.1065938 L34.1513307,37.6403437 L34.1513307,26.5570313 L37.9157928,26.5198125 L37.9157928,39.1065938 Z" id="Shape"></path>
                            <path d="M14.3956972,25.1961563 L9.52713944,25.14825 C9.06454183,25.14825 8.68828683,25.5065625 8.68828683,25.947 L8.68828683,39.9040313 C8.68819124,40.3545 9.07381673,40.7210625 9.54779283,40.7210625 C9.65622311,40.7210625 9.76168924,40.7012813 9.86141833,40.6624688 L14.7268207,38.7675 C15.0383426,38.646 15.2395219,38.3588437 15.2395219,38.0361562 L15.2395219,26.002125 C15.2395219,25.562625 14.8610677,25.2010312 14.3956972,25.1961563 Z M13.8460876,37.6405313 L10.0816255,39.1066875 C10.0816255,39.1066875 10.0816255,26.52 10.0816255,26.52 L13.8460876,26.557125 L13.8460876,37.6405313 Z" id="Shape"></path>
                            <path d="M14.7913625,11.194875 L9.92557769,8.80865625 C9.80940239,8.75175 9.67859761,8.7215625 9.54741036,8.7215625 C9.0736255,8.7215625 8.68819124,9.08784375 8.68819124,9.53803125 L8.68819124,23.3835937 C8.68819124,23.8243125 9.06482869,24.1829062 9.52761753,24.1829062 C9.52914741,24.1829062 9.53192032,24.1829062 9.5334502,24.1829062 L14.3931155,24.1520625 C14.8598247,24.1491562 15.2395219,23.7878438 15.2395219,23.34675 L15.2395219,11.8984687 C15.2395219,11.6003437 15.0679841,11.3308125 14.7913625,11.194875 Z M13.8460876,22.7893125 L10.0816255,22.813125 C10.0816255,22.813125 10.0816255,10.4128125 10.0816255,10.4128125 L13.8460876,12.2589375 L13.8460876,22.7893125 Z" id="Shape"></path>
                        </g>
                    </g>
                </g>
            </g>
        </g>
    </g>
</svg>