<?xml version="1.0" encoding="UTF-8"?>
<svg width="48px" height="48px" viewBox="0 0 48 48" version="1.1" xmlns="http://www.w3.org/2000/svg" xmlns:xlink="http://www.w3.org/1999/xlink">
    <!-- Generator: sketchtool 61.2 (101010) - https://sketch.com -->
    <title>C1674157-C1D4-4108-A60E-4438A86D87B1</title>
    <desc>Created with sketchtool.</desc>
    <g id="Pac-primário" stroke="none" stroke-width="1" fill="none" fill-rule="evenodd">
        <g id="Home-v2---areas-de-aplicação" transform="translate(-972.000000, -1191.000000)" fill="#000000" fill-rule="nonzero">
            <g id="Group-8" transform="translate(336.000000, 740.000000)">
                <g id="Group-3" transform="translate(0.000000, 241.000000)">
                    <g id="3-copy" transform="translate(636.000000, 210.000000)">
                        <g id="wood-board">
                            <g id="Group">
                                <path d="M20.4110576,47.9034319 C20.406911,47.9038319 20.4027644,47.9042319 20.3986178,47.9047319 C20.4050262,47.9041319 20.4114346,47.9034319 20.4110576,47.9034319 Z" id="Path"></path>
                                <path d="M20.3986178,47.9046482 C20.3922094,47.9053482 20.385801,47.9059482 20.386178,47.9059482 C20.3904503,47.9056482 20.3945969,47.9051482 20.3986178,47.9046482 Z" id="Path"></path>
                                <path d="M21.2372356,42.7885848 L21.2372356,12.0888889 C21.2372356,11.7012398 20.8154136,11.3870409 20.2947016,11.3870409 C19.7741152,11.3870409 19.3521675,11.7011462 19.3521675,12.0888889 L19.3521675,20.2329825 C17.2198115,11.9003509 16.4349738,3.82802339 16.2350576,1.40369591 L19.3521675,1.40369591 L19.3521675,9.28159064 C19.3521675,9.66923977 19.7739895,9.9834386 20.2947016,9.9834386 C20.815288,9.9834386 21.2372356,9.66933333 21.2372356,9.28159064 L21.2372356,0.701847953 C21.2372356,0.31419883 20.8154136,0 20.2947016,0 L1.05210471,0 C0.531518325,0 0.109570681,0.314105263 0.109570681,0.701847953 L0.109570681,33.4732164 C0.109570681,33.8608655 0.53139267,34.1750643 1.05210471,34.1750643 C1.57281675,34.1750643 1.99463874,33.8609591 1.99463874,33.4732164 L1.99463874,11.0172632 C3.88033508,16.0323743 6.25432461,26.8460351 3.46605236,46.5025497 L1.99463874,46.5025497 L1.99463874,36.2805146 C1.99463874,35.8929591 1.57281675,35.5786667 1.05210471,35.5786667 C0.53139267,35.5786667 0.109570681,35.8928655 0.109570681,36.2805146 L0.109570681,47.2043041 C0.109570681,47.5919532 0.53139267,47.9062456 1.05210471,47.9062456 L4.31195812,47.9062456 C4.31271204,47.9062456 4.31346597,47.9062456 4.3142199,47.9062456 C4.31509948,47.9062456 4.31597906,47.9062456 4.31685864,47.9062456 L8.01687958,47.9062456 C8.0173822,47.9062456 20.410555,47.9002573 20.4110576,47.9002573 C20.431288,47.898386 20.451644,47.8962339 20.4718743,47.8933333 C20.4856963,47.8913684 20.4991414,47.8889357 20.512712,47.8865029 C20.5267853,47.8839766 20.5408586,47.8814503 20.5548063,47.8784561 C20.5710157,47.8749942 20.5869738,47.8710643 20.6029319,47.8670409 C20.609089,47.8654503 20.6153717,47.8643275 20.6215288,47.8625497 C20.6263037,47.8612398 20.6305759,47.8595556 20.6353508,47.858152 C20.6545759,47.8526316 20.6734241,47.8465497 20.6920209,47.8400936 C20.7027016,47.8363509 20.7133822,47.8326082 20.7239372,47.8286784 C20.7397696,47.8225965 20.7553508,47.8161404 20.7706806,47.8094035 C20.7831204,47.8039766 20.7954346,47.7985497 20.8074974,47.7927485 C20.8199372,47.7867602 20.8318743,47.7803977 20.8438115,47.7740351 C20.8573822,47.7668304 20.8708272,47.7595322 20.8837696,47.7517661 C20.893822,47.7457778 20.9033717,47.7395088 20.9130471,47.7332398 C20.9264921,47.724538 20.9398115,47.7158363 20.9525026,47.7065731 C20.9615497,47.7000234 20.9700942,47.693193 20.9786387,47.6863626 C20.9905759,47.6769123 21.0025131,47.6675556 21.0136963,47.657731 C21.0227435,47.6497778 21.0311623,47.6415439 21.0398325,47.6332164 C21.0493822,47.6240468 21.0589319,47.6148772 21.0677277,47.6054269 C21.0770262,47.5955088 21.0855707,47.5852164 21.0942408,47.5750175 C21.1012775,47.5665965 21.1084398,47.558269 21.1149738,47.5496608 C21.1238953,47.5379649 21.1319372,47.5259883 21.1399791,47.5138246 C21.1451309,47.5058713 21.150534,47.4981053 21.1553089,47.4900585 C21.1628482,47.4774269 21.1695079,47.4646082 21.1761675,47.4516023 C21.1803141,47.4432749 21.184712,47.4349474 21.1884817,47.4265263 C21.1940105,47.4141754 21.1987853,47.4016374 21.2033089,47.3890994 C21.2069529,47.3791813 21.2105969,47.3692632 21.2136126,47.3592515 C21.2170052,47.348117 21.2197696,47.3367953 21.2224084,47.3254737 C21.2252984,47.3133099 21.2279372,47.3011462 21.2299476,47.2888889 C21.2314555,47.2792515 21.2325864,47.2695205 21.2337173,47.2597895 C21.2352251,47.2455673 21.2362304,47.231345 21.2366073,47.2170292 C21.236733,47.2128187 21.2374869,47.2087018 21.2374869,47.2043977 C21.2372356,47.2022456 21.2372356,42.7907368 21.2372356,42.7885848 Z M7.20175916,46.5024561 L5.36117277,46.5024561 C6.57813613,37.8464561 7.48837696,25.732117 5.27472251,15.6608187 C4.07987435,10.2243743 2.46320419,7.60683041 1.99438743,6.93071345 L1.99438743,1.40369591 L2.9222199,1.40369591 C4.02006283,2.48898246 6.10102618,5.46320468 7.56301571,10.5337076 C8.72758115,14.5726316 9.35359162,19.314807 9.42358115,24.6284912 C9.50877487,31.1126082 8.76113089,38.4692398 7.20175916,46.5024561 Z M14.1009424,46.5024561 L14.1009424,46.5024561 C13.3544293,43.8320468 12.720377,39.7970526 13.6554974,38.1567251 C14.1302199,38.5919064 15.1331937,39.7556023 16.9217592,42.8351813 C17.7391414,44.2425263 18.472712,45.6237661 18.9283351,46.5024561 L14.1009424,46.5024561 Z M19.3521675,43.5111111 C19.0826387,43.0266199 18.7957696,42.5216374 18.4992251,42.0164678 C15.6350576,37.1360936 14.52,36.6306433 13.6998534,36.5399766 C13.2079162,36.4854269 12.7463874,36.6308304 12.4332565,36.9382924 C10.4224084,38.9130292 11.5969005,44.3188772 12.1790576,46.5024561 L9.10705759,46.5024561 C10.6679372,38.4027135 11.4076649,30.982924 11.3062618,24.4369591 C11.222199,19.0091228 10.5625131,14.1622456 9.34580105,10.0309708 C8.00268063,5.47106433 6.27367539,2.77988304 5.16678534,1.40360234 L10.2139476,1.40360234 C10.5553508,3.49033918 11.7333613,10.5745965 13.2451099,18.3850292 C15.6373194,30.7453567 17.691644,38.9930292 19.3521675,42.9056374 L19.3521675,43.5111111 L19.3521675,43.5111111 Z M19.3521675,37.0600234 C16.1793927,25.7135906 12.8050681,5.61403509 12.113089,1.40369591 L14.3465969,1.40369591 C14.5852147,4.33469006 15.7433717,16.3480702 19.3520419,26.6866901 L19.3520419,37.0600234 L19.3521675,37.0600234 Z" id="Shape"></path>
                                <path d="M20.2949529,47.909681 C20.3253613,47.909681 20.3557696,47.908181 20.3863037,47.905781 L20.2916859,47.909481 C20.2928168,47.909481 20.293822,47.909681 20.2949529,47.909681 Z" id="Path"></path>
                            </g>
                            <path d="M46.9477696,0 L44.0358534,0 C44.0335916,0 44.0312042,0 44.0288168,0 L33.6696126,0 C33.668356,0 33.6670995,0 33.6657173,0 L27.7051728,0 C27.1845864,0 26.7626387,0.314105263 26.7626387,0.701847953 L26.7626387,9.04898246 C26.7626387,9.05132164 26.7626387,9.05366082 26.7626387,9.05609357 L26.7626387,18.5381053 C26.7626387,18.5395088 26.7626387,18.5408187 26.7626387,18.5422222 L26.7626387,47.2043977 C26.7626387,47.5920468 27.1844607,47.9062456 27.7051728,47.9062456 L46.9477696,47.9062456 C47.468356,47.9062456 47.8904293,47.5921404 47.8904293,47.2043977 L47.8904293,37.2307836 C47.8904293,36.8431345 47.4684817,36.5289357 46.9477696,36.5289357 C46.4271832,36.5289357 46.0052356,36.8430409 46.0052356,37.2307836 L46.0052356,46.5024561 L43.2301571,46.5024561 C43.1056335,38.4280702 43.3865969,27.0923977 45.3319791,17.5915789 C45.5565236,16.4948772 45.7839581,15.5195322 46.0053613,14.6580585 L46.0053613,34.4235789 C46.0053613,34.8112281 46.4271832,35.1254269 46.9478953,35.1254269 C47.4684817,35.1254269 47.8904293,34.8113216 47.8904293,34.4235789 L47.8904293,9.0451462 C47.8904293,9.04392982 47.8904293,9.04261988 47.8904293,9.04140351 L47.8904293,0.701847953 C47.8904293,0.314105263 47.4684817,0 46.9477696,0 Z M33.9914136,13.9928889 C34.3735288,13.9928889 34.7317696,13.8575906 34.9751623,13.615345 C35.2985969,13.2935673 35.9718534,12.6238129 35.3626806,6.42816374 C35.1645236,4.41272515 34.8914764,2.45211696 34.7370471,1.40369591 L36.5087749,1.40369591 C36.9638953,3.92252632 38.4841885,13.8511345 35.2554974,18.9905029 C34.7355393,19.8181988 34.3424921,19.9756725 34.2316649,19.9659415 C34.1728586,19.9607953 32.7679162,19.7800234 30.5879372,14.5508304 C29.5207539,11.9908304 28.7746178,9.42484211 28.6477068,8.97927485 L28.6477068,7.06208187 C28.872,7.49632749 29.1076021,7.94414035 29.3492356,8.39195322 C32.0450262,13.3895673 32.9938429,13.8879064 33.8020524,13.981848 C33.8655079,13.9892398 33.928712,13.9928889 33.9914136,13.9928889 Z M28.6475812,1.40369591 L32.8406702,1.40369591 C32.9849215,2.37277193 33.2647539,4.35097076 33.470199,6.4045848 C33.7907435,9.61160234 33.7555602,11.2218947 33.655288,12.0247953 C32.5223874,10.5914386 30.5053822,6.98329825 28.6477068,2.99387135 L28.6477068,1.40369591 L28.6475812,1.40369591 Z M31.9275393,46.5025497 L28.6477068,46.5025497 L28.6477068,23.7345497 C30.3272042,28.9378246 32.4728796,37.5699649 31.9275393,46.5025497 Z M33.8143665,46.5025497 C34.2560419,39.0847251 32.8724607,31.9495673 31.6087539,27.2060819 C30.3146387,22.3482573 28.9247749,19.0523509 28.6475812,18.4151579 L28.6475812,14.6266199 L28.6475812,14.6266199 C28.6925654,14.7369357 28.737801,14.847345 28.7837906,14.957848 C29.9803979,17.8301754 31.656,21.1537778 34.0115183,21.36 C34.0953298,21.3673918 34.1780105,21.3710409 34.2600628,21.3710409 C35.3094031,21.3709474 36.2177592,20.7712749 36.9627644,19.5852164 C38.6286911,16.933614 39.3505759,12.9229474 39.1084398,7.66474854 C38.9820314,4.91920468 38.6216545,2.58095906 38.4121885,1.40369591 L42.8874974,1.40369591 C42.3167749,3.58502924 40.7473508,9.77955556 39.2911414,17.2944094 C37.6610262,25.706386 35.8528586,37.4968889 36.3403979,46.5025497 L33.8143665,46.5025497 L33.8143665,46.5025497 Z M46.0051099,8.92266667 C45.7145969,9.50736842 44.577801,12.0049591 43.4913927,17.2677427 C41.5083141,26.8742924 41.2195602,38.3354386 41.3449634,46.5025497 L38.2265969,46.5025497 C37.3442513,30.5900351 43.7394346,5.46835088 44.8086283,1.40369591 L46.0052356,1.40369591 L46.0052356,8.92266667 L46.0051099,8.92266667 Z" id="Shape"></path>
                        </g>
                    </g>
                </g>
            </g>
        </g>
    </g>
</svg>