<?xml version="1.0" encoding="UTF-8"?>
<svg width="88px" height="89px" viewBox="0 0 88 89" version="1.1" xmlns="http://www.w3.org/2000/svg" xmlns:xlink="http://www.w3.org/1999/xlink">
    <!-- Generator: sketchtool 60.1 (101010) - https://sketch.com -->
    <title>59BFD08D-D686-49B9-873E-3DC25412B557</title>
    <desc>Created with sketchtool.</desc>
    <g id="Pac-primário" stroke="none" stroke-width="1" fill="none" fill-rule="evenodd">
        <g id="Produto" transform="translate(-336.000000, -1673.000000)" fill="#000000" fill-rule="nonzero">
            <g id="Group-5" transform="translate(40.000000, 1286.000000)">
                <g id="brickwall-(1)" transform="translate(296.000000, 387.000000)">
                    <path d="M1.46697994,88.0839233 L71.8665771,88.0839233 C72.6769409,88.0839233 73.3335572,87.4273072 73.3335572,86.6176147 L73.3335572,73.4174805 L83.5997315,73.4174805 C84.4100952,73.4174805 85.0667115,72.7608643 85.0667115,71.9511719 L85.0667115,57.2840575 C85.0667115,56.4743652 84.4100952,55.8177489 83.5997315,55.8177489 L73.3335572,55.8177489 L73.3335572,42.6176147 C73.3335572,41.8072511 72.6769409,41.1506348 71.8665771,41.1506348 L69.1749877,41.1506348 C69.3817749,40.1918945 69.1629029,39.1901855 68.5754395,38.404663 L61.9481811,29.5705566 L65.0083619,27.2750854 C66.3679199,26.2572631 67.1272583,24.6257935 67.03125,22.9298706 L66.8842163,20.2886353 C66.8439331,19.5722656 67.164856,18.8834229 67.7388917,18.4530639 L70.7984009,16.1582642 L72.0861206,17.8743287 C72.3190918,18.1851808 72.6661987,18.3912963 73.0515747,18.4463501 C73.1200561,18.4557495 73.189209,18.4611206 73.2590332,18.4604492 C73.5765991,18.4611206 73.885437,18.3577271 74.1392212,18.1670533 L86.2402955,9.08923331 C88.1832885,7.63165288 88.5773926,4.87426758 87.119812,2.93060298 L86.3047486,1.8429565 C84.8451538,-0.098022375 82.0891113,-0.490783734 80.1447754,0.964782672 L68.045044,10.0419311 C67.3971557,10.5280151 67.2655639,11.447815 67.7516479,12.0957031 L69.0386964,13.8117676 L65.979187,16.1072388 C64.6196289,17.1250611 63.8596191,18.7558594 63.9562988,20.4517823 L64.1026612,23.0930176 C64.1436158,23.8093873 63.8226928,24.4989013 63.2486573,24.9285888 L60.1891479,27.22406 L53.5612182,18.3899537 C52.8676758,17.4506836 51.7410888,16.9330444 50.576233,17.0183105 C49.4650879,17.098877 48.4721069,17.7434082 47.9450684,18.725647 L35.8936768,41.1506348 L1.46697994,41.1506348 C0.656616125,41.1506348 -1.13686838e-13,41.8072511 -1.13686838e-13,42.6176147 L-1.13686838e-13,57.2840575 C-1.13686838e-13,58.0944213 0.656616125,58.7510376 1.46697994,58.7510376 L11.7331543,58.7510376 L11.7331543,70.4841919 L1.46697994,70.4841919 C0.656616125,70.4841919 -1.13686838e-13,71.1408081 -1.13686838e-13,71.9511719 L-1.13686838e-13,86.6176147 C-1.13686838e-13,87.4273072 0.656616125,88.0839233 1.46697994,88.0839233 L1.46697994,88.0839233 Z M81.9051513,3.31060795 C82.5523682,2.82452397 83.4714966,2.95544425 83.958252,3.60333256 L84.7733153,4.69097905 C85.258728,5.33886719 85.1271362,6.25732422 84.4799194,6.7434082 L73.5517578,14.9417115 L70.9769897,11.5082397 L81.9051513,3.31060795 Z M26.4002685,73.4174805 L46.9332885,73.4174805 L46.9332885,85.1506348 L26.4002685,85.1506348 L26.4002685,73.4174805 Z M38.1334229,58.7510376 L58.6664428,58.7510376 L58.6664428,70.4841919 L38.1334229,70.4841919 L38.1334229,58.7510376 Z M70.4002685,85.1506348 L49.8665771,85.1506348 L49.8665771,73.4174805 L70.4002685,73.4174805 L70.4002685,85.1506348 Z M82.1334229,70.4841919 L61.5997315,70.4841919 L61.5997315,58.7510376 L82.1334229,58.7510376 L82.1334229,70.4841919 Z M70.4002685,55.8177489 L49.8665771,55.8177489 L49.8665771,47.2770385 L64.8787841,44.0839233 L70.4002685,44.0839233 L70.4002685,55.8177489 Z M50.5299073,20.1154174 C50.5795898,20.0126953 50.6829833,19.9468995 50.7971191,19.9435424 L50.8259888,19.9421997 C50.9817505,19.9448853 51.1260987,20.0220948 51.2147216,20.1496582 L57.8413086,28.9837646 L51.7907715,33.5230103 C51.1428833,34.0090943 51.0112915,34.9282227 51.4973755,35.5767823 C51.9834595,36.2246705 52.9025879,36.3555909 53.5511474,35.8701783 L59.6016847,31.3309325 L66.2289428,40.1650391 C66.3343505,40.2939453 66.3652344,40.4678345 66.3095092,40.6242676 C66.2745971,40.7330323 66.1826172,40.8129272 66.0698242,40.8330689 L36.9725952,47.0205689 C36.7919922,47.048767 36.6107177,46.9715575 36.5066529,46.8211669 C36.3898315,46.6801758 36.3663331,46.4841309 36.446228,46.3189698 L50.5299073,20.1154174 Z M34.1608276,48.581543 C34.9423217,49.6564331 36.2837525,50.1687012 37.5828857,49.8894043 L46.9332885,47.9007568 L46.9332885,55.8177489 L26.4002685,55.8177489 L26.4002685,44.0839233 L34.3165893,44.0839233 L33.8620605,44.9298706 C33.2336426,46.1000977 33.3511353,47.5294799 34.1608276,48.581543 L34.1608276,48.581543 Z M2.93328853,49.9511719 L5.86657706,49.9511719 C6.67694087,49.9511719 7.33355717,49.2945558 7.33355717,48.4841919 C7.33355717,47.6744995 6.67694087,47.0178833 5.86657706,47.0178833 L2.93328853,47.0178833 L2.93328853,44.0839233 L23.4669799,44.0839233 L23.4669799,55.8177489 L2.93328853,55.8177489 L2.93328853,49.9511719 Z M14.6664428,58.7510376 L35.2001342,58.7510376 L35.2001342,70.4841919 L14.6664428,70.4841919 L14.6664428,58.7510376 Z M2.93328853,73.4174805 L23.4669799,73.4174805 L23.4669799,85.1506348 L2.93328853,85.1506348 L2.93328853,73.4174805 Z" id="Shape"></path>
                    <path d="M19.0667115,48.4841919 C19.0667115,47.6744995 18.4100952,47.0178833 17.5997315,47.0178833 L11.7331543,47.0178833 C10.923462,47.0178833 10.2668457,47.6744995 10.2668457,48.4841919 C10.2668457,49.2945558 10.923462,49.9511719 11.7331543,49.9511719 L17.5997315,49.9511719 C18.4100952,49.9511719 19.0667115,49.2945558 19.0667115,48.4841919 L19.0667115,48.4841919 Z" id="Shape"></path>
                </g>
            </g>
        </g>
    </g>
</svg>