<svg width="34" height="39" viewBox="0 0 34 39" xmlns="http://www.w3.org/2000/svg"><title>FE9B2484-8C6C-404B-94FF-C38070AD1EED</title><path d="M31.848 15.669L6.456.599a4.161 4.161 0 0 0-4.304 0C.805 1.4 0 2.832 0 4.432V34.57c0 1.6.804 3.032 2.152 3.831.674.4 1.413.6 2.152.6.739 0 1.478-.2 2.152-.6l25.392-15.069C33.196 22.531 34 21.1 34 19.5c0-1.6-.804-3.032-2.152-3.831zm-2.056 4.001L4.399 34.74a.167.167 0 0 1-.19 0c-.096-.057-.096-.134-.096-.17V4.43c0-.036 0-.112.095-.17a.19.19 0 0 1 .098-.029c.043 0 .074.019.093.03l25.393 15.07c.03.018.095.056.095.17 0 .112-.065.15-.095.17z" fill="#FFB919"/></svg>