<?xml version="1.0" encoding="UTF-8"?>
<svg width="48px" height="48px" viewBox="0 0 48 48" version="1.1" xmlns="http://www.w3.org/2000/svg" xmlns:xlink="http://www.w3.org/1999/xlink">
    <title>32D6F1A6-D6DD-4FF0-87AD-312BB9C053F1</title>
    <g id="Pac-primário" stroke="none" stroke-width="1" fill="none" fill-rule="evenodd">
        <g id="Produto" transform="translate(-336.000000, -1550.000000)" fill="#000000" fill-rule="nonzero">
            <g id="Group-5" transform="translate(40.000000, 1286.000000)">
                <g id="wrench-(1)" transform="translate(296.000000, 264.000000)">
                    <path d="M43.7066667,32.189848 C41.9157895,31.1563041 39.8539415,30.8205848 37.8447719,31.2252632 L30.5719766,23.9555556 L37.8502924,16.6803275 C38.3935439,16.788117 38.9391345,16.8406082 39.4802339,16.8405146 C42.4334035,16.8404211 45.2499649,15.2780351 46.7793216,12.630269 C47.9040936,10.6829474 48.2028538,8.41440936 47.6205848,6.24243275 C47.0383158,4.07054971 45.6449123,2.25534503 43.6968421,1.1311345 C39.6757895,-1.18923977 34.515462,0.192842105 32.1938713,4.21239766 C31.1598596,6.00252632 30.8239532,8.06362573 31.2287251,10.0719532 L23.9555556,17.3419415 L23.3650526,16.7517193 C22.9994854,16.3863392 22.4070175,16.3865263 22.0418246,16.752 C21.676538,17.1174737 21.6766316,17.7099415 22.0421053,18.0752281 L22.6320468,18.6648889 L18.6626433,22.6326082 L11.6827135,15.6555789 L15.648655,11.6844912 L16.086269,12.1219181 C16.4517427,12.4872047 17.044117,12.4870175 17.4094971,12.1216374 C17.7747836,11.7561637 17.7746901,11.1636959 17.4092164,10.7984094 L16.6768655,10.0664327 C17.3730994,6.5597193 15.7592515,2.94989474 12.6250292,1.14105263 C10.1969591,-0.260116959 7.24079532,-0.362385965 4.71756725,0.867836257 C3.88051462,1.27588304 3.44477193,1.80350877 3.42269006,2.43611696 C3.40098246,3.05702924 3.77674854,3.59504094 4.5394152,4.03518129 L7.0514152,5.48481871 C7.47911111,5.73164912 7.47911111,5.85122807 7.47911111,6.06811696 L7.47911111,7.14348538 C7.47911111,7.81408187 7.41249123,7.92926316 6.8314386,8.26460819 L5.89978947,8.80224561 C5.71780117,8.9074152 5.60785965,8.9708538 5.17969591,8.72374269 L2.66778947,7.27410526 C1.90512281,6.83387135 1.25127485,6.77782456 0.724491228,7.10708772 C0.187789474,7.44252632 -0.0513684211,8.08346199 0.0135672515,9.01211696 C0.209590643,11.8118363 1.7762807,14.32 4.20444444,15.7212632 C5.99522807,16.754807 8.05735673,17.0905263 10.0662456,16.685848 L17.3390409,23.9556491 L10.0608187,31.2307836 C6.55288889,30.5344561 2.94147368,32.1478363 1.13188304,35.2807485 C0.00711111111,37.2280702 -0.291649123,39.4966082 0.290526316,41.6685848 C0.872795322,43.8404678 2.26619883,45.6556725 4.21417544,46.779883 C5.53702924,47.5432982 6.98245614,47.9058714 8.4102924,47.9058714 C11.3225731,47.9058714 14.159345,46.3959766 15.7171462,43.698807 C16.7511579,41.9086784 17.0870643,39.8475789 16.6822924,37.8392515 L23.9553684,30.5691696 L31.2339649,37.8446784 C30.537731,41.3514854 32.1516725,44.9613099 35.2858012,46.7700585 C36.5864795,47.5207485 38.0383626,47.8985731 39.4944561,47.8985731 C40.7563977,47.8984795 42.0217076,47.6145029 43.1932632,47.0433684 C44.0303158,46.6353216 44.4660585,46.1076023 44.4881404,45.4749942 C44.5097544,44.8540819 44.1341754,44.3161637 43.3714152,43.8759298 L40.8595088,42.426386 C40.4318129,42.179462 40.4317193,42.0599766 40.4317193,41.8430877 L40.4317193,40.7676257 C40.4317193,40.0971228 40.4983392,39.981848 41.0793918,39.6465029 L42.0110409,39.1088655 C42.1931228,39.0037895 42.3029708,38.9403509 42.7310409,39.1873684 L45.2430409,40.6370058 C46.0055205,41.0772398 46.6595556,41.1333801 47.1864327,40.8040234 C47.7230409,40.4685848 47.9622924,39.8275556 47.8972632,38.8989942 C47.701614,36.0992749 46.134924,33.5912047 43.7066667,32.189848 L43.7066667,32.189848 Z M5.13983626,14.1004912 C3.28130994,13.0279298 2.07167251,11.1212164 1.88846784,8.98498246 L4.24439766,10.3446082 C4.82956725,10.682386 5.73501754,11.0580585 6.83518129,10.4231111 L7.76692398,9.88547368 C8.92126316,9.21927485 9.35045614,8.47616374 9.35054971,7.14357895 L9.35054971,6.06811696 C9.35054971,4.79794152 8.57235088,4.20191813 7.98690058,3.86404678 L5.6317193,2.50488889 C7.57454971,1.59550877 9.83101754,1.68926316 11.689731,2.76182456 C14.1818012,4.20004678 15.4376608,7.10138012 14.8017778,9.88425731 L9.88294737,14.8093567 C8.26283041,15.1837193 6.58760234,14.9359532 5.13983626,14.1004912 Z M33.8143626,5.14835088 C35.6202105,2.02208187 39.6336842,0.947087719 42.7615439,2.75209357 C44.2764912,3.62638596 45.3601871,5.03812865 45.8129591,6.72711111 C46.265731,8.416 46.0334035,10.180117 45.1588304,11.6943158 C43.9690292,13.7541053 41.778807,14.9694503 39.481731,14.9692632 C39.0007953,14.9692632 38.5149006,14.9155556 38.0327485,14.8055205 L33.1052164,9.88846784 C32.7310409,8.26928655 32.9787135,6.59508772 33.8143626,5.14835088 L33.8143626,5.14835088 Z M14.0968421,42.7628538 C12.2910877,45.8891228 8.2774269,46.9640234 5.14966082,45.1590175 C3.63461988,44.2847251 2.55092398,42.8729825 2.09815205,41.184 C1.64538012,39.4951111 1.87780117,37.7309942 2.75237427,36.2167018 C3.94208187,34.1569123 6.13239766,32.9417544 8.42938012,32.9417544 C8.91040936,32.9417544 9.39630409,32.995462 9.87845614,33.1054971 L14.8060819,38.0225497 C15.1801637,39.6419181 14.9324912,41.3160234 14.0968421,42.7628538 L14.0968421,42.7628538 Z M15.652117,36.2231579 L11.679345,32.2589006 L32.2590877,11.6878596 L36.2317661,15.652117 L15.652117,36.2231579 Z M25.2790643,29.2462222 L29.2484678,25.2785029 L36.2283977,32.2555322 L32.2624561,36.2266199 L25.2790643,29.2462222 Z M43.666807,37.5665965 C43.0815439,37.2287251 42.1761871,36.8531462 41.0760234,37.488 L40.1442807,38.0256374 C38.9899415,38.6918363 38.5607485,39.4350409 38.5607485,40.767345 L38.5607485,41.8430877 C38.5609357,43.1131696 39.3390409,43.709193 39.9244912,44.0471579 L42.2794854,45.4061287 C40.3368421,46.3156959 38.0800936,46.221848 36.2214737,45.149193 C33.7294035,43.7109708 32.4735439,40.8096374 33.1094269,38.0266667 L38.0280702,33.1016608 C39.6484678,32.7274854 41.3236959,32.9751579 42.7713684,33.8106199 C44.6298947,34.8831813 45.8395322,36.7898012 46.0227368,38.9261287 L43.666807,37.5665965 Z" id="Shape"></path>
                    <path d="M36.2119298,10.8517427 L39.0189474,12.4716725 C39.1636023,12.5552281 39.3250994,12.5969591 39.4865965,12.5969591 C39.6480936,12.5969591 39.8095906,12.5552281 39.9542456,12.4716725 L42.7611696,10.8517427 C43.0508538,10.6846316 43.229193,10.3756725 43.229193,10.0413567 L43.229193,6.80149708 C43.229193,6.46718129 43.0508538,6.15822222 42.7611696,5.99111111 L39.9542456,4.37118129 C39.6650292,4.20416374 39.3083509,4.20407018 39.0189474,4.37118129 L36.2119298,5.99111111 C35.9222456,6.15822222 35.7439064,6.46718129 35.7439064,6.80149708 L35.7439064,10.0413567 C35.7439064,10.3756725 35.9222456,10.684538 36.2119298,10.8517427 Z M37.6152515,7.34175439 L39.4865965,6.26180117 L41.357848,7.34175439 L41.357848,9.50091228 L39.4865965,10.5808655 L37.6152515,9.50091228 L37.6152515,7.34175439 Z" id="Shape"></path>
                    <path d="M11.6992749,37.059462 L8.89225731,35.4395322 C8.60276023,35.2725146 8.24636257,35.2725146 7.9568655,35.4395322 L5.14984795,37.059462 C4.86025731,37.2265731 4.68191813,37.5355322 4.68191813,37.869848 L4.68191813,41.109614 C4.68191813,41.4439298 4.86035088,41.7528889 5.14984795,41.92 L7.9568655,43.5399298 C8.10161404,43.6234854 8.26301754,43.6652164 8.42460819,43.6652164 C8.58619883,43.6652164 8.74760234,43.6234854 8.89235088,43.5399298 L11.6993684,41.92 C11.9889591,41.7528889 12.1672982,41.4439298 12.1672982,41.109614 L12.1672982,37.869848 C12.1672047,37.5355322 11.9887719,37.2265731 11.6992749,37.059462 Z M10.2958596,40.5692632 L8.42451462,41.6492164 L6.55316959,40.5692632 L6.55316959,38.4101053 L8.42451462,37.330152 L10.2958596,38.4101053 L10.2958596,40.5692632 Z" id="Shape"></path>
                    <path d="M19.725848,15.3726316 C20.2426199,15.3726316 20.6615205,14.953731 20.6615205,14.4369591 C20.6615205,13.9201871 20.2426199,13.5012865 19.725848,13.5012865 L19.725193,13.5012865 C19.2084211,13.5012865 18.7898947,13.9201871 18.7898947,14.4369591 C18.7898947,14.953731 19.209076,15.3726316 19.725848,15.3726316 Z" id="Path"></path>
                </g>
            </g>
        </g>
    </g>
</svg>