<?xml version="1.0" encoding="UTF-8"?>
<svg width="24px" height="19px" viewBox="0 0 24 19" version="1.1" xmlns="http://www.w3.org/2000/svg" xmlns:xlink="http://www.w3.org/1999/xlink">
    <title>60197014-06CC-4550-8957-0F5172F3CE75</title>
    <g id="Pac-secundário" stroke="none" stroke-width="1" fill="none" fill-rule="evenodd">
        <g id="Sala-de-imprensa" transform="translate(-336.000000, -2508.000000)" fill="#000000" fill-rule="nonzero">
            <g id="Group-6" transform="translate(336.000000, 2193.000000)">
                <g id="Group-Copy" transform="translate(0.000000, 243.000000)">
                    <g id="e-mail" transform="translate(0.000000, 68.000000)">
                        <g id="envelope-(2)" transform="translate(0.000000, 4.000000)">
                            <path d="M21.0396694,0.0371900826 L2.93057851,0.0371900826 C1.31404959,0.0371900826 0,1.35123967 0,2.9677686 L0,15.3446281 C0,16.961157 1.31404959,18.2752066 2.93057851,18.2752066 L21.0347107,18.2752066 C22.6512397,18.2752066 23.9653032,16.961157 23.9653032,15.3446281 L23.9653032,2.97272727 C23.9702479,1.35619835 22.6561983,0.0371900826 21.0396694,0.0371900826 Z M22.631405,15.3446281 C22.631405,16.222314 21.9173554,16.9363636 21.0396694,16.9363636 L2.93057851,16.9363636 C2.05289256,16.9363636 1.33884298,16.222314 1.33884298,15.3446281 L1.33884298,2.97272727 C1.33884298,2.09504132 2.05289256,1.38099174 2.93057851,1.38099174 L21.0347107,1.38099174 C21.9123967,1.38099174 22.6264463,2.09504132 22.6264463,2.97272727 L22.6264463,15.3446281 L22.631405,15.3446281 Z" id="Shape"></path>
                            <path d="M15.1140496,9.00247934 L20.9752066,3.74628099 C21.2479339,3.49834711 21.2727273,3.0768595 21.0247934,2.79917355 C20.7768595,2.52644628 20.3553719,2.50165289 20.077686,2.74958678 L11.9950413,10.0041322 L10.4181818,8.59586777 C10.4132231,8.59090909 10.4082645,8.58595041 10.4082645,8.58099174 C10.3735537,8.54628099 10.338843,8.51652893 10.2991736,8.48677686 L3.88264463,2.7446281 C3.60495868,2.49669421 3.18347107,2.5214876 2.93553719,2.79917355 C2.68760331,3.0768595 2.71239669,3.49834711 2.99008264,3.74628099 L8.92066116,9.04710744 L3.01487603,14.5760331 C2.74710744,14.8289256 2.7322314,15.2504132 2.98512397,15.5231405 C3.11900826,15.6619835 3.29752066,15.7363636 3.47603306,15.7363636 C3.63966942,15.7363636 3.80330579,15.6768595 3.9322314,15.5578512 L9.92727273,9.94958678 L11.553719,11.4024793 C11.6826446,11.5165289 11.8413223,11.5710744 12,11.5710744 C12.1586777,11.5710744 12.322314,11.5115702 12.446281,11.3975207 L14.1173554,9.9 L20.077686,15.5628099 C20.2066116,15.6867769 20.3752066,15.746281 20.538843,15.746281 C20.7173554,15.746281 20.8909091,15.6768595 21.0247934,15.5380165 C21.277686,15.2702479 21.2677686,14.8438017 21,14.5909091 L15.1140496,9.00247934 Z" id="Shape"></path>
                        </g>
                    </g>
                </g>
            </g>
        </g>
    </g>
</svg>