<svg width="24" height="24" viewBox="0 0 24 24" xmlns="http://www.w3.org/2000/svg"><title>460B3234-95FC-45CC-B40F-C373B62FC94C</title><path d="M18.05 12.457a.635.635 0 0 0 0-.907.625.625 0 0 0-.899 0l-4.598 4.59V.975a.639.639 0 1 0-1.279 0V16.14l-4.589-4.59a.635.635 0 0 0-.907 0 .635.635 0 0 0 0 .907l5.687 5.687a.651.651 0 0 0 .907 0l5.677-5.687zm4.507 4.164a.63.63 0 0 1 .634-.635c.354 0 .644.28.644.635v6.24c0 .353-.29.644-.644.644H.635A.639.639 0 0 1 0 22.86v-6.24a.63.63 0 0 1 .635-.635c.354 0 .644.28.644.635v5.605h21.278V16.62z" fill="#FFB919"/></svg>