<?xml version="1.0" encoding="UTF-8"?>
<svg width="17px" height="24px" viewBox="0 0 17 24" version="1.1" xmlns="http://www.w3.org/2000/svg" xmlns:xlink="http://www.w3.org/1999/xlink">
    <!-- Generator: sketchtool 64 (101010) - https://sketch.com -->
    <title>66119F5A-5A2A-4141-9AD8-53CBF0340A53</title>
    <desc>Created with sketchtool.</desc>
    <g id="Pac-secundário" stroke="none" stroke-width="1" fill="none" fill-rule="evenodd">
        <g id="Descarte-de-embalagens---Ecopontos" transform="translate(-361.000000, -553.000000)" fill="#FFB919" fill-rule="nonzero">
            <g id="Group" transform="translate(337.000000, 180.000000)">
                <g id="CTA" transform="translate(0.000000, 357.000000)">
                    <g id="placeholder-(2)" transform="translate(24.000000, 16.000000)">
                        <path d="M8.4375,0 C3.7850625,0 0,3.7850625 0,8.4375 C0,10.0094062 0.435421875,11.5434375 1.25948437,12.8743125 L7.95721875,23.6676094 C8.08551562,23.874375 8.31154687,24 8.55464062,24 C8.55651563,24 8.55834375,24 8.56021875,24 C8.80542187,23.9980781 9.03192187,23.8685625 9.157875,23.6581875 L15.6848906,12.7603125 C16.4634844,11.4575625 16.875,9.96276562 16.875,8.4375 C16.875,3.7850625 13.0899375,0 8.4375,0 Z M14.4780937,12.0383438 L8.544,21.9462187 L2.45470312,12.1334063 C1.76878125,11.0256563 1.396875,9.74765625 1.396875,8.4375 C1.396875,4.56046875 4.56046875,1.396875 8.4375,1.396875 C12.3145313,1.396875 15.4734375,4.56046875 15.4734375,8.4375 C15.4734375,9.70879688 15.1260469,10.954125 14.4780937,12.0383438 Z" id="Shape"></path>
                        <path d="M8.4375,4.21875 C6.11128125,4.21875 4.21875,6.11128125 4.21875,8.4375 C4.21875,10.7488594 6.08048437,12.65625 8.4375,12.65625 C10.8235781,12.65625 12.65625,10.7234531 12.65625,8.4375 C12.65625,6.11128125 10.7637187,4.21875 8.4375,4.21875 Z M8.4375,11.259375 C6.87857813,11.259375 5.615625,9.99220312 5.615625,8.4375 C5.615625,6.8866875 6.8866875,5.615625 8.4375,5.615625 C9.9883125,5.615625 11.2546875,6.8866875 11.2546875,8.4375 C11.2546875,9.96951562 10.021125,11.259375 8.4375,11.259375 Z" id="Shape"></path>
                    </g>
                </g>
            </g>
        </g>
    </g>
</svg>