<?xml version="1.0" encoding="UTF-8"?>
<svg width="18px" height="24px" viewBox="0 0 18 24" version="1.1" xmlns="http://www.w3.org/2000/svg" xmlns:xlink="http://www.w3.org/1999/xlink">
    <!-- Generator: sketchtool 60.1 (101010) - https://sketch.com -->
    <title>5C99419F-9304-4C11-A27F-4BB490D99546</title>
    <desc>Created with sketchtool.</desc>
    <g id="Pac-primário" stroke="none" stroke-width="1" fill="none" fill-rule="evenodd">
        <g id="Onde-comprar---resultado" transform="translate(-528.000000, -942.000000)" fill="#000000" fill-rule="nonzero">
            <g id="Group-6" transform="translate(336.000000, 780.000000)">
                <g id="e-mail-copy-3" transform="translate(192.000000, 162.000000)">
                    <g id="placeholder-(2)">
                        <path d="M8.93382353,0 C4.00771324,0 0,3.7850625 0,8.4375 C0,10.0094062 0.461034926,11.5434375 1.33357169,12.8743125 L8.42529044,23.6676094 C8.56113419,23.874375 8.8004614,24 9.05785478,24 C9.05984007,24 9.06177574,24 9.06376103,24 C9.32338787,23.9980781 9.5632114,23.8685625 9.69657353,23.6581875 L16.6075312,12.7603125 C17.4319246,11.4575625 17.8676471,9.96276562 17.8676471,8.4375 C17.8676471,3.7850625 13.8599338,0 8.93382353,0 Z M15.3297463,12.0383438 L9.04658824,21.9462187 L2.59909743,12.1334063 C1.87282721,11.0256563 1.47904412,9.74765625 1.47904412,8.4375 C1.47904412,4.56046875 4.82873162,1.396875 8.93382353,1.396875 C13.0389154,1.396875 16.3836397,4.56046875 16.3836397,8.4375 C16.3836397,9.70879688 16.0158143,10.954125 15.3297463,12.0383438 Z" id="Shape"></path>
                        <path d="M8.93382353,4.21875 C6.47076838,4.21875 4.46691176,6.11128125 4.46691176,8.4375 C4.46691176,10.7488594 6.43815993,12.65625 8.93382353,12.65625 C11.4602592,12.65625 13.4007353,10.7234531 13.4007353,8.4375 C13.4007353,6.11128125 11.3968787,4.21875 8.93382353,4.21875 Z M8.93382353,11.259375 C7.28320037,11.259375 5.94595588,9.99220312 5.94595588,8.4375 C5.94595588,6.8866875 7.29178676,5.615625 8.93382353,5.615625 C10.5758603,5.615625 11.9167279,6.8866875 11.9167279,8.4375 C11.9167279,9.96951562 10.6106029,11.259375 8.93382353,11.259375 Z" id="Shape"></path>
                    </g>
                </g>
            </g>
        </g>
    </g>
</svg>