<svg width="24" height="21" viewBox="0 0 24 21" xmlns="http://www.w3.org/2000/svg"><title>C2962441-72FC-4410-9765-CBDADA6AB1DC</title><path d="M.002 10.372c.03.494.357.91.831 1.051l8.779 2.654.322 6.052a.6.6 0 0 0 .602.562.594.594 0 0 0 .45-.2l3.103-3.437 4.4 3.045c.195.137.425.21.664.21a1.18 1.18 0 0 0 1.149-.938L23.953.762a.6.6 0 0 0-.811-.67L.706 9.224a1.18 1.18 0 0 0-.704 1.15zm11.047 8.256l-.2-3.818 2.248 1.555-2.048 2.263zm8.085.464l-8.007-5.543L22.355 2.69l-3.221 16.403zm1.99-16.883L10.021 12.95 1.252 10.3l19.87-8.09z" fill="#FFB919"/></svg>