<?xml version="1.0" encoding="UTF-8"?>
<svg width="32px" height="23px" viewBox="0 0 32 23" version="1.1" xmlns="http://www.w3.org/2000/svg" xmlns:xlink="http://www.w3.org/1999/xlink">
    <!-- Generator: sketchtool 60.1 (101010) - https://sketch.com -->
    <title>71478B88-8C0F-4D49-B894-BB181826F7C6</title>
    <desc>Created with sketchtool.</desc>
    <g id="Pac-primário" stroke="none" stroke-width="1" fill="none" fill-rule="evenodd">
        <g id="Home-v2---Variação-imagem" transform="translate(-336.000000, -575.000000)" fill="#000000" fill-rule="nonzero">
            <g id="Banner" transform="translate(43.000000, 168.000000)">
                <g id="Group-15" transform="translate(293.000000, 404.000000)">
                    <path d="M10.4385652,3.3383421 C10.889688,2.8872193 11.5999016,2.8872193 12.0510244,3.3383421 C12.4869065,3.77422428 12.4869065,4.49967852 12.0510244,4.93454465 L3.87493154,13.1106375 L30.8549203,13.1106375 C31.4838505,13.1106375 32,13.6105303 32,14.2394605 C32,14.8683908 31.4838505,15.3845403 30.8549203,15.3845403 L3.87493154,15.3845403 L12.0510244,23.5453925 C12.4869065,23.9965153 12.4869065,24.7229856 12.0510244,25.1578517 C11.5999016,25.6089745 10.889688,25.6089745 10.4385652,25.1578517 L0.326911628,15.0461982 C-0.108970543,14.610316 -0.108970543,13.8848618 0.326911628,13.4499956 L10.4385652,3.3383421 Z" id="Shape"></path>
                </g>
            </g>
        </g>
    </g>
</svg>