<?xml version="1.0" encoding="UTF-8"?>
<svg width="24px" height="24px" viewBox="0 0 24 24" version="1.1" xmlns="http://www.w3.org/2000/svg" xmlns:xlink="http://www.w3.org/1999/xlink">
    <!-- Generator: sketchtool 64 (101010) - https://sketch.com -->
    <title>7E3E06A5-7341-4AFB-97F1-C72B5E8B42B4</title>
    <desc>Created with sketchtool.</desc>
    <g id="Pac-secundário" stroke="none" stroke-width="1" fill="none" fill-rule="evenodd">
        <g id="Trabalhe-conosco" transform="translate(-360.000000, -535.000000)" fill="#FFB919" fill-rule="nonzero">
            <g id="Group" transform="translate(336.000000, 180.000000)">
                <g id="CTA" transform="translate(0.000000, 339.000000)">
                    <g id="search-(5)" transform="translate(24.000000, 16.000000)">
                        <path d="M8.47410938,13.7529844 C8.2036875,13.7529844 7.9845,13.9721719 7.9845,14.2425937 L7.9845,14.2478906 C7.9845,14.5183125 8.2036875,14.7375 8.47410938,14.7375 C8.74453125,14.7375 8.96371875,14.5183125 8.96371875,14.2478906 L8.96371875,14.2425937 C8.96371875,13.9721719 8.74453125,13.7529844 8.47410938,13.7529844 Z" id="Path"></path>
                        <path d="M23.5149844,21.164625 L17.4778125,15.1274531 C17.3860312,15.0356719 17.2614375,14.9840625 17.1315937,14.9840625 C17.00175,14.9840625 16.8772031,15.0356719 16.785375,15.1274531 L16.3005,15.6123281 L14.7929531,14.1047813 C16.1303437,12.6066094 16.9446094,10.6319063 16.9446094,8.47040625 C16.9446562,3.79978125 13.144875,0 8.47425,0 C3.803625,0 0.003890625,3.79978125 0.003890625,8.47040625 C0.003890625,13.1410313 3.80367188,16.9408125 8.47429688,16.9408125 C10.6317188,16.9408125 12.6029531,16.1295938 14.1000937,14.7967969 L15.6081094,16.3048125 L15.1235625,16.7893594 C14.9323594,16.9805625 14.9323594,17.2905938 15.1235625,17.4817969 L16.291875,18.6501094 L16.2919219,18.6501563 C16.2919219,18.6501563 16.2919687,18.6501563 16.2919687,18.6502031 L21.1606875,23.5189219 C21.4816406,23.8398281 21.9034687,24.0000469 22.3265156,24.0000469 C22.7532187,24.0000469 23.1810469,23.836875 23.5069687,23.5109063 C24.1560469,22.8617813 24.1596094,21.8092969 23.5149844,21.164625 Z M8.47425,15.9615469 C4.343625,15.9615469 0.983109375,12.6009844 0.983109375,8.47040625 C0.983109375,4.33982812 4.34367188,0.97921875 8.47425,0.97921875 C12.6048281,0.97921875 15.9653906,4.33978125 15.9653906,8.47035938 C15.9653906,12.6009375 12.604875,15.9615469 8.47425,15.9615469 Z M22.8145312,22.8184688 C22.5472969,23.08575 22.116,23.0893125 21.853125,22.8264375 L17.3305781,18.3039375 L17.7204844,17.9140313 C17.9116875,17.7228281 17.9116875,17.4127969 17.7204844,17.2215469 C17.5292813,17.0303438 17.21925,17.0303438 17.028,17.2215469 L16.6380937,17.6114531 L16.162125,17.1354844 L16.6464844,16.6510781 C16.6465312,16.6510313 16.6465781,16.6509844 16.646625,16.6509844 C16.6466719,16.6509844 16.6466719,16.6508906 16.6466719,16.6508906 L17.1314531,16.1660625 L22.8225,21.8570625 C22.9482656,21.9828281 23.017125,22.1521406 23.0162429,22.3337344 C23.0153906,22.5171562 22.9437656,22.6892813 22.8145312,22.8184688 Z" id="Shape"></path>
                        <path d="M8.47425,2.20326562 C5.01984375,2.20326562 2.20954688,5.01360937 2.20954688,8.46801562 C2.20954688,9.8428125 2.64651563,11.1477187 3.47329687,12.2417344 C4.27284375,13.29975 5.40923438,14.091 6.67321875,14.4698437 C6.93225,14.5474687 7.20515625,14.4004219 7.28278125,14.1413906 C7.36040625,13.8823594 7.21335938,13.6094531 6.95432812,13.5318281 C6.46982812,13.3866562 6.01739062,13.1737031 5.60592187,12.9055312 C6.42351563,12.2690625 7.42401563,11.9226094 8.47410937,11.9226094 C9.52664062,11.9226094 10.5263437,12.2679375 11.3436094,12.9049219 C10.9319063,13.1734687 10.479,13.3866094 9.994125,13.531875 C9.73504688,13.6095 9.58804687,13.8824062 9.66567187,14.1414375 C9.72923438,14.3535937 9.9238125,14.4906562 10.1344687,14.4906562 C10.1809687,14.4906562 10.2283125,14.4839531 10.2752344,14.4699375 C11.0438438,14.2396406 11.7646875,13.8560156 12.3919688,13.353375 C12.41925,13.3356094 12.4450781,13.3148437 12.469125,13.2910781 C12.8428594,12.9819375 13.1819063,12.6300469 13.47525,12.241875 C14.3020312,11.1478125 14.7390469,9.84290625 14.7390469,8.46810938 C14.7390469,5.01365625 11.9286562,2.20326562 8.47425,2.20326562 Z M8.47410938,10.9432969 C7.1735625,10.9432969 6.11554687,9.88528125 6.11554687,8.58478125 C6.11554687,7.28428125 7.1735625,6.22621875 8.47410938,6.22621875 C9.7745625,6.22621875 10.8325781,7.28423438 10.8325781,8.58478125 C10.8325781,9.88532813 9.77460938,10.9432969 8.47410938,10.9432969 Z M12.1266094,12.2800781 C11.6173594,11.8482188 11.0433281,11.5145625 10.4277188,11.2885781 C11.2654219,10.6815938 11.8117969,9.69604688 11.8117969,8.58482813 C11.8117969,6.74442188 10.3145156,5.24704688 8.4740625,5.24704688 C6.63365625,5.24704688 5.13628125,6.744375 5.13628125,8.58482813 C5.13628125,9.696375 5.6829375,10.6821094 6.52101563,11.2890469 C5.9055,11.5150313 5.331,11.8485469 4.82175,12.2799375 C3.807375,11.3017969 3.18871875,9.93201563 3.18871875,8.4680625 C3.18871875,5.55360938 5.55975,3.18253125 8.47420313,3.18253125 C11.3886563,3.18253125 13.7597344,5.55360938 13.7597344,8.4680625 C13.7597344,9.93210938 13.1410781,11.3018906 12.1266094,12.2800781 Z" id="Shape"></path>
                    </g>
                </g>
            </g>
        </g>
    </g>
</svg>