<?xml version="1.0" encoding="UTF-8"?>
<svg width="24px" height="16px" viewBox="0 0 24 16" version="1.1" xmlns="http://www.w3.org/2000/svg" xmlns:xlink="http://www.w3.org/1999/xlink">
    <!-- Generator: sketchtool 64 (101010) - https://sketch.com -->
    <title>AC62C4B3-3934-4B80-8979-6601924F5E02</title>
    <desc>Created with sketchtool.</desc>
    <g id="Symbols" stroke="none" stroke-width="1" fill="none" fill-rule="evenodd">
        <g id="Header-interna" transform="translate(-1405.000000, -12.000000)" fill="#000000">
            <g id="Header">
                <g id="Painel" transform="translate(295.000000, 10.000000)">
                    <g id="texto" transform="translate(1014.000000, 0.000000)">
                        <path d="M106.078935,13.68 L99.8693841,13.68 L98.3169965,18 L96,18 L101.815661,2 L104.132658,2 L109.948319,18 L107.631322,18 L106.078935,13.68 Z M105.383836,11.7142857 L102.974159,5.04 L100.564483,11.7142857 L105.383836,11.7142857 Z M114.218458,12.4457143 L111.090512,12.4457143 L111.090512,10.7085714 L114.218458,10.7085714 L114.218458,7.66857143 L116.072055,7.66857143 L116.072055,10.7085714 L119.2,10.7085714 L119.2,12.4457143 L116.072055,12.4457143 L116.072055,15.4857143 L114.218458,15.4857143 L114.218458,12.4457143 Z" id="A+"></path>
                    </g>
                </g>
            </g>
        </g>
    </g>
</svg>