<?xml version="1.0" encoding="UTF-8"?>
<svg width="16px" height="9px" viewBox="0 0 16 9" version="1.1" xmlns="http://www.w3.org/2000/svg" xmlns:xlink="http://www.w3.org/1999/xlink">
    <!-- Generator: sketchtool 60.1 (101010) - https://sketch.com -->
    <title>A5AEC70A-D456-43CA-B8D1-424D9FDC66C6</title>
    <desc>Created with sketchtool.</desc>
    <g id="Symbols" stroke="none" stroke-width="1" fill="none" fill-rule="evenodd">
        <g id="Header" transform="translate(-1110.000000, -84.000000)" fill="#000000" fill-rule="nonzero">
            <g id="Group">
                <g transform="translate(489.000000, 74.000000)">
                    <g id="down-arrow-(2)" transform="translate(629.000000, 14.115385) rotate(-180.000000) translate(-629.000000, -14.115385) translate(621.000000, 9.615385)">
                        <path d="M15.7675214,0.218803419 C15.5487179,-3.39492323e-13 15.1931624,-3.39492323e-13 14.974359,0.218803419 L8,7.20683761 L1.01196581,0.218803419 C0.793162393,-3.39492323e-13 0.437606838,-3.39492323e-13 0.218803419,0.218803419 C1.09703913e-13,0.437606838 1.09703913e-13,0.793162393 0.218803419,1.01196581 L7.58974359,8.38290598 C7.6991453,8.49230769 7.83589744,8.54700855 7.98632479,8.54700855 C8.12307692,8.54700855 8.27350427,8.49230769 8.38290598,8.38290598 L15.7538462,1.01196581 C15.9863248,0.793162393 15.9863248,0.437606838 15.7675214,0.218803419 Z" id="Shape" transform="translate(7.992327, 4.300855) rotate(-180.000000) translate(-7.992327, -4.300855) "></path>
                    </g>
                </g>
            </g>
        </g>
    </g>
</svg>