<?xml version="1.0" encoding="UTF-8"?>
<svg width="24px" height="24px" viewBox="0 0 24 24" version="1.1" xmlns="http://www.w3.org/2000/svg" xmlns:xlink="http://www.w3.org/1999/xlink">
    <!-- Generator: sketchtool 61 (101010) - https://sketch.com -->
    <title>4E57856B-25A7-466E-A89C-615340A01A3A</title>
    <desc>Created with sketchtool.</desc>
    <g id="Pac-primário" stroke="none" stroke-width="1" fill="none" fill-rule="evenodd">
        <g id="Produto" transform="translate(-1063.000000, -642.000000)" fill="#000000" fill-rule="nonzero">
            <g id="Banner" transform="translate(41.000000, 180.000000)">
                <g id="Group-3" transform="translate(998.000000, 0.000000)">
                    <g id="CTA" transform="translate(0.000000, 446.000000)">
                        <g id="calculator" transform="translate(24.000000, 16.000000)">
                            <path d="M8.68965517,5.79310345 L6.62068966,5.79310345 L6.62068966,3.72413793 C6.62068966,3.49531034 6.43531034,3.31034483 6.20689655,3.31034483 C5.97848276,3.31034483 5.79310345,3.49531034 5.79310345,3.72413793 L5.79310345,5.79310345 L3.72413793,5.79310345 C3.49572414,5.79310345 3.31034483,5.97806897 3.31034483,6.20689655 C3.31034483,6.43572414 3.49572414,6.62068966 3.72413793,6.62068966 L5.79310345,6.62068966 L5.79310345,8.68965517 C5.79310345,8.91848276 5.97848276,9.10344828 6.20689655,9.10344828 C6.43531034,9.10344828 6.62068966,8.91848276 6.62068966,8.68965517 L6.62068966,6.62068966 L8.68965517,6.62068966 C8.91806897,6.62068966 9.10344828,6.43572414 9.10344828,6.20689655 C9.10344828,5.97806897 8.91806897,5.79310345 8.68965517,5.79310345 Z" id="Shape"></path>
                            <path d="M20.2758621,5.79310345 L15.3103448,5.79310345 C15.081931,5.79310345 14.8965517,5.97806897 14.8965517,6.20689655 C14.8965517,6.43572414 15.081931,6.62068966 15.3103448,6.62068966 L20.2758621,6.62068966 C20.5042759,6.62068966 20.6896552,6.43572414 20.6896552,6.20689655 C20.6896552,5.97806897 20.5042759,5.79310345 20.2758621,5.79310345 Z" id="Shape"></path>
                            <path d="M12.4137931,0 L11.5862069,0 L0,0 L0,11.5862069 L0,12.4137931 L0,24 L11.5862069,24 L12.4137931,24 L24,24 L24,12.4137931 L24,11.5862069 L24,0 L12.4137931,0 Z M0.827586207,0.827586207 L11.5862069,0.827586207 L11.5862069,11.5862069 L0.827586207,11.5862069 L0.827586207,0.827586207 Z M0.827586207,23.1724138 L0.827586207,12.4137931 L11.5862069,12.4137931 L11.5862069,23.1724138 L0.827586207,23.1724138 Z M23.1724138,23.1724138 L12.4137931,23.1724138 L12.4137931,12.4137931 L23.1724138,12.4137931 L23.1724138,23.1724138 Z M12.4137931,11.5862069 L12.4137931,0.827586207 L23.1724138,0.827586207 L23.1724138,11.5862069 L12.4137931,11.5862069 Z" id="Shape"></path>
                            <path d="M15.3103448,19.4482759 L20.2758621,19.4482759 C20.5042759,19.4482759 20.6896552,19.2633103 20.6896552,19.0344828 C20.6896552,18.8056552 20.5042759,18.6206897 20.2758621,18.6206897 L15.3103448,18.6206897 C15.081931,18.6206897 14.8965517,18.8056552 14.8965517,19.0344828 C14.8965517,19.2633103 15.081931,19.4482759 15.3103448,19.4482759 Z" id="Shape"></path>
                            <path d="M15.3103448,16.9655172 L20.2758621,16.9655172 C20.5042759,16.9655172 20.6896552,16.7805517 20.6896552,16.5517241 C20.6896552,16.3228966 20.5042759,16.137931 20.2758621,16.137931 L15.3103448,16.137931 C15.081931,16.137931 14.8965517,16.3228966 14.8965517,16.5517241 C14.8965517,16.7805517 15.081931,16.9655172 15.3103448,16.9655172 Z" id="Shape"></path>
                            <path d="M8.56841379,15.4315862 C8.40662069,15.2697931 8.14510345,15.2697931 7.98331034,15.4315862 L6.20689655,17.208 L4.43048276,15.4315862 C4.26868966,15.2697931 4.00717241,15.2697931 3.84537931,15.4315862 C3.68358621,15.5933793 3.68358621,15.8548966 3.84537931,16.0166897 L5.6217931,17.7931034 L3.84537931,19.5695172 C3.68358621,19.7313103 3.68358621,19.9928276 3.84537931,20.1546207 C3.92606897,20.2353103 4.032,20.2758621 4.13793103,20.2758621 C4.24386207,20.2758621 4.3497931,20.2353103 4.43048276,20.1546207 L6.20689655,18.3782069 L7.98331034,20.1546207 C8.064,20.2353103 8.16993103,20.2758621 8.27586207,20.2758621 C8.3817931,20.2758621 8.48772414,20.2353103 8.56841379,20.1546207 C8.7302069,19.9928276 8.7302069,19.7313103 8.56841379,19.5695172 L6.792,17.7931034 L8.56841379,16.0166897 C8.7302069,15.8548966 8.7302069,15.5933793 8.56841379,15.4315862 Z" id="Shape"></path>
                        </g>
                    </g>
                </g>
            </g>
        </g>
    </g>
</svg>