<?xml version="1.0" encoding="UTF-8"?>
<svg width="48px" height="58px" viewBox="0 0 48 58" version="1.1" xmlns="http://www.w3.org/2000/svg" xmlns:xlink="http://www.w3.org/1999/xlink">
    <!-- Generator: sketchtool 61 (101010) - https://sketch.com -->
    <title>75789A3A-2964-47E7-B0BB-D4605D5BB9A1</title>
    <desc>Created with sketchtool.</desc>
    <g id="Pac-primário" stroke="none" stroke-width="1" fill="none" fill-rule="evenodd">
        <g id="Produto" transform="translate(-1003.000000, -2374.000000)" fill="#000000" fill-rule="nonzero">
            <g id="Group-6" transform="translate(39.000000, 2011.000000)">
                <g id="5" transform="translate(964.000000, 363.000000)">
                    <g id="checklist">
                        <path d="M40.3022264,17.2075472 L24.0001132,17.2075472 C23.3748679,17.2075472 22.8680377,17.7143774 22.8680377,18.3396226 C22.8680377,18.9648679 23.3748679,19.4716981 24.0001132,19.4716981 L40.3022264,19.4716981 C40.9274717,19.4716981 41.4343019,18.9648679 41.4343019,18.3396226 C41.4343019,17.7143774 40.9274717,17.2075472 40.3022264,17.2075472 Z" id="Shape"></path>
                        <path d="M36.3408679,22.9733208 C36.1303019,22.7627547 35.8382264,22.6416226 35.5404906,22.6416226 C35.2427547,22.6416226 34.9506792,22.7627547 34.7401132,22.9733208 C34.5295472,23.1838868 34.4084151,23.4759623 34.4084151,23.7736981 C34.4084151,24.071434 34.5295472,24.3635094 34.7401132,24.5740755 C34.9506792,24.7846415 35.2427547,24.9057736 35.5404906,24.9057736 C35.8382264,24.9057736 36.1303019,24.7846415 36.3408679,24.5740755 C36.551434,24.3635094 36.672566,24.071434 36.672566,23.7736981 C36.672566,23.4759623 36.551434,23.1838868 36.3408679,22.9733208 Z" id="Shape"></path>
                        <path d="M24.7993585,5.19973585 C24.5887925,4.98916981 24.296717,4.86803774 23.9989811,4.86803774 C23.7012453,4.86803774 23.4091698,4.98916981 23.1986038,5.19973585 C22.9880377,5.41030189 22.8669057,5.70237736 22.8669057,6.00011321 C22.8669057,6.29784906 22.9880377,6.58992453 23.1986038,6.80049057 C23.4091698,7.0110566 23.7012453,7.13218868 23.9989811,7.13218868 C24.296717,7.13218868 24.5887925,7.0110566 24.7993585,6.80049057 C25.0099245,6.58992453 25.1310566,6.29784906 25.1310566,6.00011321 C25.1310566,5.70237736 25.0099245,5.41030189 24.7993585,5.19973585 Z" id="Shape"></path>
                        <path d="M30.7786415,22.6415094 L24.0001132,22.6415094 C23.3748679,22.6415094 22.8680377,23.1483396 22.8680377,23.7735849 C22.8680377,24.3988302 23.3748679,24.9056604 24.0001132,24.9056604 L30.7786415,24.9056604 C31.4038868,24.9056604 31.910717,24.3988302 31.910717,23.7735849 C31.910717,23.1483396 31.4038868,22.6415094 30.7786415,22.6415094 Z" id="Shape"></path>
                        <path d="M40.3022264,29.4339623 L24.0001132,29.4339623 C23.3748679,29.4339623 22.8680377,29.9407925 22.8680377,30.5660377 C22.8680377,31.191283 23.3748679,31.6981132 24.0001132,31.6981132 L40.3022264,31.6981132 C40.9274717,31.6981132 41.4343019,31.191283 41.4343019,30.5660377 C41.4343019,29.9407925 40.9274717,29.4339623 40.3022264,29.4339623 Z" id="Shape"></path>
                        <path d="M36.3408679,35.1997358 C36.1303019,34.9891698 35.8382264,34.8680377 35.5404906,34.8680377 C35.2427547,34.8680377 34.9506792,34.9891698 34.7401132,35.1997358 C34.5295472,35.4103019 34.4084151,35.7023774 34.4084151,36.0001132 C34.4084151,36.2978491 34.5295472,36.5899245 34.7401132,36.8004906 C34.9506792,37.0110566 35.2427547,37.1321887 35.5404906,37.1321887 C35.8382264,37.1321887 36.1303019,37.0110566 36.3408679,36.8004906 C36.551434,36.5899245 36.672566,36.2978491 36.672566,36.0001132 C36.672566,35.7023774 36.551434,35.4103019 36.3408679,35.1997358 Z" id="Shape"></path>
                        <path d="M30.7786415,34.8679245 L24.0001132,34.8679245 C23.3748679,34.8679245 22.8680377,35.3747547 22.8680377,36 C22.8680377,36.6252453 23.3748679,37.1320755 24.0001132,37.1320755 L30.7786415,37.1320755 C31.4038868,37.1320755 31.910717,36.6252453 31.910717,36 C31.910717,35.3747547 31.4038868,34.8679245 30.7786415,34.8679245 Z" id="Shape"></path>
                        <path d="M40.3022264,41.6603774 L24.0001132,41.6603774 C23.3748679,41.6603774 22.8680377,42.1672075 22.8680377,42.7924528 C22.8680377,43.4176981 23.3748679,43.9245283 24.0001132,43.9245283 L40.3022264,43.9245283 C40.9274717,43.9245283 41.4343019,43.4176981 41.4343019,42.7924528 C41.4343019,42.1672075 40.9274717,41.6603774 40.3022264,41.6603774 Z" id="Shape"></path>
                        <path d="M36.3408679,47.4261509 C36.1303019,47.2155849 35.8382264,47.0944528 35.5404906,47.0944528 C35.2427547,47.0944528 34.9506792,47.2155849 34.7401132,47.4261509 C34.5295472,47.636717 34.4084151,47.9287925 34.4084151,48.2265283 C34.4084151,48.5242642 34.5295472,48.8163396 34.7401132,49.0269057 C34.9506792,49.2374717 35.2427547,49.3586038 35.5404906,49.3586038 C35.8382264,49.3586038 36.1303019,49.2374717 36.3408679,49.0269057 C36.551434,48.8163396 36.672566,48.5242642 36.672566,48.2265283 C36.672566,47.9287925 36.551434,47.636717 36.3408679,47.4261509 Z" id="Shape"></path>
                        <path d="M30.7786415,47.0943396 L24.0001132,47.0943396 C23.3748679,47.0943396 22.8680377,47.6011698 22.8680377,48.2264151 C22.8680377,48.8516604 23.3748679,49.3584906 24.0001132,49.3584906 L30.7786415,49.3584906 C31.4038868,49.3584906 31.910717,48.8516604 31.910717,48.2264151 C31.910717,47.6011698 31.4038868,47.0943396 30.7786415,47.0943396 Z" id="Shape"></path>
                        <path d="M42.4803396,4.41520755 L33.8336604,4.41520755 C32.5837358,3.22415094 30.8941132,2.49056604 29.0353585,2.49056604 L28.0436604,2.49056604 C27.2855094,0.989660377 25.7278868,0 24,0 C22.2721132,0 20.7146038,0.989660377 19.9563396,2.49056604 L18.9622642,2.49056604 C17.1035094,2.49056604 15.414,3.22415094 14.1640755,4.41520755 L5.51988679,4.41520755 C2.47630189,4.41520755 0.000113207547,6.89139623 0.000113207547,9.93498113 L0.000113207547,52.4426038 C0.000113207547,55.4861887 2.47630189,57.9623774 5.51988679,57.9623774 L42.4802264,57.9623774 C45.5238113,57.9623774 48,55.4861887 48,52.4426038 L48,9.93498113 C48,6.89139623 45.5239245,4.41520755 42.4803396,4.41520755 Z M18.9623774,4.75471698 L20.7268302,4.75471698 C21.2360377,4.75471698 21.6825283,4.41475472 21.8180377,3.924 C22.0880377,2.94667925 22.9853208,2.26415094 24.0001132,2.26415094 C25.0149057,2.26415094 25.9121887,2.94667925 26.1820755,3.924 C26.3175849,4.41475472 26.7641887,4.75471698 27.273283,4.75471698 L29.0353585,4.75471698 C31.4925283,4.75471698 33.5150943,6.6509434 33.7169434,9.05671698 L14.2807925,9.05671698 C14.4826415,6.6509434 16.5053208,4.75471698 18.9623774,4.75471698 Z M45.7359623,52.442717 C45.7359623,54.2378491 44.2754717,55.6983396 42.4803396,55.6983396 L5.51988679,55.6983396 C3.72475472,55.6983396 2.26426415,54.2378491 2.26426415,52.442717 L2.26426415,9.93498113 C2.26426415,8.13984906 3.72475472,6.67935849 5.51988679,6.67935849 L12.5780377,6.67935849 C12.2071698,7.52977358 12.0001132,8.46735849 12.0001132,9.4529434 L12.0001132,10.1887925 C12.0001132,10.8140377 12.5069434,11.3208679 13.1321887,11.3208679 L34.8656604,11.3208679 C35.4909057,11.3208679 35.9977358,10.8140377 35.9977358,10.1887925 L35.9977358,9.4529434 C35.9977358,8.4674717 35.7906792,7.52977358 35.4198113,6.67935849 L42.4803396,6.67935849 C44.2754717,6.67935849 45.7359623,8.13984906 45.7359623,9.93498113 L45.7359623,52.442717 Z" id="Shape"></path>
                        <path d="M16.8011321,16.9353962 C16.3590566,16.4933208 15.6422264,16.4933208 15.2001509,16.935283 L10.3591698,21.7763774 L8.86788679,20.2849811 C8.42581132,19.8430189 7.70898113,19.8430189 7.26679245,20.2849811 C6.82471698,20.7270566 6.82471698,21.4438868 7.26679245,21.8860755 L9.55867925,24.1779623 C9.77977358,24.3990566 10.0694717,24.5095472 10.3591698,24.5095472 C10.6488679,24.5095472 10.9386792,24.3990566 11.1596604,24.1779623 L16.8011321,18.5364906 C17.2432075,18.0944151 17.2432075,17.3775849 16.8011321,16.9353962 Z" id="Shape"></path>
                        <path d="M14.0378491,41.6603774 L8.60388679,41.6603774 C7.97864151,41.6603774 7.47181132,42.1672075 7.47181132,42.7924528 L7.47181132,48.2264151 C7.47181132,48.8516604 7.97864151,49.3584906 8.60388679,49.3584906 L14.0378491,49.3584906 C14.6630943,49.3584906 15.1699245,48.8516604 15.1699245,48.2264151 L15.1699245,42.7924528 C15.1699245,42.1672075 14.6630943,41.6603774 14.0378491,41.6603774 Z M12.9057736,47.0943396 L9.73596226,47.0943396 L9.73596226,43.9245283 L12.9057736,43.9245283 L12.9057736,47.0943396 Z" id="Shape"></path>
                        <path d="M14.0378491,29.4339623 L8.60388679,29.4339623 C7.97864151,29.4339623 7.47181132,29.9407925 7.47181132,30.5660377 L7.47181132,36 C7.47181132,36.6252453 7.97864151,37.1320755 8.60388679,37.1320755 L14.0378491,37.1320755 C14.6630943,37.1320755 15.1699245,36.6252453 15.1699245,36 L15.1699245,30.5660377 C15.1699245,29.9407925 14.6630943,29.4339623 14.0378491,29.4339623 Z M12.9057736,34.8679245 L9.73596226,34.8679245 L9.73596226,31.6981132 L12.9057736,31.6981132 L12.9057736,34.8679245 Z" id="Shape"></path>
                    </g>
                </g>
            </g>
        </g>
    </g>
</svg>