<?xml version="1.0" encoding="UTF-8"?>
<svg width="24px" height="24px" viewBox="0 0 24 24" version="1.1" xmlns="http://www.w3.org/2000/svg" xmlns:xlink="http://www.w3.org/1999/xlink">
    <!-- Generator: sketchtool 61 (101010) - https://sketch.com -->
    <title>4B994804-7001-492B-B854-EE22DC7D347E</title>
    <desc>Created with sketchtool.</desc>
    <g id="Pac-primário" stroke="none" stroke-width="1" fill="none" fill-rule="evenodd">
        <g id="Catálogo-de-produtos" transform="translate(-1009.000000, -1082.000000)" fill="#000000" fill-rule="nonzero">
            <g id="Group-6" transform="translate(678.000000, 816.000000)">
                <g id="Group-3-Copy" transform="translate(331.000000, 266.000000)">
                    <g id="download-arrow">
                        <path d="M18.0491429,12.4571429 C18.3028571,12.2034286 18.3028571,11.804 18.0491429,11.5502857 C17.804,11.2965714 17.396,11.2965714 17.1514286,11.5502857 L12.5531429,16.14 L12.5531429,0.974857143 C12.5531429,0.621142857 12.272,0.330857143 11.9182857,0.330857143 C11.5645714,0.330857143 11.2742857,0.621142857 11.2742857,0.974857143 L11.2742857,16.14 L6.68514286,11.5502857 C6.43142857,11.2965714 6.02285714,11.2965714 5.77828571,11.5502857 C5.52457143,11.804 5.52457143,12.2034286 5.77828571,12.4571429 L11.4651429,18.144 C11.7102857,18.3891429 12.1182857,18.3891429 12.372,18.144 L18.0491429,12.4571429 Z M22.5565714,16.6205714 C22.5565714,16.2668571 22.8377143,15.9857143 23.1914286,15.9857143 C23.5451429,15.9857143 23.8354286,16.2668571 23.8354286,16.6205714 L23.8354286,22.8605714 C23.8354286,23.2142857 23.5451429,23.5045714 23.1914286,23.5045714 L0.634857143,23.5045714 C0.281142857,23.5045714 0,23.2142857 0,22.8605714 L0,16.6205714 C0,16.2668571 0.281142857,15.9857143 0.634857143,15.9857143 C0.988571429,15.9857143 1.27885714,16.2668571 1.27885714,16.6205714 L1.27885714,22.2257143 L22.5565714,22.2257143 L22.5565714,16.6205714 Z" id="Shape"></path>
                    </g>
                </g>
            </g>
        </g>
    </g>
</svg>