<?xml version="1.0" encoding="UTF-8"?>
<svg width="51px" height="56px" viewBox="0 0 51 56" version="1.1" xmlns="http://www.w3.org/2000/svg" xmlns:xlink="http://www.w3.org/1999/xlink">
    <!-- Generator: Sketch 63.1 (92452) - https://sketch.com -->
    <title>download (4)</title>
    <desc>Created with Sketch.</desc>
    <g id="Pac-primário" stroke="none" stroke-width="1" fill="none" fill-rule="evenodd">
        <g id="Card-Copy-9" transform="translate(-24.000000, -32.000000)" fill="#000000" fill-rule="nonzero">
            <g id="Group-4">
                <g id="download-(4)" transform="translate(24.000000, 32.000000)">
                    <path d="M38.1658935,24.2419434 L38.1658935,13.644104 C38.1658935,13.3407592 38.0257568,13.0604858 37.8275146,12.8387451 L25.9458008,0.361877469 C25.72406,0.128601047 25.4087525,0 25.0938721,0 L6.25573725,0 C2.77795416,0 0,2.83605962 0,6.31427005 L0,41.935913 C0,45.4141236 2.77795416,48.2036133 6.25573725,48.2036133 L21.1256104,48.2036133 C23.9381714,52.8721314 29.0505982,56 34.8743896,56 C43.7213745,56 50.9461253,48.8103027 50.9461253,39.9517823 C50.9580689,32.213501 45.4021607,25.7475586 38.1658935,24.2419434 Z M26.2611083,4.09686277 L34.232666,12.4884034 L29.0621338,12.4884034 C27.5214844,12.4884034 26.2611083,11.2164917 26.2611083,9.67584231 L26.2611083,4.09686277 Z M6.25573725,45.8691406 C4.07336431,45.8691406 2.33447266,44.1182862 2.33447266,41.935913 L2.33447266,6.31427005 C2.33447266,4.11993411 4.07336431,2.33447266 6.25573725,2.33447266 L23.9266357,2.33447266 L23.9266357,9.67584231 C23.9266357,12.5119018 26.2260742,14.822876 29.0621338,14.822876 L35.8314208,14.822876 L35.8314208,23.9381714 C35.4815064,23.9266357 35.2012329,23.8916016 34.8978882,23.8916016 C30.824524,23.8916016 27.0780029,25.4557495 24.253479,27.9068604 L9.430603,27.9068604 C8.78845209,27.9068604 8.26336667,28.4319458 8.26336667,29.0736694 C8.26336667,29.7158203 8.78845209,30.2409057 9.430603,30.2409057 L22.0826417,30.2409057 C21.2537841,31.4081421 20.5650635,32.5753784 20.0284424,33.8592529 L9.430603,33.8592529 C8.78845209,33.8592529 8.26336667,34.3843384 8.26336667,35.0264893 C8.26336667,35.6682129 8.78845209,36.1937255 9.430603,36.1937255 L19.2696534,36.1937255 C18.9778443,37.360962 18.8261719,38.6563721 18.8261719,39.9517823 C18.8261719,42.0525513 19.2346191,44.130249 19.9699096,45.8811035 L6.25573725,45.8811035 L6.25573725,45.8691406 Z M34.8863526,53.6774902 C27.3232422,53.6774902 21.1721802,47.5264282 21.1721802,39.9633178 C21.1721802,32.4002075 27.3112793,26.2491456 34.8863526,26.2491456 C42.4609986,26.2491456 48.6000977,32.4002075 48.6000977,39.9633178 C48.6000977,47.5264282 42.4494629,53.6774902 34.8863526,53.6774902 Z" id="Shape"></path>
                    <path d="M9.430603,24.3936157 L21.2537841,24.3936157 C21.895935,24.3936157 22.4210206,23.868103 22.4210206,23.2263794 C22.4210206,22.5842285 21.895935,22.0591431 21.2537841,22.0591431 L9.430603,22.0591431 C8.78845209,22.0591431 8.26336667,22.5842285 8.26336667,23.2263794 C8.26336667,23.868103 8.78845209,24.3936157 9.430603,24.3936157 Z" id="Path"></path>
                    <path d="M40.8618164,39.7180786 L36.0651245,44.8886108 L36.0651245,32.1434326 C36.0651245,31.5012818 35.5396118,30.9761963 34.8978882,30.9761963 C34.2557372,30.9761963 33.7306518,31.5012818 33.7306518,32.1434326 L33.7306518,44.8886108 L28.8984986,39.7180786 C28.4550171,39.2515259 27.7081909,39.2164917 27.2412109,39.6599732 C26.774231,40.1034546 26.7391967,40.8387451 27.1831055,41.3057251 L34.0109253,48.6470948 C34.232666,48.8803711 34.5360107,49.0205078 34.862854,49.0205078 C35.1896973,49.0205078 35.4930419,48.8803711 35.7147827,48.6470948 L42.5545654,41.3057251 C42.9980469,40.8387451 42.9745483,40.091919 42.5075684,39.6599732 C42.0290527,39.2164917 41.3057251,39.2515259 40.8618164,39.7180786 Z" id="Path"></path>
                </g>
            </g>
        </g>
    </g>
</svg>