<?xml version="1.0" encoding="UTF-8"?>
<svg width="20px" height="10px" viewBox="0 0 20 10" version="1.1" xmlns="http://www.w3.org/2000/svg" xmlns:xlink="http://www.w3.org/1999/xlink">
    <!-- Generator: sketchtool 64 (101010) - https://sketch.com -->
    <title>C127EC60-8037-4E45-99C2-0A99AB08CBC9</title>
    <desc>Created with sketchtool.</desc>
    <g id="Pac-secundário" stroke="none" stroke-width="1" fill="none" fill-rule="evenodd">
        <g id="Artigo-modelo-1" transform="translate(-700.000000, -482.000000)" fill="#000000" fill-rule="nonzero">
            <g id="Group-3" transform="translate(506.000000, 220.000000)">
                <g id="Group-2" transform="translate(194.000000, 256.000000)">
                    <path d="M19.9296916,11.3358999 C19.0959572,9.81433472 17.574392,8.41782966 15.6568029,7.43819178 C13.8434307,6.50024062 11.8424682,6 10.0082526,6 C8.17403702,6 6.17307454,6.52108398 4.3597023,7.43819178 C2.44211326,8.41782966 0.920548047,9.81433472 0.0868136825,11.3358999 C-0.10077655,11.690237 0.0242836051,12.1071042 0.37862071,12.2946945 C0.482837506,12.3572245 0.60789766,12.3780679 0.712114456,12.3780679 C0.962234765,12.3780679 1.21235507,12.2530077 1.33741523,12.0028874 C2.4212699,10.0227683 4.67235269,8.58457653 6.98596555,7.89674568 C6.04801439,8.73048004 5.44355697,9.96023823 5.44355697,11.3150566 C5.44355697,13.837103 7.48620617,15.8797522 10.0082526,15.8797522 C12.5302991,15.8797522 14.5729483,13.837103 14.5729483,11.3150566 C14.5729483,9.96023823 13.9684908,8.73048004 13.0305397,7.89674568 C15.3233092,8.60541989 17.5952353,10.0227683 18.67909,12.0028874 C18.8041502,12.2321644 19.0542705,12.3780679 19.3043908,12.3780679 C19.4294509,12.3780679 19.5336677,12.3572245 19.6378845,12.2946945 C19.9922216,12.1071042 20.1172818,11.6693937 19.9296916,11.3358999 Z M10.0082526,9.83517808 C9.19536161,9.83517808 8.52837412,10.5021656 8.52837412,11.3150566 C8.52837412,11.690237 8.21572374,12.0028874 7.84054327,12.0028874 C7.46536281,12.0028874 7.15271242,11.690237 7.15271242,11.3150566 C7.15271242,9.73096128 8.42415733,8.45951638 10.0082526,8.45951638 C10.3834331,8.45951638 10.6960835,8.77216676 10.6960835,9.14734723 C10.6960835,9.52252769 10.3834331,9.83517808 10.0082526,9.83517808 Z" id="Shape-Copy-4"></path>
                </g>
            </g>
        </g>
    </g>
</svg>