<?xml version="1.0" encoding="UTF-8"?>
<svg width="11px" height="24px" viewBox="0 0 11 24" version="1.1" xmlns="http://www.w3.org/2000/svg" xmlns:xlink="http://www.w3.org/1999/xlink">
    <!-- Generator: sketchtool 64 (101010) - https://sketch.com -->
    <title>E6ABF302-BDB7-4B63-B26B-02B5C60421D2</title>
    <desc>Created with sketchtool.</desc>
    <g id="Pac-secundário" stroke="none" stroke-width="1" fill="none" fill-rule="evenodd">
        <g id="Artigo-modelo-1" transform="translate(-1253.000000, -475.000000)" fill-rule="nonzero">
            <g id="Group-3" transform="translate(506.000000, 220.000000)">
                <g id="Group" transform="translate(611.000000, 252.000000)">
                    <g id="Group-5" transform="translate(129.000000, 3.000000)">
                        <rect id="Rectangle" x="0" y="0" width="24" height="24"></rect>
                        <path d="M9.33436295,4.64803586 C9.33436295,5.25284577 9.33436295,7.9523659 9.33436295,7.9523659 L7,7.9523659 L7,11.9929135 L9.33436295,11.9929135 L9.33436295,24 L14.12964,24 L14.12964,11.9932483 L17.3474935,11.9932483 C17.3474935,11.9932483 17.6488596,10.0558366 17.7949423,7.93746745 C17.3761182,7.93746745 14.1477725,7.93746745 14.1477725,7.93746745 C14.1477725,7.93746745 14.1477725,5.5868053 14.1477725,5.17478238 C14.1477725,4.76186668 14.6706031,4.20643925 15.1873537,4.20643925 C15.7031357,4.20643925 16.7917338,4.20643925 17.8,4.20643925 C17.8,3.65631277 17.8,1.75550554 17.8,0 C16.4539951,0 14.9226831,0 14.2476898,0 C9.21582886,-0.000278997098 9.33436295,4.04428614 9.33436295,4.64803586 Z" id="Facebook" fill="#000000"></path>
                    </g>
                </g>
            </g>
        </g>
    </g>
</svg>