<?xml version="1.0" encoding="UTF-8"?>
<svg width="37px" height="56px" viewBox="0 0 37 56" version="1.1" xmlns="http://www.w3.org/2000/svg" xmlns:xlink="http://www.w3.org/1999/xlink">
    <!-- Generator: sketchtool 61 (101010) - https://sketch.com -->
    <title>92A308A2-B6C9-4DBC-9161-5C90B71BC52F</title>
    <desc>Created with sketchtool.</desc>
    <g id="Pac-primário" stroke="none" stroke-width="1" fill="none" fill-rule="evenodd">
        <g id="Produto" transform="translate(-360.000000, -3257.000000)" fill="#000000" fill-rule="nonzero">
            <g id="Principais-categorias" transform="translate(40.000000, 2953.000000)">
                <g id="Card-Copy" transform="translate(296.000000, 272.000000)">
                    <g id="Group-4">
                        <g id="file-(2)" transform="translate(24.000000, 32.000000)">
                            <path d="M36.7917884,10.9328095 C36.7913621,10.9208699 36.7909357,10.9089303 36.7900829,10.8969908 C36.7866716,10.8496589 36.781981,10.8031799 36.7725999,10.7571272 C36.7725999,10.7571272 36.7725999,10.7571272 36.7725999,10.7567007 C36.7632188,10.7106482 36.75,10.665022 36.7350755,10.620675 C36.7312378,10.6095882 36.7274001,10.5985015 36.7231359,10.5874147 C36.7073587,10.5451998 36.6894493,10.5038377 36.6689814,10.4637549 C36.6677023,10.4616229 36.6668494,10.4594907 36.6655701,10.4573587 C36.6433967,10.4155701 36.6178118,10.3759137 36.590095,10.3371101 C36.5832724,10.3273027 36.5760234,10.3179215 36.5687744,10.3081141 C36.5393518,10.2697368 36.50865,10.2326389 36.4741106,10.1980994 L26.5958212,0.319809996 C26.5612816,0.285270441 26.5241838,0.254568686 26.4858065,0.225146199 C26.475999,0.217897201 26.4661915,0.210221708 26.456384,0.203399096 C26.4175804,0.175682261 26.3783504,0.150097466 26.3369883,0.128350363 C26.3340034,0.12664471 26.3310186,0.125791938 26.32846,0.124086285 C26.28923,0.103618448 26.2482943,0.086135423 26.2069323,0.0703581598 C26.1954191,0.0660940819 26.1843324,0.0622562807 26.1723927,0.0584185887 C26.1280458,0.0434942066 26.0832724,0.0302753684 26.0367934,0.0208942222 C26.036367,0.0208942222 26.0359405,0.0208942222 26.0359405,0.0208942222 C25.9903144,0.0119395712 25.9438352,0.00682261209 25.8969298,0.00341130604 C25.8849903,0.00298489825 25.8730507,0.00213206082 25.8611111,0.00170565302 C25.8487452,0.00127924522 25.8363792,0 25.8240131,0 L1.09161793,0 C0.488669536,0 -2.84217094e-14,0.488669536 -2.84217094e-14,1.09161793 L-2.84217094e-14,47.815424 C-2.84217094e-14,48.4183723 0.488669536,48.907042 1.09161793,48.907042 L17.5264377,48.907042 L17.5264377,54.7992203 C17.5264377,55.196211 17.7422027,55.5620736 18.0897296,55.754386 C18.4376828,55.9466984 18.8619639,55.9351852 19.198404,55.7241106 L23.3559332,53.1157407 L27.5134625,55.7241106 C27.6904239,55.834978 27.8921175,55.8909242 28.0938109,55.8909242 C28.275463,55.8909242 28.4575414,55.8456385 28.622137,55.7548124 C28.9696637,55.5625001 29.1854288,55.1966374 29.1854288,54.7992203 L29.1854288,48.907042 L35.7018763,48.907042 C36.3048246,48.907042 36.7934942,48.4183723 36.7934942,47.815424 L36.7934942,10.9699075 C36.7934942,10.9575414 36.7922149,10.9451754 36.7917884,10.9328095 L36.7917884,10.9328095 Z M26.9156311,3.72727824 L33.0666422,9.87828953 L26.9156311,9.87828953 L26.9156311,3.72727824 Z M16.9878777,33.7169225 C16.9111233,33.5084065 16.7861843,33.1677023 16.7831993,33.0282651 C16.868482,32.9225146 17.1644127,32.7353192 17.3456385,32.6210404 C17.7345273,32.3754264 18.1754386,32.0965522 18.4952486,31.6607578 C18.8180434,31.2202729 18.9493787,30.7115619 19.0653631,30.2629752 C19.1161063,30.0668251 19.1979776,29.75 19.2679093,29.6301779 C19.3062865,29.622076 19.3868786,29.6105628 19.5382554,29.6105628 C19.6597831,29.6105628 19.795809,29.6173855 19.9399366,29.6246344 C20.105385,29.6327363 20.2759503,29.6412646 20.454191,29.6412646 C20.847344,29.6412646 21.1645955,29.5969176 21.4524244,29.5009747 C21.9551657,29.3338207 22.3572734,29.010173 22.7120492,28.7244761 C22.9081993,28.5667032 23.2365375,28.302327 23.3508162,28.2861233 C23.4757554,28.302327 23.8036672,28.5667032 23.9998173,28.7244761 C24.3545931,29.010173 24.7571272,29.3338207 25.2598685,29.5009747 C25.5476973,29.5969176 25.8645224,29.6412646 26.2581019,29.6412646 C26.4359162,29.6412646 26.6069079,29.6327363 26.7719298,29.6246344 C26.9160575,29.6173855 27.0520833,29.6105628 27.1740376,29.6105628 C27.3254142,29.6105628 27.40558,29.6216496 27.4443835,29.6301779 C27.5143153,29.75 27.5961866,30.0668251 27.6465034,30.2629752 C27.7624878,30.7115619 27.8942495,31.2202729 28.2170443,31.6607578 C28.5364278,32.0965522 28.9773392,32.375 29.3666545,32.6210404 C29.5474537,32.7357456 29.8433845,32.9225146 29.9286672,33.0282651 C29.9256823,33.1677023 29.8007432,33.5084065 29.7244152,33.7169225 C29.5619518,34.1591131 29.3781676,34.660575 29.3781676,35.2161915 C29.3781676,35.7718079 29.5619518,36.2732699 29.7239888,36.7158869 C29.8007432,36.924403 29.9256823,37.2651072 29.9286672,37.4045444 C29.8433845,37.5102949 29.5474537,37.6970638 29.3666545,37.811769 C28.9773392,38.057383 28.5364278,38.3362573 28.2170443,38.7720517 C27.8942495,39.2125366 27.7624878,39.7212476 27.6465034,40.1698343 C27.5961866,40.365558 27.5138889,40.6828095 27.4443835,40.8026316 C27.40558,40.8107335 27.3254142,40.8222466 27.1740376,40.8222466 C27.0520833,40.8222466 26.9160575,40.815424 26.7719298,40.8081749 C26.6069079,40.800073 26.4359162,40.7915449 26.2581019,40.7915449 C25.8645224,40.7915449 25.5476973,40.8358919 25.2598685,40.9318348 C24.7571272,41.0989888 24.3545931,41.4230629 23.9998173,41.7083333 C23.8066521,41.8644005 23.4842836,42.1232334 23.3559332,42.1462598 C23.2275828,42.1232334 22.9056408,41.8644005 22.7124756,41.7083333 C22.3572734,41.4230629 21.9551657,41.0989888 21.4524244,40.9318348 C21.1645955,40.8358919 20.847344,40.7915449 20.454191,40.7915449 C20.2763767,40.7915449 20.105385,40.800073 19.9399366,40.8081749 C19.7962354,40.815424 19.6602095,40.8222466 19.5382554,40.8222466 C19.3868786,40.8222466 19.3067129,40.8107335 19.2679093,40.8026316 C19.1979776,40.6828095 19.1161063,40.3659844 19.0653631,40.1698343 C18.9498051,39.7212476 18.8180434,39.2125366 18.4952486,38.7720517 C18.175865,38.3362573 17.7349537,38.057383 17.3456385,37.811769 C17.1648392,37.6974903 16.8689084,37.5102949 16.7836257,37.4045444 C16.7866107,37.2655336 16.9115497,36.924403 16.9878777,36.7158869 C17.1503411,36.2736964 17.3341253,35.7722344 17.3341253,35.2166179 C17.3341253,34.660575 17.1499147,34.1591131 16.9878777,33.7169225 L16.9878777,33.7169225 Z M27.002193,52.8257797 L23.9362817,50.9022295 C23.5815059,50.6800682 23.1303606,50.6800682 22.7755848,50.9022295 L19.7096735,52.8257797 L19.7096735,43.0020712 C19.8256579,42.9986599 19.9395102,42.9943957 20.0499513,42.9888524 C20.1945054,42.9811769 20.3309576,42.9743543 20.454191,42.9743543 C20.6477827,42.9743543 20.7305068,42.9922637 20.7624878,43.002924 C20.8925439,43.0464182 21.1424221,43.2476852 21.3432626,43.4092958 C21.8528265,43.8195054 22.486903,44.329922 23.3559332,44.329922 C24.2249635,44.329922 24.8590399,43.8195054 25.3686038,43.4092958 C25.5694444,43.2476852 25.8193227,43.0464182 25.9489523,43.0033504 C25.9813596,42.9926901 26.0640838,42.9747808 26.2576754,42.9747808 C26.3809089,42.9747808 26.5173611,42.9816034 26.6619153,42.9888524 C26.7723562,42.9943957 26.8862086,42.9990863 27.0017666,43.0020712 L27.0017666,52.8257797 L27.002193,52.8257797 Z M29.1854288,46.7238061 L29.1854288,42.1223806 C29.5099293,41.6814693 29.6455288,41.1595394 29.7602339,40.7160697 C29.8203582,40.4832481 29.902656,40.1647173 29.9777047,40.0628046 C30.052327,39.9604654 30.329922,39.7852096 30.5324684,39.6572855 C31.0697491,39.3178607 31.738365,38.8952851 32.0040205,38.0961866 C32.2666911,37.3077485 31.9933601,36.5628046 31.7737573,35.9641203 C31.6739766,35.6924951 31.5609771,35.3841983 31.5609771,35.2161915 C31.5609771,35.0481847 31.6739766,34.7403144 31.7737573,34.468689 C31.9933601,33.8700049 32.2666911,33.1246344 32.0040205,32.3361964 C31.738365,31.5375244 31.0697491,31.1149488 30.5324684,30.7755239 C30.329922,30.6475999 30.052327,30.4719176 29.9777047,30.3704313 C29.902656,30.2680921 29.8203582,29.9495614 29.7602339,29.7167397 C29.6033138,29.1091008 29.4080166,28.3526438 28.7394006,27.8622685 C28.2072369,27.4725268 27.5910697,27.427327 27.1736112,27.427327 C26.997076,27.427327 26.8265107,27.4358552 26.6619153,27.4443835 C26.5173611,27.4516325 26.3809089,27.4584551 26.2581019,27.4584551 C26.0640838,27.4584551 25.9813596,27.4405458 25.9493787,27.4298855 C25.8197491,27.3868177 25.5698708,27.1855506 25.3690303,27.0235137 C24.8590399,26.6137305 24.2249635,26.1033138 23.3559332,26.1033138 C22.4873294,26.1033138 21.8528265,26.6137305 21.3432626,27.0235137 C21.1424221,27.1851242 20.8925439,27.3868177 20.7629142,27.4298855 C20.7309332,27.4405458 20.6477827,27.4584551 20.454191,27.4584551 C20.331384,27.4584551 20.1945054,27.4516325 20.0499513,27.4439571 C19.8853557,27.4358552 19.7152169,27.427327 19.5382554,27.427327 C19.1212231,27.427327 18.505056,27.4725268 17.9733188,27.8622685 C17.3042763,28.3526438 17.1085526,29.1091008 16.9516325,29.7167397 C16.8915083,29.9495614 16.8092105,30.2680921 16.7345882,30.3700049 C16.6595394,30.4719176 16.3819444,30.6475999 16.1793982,30.7755239 C15.6421175,31.1149488 14.9739279,31.5375244 14.707846,32.3361964 C14.4451754,33.1250609 14.7185063,33.8700049 14.9381092,34.468689 C15.0378898,34.7403144 15.1508894,35.0481847 15.1508894,35.2161915 C15.1508894,35.3841983 15.0378898,35.6924951 14.9381092,35.9641203 C14.7185063,36.5628046 14.4451754,37.3077485 14.707846,38.0966131 C14.9739279,38.8952851 15.6425439,39.3178607 16.1793982,39.6572855 C16.3823709,39.7852096 16.6595394,39.9608918 16.7345882,40.0628046 C16.8092105,40.1647173 16.8915083,40.4832481 16.9516325,40.7160697 C17.0663377,41.1595394 17.2023636,41.6818958 17.5268641,42.1223806 L17.5268641,46.7238061 L2.18323587,46.7238061 L2.18323587,2.18323587 L24.7323952,2.18323587 L24.7323952,10.9699075 C24.7323952,11.5728558 25.2210648,12.0615254 25.8240131,12.0615254 L34.6102583,12.0615254 L34.6102583,46.7238061 L29.1854288,46.7238061 Z" id="Shape"></path>
                            <path d="M6.42562132,12.0615254 L20.4895834,12.0615254 C21.0921053,12.0615254 21.5812013,11.5728558 21.5812013,10.9699075 C21.5812013,10.3669591 21.0921053,9.87828953 20.4895834,9.87828953 L6.42562132,9.87828953 C5.82267303,9.87828953 5.33400338,10.3669591 5.33400338,10.9699075 C5.33400338,11.5728558 5.82309942,12.0615254 6.42562132,12.0615254 Z" id="Shape"></path>
                            <path d="M30.489827,15.3884016 L6.42562132,15.3884016 C5.82267303,15.3884016 5.33400338,15.8770711 5.33400338,16.4800195 C5.33400338,17.0829679 5.82267303,17.5716374 6.42562132,17.5716374 L30.489827,17.5716374 C31.0927753,17.5716374 31.581445,17.0829679 31.581445,16.4800195 C31.581445,15.8770711 31.0927753,15.3884016 30.489827,15.3884016 Z" id="Shape"></path>
                            <path d="M26.1233553,20.8985136 L6.42562132,20.8985136 C5.82267303,20.8985136 5.33400338,21.3876096 5.33400338,21.9901315 C5.33400338,22.5930799 5.82267303,23.0817495 6.42562132,23.0817495 L26.1233553,23.0817495 C26.7263036,23.0817495 27.2149732,22.5930799 27.2149732,21.9901315 C27.2149732,21.3876096 26.7263036,20.8985136 26.1233553,20.8985136 Z" id="Shape"></path>
                            <path d="M30.489827,20.8985136 C29.8885843,20.8985136 29.3982091,21.3888889 29.3982091,21.9901315 C29.3982091,22.5913743 29.8885843,23.0817495 30.489827,23.0817495 C31.091496,23.0817495 31.581445,22.5913743 31.581445,21.9901315 C31.581445,21.3888889 31.091496,20.8985136 30.489827,20.8985136 Z" id="Shape"></path>
                        </g>
                    </g>
                </g>
            </g>
        </g>
    </g>
</svg>