<?xml version="1.0" encoding="UTF-8"?>
<svg width="25px" height="23px" viewBox="0 0 25 23" version="1.1" xmlns="http://www.w3.org/2000/svg" xmlns:xlink="http://www.w3.org/1999/xlink">
    <!-- Generator: sketchtool 60.1 (101010) - https://sketch.com -->
    <title>7B349B0B-78CC-4E86-A20B-00A4E7FF50AA</title>
    <desc>Created with sketchtool.</desc>
    <g id="Pac-primário" stroke="none" stroke-width="1" fill="none" fill-rule="evenodd">
        <g id="Lista-de-produtos---Mobile" transform="translate(-140.000000, -596.000000)" fill="#000000" fill-rule="nonzero">
            <g id="Group" transform="translate(16.000000, 518.000000)">
                <g id="CTA" transform="translate(0.000000, 66.000000)">
                    <g id="filter-(1)" transform="translate(124.000000, 12.000000)">
                        <path d="M24.7259496,0.481357809 C24.601891,0.218209309 24.337039,0.050359447 24.0461326,0.050359447 L0.751578035,0.050359447 C0.460671677,0.050359447 0.195919835,0.218209309 0.0717610413,0.481357809 C-0.0522975433,0.744506309 -0.0134165006,1.05555465 0.171669288,1.28002253 L9.12643438,12.141061 L9.12643438,22.1559358 C9.12643438,22.4159778 9.26081447,22.6574812 9.48167483,22.7945669 C9.60272715,22.8696234 9.74011351,22.9075023 9.87800092,22.9075023 C9.99193841,22.9075023 10.1062767,22.8815482 10.2116965,22.8293394 L15.2429836,20.3356416 C15.4986164,20.2089776 15.6603535,19.9485347 15.6607543,19.66324 L15.6705748,12.1413616 L24.625841,1.27992232 C24.8110269,1.05555465 24.8500082,0.7444061 24.7259496,0.481357809 Z M14.3396006,11.3930018 C14.2288698,11.5272817 14.1681432,11.6959332 14.1679428,11.8700962 L14.1583227,19.1956654 L10.6296677,20.9446109 L10.6296677,11.8710983 C10.6296677,11.6966347 10.5690413,11.5275823 10.4580099,11.3930018 L2.34529995,1.55339233 L22.4523105,1.55339233 L14.3396006,11.3930018 Z" id="Shape"></path>
                    </g>
                </g>
            </g>
        </g>
    </g>
</svg>