<?xml version="1.0" encoding="UTF-8"?>
<svg width="48px" height="46px" viewBox="0 0 48 46" version="1.1" xmlns="http://www.w3.org/2000/svg" xmlns:xlink="http://www.w3.org/1999/xlink">
    <!-- Generator: sketchtool 61 (101010) - https://sketch.com -->
    <title>77F27C00-B90A-4D3D-9EDC-170304B23E0A</title>
    <desc>Created with sketchtool.</desc>
    <g id="Pac-primário" stroke="none" stroke-width="1" fill="none" fill-rule="evenodd">
        <g id="Produto" transform="translate(-1003.000000, -2580.000000)" fill="#000000" fill-rule="nonzero">
            <g id="Group-6" transform="translate(39.000000, 2011.000000)">
                <g id="5-copy-6" transform="translate(964.000000, 569.000000)">
                    <g id="hand-wash">
                        <path d="M46.1614286,17.4205714 C45.4182857,16.8342857 44.5722857,17.2525714 44.5722857,17.7265714 C44.5722857,18.2005714 44.9142857,18.5717143 45.1782857,18.8348571 C45.3334286,18.99 45.4294286,19.2042857 45.4294286,19.4408571 L45.4294286,20.298 C45.4294286,20.7711429 45.0454286,21.1328571 44.5722857,21.1328571 C44.5722857,21.1328571 44.3725714,21.1328571 44.1257143,21.1328571 C43.878,21.1328571 43.6268571,21.4637143 43.56,21.8708571 L43.4425714,22.6088571 L42.8528571,27.024 L40.5848571,25.1622857 C39.21,24.0334286 36.942,23.8714286 35.424,24.7937143 L32.6914286,26.4548571 C32.6734286,26.4677143 32.6451429,26.4728571 32.6262857,26.4848571 C32.6434286,24.3 32.85,21.6565714 33.1045714,20.4711429 L33.6197143,18.0677143 L33.834,16.2094286 C33.9668571,15.0454286 33.7705714,13.3868571 33.384,12.4337143 C33.0291429,11.5534286 32.3871429,10.2857143 31.9234286,9.54857143 C31.4888571,8.85857143 31.074,8.05114286 30.972,7.75971429 C30.9017143,7.54371429 30.7714286,6.35742857 30.7714286,4.86171429 L30.7714286,2.39914286 C30.7714286,1.92514286 30.3882857,1.542 29.9142857,1.542 C29.4385714,1.542 29.0571429,1.92514286 29.0571429,2.39914286 L29.0571429,4.86342857 C29.0571429,5.766 29.1171429,7.65085714 29.3562857,8.32628571 C29.5388571,8.84657143 30.0685714,9.81514286 30.4748571,10.4622857 C30.8811429,11.106 31.4871429,12.3025714 31.8,13.0791429 C32.0785714,13.7691429 32.2371429,15.1405714 32.1377143,16.0157143 L31.9371429,17.79 L31.434,20.112 C31.1425714,21.4662857 30.9154286,24.384 30.9154286,26.7565714 C30.9154286,29.1994286 30.8271429,30.9617143 30.7808571,31.2042857 C30.7525714,31.2677143 30.6291429,31.3765714 30.5665714,31.3988571 C30.3445714,31.4622857 29.9545714,31.4811429 29.79,31.4511429 L29.6888571,31.4331429 C29.5971429,31.4151429 29.3725714,31.3748571 29.2054286,31.326 L29.2054286,21.6857143 C29.2054286,21.2117143 28.8231429,20.8285714 28.3482857,20.8285714 C27.8742857,20.8285714 27.4911429,21.2117143 27.4911429,21.6857143 L27.4911429,31.6937143 C27.4911429,31.7057143 27.4911429,31.7151429 27.4911429,31.7271429 L27.4911429,33.6137143 C27.4911429,33.624 27.4971429,33.6317143 27.4971429,33.6402857 C27.468,33.7774286 27.4354286,33.8365714 27.414,33.8562857 C27.1088571,33.9814286 26.7574286,34.0268571 26.6674286,34.0174286 C26.2122857,33.942 26.0477143,33.8151429 25.8017143,33.624 C25.77,33.5991429 25.7382857,33.5742857 25.7065714,33.5502857 L25.7065714,21.6857143 C25.7065714,21.2117143 25.3234286,20.8285714 24.8494286,20.8285714 C24.3754286,20.8285714 23.9922857,21.2117143 23.9922857,21.6857143 L23.9922857,34.3997143 C23.9922857,34.4108571 23.9982857,34.4185714 23.9982857,34.4297143 C23.9854286,34.4794286 23.9725714,34.5257143 23.9605714,34.5737143 C23.8988571,34.8317143 23.8834286,34.8934286 23.7497143,35.004 C23.7008571,35.0245714 23.5757143,35.0554286 23.1942857,35.0442857 C23.1205714,35.0357143 22.8582857,34.9688571 22.6834286,34.902 C22.6405714,34.8617143 22.5625714,34.704 22.5625714,34.542 C22.5625714,34.4528571 22.5685714,34.3817143 22.572,34.3294286 C22.5805714,34.224 22.5754286,34.128 22.5634286,34.0362857 L22.5634286,21.6857143 C22.5634286,21.2117143 22.1802857,20.8285714 21.7062857,20.8285714 C21.2322857,20.8285714 20.8491429,21.2117143 20.8491429,21.6857143 L20.8491429,33.5982857 C20.5834286,33.6514286 20.0785714,33.6634286 19.7922857,33.6231429 C19.4091429,33.57 19.3302857,33.4705714 19.2505714,33.3214286 C19.1194286,33.0437143 18.7054286,31.1614286 18.7054286,28.8265714 L18.7054286,28.326 C18.7054286,27.9042857 18.7088571,27.5005714 18.7114286,27.1294286 C18.7174286,26.4342857 18.7191429,25.8985714 18.7054286,25.4614286 L18.7054286,16.3997143 C18.7054286,15.9257143 18.3222857,15.5425714 17.8482857,15.5425714 C17.3742857,15.5425714 16.9911429,15.9257143 16.9911429,16.3997143 L16.9911429,23.7574286 C16.7082857,23.8182857 16.2145714,23.8422857 16.0568571,23.8037143 C15.9368571,23.7522857 15.5931429,23.4437143 15.39,23.0674286 C15.2511429,22.7862857 14.9914286,21.18 14.9914286,19.116 L14.9914286,14.6871429 C14.9914286,14.3065714 15.2005714,13.434 15.4817143,12.8365714 C15.7808571,12.1997143 16.3928571,11.1291429 16.8471429,10.4485714 L18.5725714,7.788 C19.1374286,6.89571429 19.5625714,5.10257143 19.5625714,3.61628571 L19.5625714,1.25914286 C19.5625714,0.785142857 19.1794286,0.402 18.7054286,0.402 C18.2314286,0.402 17.8482857,0.785142857 17.8482857,1.25914286 L17.8482857,3.61628571 C17.8482857,4.86 17.4668571,6.33 17.1231429,6.87257143 L15.4208571,9.498 C14.9194286,10.2488571 14.2645714,11.3957143 13.9302857,12.108 C13.5582857,12.9008571 13.2771429,14.0091429 13.2771429,14.688 L13.2771429,19.1168571 C13.2771429,20.3785714 13.4031429,22.9954286 13.8797143,23.8817143 C14.1985714,24.4731429 14.844,25.2111429 15.5065714,25.4314286 C15.8477143,25.5454286 16.4382857,25.572 16.9902857,25.5 L16.9902857,26.8534286 C16.3954286,26.85 15.8245714,26.7188571 15.4028571,26.4642857 L12.6308571,24.792 C11.1222857,23.8817143 8.83628571,23.994 7.42628571,25.0508571 L4.69714286,27.09 L4.09714286,22.6114286 C4.09714286,22.6114286 4.06371429,22.2857143 4.02257143,21.8837143 C3.98142857,21.4817143 3.642,21.1474286 3.26314286,21.15 C2.92028571,21.1525714 2.57742857,21.1568571 2.57742857,21.1568571 C2.10428571,21.1568571 1.72028571,20.7737143 1.72028571,20.3005714 L1.72028571,19.4434286 C1.72028571,19.2068571 1.81628571,18.9925714 1.97142857,18.8374286 C2.22857143,18.5725714 2.57142857,18.2005714 2.57142857,17.7265714 C2.57142857,17.2525714 1.72542857,16.8342857 0.981428571,17.4205714 C0.384,17.8928571 0,18.6222857 0,19.4408571 L0,20.298 C0,21.7157143 1.15371429,22.8694286 2.57142857,22.8694286 C2.58514286,22.8694286 2.92371429,25.3457143 3.35828571,28.5651429 C3.36257143,28.6337143 3.366,28.7005714 3.38571429,28.7657143 C4.19485714,34.7588571 5.316,43.1717143 5.316,43.1717143 C5.45571429,44.214 6.38828571,45.03 7.43828571,45.03 L40.0945714,45.03 C41.1462857,45.03 42.0762857,44.214 42.2177143,43.1717143 L44.9502857,22.8317143 C46.1871429,22.6474286 47.1454286,21.5871429 47.1454286,20.2988571 L47.1454286,19.4417143 C47.1437143,18.6222857 46.7597143,17.892 46.1614286,17.4205714 Z M40.7297143,42.972 C40.6911429,43.2651429 40.3902857,43.5291429 40.0971429,43.5291429 L7.44,43.5291429 C7.146,43.5291429 6.84428571,43.2625714 6.80571429,42.972 L4.94571429,29.0314286 L8.44285714,26.418 C9.29142857,25.7845714 10.8291429,25.7082857 11.736,26.2568571 L14.508,27.9291429 C15.1962857,28.3431429 16.0765714,28.5574286 16.9817143,28.5625714 L16.9817143,28.8282857 L16.9817143,29.5602857 C16.9817143,29.5885714 16.9954286,29.6134286 16.9988571,29.6434286 C17.0751429,31.6602857 17.4162857,33.546 17.7265714,34.1254286 C18.2151429,35.0374286 18.9994286,35.2465714 19.5462857,35.322 C19.5565714,35.3237143 20.2628571,35.4171429 20.9742857,35.31 C21.1405714,35.7891429 21.4602857,36.2305714 21.9231429,36.4345714 C22.2214286,36.5631429 22.8385714,36.7577143 23.3331429,36.7577143 C23.8165714,36.7577143 24.3488571,36.7011429 24.7602857,36.378 C25.1597143,36.0634286 25.3611429,35.7334286 25.476,35.4437143 C25.7134286,35.5525714 26.0048571,35.646 26.3768571,35.7111429 C26.8894286,35.7951429 27.5854286,35.6365714 28.056,35.4437143 C29.0905714,35.0202857 29.2422857,33.8991429 29.2628571,33.0985714 C29.3014286,33.1071429 29.3382857,33.114 29.3768571,33.12 L29.466,33.1354286 C29.916,33.2228571 30.5802857,33.1842857 31.0482857,33.0454286 C31.6525714,32.8662857 32.2268571,32.3134286 32.4094286,31.728 C32.5405714,31.3028571 32.5937143,29.6374286 32.6125714,28.3414286 C32.9631429,28.2308571 33.2982857,28.0988571 33.5845714,27.9248571 L36.3171429,26.2637143 C37.2214286,25.7151429 38.6794286,25.8171429 39.5005714,26.4917143 L42.5897143,29.028 L40.7297143,42.972 Z" id="Shape"></path>
                    </g>
                </g>
            </g>
        </g>
    </g>
</svg>