<?xml version="1.0" encoding="UTF-8"?>
<svg width="88px" height="88px" viewBox="0 0 88 88" version="1.1" xmlns="http://www.w3.org/2000/svg" xmlns:xlink="http://www.w3.org/1999/xlink">
    <!-- Generator: sketchtool 64 (101010) - https://sketch.com -->
    <title>13B4A545-FD9E-4874-9E5C-7CB4D52178C3</title>
    <desc>Created with sketchtool.</desc>
    <g id="Pac-auxiliar" stroke="none" stroke-width="1" fill="none" fill-rule="evenodd">
        <g id="Ajuda---Busca-sem-resultado" transform="translate(-915.000000, -1157.000000)" fill="#000000" fill-rule="nonzero">
            <g id="Group-4" transform="translate(40.000000, 714.000000)">
                <g id="e-mail-copy" transform="translate(519.000000, 443.000000)">
                    <g id="loupe" transform="translate(356.000000, 0.000000)">
                        <path d="M53.28125,32.65625 C52.3325,32.65625 51.5625,33.42625 51.5625,34.375 C51.5625,35.32375 52.3325,36.09375 53.28125,36.09375 C54.23,36.09375 55,35.32375 55,34.375 C55,33.42625 54.23,32.65625 53.28125,32.65625 Z" id="Shape"></path>
                        <path d="M85.9857969,76.2642031 L63.0439219,53.3223281 C66.7813438,47.6927344 68.75,41.1735156 68.75,34.375 C68.75,15.420625 53.329375,0 34.375,0 C15.420625,0 0,15.420625 0,34.375 C0,53.329375 15.420625,68.75 34.375,68.75 C41.1736875,68.75 47.6929063,66.7811719 53.3223281,63.0440938 L59.6636563,69.3854219 C59.6645156,69.3862812 59.665375,69.3871406 59.6664063,69.3881719 L76.2640313,85.9857969 C77.5630625,87.2846562 79.2892031,88 81.125,88 C82.9607969,88 84.6869375,87.2846562 85.9852812,85.9863125 C87.2844844,84.6881406 88,82.9618281 88,81.125 C88,79.2881719 87.2844844,77.5618594 85.9857969,76.2642031 Z M52.514,59.4218281 C52.514,59.422 52.5138281,59.422 52.5136563,59.4221719 C47.2083906,63.2756094 40.9363281,65.3125 34.375,65.3125 C17.3160625,65.3125 3.4375,51.4339375 3.4375,34.375 C3.4375,17.3160625 17.3160625,3.4375 34.375,3.4375 C51.4339375,3.4375 65.3125,17.3160625 65.3125,34.375 C65.3125,40.9363281 63.2756094,47.2083906 59.422,52.5138281 C57.4940781,55.1698125 55.1699844,57.4940781 52.514,59.4218281 Z M56.1199375,60.9800469 C57.8988437,59.5247812 59.5249531,57.8986719 60.9800469,56.1199375 L65.8563125,60.9962031 C64.373375,62.7464062 62.7464062,64.3735469 60.9962031,65.8563125 L56.1199375,60.9800469 Z M83.5551406,83.5551406 C82.9054531,84.2048281 82.0424687,84.5625 81.125,84.5625 C80.2075312,84.5625 79.3445469,84.2048281 78.6948594,83.5551406 L63.4332187,68.2935 C65.1737969,66.7997344 66.7997344,65.1739688 68.2933281,63.4333906 L83.5554844,78.6955469 C84.2048281,79.3442031 84.5625,80.2068438 84.5625,81.125 C84.5625,82.0431563 84.2048281,82.9057969 83.5551406,83.5551406 Z" id="Shape"></path>
                        <path d="M34.375,6.875 C19.2113281,6.875 6.875,19.2113281 6.875,34.375 C6.875,49.5386719 19.2113281,61.875 34.375,61.875 C49.5386719,61.875 61.875,49.5386719 61.875,34.375 C61.875,19.2113281 49.5386719,6.875 34.375,6.875 Z M34.375,58.4375 C21.1069375,58.4375 10.3125,47.6430625 10.3125,34.375 C10.3125,21.1069375 21.1069375,10.3125 34.375,10.3125 C47.6430625,10.3125 58.4375,21.1069375 58.4375,34.375 C58.4375,47.6430625 47.6430625,58.4375 34.375,58.4375 Z" id="Shape"></path>
                        <path d="M53.6361719,26.9969219 C52.1561562,23.1448594 49.5792344,19.8513906 46.1836719,17.4728125 C42.7073281,15.0373437 38.6239219,13.75 34.375,13.75 C33.4259063,13.75 32.65625,14.5196562 32.65625,15.46875 C32.65625,16.4178437 33.4259063,17.1875 34.375,17.1875 C41.4388906,17.1875 47.8897031,21.6249687 50.4274375,28.2299531 C50.6900625,28.9133281 51.3412969,29.3327031 52.0322344,29.3327031 C52.2371094,29.3327031 52.4455937,29.29575 52.6482344,29.2178906 C53.53425,28.8774062 53.9766562,27.8831094 53.6361719,26.9969219 Z" id="Shape"></path>
                    </g>
                </g>
            </g>
        </g>
    </g>
</svg>