<svg width="83" height="88" viewBox="0 0 83 88" xmlns="http://www.w3.org/2000/svg"><title>E76F9EE9-44E6-408D-975D-2255EE7ED784</title><g fill="#00936F"><path d="M82.142 33.873L66.859 20.932v-2.414c0-.373-.148-.729-.411-.991L49.33.445l-.013-.01a1.398 1.398 0 0 0-1.17-.426l-.024-.002a1.516 1.516 0 0 0-.14-.007H23.777a7.757 7.757 0 0 0-7.748 7.747v13.194L.83 33.832A1.4 1.4 0 0 0 .021 35.1v43.455a9.416 9.416 0 0 0 9.405 9.405h64.038c5.192-.006 9.4-4.213 9.405-9.405V35.1a1.4 1.4 0 0 0-.726-1.227zM79.3 35.138L66.86 45.69V24.603L79.3 35.138zM49.707 4.777l12.4 12.375h-7.455a4.951 4.951 0 0 1-4.945-4.945v-7.43zM23.777 2.8h23.128v9.406a7.755 7.755 0 0 0 7.747 7.747h9.405v28.112l-18.33 15.547a6.583 6.583 0 0 1-8.539.004L18.831 48.074V7.747a4.952 4.952 0 0 1 4.946-4.946zm-7.748 21.813V45.7L3.588 35.166l12.441-10.552zM9.425 85.159a6.574 6.574 0 0 1-3.998-1.354l19.15-19.588a1.4 1.4 0 0 0-2.002-1.959L3.602 81.664a6.57 6.57 0 0 1-.78-3.11V38.189l13.716 11.616h.001l18.838 15.952a9.374 9.374 0 0 0 12.161-.006l32.529-27.587v40.392a6.56 6.56 0 0 1-.785 3.12l-19.086-19.42a1.401 1.401 0 0 0-1.998 1.965l19.256 19.59a6.568 6.568 0 0 1-3.991 1.349H9.425z"/><path d="M37.816 42.54c.494.579 1.36.657 1.95.177l8.983-7.308c.391-.315.584-.815.506-1.311a1.4 1.4 0 1 0-2.275-.862l-7.921 6.445-2.97-3.477a1.401 1.401 0 1 0-2.13 1.819l3.857 4.517z"/><path d="M41.444 53.385a15.409 15.409 0 1 0-.001-30.818 15.409 15.409 0 0 0 .001 30.818zm-9.929-23.179a12.61 12.61 0 1 1-2.678 7.77 12.541 12.541 0 0 1 2.678-7.77z"/></g></svg>