<?xml version="1.0" encoding="UTF-8"?>
<svg width="16px" height="16px" viewBox="0 0 16 16" version="1.1" xmlns="http://www.w3.org/2000/svg" xmlns:xlink="http://www.w3.org/1999/xlink">
    <!-- Generator: sketchtool 64 (101010) - https://sketch.com -->
    <title>8D6732C7-0A2B-4B88-9CED-3397C30750B9</title>
    <desc>Created with sketchtool.</desc>
    <g id="Pac-primário" stroke="none" stroke-width="1" fill="none" fill-rule="evenodd">
        <g id="Menu-acessibilidade" transform="translate(-328.000000, -134.000000)" fill="#FFFFFF" fill-rule="nonzero">
            <g id="Contraste" transform="translate(0.000000, 128.000000)">
                <g id="moon-phase-outline" transform="translate(328.000000, 6.000000)">
                    <path d="M15.9882789,10.955767 C15.9629747,10.8166767 15.8993332,10.6985047 15.7978878,10.601178 C15.5730464,10.3856792 15.3119256,10.3404475 15.0146015,10.4655193 C14.2167195,10.8199258 13.3896081,10.996983 12.533839,10.996983 C11.4602787,10.996983 10.4701764,10.7436269 9.56353217,10.2362575 C8.65688795,9.72903415 7.93891993,9.0411759 7.40943757,8.17253674 C6.87976467,7.30393408 6.61509971,6.35549138 6.61509971,5.32702611 C6.61509971,4.52796861 6.78022473,3.76881288 7.11016991,3.04959542 C7.4401913,2.33041447 7.91715986,1.69983515 8.54088505,1.15782096 C8.78032205,0.942504755 8.8348175,0.692288195 8.70425707,0.407353812 C8.5809373,0.122565457 8.35971626,-0.012874205 8.04059396,0.000961814326 C6.93083034,0.0426158989 5.87906816,0.280748759 4.88530744,0.714885809 C3.89158483,1.14913238 3.0374544,1.72053442 2.32295428,2.4294205 C1.60853037,3.13816055 1.0426923,3.97726584 0.625592516,4.94655383 C0.208607056,5.91591484 0,6.93215038 0,7.99526046 C0,9.07928884 0.221259146,10.1146174 0.663701222,11.101319 C1.10625762,12.0880207 1.70094398,12.9392097 2.44810327,13.6549225 C3.19518634,14.3704163 4.08372892,14.940212 5.11384535,15.3642367 C6.14384745,15.7879694 7.22445792,16 8.3559435,16 C9.98089872,16 11.480362,15.5778736 12.8548287,14.7335844 C14.2293716,13.8894047 15.2575826,12.7620064 15.9394998,11.3514261 C15.9975774,11.2264638 16.0138498,11.0945653 15.9882789,10.955767 Z M11.331738,14.0246618 C10.3925109,14.4521912 9.40054124,14.6657916 8.3559435,14.6657916 C7.41301979,14.6657916 6.51186323,14.4886248 5.65224515,14.1343278 C4.79274139,13.7800308 4.05278465,13.3058094 3.43256546,12.7115907 C2.81249871,12.1175546 2.31754284,11.4088145 1.9474692,10.5854071 C1.57754799,9.76196315 1.39256833,8.89869046 1.39256833,7.99533347 C1.39256833,6.50140845 1.85501748,5.16730953 2.77983955,3.99289068 C3.70458541,2.81865437 4.8960541,2.0230285 6.35397886,1.60612259 C5.59961702,2.75261385 5.22237894,3.99289068 5.22237894,5.32709912 C5.22237894,6.59183541 5.5487419,7.7626401 6.20165836,8.83987825 C6.85438427,9.91678784 7.74300308,10.7678308 8.86736234,11.3934452 C9.99153105,12.0187676 11.2135248,12.331447 12.533839,12.331447 C12.9399254,12.331447 13.3390379,12.3002338 13.7307573,12.2376249 C13.0707907,13.0020011 12.2709271,13.5976801 11.331738,14.0246618 Z" id="Shape"></path>
                </g>
            </g>
        </g>
    </g>
</svg>