<?xml version="1.0" encoding="UTF-8"?>
<svg width="32px" height="23px" viewBox="0 0 32 23" version="1.1" xmlns="http://www.w3.org/2000/svg" xmlns:xlink="http://www.w3.org/1999/xlink">
    <!-- Generator: sketchtool 60.1 (101010) - https://sketch.com -->
    <title>F1B76381-4CD2-44AF-8A07-106E10BE28C0</title>
    <desc>Created with sketchtool.</desc>
    <g id="Pac-primário" stroke="none" stroke-width="1" fill="none" fill-rule="evenodd">
        <g id="Home-v2" transform="translate(-538.000000, -575.000000)" fill="#000000" fill-rule="nonzero">
            <g id="Banner" transform="translate(43.000000, 168.000000)">
                <g id="Group-15" transform="translate(293.000000, 404.000000)">
                    <path d="M223.548428,3.34590371 C223.11248,2.88469876 222.386916,2.88469876 221.935726,3.34590371 C221.499778,3.79152741 221.499778,4.53319483 221.935726,4.97777979 L230.113052,13.3366001 L203.128993,13.3366001 C202.499968,13.3376389 202,13.8487038 202,14.49169 C202,15.1346762 202.499968,15.6623611 203.128993,15.6623611 L230.113052,15.6623611 L221.935726,24.0056002 C221.499778,24.4668052 221.499778,25.2095113 221.935726,25.6540963 C222.386916,26.1153012 223.113496,26.1153012 223.548428,25.6540963 L233.661607,15.3164574 C234.112798,14.8708337 234.112798,14.1291663 233.661607,13.6845813 L223.548428,3.34590371 Z" id="Shape"></path>
                </g>
            </g>
        </g>
    </g>
</svg>