<?xml version="1.0" encoding="UTF-8"?>
<svg width="24px" height="24px" viewBox="0 0 24 24" version="1.1" xmlns="http://www.w3.org/2000/svg" xmlns:xlink="http://www.w3.org/1999/xlink">
    <!-- Generator: sketchtool 60.1 (101010) - https://sketch.com -->
    <title>DA1B7FB4-9422-4729-8B25-B605483CC661</title>
    <desc>Created with sketchtool.</desc>
    <g id="Pac-primário" stroke="none" stroke-width="1" fill="none" fill-rule="evenodd">
        <g id="Onde-comprar---resultado" transform="translate(-524.000000, -852.000000)" fill="#000000" fill-rule="nonzero">
            <g id="Group-6" transform="translate(336.000000, 780.000000)">
                <g id="e-mail-copy" transform="translate(188.000000, 72.000000)">
                    <g id="phone-call-(1)">
                        <path d="M18.9597975,14.8610633 C18.4686582,14.3496709 17.8762532,14.0762532 17.2484051,14.0762532 C16.6256203,14.0762532 16.0281519,14.3446076 15.5167595,14.856 L13.9167595,16.4509367 C13.7851139,16.3800506 13.6534684,16.3142278 13.5268861,16.2484051 C13.3446076,16.1572658 13.1724557,16.0711899 13.0256203,15.9800506 C11.5268861,15.0281519 10.1648608,13.7876456 8.85853165,12.1825823 C8.22562025,11.3825823 7.8003038,10.7091646 7.49144304,10.0256203 C7.90663291,9.64587342 8.29144304,9.25093671 8.66612658,8.87118987 C8.80789873,8.72941772 8.94967089,8.58258228 9.09144304,8.44081013 C10.1547342,7.37751899 10.1547342,6.0003038 9.09144304,4.93701266 L7.70916456,3.55473418 C7.55220253,3.39777215 7.39017722,3.23574684 7.23827848,3.07372152 C6.93448101,2.75979747 6.61549367,2.43574684 6.28637975,2.13194937 C5.79524051,1.64587342 5.20789873,1.38764557 4.59017722,1.38764557 C3.9724557,1.38764557 3.37498734,1.64587342 2.86865823,2.13194937 C2.86359494,2.13701266 2.86359494,2.13701266 2.85853165,2.14207595 L1.13701266,3.87878481 C0.488911392,4.52688608 0.119291139,5.31675949 0.038278481,6.23321519 C-0.0832405063,7.7116962 0.352202532,9.08891139 0.686379747,9.99017722 C1.50663291,12.2028354 2.73194937,14.2534684 4.55979747,16.4509367 C6.77751899,19.099038 9.44587342,21.1901772 12.4939747,22.6635949 C13.6585316,23.2154937 15.212962,23.8686582 16.9496709,23.9800506 C17.056,23.9851139 17.1673924,23.9901772 17.2686582,23.9901772 C18.4382785,23.9901772 19.420557,23.5699241 20.1901772,22.734481 C20.1952405,22.7243544 20.2053671,22.7192911 20.2104304,22.7091646 C20.4737215,22.3901772 20.777519,22.1015696 21.0965063,21.7927089 C21.3142278,21.5851139 21.5370127,21.3673924 21.7547342,21.1395443 C22.256,20.6180253 22.5192911,20.0104304 22.5192911,19.3876456 C22.5192911,18.7597975 22.2509367,18.1572658 21.7395443,17.6509367 L18.9597975,14.8610633 Z M20.7724557,20.1927089 C20.7673924,20.1927089 20.7673924,20.1977722 20.7724557,20.1927089 C20.5749873,20.4053671 20.3724557,20.5977722 20.1547342,20.8104304 C19.8256203,21.1243544 19.491443,21.4534684 19.177519,21.8230886 C18.6661266,22.3699241 18.0635949,22.6281519 17.2737215,22.6281519 C17.1977722,22.6281519 17.1167595,22.6281519 17.0408101,22.6230886 C15.5370127,22.5268861 14.1395443,21.9395443 13.091443,21.4382785 C10.2256203,20.0509367 7.70916456,18.0813165 5.61802532,15.5851139 C3.89144304,13.5041013 2.73701266,11.5800506 1.9724557,9.51422785 C1.50156962,8.25346835 1.32941772,7.27118987 1.40536709,6.34460759 C1.456,5.75220253 1.6838481,5.26106329 2.10410127,4.84081013 L3.83068354,3.11422785 C4.07878481,2.88131646 4.34207595,2.75473418 4.6003038,2.75473418 C4.91929114,2.75473418 5.17751899,2.94713924 5.3395443,3.10916456 C5.34460759,3.11422785 5.34967089,3.11929114 5.35473418,3.12435443 C5.66359494,3.41296203 5.95726582,3.7116962 6.26612658,4.03068354 C6.42308861,4.19270886 6.58511392,4.35473418 6.74713924,4.52182278 L8.12941772,5.90410127 C8.66612658,6.44081013 8.66612658,6.93701266 8.12941772,7.47372152 C7.98258228,7.62055696 7.84081013,7.76739241 7.69397468,7.90916456 C7.26865823,8.34460759 6.86359494,8.74967089 6.42308861,9.14460759 C6.41296203,9.15473418 6.40283544,9.15979747 6.39777215,9.16992405 C5.96232911,9.60536709 6.04334177,10.0306835 6.13448101,10.3192911 C6.1395443,10.334481 6.14460759,10.3496709 6.14967089,10.3648608 C6.50916456,11.2357468 7.01549367,12.056 7.78511392,13.0332152 L7.79017722,13.0382785 C9.18764557,14.7597975 10.6610633,16.1015696 12.2863797,17.1294177 C12.4939747,17.2610633 12.7066329,17.3673924 12.9091646,17.4686582 C13.091443,17.5597975 13.2635949,17.6458734 13.4104304,17.7370127 C13.4306835,17.7471392 13.4509367,17.7623291 13.4711899,17.7724557 C13.6433418,17.8585316 13.8053671,17.899038 13.9724557,17.899038 C14.3927089,17.899038 14.656,17.6357468 14.7420759,17.5496709 L16.4737215,15.8180253 C16.6458734,15.6458734 16.9192911,15.4382785 17.2382785,15.4382785 C17.5522025,15.4382785 17.8104304,15.6357468 17.9673924,15.8078987 C17.9724557,15.812962 17.9724557,15.812962 17.977519,15.8180253 L20.7673924,18.6078987 C21.2889114,19.1243544 21.2889114,19.656 20.7724557,20.1927089 Z" id="Shape"></path>
                        <path d="M12.9648608,5.70663291 C14.291443,5.92941772 15.4965063,6.55726582 16.4585316,7.51929114 C17.420557,8.48131646 18.0433418,9.68637975 18.2711899,11.012962 C18.3268861,11.3471392 18.6154937,11.5800506 18.9446076,11.5800506 C18.9851139,11.5800506 19.020557,11.5749873 19.0610633,11.5699241 C19.4357468,11.5091646 19.6838481,11.1547342 19.6230886,10.7800506 C19.3496709,9.17498734 18.5901772,7.7116962 17.4306835,6.55220253 C16.2711899,5.39270886 14.8078987,4.63321519 13.2028354,4.35979747 C12.8281519,4.29903797 12.4787848,4.54713924 12.412962,4.91675949 C12.3471392,5.28637975 12.5901772,5.64587342 12.9648608,5.70663291 Z" id="Shape"></path>
                        <path d="M23.9623291,10.5825823 C23.5116962,7.9395443 22.2661266,5.53448101 20.3522025,3.62055696 C18.4382785,1.70663291 16.0332152,0.461063291 13.3901772,0.0104303797 C13.020557,-0.0553924051 12.6711899,0.197772152 12.6053671,0.567392405 C12.5446076,0.942075949 12.7927089,1.29144304 13.1673924,1.35726582 C15.5268861,1.75726582 17.6787848,2.87625316 19.3901772,4.58258228 C21.1015696,6.29397468 22.2154937,8.44587342 22.6154937,10.8053671 C22.6711899,11.1395443 22.9597975,11.3724557 23.2889114,11.3724557 C23.3294177,11.3724557 23.3648608,11.3673924 23.4053671,11.3623291 C23.7749873,11.3066329 24.0281519,10.9522025 23.9623291,10.5825823 Z" id="Shape"></path>
                    </g>
                </g>
            </g>
        </g>
    </g>
</svg>