<?xml version="1.0" encoding="UTF-8"?>
<svg width="54px" height="56px" viewBox="0 0 54 56" version="1.1" xmlns="http://www.w3.org/2000/svg" xmlns:xlink="http://www.w3.org/1999/xlink">
    <!-- Generator: sketchtool 61 (101010) - https://sketch.com -->
    <title>6C57DEAF-541E-427A-8C9F-476435DE26D7</title>
    <desc>Created with sketchtool.</desc>
    <g id="Pac-primário" stroke="none" stroke-width="1" fill="none" fill-rule="evenodd">
        <g id="Produto" transform="translate(-1314.000000, -3257.000000)" fill="#000000" fill-rule="nonzero">
            <g id="Principais-categorias" transform="translate(40.000000, 2953.000000)">
                <g id="Card-Copy-9" transform="translate(1250.000000, 272.000000)">
                    <g id="Group-4">
                        <g id="picture" transform="translate(24.000000, 32.000000)">
                            <path d="M14,25.9947692 C17.3072308,25.9947692 19.9973846,23.3046154 19.9973846,19.9984615 C19.9973846,16.6901538 17.3072308,14 14,14 C10.6927692,14 8.00261538,16.6901538 8.00261538,19.9973846 C8.00261538,23.3046154 10.6927692,25.9947692 14,25.9947692 Z M14,16.1538462 C16.1193846,16.1538462 17.8435385,17.8790769 17.8435385,19.9973846 C17.8435385,22.1156923 16.1193846,23.8409231 14,23.8409231 C11.8806154,23.8409231 10.1564615,22.1167692 10.1564615,19.9984615 C10.1564615,17.8801538 11.8806154,16.1538462 14,16.1538462 Z" id="Shape"></path>
                            <path d="M0,0 L0,43.0769231 L0,56 L53.8461538,56 L53.8461538,43.0769231 L53.8461538,0 L0,0 Z M2.15384615,2.15384615 L51.6923077,2.15384615 L51.6923077,30.9367692 L40.5741538,20.7447692 C40.3630769,20.552 40.0852308,20.4561538 39.7987692,20.4626154 C39.5133846,20.4755385 39.2441538,20.6015385 39.0513846,20.8126154 L28.504,32.3647692 L23.3961538,27.2569231 C22.9933846,26.8552308 22.3493846,26.8347692 21.9229231,27.2095385 L3.90061538,43.0769231 L2.15384615,43.0769231 L2.15384615,2.15384615 Z M51.6923077,53.8461538 L2.15384615,53.8461538 L2.15384615,45.2307692 L51.6923077,45.2307692 L51.6923077,53.8461538 Z M7.16046154,43.0769231 L22.5863077,29.4958462 L33.6807692,40.5892308 C34.1018462,41.0103077 34.7824615,41.0103077 35.2035385,40.5892308 C35.6246154,40.1681538 35.6246154,39.4875385 35.2035385,39.0664615 L30.0267692,33.8896923 L39.914,23.0623077 L51.6923077,33.8584615 L51.6923077,43.0769231 L7.16046154,43.0769231 Z" id="Shape"></path>
                        </g>
                    </g>
                </g>
            </g>
        </g>
    </g>
</svg>