<?xml version="1.0" encoding="UTF-8"?>
<svg width="24px" height="24px" viewBox="0 0 24 24" version="1.1" xmlns="http://www.w3.org/2000/svg" xmlns:xlink="http://www.w3.org/1999/xlink">
    <!-- Generator: sketchtool 60.1 (101010) - https://sketch.com -->
    <title>6E7E5B40-8C1E-4526-9080-6D64D9DE9825</title>
    <desc>Created with sketchtool.</desc>
    <g id="Pac-primário" stroke="none" stroke-width="1" fill="none" fill-rule="evenodd">
        <g id="Onde-comprar---resultado" transform="translate(-839.000000, -2018.000000)" fill="#000000" fill-rule="nonzero">
            <g id="Group" transform="translate(815.000000, 2002.000000)">
                <g id="icone" transform="translate(24.000000, 16.000000)">
                    <path d="M23.0820404,12.8898565 L0.899297424,12.8898565 C0.402883504,12.8898565 0,12.486973 0,11.9905591 C0,11.4941452 0.402883504,11.0912617 0.899297424,11.0912617 L23.0820404,11.0912617 C23.5784543,11.0912617 23.9813378,11.4941452 23.9813378,11.9905591 C23.9813378,12.486973 23.5784543,12.8898565 23.0820404,12.8898565 Z" id="Shape"></path>
                    <path d="M11.9905591,23.9813378 C11.4941452,23.9813378 11.0912617,23.5784543 11.0912617,23.0820404 L11.0912617,0.899297424 C11.0912617,0.402883504 11.4941452,0 11.9905591,0 C12.486973,0 12.8898565,0.402883504 12.8898565,0.899297424 L12.8898565,23.0820404 C12.8898565,23.5784543 12.486973,23.9813378 11.9905591,23.9813378 Z" id="Shape"></path>
                </g>
            </g>
        </g>
    </g>
</svg>