<?xml version="1.0" encoding="UTF-8"?>
<svg width="24px" height="24px" viewBox="0 0 24 24" version="1.1" xmlns="http://www.w3.org/2000/svg" xmlns:xlink="http://www.w3.org/1999/xlink">
    <!-- Generator: sketchtool 60.1 (101010) - https://sketch.com -->
    <title>49EA7659-828C-48A0-9B7A-C80B1629A89C</title>
    <desc>Created with sketchtool.</desc>
    <g id="Pac-primário" stroke="none" stroke-width="1" fill="none" fill-rule="evenodd">
        <g id="Modal---filtro---Mobile" transform="translate(-24.000000, -1309.000000)" fill="#000000" fill-rule="nonzero">
            <g id="Group" transform="translate(0.000000, 1284.000000)">
                <g id="CTA" transform="translate(24.000000, 25.000000)">
                    <g id="remove">
                        <path d="M12,0 C5.37249755,0 0,5.37249755 0,12 C0,18.6275025 5.37249755,24 12,24 C18.6275025,24 24,18.6275025 24,12 C23.9921265,5.37579347 18.6242065,0.00787354687 12,0 Z M12,22.5 C6.20104978,22.5 1.5,17.7989502 1.5,12 C1.5,6.20104978 6.20104978,1.5 12,1.5 C17.7989502,1.5 22.5,6.20104978 22.5,12 C22.4937744,17.7963867 17.7963867,22.4937744 12,22.5 Z" id="Shape"></path>
                        <path d="M17.8335571,6.16644286 C17.5405884,5.87365725 17.0657959,5.87365725 16.7730103,6.16644286 L12,10.9394531 L7.22698973,6.16644286 C6.93914794,5.86853025 6.46435547,5.86029052 6.16644286,6.14813231 C5.86853025,6.43579102 5.86029052,6.91058348 6.14813231,7.20849609 C6.15417478,7.21472166 6.1602173,7.22094727 6.16644286,7.22698973 L10.9394531,12 L6.16644286,16.7730103 C5.86853025,17.060669 5.86029052,17.5354614 6.14813231,17.8335571 C6.43579102,18.1314698 6.91058348,18.1397095 7.20849609,17.8518677 C7.21472166,17.8458252 7.22094727,17.8397827 7.22698973,17.8335571 L12,13.0605469 L16.7730103,17.8335571 C17.0709229,18.1212158 17.5457153,18.1129761 17.833374,17.8150635 C18.1140747,17.5244751 18.1140747,17.0635987 17.833374,16.7730103 L13.0605469,12 L17.8335571,7.22698973 C18.1263428,6.93420413 18.1263428,6.45941161 17.8335571,6.16644286 L17.8335571,6.16644286 Z" id="Shape"></path>
                    </g>
                </g>
            </g>
        </g>
    </g>
</svg>