<?xml version="1.0" encoding="UTF-8"?>
<svg width="24px" height="24px" viewBox="0 0 24 24" version="1.1" xmlns="http://www.w3.org/2000/svg" xmlns:xlink="http://www.w3.org/1999/xlink">
    <!-- Generator: sketchtool 60.1 (101010) - https://sketch.com -->
    <title>C6C5E35D-0E3D-426D-8C25-414BB902E28D</title>
    <desc>Created with sketchtool.</desc>
    <g id="Symbols" stroke="none" stroke-width="1" fill="none" fill-rule="evenodd">
        <g id="Header-mobile" transform="translate(-320.000000, -56.000000)" fill="#000000" fill-rule="nonzero">
            <g id="Base" transform="translate(0.000000, 40.000000)">
                <path d="M343.601204,37.7283951 L337.715289,31.8353909 C340.674687,27.9835391 340.378748,22.4197531 336.827469,18.8971193 C334.887419,16.9547325 332.388371,16 329.856441,16 C327.324512,16 324.825464,16.9547325 322.885414,18.8971193 C319.038195,22.7489712 319.038195,29.0041152 322.885414,32.8559671 C324.825464,34.7983539 327.324512,35.7530864 329.856441,35.7530864 C331.960903,35.7530864 334.065364,35.0946502 335.808121,33.744856 L341.726918,39.6049383 C341.989976,39.8683128 342.318798,40 342.680502,40 C343.009324,40 343.371028,39.8683128 343.634086,39.6049383 C344.127319,39.1111111 344.127319,38.255144 343.601204,37.7283951 Z M329.889324,33.0864198 C327.949273,33.0864198 326.173634,32.3292181 324.792582,30.9794239 C321.997594,28.18107 321.997594,23.6049383 324.792582,20.7736626 C326.140752,19.4238683 327.949273,18.6666667 329.889324,18.6666667 C331.829374,18.6666667 333.605013,19.4238683 334.986066,20.7736626 C336.367118,22.1234568 337.090527,23.9341564 337.090527,25.8765432 C337.090527,27.81893 336.334236,29.5967078 334.986066,30.9794239 C333.637895,32.3621399 331.796492,33.0864198 329.889324,33.0864198 Z" id="Shape"></path>
            </g>
        </g>
    </g>
</svg>