<?xml version="1.0" encoding="UTF-8"?>
<svg width="24px" height="24px" viewBox="0 0 24 24" version="1.1" xmlns="http://www.w3.org/2000/svg" xmlns:xlink="http://www.w3.org/1999/xlink">
    <!-- Generator: sketchtool 60.1 (101010) - https://sketch.com -->
    <title>868B125F-7849-4482-877E-FECF47D6A00B</title>
    <desc>Created with sketchtool.</desc>
    <g id="Symbols" stroke="none" stroke-width="1" fill="none" fill-rule="evenodd">
        <g id="Header" transform="translate(-1503.000000, -72.000000)" fill="#FFB919" fill-rule="nonzero">
            <g id="Busca">
                <g transform="translate(1166.000000, 56.000000)">
                    <path d="M360.601204,37.7283951 L354.715289,31.8353909 C357.674687,27.9835391 357.378748,22.4197531 353.827469,18.8971193 C351.887419,16.9547325 349.388371,16 346.856441,16 C344.324512,16 341.825464,16.9547325 339.885414,18.8971193 C336.038195,22.7489712 336.038195,29.0041152 339.885414,32.8559671 C341.825464,34.7983539 344.324512,35.7530864 346.856441,35.7530864 C348.960903,35.7530864 351.065364,35.0946502 352.808121,33.744856 L358.726918,39.6049383 C358.989976,39.8683128 359.318798,40 359.680502,40 C360.009324,40 360.371028,39.8683128 360.634086,39.6049383 C361.127319,39.1111111 361.127319,38.255144 360.601204,37.7283951 Z M346.889324,33.0864198 C344.949273,33.0864198 343.173634,32.3292181 341.792582,30.9794239 C338.997594,28.18107 338.997594,23.6049383 341.792582,20.7736626 C343.140752,19.4238683 344.949273,18.6666667 346.889324,18.6666667 C348.829374,18.6666667 350.605013,19.4238683 351.986066,20.7736626 C353.367118,22.1234568 354.090527,23.9341564 354.090527,25.8765432 C354.090527,27.81893 353.334236,29.5967078 351.986066,30.9794239 C350.637895,32.3621399 348.796492,33.0864198 346.889324,33.0864198 Z" id="Shape"></path>
                </g>
            </g>
        </g>
    </g>
</svg>