<?xml version="1.0" encoding="UTF-8"?>
<svg width="16px" height="16px" viewBox="0 0 16 16" version="1.1" xmlns="http://www.w3.org/2000/svg" xmlns:xlink="http://www.w3.org/1999/xlink">
    <!-- Generator: sketchtool 64 (101010) - https://sketch.com -->
    <title>EAA0BB46-17B0-4638-8487-986F34762A74</title>
    <desc>Created with sketchtool.</desc>
    <g id="Symbols" stroke="none" stroke-width="1" fill="none" fill-rule="evenodd">
        <g id="Header-interna" transform="translate(-1213.000000, -12.000000)" fill="#000000" fill-rule="nonzero">
            <g id="Header">
                <g id="Painel" transform="translate(295.000000, 10.000000)">
                    <g id="Contraste" transform="translate(756.000000, 0.000000)">
                        <g id="sun-(1)" transform="translate(162.000000, 2.000000)">
                            <path d="M11.0484211,5.21824561 C10.3087719,4.47859649 9.2645614,4 8.13333333,4 C7.00210526,4 5.95789474,4.45684211 5.21824561,5.21824561 C4.47859649,5.95789474 4,7.00210526 4,8.13333333 C4,9.2645614 4.47859649,10.3087719 5.21824561,11.0484211 C5.95789474,11.7880702 7.00210526,12.2666667 8.13333333,12.2666667 C9.2645614,12.2666667 10.3087719,11.8098246 11.0484211,11.0484211 C11.7880702,10.3087719 12.2666667,9.2645614 12.2666667,8.13333333 C12.2666667,7.00210526 11.8098246,5.95789474 11.0484211,5.21824561 Z M10.2652632,10.2652632 C9.72140351,10.8091228 8.96,11.1354386 8.13333333,11.1354386 C7.30666667,11.1354386 6.54526316,10.8091228 6.00140351,10.2652632 C5.45754386,9.72140351 5.13122807,8.96 5.13122807,8.13333333 C5.13122807,7.30666667 5.45754386,6.54526316 6.00140351,6.00140351 C6.54526316,5.45754386 7.30666667,5.13122807 8.13333333,5.13122807 C8.96,5.13122807 9.72140351,5.45754386 10.2652632,6.00140351 C10.8091228,6.54526316 11.1354386,7.30666667 11.1354386,8.13333333 C11.1354386,8.96 10.8091228,9.72140351 10.2652632,10.2652632 Z" id="Shape"></path>
                            <path d="M15.4625323,7.46666667 L13.870801,7.46666667 C13.5813953,7.46666667 13.3333333,7.71282051 13.3333333,8 C13.3333333,8.28717949 13.5813953,8.53333333 13.870801,8.53333333 L15.4625323,8.53333333 C15.751938,8.53333333 16,8.28717949 16,8 C16,7.71282051 15.751938,7.46666667 15.4625323,7.46666667 Z" id="Shape"></path>
                            <path d="M8,13.3333333 C7.71282051,13.3333333 7.46666667,13.5813953 7.46666667,13.870801 L7.46666667,15.4625323 C7.46666667,15.751938 7.71282051,16 8,16 C8.28717949,16 8.53333333,15.751938 8.53333333,15.4625323 L8.53333333,13.870801 C8.53333333,13.5813953 8.28717949,13.3333333 8,13.3333333 Z" id="Shape"></path>
                            <path d="M13.7157233,12.991195 L12.608805,11.8842767 C12.427673,11.6830189 12.0855346,11.6830189 11.8842767,11.8842767 C11.6830189,12.0855346 11.6830189,12.4075472 11.8842767,12.608805 L12.991195,13.7157233 C13.1924528,13.9169811 13.5144654,13.9169811 13.7157233,13.7157233 C13.9169811,13.5144654 13.9169811,13.1924528 13.7157233,12.991195 Z" id="Shape"></path>
                            <path d="M8,0 C7.71282051,0 7.46666667,0.248062016 7.46666667,0.5374677 L7.46666667,2.12919897 C7.46666667,2.41860465 7.71282051,2.66666667 8,2.66666667 C8.28717949,2.66666667 8.53333333,2.41860465 8.53333333,2.12919897 L8.53333333,0.5374677 C8.53333333,0.248062016 8.28717949,0 8,0 Z" id="Shape"></path>
                            <path d="M13.7157233,2.28427673 C13.5144654,2.08301887 13.1924528,2.08301887 12.991195,2.28427673 L11.8842767,3.39119497 C11.6830189,3.59245283 11.6830189,3.91446541 11.8842767,4.11572327 C12.0654088,4.31698113 12.4075472,4.31698113 12.608805,4.11572327 L13.7157233,3.00880503 C13.9169811,2.80754717 13.9169811,2.48553459 13.7157233,2.28427673 Z" id="Shape"></path>
                            <path d="M2.12919897,7.46666667 L0.5374677,7.46666667 C0.248062016,7.46666667 0,7.71282051 0,8 C0,8.28717949 0.227390181,8.53333333 0.5374677,8.53333333 L2.12919897,8.53333333 C2.41860465,8.53333333 2.66666667,8.28717949 2.66666667,8 C2.66666667,7.71282051 2.41860465,7.46666667 2.12919897,7.46666667 Z" id="Shape"></path>
                            <path d="M4.11572327,11.8842767 C3.93459119,11.6830189 3.59245283,11.6830189 3.39119497,11.8842767 L2.28427673,12.991195 C2.08301887,13.1924528 2.08301887,13.5144654 2.28427673,13.7157233 C2.48553459,13.9169811 2.80754717,13.9169811 3.00880503,13.7157233 L4.11572327,12.608805 C4.31698113,12.4075472 4.31698113,12.0855346 4.11572327,11.8842767 Z" id="Shape"></path>
                            <path d="M4.11572327,3.39119497 L3.00880503,2.28427673 C2.80754717,2.08301887 2.48553459,2.08301887 2.28427673,2.28427673 C2.08301887,2.48553459 2.08301887,2.80754717 2.28427673,3.00880503 L3.39119497,4.11572327 C3.59245283,4.31698113 3.91446541,4.31698113 4.11572327,4.11572327 C4.31698113,3.91446541 4.31698113,3.59245283 4.11572327,3.39119497 Z" id="Shape"></path>
                        </g>
                    </g>
                </g>
            </g>
        </g>
    </g>
</svg>