<?xml version="1.0" encoding="UTF-8"?>
<svg width="43px" height="56px" viewBox="0 0 43 56" version="1.1" xmlns="http://www.w3.org/2000/svg" xmlns:xlink="http://www.w3.org/1999/xlink">
    <!-- Generator: sketchtool 61 (101010) - https://sketch.com -->
    <title>2E7809D9-6DDA-41EB-A5AE-CC8CC67CBFF6</title>
    <desc>Created with sketchtool.</desc>
    <g id="Pac-primário" stroke="none" stroke-width="1" fill="none" fill-rule="evenodd">
        <g id="Produto" transform="translate(-678.000000, -3257.000000)" fill="#000000" fill-rule="nonzero">
            <g id="Principais-categorias" transform="translate(40.000000, 2953.000000)">
                <g id="Card-Copy-2" transform="translate(614.000000, 272.000000)">
                    <g id="Group-4">
                        <g id="text-file" transform="translate(24.000000, 32.000000)">
                            <path d="M42.048706,1.09375 C42.048706,0.489623969 41.5586548,0 40.954956,0 L1.09375,0 C0.489623969,0 0,0.489623969 0,1.09375 L0,54.90625 C0,55.510376 0.489623969,56 1.09375,56 L29.5778198,56 C29.5825195,56 29.5867919,55.9991456 29.5914917,55.9991456 C29.6226807,55.9987182 29.6538697,55.9978638 29.6846314,55.994873 C29.7017212,55.9931641 29.7188111,55.9897461 29.7359009,55.9871826 C29.7538452,55.9846191 29.7722168,55.9829102 29.7905884,55.979065 C29.8076783,55.975647 29.8243409,55.97052 29.8414307,55.9666748 C29.8589478,55.9619751 29.8768921,55.9585572 29.8939819,55.9530029 C29.9097901,55.9483033 29.9247436,55.9423218 29.9401245,55.9371948 C29.9584961,55.9303589 29.9768677,55.9248047 29.994812,55.9175415 C30.0084839,55.9119873 30.0213013,55.9047241 30.0345458,55.8987427 C30.053772,55.8897706 30.072998,55.8816529 30.0917969,55.8718262 C30.1037598,55.8654175 30.1152954,55.8577271 30.1272583,55.8508911 C30.1460572,55.8397827 30.1652832,55.8291016 30.1836548,55.8167115 C30.1973267,55.8077393 30.2092896,55.7979126 30.2221069,55.7885132 C30.2383423,55.7765503 30.2550049,55.7654419 30.2703857,55.7526245 C30.298584,55.7295533 30.3255005,55.7056275 30.3511353,55.6795654 L41.7282715,44.3024292 C41.7628784,44.2678223 41.7936401,44.2306518 41.8231201,44.1921997 C41.8303833,44.182373 41.8376465,44.1729737 41.8444824,44.163147 C41.8722534,44.1246948 41.8978882,44.0845337 41.920105,44.0430909 C41.9213867,44.0405273 41.9222412,44.0383911 41.9235229,44.0358276 C41.9440307,43.9960938 41.9619751,43.9546509 41.9777832,43.9123535 C41.9820557,43.9012451 41.9859009,43.8901367 41.9897461,43.8790284 C42.0046997,43.8341675 42.0179443,43.7888794 42.0273438,43.7423096 C42.0367432,43.6961669 42.0414428,43.6491699 42.0448608,43.6021729 C42.0457154,43.5902099 42.0461426,43.5782471 42.0465698,43.5662841 C42.0469971,43.553894 42.0482788,43.5415039 42.0482788,43.5291138 L42.0482788,1.09375 L42.048706,1.09375 Z M2.1875,2.1875 L39.861206,2.1875 L39.861206,42.4353638 L29.5778198,42.4353638 C28.9736939,42.4353638 28.4840698,42.9249878 28.4840698,43.5291138 L28.4840698,53.8125 L2.1875,53.8125 L2.1875,2.1875 Z M30.6715698,52.2658691 L30.6715698,44.6228638 L38.3145752,44.6228638 L30.6715698,52.2658691 Z" id="Shape"></path>
                            <path d="M8.02154544,16.7168579 L15.048462,16.7168579 C15.6525879,16.7168579 16.142212,16.2272339 16.142212,15.6231079 L16.142212,8.59576419 C16.142212,7.99163816 15.6525879,7.50201419 15.048462,7.50201419 L8.02154544,7.50201419 C7.41741941,7.50201419 6.92779544,7.99163816 6.92779544,8.59576419 L6.92779544,15.6231079 C6.92779544,16.2272339 7.41741941,16.7168579 8.02154544,16.7168579 Z M9.11529544,9.68951419 L13.954712,9.68951419 L13.954712,14.5293579 L9.11529544,14.5293579 L9.11529544,9.68951419 Z" id="Shape"></path>
                            <path d="M19.5870971,9.68951419 L33.8613892,9.68951419 C34.4650879,9.68951419 34.9551392,9.19989011 34.9551392,8.59576419 C34.9551392,7.99163816 34.4650879,7.50201419 33.8613892,7.50201419 L19.5870971,7.50201419 C18.9829712,7.50201419 18.4933471,7.99163816 18.4933471,8.59576419 C18.4933471,9.19989011 18.9829712,9.68951419 19.5870971,9.68951419 Z" id="Shape"></path>
                            <path d="M19.5870971,16.7168579 L33.8613892,16.7168579 C34.4650879,16.7168579 34.9551392,16.2272339 34.9551392,15.6231079 C34.9551392,15.0189819 34.4650879,14.5293579 33.8613892,14.5293579 L19.5870971,14.5293579 C18.9829712,14.5293579 18.4933471,15.0189819 18.4933471,15.6231079 C18.4933471,16.2272339 18.9829712,16.7168579 19.5870971,16.7168579 Z" id="Shape"></path>
                            <path d="M8.02154544,23.7442017 L33.8613892,23.7442017 C34.4650879,23.7442017 34.9551392,23.2541504 34.9551392,22.6504517 C34.9551392,22.0463257 34.4650879,21.5567017 33.8613892,21.5567017 L8.02154544,21.5567017 C7.41741941,21.5567017 6.92779544,22.0463257 6.92779544,22.6504517 C6.92779544,23.2541504 7.41741941,23.7442017 8.02154544,23.7442017 Z" id="Shape"></path>
                            <path d="M8.02154544,30.7715454 L33.8613892,30.7715454 C34.4650879,30.7715454 34.9551392,30.2814941 34.9551392,29.6777954 C34.9551392,29.0736694 34.4650879,28.5840454 33.8613892,28.5840454 L8.02154544,28.5840454 C7.41741941,28.5840454 6.92779544,29.0736694 6.92779544,29.6777954 C6.92779544,30.2814941 7.41741941,30.7715454 8.02154544,30.7715454 Z" id="Shape"></path>
                            <path d="M24.2731323,35.610962 L8.02154544,35.610962 C7.41741941,35.610962 6.92779544,36.1005859 6.92779544,36.704712 C6.92779544,37.3088379 7.41741941,37.798462 8.02154544,37.798462 L24.2731323,37.798462 C24.8772583,37.798462 25.3668823,37.3088379 25.3668823,36.704712 C25.3668823,36.1005859 24.8772583,35.610962 24.2731323,35.610962 Z" id="Shape"></path>
                            <path d="M28.6481323,37.798462 C29.2505493,37.798462 29.7418823,37.3071289 29.7418823,36.704712 C29.7418823,36.1022949 29.2505493,35.610962 28.6481323,35.610962 C28.0457154,35.610962 27.5543823,36.1022949 27.5543823,36.704712 C27.5543823,37.3071289 28.0457154,37.798462 28.6481323,37.798462 Z" id="Shape"></path>
                        </g>
                    </g>
                </g>
            </g>
        </g>
    </g>
</svg>