<?xml version="1.0" encoding="UTF-8"?>
<svg width="24px" height="21px" viewBox="0 0 24 21" version="1.1" xmlns="http://www.w3.org/2000/svg" xmlns:xlink="http://www.w3.org/1999/xlink">
    <!-- Generator: sketchtool 64 (101010) - https://sketch.com -->
    <title>07155108-6017-4082-B37E-9592EAF252FE</title>
    <desc>Created with sketchtool.</desc>
    <g id="Pac-secundário" stroke="none" stroke-width="1" fill="none" fill-rule="evenodd">
        <g id="Artigo-modelo-1" transform="translate(-1294.000000, -476.000000)" fill="#000000" fill-rule="nonzero">
            <g id="Group-3" transform="translate(506.000000, 220.000000)">
                <g id="Group" transform="translate(611.000000, 252.000000)">
                    <path d="M201,6.43471773 C200.117082,6.84823344 199.168219,7.12648684 198.17173,7.2540194 C199.186536,6.60862586 199.970539,5.59222778 200.336895,4.37873429 C199.384369,4.97388689 198.329263,5.40672551 197.208212,5.63860335 C196.31064,4.62993502 195.032056,4 193.614257,4 C190.895893,4 188.690429,6.32650808 188.690429,9.19406344 C188.690429,9.59985038 188.734392,9.99790659 188.818654,10.3766409 C184.726454,10.1602216 181.099527,8.0887796 178.670585,4.94683522 C178.245611,5.71589596 178.003817,6.60862586 178.003817,7.56318985 C178.003817,9.36410718 178.872081,10.9524706 180.194627,11.8838463 C179.38498,11.8567946 178.626622,11.6249168 177.963517,11.2345884 C177.963517,11.2577766 177.963517,11.2770995 177.963517,11.3002878 C177.963517,13.8161616 179.659747,15.9146562 181.912837,16.3938704 C181.498855,16.5136742 181.066555,16.5755082 180.615937,16.5755082 C180.297207,16.5755082 179.989467,16.5445912 179.689056,16.4827571 C180.315524,18.5426049 182.132651,20.0498113 184.286826,20.0884572 C182.605252,21.4835885 180.480385,22.31062 178.17234,22.31062 C177.773012,22.31062 177.384674,22.2874317 177,22.2410561 C179.176157,23.7134811 181.766295,24.5714286 184.546939,24.5714286 C193.603267,24.5714286 198.556403,16.6566652 198.556403,9.7969458 C198.556403,9.56893334 198.55274,9.34478427 198.541749,9.1206362 C199.505266,8.39408566 200.340559,7.47816748 201,6.43471773" id="Shape-Copy-5"></path>
                </g>
            </g>
        </g>
    </g>
</svg>