<?xml version="1.0" encoding="UTF-8"?>
<svg width="24px" height="24px" viewBox="0 0 24 24" version="1.1" xmlns="http://www.w3.org/2000/svg" xmlns:xlink="http://www.w3.org/1999/xlink">
    <!-- Generator: sketchtool 60.1 (101010) - https://sketch.com -->
    <title>D1EB4E12-5842-4D80-AB3C-4FA7D1135C94</title>
    <desc>Created with sketchtool.</desc>
    <g id="Pac-primário" stroke="none" stroke-width="1" fill="none" fill-rule="evenodd">
        <g id="Modal---filtro---Mobile" transform="translate(-189.000000, -1308.000000)" fill="#FFB919" fill-rule="nonzero">
            <g id="Group" transform="translate(0.000000, 1284.000000)">
                <g id="CTA" transform="translate(173.000000, 12.000000)">
                    <g id="verified-(1)" transform="translate(16.000000, 12.000000)">
                        <path d="M20.4852656,3.5146875 C18.2187656,1.24823438 15.2053125,0 12,0 C8.79464062,0 5.78114062,1.24823438 3.5146875,3.5146875 C1.2481875,5.7811875 0,8.7946875 0,12 C0,15.2053125 1.2481875,18.2187656 3.5146875,20.4852656 C5.7811875,22.7517656 8.79464062,24 12,24 C15.2053125,24 18.2187656,22.7517656 20.4852656,20.4852656 C22.7517656,18.2187656 24,15.2053125 24,12 C24,8.7946875 22.7517656,5.78123438 20.4852656,3.5146875 Z M12,22.59375 C6.15857813,22.59375 1.40625,17.8414219 1.40625,12 C1.40625,6.15857812 6.15857813,1.40625 12,1.40625 C17.8414219,1.40625 22.59375,6.15857812 22.59375,12 C22.59375,17.8414219 17.8414219,22.59375 12,22.59375 Z" id="Shape"></path>
                        <path d="M17.7330469,8.14964062 C17.4585,7.87514062 17.0132812,7.87514062 16.7387344,8.1496875 L10.5297187,14.3587031 L7.26126562,11.09025 C6.98671875,10.8157031 6.5415,10.8157031 6.26690625,11.09025 C5.9923125,11.3647969 5.9923125,11.8100156 6.26690625,12.0846094 L10.0325156,15.8502187 C10.1698125,15.9875156 10.3497656,16.0561406 10.5296719,16.0561406 C10.7095781,16.0561406 10.8895781,15.9874687 11.0268281,15.8502187 L17.7330469,9.144 C18.0076406,8.86945312 18.0076406,8.42423437 17.7330469,8.14964062 Z" id="Shape"></path>
                    </g>
                </g>
            </g>
        </g>
    </g>
</svg>