<svg width="88" height="88" viewBox="0 0 88 88" xmlns="http://www.w3.org/2000/svg"><title>25EE5609-A8D9-4771-958F-D3C95504086A</title><g fill="#FF3851"><path d="M86.693 60.52c.722 0 1.307-.586 1.307-1.308V31.23c0-5.373-4.371-9.744-9.745-9.744H60.867L50.694 3.865A7.65 7.65 0 0 0 44 0a7.65 7.65 0 0 0-6.694 3.865l-4.11 7.118a1.307 1.307 0 1 0 2.265 1.307l4.11-7.118A5.063 5.063 0 0 1 44 2.614c1.849 0 3.505.956 4.43 2.558l16.157 27.984a5.064 5.064 0 0 1 0 5.115 5.064 5.064 0 0 1-4.43 2.557H27.843a5.063 5.063 0 0 1-4.43-2.557 5.064 5.064 0 0 1 0-5.115l9.516-16.482a1.307 1.307 0 1 0-2.263-1.307l-3.533 6.119H9.743C4.37 21.486 0 25.857 0 31.23v46.574c0 5.24 4.263 9.504 9.504 9.504h68.99c5.242 0 9.506-4.264 9.506-9.504V64.44a1.307 1.307 0 0 0-2.614 0v13.364a6.898 6.898 0 0 1-6.891 6.89H9.505a6.898 6.898 0 0 1-6.891-6.89V34.295L33.29 59.837A16.705 16.705 0 0 0 44 63.713a16.7 16.7 0 0 0 10.708-3.876l30.678-25.543v24.918c0 .722.585 1.307 1.307 1.307zm-33.657-2.69a14.118 14.118 0 0 1-18.073-.001L2.623 30.9c.172-3.78 3.3-6.802 7.12-6.802h15.881l-4.474 7.75a7.65 7.65 0 0 0 0 7.729 7.65 7.65 0 0 0 6.693 3.864h32.314a7.649 7.649 0 0 0 6.693-3.864 7.65 7.65 0 0 0 0-7.73L62.377 24.1h15.878c3.822 0 6.95 3.022 7.123 6.802L53.036 57.829z"/><path d="M58.732 61.02a1.307 1.307 0 1 0-1.673 2.008L77.9 80.38a1.303 1.303 0 0 0 1.84-.168 1.306 1.306 0 0 0-.168-1.84L58.73 61.02zm-29.464 0L8.43 78.37a1.306 1.306 0 1 0 1.673 2.01L30.94 63.027a1.307 1.307 0 0 0-1.673-2.008zm14.766-24.723c1.197 0 2.207-1.026 2.207-2.242 0-1.254-.99-2.276-2.207-2.276a2.279 2.279 0 0 0-2.276 2.276c0 1.216 1.042 2.242 2.276 2.242zM44 30.011c.663 0 1.581-.477 1.581-1.374 0-2.705.106-5.715.209-8.626.102-2.903.208-5.906.208-8.601 0-1.136-.822-1.93-1.999-1.93-1.195 0-1.998.775-1.998 1.93 0 2.695.106 5.698.208 8.601.102 2.91.209 5.92.209 8.626 0 .796.665 1.374 1.581 1.374z"/></g></svg>