<svg width="63" height="72" viewBox="0 0 63 72" fill="none" xmlns="http://www.w3.org/2000/svg">
<path d="M55.9666 16.5078C51.1508 14.8837 47.2969 11.0682 45.6575 6.30123C45.4314 5.64387 44.8144 5.20216 44.1221 5.20216H18.2063C17.5142 5.20216 16.8973 5.64387 16.671 6.30137C15.0316 11.0682 11.1777 14.8837 6.36204 16.5076C5.69883 16.7312 5.25331 17.3483 5.25331 18.0431V30.3088C5.25331 38.6674 7.90909 46.6176 12.9336 53.2997C17.3717 59.2022 23.6456 63.8679 30.5997 66.4373C30.9637 66.5718 31.3647 66.5718 31.7285 66.4373C37.7462 64.2139 43.1826 60.4938 47.4501 55.6794C47.8372 55.2428 47.7964 54.5756 47.3591 54.1892C46.9216 53.8027 46.2533 53.8435 45.8664 54.2801C41.8692 58.7896 36.7886 62.2839 31.164 64.394C24.654 61.9508 18.7857 57.5661 14.6247 52.0321C9.87726 45.7184 7.36798 38.2066 7.36798 30.3088V18.3934C12.5373 16.5397 16.6826 12.4341 18.5552 7.31345H43.7729C45.6455 12.4341 49.7908 16.5397 54.9601 18.3934V30.3088C54.9601 37.5111 52.848 44.4642 48.8521 50.4165C48.527 50.9008 48.6566 51.5566 49.1417 51.8812C49.6268 52.206 50.2837 52.0765 50.6088 51.5921C54.839 45.2909 57.0749 37.9313 57.0749 30.309V18.0432C57.075 17.3484 56.6295 16.7313 55.9666 16.5078V16.5078ZM27.992 42.5677C27.992 44.3141 29.415 45.7348 31.1642 45.7348C32.9134 45.7348 34.3364 44.3141 34.3364 42.5677V39.7999C34.752 39.1763 34.9708 38.4538 34.9708 37.6991C34.9708 36.6579 34.5359 35.6506 33.7775 34.9356C33.0083 34.2103 32.0012 33.8448 30.942 33.9049C29.0701 34.0119 27.5355 35.4976 27.3723 37.3607C27.2966 38.2249 27.5161 39.0841 27.992 39.7997V42.5677ZM29.4792 37.5446C29.5514 36.7189 30.2324 36.0605 31.0629 36.0129C31.0968 36.011 31.1305 36.01 31.164 36.01C31.599 36.01 32.0083 36.1714 32.3255 36.4707C32.6677 36.7933 32.856 37.2296 32.856 37.6991C32.856 38.0613 32.7428 38.4063 32.5288 38.6973C32.3279 38.9702 32.2216 39.2979 32.2216 39.6446V42.5676C32.2216 43.1497 31.7473 43.6233 31.1642 43.6233C30.5811 43.6233 30.1068 43.1497 30.1068 42.5676V39.6445C30.1068 39.2981 30.0005 38.9702 29.7993 38.6969C29.6277 38.4636 29.4327 38.0743 29.4792 37.5446ZM60.1091 12.1132C54.8501 11.579 50.6394 7.41466 50.097 2.2111C49.9655 0.950569 48.9111 0 47.6439 0H14.6845C13.4174 0 12.3629 0.950569 12.2316 2.2111C11.6891 7.41452 7.47837 11.579 2.21942 12.1132C0.9542 12.2417 0 13.2947 0 14.5627V30.309C0 39.714 2.96848 48.6758 8.58455 56.2255C11.2866 59.8578 14.5242 63.0453 18.2075 65.699C21.9363 68.3858 26.0401 70.4657 30.4051 71.8809C30.8946 72.0397 31.4339 72.0397 31.9234 71.8809C36.2882 70.4655 40.3921 68.3856 44.1209 65.699C47.8042 63.0451 51.0418 59.8578 53.7438 56.2255C59.3599 48.6758 62.3284 39.714 62.3284 30.309V14.5627C62.3284 13.2947 61.3743 12.2415 60.1091 12.1132V12.1132ZM60.2136 30.309C60.2136 39.2572 57.3893 47.7836 52.046 54.9666C46.8065 62.0101 39.6223 67.1645 31.2701 69.8728C31.2018 69.8949 31.1265 69.8949 31.0583 69.8728C22.7059 67.1645 15.5217 62.0101 10.2823 54.9666C4.9392 47.7836 2.1148 39.2572 2.1148 30.309V14.5627C2.1148 14.3821 2.2517 14.2321 2.43343 14.2138C8.68395 13.5789 13.6893 8.62297 14.335 2.4297C14.3539 2.24826 14.5042 2.11144 14.6845 2.11144H47.6439C47.8242 2.11144 47.9745 2.24826 47.9934 2.4297C48.6391 8.62297 53.6444 13.5789 59.8951 14.2138C60.0767 14.2322 60.2136 14.3823 60.2136 14.5627V30.309ZM22.5902 17.8512C22.9012 17.3577 22.7526 16.706 22.2583 16.3954C21.764 16.0848 21.1111 16.2334 20.8002 16.7268C19.5753 18.6706 18.9279 20.9145 18.9279 23.216V29.0879C17.3135 29.9924 16.2196 31.7174 16.2196 33.6936V45.9399C16.2196 48.8506 18.5912 51.2185 21.5066 51.2185H40.8218C43.7371 51.2185 46.1088 48.8506 46.1088 45.9399V33.6936C46.1088 31.7174 45.0149 29.9925 43.4004 29.0879V23.216C43.4004 16.4796 37.9112 10.9992 31.1642 10.9992C28.8339 10.9992 26.5657 11.6587 24.6048 12.9064C24.1123 13.2197 23.9675 13.8723 24.2813 14.364C24.5953 14.8556 25.2488 15.0004 25.7413 14.6869C27.362 13.6556 29.2372 13.1106 31.164 13.1106C36.745 13.1106 41.2855 17.6439 41.2855 23.216V28.4366C41.1325 28.4232 40.978 28.415 40.8216 28.415H39.1707V23.216C39.1707 21.0804 38.3377 19.0726 36.8247 17.5619C35.3116 16.053 33.3013 15.2219 31.164 15.2219C26.7492 15.2219 23.1574 18.808 23.1574 23.2158V28.4149H21.5064C21.3501 28.4149 21.1956 28.423 21.0426 28.4364V23.216C21.0427 21.3128 21.5779 19.4577 22.5902 17.8512V17.8512ZM25.2723 23.216C25.2723 19.9724 27.9154 17.3335 31.1642 17.3335C32.737 17.3335 34.2165 17.9452 35.3299 19.0554C36.443 20.1669 37.056 21.6445 37.056 23.216V28.415H25.2723V23.216ZM21.5066 30.5265H40.8218C42.571 30.5265 43.994 31.9472 43.994 33.6936V45.9399C43.994 47.6864 42.571 49.1071 40.8218 49.1071H21.5066C19.7573 49.1071 18.3344 47.6864 18.3344 45.9399V33.6936C18.3344 31.9472 19.7575 30.5265 21.5066 30.5265V30.5265Z" fill="white"/>
</svg>
