<svg width="48" height="48" viewBox="0 0 48 48" xmlns="http://www.w3.org/2000/svg"><title>F469CCE7-0F89-4022-BEDD-EAEC6A32172F</title><path d="M47.25 9.656a.75.75 0 0 0 0-1.5h-10.5v-4.5h10.5a.75.75 0 0 0 0-1.5h-4.5V.75a.75.75 0 0 0-1.5 0v1.406h-10.5V.75a.75.75 0 0 0-1.5 0v1.406h-10.5V.75a.75.75 0 0 0-1.5 0v1.406H6.75V.75a.75.75 0 0 0-1.5 0v1.406H.75a.75.75 0 0 0 0 1.5h10.5v4.5H.75a.75.75 0 0 0 0 1.5h4.5v4.5H.75a.75.75 0 0 0 0 1.5h10.5v4.5H.75a.75.75 0 0 0 0 1.5h4.5v4.5H.75a.75.75 0 0 0 0 1.5h10.5v4.5H.75a.75.75 0 0 0 0 1.5h4.5v4.5H.75a.75.75 0 0 0 0 1.5h10.5v4.5H.75a.75.75 0 0 0 0 1.5h4.5v1.5a.75.75 0 0 0 1.5 0v-1.5h10.5v1.5a.75.75 0 0 0 1.5 0v-1.5h10.5v1.5a.75.75 0 0 0 1.5 0v-1.5h10.5v1.5a.75.75 0 0 0 1.5 0v-1.5h4.5a.75.75 0 0 0 0-1.5h-10.5v-4.5h10.5a.75.75 0 0 0 0-1.5h-4.5v-4.5h4.5a.75.75 0 0 0 0-1.5h-10.5v-4.5h10.5a.75.75 0 0 0 0-1.5h-4.5v-4.5h4.5a.75.75 0 0 0 0-1.5h-10.5v-4.5h10.5a.75.75 0 0 0 0-1.5h-4.5v-4.5h4.5zm-12-1.5h-10.5v-4.5h10.5v4.5zm-16.5 6v-4.5h10.5v4.5h-10.5zm-6-10.5h10.5v4.5h-10.5v-4.5zm-6 6h10.5v4.5H6.75v-4.5zm6 6h10.5v4.5h-10.5v-4.5zm6 10.5v-4.5h10.5v4.5h-10.5zm-12-4.5h10.5v4.5H6.75v-4.5zm6 6h10.5v4.5h-10.5v-4.5zm6 10.5v-4.5h10.5v4.5h-10.5zm-12-4.5h10.5v4.5H6.75v-4.5zm6 6h10.5v4.5h-10.5v-4.5zm22.5 4.5h-10.5v-4.5h10.5v4.5zm6-6h-10.5v-4.5h10.5v4.5zm-6-6h-10.5v-4.5h10.5v4.5zm6-6h-10.5v-4.5h10.5v4.5zm-6-6h-10.5v-4.5h10.5v4.5zm6-6h-10.5v-4.5h10.5v4.5z" fill="#FFB919"/></svg>