<svg width="56" height="57" viewBox="0 0 56 57" xmlns="http://www.w3.org/2000/svg"><title>25B568F3-9A85-4EF3-8D96-9EBC3861484D</title><g fill="#FFB919"><path d="M55.489 17.444l-27-17.181a.935.935 0 0 0-1.004 0L.49 17.444a.935.935 0 0 0-.292 1.284l1.747 2.806a.935.935 0 0 0 1.292.297l1.368-.864v34.678c0 .517.419.935.935.935h44.894a.935.935 0 0 0 .935-.935V20.967l1.372.864a.934.934 0 0 0 1.293-.297l1.747-2.806a.935.935 0 0 0-.292-1.284zM20.505 54.71h-9.353V30.393h9.353V54.71zm28.994 0H22.376V29.457a.935.935 0 0 0-.936-.935H10.217a.935.935 0 0 0-.935.935V54.71H6.476V19.789l.984-.62h41.054l.985.62v34.92zM10.432 17.299L27.987 6.245 45.542 17.3h-35.11zm42.51 2.448L28.485 4.349a.936.936 0 0 0-.996 0L3.032 19.747l-.765-1.221L27.987 2.16l25.72 16.368-.765 1.219z"/><path d="M45.758 41.616V29.457a.935.935 0 0 0-.936-.935H26.117a.935.935 0 0 0-.936.935v12.159a.935.935 0 0 0-.935.935v2.806c0 .517.419.935.935.935h20.577a.935.935 0 0 0 .935-.935v-2.806a.935.935 0 0 0-.935-.935zM27.052 36.94h2.1l1.336 4.676h-3.436V36.94zm5.381 4.676l-1.602-5.612 1.602-5.611h2.101v11.223h-2.1zm3.972-11.223h2.1l1.603 5.611-1.603 5.612h-2.1V30.393zm5.381 6.547h2.101v4.676H40.45l1.336-4.676zm2.101-1.871h-2.1l-1.337-4.676h3.437v4.676zm-13.399-4.676l-1.336 4.676h-2.1v-4.676h3.436zm14.334 14.029H26.117v-.936h18.705v.936zM17.7 41.616h1.87v1.87H17.7z"/></g></svg>