<svg width="56" height="56" viewBox="0 0 56 56" xmlns="http://www.w3.org/2000/svg"><title>8B00E167-7DC3-4A11-B3A1-F0B8F3DFCD26</title><path d="M55.168 0H.832A.832.832 0 0 0 0 .832v54.336c0 .46.372.832.832.832h54.336c.46 0 .832-.372.832-.832V.832A.832.832 0 0 0 55.168 0zM41.196 1.663a68.84 68.84 0 0 0-3.03.784c-4.542 1.288-9.096 3.08-13.54 5.326a18.024 18.024 0 0 1-2.447-1.864c-1.1-1-2.425-2.493-2.987-4.246h22.004zm-23.733 0c.809 3.29 3.763 5.78 5.477 6.986-4.989 2.666-8.467 5.182-9.977 6.342C10.121 9.228 5.348 4.082 2.91 1.663h14.553zM1.663 2.78c2.39 2.376 7.289 7.64 9.994 13.33-3.935 3.74-8.164 5.07-9.994 5.498V2.779zm0 20.536c1.694-.344 6.03-1.534 10.295-5.233.048.94.087 2.248.064 3.855-.006.46.36.837.82.844h.012a.832.832 0 0 0 .832-.82c.038-2.65-.085-4.49-.156-5.301.715-.565 2.541-1.955 5.254-3.669a22.39 22.39 0 0 0 .056 3.512c.353 3.686 1.64 6.833 3.733 9.144a29.993 29.993 0 0 0-2.873 7.9c-3.09-1.325-5.546-2.096-6.704-2.43.292-2.188.471-4.192.574-5.965a.832.832 0 0 0-1.661-.096 80.033 80.033 0 0 1-1.691 12.295c-3.26.297-6.692 2.634-8.554 4.1V23.315zm26.901 14.919c3.178-3.459 8.553-3.653 10.706-3.577-.435 3.51-1.11 7.208-2.146 10.652-2.633-2.85-5.643-5.193-8.56-7.075zm3.376 4.495c-7.68 4.387-19.22 4.754-22.861 4.753a82.567 82.567 0 0 0 3.676-14.699c2.792.833 11.67 3.814 19.185 9.946zm2.805-9.41c-.817-1.822-3.443-7.062-8.147-10.936.196-.263.389-.513.576-.75 2.208-2.784 4.238-4.387 4.561-4.635.464-.243 3.78-1.94 8.109-3.323.142 2.365.412 8.48-.053 15.463-.082 1.23-.19 2.525-.33 3.86a21.288 21.288 0 0 0-4.716.32zm-1.656.39c-2.497.717-4.493 1.934-5.955 3.633a59.81 59.81 0 0 0-5.585-2.968l-.292-.134c.839-4.315 2.633-7.867 4.38-10.493 4.103 3.425 6.56 8.063 7.452 9.962zM1.663 54.337V43.61a27.79 27.79 0 0 1 2.933-2.22c1.929-1.264 3.71-2.048 5.226-2.31a79.394 79.394 0 0 1-5.343 15.256H1.663zm4.652 0a79.854 79.854 0 0 0 2.16-5.194c.2.003.447.006.735.006 1.61 0 4.532-.07 7.997-.474 6.708-.782 12.11-2.398 16.073-4.805a36.648 36.648 0 0 1 3.25 3.268c-.947 2.697-2.144 5.176-3.658 7.199H6.315zm28.59 0c1.858-2.812 3.359-6.47 4.469-10.906a62.75 62.75 0 0 0 .804-3.712c.77-.33 2.687-1.068 5.142-1.4.048 2.764.434 10.885 3.258 16.018H34.904zm19.432-16.523a15.696 15.696 0 0 0-1.96-.7.832.832 0 0 0-.452 1.601c.832.236 1.641.55 2.412.933v14.689h-3.818c-3.094-4.662-3.488-13.515-3.535-16.167.81-.036 1.658-.017 2.526.078a.831.831 0 1 0 .182-1.654c-3.89-.427-7.327.523-9.181 1.2a94.3 94.3 0 0 0 .99-9.353c.574-.512 2.591-2.374 4.755-5.085.142-.179.281-.357.418-.534.954 1.671 3.149 4.521 7.663 6.349v8.643zM41.479 13.183c2.821-.795 5.944-1.385 8.931-1.35-.867 4.074-3.392 7.897-5.434 10.46a44.123 44.123 0 0 1-3.357 3.742c.236-6.082-.025-11.083-.14-12.852zM54.337 27.36c-4.35-1.969-6.073-4.989-6.56-6.035 2.28-3.25 3.727-6.402 4.314-9.405.766.076 1.518.2 2.246.38v15.06zm0-16.768c-4.077-.901-9.147-.392-15.092 1.52a58.262 58.262 0 0 0-6.15 2.38l1.46-2.978a.832.832 0 1 0-1.495-.732l-2.434 4.969c-.576.45-2.548 2.074-4.719 4.802a33.283 33.283 0 0 0-2.465 3.553c-3.613-4.41-3.083-10.647-2.882-12.205a79.87 79.87 0 0 1 4.721-2.598A75.918 75.918 0 0 1 35.962 4.86L34.37 8.11a.832.832 0 0 0 1.494.732l2.282-4.658c.158-.046.316-.093.474-.137 5.293-1.502 10.576-2.3 15.718-2.377v8.922z" fill="#FFB919"/></svg>