<svg width="56" height="45" viewBox="0 0 56 45" xmlns="http://www.w3.org/2000/svg"><title>A6DA5CBD-A298-40C7-A7C5-240D2136B148</title><g fill="#FFB919"><path d="M55.067 28.933a2.8 2.8 0 0 1-2.8-2.8.933.933 0 0 0-1.867 0 2.8 2.8 0 0 1-1.867 2.629V.933A.933.933 0 0 0 47.6 0H8.4a.933.933 0 0 0-.933.933v13.829A2.8 2.8 0 0 1 5.6 12.133a.933.933 0 0 0-1.867 0 2.8 2.8 0 0 1-2.8 2.8.933.933 0 0 0 0 1.867 2.8 2.8 0 0 1 2.8 2.8.933.933 0 0 0 1.867 0 2.8 2.8 0 0 1 1.867-2.628v26.895c0 .515.418.933.933.933h39.2a.933.933 0 0 0 .933-.933V30.972A2.8 2.8 0 0 1 50.4 33.6a.933.933 0 0 0 1.867 0 2.8 2.8 0 0 1 2.8-2.8.933.933 0 0 0 0-1.867zM4.667 16.8a4.685 4.685 0 0 0-.934-.933c.354-.266.668-.58.934-.934.265.354.58.668.933.934a4.66 4.66 0 0 0-.933.933zm42 20.533v5.6H27.453l6.807-6.806a.933.933 0 0 0-1.32-1.32l-8.126 8.126h-2.96L34.26 30.527a.933.933 0 0 0-1.32-1.32L19.214 42.933h-9.88V1.867h27.613L30.14 8.673a.933.933 0 1 0 1.32 1.32l8.126-8.126h2.96L30.14 14.273a.933.933 0 1 0 1.32 1.32L45.186 1.867h1.48v35.466zm4.666-6.533a4.685 4.685 0 0 0-.933-.933c.354-.266.668-.58.933-.934.266.354.58.668.934.934-.354.265-.668.58-.934.933z"/><path d="M45.733 36.4a2.8 2.8 0 0 1-2.8-2.8.933.933 0 0 0-1.866 0 2.8 2.8 0 0 1-2.8 2.8.933.933 0 0 0 0 1.867 2.8 2.8 0 0 1 2.8 2.8.933.933 0 0 0 1.866 0 2.8 2.8 0 0 1 2.8-2.8.933.933 0 0 0 0-1.867zM42 38.267a4.685 4.685 0 0 0-.933-.934c.353-.265.667-.58.933-.933.266.354.58.668.933.933-.353.266-.667.58-.933.934zm-24.267-30.8a2.8 2.8 0 0 1-2.8-2.8.933.933 0 0 0-1.866 0 2.8 2.8 0 0 1-2.8 2.8.933.933 0 0 0 0 1.866 2.8 2.8 0 0 1 2.8 2.8.933.933 0 0 0 1.866 0 2.8 2.8 0 0 1 2.8-2.8.933.933 0 0 0 0-1.866zM14 9.333a4.685 4.685 0 0 0-.933-.933A4.74 4.74 0 0 0 14 7.467c.266.353.58.667.933.933a4.74 4.74 0 0 0-.933.933z"/></g></svg>