<svg width="56" height="55" viewBox="0 0 56 55" xmlns="http://www.w3.org/2000/svg"><title>7B322973-6AF1-4576-AD38-8C1299F4DE6E</title><g fill="#FFB919"><path d="M55.68 8.1a1.095 1.095 0 1 0-1.547 1.549 1.095 1.095 0 0 0 1.546-1.55zm-3.094-6.188A1.095 1.095 0 1 0 51.04 3.46a1.095 1.095 0 0 0 1.546-1.547zM44.852.366a1.095 1.095 0 1 0-1.546 1.547A1.095 1.095 0 0 0 44.852.365zM6.56 48.082a1.096 1.096 0 0 0-1.548 0 1.096 1.096 0 0 0 0 1.547c.428.427 1.12.427 1.548 0a1.096 1.096 0 0 0 0-1.547zm8.893-9.056a1.094 1.094 0 0 0-1.547.019l-5.809 5.953a1.094 1.094 0 0 0 1.566 1.528l5.809-5.953a1.094 1.094 0 0 0-.02-1.547z"/><path d="M51.039 25.115l-3.858-3.858a1.32 1.32 0 0 0-.018-.017l-4.624-4.624a1.129 1.129 0 0 0-.016-.016l-4.624-4.624a1.099 1.099 0 0 0-.016-.016L33.26 7.335a1.069 1.069 0 0 0-.016-.016l-3.86-3.859a1.094 1.094 0 0 0-1.546 0L15.463 15.833l-1.548 1.547a5.476 5.476 0 0 0 0 7.734l3.095 3.095c.206.206.32.48.32.773 0 .292-.114.566-.32.773l-1.526 1.526-13.25 11.866-.002.001a6.57 6.57 0 0 0-.313 9.574 6.518 6.518 0 0 0 4.64 1.92 6.518 6.518 0 0 0 4.944-2.243l11.72-13.389 1.52-1.521a1.095 1.095 0 0 1 1.547 0l3.094 3.093a5.43 5.43 0 0 0 3.867 1.603 5.43 5.43 0 0 0 3.866-1.603l1.548-1.547 12.373-12.373a1.094 1.094 0 0 0 0-1.547zM9.857 50.958a4.345 4.345 0 0 1-3.298 1.497 4.343 4.343 0 0 1-3.093-1.28 4.38 4.38 0 0 1 .22-6.393c.002 0 .003-.002.004-.003l.004-.003L16.195 33.58l4.732 4.732-11.07 12.646zM35.57 39.036c-.62.62-1.443.961-2.32.961a3.26 3.26 0 0 1-2.32-.962l-3.093-3.093a3.285 3.285 0 0 0-4.64 0l-.773.773-4.64-4.64.772-.773a3.26 3.26 0 0 0 .961-2.32c0-.877-.341-1.7-.96-2.32l-3.095-3.094a3.286 3.286 0 0 1 0-4.64l.774-.774 20.108 20.108-.774.774zm2.322-2.32l-20.109-20.11L28.61 5.78l2.32 2.32-5.413 5.414a1.094 1.094 0 1 0 1.546 1.547l5.414-5.413 3.094 3.094-5.413 5.412a1.094 1.094 0 1 0 1.546 1.547l5.414-5.413 3.093 3.093-5.414 5.413a1.094 1.094 0 1 0 1.547 1.547l5.414-5.413 3.094 3.094-5.414 5.413a1.094 1.094 0 1 0 1.547 1.547l5.414-5.413 2.32 2.32-10.827 10.826zM41.758 3.46a1.094 1.094 0 0 0-1.547 0l-3.093 3.093A1.094 1.094 0 0 0 38.665 8.1l3.093-3.093a1.094 1.094 0 0 0 0-1.547zM35.57.366a1.094 1.094 0 0 0-1.546 0l-1.547 1.546a1.094 1.094 0 0 0 1.547 1.547l1.547-1.546a1.094 1.094 0 0 0 0-1.547zm13.922 4.641a1.094 1.094 0 0 0-1.547 0l-6.187 6.187a1.094 1.094 0 0 0 1.547 1.547l6.187-6.188a1.094 1.094 0 0 0 0-1.546zm3.094 6.187a1.094 1.094 0 0 0-1.546 0l-4.641 4.64a1.094 1.094 0 0 0 1.546 1.547l4.641-4.64a1.094 1.094 0 0 0 0-1.547zm1.547 7.734a1.094 1.094 0 0 0-1.547 0l-1.547 1.546a1.094 1.094 0 0 0 1.547 1.547l1.547-1.546a1.094 1.094 0 0 0 0-1.547z"/></g></svg>