<svg width="56" height="56" viewBox="0 0 56 56" xmlns="http://www.w3.org/2000/svg"><title>78A879D9-9B36-4EF3-BABC-5D4D58BB5239</title><g fill="#FFB919"><path d="M7 45.5c-1.93 0-3.5 1.57-3.5 3.5s1.57 3.5 3.5 3.5 3.5-1.57 3.5-3.5-1.57-3.5-3.5-3.5zm0 5.25c-.965 0-1.75-.785-1.75-1.75s.785-1.75 1.75-1.75 1.75.785 1.75 1.75-.785 1.75-1.75 1.75z"/><path d="M55.23 23.368L39.48 7.618a2.604 2.604 0 0 0-2.41-.71c-.454.1-.863.311-1.195.605l-6.02-6.02a2.628 2.628 0 0 0-3.71 0l-1.283 1.282-1.272-1.272a4.906 4.906 0 0 0-6.93 0l-3.666 3.666a4.401 4.401 0 0 0-.904 4.87l9.035 20.33a.88.88 0 0 1-.18.974l-1.182 1.182-2.52-2.519a.875.875 0 0 0-1.237 0l-1.75 1.75a.875.875 0 0 0-.23.831l.73 2.919L2.81 43.938A6.648 6.648 0 0 0 0 49.36 6.646 6.646 0 0 0 6.639 56a6.647 6.647 0 0 0 5.423-2.81l8.432-11.946 2.919.73a.874.874 0 0 0 .83-.23l1.75-1.75a.875.875 0 0 0 0-1.238l-2.518-2.519 2.03-2.03a4.401 4.401 0 0 0 .905-4.871l-9.035-20.33a.88.88 0 0 1 .18-.974l1.951-1.951a.87.87 0 0 1 .62-.256.87.87 0 0 1 .618.256l.406.406-1.282 1.282a2.607 2.607 0 0 0-.768 1.856c0 .701.273 1.36.768 1.856L35 26.612v4.013c0 1.93 1.57 3.5 3.5 3.5a3.482 3.482 0 0 0 2.716-1.296l2.534 2.533v8.388c0 1.93 1.57 3.5 3.5 3.5a3.48 3.48 0 0 0 2.475-1.026 3.48 3.48 0 0 0 1.025-2.474v-3.095c.515.299 1.113.47 1.75.47a3.48 3.48 0 0 0 2.475-1.026A3.48 3.48 0 0 0 56 37.625v-12.4c0-.701-.273-1.36-.77-1.857zM23.358 40.156l-3.02-.755a.875.875 0 0 0-.927.344l-8.778 12.436A4.895 4.895 0 0 1 6.64 54.25a4.894 4.894 0 0 1-4.889-4.889c0-1.586.774-3.079 2.07-3.993l12.435-8.778a.875.875 0 0 0 .344-.927l-.755-3.02.781-.78 2.518 2.518h.001l2.475 2.475 2.519 2.519-.781.781zM21.98 4.843a2.608 2.608 0 0 0-1.856-.768 2.61 2.61 0 0 0-1.856.768l-1.95 1.951a2.64 2.64 0 0 0-.543 2.923l9.035 20.33a2.64 2.64 0 0 1-.543 2.922l-2.03 2.03L21 33.764l1.182-1.182a2.64 2.64 0 0 0 .542-2.923L13.69 9.328a2.64 2.64 0 0 1 .542-2.922l3.667-3.666a3.153 3.153 0 0 1 4.454 0l1.273 1.273-1.237 1.237-.407-.407zm-.875 5.4a.875.875 0 0 1 0-1.236l1.9-1.9 1.238-1.238 3.138-3.138a.875.875 0 0 1 1.236 0l6.405 6.405a2.73 2.73 0 0 0-.023.34v14.662L21.106 10.243zm20.86 20.86a3.52 3.52 0 0 0 .034-.478V28a.876.876 0 0 1 1.75 0v4.888l-1.784-1.784zm12.284 6.522c0 .467-.182.906-.512 1.237a1.752 1.752 0 0 1-2.988-1.237.875.875 0 0 0-1.75 0v6.125c0 .467-.182.906-.512 1.237A1.752 1.752 0 0 1 45.5 43.75V28c0-.7-.272-1.36-.77-1.858A2.628 2.628 0 0 0 40.25 28v2.625a1.74 1.74 0 0 1-.512 1.237 1.752 1.752 0 0 1-2.988-1.237V9.475c0-.112.018-.216.055-.315a.882.882 0 0 1 .642-.543.841.841 0 0 1 .796.239l15.75 15.75a.87.87 0 0 1 .257.62v12.399zM47.25 49c-1.93 0-3.5 1.57-3.5 3.5s1.57 3.5 3.5 3.5 3.5-1.57 3.5-3.5-1.57-3.5-3.5-3.5zm0 5.25c-.965 0-1.75-.785-1.75-1.75s.785-1.75 1.75-1.75S49 51.535 49 52.5s-.785 1.75-1.75 1.75z"/></g></svg>