<svg width="56" height="58" viewBox="0 0 56 58" xmlns="http://www.w3.org/2000/svg"><title>6E4744A7-4ABB-456A-8BE0-D18345926939</title><path d="M51.225 31.15L25.628 5.555a.848.848 0 0 0-1.2 0l-7.803 7.803L8.788 5.62A4.474 4.474 0 0 0 4.47 0 4.473 4.473 0 0 0 0 4.47a4.473 4.473 0 0 0 4.47 4.468 4.45 4.45 0 0 0 1.223-.172l7.811 7.711L3.31 26.671a8.035 8.035 0 0 0-2.369 5.72c0 2.16.842 4.191 2.37 5.719l15.358 15.358a8.035 8.035 0 0 0 5.719 2.37c2.16 0 4.192-.842 5.72-2.37l21.117-21.117a.848.848 0 0 0 0-1.2zM4.47 7.24A2.775 2.775 0 0 1 1.7 4.468a2.775 2.775 0 0 1 2.77-2.771 2.775 2.775 0 0 1 2.772 2.771A2.775 2.775 0 0 1 4.47 7.24zm2.806.702c.265-.214.504-.458.714-.726l19.463 19.215c.184.182.2.484.036.684a.514.514 0 0 1-.751.04L7.276 7.943zm21.631 44.326a6.35 6.35 0 0 1-4.52 1.872 6.35 6.35 0 0 1-4.519-1.872L4.51 36.91a6.35 6.35 0 0 1-1.872-4.52 6.35 6.35 0 0 1 1.872-4.519L14.713 17.67l10.832 10.694a2.227 2.227 0 0 0 3.12-.02 2.208 2.208 0 0 0-.02-3.12L17.832 14.55l7.196-7.195 5.2 5.199-3.88 3.88a4.473 4.473 0 0 0 0 6.319 4.473 4.473 0 0 0 6.32 0c1.067-1.069 2.85-1.069 3.919 0a2.775 2.775 0 0 1 0 3.92l-8.32 8.318a4.473 4.473 0 0 0 0 6.32 4.454 4.454 0 0 0 3.16 1.306 4.455 4.455 0 0 0 3.16-1.307l5.06-5.059a.848.848 0 1 0-1.2-1.2l-5.06 5.06a2.775 2.775 0 0 1-3.92 0 2.775 2.775 0 0 1 0-3.92l8.32-8.319a4.473 4.473 0 0 0 0-6.32 4.439 4.439 0 0 0-3.16-1.308 4.44 4.44 0 0 0-3.16 1.309 2.775 2.775 0 0 1-3.92 0 2.775 2.775 0 0 1 0-3.92l3.88-3.88 14.158 14.159-4.16 4.16a.857.857 0 0 0-.045 1.152c.317.37.9.393 1.245.048l4.16-4.16 2.64 2.64-20.518 20.517zm22.38-8.51a.857.857 0 0 0-1.324 0c-.482.601-4.712 5.956-4.712 8.675a5.38 5.38 0 0 0 5.374 5.373 5.38 5.38 0 0 0 5.373-5.373c0-2.719-4.229-8.074-4.711-8.675zm-.662 12.352a3.68 3.68 0 0 1-3.677-3.677c0-1.403 2.043-4.585 3.677-6.76 1.634 2.174 3.676 5.355 3.676 6.76a3.68 3.68 0 0 1-3.676 3.677z" fill="#FFB919"/></svg>