<svg width="56" height="56" viewBox="0 0 56 56" xmlns="http://www.w3.org/2000/svg"><title>FA6A34B4-C3B1-4D48-9959-F52DC529B647</title><path d="M55.024 0H.933C.373 0 0 .373 0 .933v54.091c0 .56.373.932.933.932h54.091c.56 0 .932-.373.932-.932V18.093l-.002-.04.002-.054V.933c0-.56-.373-.933-.932-.933zm-7.275 41.128l-1.474-1.474a.968.968 0 0 0-.204-.298l-4.617-4.616 3.917-3.917 8.72 8.72v7.927l-6.342-6.342zM26.486 54.09l-2.192-2.19 15.808-15.807 3.923 3.922-4.378 4.457a.97.97 0 0 0-.291.2l-9.42 9.42h-3.45zM8.3 1.958h5.503l13.056 13.057-3.724 3.724-.177.177L11.751 7.647a.97.97 0 0 0-.298-.204L7.088 3.078 8.3 1.958zm39.822-.093l5.97 6.062v7.834L41.407 3.078l1.212-1.213h5.502zm5.97 35.066h-.002l-7.882-7.94a.994.994 0 0 0-.137-.174l-4.617-4.616 3.917-3.917 8.72 8.72v7.927zm-46.98-23.29l3.935-3.899L26.86 25.553l-3.917 3.917-11.192-11.19-4.638-4.638zm3.935 6.64L26.86 36.09l-3.917 3.918-11.191-11.192-4.638-4.637 3.935-3.9zm13.205 21.04l4.658-4.576 11.191-11.192 3.87 3.87-15.807 15.808-3.912-3.91zm3.912-6.628l-3.87-3.87 4.616-4.617 11.191-11.191 3.87 3.87-15.807 15.808zm.002-10.54l-3.907-3.928L40.055 4.43l3.917 3.917-15.805 15.805zM1.865 29.47l3.917-3.917L9.7 29.47l-7.834 7.834V29.47zm5.223 5.316l3.917-3.917 15.807 15.808-3.87 3.87-11.191-11.191a.97.97 0 0 0-.298-.205l-4.365-4.365zM1.865 8.3l3.917-3.917 3.964 3.964-4.617 4.616-3.264 3.264V8.3zm0 10.541l3.936-3.9L9.7 18.932l-4.57 4.57-3.264 3.264V18.84zm0 21.168l3.917-3.824L9.7 40.102l-4.57 4.57-3.264 3.264v-7.927zm44.343-21.557a.994.994 0 0 0-.137-.173l-4.617-4.616 3.917-3.917 8.72 8.72v7.927l-7.883-7.941zm7.883-16.587v3.358l-3.357-3.358h3.357zM28.165 13.616l-3.917-3.917 7.834-7.834h7.927L28.165 13.616zm1.212-11.75l-6.482 6.48-6.481-6.48h12.963zm-27.512 0H5.69l-.56.559-3.264 3.264V1.865zm0 48.684l3.937-3.9 3.944 3.944-3.498 3.497H1.865V50.55zm7.088 3.541l2.145-2.145 2.145 2.145h-4.29zm6.995 0l-8.741-8.834 3.904-3.869L22.29 52.506l1.586 1.585h-7.927zm24.154-7.46l3.964 3.963-3.498 3.497h-7.927l7.461-7.46zm3.078 7.46l2.19-2.191 2.192 2.192H43.18zm10.911 0h-3.824l-4.196-4.197a.97.97 0 0 0-.298-.204l-4.365-4.365 3.963-3.964 8.72 8.72v4.01z" fill="#FFB919"/></svg>