<svg width="56" height="48" viewBox="0 0 56 48" xmlns="http://www.w3.org/2000/svg"><title>8C775D73-CAA5-4F8C-A321-BB789C2F6C67</title><g fill="#FFB919"><path d="M31.574 8.992c-2.279-1.503-5.257-2.33-8.385-2.33-7.063 0-12.595 4.14-12.595 9.424s5.532 9.424 12.595 9.424c7.062 0 12.594-4.14 12.594-9.424 0-1.418-.39-2.772-1.16-4.026a.819.819 0 1 0-1.396.857c.61.992.919 2.058.919 3.169 0 4.366-4.813 7.786-10.957 7.786-6.145 0-10.958-3.42-10.958-7.786 0-4.367 4.813-7.787 10.958-7.787 2.811 0 5.47.732 7.484 2.06a.819.819 0 0 0 .901-1.367z"/><path d="M29.245 11.899c-3.372-2.093-8.74-2.094-12.114 0-3.598 2.233-3.654 6.106 0 8.374 3.373 2.093 8.74 2.094 12.114 0 3.599-2.234 3.655-6.106 0-8.374zm-10.38 7.437c2.562-1.15 6.087-1.149 8.647 0-2.583 1.158-6.064 1.157-8.647 0zm10.263-1.001c-3.343-1.996-8.533-1.997-11.88 0-.753-.652-1.196-1.427-1.196-2.25 0-2.232 3.268-4.118 7.136-4.118 3.869 0 7.137 1.886 7.137 4.119 0 .822-.443 1.597-1.197 2.249z"/><path d="M55.826 41.201l-.956-2.25.956-2.25a.819.819 0 0 0 0-.64l-.956-2.25.956-2.249a.82.82 0 0 0-.754-1.139h-8.695V16.086c0-4.329-2.454-8.375-6.911-11.395-9.019-6.11-23.534-6.112-32.555 0C2.455 7.711 0 11.757 0 16.086v15.42c0 4.261 2.389 8.264 6.726 11.27 4.235 2.936 9.883 4.606 15.904 4.704 0-.01-.628.011 15.808.007a.819.819 0 1 0 0-1.637c-1.022 0-14.825.005-15.782-.007-5.7-.093-11.026-1.66-14.997-4.412-3.883-2.692-6.022-6.217-6.022-9.925v-9.503c.973 1.69 2.364 3.264 4.134 4.647a.819.819 0 0 0 1.008-1.29c-3.315-2.593-5.142-5.886-5.142-9.274 0-7.906 9.668-14.338 21.551-14.338 11.884 0 21.552 6.432 21.552 14.338 0 4.14-2.612 7.563-6.03 9.93-7.51 5.2-19.784 5.947-28.588 1.458a.819.819 0 1 0-.744 1.459c3.849 1.962 8.398 3.037 13.194 3.122.073.009 11.27.006 31.263.006l-.608 1.43a.819.819 0 0 0 0 .64l.956 2.25-.956 2.25a.819.819 0 0 0 0 .64l.956 2.25-.956 2.25a.818.818 0 0 0 0 .64l.608 1.433c-1.873.001-5.833.004-11.577.005a.819.819 0 1 0 0 1.638c8.245-.002 12.815-.007 12.815-.007a.82.82 0 0 0 .753-1.138l-.956-2.25.956-2.25a.817.817 0 0 0 0-.64zM33.469 30.423c4.483-1.523 8.92-4.33 11.27-8.397v8.397H33.47z"/></g></svg>