<svg width="56" height="56" viewBox="0 0 56 56" xmlns="http://www.w3.org/2000/svg"><title>7B1DD12D-E086-49E3-96F0-9B193851E9ED</title><g fill="#FFB919"><path d="M37.916 17.045a1.091 1.091 0 1 0 0 2.183 1.091 1.091 0 0 0 0-2.183zM18.082 36.88a1.091 1.091 0 1 0 0 2.182 1.091 1.091 0 0 0 0-2.183z"/><path d="M54.587 6.825a1.09 1.09 0 0 0-1.021.294L49.04 11.68h-2.17l-2.388-2.474v-2.2l4.46-4.527a1.09 1.09 0 0 0-.428-1.8 10.888 10.888 0 0 0-3.486-.57c-3.555 0-6.786 1.658-8.862 4.549-1.944 2.706-2.543 6.022-1.685 9.196l-8.04 8.04L13.044 8.469V5.832c0-.383-.2-.738-.53-.935L4.796.265a1.09 1.09 0 0 0-1.334.164L.375 3.516A1.093 1.093 0 0 0 .211 4.85l4.63 7.718c.198.329.553.53.936.53l2.635.001 13.397 13.427-8.01 8.01c-3.174-.858-6.492-.258-9.199 1.687-2.889 2.075-4.545 5.305-4.545 8.86 0 1.192.191 2.365.569 3.485a1.09 1.09 0 0 0 1.81.42l4.524-4.56H9.14l2.485 2.486v2.181l-4.56 4.525a1.092 1.092 0 0 0 .42 1.81c1.12.377 2.293.569 3.485.569 3.556 0 6.785-1.657 8.86-4.546 1.945-2.708 2.545-6.025 1.687-9.199l6.434-6.433 1.473 1.6-.676.676a1.092 1.092 0 1 0 1.544 1.545l.612-.613 13.827 15.02.032.032a6.548 6.548 0 0 0 9.263 0 6.56 6.56 0 0 0-.034-9.296l-15.043-13.8.606-.606a1.091 1.091 0 1 0-1.544-1.544l-.672.672-1.603-1.472 6.464-6.464c.919.246 1.867.37 2.828.37 6.02 0 10.916-4.897 10.916-10.916 0-1.192-.192-2.365-.57-3.486a1.09 1.09 0 0 0-.787-.714zm-44.95 4.411a1.08 1.08 0 0 0-.772-.31H6.396L2.522 4.457l1.882-1.881L10.86 6.45v2.47c0 .289.115.566.32.77l13.716 13.75-1.544 1.543L9.637 11.236zM37.404 32.53l15.094 13.847a4.367 4.367 0 1 1-6.177 6.175L32.45 37.484l4.955-4.954zm-1.61-1.478l-4.825 4.824-1.474-1.6 4.695-4.696 1.604 1.472zm9.234-11.294a8.724 8.724 0 0 1-2.79-.455 1.093 1.093 0 0 0-1.12.263L19.51 41.172a1.091 1.091 0 0 0-.263 1.12c.908 2.695.474 5.57-1.191 7.887a8.633 8.633 0 0 1-7.087 3.636c-.319 0-.637-.017-.951-.05l3.467-3.441c.206-.205.323-.484.323-.775v-3.088c0-.29-.116-.567-.32-.772l-3.125-3.125a1.092 1.092 0 0 0-.772-.32H6.504c-.292 0-.57.117-.776.323l-3.44 3.467a8.83 8.83 0 0 1-.05-.951 8.631 8.631 0 0 1 3.636-7.087c2.317-1.665 5.191-2.1 7.886-1.191.393.132.827.03 1.12-.263l21.607-21.607a1.09 1.09 0 0 0 .263-1.12c-.908-2.695-.475-5.568 1.189-7.884a8.635 8.635 0 0 1 7.089-3.639c.329 0 .656.019.98.055l-3.395 3.445a1.09 1.09 0 0 0-.314.766v3.088c0 .283.11.555.306.758l3.016 3.126c.206.213.49.333.786.333h3.088c.29 0 .57-.116.774-.323l3.44-3.466c.034.314.051.632.051.951 0 4.815-3.917 8.733-8.732 8.733z"/><path d="M34.057 20.452l-13.66 13.66a1.092 1.092 0 0 0 1.544 1.544l13.66-13.66a1.091 1.091 0 1 0-1.544-1.544zM47.852 49.45a1.092 1.092 0 0 0 1.541-1.546l-9.84-9.808a1.092 1.092 0 0 0-1.54 1.546l9.839 9.808z"/></g></svg>