<svg width="56" height="56" viewBox="0 0 56 56" xmlns="http://www.w3.org/2000/svg"><title>F0D8711F-1FF1-40A9-86BF-366FD0718CA0</title><g fill="#FFB919"><path d="M16.826 20.85c.223.908.416 1.8.588 2.665a.933.933 0 1 0 1.83-.363 64.023 64.023 0 0 0-.604-2.745.933.933 0 1 0-1.814.443zm-.917-3.334a.933.933 0 0 0 1.782-.552 45.594 45.594 0 0 0-2.859-7.155.934.934 0 1 0-1.664.845 43.712 43.712 0 0 1 2.74 6.862z"/><path d="M.036 34.761a.905.905 0 0 0 .092.223c.014.025.022.052.038.076a.932.932 0 0 0 .235.236c.006.004.009.01.015.014a.905.905 0 0 0 .134.063.946.946 0 0 0 .088.046l8.695 2.898v2.75H8.4a.933.933 0 0 0-.933.933v9.333a4.667 4.667 0 0 0 9.333 0V42a.933.933 0 0 0-.933-.933h-.934V39.2h37.334a3.734 3.734 0 0 0 0-7.467h-9.334V25.2a.933.933 0 0 0-.933-.933h-.933V19.6a.933.933 0 0 0-.934-.933H33.6V16.8H42a2.8 2.8 0 0 0 0-5.6h-6.533V7.467H44.8A3.734 3.734 0 0 0 44.8 0H12.133a.923.923 0 0 0-.362.083l-.021.01a.92.92 0 0 0-.273.187c-.009.009-.02.012-.03.02l-.021.025-.005.007C.13 12.597 0 33.642 0 34.533l.036.228zm5.191.22l3.932-5.505a.933.933 0 0 0-1.518-1.085l-4.266 5.972-.987-.329 3.055-4.583a.934.934 0 1 0-1.553-1.035l-1.854 2.78c.497-6.254 2.447-19.914 10.094-28.854l.098.112c.146.173.288.35.43.527.135.167.271.334.402.504.14.18.274.365.41.549.126.172.253.343.376.518.133.188.261.379.39.569.117.175.236.35.35.528.126.195.248.392.37.59.11.178.22.357.327.537.118.2.233.4.347.602a32.436 32.436 0 0 1 .635 1.165c.095.184.191.369.284.554a44.532 44.532 0 0 1 1.603 3.593 43.694 43.694 0 0 1 .46 1.213 46.832 46.832 0 0 1 .426 1.213 58.546 58.546 0 0 1 .752 2.409 55.537 55.537 0 0 1 .501 1.847c.045.176.09.351.132.526a66.486 66.486 0 0 1 .415 1.799 88.583 88.583 0 0 1 .233 1.125l.093.478a69.86 69.86 0 0 1 .198 1.08 81.017 81.017 0 0 1 .176 1.055c.031.194.063.389.091.579.023.145.043.287.064.43.027.188.055.377.08.561.02.14.037.274.055.41l.07.534.046.39c.02.172.042.346.06.513.015.12.026.236.04.354l.051.49.033.342.043.45.027.325.034.405.023.304c.01.124.02.252.027.37l.018.276c.007.109.015.221.02.323l.017.285c.004.083.01.172.013.25l.012.245.01.216.013.379-7.452 2.483v-3.682a.933.933 0 0 0-.933-.934h-3.733a.933.933 0 0 0-.934.934v3.682l-4.106-1.368zm9.706 16.352a2.8 2.8 0 0 1-5.6 0v-8.4h5.6v8.4zM11.2 41.067V33.6h1.867v7.467H11.2zm33.6-39.2a1.867 1.867 0 0 1 0 3.733H34.533a.933.933 0 0 0-.933.933v5.6c0 .516.418.934.933.934H42a.933.933 0 0 1 0 1.866h-9.333a.933.933 0 0 0-.934.934V19.6c0 .515.418.933.934.933H39.2V25.2c0 .515.418.933.933.933h.934v6.534c0 .515.418.933.933.933h10.267a1.867 1.867 0 0 1 0 3.733H17.885l5.744-1.914a.934.934 0 0 0 .638-.886c0-.054 0-.186-.004-.384l-.003-.115-.005-.234-.006-.171-.009-.278-.008-.207a96.125 96.125 0 0 0-.026-.57 46.006 46.006 0 0 0-.022-.408l-.016-.258c-.01-.15-.018-.3-.03-.46a83.825 83.825 0 0 0-.06-.803l-.026-.309c-.015-.183-.032-.37-.05-.562l-.033-.345-.061-.595-.04-.37a60.573 60.573 0 0 0-.123-1.028 70.123 70.123 0 0 0-.088-.677l-.057-.411a75.197 75.197 0 0 0-.29-1.876l-.076-.446a75.615 75.615 0 0 0-.385-2.033 70.517 70.517 0 0 0-.28-1.3 39.615 39.615 0 0 0-.313-1.327l-.107-.437a68.752 68.752 0 0 0-.246-.929c-.037-.137-.072-.273-.11-.41-.092-.33-.19-.661-.288-.993-.037-.122-.07-.243-.108-.366-.11-.361-.226-.724-.344-1.087-.03-.094-.059-.187-.09-.28a54.568 54.568 0 0 0-.454-1.312l-.022-.062a49.547 49.547 0 0 0-1.104-2.792l-.01-.023a45.208 45.208 0 0 0-.604-1.336l-.002-.006H28V7.467h-9.333v1.662l-.045-.09a38.77 38.77 0 0 0-.515-1.043c-.07-.138-.146-.274-.22-.411a40.247 40.247 0 0 0-.493-.915c-.088-.156-.18-.31-.27-.464-.163-.28-.326-.56-.496-.836-.102-.167-.21-.33-.315-.495a35.56 35.56 0 0 0-.507-.78c-.114-.168-.234-.335-.35-.502a35.11 35.11 0 0 0-.528-.736c-.127-.171-.259-.34-.39-.508-.123-.16-.242-.324-.37-.482H44.8zM56 6.533v-5.6A.933.933 0 0 0 55.067 0h-3.734a.933.933 0 0 0-.933.933v5.6c0 .516.418.934.933.934h3.734A.933.933 0 0 0 56 6.533zM54.133 5.6h-1.866V1.867h1.866V5.6z"/><path d="M45.733 24.267a.933.933 0 0 0-.933.933v3.733c0 .516.418.934.933.934h3.734a.933.933 0 0 0 .933-.934V25.2a.933.933 0 0 0-.933-.933h-3.734zm2.8 3.733h-1.866v-1.867h1.866V28zm5.6-12.133v-3.734a.933.933 0 0 0-.933-.933h-5.6a.933.933 0 0 0-.933.933v3.734c0 .515.418.933.933.933h5.6a.933.933 0 0 0 .933-.933zm-1.866-.934h-3.734v-1.866h3.734v1.866zm-33.6-11.2h5.6V5.6h-5.6zm7.466 0H28V5.6h-1.867zm3.734 31.734V33.6h-5.6v1.867zm-5.6-5.6H28v1.866h-3.733zm7.466 3.733H33.6v1.867h-1.867z"/></g></svg>