<?xml version="1.0" encoding="UTF-8"?>
<svg width="56px" height="56px" viewBox="0 0 56 56" version="1.1" xmlns="http://www.w3.org/2000/svg" xmlns:xlink="http://www.w3.org/1999/xlink">
    <title>E5B952CE-AC1C-47D3-BC04-78E6924624D9</title>
    <g id="Pac-primário-(Mobile)---B2B" stroke="none" stroke-width="1" fill="none" fill-rule="evenodd">
        <g id="Home---VedacitPRO---Mobile" transform="translate(-16.000000, -1199.000000)">
            <g id="Group-2" transform="translate(0.000000, 885.000000)">
                <g id="Group-16" transform="translate(16.000000, 190.000000)">
                    <g id="calculator" transform="translate(0.000000, 124.000000)">
                        <path d="M42.6567656,41.1609401 C42.4125109,41.0744178 42.1624406,40.9835532 41.9132886,40.8888889 L41.9132886,37.0053737 C42.5854482,37.1476958 42.9866217,37.4899853 43.0201889,37.5194051 C43.339332,37.8093687 43.818965,37.771807 44.0946443,37.434077 C44.371752,37.09461 44.3377767,36.5803615 44.0187356,36.2856212 C43.972619,36.2430657 43.1902693,35.5376432 41.9133906,35.3573251 L41.9133906,35.0363133 C41.9133906,34.586658 41.5707811,34.2222222 41.1482837,34.2222222 C40.7257863,34.2222222 40.3831768,34.5867665 40.3831768,35.0363133 L40.3831768,35.4162731 C40.2539075,35.4438474 40.1222915,35.476741 39.9878188,35.5173425 C38.8115396,35.8724421 37.9437926,36.8940998 37.7234124,38.1836834 C37.5288453,39.3219345 37.8993085,40.4151333 38.6902285,41.0367475 C39.1175211,41.372632 39.6507188,41.6802909 40.3831768,42.0059708 L40.3831768,46.9160289 C39.7042834,46.8744504 39.2544425,46.7224665 38.4998445,46.2278673 C38.1399922,45.9919666 37.6687255,46.111274 37.447121,46.4940563 C37.2255165,46.8768387 37.337441,47.3783857 37.6972933,47.6141779 C38.7437931,48.3001683 39.4541111,48.497096 40.3832788,48.5445367 L40.3832788,48.9636867 C40.3832788,49.413342 40.7258884,49.7777778 41.1483857,49.7777778 C41.5708831,49.7777778 41.9134927,49.4132335 41.9134927,48.9636867 L41.9134927,48.4824404 C43.7093871,48.1337459 44.8433247,46.6196602 45.0661536,45.1272865 C45.3340788,43.3312707 44.3884845,41.7743039 42.6567656,41.1609401 L42.6567656,41.1609401 Z M39.5991947,39.7269717 C39.219345,39.4284319 39.1588424,38.8845465 39.2288335,38.4750584 C39.3181079,37.9524507 39.6686757,37.3182435 40.3829727,37.0915703 L40.3829727,40.2195082 C40.0858676,40.0632905 39.8182485,39.8991478 39.5991947,39.7269717 L39.5991947,39.7269717 Z M43.5545088,44.871845 C43.4360544,45.6653097 42.8817371,46.5100147 41.9131866,46.8128969 L41.9131866,42.6124953 C41.9984819,42.6433263 42.0842873,42.6742659 42.1733576,42.7058568 C43.1871065,43.0649731 43.7034695,43.8746133 43.5545088,44.871845 Z" id="Shape" fill="#FFFFFF" fill-rule="nonzero"></path>
                        <path d="M40.4444444,5.43000337 C40.4444444,4.58014916 39.7773209,3.88888889 38.9573859,3.88888889 L6.15372526,3.88888889 C5.33379018,3.88888889 4.66666667,4.58026293 4.66666667,5.43000337 L4.66666667,7.72950181 C4.66666667,8.20073289 5.03530263,8.58265532 5.4898951,8.58265532 C5.94448757,8.58265532 6.31312353,8.20061912 6.31312353,7.72950181 L6.31312353,5.59519592 L38.797768,5.59519592 L38.797768,13.8491348 L6.31323331,13.8491348 L6.31323331,11.7185832 C6.31323331,11.2473522 5.94459735,10.8654297 5.49000488,10.8654297 C5.03541241,10.8654297 4.66666667,11.2474659 4.66666667,11.7185832 L4.66666667,14.0144411 C4.66666667,14.8641815 5.33389995,15.5555556 6.15383503,15.5555556 L38.9573859,15.5555556 C39.7774307,15.5555556 40.4444444,14.8641815 40.4444444,14.0144411 L40.4444444,5.43000337 Z" id="Path" fill="#FFFFFF" fill-rule="nonzero"></path>
                        <path d="M11.6666667,20.8431293 C11.6666667,20.0718516 11.0391461,19.4444444 10.2679818,19.4444444 L6.06535154,19.4444444 C5.29407382,19.4444444 4.66666667,20.071965 4.66666667,20.8431293 L4.66666667,25.0456462 C4.66666667,25.8169239 5.2941872,26.4444444 6.06535154,26.4444444 L10.2679818,26.4444444 C11.0392595,26.4444444 11.6666667,25.8169239 11.6666667,25.0456462 L11.6666667,20.8431293 Z M9.9661824,24.7439602 L6.36703756,24.7439602 L6.36703756,21.1448153 L9.9661824,21.1448153 L9.9661824,24.7439602 Z" id="Shape" fill="#FFFFFF" fill-rule="nonzero"></path>
                        <path d="M21.7777778,20.8431293 C21.7777778,20.0718516 21.1502572,19.4444444 20.3789795,19.4444444 L16.1764626,19.4444444 C15.4051849,19.4444444 14.7777778,20.071965 14.7777778,20.8431293 L14.7777778,25.0456462 C14.7777778,25.8169239 15.4052983,26.4444444 16.1764626,26.4444444 L20.3789795,26.4444444 C21.1502572,26.4444444 21.7777778,25.8169239 21.7777778,25.0456462 L21.7777778,20.8431293 Z M20.0772935,24.7439602 L16.4781487,24.7439602 L16.4781487,21.1448153 L20.0772935,21.1448153 L20.0772935,24.7439602 Z" id="Shape" fill="#FFFFFF" fill-rule="nonzero"></path>
                        <path d="M25.5099094,19.4444444 C24.7386316,19.4444444 24.1111111,20.071965 24.1111111,20.8431293 L24.1111111,25.0456462 C24.1111111,25.8169239 24.7386316,26.4444444 25.5099094,26.4444444 L29.7124262,26.4444444 C30.483704,26.4444444 31.1111111,25.8169239 31.1111111,25.0456462 L31.1111111,20.8431293 C31.1111111,20.0718516 30.4835906,19.4444444 29.7124262,19.4444444 L25.5099094,19.4444444 Z M29.4107402,24.7439602 L25.8115954,24.7439602 L25.8115954,21.1448153 L29.4107402,21.1448153 L29.4107402,24.7439602 Z" id="Shape" fill="#FFFFFF" fill-rule="nonzero"></path>
                        <path d="M39.0457596,19.4444444 L34.8431293,19.4444444 C34.0718516,19.4444444 33.4444444,20.071965 33.4444444,20.8431293 L33.4444444,25.0456462 C33.4444444,25.8169239 34.071965,26.4444444 34.8431293,26.4444444 L39.0457596,26.4444444 C39.8170373,26.4444444 40.4444444,25.8169239 40.4444444,25.0456462 L40.4444444,20.8431293 C40.4444444,20.0718516 39.8169239,19.4444444 39.0457596,19.4444444 Z M38.7439602,24.7439602 L35.1448153,24.7439602 L35.1448153,21.1448153 L38.7439602,21.1448153 L38.7439602,24.7439602 Z" id="Shape" fill="#FFFFFF" fill-rule="nonzero"></path>
                        <path d="M11.6666667,30.9542404 C11.6666667,30.1829627 11.0391461,29.5555556 10.2679818,29.5555556 L6.06535154,29.5555556 C5.29407382,29.5555556 4.66666667,30.1830761 4.66666667,30.9542404 L4.66666667,35.1567573 C4.66666667,35.928035 5.2941872,36.5555556 6.06535154,36.5555556 L10.2679818,36.5555556 C11.0392595,36.5555556 11.6666667,35.928035 11.6666667,35.1567573 L11.6666667,30.9542404 Z M9.9661824,34.8550713 L6.36703756,34.8550713 L6.36703756,31.2559264 L9.9661824,31.2559264 L9.9661824,34.8550713 Z" id="Shape" fill="#FFFFFF" fill-rule="nonzero"></path>
                        <path d="M21.7777778,30.9542404 C21.7777778,30.1829627 21.1502572,29.5555556 20.3789795,29.5555556 L16.1764626,29.5555556 C15.4051849,29.5555556 14.7777778,30.1830761 14.7777778,30.9542404 L14.7777778,35.1567573 C14.7777778,35.928035 15.4052983,36.5555556 16.1764626,36.5555556 L20.3789795,36.5555556 C21.1502572,36.5555556 21.7777778,35.928035 21.7777778,35.1567573 L21.7777778,30.9542404 Z M20.0772935,34.8550713 L16.4781487,34.8550713 L16.4781487,31.2559264 L20.0772935,31.2559264 L20.0772935,34.8550713 Z" id="Shape" fill="#FFFFFF" fill-rule="nonzero"></path>
                        <path d="M20.3789795,39.6666667 L16.1764626,39.6666667 C15.4051849,39.6666667 14.7777778,40.2941872 14.7777778,41.0653515 L14.7777778,45.2678684 C14.7777778,46.0391461 15.4052983,46.6666667 16.1764626,46.6666667 L20.3789795,46.6666667 C21.1502572,46.6666667 21.7777778,46.0391461 21.7777778,45.2678684 L21.7777778,41.0653515 C21.7777778,40.2941872 21.1502572,39.6666667 20.3789795,39.6666667 Z M20.0772935,44.9662958 L16.4781487,44.9662958 L16.4781487,41.3671509 L20.0772935,41.3671509 L20.0772935,44.9662958 Z" id="Shape" fill="#FFFFFF" fill-rule="nonzero"></path>
                        <path d="M41.2041513,27.2222222 C37.0741281,27.2222222 33.3559177,29.0654644 30.7882523,31.9921178 L30.7882523,30.7588495 C30.7882523,30.0036807 30.1896747,29.3892667 29.4540785,29.3892667 L25.445393,29.3892667 C24.7096887,29.3892667 24.1111111,30.0036807 24.1111111,30.7588495 L24.1111111,34.873592 C24.1111111,35.6287607 24.7096887,36.2430638 25.445393,36.2430638 L28.19885,36.2430638 C27.7903897,37.2820729 27.4967785,38.3808029 27.334346,39.5226029 L25.445393,39.5226029 C24.7096887,39.5226029 24.1111111,40.1370169 24.1111111,40.8921856 L24.1111111,45.0069282 C24.1111111,45.7620969 24.7096887,46.3763999 25.445393,46.3763999 L27.9773708,46.3763999 C29.8975775,51.9755047 35.1011472,56 41.2041513,56 C48.9337509,56 55.2222222,49.5451558 55.2222222,41.6110556 C55.2222222,33.6769554 48.9337509,27.2222222 41.2041513,27.2222222 L41.2041513,27.2222222 Z M25.7330563,34.5782071 L25.7330563,31.0542344 L29.1661989,31.0542344 L29.1661989,34.2461904 C29.1022858,34.3558635 29.0397785,34.4666468 28.9786771,34.5782071 L25.7330563,34.5782071 Z M25.7330563,44.7116542 L25.7330563,41.1876816 L27.1926773,41.1876816 C27.1886759,41.3283252 27.1861886,41.4694129 27.1861886,41.6111666 C27.1861886,42.6753739 27.3003888,43.712718 27.5149467,44.7116542 L25.7330563,44.7116542 Z M41.2041513,54.3350323 C34.3690116,54.3350323 28.8081338,48.6270314 28.8081338,41.6110556 C28.8081338,34.5950799 34.3690116,28.8870789 41.2041513,28.8870789 C48.0392911,28.8870789 53.6001689,34.5950799 53.6001689,41.6110556 C53.6001689,48.6270314 48.0393992,54.3350323 41.2041513,54.3350323 Z" id="Shape" fill="#FFFFFF" fill-rule="nonzero"></path>
                        <path d="M42,31.1111111 C35.9958463,31.1111111 31.1111111,35.9958463 31.1111111,42 C31.1111111,48.0041537 35.9958463,52.8888889 42,52.8888889 C48.0041537,52.8888889 52.8888889,48.0041537 52.8888889,42 C52.8888889,35.9958463 48.0041537,31.1111111 42,31.1111111 Z M42,51.2477317 C36.9007917,51.2477317 32.7522683,47.0992083 32.7522683,42 C32.7522683,36.9007917 36.9007917,32.7522683 42,32.7522683 C47.0992083,32.7522683 51.2477317,36.9007917 51.2477317,42 C51.2477317,47.0992083 47.0992083,51.2477317 42,51.2477317 Z" id="Shape" fill="#FFFFFF" fill-rule="nonzero"></path>
                        <path d="M10.2679818,39.6666667 L6.06535154,39.6666667 C5.29407382,39.6666667 4.66666667,40.2941872 4.66666667,41.0653515 L4.66666667,45.2678684 C4.66666667,46.0391461 5.2941872,46.6666667 6.06535154,46.6666667 L10.2679818,46.6666667 C11.0392595,46.6666667 11.6666667,46.0391461 11.6666667,45.2678684 L11.6666667,41.0653515 C11.6666667,40.2941872 11.0391461,39.6666667 10.2679818,39.6666667 Z M9.9661824,44.9662958 L6.36703756,44.9662958 L6.36703756,41.3671509 L9.9661824,41.3671509 L9.9661824,44.9662958 Z" id="Shape" fill="#FFFFFF" fill-rule="nonzero"></path>
                        <path d="M29.6578276,52.0253125 L5.54196664,52.0253125 C3.81570235,52.0253125 2.41125441,50.6140916 2.41125441,48.8795023 L2.41125441,4.78705494 C2.41125441,3.05246566 3.81570235,1.64124471 5.54196664,1.64124471 L40.3470312,1.64124471 C42.0732954,1.64124471 43.4777434,3.05246566 43.4777434,4.78705494 L43.4777434,24.9281413 C43.4777434,25.3814041 43.8434487,25.7487636 44.2944272,25.7487636 C44.7454058,25.7487636 45.1111111,25.3812947 45.1111111,24.9281413 L45.1111111,4.78705494 C45.1111111,2.14747208 42.9739456,0 40.3470312,0 L5.54196664,0 C2.91494328,0 0.777777778,2.14747208 0.777777778,4.78705494 L0.777777778,48.8795023 C0.777777778,51.5191946 2.91494328,53.6666667 5.54185773,53.6666667 L29.6578276,53.6666667 C30.108915,53.6666667 30.4745114,53.2991977 30.4745114,52.8460443 C30.4745114,52.3928909 30.108915,52.0253125 29.6578276,52.0253125 L29.6578276,52.0253125 Z" id="Path" fill="#FFFFFF" fill-rule="nonzero"></path>
                        <rect id="Rectangle-Copy-2" x="0" y="0" width="56" height="56"></rect>
                    </g>
                </g>
            </g>
        </g>
    </g>
</svg>