<?xml version="1.0" encoding="UTF-8"?>
<svg width="56px" height="56px" viewBox="0 0 56 56" version="1.1" xmlns="http://www.w3.org/2000/svg" xmlns:xlink="http://www.w3.org/1999/xlink">
    <title>304149F6-2A80-421E-9F7B-7BF079187214</title>
    <g id="Pac-primário-(Mobile)---B2B" stroke="none" stroke-width="1" fill="none" fill-rule="evenodd">
        <g id="Home---VedacitPRO---Mobile" transform="translate(-16.000000, -1323.000000)">
            <g id="Group-2" transform="translate(0.000000, 885.000000)">
                <g id="Group-16" transform="translate(16.000000, 190.000000)">
                    <g id="construction-and-tools" transform="translate(0.000000, 248.000000)">
                        <polygon id="Path" fill="#FFFFFF" fill-rule="nonzero" points="33.4444444 14.510806 34.7332125 13.2222222 36.5555556 15.0443046 35.2667875 16.3333333"></polygon>
                        <path d="M23.5753675,3.88888889 C22.5498139,3.88888889 21.5860938,4.27750394 20.8617578,4.98372457 L20.2222222,5.60688576 L21.5012935,6.85277781 L22.1408291,6.22961662 C22.9057985,5.4842332 24.2449366,5.4842332 25.009906,6.22961662 L31.3880371,12.4444444 L32.6666667,11.1981221 L26.2889772,4.98372457 C25.5646413,4.27750394 24.6009211,3.88888889 23.5753675,3.88888889 Z" id="Path" fill="#FFFFFF" fill-rule="nonzero"></path>
                        <path d="M50.5630244,36.9237651 L45.6812789,32.0645161 L47.1983507,30.5544355 C48.611301,29.1479965 49.3888889,27.2793599 49.3888889,25.2903226 C49.3888889,23.3012852 48.611301,21.4326487 47.1983507,20.0262097 L29.2699653,2.18044355 C27.857015,0.774004565 25.9797273,0 23.9814815,0 C21.9832356,0 20.105948,0.774004565 18.6929977,2.18044355 L15.2831308,5.57459677 C13.8701805,6.98103576 13.0925926,8.84967232 13.0925926,10.8387097 C13.0925926,12.827747 13.8701805,14.6963836 15.2831308,16.1028226 L33.2115162,33.9485887 C34.6244665,35.3550277 36.5017541,36.1290323 38.5,36.1290323 C40.4982459,36.1290323 42.3755335,35.3550277 43.7884838,33.9485887 L44.3981481,33.3417339 L49.2798936,38.2009828 C49.9360804,38.8541457 50.2962963,39.7212071 50.2962963,40.6469254 C50.2962963,41.5691155 49.9360804,42.4361769 49.2798936,43.0893398 L45.4898727,46.8618952 C44.8345721,47.5141759 43.9426722,47.9000755 43.036151,47.8727319 C42.1234266,47.8727319 41.2301974,47.5044733 40.5842014,46.8618952 L29.5349212,35.8635333 C28.5375706,34.8690146 27.2101328,34.3225806 25.794524,34.3225806 C24.3824598,34.3225806 23.055022,34.8690146 22.0576714,35.8635333 L20.3518519,37.5614919 L15.9800799,33.2098664 C15.530807,32.7617817 14.9335486,32.516129 14.2986291,32.516129 C13.1688006,32.516129 12.1878437,33.3165953 11.9663085,34.4182837 L11.1997975,38.2327368 L12.7159831,39.7419355 L4.50412326,47.9159527 C3.60557726,48.8112399 3.11111111,49.999811 3.11111111,51.265121 C3.11111111,53.8755671 5.24537938,56 7.86791088,56 C9.13819266,56 10.3331525,55.5078125 11.2316985,54.6134073 L19.4435584,46.4393901 L20.9597439,47.9485887 L24.7918565,47.1856099 C25.8995316,46.9650957 26.7037037,45.9886593 26.7037037,44.8640374 C26.7037037,44.2320438 26.4569137,43.6384199 26.0067546,43.1903352 L21.6349826,38.8387097 L23.3408022,37.1407511 C24.649188,35.8370715 26.9376447,35.8335433 28.2517904,37.1407511 L39.3010706,48.1391129 C40.2846861,49.1181956 41.644911,49.6791835 43.0352648,49.6791835 L43.0432401,49.6791835 C44.4526458,49.6783014 45.776539,49.1318675 46.7730035,48.1391129 L50.5630244,44.3665575 C51.5621473,43.3729208 52.1111111,42.0524824 52.1111111,40.6433972 C52.1111111,39.2378402 51.5621473,37.9165196 50.5630244,36.9237651 L50.5630244,36.9237651 Z M38.5,34.3225806 C36.9873589,34.3225806 35.5646611,33.7364542 34.494647,32.671371 L16.5662616,14.8256048 C15.4962474,13.7605216 14.9074074,12.3443801 14.9074074,10.8387097 C14.9074074,9.33303926 15.4962474,7.91689771 16.5662616,6.85181452 L19.9761285,3.45766129 C21.0461426,2.3925781 22.4688404,1.80645161 23.9814815,1.80645161 C25.4941226,1.80645161 26.9168204,2.3925781 27.9868345,3.45766129 L45.9152199,21.3034274 C46.985234,22.3685106 47.5740741,23.7846522 47.5740741,25.2903226 C47.5740741,26.795993 46.985234,28.2121345 45.9152199,29.2772177 L42.505353,32.671371 C41.4353389,33.7364542 40.0126411,34.3225806 38.5,34.3225806 Z M7.86791088,54.1935484 C6.2453884,54.1935484 4.92592593,52.8801664 4.92592593,51.265121 C4.92592593,50.483178 5.23164419,49.7471019 5.78725405,49.1940524 L5.83333333,49.1481855 L9.99464699,53.2903226 L9.94856771,53.3361895 C9.39295784,53.889239 8.653474,54.1935484 7.86791088,54.1935484 Z M11.2777778,52.0131048 L7.11646412,47.8709677 L14,41.0200352 L18.1604276,45.1612903 L11.2777778,52.0131048 Z M24.8888889,44.8640374 C24.8888889,45.1304183 24.6983687,45.3628402 24.4360713,45.4139995 L21.5578884,45.9868952 L13.1705729,37.6382309 L13.7461209,34.7733115 C13.8276458,34.3675656 14.4036368,34.1942414 14.6969491,34.4870841 L24.7245099,44.468435 C24.8290744,44.5725176 24.8888889,44.7167339 24.8888889,44.8640374 Z" id="Shape" fill="#FFFFFF" fill-rule="nonzero"></path>
                        <rect id="Rectangle-Copy-3" x="0" y="0" width="56" height="56"></rect>
                    </g>
                </g>
            </g>
        </g>
    </g>
</svg>