<?xml version="1.0" encoding="UTF-8"?>
<svg width="56px" height="56px" viewBox="0 0 56 56" version="1.1" xmlns="http://www.w3.org/2000/svg" xmlns:xlink="http://www.w3.org/1999/xlink">
    <title>CEA265D6-BF79-453C-980F-8E4FE8F5365B</title>
    <g id="Pac-primário-(Mobile)---B2B" stroke="none" stroke-width="1" fill="none" fill-rule="evenodd">
        <g id="Home---VedacitPRO---Mobile" transform="translate(-16.000000, -1075.000000)">
            <g id="Group-2" transform="translate(0.000000, 885.000000)">
                <g id="quality" transform="translate(16.000000, 190.000000)">
                    <path d="M51.2650475,49.8492936 L43.825741,31.9509787 C43.6362404,31.4951149 43.111736,31.278383 42.6541845,31.4673532 C42.196633,31.6563234 41.9792751,32.1790298 42.1688953,32.6348936 L48.8941968,48.8154383 L42.7597549,47.0440511 C42.3570809,46.9276426 41.9270279,47.1051745 41.724854,47.4713191 L38.6439436,53.0466553 L31.4277338,35.6847489 C39.7565577,34.0841021 46.0673488,26.7660936 46.0673488,18.0056681 C46.0674683,8.07734468 37.9624585,0 27.9999833,0 C18.0375082,0 9.93237877,8.07734468 9.93237877,18.0056681 C9.93237877,22.0270638 11.2623507,25.7445106 13.5067083,28.7449191 L4.73491912,49.8492936 C4.60304578,50.1667064 4.66533591,50.5313021 4.89524746,50.787234 C5.12503945,51.043166 5.48192243,51.1451574 5.81298072,51.0496 L13.0502329,48.9596085 L16.68482,55.5374638 C16.8431159,55.8237787 17.1447627,56 17.4700821,56 C17.4865813,56 17.5031999,56 17.5198186,55.9986894 C17.8640284,55.9796255 18.1667512,55.7657532 18.2987441,55.4483404 L25.2494138,38.7254298 C25.4389145,38.2694468 25.2216762,37.7467404 24.7641247,37.5578894 C24.3065732,37.3690383 23.7820688,37.5855319 23.5925681,38.0415149 L17.3557839,53.0466553 L14.2751126,47.4713191 C14.0728192,47.1051745 13.6425271,46.9276426 13.2400922,47.0440511 L7.1057699,48.8154383 L14.8049972,30.2914723 C18.1045806,33.8087489 22.7986978,36.011217 27.9999833,36.011217 C28.5369218,36.011217 29.068002,35.9863149 29.5931042,35.9404426 L37.7013421,55.4483404 C37.8332154,55.7657532 38.1360579,55.9796255 38.480148,55.9985702 C38.4968863,56 38.5133854,56 38.5300041,56 C38.8553235,56 39.1569703,55.8237787 39.3151466,55.5374638 L42.9498534,48.9596085 L50.1871055,51.0496 C50.5184029,51.1452766 50.8749272,51.043166 51.1048388,50.787234 C51.3347503,50.5313021 51.3969209,50.1667064 51.2650475,49.8492936 Z M11.7257606,18.0056681 C11.7257606,9.06282553 19.0263789,1.78723404 27.9999833,1.78723404 C36.9735878,1.78723404 44.2740865,9.06282553 44.2740865,18.0056681 C44.2740865,26.9485106 36.9735878,34.223983 27.9999833,34.223983 C19.0263789,34.223983 11.7257606,26.9485106 11.7257606,18.0056681 Z" id="Shape" fill="#FFFFFF" fill-rule="nonzero"></path>
                    <path d="M38.0667755,14.6575849 C37.962652,14.3343077 37.6885284,14.0961674 37.3558882,14.0398553 L31.2668947,13.0098195 L28.4135726,7.49063226 C28.257689,7.18912572 27.9484554,7 27.6111111,7 C27.2738846,7 26.9645304,7.18912572 26.8086468,7.49063226 L23.955204,13.0098195 L17.8663312,14.0398553 C17.533691,14.0960457 17.2596881,14.334186 17.1554439,14.6575849 C17.0511997,14.9809838 17.1339677,15.3358834 17.3703269,15.5785238 L21.6957359,20.0196336 L20.7860125,26.1755239 C20.7363034,26.5118149 20.8762609,26.8479844 21.1491779,27.0479347 C21.4218536,27.2476417 21.7824853,27.2779261 22.0843591,27.1265039 L27.6111111,24.3520113 L33.1377397,27.1265039 C33.2655112,27.1905999 33.4035382,27.2222222 33.5410826,27.2222222 C33.7289392,27.2222222 33.9155894,27.1633561 34.0730415,27.0480563 C34.3459585,26.848106 34.485916,26.5119366 34.4362069,26.1756455 L33.5266042,20.0197553 L37.8520132,15.5785238 C38.0882517,15.3358834 38.1710196,14.9809838 38.0667755,14.6575849 Z M31.919386,19.0657346 C31.7205499,19.2699417 31.6282504,19.5562452 31.6701169,19.8391432 L32.3904152,24.7131138 L28.0145732,22.516458 C27.887405,22.4527269 27.749378,22.4207397 27.6111097,22.4207397 C27.472962,22.4207397 27.3346937,22.4526053 27.2077668,22.516458 L22.8319249,24.7131138 L23.5522231,19.8391432 C23.5940897,19.5562452 23.5017902,19.2698201 23.3029541,19.0657346 L19.8782195,15.549334 L24.6991503,14.7337217 C24.9790651,14.6864099 25.220733,14.5094466 25.3518828,14.2557384 L27.6111097,9.88590041 L29.8703366,14.25586 C30.001607,14.5095682 30.2431543,14.6865315 30.5230691,14.7338434 L35.3441205,15.5494556 L31.919386,19.0657346 L31.919386,19.0657346 Z" id="Shape" fill="#FFFFFF" fill-rule="nonzero"></path>
                    <path d="M40.2183406,19.1650427 C39.3884561,25.4028791 33.9939085,30.1070063 27.670229,30.1070063 C20.6902286,30.1070063 15.0115377,24.4516468 15.0115377,17.5000594 C15.0115377,10.548472 20.6902286,4.89311248 27.670229,4.89311248 C33.9940278,4.89311248 39.3884561,9.59712091 40.2183406,15.8350761 C40.2831139,16.3229881 40.7336635,16.6667956 41.2227431,16.6013367 C41.7124191,16.5367095 42.0570412,16.0888331 41.9920294,15.6010399 C41.0448851,8.48063765 34.8878505,3.11111111 27.670229,3.11111111 C19.7036001,3.11111111 13.2222222,9.56587649 13.2222222,17.5000594 C13.2222222,25.4342423 19.7036001,31.8888889 27.670229,31.8888889 C34.8878505,31.8888889 41.0448851,26.5193624 41.9921487,19.3989601 C42.0570412,18.9112857 41.7125384,18.4634093 41.2227431,18.3987821 C40.7328285,18.3335608 40.2831139,18.6771307 40.2183406,19.1650427 Z" id="Path" fill="#FFFFFF" fill-rule="nonzero"></path>
                    <rect id="Rectangle" x="0" y="0" width="56" height="56"></rect>
                </g>
            </g>
        </g>
    </g>
</svg>