<?xml version="1.0" encoding="UTF-8"?>
<svg width="56px" height="56px" viewBox="0 0 56 56" version="1.1" xmlns="http://www.w3.org/2000/svg" xmlns:xlink="http://www.w3.org/1999/xlink">
    <title>ECCF6DC6-CD88-4E2A-917F-16F612A8823E</title>
    <g id="Pac-primário-(Mobile)---B2B" stroke="none" stroke-width="1" fill="none" fill-rule="evenodd">
        <g id="Home---VedacitPRO---Mobile" transform="translate(-16.000000, -1419.000000)">
            <g id="Group-2" transform="translate(0.000000, 885.000000)">
                <g id="Group-16" transform="translate(16.000000, 190.000000)">
                    <g id="system" transform="translate(0.000000, 344.000000)">
                        <path d="M31.8888889,20.2222752 C31.8888889,17.6490046 29.7954161,15.5555556 27.2222222,15.5555556 C24.6490283,15.5555556 22.5555556,17.6490046 22.5555556,20.2222752 C22.5555556,22.7954399 24.6490283,24.8888889 27.2222222,24.8888889 C29.7954161,24.8888889 31.8888889,22.7954399 31.8888889,20.2222752 Z M24.1436854,20.2222752 C24.1436854,18.5246895 25.5247231,17.1436674 27.2222222,17.1436674 C28.9197213,17.1436674 30.300759,18.5246895 30.300759,20.2222752 C30.300759,21.919755 28.9197213,23.300777 27.2222222,23.300777 C25.5247231,23.300777 24.1436854,21.919755 24.1436854,20.2222752 Z" id="Shape" fill="#FFFFFF" fill-rule="nonzero"></path>
                        <path d="M46.4848132,16.74575 L44.8486434,16.2876875 C44.4114393,16.1651875 43.9571244,16.4194844 43.8342773,16.8556719 C43.7114302,17.2918594 43.9664477,17.7447813 44.4038711,17.8672813 L46.0400409,18.3253438 C46.3561528,18.4139375 46.5770582,18.7043281 46.5770582,19.0317969 L46.5770582,22.0740625 C46.5770582,22.4015313 46.3562625,22.6919219 46.0400409,22.7805156 L42.6360794,23.7336094 C41.8887961,23.9428438 41.2898068,24.5035 41.0339119,25.23325 C40.8588547,25.7327656 40.6529762,26.2280156 40.4220894,26.7052188 C40.0846986,27.4024844 40.1102552,28.2220313 40.4905328,28.8974219 L42.2220188,31.9721719 C42.3828169,32.2576406 42.3329103,32.6187969 42.100817,32.8503438 L39.9435341,35.0014219 C39.7114409,35.2330781 39.349371,35.2828438 39.062874,35.1223906 L35.9795214,33.3957969 C35.3220701,33.0276406 34.0409503,32.8995625 33.447884,33.4820938 C32.3473056,33.9766875 31.1702768,34.2239844 30.8009677,35.5352813 L29.8451734,38.929625 C29.7563286,39.2448438 29.4650055,39.465125 29.1367185,39.465125 L26.0859424,39.465125 C25.7575458,39.465125 25.4662227,39.2449531 25.3774876,38.9297344 L24.4216933,35.5352813 C24.0803538,34.3231875 23.0556774,34.0306094 22.0203615,33.588625 L22.0203615,30.599625 C22.232163,30.5552188 22.4263053,30.4286719 22.5497009,30.2310313 C22.7898011,29.8464688 22.6718899,29.3405 22.286128,29.1010781 C19.3023694,27.2484844 17.5209767,24.0529844 17.5209767,20.552875 C17.5209767,15.0047188 22.0474537,10.4910313 27.6113305,10.4910313 C33.1752073,10.4910313 37.7016842,15.0047188 37.7016842,20.552875 C37.7016842,26.1009219 33.1752073,30.6146094 27.6113305,30.6146094 C26.9704415,30.6146094 26.3294429,30.5543438 25.7059939,30.4356719 C25.2592472,30.3505781 24.8288436,30.6425 24.7436185,31.0874375 C24.6583933,31.532375 24.9510326,31.9621094 25.3972309,32.0470938 C26.1221384,32.1852344 26.8671184,32.2552344 27.6113305,32.2552344 C34.0824112,32.2552344 39.3469579,27.0055625 39.3469579,20.552875 C39.3469579,14.1000781 34.0824112,8.85040625 27.6113305,8.85040625 C21.1402498,8.85040625 15.875703,14.1000781 15.875703,20.552875 C15.875703,24.1975781 17.5372101,27.5571406 20.3750878,29.766625 L20.3750878,33.0932656 C19.983732,33.0987344 19.5940216,33.1993594 19.2431395,33.3959063 L16.159787,35.1225 C15.8735093,35.2829531 15.5113298,35.2331875 15.2791268,35.0016406 L13.121844,32.8504531 C12.889641,32.6189063 12.8397344,32.2578594 13.0006421,31.9722813 L14.7321282,28.8975313 C15.1124057,28.22225 15.1379623,27.4027031 14.8005715,26.7054375 C14.5696848,26.2282344 14.3638062,25.7329844 14.1886394,25.2333594 C13.9327445,24.5036094 13.3338649,23.9430625 12.5864719,23.7338281 L9.18251037,22.7807344 C8.86639846,22.6921406 8.64549304,22.40175 8.64549304,22.0742813 L8.64549304,19.0320156 C8.64549304,18.7045469 8.86628877,18.4141563 9.18251037,18.3255625 L12.5864719,17.3724688 C13.3337552,17.1632344 13.9327445,16.6025781 14.1886394,15.8728281 C14.3636965,15.3733125 14.5695751,14.8779531 14.8004619,14.4008594 C15.1378526,13.7035938 15.1122961,12.8840469 14.7320185,12.2086563 L13.0005325,9.13390625 C12.8397344,8.8484375 12.889641,8.48728125 13.1217343,8.25584375 L15.2790171,6.10465625 C15.5111104,5.87321875 15.87329,5.82345313 16.1596773,5.9836875 L19.2430298,7.71028125 C19.9203342,8.08948438 20.7420935,8.11496875 21.4414445,7.77864063 C21.9194514,7.548625 22.4162143,7.34332813 22.9175841,7.1684375 C23.6494018,6.91326563 24.2116466,6.31607813 24.4214739,5.57090625 L25.3772682,2.1765625 C25.466113,1.86134375 25.7574361,1.6410625 26.085723,1.6410625 L29.1364992,1.6410625 C29.4648958,1.6410625 29.7562189,1.86123438 29.844954,2.17645313 L30.8007483,5.57090625 C31.0105756,6.31607813 31.5728204,6.91326563 32.3046382,7.1684375 C32.8061176,7.34332813 33.3028805,7.548625 33.7808874,7.77864063 C34.4801287,8.11496875 35.3019977,8.08948438 35.9791924,7.71028125 L39.0625449,5.9836875 C39.3490419,5.82345313 39.7111118,5.87310938 39.9432051,6.10465625 L42.1004879,8.25584375 C42.3326909,8.48728125 42.3825975,8.84832813 42.2216898,9.13390625 L40.4902037,12.2086563 C40.1099262,12.8839375 40.0843696,13.7034844 40.4217604,14.40075 C40.5924301,14.7535938 40.7500473,15.1174844 40.8902246,15.4824688 C41.0527777,15.9055313 41.5284811,16.1171719 41.9527424,15.9549688 C42.3770036,15.7929844 42.5891342,15.318625 42.4266909,14.8954531 C42.2700608,14.4879219 42.0941262,14.0815937 41.9034938,13.6877344 C41.7995125,13.4728125 41.8074099,13.2201562 41.924663,13.0117969 L43.6560394,9.93704688 C44.1763846,9.01315625 44.0149284,7.84470312 43.2635867,7.09559375 L41.1067426,4.94429688 C40.3555107,4.19507812 39.1836371,4.03396875 38.2571286,4.55284375 L35.1737761,6.2794375 C34.964936,6.39635938 34.7114542,6.40434375 34.4959233,6.30065625 C33.9621965,6.04384375 33.4076296,5.81459375 32.8476882,5.61935938 C32.6226147,5.54082813 32.4495319,5.35675 32.3848178,5.12695312 L31.4290235,1.7325 C31.1417587,0.71246875 30.1990169,0 29.1364992,0 L26.085723,0 C25.0232053,0 24.0804635,0.71246875 23.7931987,1.7325 L22.8374044,5.12684375 C22.7726903,5.35675 22.5996075,5.54082812 22.3744244,5.61925 C21.8145926,5.81448437 21.2600257,6.043625 20.7262989,6.30054687 C20.510768,6.40423437 20.2572862,6.39625 20.0484461,6.27932812 L16.9649839,4.55273437 C16.0385851,4.03407812 14.8667115,4.19496875 14.1154796,4.9441875 L11.9581967,7.09526562 C11.2068551,7.84448437 11.0453989,9.0129375 11.5657441,9.93682812 L13.2972301,13.0114688 C13.4144833,13.2198281 13.4224903,13.4724844 13.3183993,13.6874063 C13.0606398,14.2201719 12.8307402,14.7731719 12.6352817,15.330875 C12.5565279,15.5554219 12.3719282,15.7279063 12.1414802,15.7924375 L8.73751868,16.7455313 C7.71448751,17.0319844 7,17.9719531 7,19.0314688 L7,22.0737344 C7,23.13325 7.71448751,24.0732188 8.73751868,24.3596719 L12.1414802,25.3127656 C12.3720379,25.3772969 12.5566376,25.5498906 12.6352817,25.7742188 C12.8308499,26.3321406 13.0606398,26.8850313 13.318509,27.4177969 C13.4224903,27.6327187 13.414593,27.885375 13.2973398,28.0937344 L11.5659635,31.1684844 C11.0456183,32.0922656 11.2070745,33.2608281 11.9584161,34.0100469 L14.115699,36.1612344 C14.8670406,36.9102344 16.0389142,37.0712344 16.965313,36.5525781 L20.0486655,34.8259844 C20.1501241,34.7691094 20.2620027,34.7385938 20.3750878,34.7334531 L20.3750878,43.1394688 L15.0038177,43.1394688 C14.6734467,42.2970625 13.8526745,41.6979063 12.8922735,41.6979063 C11.6415364,41.6979063 10.6239895,42.7125781 10.6239895,43.9597813 C10.6239895,45.2069844 11.6415364,46.2216563 12.8922735,46.2216563 C13.8526745,46.2216563 14.6735564,45.6225 15.0038177,44.7800938 L21.1977246,44.7800938 C21.6520395,44.7800938 22.0203615,44.4128125 22.0203615,43.9597813 L22.0203615,35.3567813 C22.3657593,35.4866094 22.725087,35.5788125 22.8376238,35.9783594 L23.7934181,39.3728125 C23.9463188,39.9156406 24.2857936,40.3697656 24.7291401,40.6773281 L24.7291401,48.5737656 L19.3578699,48.5737656 C19.027499,47.7313594 18.2067268,47.1322031 17.2463257,47.1322031 C15.9955887,47.1322031 14.9780417,48.146875 14.9780417,49.3940781 C14.9780417,50.6412813 15.9955887,51.6559531 17.2463257,51.6559531 C18.2067268,51.6559531 19.0276087,51.0567969 19.3578699,50.2143906 L25.5517769,50.2143906 C26.0060918,50.2143906 26.3744137,49.8471094 26.3744137,49.3940781 L26.3744137,41.1052031 L28.8482472,41.1052031 L28.8482472,53.738125 C28.8482472,54.1911563 29.2165692,54.5584375 29.6708841,54.5584375 L35.864791,54.5584375 C36.195162,55.4008438 37.0159342,56 37.9763353,56 C39.2270723,56 40.2446192,54.9853281 40.2446192,53.738125 C40.2446192,52.4909219 39.2270723,51.47625 37.9763353,51.47625 C37.0159342,51.47625 36.1950523,52.0754063 35.864791,52.9178125 L30.4935209,52.9178125 L30.4935209,40.677875 C30.9368673,40.3703125 31.2764518,39.9160781 31.4292429,39.37325 L32.3850372,35.9789063 C32.4975739,35.5793594 32.8569017,35.4871563 33.2022995,35.3573281 L33.2022995,48.3037188 C33.2022995,48.75675 33.5706214,49.1240313 34.0249363,49.1240313 L40.2188433,49.1240313 C40.5492142,49.9664375 41.3699864,50.5655938 42.3303875,50.5655938 C43.5811246,50.5655938 44.5986715,49.5509219 44.5986715,48.3037188 C44.5986715,47.0565156 43.5811246,46.0418438 42.3303875,46.0418438 C41.3699864,46.0418438 40.5491045,46.641 40.2188433,47.4834063 L34.8475732,47.4834063 L34.8475732,34.734 C34.9605486,34.7390313 35.0725369,34.7696563 35.1739955,34.8264219 L38.257348,36.5530156 C39.1838565,37.0717813 40.3556204,36.9108906 41.106962,36.1616719 L43.2642448,34.0104844 C44.0155865,33.2612656 44.176933,32.0927031 43.6566975,31.1689219 L41.9249921,28.0941719 C41.8077389,27.8858125 41.7997319,27.6331563 41.9038229,27.4182344 C42.1615824,26.8854688 42.391482,26.3324688 42.5869405,25.7747656 C42.6656943,25.5503281 42.850294,25.3777344 43.080742,25.3132031 L46.4847035,24.3601094 C47.5077347,24.0736563 48.2222222,23.1336875 48.2222222,22.0741719 L48.2222222,19.0319063 C48.2222222,17.9722813 47.5078444,17.0323125 46.4848132,16.74575 Z M12.8920541,44.5815781 C12.5485209,44.5815781 12.2690438,44.3028906 12.2690438,43.9603281 C12.2690438,43.6177656 12.5485209,43.3390781 12.8920541,43.3390781 C13.2355872,43.3390781 13.5150644,43.6177656 13.5150644,43.9603281 C13.5150644,44.3028906 13.2354775,44.5815781 12.8920541,44.5815781 Z M17.2461063,50.0159844 C16.9025732,50.0159844 16.623096,49.7372969 16.623096,49.3947344 C16.623096,49.0521719 16.9025732,48.7734844 17.2461063,48.7734844 C17.5896395,48.7734844 17.8691166,49.0521719 17.8691166,49.3947344 C17.8691166,49.7372969 17.5896395,50.0159844 17.2461063,50.0159844 Z M37.9761159,53.116875 C38.319649,53.116875 38.5991262,53.3955625 38.5991262,53.738125 C38.5991262,54.0806875 38.319649,54.359375 37.9761159,54.359375 C37.6325827,54.359375 37.3531056,54.0806875 37.3531056,53.738125 C37.3531056,53.3955625 37.6325827,53.116875 37.9761159,53.116875 Z M42.3301681,47.6824688 C42.6737013,47.6824688 42.9531784,47.9611563 42.9531784,48.3037188 C42.9531784,48.6462813 42.6737013,48.9249688 42.3301681,48.9249688 C41.986635,48.9249688 41.7071578,48.6462813 41.7071578,48.3037188 C41.7071578,47.9611563 41.9867447,47.6824688 42.3301681,47.6824688 Z" id="Shape" fill="#FFFFFF" fill-rule="nonzero"></path>
                        <rect id="Rectangle-Copy" x="0" y="0" width="56" height="56"></rect>
                    </g>
                </g>
            </g>
        </g>
    </g>
</svg>