<?xml version="1.0" encoding="UTF-8"?>
<svg width="56px" height="56px" viewBox="0 0 56 56" version="1.1" xmlns="http://www.w3.org/2000/svg" xmlns:xlink="http://www.w3.org/1999/xlink">
    <!-- Generator: sketchtool 64 (101010) - https://sketch.com -->
    <title>79B91D11-A87A-4779-A166-4BDD99728068</title>
    <desc>Created with sketchtool.</desc>
    <g id="Pac-secundário" stroke="none" stroke-width="1" fill="none" fill-rule="evenodd">
        <g id="Sala-de-imprensa" transform="translate(-784.000000, -1817.000000)" fill="#000000" fill-rule="nonzero">
            <g id="Group-5" transform="translate(38.000000, 1681.000000)">
                <g id="Card-Copy-3" transform="translate(722.000000, 104.000000)">
                    <g id="Group-4">
                        <g id="brand" transform="translate(24.000000, 32.000000)">
                            <path d="M51.3333333,14 L51.3333333,12.964 C53.8585833,10.3867167 53.81635,6.25018333 51.2390667,3.72493333 C48.6616667,1.19968333 44.52525,1.24191667 42,3.8192 C39.51115,6.35938333 39.51115,10.4237 42,12.964 L42,14 L40.1333333,14 L40.1333333,15.8666667 L53.2,15.8666667 L53.2,14 L51.3333333,14 Z M50.1453167,11.5022833 C50.0297,11.6316667 49.90685,11.7544 49.7774667,11.8701333 C49.57995,12.047 49.4669,12.2994667 49.4666667,12.5645333 L49.4666667,14 L47.6,14 L47.6,11.5864 L50.1265333,9.05986667 L48.8068,7.74013333 L46.6666667,9.88026667 L44.5265333,7.74013333 L43.2068,9.05986667 L45.7333333,11.5864 L45.7333333,14 L43.8666667,14 L43.8666667,12.5654667 C43.8666667,12.30005 43.7536167,12.0471167 43.5558667,11.8701333 C41.6347167,10.1521 41.4699833,7.20195 43.1880167,5.28068333 C44.90605,3.35953333 47.8562,3.1948 49.7774667,4.91283333 C51.6986167,6.63098333 51.86335,9.58113333 50.1453167,11.5022833 Z" id="Shape"></path>
                            <rect id="Rectangle-path" x="7.46666667" y="7.46666667" width="1.86666667" height="1.86666667"></rect>
                            <rect id="Rectangle-path" x="41.0666667" y="21.4666667" width="1.86666667" height="1.86666667"></rect>
                            <path d="M8.4,3.73333333 C5.82271667,3.73333333 3.73333333,5.82271667 3.73333333,8.4 C3.73333333,10.9772833 5.82271667,13.0666667 8.4,13.0666667 C10.9772833,13.0666667 13.0666667,10.9772833 13.0666667,8.4 C13.0636333,5.824 10.976,3.73636667 8.4,3.73333333 Z M8.4,11.2 C6.85358333,11.2 5.6,9.94641667 5.6,8.4 C5.6,6.85358333 6.85358333,5.6 8.4,5.6 C9.94641667,5.6 11.2,6.85358333 11.2,8.4 C11.2,9.94641667 9.94641667,11.2 8.4,11.2 Z" id="Shape"></path>
                            <path d="M55.0666667,32.6666667 L35.4666667,32.6666667 L35.4666667,0.933333333 C35.4666667,0.4179 35.0487667,0 34.5333333,0 L0.933333333,0 C0.4179,0 0,0.4179 0,0.933333333 L0,51.3333333 C0,51.8487667 0.4179,52.2666667 0.933333333,52.2666667 L4.66666667,52.2666667 L4.66666667,53.2 C4.66666667,54.7464167 5.92025,56 7.46666667,56 C9.01308333,56 10.2666667,54.7464167 10.2666667,53.2 L10.2666667,52.2666667 L18.6666667,52.2666667 L18.6666667,55.0666667 C18.6666667,55.5821 19.0845667,56 19.6,56 L55.0666667,56 C55.5821,56 56,55.5821 56,55.0666667 L56,33.6 C56,33.0845667 55.5821,32.6666667 55.0666667,32.6666667 Z M54.04,34.5333333 C53.5935167,36.7046167 51.68345,38.2638667 49.4666667,38.2666667 L25.2,38.2666667 C22.9832167,38.2638667 21.07315,36.7046167 20.6266667,34.5333333 L54.04,34.5333333 Z M8.4,53.2 C8.4,53.7154333 7.9821,54.1333333 7.46666667,54.1333333 C6.95123333,54.1333333 6.53333333,53.7154333 6.53333333,53.2 L6.53333333,50.4 L8.4,50.4 L8.4,53.2 Z M8.4,48.5333333 L6.53333333,48.5333333 L6.53333333,46.6666667 L8.4,46.6666667 L8.4,48.5333333 Z M8.4,44.8 L6.53333333,44.8 L6.53333333,29.8666667 L8.4,29.8666667 L8.4,44.8 Z M6.64346667,28 L7.46666667,26.3536 L8.28986667,28 L6.64346667,28 Z M18.6666667,33.6 L18.6666667,50.4 L10.2666667,50.4 L10.2666667,28 C10.2667833,27.8552167 10.2333,27.7124167 10.1686667,27.5828 L8.302,23.8494667 C8.0269,23.3881667 7.42991667,23.2370833 6.96861667,23.5121833 C6.8299,23.5949 6.71405,23.71075 6.63133333,23.8494667 L4.76466667,27.5828 C4.70003333,27.7124167 4.66655,27.8552167 4.66666667,28 L4.66666667,50.4 L1.86666667,50.4 L1.86666667,1.86666667 L33.6,1.86666667 L33.6,32.6666667 L19.6,32.6666667 C19.0845667,32.6666667 18.6666667,33.0845667 18.6666667,33.6 Z M54.1333333,54.1333333 L20.5333333,54.1333333 L20.5333333,38.164 C21.7593833,39.4233 23.4424167,40.1335667 25.2,40.1333333 L49.4666667,40.1333333 C51.22425,40.1335667 52.9072833,39.4233 54.1333333,38.164 L54.1333333,54.1333333 Z" id="Shape"></path>
                            <path d="M55.0666667,17.7333333 L38.2666667,17.7333333 C37.7512333,17.7333333 37.3333333,18.1512333 37.3333333,18.6666667 L37.3333333,29.8666667 C37.3333333,30.3821 37.7512333,30.8 38.2666667,30.8 L55.0666667,30.8 C55.5821,30.8 56,30.3821 56,29.8666667 L56,18.6666667 C56,18.1512333 55.5821,17.7333333 55.0666667,17.7333333 Z M54.1333333,28.9333333 L39.2,28.9333333 L39.2,19.6 L54.1333333,19.6 L54.1333333,28.9333333 Z" id="Shape"></path>
                            <rect id="Rectangle-path" x="45.7333333" y="25.2" width="4.66666667" height="1.86666667"></rect>
                            <rect id="Rectangle-path" x="15.8666667" y="5.6" width="15.8666667" height="1.86666667"></rect>
                            <rect id="Rectangle-path" x="15.8666667" y="9.33333333" width="12.1333333" height="1.86666667"></rect>
                            <rect id="Rectangle-path" x="22.4" y="46.6666667" width="1.86666667" height="1.86666667"></rect>
                            <rect id="Rectangle-path" x="27.0666667" y="46.6666667" width="12.1333333" height="1.86666667"></rect>
                            <rect id="Rectangle-path" x="27.0666667" y="50.4" width="8.4" height="1.86666667"></rect>
                            <rect id="Rectangle-path" x="45.7333333" y="21.4666667" width="6.53333333" height="1.86666667"></rect>
                        </g>
                    </g>
                </g>
            </g>
        </g>
    </g>
</svg>