<?xml version="1.0" encoding="utf-8"?>
<!-- Generator: Adobe Illustrator 26.0.1, SVG Export Plug-In . SVG Version: 6.00 Build 0)  -->
<svg version="1.1" id="Sala-de-imprensa_00000100369688932036564600000015845741862814481331_"
	 xmlns="http://www.w3.org/2000/svg" xmlns:xlink="http://www.w3.org/1999/xlink" x="0px" y="0px" viewBox="0 0 80 56"
	 style="enable-background:new 0 0 80 56;" xml:space="preserve">
<style type="text/css">
	.st0{stroke:#000000;}
	.st1{fill:#FFB919;}
</style>
<desc>Created with sketchtool.</desc>
<rect id="Rectangle" x="0.5" y="0.5" class="st0" width="79" height="55"/>
<path class="st1" d="M55.8,23.2l0.4-1.4h-6.1c-0.5,0-0.8,0.3-1,0.7l-0.4,1.4H51l-1.9,6.6h1.8c0.4,0,0.9-0.3,1-0.7l1.7-5.9h1.2
	C55.3,23.9,55.7,23.6,55.8,23.2 M5.8,33.6c0,0.4,0.3,0.7,0.9,0.7c12.8-1.1,30-1.6,43.8-1.6c0.3,0,0.6-0.1,0.7-0.2
	c0.1-0.1,0.3-0.4,0.3-0.6H5.7C5.7,31.9,5.8,33.1,5.8,33.6 M70.2,24.5c-0.7,0-1,0.6-1.3,1.7c-0.1,0.3-0.2,0.7-0.2,0.9
	c-0.1,0.4,0,0.7,0.6,0.7c0.7,0,1-0.6,1.3-1.7c0.1-0.3,0.2-0.7,0.2-0.9C70.8,24.8,70.8,24.5,70.2,24.5 M72.1,25
	c0,0.3-0.1,0.7-0.2,1.1c-0.6,2-1.3,2.8-3,2.8c-1.3,0-1.8-0.5-1.7-1.7c0-0.3,0.1-0.7,0.2-1.1c0.6-2,1.3-2.8,3-2.8
	C71.8,23.4,72.3,23.8,72.1,25 M66.5,28.9H65l-0.5-2c-0.1,0-0.3,0-0.4,0l-0.6,2h-1.3l1.5-5.4c0.5-0.1,1.2-0.2,1.9-0.2
	c1.1,0,1.9,0.2,1.8,1.3c0,0.1,0,0.3-0.1,0.5c-0.3,0.9-0.7,1.4-1.3,1.6L66.5,28.9z M60,27c-0.1,0-0.4,0-0.5,0l-0.6,1.9h-1.4l1.5-5.4
	c0.5-0.1,1.1-0.2,1.8-0.2c1.1,0,1.9,0.2,1.8,1.3c0,0.1-0.1,0.3-0.1,0.5C62.2,26.7,61.3,27,60,27 M58.3,21.8c-0.5,0-0.9,0.3-1,0.7
	l-2.3,8h16.7c0.5,0,0.9-0.3,1-0.7l2.3-8H58.3z M60.7,24.4c-0.1,0-0.3,0-0.5,0l-0.4,1.4c0.1,0,0.3,0,0.5,0c0.6,0,0.9-0.2,1.1-0.7
	c0-0.1,0-0.1,0-0.2C61.4,24.6,61.3,24.4,60.7,24.4 M9.1,29.9l4.6-8h-1.9c-0.5,0-0.9,0.3-1.1,0.7l-2.9,5.6l-0.3-6.3H5.7
	c-0.4,0-0.8,0.3-0.7,0.7l0.6,7.9H8C8.5,30.5,8.9,30.3,9.1,29.9 M65.3,24.4c-0.1,0-0.4,0-0.5,0l-0.4,1.3c0.1,0,0.3,0,0.5,0
	c0.6,0,0.9-0.2,1-0.7c0-0.1,0-0.1,0-0.2C66,24.7,65.9,24.4,65.3,24.4 M39.4,30.6c2.4,0,3.6-1.4,4.2-3.2l-2.2,0
	c-0.4,0.8-0.9,1.3-1.5,1.3c-0.8,0-1-0.5-1-1.3c0-1.1,0.8-3.8,2.2-3.8c0.7,0,0.9,0.5,0.9,1.1c0,0.1,0,0.3,0,0.4h2.3
	c0.1-0.2,0.1-0.6,0.1-0.8c0-1.5-0.8-2.7-3-2.7c-2.9,0-5.1,2.7-5.1,6C36.3,29.7,37.7,30.6,39.4,30.6 M32.9,24.3l0,3.3
	c-0.3,0-0.6-0.1-0.8-0.1c-0.3,0-0.6,0-0.9,0.1L32.9,24.3z M29.7,30.5c0.8-1.5,2.1-2.1,3.3-2.2l0,2.2h2.6v-8.7h-2.5
	c-0.5,0-1,0.2-1.3,0.7l-4.9,8H29.7z M45.4,30.5c0.4,0,0.9-0.3,1-0.7l2.3-8h-1.8c-0.4,0-0.9,0.3-1,0.7l-2.3,8H45.4z M17.4,30.5
	c0.5,0,0.9-0.3,1-0.7l0.4-1.3h-3.7l0.4-1.4h2.9l0.6-2h-3l0.4-1.4h2.7c0.5,0,0.9-0.3,1-0.7l0.4-1.3h-5.3c-0.5,0-0.9,0.3-1,0.7l-2.3,8
	H17.4z M23.8,23.8h0.5c1.1,0,1.5,0.5,1.5,1.1c0,1.3-0.6,3.6-2.6,3.6h-0.8L23.8,23.8z M22.8,30.5c3.5,0,5.5-2.5,5.5-5.8
	c0-1.7-0.9-2.9-3.1-2.9h-2.5c-0.5,0-0.9,0.3-1,0.7l-2.3,8H22.8z"/>
</svg>
