<?xml version="1.0" encoding="UTF-8"?>
<svg width="56px" height="57px" viewBox="0 0 56 57" version="1.1" xmlns="http://www.w3.org/2000/svg" xmlns:xlink="http://www.w3.org/1999/xlink">
    <!-- Generator: sketchtool 60.1 (101010) - https://sketch.com -->
    <title>0AB452CD-6103-4908-A2A6-DE6F26DD79E7</title>
    <desc>Created with sketchtool.</desc>
    <g id="Pac-primário" stroke="none" stroke-width="1" fill="none" fill-rule="evenodd">
        <g id="Produtos-e-soluções" transform="translate(-1208.000000, -1349.000000)" fill="#000000" fill-rule="nonzero">
            <g id="Principais-categorias" transform="translate(40.000000, 780.000000)">
                <g id="Card-Copy-18" transform="translate(1144.000000, 537.000000)">
                    <g id="Group-4">
                        <g id="buildings" transform="translate(24.000000, 32.000000)">
                            <path d="M55.4889744,17.444285 L28.4891049,0.263048017 C28.1826722,0.0680453779 27.791297,0.0680453779 27.4848643,0.263048017 L0.489561587,17.444285 C0.0561930152,17.7196633 -0.0735255449,18.2927975 0.197742664,18.7284707 L1.94500264,21.5343162 C2.07652665,21.7457594 2.28705637,21.8955506 2.52955379,21.9512657 C2.77250786,22.0069807 3.02687891,21.9635961 3.23740863,21.830702 L4.60516701,20.9666623 L4.60516701,55.6451592 C4.60516701,56.1616649 5.02394308,56.5804411 5.54044885,56.5804411 L50.433977,56.5804411 C50.9504828,56.5804411 51.3692589,56.1616649 51.3692589,55.6451592 L51.3692589,20.9666623 L52.7411273,21.830702 C52.9516571,21.9635961 53.2064849,22.0069807 53.4489823,21.9512657 C53.6914796,21.8955506 53.9020095,21.7457594 54.0335335,21.5343162 L55.7807933,18.7284707 C56.0525183,18.2927975 55.9226561,17.7196633 55.4889744,17.444285 Z M20.5049582,54.7098774 L11.1521399,54.7098774 L11.1521399,30.3925496 L20.5049582,30.3925496 L20.5049582,54.7098774 Z M49.4986952,54.7098774 L22.3755219,54.7098774 L22.3755219,29.4572678 C22.3755219,28.940762 21.9567459,28.5219859 21.4402401,28.5219859 L10.216858,28.5219859 C9.70035227,28.5219859 9.2815762,28.940762 9.2815762,29.4572678 L9.2815762,54.7098774 L6.47573069,54.7098774 L6.47573069,19.7888831 L7.46033403,19.1691676 L48.5136352,19.1691676 L49.4986952,19.7888831 L49.4986952,54.7098774 Z M10.4319546,17.2986039 L27.9872129,6.24510702 L45.5424713,17.2986039 L10.4319546,17.2986039 Z M52.9420668,19.7468685 L28.4854515,4.34851247 C28.1808455,4.15670674 27.7931237,4.15670674 27.4885177,4.34851247 L3.03190243,19.7468685 L2.26696242,18.5257047 L27.9872129,2.16009911 L53.7074635,18.5275313 L52.9420668,19.7468685 Z" id="Shape"></path>
                            <path d="M45.7575678,41.6159317 L45.7575678,29.4572678 C45.7575678,28.940762 45.3387918,28.5219859 44.822286,28.5219859 L26.1166493,28.5219859 C25.6001435,28.5219859 25.1813674,28.940762 25.1813674,29.4572678 L25.1813674,41.6159317 C24.6648617,41.6159317 24.2460856,42.0347077 24.2460856,42.5512135 L24.2460856,45.357059 C24.2460856,45.8735647 24.6648617,46.2923408 25.1813674,46.2923408 L45.7575678,46.2923408 C46.2740736,46.2923408 46.6928497,45.8735647 46.6928497,45.357059 L46.6928497,42.5512135 C46.6928497,42.0347077 46.2740736,41.6159317 45.7575678,41.6159317 Z M27.0519311,36.9395225 L29.1522051,36.9395225 L30.4879958,41.6159317 L27.0519311,41.6159317 L27.0519311,36.9395225 Z M32.4334551,41.6159317 L30.8305063,36.0042406 L32.4334551,30.3925496 L34.5341858,30.3925496 L34.5341858,41.6159317 L32.4334551,41.6159317 Z M36.4047495,30.3925496 L38.5050235,30.3925496 L40.108429,36.0042406 L38.5050235,41.6159317 L36.4047495,41.6159317 L36.4047495,30.3925496 Z M41.7862735,36.9395225 L43.8870042,36.9395225 L43.8870042,41.6159317 L40.4504828,41.6159317 L41.7862735,36.9395225 Z M43.8870042,35.0689588 L41.7862735,35.0689588 L40.4504828,30.3925496 L43.8870042,30.3925496 L43.8870042,35.0689588 Z M30.4879958,30.3925496 L29.1522051,35.0689588 L27.0519311,35.0689588 L27.0519311,30.3925496 L30.4879958,30.3925496 Z M44.822286,44.4217772 L26.1166493,44.4217772 L26.1166493,43.4864953 L44.822286,43.4864953 L44.822286,44.4217772 Z" id="Shape"></path>
                            <polygon id="Path" points="17.6991127 41.6159317 19.5696764 41.6159317 19.5696764 43.4864953 17.6991127 43.4864953"></polygon>
                        </g>
                    </g>
                </g>
            </g>
        </g>
    </g>
</svg>