<?xml version="1.0" encoding="UTF-8"?>
<svg width="56px" height="56px" viewBox="0 0 56 56" version="1.1" xmlns="http://www.w3.org/2000/svg" xmlns:xlink="http://www.w3.org/1999/xlink">
    <!-- Generator: sketchtool 60.1 (101010) - https://sketch.com -->
    <title>FEA5144A-D192-417B-8E3D-A7D259A23704</title>
    <desc>Created with sketchtool.</desc>
    <g id="Pac-primário" stroke="none" stroke-width="1" fill="none" fill-rule="evenodd">
        <g id="Produtos-e-soluções" transform="translate(-1208.000000, -1061.000000)" fill="#000000" fill-rule="nonzero">
            <g id="Principais-categorias" transform="translate(40.000000, 780.000000)">
                <g id="Card-Copy-8" transform="translate(1144.000000, 249.000000)">
                    <g id="Group-4">
                        <g id="cracks" transform="translate(24.000000, 32.000000)">
                            <path d="M55.1683125,0 L0.8316875,0 C0.372421875,0 0,0.372421875 0,0.8316875 L0,55.1683125 C0,55.6275781 0.372421875,56 0.8316875,56 L55.1683125,56 C55.6275781,56 56,55.6275781 56,55.1683125 L56,0.8316875 C56,0.372421875 55.6275781,0 55.1683125,0 Z M41.1960937,1.663375 C40.1865625,1.9000625 39.1759375,2.1608125 38.1652031,2.44748438 C33.6243906,3.73515625 29.0697969,5.52704688 24.6256719,7.77273438 C24.121125,7.4545625 23.1678125,6.80957813 22.1785156,5.90898438 C21.0792969,4.9083125 19.7543281,3.41610938 19.1921406,1.663375 L41.1960937,1.663375 Z M17.4631406,1.663375 C18.2716406,4.9520625 21.2258594,7.44264063 22.9395469,8.64871875 C17.9515,11.314625 14.4729375,13.8305781 12.963125,14.9907188 C10.1209062,9.22753125 5.34821875,4.08220313 2.90992188,1.663375 L17.4631406,1.663375 Z M1.663375,2.779 C4.0534375,5.15451563 8.95201563,10.4181875 11.6569688,16.1084219 C7.72209375,19.8481719 3.4934375,21.1795937 1.663375,21.6065937 L1.663375,2.779 Z M1.663375,23.3145938 C3.35660938,22.9711562 7.69223438,21.7809375 11.9579687,18.0815469 C12.0064219,19.0228281 12.0454687,20.3300781 12.0223906,21.9372344 C12.0157187,22.3965 12.3827812,22.7741719 12.8420469,22.780625 C12.8462031,22.780625 12.8501406,22.7807344 12.8542969,22.7807344 C13.3080937,22.7807344 13.6790937,22.4160781 13.6856562,21.9609687 C13.7237187,19.3108125 13.6005625,17.4704687 13.5302344,16.6595625 C14.245,16.0949687 16.0712344,14.7049219 18.7842812,12.991125 C18.7263125,13.9102031 18.708375,15.1299531 18.8398438,16.503375 C19.1927969,20.1893125 20.4801406,23.3357031 22.57325,25.6469063 C21.3889375,27.8855938 20.3281094,30.534875 19.7004063,33.5471719 C16.6091406,32.2219844 14.1536719,31.4511094 12.9959375,31.1169688 C13.2884063,28.9293594 13.467125,26.9245156 13.5696094,25.1517656 C13.5960781,24.6932656 13.2459688,24.3000625 12.78725,24.2734844 C12.3284219,24.24625 11.9355469,24.597125 11.9089688,25.0558438 C11.7147188,28.4172656 11.2432031,32.6244844 10.2177031,37.3510156 C6.95821875,37.6484063 3.52625,39.9854219 1.66359375,41.4506094 L1.66359375,23.3145938 L1.663375,23.3145938 Z M28.564375,38.2338906 C31.7419375,34.7750156 37.1171719,34.5810938 39.2703281,34.6565625 C38.8349063,38.1660781 38.1601719,41.8653594 37.1235156,45.3093594 C34.49075,42.4590469 31.48075,40.1157969 28.564375,38.2338906 Z M31.9395781,42.728875 C24.2594844,47.1160156 12.7206406,47.4826406 9.07889062,47.4819853 C10.9461406,42.1603437 12.0801406,37.1530469 12.7554219,32.7829688 C15.5471094,33.6160781 24.4246406,36.5972031 31.9395781,42.728875 Z M34.7445,33.3183594 C33.928125,31.4968281 31.3021406,26.2571094 26.5984688,22.3827188 C26.7939219,22.1203281 26.9866406,21.8696406 27.1743281,21.6328438 C29.3818438,18.8493594 31.4118438,17.2457031 31.7351563,16.9975313 C32.199125,16.755375 35.5151563,15.0588594 39.8435625,13.6746094 C39.9860781,16.0401719 40.256125,22.1554375 39.7911719,29.138375 C39.7093594,30.3679688 39.6014063,31.6634063 39.4606406,32.9978906 C38.4202656,32.9518438 36.6780313,32.9593906 34.7445,33.3183594 Z M33.0892188,33.7091562 C30.5920781,34.4262187 28.595875,35.6434531 27.1339688,37.3420469 C25.1367813,36.1384844 23.2221719,35.1536719 21.5493906,34.3742656 C21.4512813,34.3285469 21.3544844,34.28425 21.2571406,34.2395156 C22.0959375,29.9252187 23.8895781,26.3732656 25.6373906,23.7470625 C29.7396094,27.1718125 32.1971563,31.8098594 33.0892188,33.7091562 Z M1.663375,54.336625 L1.663375,43.6109844 C2.13992188,43.1951406 3.22120313,42.291375 4.59626563,41.3904531 C6.52476563,40.1270625 8.30670313,39.3427344 9.821875,39.0812188 C8.68710938,43.8099375 6.9908125,48.9957344 4.47901563,54.336625 L1.663375,54.336625 L1.663375,54.336625 Z M6.31476563,54.3365156 C7.11790625,52.5842188 7.83485938,50.8499688 8.47590625,49.1433906 C8.67584375,49.1463437 8.9215,49.1486406 9.20992188,49.1486406 C10.8209063,49.1486406 13.7424219,49.0785312 17.2069844,48.6748281 C23.9151719,47.8930156 29.3172031,46.277 33.27975,43.8702031 C34.4159375,44.8808281 35.5082656,45.9687813 36.5292813,47.1377813 C35.5830781,49.8354063 34.38575,52.3135156 32.8724375,54.3365156 L6.31476563,54.3365156 Z M34.9040781,54.336625 C36.763125,51.5253594 38.2638594,47.8667656 39.3736875,43.4311719 C39.6693281,42.2495937 39.9368594,41.0100469 40.1778125,39.7189844 C40.9478125,39.3883437 42.8646094,38.6508281 45.3202969,38.3196406 C45.3676562,41.0828906 45.7542969,49.2035469 48.5781406,54.336625 L34.9040781,54.336625 L34.9040781,54.336625 Z M54.336625,37.8136719 C53.7009375,37.5382656 53.0458906,37.303875 52.3775,37.1147656 C51.9355156,36.9899688 51.4758125,37.2466719 51.3507969,37.6886563 C51.2257813,38.1306406 51.4825938,38.5903438 51.9246875,38.7153594 C52.7570313,38.9507344 53.5659688,39.2643125 54.336625,39.6475625 L54.336625,54.3367344 L50.5186719,54.3367344 C47.4252188,49.6749531 47.0314688,40.8218125 46.9843281,38.170125 C47.7943594,38.1344688 48.6419063,38.1525156 49.5102344,38.2478906 C49.9666563,38.2985313 50.3775781,37.9685469 50.4277813,37.5120156 C50.4779844,37.0554844 50.1484375,36.6446719 49.6919063,36.5944688 C45.8016563,36.16725 42.3645469,37.1168438 40.5108594,37.7945313 C40.935125,35.1327813 41.2504531,32.2689063 41.4524688,29.2262031 C41.4699688,28.9630469 41.4862656,28.7012031 41.5016875,28.4406719 C42.0748125,27.9289063 44.0923438,26.0666875 46.2556719,23.3558281 C46.3980781,23.1774375 46.5370938,22.999375 46.6744688,22.8215312 C47.6278906,24.4932188 49.8230469,27.3434219 54.336625,29.1705312 L54.336625,37.8136719 L54.336625,37.8136719 Z M41.4792656,13.1825312 C44.300375,12.3881406 47.4231406,11.7983906 50.4101719,11.8327344 C49.5427187,15.906625 47.0179062,19.7297187 44.9755469,22.2930312 C43.722875,23.8650781 42.5045469,25.1548281 41.6191562,26.0349687 C41.8551875,19.9528437 41.5942188,14.9517812 41.4792656,13.1825312 Z M54.336625,27.36125 C49.9876562,25.3922812 48.2644531,22.3721094 47.7774062,21.326375 C50.0577656,18.0761875 51.50425,14.9236719 52.0910469,11.9214375 C52.8574375,11.9965781 53.6085156,12.1211562 54.336625,12.3010781 L54.336625,27.36125 L54.336625,27.36125 Z M54.336625,10.5930781 C50.2597813,9.6919375 45.1901406,10.2008594 39.2452813,12.112625 C36.7389531,12.9187187 34.5876563,13.8151562 33.0958906,14.4921875 L34.5541875,11.5152187 C34.7562031,11.1026562 34.5856875,10.6045625 34.173125,10.4024375 C33.7607813,10.2004219 33.2624688,10.3709375 33.0603438,10.7835 L30.6264219,15.7518594 C30.0495781,16.2027031 28.0775469,17.8264844 25.9072188,20.55375 C25.1280313,21.5327656 24.2739219,22.7230937 23.4420156,24.107125 C19.8293594,19.6969062 20.3591719,13.4595781 20.5603125,11.9019687 C21.9647969,11.0662344 23.5448281,10.1844531 25.281375,9.30409375 C28.793625,7.52346875 32.3753281,6.03421875 35.9621719,4.85985937 L34.3693438,8.11146875 C34.1673281,8.52403125 34.3378438,9.022125 34.7504063,9.22425 C34.8682031,9.28189062 34.9927813,9.30923437 35.1157188,9.30923437 C35.4230625,9.30923437 35.7187031,9.1380625 35.8631875,8.84329687 L38.1450781,4.18523437 C38.303125,4.1391875 38.4611719,4.09226562 38.619,4.04753125 C43.9120938,2.54646875 49.195125,1.74890625 54.336625,1.67092187 L54.336625,10.5930781 L54.336625,10.5930781 Z" id="Shape"></path>
                        </g>
                    </g>
                </g>
            </g>
        </g>
    </g>
</svg>