<?xml version="1.0" encoding="UTF-8"?>
<svg width="56px" height="45px" viewBox="0 0 56 45" version="1.1" xmlns="http://www.w3.org/2000/svg" xmlns:xlink="http://www.w3.org/1999/xlink">
    <!-- Generator: sketchtool 60.1 (101010) - https://sketch.com -->
    <title>9F8947CA-65FE-4784-82C2-7475588DC07C</title>
    <desc>Created with sketchtool.</desc>
    <g id="Pac-primário" stroke="none" stroke-width="1" fill="none" fill-rule="evenodd">
        <g id="Produtos-e-soluções" transform="translate(-360.000000, -1211.000000)" fill="#000000" fill-rule="nonzero">
            <g id="Principais-categorias" transform="translate(40.000000, 780.000000)">
                <g id="Card-Copy-16" transform="translate(296.000000, 393.000000)">
                    <g id="Group-4">
                        <g id="glass" transform="translate(24.000000, 38.000000)">
                            <path d="M55.0666667,28.9333333 C53.52025,28.9333333 52.2666667,27.67975 52.2666667,26.1333333 C52.2666667,25.6179 51.8487667,25.2 51.3333333,25.2 C50.8179,25.2 50.4,25.6179 50.4,26.1333333 C50.3951,27.3156333 49.6480833,28.3675 48.5333333,28.7616 L48.5333333,0.933333333 C48.5333333,0.4179 48.1154333,0 47.6,0 L8.4,0 C7.88456667,0 7.46666667,0.4179 7.46666667,0.933333333 L7.46666667,14.7616 C6.35191667,14.3675 5.6049,13.3156333 5.6,12.1333333 C5.6,11.6179 5.1821,11.2 4.66666667,11.2 C4.15123333,11.2 3.73333333,11.6179 3.73333333,12.1333333 C3.73333333,13.67975 2.47975,14.9333333 0.933333333,14.9333333 C0.4179,14.9333333 0,15.3512333 0,15.8666667 C0,16.3821 0.4179,16.8 0.933333333,16.8 C2.47975,16.8 3.73333333,18.0535833 3.73333333,19.6 C3.73333333,20.1154333 4.15123333,20.5333333 4.66666667,20.5333333 C5.1821,20.5333333 5.6,20.1154333 5.6,19.6 C5.6049,18.4177 6.35191667,17.3658333 7.46666667,16.9717333 L7.46666667,43.8666667 C7.46666667,44.3821 7.88456667,44.8 8.4,44.8 L47.6,44.8 C48.1154333,44.8 48.5333333,44.3821 48.5333333,43.8666667 L48.5333333,30.9717333 C49.6480833,31.3658333 50.3951,32.4177 50.4,33.6 C50.4,34.1154333 50.8179,34.5333333 51.3333333,34.5333333 C51.8487667,34.5333333 52.2666667,34.1154333 52.2666667,33.6 C52.2666667,32.0535833 53.52025,30.8 55.0666667,30.8 C55.5821,30.8 56,30.3821 56,29.8666667 C56,29.3512333 55.5821,28.9333333 55.0666667,28.9333333 Z M4.66666667,16.8 C4.40113333,16.4463833 4.08695,16.1322 3.73333333,15.8666667 C4.08695,15.6011333 4.40113333,15.28695 4.66666667,14.9333333 C4.9322,15.28695 5.24638333,15.6011333 5.6,15.8666667 C5.24638333,16.1322 4.9322,16.4463833 4.66666667,16.8 Z M46.6666667,37.3333333 L46.6666667,42.9333333 L27.4530667,42.9333333 L34.2598667,36.1265333 C34.6180333,35.7557667 34.6077667,35.1649667 34.237,34.8068 C33.8753333,34.4573833 33.3018,34.4573833 32.9401333,34.8068 L24.8136,42.9333333 L21.8530667,42.9333333 L34.2598667,30.5265333 C34.6180333,30.1557667 34.6077667,29.5649667 34.237,29.2068 C33.8753333,28.8573833 33.3018,28.8573833 32.9401333,29.2068 L19.2136,42.9333333 L9.33333333,42.9333333 L9.33333333,1.86666667 L36.9469333,1.86666667 L30.1401333,8.67346667 C29.7693667,9.03163333 29.7591,9.62243333 30.1172667,9.9932 C30.4754333,10.3639667 31.0662333,10.3742333 31.437,10.0160667 C31.4448167,10.0086 31.4524,10.0009 31.4598667,9.9932 L39.5864,1.86666667 L42.5469333,1.86666667 L30.1401333,14.2734667 C29.7693667,14.6316333 29.7591,15.2224333 30.1172667,15.5932 C30.4754333,15.9639667 31.0662333,15.9742333 31.437,15.6160667 C31.4448167,15.6086 31.4524,15.6009 31.4598667,15.5932 L45.1864,1.86666667 L46.6666667,1.86666667 L46.6666667,37.3333333 Z M51.3333333,30.8 C51.0678,30.4463833 50.7536167,30.1322 50.4,29.8666667 C50.7536167,29.6011333 51.0678,29.28695 51.3333333,28.9333333 C51.5988667,29.28695 51.91305,29.6011333 52.2666667,29.8666667 C51.91305,30.1322 51.5988667,30.4463833 51.3333333,30.8 Z" id="Shape"></path>
                            <path d="M45.7333333,36.4 C44.1869167,36.4 42.9333333,35.1464167 42.9333333,33.6 C42.9333333,33.0845667 42.5154333,32.6666667 42,32.6666667 C41.4845667,32.6666667 41.0666667,33.0845667 41.0666667,33.6 C41.0666667,35.1464167 39.8130833,36.4 38.2666667,36.4 C37.7512333,36.4 37.3333333,36.8179 37.3333333,37.3333333 C37.3333333,37.8487667 37.7512333,38.2666667 38.2666667,38.2666667 C39.8130833,38.2666667 41.0666667,39.52025 41.0666667,41.0666667 C41.0666667,41.5821 41.4845667,42 42,42 C42.5154333,42 42.9333333,41.5821 42.9333333,41.0666667 C42.9333333,39.52025 44.1869167,38.2666667 45.7333333,38.2666667 C46.2487667,38.2666667 46.6666667,37.8487667 46.6666667,37.3333333 C46.6666667,36.8179 46.2487667,36.4 45.7333333,36.4 Z M42,38.2666667 C41.7344667,37.91305 41.4202833,37.5988667 41.0666667,37.3333333 C41.4202833,37.0678 41.7344667,36.7536167 42,36.4 C42.2655333,36.7536167 42.5797167,37.0678 42.9333333,37.3333333 C42.5797167,37.5988667 42.2655333,37.91305 42,38.2666667 Z" id="Shape"></path>
                            <path d="M17.7333333,7.46666667 C16.1869167,7.46666667 14.9333333,6.21308333 14.9333333,4.66666667 C14.9333333,4.15123333 14.5154333,3.73333333 14,3.73333333 C13.4845667,3.73333333 13.0666667,4.15123333 13.0666667,4.66666667 C13.0666667,6.21308333 11.8130833,7.46666667 10.2666667,7.46666667 C9.75123333,7.46666667 9.33333333,7.88456667 9.33333333,8.4 C9.33333333,8.91543333 9.75123333,9.33333333 10.2666667,9.33333333 C11.8130833,9.33333333 13.0666667,10.5869167 13.0666667,12.1333333 C13.0666667,12.6487667 13.4845667,13.0666667 14,13.0666667 C14.5154333,13.0666667 14.9333333,12.6487667 14.9333333,12.1333333 C14.9333333,10.5869167 16.1869167,9.33333333 17.7333333,9.33333333 C18.2487667,9.33333333 18.6666667,8.91543333 18.6666667,8.4 C18.6666667,7.88456667 18.2487667,7.46666667 17.7333333,7.46666667 Z M14,9.33333333 C13.7344667,8.97971667 13.4202833,8.66553333 13.0666667,8.4 C13.4202833,8.13446667 13.7344667,7.82028333 14,7.46666667 C14.2655333,7.82028333 14.5797167,8.13446667 14.9333333,8.4 C14.5797167,8.66553333 14.2655333,8.97971667 14,9.33333333 Z" id="Shape"></path>
                        </g>
                    </g>
                </g>
            </g>
        </g>
    </g>
</svg>