<?xml version="1.0" encoding="UTF-8"?>
<svg width="56px" height="58px" viewBox="0 0 56 58" version="1.1" xmlns="http://www.w3.org/2000/svg" xmlns:xlink="http://www.w3.org/1999/xlink">
    <!-- Generator: sketchtool 60.1 (101010) - https://sketch.com -->
    <title>97FFB1EE-2C58-43D9-AFE9-3B4BBF28C5CC</title>
    <desc>Created with sketchtool.</desc>
    <g id="Pac-primário" stroke="none" stroke-width="1" fill="none" fill-rule="evenodd">
        <g id="Produtos-e-soluções" transform="translate(-1208.000000, -1492.000000)" fill="#000000" fill-rule="nonzero">
            <g id="Principais-categorias" transform="translate(40.000000, 780.000000)">
                <g id="Card-Copy-21" transform="translate(1144.000000, 681.000000)">
                    <g id="Group-4">
                        <g id="paint-(1)" transform="translate(24.000000, 31.000000)">
                            <path d="M51.2247581,31.1507903 L25.6276774,5.55370968 C25.2963065,5.22233871 24.7591129,5.22233871 24.4278548,5.55370968 L16.6247742,13.3567903 L8.78759677,5.61941935 C8.88559677,5.25203226 8.93866129,4.86635484 8.93866129,4.46837097 C8.93854839,2.00459677 6.93406452,0 4.47017742,0 C2.00629032,0 0.00180645161,2.00459677 0.00180645161,4.46837097 C0.00180645161,6.93225806 2.00640323,8.93674194 4.47017742,8.93674194 C4.89458065,8.93674194 5.30475806,8.876 5.69404839,8.76490323 L13.5050323,16.4764194 L3.31032258,26.6712419 C1.78262903,28.1988226 0.941274194,30.2301774 0.941274194,32.3905806 C0.941274194,34.5509839 1.78262903,36.5823387 3.31032258,38.1099194 L18.6685484,53.4681452 C20.196129,54.9958387 22.2274839,55.8371935 24.3878871,55.8371935 C26.5482903,55.8371935 28.5795323,54.9958387 30.1072258,53.4681452 L51.2247581,32.3506129 C51.3839516,32.1915323 51.4732581,31.9758871 51.4732581,31.7507581 C51.4732581,31.525629 51.3839516,31.309871 51.2247581,31.1507903 Z M4.47017742,7.23991935 C2.94203226,7.23991935 1.69862903,5.99651613 1.69862903,4.46837097 C1.69862903,2.94022581 2.94203226,1.69682258 4.47017742,1.69682258 C5.99832258,1.69682258 7.24172581,2.94022581 7.24172581,4.46837097 C7.24172581,5.99662903 5.99832258,7.23991935 4.47017742,7.23991935 Z M7.27616129,7.94240323 C7.54080645,7.72833871 7.78004839,7.48446774 7.98982258,7.21632258 L27.4527581,26.4313226 C27.6370161,26.6133226 27.6530484,26.9147742 27.4893387,27.1154032 C27.3022581,27.3444839 26.9484194,27.3640161 26.7375161,27.1559355 L7.27616129,7.94240323 Z M28.9074032,52.2683226 C27.7002419,53.4754839 26.0950968,54.1402581 24.3878871,54.1402581 C22.6806774,54.1402581 21.0756452,53.4754839 19.868371,52.2683226 L4.51014516,36.9100968 C3.30298387,35.7029355 2.63820968,34.0977903 2.63820968,32.3905806 C2.63820968,30.683371 3.30298387,29.0783387 4.51014516,27.8710645 L14.7126452,17.6685645 L25.545371,28.3634355 C26.4011774,29.2084032 27.8201452,29.1989194 28.665,28.3434516 C29.5195645,27.4779355 29.5106452,26.0785 28.6450161,25.2239355 L17.8325,14.5489355 L25.0280484,7.3535 L30.2274677,12.5529194 L26.3478871,16.4325 C24.6056774,18.1747097 24.6056774,21.0094839 26.3478871,22.7516935 C28.0902097,24.4940161 30.9250968,24.4939032 32.6670806,22.7516935 C33.735371,21.6834032 35.5182258,21.6834032 36.586629,22.7516935 C37.6672258,23.8322903 37.6672258,25.5906452 36.586629,26.6712419 L28.2675806,34.9902903 C26.525371,36.7325 26.525371,39.5672742 28.2675806,41.3094839 C29.138629,42.1806452 30.2829032,42.6162258 31.4272903,42.6162258 C32.5715645,42.6162258 33.7158387,42.1806452 34.587,41.3094839 L39.6461935,36.2501774 C39.9775645,35.9188065 39.9775645,35.3816129 39.6461935,35.0503548 C39.3148226,34.7189839 38.777629,34.7189839 38.446371,35.0503548 L33.3870645,40.1095484 C32.3063548,41.1902581 30.5481129,41.1900323 29.4675161,40.1095484 C28.3869194,39.0288387 28.3869194,37.2705968 29.4675161,36.19 L37.7865645,27.8709516 C39.5287742,26.1287419 39.5287742,23.2939677 37.7865645,21.5517581 C36.9426129,20.7076935 35.8204677,20.242871 34.6268548,20.242871 C33.4332419,20.242871 32.3112097,20.7076935 31.4671452,21.5517581 C30.3864355,22.6323548 28.6281935,22.6323548 27.5475968,21.5517581 C26.467,20.4710484 26.467,18.7128065 27.5475968,17.6322097 L31.4271774,13.752629 L45.5854677,27.9109194 L41.4249839,32.0714032 C41.1160806,32.3801935 41.0955323,32.8905161 41.3798226,33.2225645 C41.6970806,33.593 42.2796613,33.616371 42.6248065,33.2712258 L46.7852903,29.1107419 L49.4249677,31.7504194 L28.9074032,52.2683226 Z" id="Shape"></path>
                            <path d="M51.2869677,43.7575645 C50.9525484,43.3405 50.2972581,43.3405 49.9628387,43.7575645 C49.480629,44.3591129 45.2515,49.7144516 45.2515,52.4330484 C45.2515,55.3958548 47.6620968,57.8064516 50.6249032,57.8064516 C53.5877097,57.8064516 55.9983065,55.3958548 55.9983065,52.4330484 C55.9981935,49.7144516 51.7690645,44.3591129 51.2869677,43.7575645 Z M50.6247903,56.109629 C48.5976129,56.109629 46.9482097,54.4602258 46.9482097,52.4330484 C46.9482097,51.0298871 48.9907419,47.8482742 50.6249032,45.6731935 C52.2589516,47.847371 54.301371,51.0284194 54.301371,52.4330484 C54.301371,54.4602258 52.6520806,56.109629 50.6247903,56.109629 Z" id="Shape"></path>
                        </g>
                    </g>
                </g>
            </g>
        </g>
    </g>
</svg>