<?xml version="1.0" encoding="UTF-8"?>
<svg width="56px" height="55px" viewBox="0 0 56 55" version="1.1" xmlns="http://www.w3.org/2000/svg" xmlns:xlink="http://www.w3.org/1999/xlink">
    <!-- Generator: sketchtool 60.1 (101010) - https://sketch.com -->
    <title>A82A0017-9FAD-4D9A-BB12-43F2C87B754C</title>
    <desc>Created with sketchtool.</desc>
    <g id="Pac-primário" stroke="none" stroke-width="1" fill="none" fill-rule="evenodd">
        <g id="Produtos-e-soluções" transform="translate(-360.000000, -1350.000000)" fill="#000000" fill-rule="nonzero">
            <g id="Principais-categorias" transform="translate(40.000000, 780.000000)">
                <g id="Card-Copy-9" transform="translate(296.000000, 537.000000)">
                    <g id="Group-4">
                        <g id="paint-brushes" transform="translate(24.000000, 33.000000)">
                            <path d="M55.6792031,8.09976563 C55.2526406,7.67320313 54.5592031,7.67320313 54.1326406,8.09976563 C53.7049844,8.52742187 53.7049844,9.21976563 54.1326406,9.64632813 C54.5592031,10.0739844 55.2526406,10.0739844 55.6792031,9.64632813 C56.1068594,9.21976563 56.1068594,8.52742187 55.6792031,8.09976563 Z" id="Path"></path>
                            <path d="M52.5859687,1.91242187 C52.1583125,1.48585937 51.4659687,1.48585937 51.0383125,1.91242187 C50.61175,2.34007812 50.61175,3.03242187 51.0383125,3.45898437 C51.4659688,3.88664062 52.1583125,3.88664062 52.5859687,3.45898437 C53.0126406,3.03242187 53.0126406,2.34007812 52.5859687,1.91242187 Z" id="Path"></path>
                            <path d="M44.8520625,0.365859375 C44.4244062,-0.060703125 43.7320625,-0.060703125 43.3044063,0.365859375 C42.8778438,0.793515625 42.8778438,1.48585937 43.3044063,1.91242187 C43.7320625,2.34007812 44.4244063,2.34007812 44.8520625,1.91242187 C45.2787344,1.48585937 45.2787344,0.793515625 44.8520625,0.365859375 Z" id="Path"></path>
                            <path d="M6.55998437,48.0817969 C6.13232812,47.6553438 5.43998437,47.6553438 5.01232812,48.0817969 C4.58576563,48.5094531 4.58576563,49.2017969 5.01232812,49.6294531 C5.43998437,50.0560156 6.13232812,50.0560156 6.55998437,49.6294531 C6.9864375,49.2017969 6.9864375,48.5094531 6.55998437,48.0817969 Z" id="Path"></path>
                            <path d="M15.4526094,39.025875 C15.02025,38.604125 14.3277969,38.6125469 13.9059375,39.0449062 L8.09703125,44.9981875 C7.67517188,45.4304375 7.68370313,46.1228906 8.11595313,46.5448594 C8.3286875,46.7523437 8.6043125,46.8558125 8.87971875,46.8558125 C9.16420313,46.8558125 9.44835938,46.7455625 9.662625,46.5258281 L15.4715313,40.5725469 C15.8933906,40.1402969 15.88475,39.4478437 15.4526094,39.025875 Z" id="Path"></path>
                            <path d="M51.0385312,25.1150156 L47.1806562,21.25725 C47.1748594,21.2513437 47.1690625,21.2455469 47.1631562,21.23975 L42.5392187,16.6158125 C42.5338594,16.6103437 42.5285,16.6049844 42.5230312,16.599625 L37.8994219,11.9760156 C37.8941719,11.9706562 37.8888125,11.9652969 37.8834531,11.9600469 L33.2585312,7.335125 C33.2533906,7.329875 33.2481406,7.324625 33.2427812,7.319375 L29.3834844,3.46007812 C29.1784062,3.255 28.9001562,3.13971875 28.6100937,3.13971875 C28.3200312,3.13971875 28.0417812,3.255 27.8367031,3.46007812 L15.4632187,15.8332344 L13.9150156,17.3804531 C11.7835156,19.5132656 11.783625,22.98275 13.9152344,25.1143594 L17.0095625,28.2085781 C17.2160625,28.4151875 17.3298125,28.6896094 17.3298125,28.9816406 C17.3298125,29.2736719 17.2160625,29.5483125 17.0095625,29.7548125 L15.4836719,31.2805937 L2.23398438,43.1469062 C2.2334375,43.1473437 2.233,43.1478906 2.23245313,43.1483281 C2.12023438,43.2475312 2.01742188,43.3436719 1.91898438,43.442 C-0.639734375,46.0007187 -0.639734375,50.1640781 1.91898438,52.7227969 C3.1565625,53.9602656 4.80451563,54.6418906 6.55932813,54.6418906 C8.31403125,54.6418906 9.96209375,53.960375 11.1994531,52.7230156 C11.2995313,52.6230469 11.3980781,52.5177187 11.5007812,52.401125 C11.501,52.4009062 11.5012188,52.4005781 11.5014375,52.40025 C11.5019844,52.3997031 11.5025313,52.3991562 11.5029688,52.3986094 L23.2226094,39.0100156 L24.7435781,37.4889375 C25.1699219,37.0625937 25.8635781,37.0627031 26.2900312,37.4890469 L29.3839219,40.5817344 C30.41675,41.6153281 31.7900625,42.1845156 33.2506562,42.1845156 C34.71125,42.1845156 36.0845625,41.6153281 37.1169531,40.5822812 L38.6649375,39.0355 L51.0384219,26.6619063 C51.4655312,26.2347969 51.4655312,25.5422344 51.0385312,25.1150156 Z M9.85720312,50.9577031 L9.85720312,50.9577031 C9.78621875,51.0380937 9.7195,51.1095156 9.653,51.1759062 C8.82853125,52.000375 7.72996875,52.4542812 6.5594375,52.4542812 C5.38890625,52.4542812 4.29034375,52.000375 3.46598438,51.1759062 C1.76017188,49.4700937 1.76017188,46.6945937 3.46576563,44.9891094 C3.5336875,44.9212969 3.60598438,44.8537031 3.6868125,44.7823906 C3.68790625,44.7814062 3.68889063,44.7803125 3.68998438,44.7793281 C3.6911875,44.7782344 3.69239063,44.7774687 3.69359375,44.776375 L16.1951562,33.5802031 L20.9268281,38.311875 L9.85720312,50.9577031 Z M35.5702812,39.0356094 C34.9506719,39.6556562 34.1268594,39.997125 33.2507656,39.997125 C32.3746719,39.997125 31.5509687,39.6556562 30.9309219,39.0351719 L27.8368125,35.9421562 C26.5576719,34.6630156 24.4761563,34.663125 23.1969062,35.9421562 L22.4237344,36.7153281 L17.7832813,32.074875 L18.5563438,31.3018125 C19.1760625,30.6819844 19.5173125,29.8580625 19.5173125,28.98175 C19.5173125,28.1054375 19.1759531,27.2815156 18.5563438,26.6617969 L15.462125,23.5675781 C14.1830938,22.2886562 14.1832031,20.2067031 15.4617969,18.9273438 L16.2360625,18.153625 L36.3444375,38.262 L35.5702812,39.0356094 Z M37.8916563,36.7154375 L17.7831719,16.6069531 L28.609875,5.78025 L30.9304844,8.10085938 L25.51675,13.5137188 C25.0895313,13.9407188 25.0895313,14.6332812 25.5166406,15.0605 C25.73025,15.2741094 26.0101406,15.3809688 26.2901406,15.3809688 C26.5700313,15.3809688 26.8499219,15.2741094 27.0634219,15.0606094 L32.477375,9.64764063 L35.571375,12.7416406 L30.1575313,18.1545 C29.7303125,18.5815 29.7303125,19.2740625 30.1574219,19.7012813 C30.3710313,19.9148906 30.6509219,20.02175 30.9309219,20.02175 C31.2108125,20.02175 31.4907031,19.9148906 31.7042031,19.7013906 L37.1181563,14.2884219 L40.2110625,17.3813281 L34.7973281,22.7941875 C34.3701094,23.2211875 34.3701094,23.91375 34.7972188,24.3409687 C35.0108281,24.5545781 35.2907188,24.6614375 35.5707188,24.6614375 C35.8506094,24.6614375 36.1305,24.5545781 36.344,24.3410781 L41.7578438,18.9281094 L44.8518438,22.0221094 L39.4381094,27.4349687 C39.0108906,27.8619687 39.0108906,28.5545312 39.438,28.98175 C39.6516094,29.1953594 39.9315,29.3022187 40.2115,29.3022187 C40.4913906,29.3022187 40.7712813,29.1953594 40.9847813,28.9818594 L46.3987344,23.5688906 L48.7184688,25.888625 L37.8916563,36.7154375 Z" id="Shape"></path>
                            <path d="M41.7580625,3.45996875 C41.3309531,3.03296875 40.6383906,3.03296875 40.2111719,3.45996875 L37.1180469,6.55309375 C36.6909375,6.98020313 36.6909375,7.67276562 37.1180469,8.09998438 C37.3317656,8.31348437 37.6116562,8.42034375 37.8915469,8.42034375 C38.1714375,8.42034375 38.4514375,8.31348437 38.6649375,8.09998438 L41.7580625,5.00685938 C42.1851719,4.57975 42.1851719,3.8871875 41.7580625,3.45996875 Z" id="Path"></path>
                            <path d="M35.5707187,0.365640625 C35.1436094,-0.06125 34.4510469,-0.061359375 34.0239375,0.365640625 L32.477375,1.91220313 C32.0502656,2.3393125 32.0501563,3.031875 32.477375,3.45909375 C32.6909844,3.67270313 32.970875,3.77945313 33.2507656,3.77945313 C33.5306563,3.77945313 33.8106563,3.67259375 34.0241563,3.45909375 L35.5707188,1.91253125 C35.9978281,1.48542188 35.9979375,0.792859375 35.5707187,0.365640625 Z" id="Path"></path>
                            <path d="M49.4919687,5.00653125 C49.0648594,4.57953125 48.3722969,4.57953125 47.9450781,5.00653125 L41.7577344,11.193875 C41.3307344,11.6209844 41.3307344,12.3136563 41.7578437,12.7407656 C41.9714531,12.9542656 42.2513438,13.061125 42.5312344,13.061125 C42.811125,13.061125 43.091125,12.9542656 43.304625,12.7407656 L49.4919688,6.55342188 C49.9190781,6.1263125 49.9190781,5.43375 49.4919687,5.00653125 Z" id="Path"></path>
                            <path d="M52.5862969,11.1939844 C52.1591875,10.7666563 51.4667344,10.7667656 51.0395156,11.1937656 L46.3987344,15.8334531 C45.9715156,16.2605625 45.9715156,16.9530156 46.398625,17.3803438 C46.6122344,17.5939531 46.892125,17.7008125 47.172125,17.7008125 C47.4520156,17.7008125 47.7319063,17.5939531 47.9454063,17.3805625 L52.5861875,12.740875 C53.0132969,12.3137656 53.0132969,11.6213125 52.5862969,11.1939844 Z" id="Path"></path>
                            <path d="M54.13275,18.9277812 C53.7056406,18.5007813 53.0130781,18.5007813 52.5859687,18.9277812 L51.0394062,20.4743438 C50.6122969,20.9014531 50.6122969,21.5940156 51.0394062,22.0212344 C51.2530156,22.2347344 51.5329063,22.3415938 51.8127969,22.3415938 C52.0926875,22.3415938 52.3726875,22.2347344 52.5861875,22.0212344 L54.13275,20.4746719 C54.5598594,20.0475625 54.5598594,19.355 54.13275,18.9277812 Z" id="Path"></path>
                        </g>
                    </g>
                </g>
            </g>
        </g>
    </g>
</svg>