<?xml version="1.0" encoding="UTF-8"?>
<svg width="56px" height="56px" viewBox="0 0 56 56" version="1.1" xmlns="http://www.w3.org/2000/svg" xmlns:xlink="http://www.w3.org/1999/xlink">
    <!-- Generator: sketchtool 60.1 (101010) - https://sketch.com -->
    <title>C1209392-3695-4359-9053-2494F3C24E91</title>
    <desc>Created with sketchtool.</desc>
    <g id="Pac-primário" stroke="none" stroke-width="1" fill="none" fill-rule="evenodd">
        <g id="Produtos-e-soluções" transform="translate(-678.000000, -1053.000000)" fill="#000000" fill-rule="nonzero">
            <g id="Principais-categorias" transform="translate(40.000000, 780.000000)">
                <g id="Card-Copy-7" transform="translate(614.000000, 241.000000)">
                    <g id="Group-4">
                        <g id="paint-roller-(1)" transform="translate(24.000000, 32.000000)">
                            <path d="M7,45.5 C5.07007599,45.5 3.5,47.0701294 3.5,49 C3.5,50.9298706 5.07007599,52.5 7,52.5 C8.92992401,52.5 10.5,50.9298706 10.5,49 C10.5,47.0701294 8.92992401,45.5 7,45.5 Z M7,50.75 C6.0350647,50.75 5.25,49.9649353 5.25,49 C5.25,48.0350647 6.0350647,47.25 7,47.25 C7.9649353,47.25 8.75,48.0350647 8.75,49 C8.75,49.9649353 7.9649353,50.75 7,50.75 Z" id="Shape"></path>
                            <path d="M55.2307434,23.3683319 L39.4807968,7.61843872 C38.8439865,6.98141479 37.9430313,6.71577454 37.070488,6.90782166 C36.6157179,7.00790406 36.2071905,7.21915054 35.8752403,7.51277543 L29.8557434,1.49333192 C28.832489,0.470184334 27.167511,0.470184334 26.1442566,1.49333192 L24.8623314,2.77523041 L23.5897522,1.50262452 C21.6793747,-0.407699578 18.5707855,-0.407699578 16.6601944,1.50262452 L12.9940491,5.16860962 C11.7230987,6.43945313 11.3596725,8.39677429 12.0896225,10.0391083 L21.1252365,30.3691864 C21.2711944,30.6976318 21.1985092,31.0890961 20.9444046,31.3433075 L19.7626753,32.5252304 L17.2437057,30.0062408 C16.9020157,29.6646576 16.3479843,29.6646576 16.0062942,30.0062408 L14.2562942,31.7562408 C14.0389328,31.9736023 13.951561,32.2890167 14.0261154,32.5872345 L14.7557449,35.5057526 L2.81015775,43.9378815 C1.05054474,45.1800995 -5.68434189e-14,47.2075958 -5.68434189e-14,49.3614502 C-5.68434189e-14,53.0219879 2.97806549,56 6.6385498,56 C8.79251099,56 10.8199539,54.9495087 12.0620651,53.1897888 L20.494194,41.2442017 L23.4127655,41.9738312 C23.7111435,42.048706 24.0263977,41.9611206 24.2437058,41.7437591 L25.9937058,39.9937591 C26.3354492,39.6519623 26.3354492,39.0980377 25.9937058,38.7562408 L23.4748097,36.2373581 L25.5058975,34.2064972 C26.7767944,32.9355469 27.1402741,30.9782257 26.4103775,29.3358917 L17.3748169,9.00581359 C17.2288056,8.67736815 17.3014908,8.28590392 17.5556488,8.0316925 L19.5062943,6.08088683 C19.6715851,5.91554259 19.8912964,5.82453918 20.1250534,5.82453918 C20.3588105,5.82453918 20.5785218,5.9155426 20.7438126,6.08088683 L21.1502171,6.48730468 L19.8683319,7.76914977 C19.3729401,8.26454162 19.1001434,8.92367553 19.1001434,9.625 C19.1001434,10.3263245 19.3729401,10.9854584 19.8683319,11.4808502 L35,26.6124649 L35,30.625 C35,32.5548706 36.570076,34.125 38.5,34.125 C39.4334259,34.125 40.3121109,33.7610931 40.9758911,33.0986481 C41.0611267,33.013092 41.1406612,32.9224625 41.2164373,32.8288956 L43.75,35.3624649 L43.75,43.75 C43.75,45.6798706 45.320076,47.25 47.25,47.25 C48.1834259,47.25 49.0621109,46.8860931 49.7254639,46.2240753 C50.3861465,45.5620575 50.75,44.6833191 50.75,43.75 L50.75,40.6552429 C51.2650986,40.9538879 51.8629761,41.125 52.5,41.125 C53.4334259,41.125 54.3121109,40.7610931 54.9754639,40.0990753 C55.6361465,39.4370575 56,38.5583191 56,37.625 L56,25.2251434 C56,24.523819 55.7268295,23.8644714 55.2307434,23.3683319 Z M23.3565826,40.1560059 L20.3372345,39.4011688 C19.9863586,39.3135834 19.6184463,39.4504089 19.4101639,39.7454224 L10.6323929,52.1806335 C9.71771241,53.4763641 8.22470092,54.25 6.6385498,54.25 C3.9430008,54.25 1.75,52.0570526 1.75,49.3614502 C1.75,47.7752991 2.52358246,46.2822876 3.81936646,45.3676605 L16.2545776,36.5898895 C16.5496979,36.3815002 16.68647,36.0132141 16.5988846,35.6627655 L15.8440475,32.6434174 L16.625,31.8624115 L19.1434889,34.3809204 C19.1436691,34.3810806 19.1438093,34.3812943 19.1439896,34.3814545 L21.6185989,36.8560638 C21.6187792,36.8562241 21.6189728,36.8563843 21.619153,36.8565445 L24.1375885,39.375 L23.3565826,40.1560059 Z M21.9812775,4.84347534 C21.4854584,4.34754943 20.8262176,4.07453919 20.125,4.07453919 C19.4238358,4.07453919 18.7646484,4.34765625 18.2688293,4.84347534 L16.3181305,6.79438782 C15.5557098,7.55691529 15.3377075,8.73120117 15.7756348,9.71653748 L24.8111954,30.0466156 C25.2491226,31.0320587 25.0310669,32.2064514 24.268486,32.9689789 L22.2373581,34.9998932 L21.0001335,33.7626953 L22.1819229,32.5806122 C22.9442902,31.8180847 23.1622925,30.6437988 22.7244186,29.6584625 L13.6888046,9.3283844 C13.250824,8.34294128 13.4688797,7.16854858 14.2314606,6.40612793 L17.8976059,2.74014282 C19.1257782,1.51202393 21.1241684,1.5118103 22.3523407,2.74014282 L23.6248732,4.01266861 L22.3876619,5.24986649 L21.9812775,4.84347534 Z M21.1057434,10.2433319 C20.764801,9.90238953 20.764801,9.34761047 21.1057434,9.00666809 L23.0061808,7.10627747 C23.0062542,7.10619736 23.0063276,7.10614395 23.0064011,7.10606385 L24.2437058,5.86875916 L27.3816681,2.73085023 C27.7226105,2.38990784 28.2773895,2.38990784 28.6183319,2.73085023 L35.0234384,9.13591004 C35.0095062,9.24747467 35,9.36021424 35,9.47514344 L35,24.1375351 L21.1057434,10.2433319 Z M41.9662476,31.1037827 C41.9879303,30.945755 42,30.785965 42,30.625 L42,28 C42,27.5175323 42.3925323,27.125 42.875,27.125 C43.109024,27.125 43.3293762,27.2161102 43.4932785,27.3794251 C43.6588364,27.5456238 43.75,27.765976 43.75,28 L43.75,32.8875351 L41.9662476,31.1037827 Z M54.25,37.625 C54.25,38.0916595 54.0676727,38.5312958 53.737999,38.8617706 C53.4062958,39.1926727 52.9666595,39.375 52.5,39.375 C51.5350647,39.375 50.75,38.5899353 50.75,37.625 C50.75,37.1417847 50.3582687,36.75 49.875,36.75 C49.3917313,36.75 49,37.1417847 49,37.625 L49,43.75 C49,44.2166596 48.8176727,44.6562958 48.487999,44.9867706 C48.1562958,45.3176727 47.7166595,45.5 47.25,45.5 C46.2850647,45.5 45.5,44.7149353 45.5,43.75 L45.5,28 C45.5,27.2997436 45.2275772,26.6406097 44.7307434,26.1420135 C44.2343369,25.6473694 43.5753097,25.375 42.875,25.375 C41.427597,25.375 40.25,26.552597 40.25,28 L40.25,30.625 C40.25,30.798996 40.2248459,30.969574 40.1750183,31.1332092 C40.0922394,31.4058991 39.9405136,31.6585083 39.737999,31.8617706 C39.4062958,32.1926727 38.9666595,32.375 38.5,32.375 C37.5350647,32.375 36.75,31.5899353 36.75,30.625 L36.75,9.47514343 C36.75,9.36288452 36.7677307,9.25863647 36.8045807,9.16015625 C36.9037552,8.89045715 37.1497421,8.6822815 37.4465179,8.61691284 C37.617363,8.5795288 37.947998,8.56040954 38.2433319,8.85585022 L53.9933319,24.6058502 C54.1588364,24.7713013 54.25,24.991333 54.25,25.2251434 L54.25,37.625 Z" id="Shape"></path>
                            <path d="M47.25,49 C45.320076,49 43.75,50.5701294 43.75,52.5 C43.75,54.4298706 45.320076,56 47.25,56 C49.179924,56 50.75,54.4298706 50.75,52.5 C50.75,50.5701294 49.179924,49 47.25,49 Z M47.25,54.25 C46.2850647,54.25 45.5,53.4649353 45.5,52.5 C45.5,51.5350647 46.2850647,50.75 47.25,50.75 C48.2149353,50.75 49,51.5350647 49,52.5 C49,53.4649353 48.2149353,54.25 47.25,54.25 Z" id="Shape"></path>
                        </g>
                    </g>
                </g>
            </g>
        </g>
    </g>
</svg>