<?xml version="1.0" encoding="UTF-8"?>
<svg width="56px" height="56px" viewBox="0 0 56 56" version="1.1" xmlns="http://www.w3.org/2000/svg" xmlns:xlink="http://www.w3.org/1999/xlink">
    <!-- Generator: sketchtool 61.2 (101010) - https://sketch.com -->
    <title>00ABA858-398A-4977-B3FC-B7778D90253B</title>
    <desc>Created with sketchtool.</desc>
    <g id="Pac-primário" stroke="none" stroke-width="1" fill="none" fill-rule="evenodd">
        <g id="Produtos-e-soluções" transform="translate(-360.000000, -1469.000000)" fill="#000000" fill-rule="nonzero">
            <g id="Principais-categorias" transform="translate(40.000000, 780.000000)">
                <g id="Card-Copy-20" transform="translate(296.000000, 657.000000)">
                    <g id="Group-4">
                        <g id="parquet-(1)" transform="translate(24.000000, 32.000000)">
                            <path d="M55.0236667,0 L48.4954444,0 L42.247,0 L31.7085556,0 L14.1755556,0 L7.92711111,0 L0.932555556,0 C0.373,0 0,0.373 0,0.932555556 L0,7.92711111 L0,18.4655556 L0,29.004 L0,39.6356667 L0,50.1741111 L0,55.0236667 C0,55.5832222 0.373,55.9562222 0.932555556,55.9562222 L6.62144444,55.9562222 L15.4812222,55.9562222 L26.1128889,55.9562222 L30.3095556,55.9562222 L40.9412222,55.9562222 L49.801,55.9562222 L55.0235556,55.9562222 C55.5831111,55.9562222 55.9561112,55.5832222 55.9561112,55.0236667 L55.9561112,49.7077778 L55.9561112,49.7077778 L55.9561112,49.7077778 L55.9561112,39.1695556 C55.9561112,39.1694444 55.9561112,39.1694444 55.9561112,39.1693333 L55.9561112,28.6308889 C55.9561112,28.6308889 55.9561112,28.6307778 55.9561112,28.6307778 L55.9561112,18.0925556 C55.9561112,18.079 55.9548889,18.0666667 55.9544444,18.0536667 C55.9553333,18.0355556 55.9561112,18.0174444 55.9561112,17.9993333 L55.9561112,7.46088889 L55.9561112,0.932555556 C55.9561112,0.373 55.5832222,0 55.0236667,0 Z M47.7493333,41.1278889 L46.2751111,39.6536667 C46.2285556,39.5471111 46.1607778,39.446 46.0706667,39.356 L41.4542222,34.7395556 L45.3711111,30.8226667 L54.091,39.5425556 L54.091,47.4696667 L47.7493333,41.1278889 Z M26.486,54.0911111 L24.2943333,51.8994444 L40.102,36.0917778 L44.0246667,40.0144444 L39.6467778,44.4705556 C39.5427778,44.517 39.444,44.5835556 39.3558889,44.6716667 L29.9366667,54.0911111 L26.486,54.0911111 Z M8.30022222,1.95844444 L13.8025556,1.95844444 L26.859,15.0148889 L23.1351111,18.7387778 L22.9582222,18.9156667 L11.7507778,7.64733333 C11.6606667,7.55722222 11.5596667,7.48944444 11.4531111,7.44288889 L7.08777778,3.07755556 L8.30022222,1.95844444 Z M48.1224444,1.86522222 L54.0911111,7.92711111 L54.0911111,15.761 L41.4076667,3.07755556 L42.62,1.86522222 L48.1224444,1.86522222 Z M54.0912222,36.9311111 L54.0903333,36.9303333 L46.2083333,28.9903333 C46.17,28.9296667 46.1247778,28.8714444 46.0707778,28.8174444 L41.4544444,24.201 L45.3713333,20.2841111 L54.0912222,29.004 L54.0912222,36.9311111 L54.0912222,36.9311111 Z M7.11311111,13.6413333 L11.0481111,9.74244444 L26.859,25.5533333 L22.9421111,29.4702222 L11.7507778,18.279 L7.11311111,13.6413333 Z M11.0481111,20.2808889 L26.859,36.0917778 L22.9421111,40.0086667 L11.7507778,28.8174444 L7.11311111,24.1797778 L11.0481111,20.2808889 Z M24.2534444,41.3201111 L28.9106667,36.7445556 L40.102,25.5533333 L43.9723333,29.4236667 L28.1646667,45.2313333 L24.2534444,41.3201111 Z M28.1646667,34.6928889 L24.2943333,30.8225556 L28.9107778,26.2061111 L40.102,15.0148889 L43.9723333,18.8852222 L28.1646667,34.6928889 Z M28.1666667,24.1524444 L24.2603333,20.2248889 L40.0553333,4.42988889 L43.9722222,8.34677778 L28.1666667,24.1524444 Z M1.86522222,29.4703333 L5.78211111,25.5534444 L9.699,29.4703333 L1.86511111,37.3042222 L1.86511111,29.4703333 L1.86522222,29.4703333 Z M7.08777778,34.7861111 L11.0046667,30.8692222 L26.8123333,46.6768889 L22.942,50.5472222 L11.7507778,39.3558889 C11.6606667,39.2657778 11.5596667,39.198 11.4531111,39.1514444 L7.08777778,34.7861111 Z M1.86522222,8.30022222 L5.78211111,4.38333333 L9.74566667,8.34688889 L5.12933333,12.9632222 C5.12933333,12.9632222 5.12933333,12.9632222 5.12922222,12.9633333 L1.86511111,16.2274444 L1.86511111,8.30022222 L1.86522222,8.30022222 Z M1.86522222,18.8412222 L5.80122222,14.9413333 L9.699,18.932 L5.12922222,23.5017778 L1.86511111,26.7658889 L1.86511111,18.8412222 L1.86522222,18.8412222 Z M1.86522222,40.0087778 L5.78211111,36.1851111 L9.699,40.102 L5.12922222,44.6717778 L1.86511111,47.9358889 L1.86511111,40.0087778 L1.86522222,40.0087778 Z M46.2082222,18.4518889 C46.1698889,18.3912222 46.1246667,18.333 46.0706667,18.279 L41.4542222,13.6625556 L45.3711111,9.74566667 L54.091,18.4655556 L54.091,26.3926667 L46.2082222,18.4518889 Z M54.0911111,1.86522222 L54.0911111,5.22255556 L50.7337778,1.86522222 L54.0911111,1.86522222 Z M28.1646667,13.616 L24.2476667,9.69911111 L32.0815556,1.86522222 L40.0086667,1.86522222 L28.1646667,13.616 Z M29.377,1.86522222 L22.8954444,8.34677778 L16.4138889,1.86522222 L29.377,1.86522222 Z M1.86522222,1.86522222 L5.68888889,1.86522222 L5.12933333,2.42477778 L1.86522222,5.68888889 L1.86522222,1.86522222 Z M1.86522222,50.5497778 L5.80155556,46.6495556 L9.74577778,50.5937778 L6.24844444,54.0911111 L1.86522222,54.0911111 L1.86522222,50.5497778 Z M8.953,54.0911111 L11.098,51.9461111 L13.243,54.0911111 L8.953,54.0911111 Z M15.9475556,54.0911111 L7.20666667,45.2572222 L11.1113333,41.3884444 L22.2892222,52.5056667 L23.8746667,54.0911111 L15.9475556,54.0911111 Z M40.102,46.6302222 L44.0655556,50.5937778 L40.5683333,54.091 L32.6412222,54.091 L40.102,46.6302222 Z M43.1795556,54.0911111 L45.3712222,51.8994444 L47.5628889,54.0911111 L43.1795556,54.0911111 Z M54.0912222,54.0911111 L50.2674444,54.0911111 L46.0707778,49.8944444 C45.9806667,49.8043333 45.8796667,49.7365556 45.7731111,49.69 L41.4077778,45.3246667 L45.3713333,41.3611111 L54.0912222,50.081 L54.0912222,54.0911111 L54.0912222,54.0911111 Z" id="Shape"></path>
                        </g>
                    </g>
                </g>
            </g>
        </g>
    </g>
</svg>