<?xml version="1.0" encoding="utf-8"?>
<!-- Generator: Adobe Illustrator 25.4.1, SVG Export Plug-In . SVG Version: 6.00 Build 0)  -->
<svg version="1.1" id="Camada_1" xmlns="http://www.w3.org/2000/svg" xmlns:xlink="http://www.w3.org/1999/xlink" x="0px" y="0px"
	 viewBox="0 0 56 48" style="enable-background:new 0 0 56 48;" xml:space="preserve">
<style type="text/css">
	.st0{fill:none;stroke:#000000;stroke-width:2;stroke-miterlimit:10;}
	.st1{fill:none;stroke:#000000;stroke-width:1.6;stroke-miterlimit:10;}
</style>
<g id="Layer_1">
	<desc>Created with sketchtool.</desc>
</g>
<g id="Camada_2_00000004515829445259151000000003542053476686701188_">
	<g>
		<path class="st0" d="M-2.1-65.1c0.2,0.5,0.6,0.8,0.9,1c0.4,0.3,0.8,0.7,1.2,0.6c0.1,0,0.4-0.1,0.7-0.6c0.5-0.8,0.6-1.5,0.6-1.6
			c0.2-3.3,0.3-3,0.2-3.7c-0.1-1.4-0.3-1.3-0.4-2.9C1-73.1,1-73.4,0.9-74.2c-0.2-1-0.3-1.3-0.6-1.5c-0.4-0.4-1.1-0.6-1.6-0.4
			c-0.4,0.2-0.5,0.6-0.6,0.9c-0.2,0.4-0.2,0.8-0.2,1.1c0.1,1.2,0.2,1.8,0.2,2.2c0,0.1,0,0.8-0.1,1.9c0,1.2,0,1.3-0.1,1.5
			c-0.1,0.9-0.1,1-0.2,1.8C-2.3-65.6-2.2-65.3-2.1-65.1z"/>
		<path class="st0" d="M-2.2-85.9c0.1,0.7,0.3,1,0.6,2c0.3,1.1,0.5,1.6,0.5,2c0,0.8-0.3,0.9-0.2,1.7c0,0.6,0.1,1.1,0.6,1.3
			c0.5,0.3,1.1,0.2,1.5-0.1c0.5-0.3,0.6-0.8,0.7-1.3c0.2-1.3,0-2.1-0.2-3.7c-0.2-1.4-0.1-1.9-0.6-2.7C0.4-87.3,0-87.9-0.6-88
			c-0.5-0.1-1,0.2-1.3,0.6C-2.2-87.2-2.3-86.8-2.2-85.9z"/>
		<path class="st0" d="M4.4-88c0.2,1,0,2.2,0.2,3.2c0,0.2,0.4,2.5,0.6,3.8c0.2,1.6,0.2,2.8,0.3,4.8c0,2.4,0,4.7,0,4.7s0,0.6,0.1,2.4
			C5.7-67.9,5.8-67.5,6-67c0.2,0.4,0.8,1.3,1.7,1.4s1.7-0.4,2.1-1c0.5-0.7,0.2-1.2,0.1-2.3c-0.2-1.3,0.1-1,0.2-3.7
			c0-0.8,0-1.7-0.1-3.8c-0.1-2.1-0.1-3.1-0.3-4.1c-0.1-1-0.3-2.2-0.6-3.4c-0.2-1-0.4-1.4-0.5-1.7c-0.1-0.3-0.5-1-1.2-2.5
			c-0.2-0.5-0.5-0.9-1-1.1c-0.4-0.2-0.9-0.2-0.9-0.2c-0.1,0-0.8,0-1,0.4C4.2-88.8,4.3-88.2,4.4-88z"/>
		<path class="st0" d="M-15.6-90.5c0,0.1-0.1,0.2-0.1,0.3c-0.5,1.1-0.8,1.1-0.8,1.7c0,0.2-0.1,1.2,0.9,1.7c0.5,0.2,0.9,0.2,1.3,0.5
			c0.4,0.2,0.5,0.5,0.6,0.8c0.7,1.3,0.5,3.3,0.5,4.3c0,0.7,0,1.2,0,1.9c-0.1,4.3,0.6,4.9,0.5,8.7c0,1.3,0.1,2.8,0.1,4.1
			c0,0.4,0,0.9-0.1,1.2c0,0.2-0.1,1,0.4,2c0.1,0.2,0.2,0.4,0.4,0.6c0.9,0.9,3.3,0.7,3.8,0.6c0.6,0,1.3,0.1,2.3,0.4
			c0.8,0.2,1.2,0.4,1.6,0.6c3.7,1.5,4.1,1.9,5.4,2.1c1.2,0.2,2.4-0.1,2.9-0.2c1.2-0.3,2.1-0.7,2.7-1C8-61.1,8-61.5,9-61.8
			c0.6-0.2,0.8-0.2,2.9-0.3c3.5-0.3,3.9-0.5,4.3-0.7c1-0.7,0.8-1.7,0.8-1.9c-0.1-0.7-0.5-1.1-1-1.7c-0.2-0.2-0.5-0.5-0.8-0.7
			c-1-1-1.4-2-2.2-4.1c-0.8-2-0.1-1.8-0.5-7.9c0,0-0.1-2,0.4-5.3c0.1-0.9,0.3-2.1,0.9-2.1c0.5,0,1,0.7,1.4,1
			c0.3,0.4,0.5,0.8,0.6,0.9c0.5,1,1.3,2.7,0.4,4c-0.2,0.3-0.5,0.6-0.7,1.1c-0.1,0.3-0.2,0.9,0.3,1.1c0.4,0.3,1,0.3,1.3,0.3
			c0.2,0,0.8,0,1.1-0.4c0.4-0.3,0.3-0.6,0.3-0.9c0-0.5-0.3-0.9-0.4-1c-0.4-0.6-0.5-1.1-0.6-2.5c-0.1-0.5,0-0.1,0-2.1
			c0-0.6,0-1,0.4-1.3c0.4-0.4,1-0.5,1.1-0.6c1.1-0.2,1.9,0.3,2.4,0c0.2-0.1,0.2-0.3,0.3-0.6c0.1-0.4-0.1-0.8-0.2-1
			c-0.1-0.2-0.2-0.4-0.4-0.6c-0.5-0.7-0.7-0.7-0.9-1c-0.1-0.2-0.1-0.2-0.2-1.2c0-0.6,0-0.6,0-0.9c0-0.5,0.1-0.5,0.2-1.2
			c0.2-0.9,0.2-1.2,0.1-1.5c0,0-0.4-0.8-1.4-1c-0.2,0-0.4,0-0.6,0"/>
		<path class="st0" d="M-8.9-66.2c0.7,0,1.3-2,1.7-3.2c0.8-2.6,1.1-5,1.2-8.5c0.2-5.9-0.5-7.1-1.1-7.8c-0.6-0.7-1.9-1.5-2.6-1.1
			c-0.7,0.3-0.8,1.3-0.9,2.9c-0.1,0.9-0.1,2,0.3,4.6c0.2,1.5,0.3,1.4,0.6,3.5c0.3,2.3,0.5,3.4,0.4,4c-0.2,1.6-0.8,2.1-0.6,3.5
			C-9.7-67.4-9.4-66.2-8.9-66.2z"/>
	</g>
	<g>
		<path class="st0" d="M22.8-99.9c-1.3,1.3-2.9,2.6-4.7,3.6c-12.6,7.7-32.9,7.8-32.9,7.8l-0.8-2l-2.9-7.6h5.5l0,0h0.1
			c0.1,0,0.2-0.1,0.2-0.2v-3.5c0-0.1-0.1-0.1-0.2-0.2l0,0c0-0.1-0.1-0.2-0.2-0.2h-5.5l3.6-9.6C19.1-108.6,22.8-99.9,22.8-99.9z"/>
		<path class="st0" d="M-34.2-96.1h7.7v-7.6h-7.3c-2.2,0-4,1.8-4,4l0,0C-37.8-97.7-36.2-96.1-34.2-96.1z"/>
		<path class="st0" d="M-26-102.1h13c0.2,0,0.4,0.2,0.4,0.4v3.2c0,0.2-0.2,0.4-0.4,0.4h-13c-0.2,0-0.4-0.2-0.4-0.4v-3.2
			C-26.5-102-26.3-102.1-26-102.1z"/>
	</g>
</g>
<path class="st0" d="M-40-55"/>
<polyline class="st0" points="-13,-65.4 -27.9,-65.4 -38.3,-55 29.1,-55 18.9,-65.2 17,-65.2 "/>
<g>
	<path class="st0" d="M80.4-112.4h23.3c1.3,0,2.5,1.2,2.5,2.8c0,0.8-0.3,1.5-0.7,2s-1,0.8-1.7,0.8h9.3c1.4,0,2.4,1.2,2.4,2.8
		c0,0.8-0.3,1.5-0.7,2s-1,0.8-1.7,0.8h4.9v5.6h-4.9c1.4,0,2.4,1.2,2.4,2.8c0,0.8-0.3,1.5-0.7,2s-1,0.8-1.7,0.8h4.9v5.6h-6.9
		c1.4,0,2.4,1.2,2.4,2.8c0,0.8-0.3,1.5-0.7,2s-1,0.8-1.7,0.8H82.2l1.4-0.8c0,0-0.2-1.9-0.9-4.8h5.7c-1.3,0-2.4-1.2-2.4-2.8
		c0-0.8,0.3-1.5,0.7-2c0.5-0.5,1-0.8,1.7-0.8h-6.1c-0.4,0-0.7-0.1-1.1-0.3c-0.3-1.2-0.7-2.5-1.1-3.8c0.1-0.2,0.3-0.5,0.4-0.7
		c0.4-0.5,1-0.8,1.7-0.8h5.3c-1.3,0-2.5-1.2-2.5-2.8c0-0.8,0.3-1.5,0.7-2s1-0.8,1.7-0.8h-9.8c-0.8-1.8-1.7-3.7-2.7-5.4
		c0.3-0.1,0.6-0.2,0.9-0.2h4.6c-1.4,0-2.5-1.2-2.5-2.8c0-0.8,0.3-1.5,0.7-2C79.1-112,79.7-112.4,80.4-112.4z"/>
	<path class="st0" d="M104.7-83.7H92.9c-1.1,0-2-0.9-2-2l0,0c0-1.1,0.9-2,2-2h11.7c1.1,0,2,0.9,2,2l0,0
		C106.7-84.6,105.8-83.7,104.7-83.7z"/>
	<path class="st0" d="M96-92.7h-2.2c-1,0-1.8-0.8-1.8-1.8l0,0c0-1,0.8-1.8,1.8-1.8H96c1,0,1.8,0.8,1.8,1.8l0,0
		C97.9-93.6,97-92.7,96-92.7z"/>
	<path class="st0" d="M107.9-92.7h-4.7c-1,0-1.8-0.8-1.8-1.8l0,0c0-1,0.8-1.8,1.8-1.8h4.7c1,0,1.8,0.8,1.8,1.8l0,0
		C109.7-93.6,108.9-92.7,107.9-92.7z"/>
	<path class="st0" d="M98.9-102.2h-7.1c-1.1,0-2-0.9-2-2l0,0c0-1.1,0.9-2,2-2h7.1c1.1,0,2,0.9,2,2l0,0
		C100.8-103.1,100-102.2,98.9-102.2z"/>
</g>
<g>
	<path class="st0" d="M67.6-115.5c1.4,1.1,2.9,2.6,4.2,4.2c1.2,1.5,2.2,3.1,3.2,4.8s1.9,3.5,2.7,5.4c1,2.4,1.9,4.8,2.6,7
		c0.4,1.3,0.8,2.6,1.1,3.8c0.6,2.2,1,4.2,1.4,5.8c0.6,2.9,0.9,4.8,0.9,4.8l-1.4,0.8l-0.5,0.3l-7.2,3.8l-0.7-5.5v-0.1
		c0-0.1-0.1-0.2-0.2-0.2c-0.1-0.1-0.2-0.1-0.2-0.1l-3.2,0.4c-0.2,0-0.3,0.2-0.3,0.4c-0.1,0-0.1,0.1-0.1,0.2l0,0l0.7,5.5l-10-2.4
		C59.4-110.8,67.6-115.5,67.6-115.5z"/>
	<path class="st0" d="M78.4-59.5l-1-7.6l-7.5,0.9l0.9,7.2c0.3,2.2,2.3,3.7,4.5,3.5l0,0C77.3-55.7,78.7-57.5,78.4-59.5z"/>
	<path class="st0" d="M73.3-80.6c0.1,0,0.2,0,0.2,0.1c0.1,0.1,0.2,0.2,0.2,0.3l0.7,5.5l0.9,7.4c0,0.2-0.1,0.4-0.3,0.5l-3.2,0.4
		c-0.3,0.1-0.4,0-0.5-0.4l-1.6-12.9v-0.1c0-0.2,0.2-0.3,0.3-0.4L73.3-80.6z"/>
</g>
<polyline class="st0" points="181.9,23.1 168.3,23.1 155.8,44.4 226.6,44.4 217.2,24.7 210.8,24.7 "/>
<g>
	<path class="st0" d="M-156.1-103.6v23.3c0,1.3-1.3,2.5-2.8,2.5c-0.8,0-1.5-0.3-2-0.7s-0.8-1-0.8-1.7v9.3c0,1.4-1.2,2.4-2.8,2.4
		c-0.8,0-1.5-0.3-2-0.7s-0.8-1-0.8-1.7v4.9c0,1.4-1.2,2.4-2.8,2.4c-0.8,0-1.5-0.3-2-0.7c-0.5-0.5-0.8-1.1-0.8-1.7v-4.9
		c0,1.4-1.2,2.4-2.8,2.4c-0.8,0-1.5-0.3-2-0.7s-0.8-1-0.8-1.7v10.7c0,1.4-1.2,2.4-2.8,2.4c-0.8,0-1.5-0.3-2-0.7
		c-0.5-0.4-0.8-1-0.8-1.7V-73c0,1.4-1.2,2.4-2.8,2.4c-0.8,0-1.5-0.3-2-0.7s-0.8-1-0.8-1.7v-28.9l0.8,1.4c0,0,1.9-0.2,4.8-0.9v5.7
		c0-1.3,1.2-2.4,2.8-2.4c0.8,0,1.5,0.3,2,0.7c0.5,0.5,0.8,1,0.8,1.7v-6.1c0-0.4,0.1-0.7,0.3-1.1c1.2-0.3,2.5-0.7,3.8-1.1
		c0.2,0.1,0.5,0.3,0.7,0.4c0.5,0.4,0.8,1,0.8,1.7v5.3c0-1.3,1.2-2.5,2.8-2.5c0.8,0,1.5,0.3,2,0.7s0.8,1,0.8,1.7v-9.7
		c1.8-0.8,3.7-1.7,5.4-2.7c0.1,0.3,0.2,0.6,0.2,0.9v4.6c0-1.4,1.2-2.5,2.8-2.5c0.8,0,1.5,0.3,2,0.7
		C-156.4-104.9-156.1-104.3-156.1-103.6z"/>
	<path class="st0" d="M-184.7-79.4v-11.7c0-1.1,0.9-2,2-2l0,0c1.1,0,2,0.9,2,2v11.7c0,1.1-0.9,2-2,2l0,0
		C-183.8-77.3-184.7-78.2-184.7-79.4z"/>
	<path class="st0" d="M-175.7-88v-2.2c0-1,0.8-1.8,1.8-1.8l0,0c1,0,1.8,0.8,1.8,1.8v2.2c0,1-0.8,1.8-1.8,1.8l0,0
		C-174.9-86.2-175.7-87-175.7-88z"/>
	<path class="st0" d="M-175.7-76.1v-4.7c0-1,0.8-1.8,1.8-1.8l0,0c1,0,1.8,0.8,1.8,1.8v4.7c0,1-0.8,1.8-1.8,1.8l0,0
		C-174.9-74.3-175.7-75.1-175.7-76.1z"/>
	<path class="st0" d="M-166.2-85.1v-7.1c0-1.1,0.9-2,2-2l0,0c1.1,0,2,0.9,2,2v7.1c0,1.1-0.9,2-2,2l0,0
		C-165.4-83.2-166.2-84.1-166.2-85.1z"/>
</g>
<g>
	<path class="st0" d="M-152.9-116.5c-1.1,1.4-2.6,2.9-4.2,4.2c-1.5,1.2-3.1,2.2-4.8,3.2c-1.7,1-3.5,1.9-5.4,2.7
		c-2.4,1-4.8,1.9-7,2.6c-1.3,0.4-2.6,0.8-3.8,1.1c-2.2,0.6-4.2,1-5.8,1.4c-2.9,0.6-4.8,0.9-4.8,0.9l-0.8-1.4l-0.3-0.5l-3.8-7.2
		l5.5-0.7h0.1c0.1,0,0.2-0.1,0.2-0.2c0.1-0.1,0.1-0.2,0.1-0.2l-0.4-3.2c0-0.2-0.2-0.3-0.4-0.3c0-0.1-0.1-0.1-0.2-0.1l0,0l-5.5,0.7
		l2.4-10C-157.6-124.6-152.9-116.5-152.9-116.5z"/>
	<path class="st0" d="M-209-105.6l7.6-1l-0.9-7.5l-7.2,0.9c-2.2,0.3-3.7,2.3-3.5,4.5l0,0C-212.7-106.7-210.9-105.4-209-105.6z"/>
	<path class="st0" d="M-187.8-110.7c0,0.1,0,0.2-0.1,0.2c-0.1,0.1-0.2,0.2-0.3,0.2l-5.5,0.7l-7.4,0.9c-0.2,0-0.4-0.1-0.5-0.3
		l-0.4-3.2c-0.1-0.3,0-0.4,0.4-0.5l12.9-1.6h0.1c0.2,0,0.3,0.2,0.4,0.3L-187.8-110.7z"/>
</g>
<polyline class="st0" points="-189.5,-82.6 -208.1,-82.6 -208.1,-54.6 -145.8,-54.6 -145.8,-82.6 -156.1,-82.6 "/>
<rect x="117.9" y="-121.6" class="st0" width="9.6" height="56.9"/>
<path class="st0" d="M-100.6-15.7"/>
<path class="st0" d="M-168.7,106.1h-18.8c-2.8,0-5.1-2.3-5.1-5.1v0c0-2.8,2.3-5.1,5.1-5.1h18.8c2.8,0,5.1,2.3,5.1,5.1v0
	C-163.6,103.8-165.9,106.1-168.7,106.1z"/>
<g>
	<g>
		<path class="st0" d="M13.4,28.7c-0.6,1.8-1.7,5.6-2.3,7.5c-0.1,0.2-3.1-0.9-3.1-0.9c0.3-1.8,1.7-5.7,2.3-7.6
			C10.3,27.6,13.4,28.6,13.4,28.7z"/>
		<path class="st0" d="M12.6,36.8c-1.3,2.5-1.7,11.6-6.5,9.8C1.3,45.3,6,37.7,6.4,34.9C6.5,34.8,12.6,36.7,12.6,36.8z"/>
		<path class="st0" d="M23.6,16.5c0,5.7-1.2,11.4-3.1,16.9l-8.2-1.2c0.9-4,2.4-3.2-2-4.5c-0.2-0.1-1.1,3.5-1.2,3.5l-7.8-4
			c0,0,6.5-20.7,18.7-25.8C20.4,0.6,24.3,11.5,23.6,16.5z"/>
		<path class="st0" d="M13,32"/>
	</g>
	<rect x="46.8" y="1.1" class="st0" width="8.1" height="45.9"/>
	<path class="st0" d="M14.4,27.7"/>
	<path class="st1" d="M46.8,17.1c0,4.7,0,9.5,0,14.2c0,0.7,0,1.4,0,2.1c0,0.5,0,1,0,1.4c-0.5,0-1.3-0.1-2.2-0.2
		c-1.3-0.2-2.3-0.4-2.8-0.5c-1.1-0.3-2.8-0.6-5-0.7c-0.2,0.2-0.5,0.5-0.4,3c-0.1,1.1,0.4,1.8-0.1,2.9c-0.7,1.9-3.3,1.9-3.6-0.2
		c-0.1-0.5,0.6-2,0.3-2.5c0.1-2-0.8-1.9-2.5-3c-2.8-1.6-6.2,0-9.5-1.7c2.5-8,2.9-14.4,2.4-19.3C28.3,15.1,39.1,22.3,46.8,17.1z"/>
	<path class="st1" d="M32.9,29.2c0.1,1.4-9.1,0.2-10.9-0.8c0.4-1.3,0.7-2.5,0.9-3.8c2.8,1.2,5.8,2.4,7.6,1.9
		C32,24.9,33.6,27.7,32.9,29.2z"/>
	<path class="st1" d="M30.6,20.5c-0.9,3-5.3,0.6-7.2,0.2c0-1.5,0.6-2.8,0.9-4.2C25.5,16.9,30.8,19.2,30.6,20.5z"/>
	<path class="st1" d="M46.8,21v3.1c-4.4-1.1-10.7,2.7-12-1.8C39,19.8,42.5,22.5,46.8,21z"/>
	<path class="st1" d="M46.8,27.7v3.4c-2.6-0.3-5.8-1.2-6-1.4C40.5,26.7,44.3,27.9,46.8,27.7z"/>
	<path class="st0" d="M19.3,6.7c0,0,2,5,1.2,10.7"/>
	<path class="st0" d="M20.2,19.1c-0.1,0.6-0.1,1.2-0.2,1.8"/>
	<path class="st0" d="M-35-3.9"/>
</g>
</svg>
