<?xml version="1.0" encoding="UTF-8"?>
<svg width="56px" height="56px" viewBox="0 0 56 56" version="1.1" xmlns="http://www.w3.org/2000/svg" xmlns:xlink="http://www.w3.org/1999/xlink">
    <!-- Generator: sketchtool 60.1 (101010) - https://sketch.com -->
    <title>B155B2C6-EC97-4840-80B7-97771131557F</title>
    <desc>Created with sketchtool.</desc>
    <g id="Pac-primário" stroke="none" stroke-width="1" fill="none" fill-rule="evenodd">
        <g id="Produtos-e-soluções" transform="translate(-1208.000000, -1205.000000)" fill="#000000" fill-rule="nonzero">
            <g id="Principais-categorias" transform="translate(40.000000, 780.000000)">
                <g id="Card-Copy-15" transform="translate(1144.000000, 393.000000)">
                    <g id="Group-4">
                        <g id="tools-(1)" transform="translate(24.000000, 32.000000)">
                            <path d="M37.9162403,17.0454435 C37.3137183,17.0454435 36.8246223,17.5332603 36.8246223,18.136635 C36.8246223,18.7395834 37.3137183,19.2282529 37.9162403,19.2282529 C38.5200415,19.2282529 39.0078582,18.7395834 39.0078582,18.136635 C39.0078582,17.5332603 38.5200415,17.0454435 37.9162403,17.0454435 Z" id="Path"></path>
                            <path d="M18.0820541,36.8792032 C17.4782529,36.8792032 16.9904361,37.3682992 16.9904361,37.9708212 C16.9904361,38.5746223 17.4782529,39.0624391 18.0820541,39.0624391 C18.684576,39.0624391 19.173672,38.5746223 19.173672,37.9708212 C19.173672,37.3682992 18.684576,36.8792032 18.0820541,36.8792032 Z" id="Path"></path>
                            <path d="M54.5872929,6.82474412 C54.2188719,6.73903509 53.8316886,6.85032892 53.5656068,7.11896933 L49.0400829,11.6803119 L46.8704923,11.6803119 L44.4821515,9.20583574 L44.4821515,7.00596984 L48.9428606,2.47874023 C49.2068104,2.2109527 49.3142665,1.8259015 49.2268519,1.4596126 C49.1398635,1.09374997 48.8703704,0.798672 48.5138889,0.678423517 C47.3932749,0.300621318 46.2206383,0.10905823 45.0279605,0.10905823 C41.4725268,0.10905823 38.2424464,1.76705653 36.1658139,4.65771202 C34.2222222,7.36373048 33.6231116,10.6799464 34.4814815,13.8537402 L26.4406068,21.894615 L13.0444079,8.46771437 L13.0444079,5.83248056 C13.0444079,5.44913502 12.8431409,5.09350631 12.5143762,4.89650344 L4.79586991,0.264802604 C4.36604535,0.00682261209 3.81639869,0.074622347 3.46247563,0.428971789 L0.375243665,3.51577726 C0.0213206082,3.87012671 -0.0464790175,4.41977336 0.211074589,4.84959793 L4.84192254,12.5681042 C5.03892541,12.8968689 5.39412763,13.0977096 5.77747317,13.0981359 L8.41185432,13.0989888 L21.8093323,26.5258894 L13.7991593,34.5360624 C10.6253656,33.6781189 7.30744393,34.2780824 4.6001462,36.2229532 C1.71119637,38.2983066 0.0545808967,41.5275341 0.0545808967,45.0829679 C0.0545808967,46.2752192 0.246040421,47.4482821 0.62384262,48.5684698 C0.744517489,48.9270833 1.04258038,49.1978558 1.41100143,49.2831384 C1.77984898,49.3688474 2.16660572,49.2575536 2.43311398,48.9889133 L6.95821156,44.4279971 L9.13974166,44.4279971 L11.6253046,46.91356 L11.6253046,49.0950902 L7.06438843,53.6201876 C6.79574802,53.8866959 6.68445419,54.2734528 6.77016323,54.6423002 C6.85544588,55.0107212 7.12621832,55.3087841 7.48483184,55.4294591 C8.60501949,55.8072612 9.77808239,55.9987207 10.9703338,55.9987207 C14.5257675,55.9987207 17.7545687,54.3416789 19.8303484,51.452729 C21.7752192,48.7454313 22.3751827,45.4279362 21.5172393,42.2541423 L27.9505361,35.8208455 L29.4242203,37.4216009 L28.7479288,38.0974659 C28.3215155,38.5238791 28.3215155,39.215095 28.7479288,39.6415083 C29.1743421,40.0674951 29.8651316,40.0674951 30.2919713,39.6415083 L30.9043007,39.0291788 L44.7311769,54.0483066 C44.7414108,54.0593932 44.7520712,54.0700536 44.7627315,54.080714 C47.321211,56.6391935 51.4663743,56.6400463 54.0261331,54.0802875 C56.5786428,51.5264985 56.5786428,47.3711014 54.0261331,44.8173124 C54.0150463,44.8062256 54.0035332,44.7955653 53.99202,44.784905 L38.9494396,30.9844664 L39.5549463,30.3789596 C39.9813596,29.9529727 39.9813596,29.2617568 39.5549463,28.8353436 C39.1285331,28.4089303 38.4377437,28.4089303 38.010904,28.8353436 L37.3393032,29.5073709 L35.7355628,28.0353923 L42.1999878,21.5709674 C43.1189084,21.8165814 44.0672515,21.9410941 45.0279605,21.9410941 C51.04721,21.9410941 55.9437135,17.0441643 55.9437135,11.0253411 C55.9437135,9.83266328 55.7522539,8.66002678 55.3744517,7.53941274 C55.2537767,7.18079922 54.955714,6.91002678 54.5872929,6.82474412 Z M9.63736596,11.2364157 C9.43268759,11.031311 9.15509265,10.9268396 8.86513163,10.9268396 L6.39619883,10.9259869 L2.52180794,4.45729773 L4.40356972,2.57553606 L10.8611721,6.45077973 L10.8611721,8.91971253 C10.8611721,9.20882066 10.9758772,9.48598933 11.1801292,9.6906677 L24.8969908,23.4386574 L23.3529484,24.9822734 L9.63736596,11.2364157 Z M37.404118,32.529788 L52.497868,46.3767057 C54.1839059,48.080653 54.178789,50.8395467 52.4820907,52.537098 C50.7815545,54.237634 48.0286305,54.242751 46.321272,52.5520224 L32.4491959,37.4838572 L37.404118,32.529788 Z M35.7939815,31.0522661 L30.9691155,35.8762793 L29.4954313,34.2755239 L34.1902412,29.5802875 L35.7939815,31.0522661 Z M45.0279605,19.7578582 C44.0732213,19.7578582 43.1342593,19.6047758 42.2379387,19.3028752 C41.845212,19.1711136 41.4111233,19.2725999 41.117751,19.5655458 C35.6451632,25.0381336 23.8531311,36.8297393 19.5109649,41.1723319 C19.2175926,41.4657042 19.1156798,41.8997929 19.2482943,42.2929459 C20.1557018,44.9874513 19.721613,47.8614766 18.0568957,50.1790326 C16.3968689,52.4897661 13.8136574,53.8154849 10.9703338,53.8154849 C10.6509502,53.8154849 10.3332724,53.7980019 10.0185795,53.7643153 L13.4857456,50.3240131 C13.6921297,50.1193348 13.8085405,49.8404606 13.8085405,49.5492203 L13.8085405,46.4611355 C13.8085405,46.1716009 13.6934088,45.8940058 13.4887305,45.6893275 L10.3635478,42.5641448 C10.1588694,42.3594664 9.88127434,42.2443348 9.59173982,42.2443348 L6.50365497,42.2443348 C6.21241469,42.2443348 5.93354048,42.3607457 5.72843562,42.5671296 L2.28855997,46.0342958 C2.25444691,45.7196029 2.23739038,45.4019249 2.23739038,45.0825414 C2.23739038,42.2387914 3.56268278,39.6560064 5.87384262,37.9959795 C8.19097219,36.3312621 11.065424,35.8967471 13.7603558,36.8045809 C14.1530824,36.9371954 14.587171,36.8352827 14.8805433,36.5419103 C14.9406677,36.4822125 36.4719786,14.9504751 36.4873294,14.9351242 C36.7807018,14.6417519 36.8821882,14.2080897 36.75,13.8149367 C35.8421662,11.1204313 36.2754021,8.24725874 37.9388402,5.93140844 C39.6001462,3.61854294 42.1837841,2.29239766 45.0275341,2.29239766 C45.3567251,2.29239766 45.6837841,2.31073346 46.0078582,2.34655217 L42.6127558,5.79239766 C42.4114888,5.99664964 42.2989157,6.27168616 42.2989157,6.55823587 L42.2989157,9.64632072 C42.2989157,9.92945912 42.408504,10.2010843 42.6050804,10.4044834 L45.6211014,13.5296662 C45.8266326,13.7428728 46.1101974,13.8631214 46.4065546,13.8631214 L49.4946394,13.8631214 C49.7854532,13.8631214 50.0643275,13.747137 50.2694322,13.5403265 L53.709308,10.0735867 C53.7434211,10.3882797 53.7604776,10.7059576 53.7604776,11.0253411 C53.7604776,15.8403996 49.843019,19.7578582 45.0279605,19.7578582 L45.0279605,19.7578582 Z" id="Shape"></path>
                            <path d="M34.0572003,20.452059 L20.3970516,34.1122077 C19.9710648,34.5381944 19.9710648,35.2294103 20.3970516,35.6558235 C20.8234649,36.0822368 21.5146808,36.0822368 21.9410941,35.6558235 L35.6012426,21.995675 C36.0276559,21.5696881 36.0276559,20.8784722 35.6012426,20.452059 C35.1748294,20.0256457 34.4836135,20.0256457 34.0572003,20.452059 L34.0572003,20.452059 Z" id="Path"></path>
                            <path d="M47.8516691,49.4502924 C48.2780824,49.8754264 48.9692982,49.8754264 49.3957115,49.4477339 C49.821272,49.0208942 49.8199927,48.3296784 49.393153,47.904118 L39.5536672,38.0961866 C39.1268275,37.6706262 38.4351852,37.6719054 38.0100512,38.0987452 C37.5840643,38.5260112 37.5853436,39.2168007 38.0121832,39.6423611 L47.8516691,49.4502924 Z" id="Path"></path>
                        </g>
                    </g>
                </g>
            </g>
        </g>
    </g>
</svg>