<?xml version="1.0" encoding="UTF-8"?>
<svg width="56px" height="56px" viewBox="0 0 56 56" version="1.1" xmlns="http://www.w3.org/2000/svg" xmlns:xlink="http://www.w3.org/1999/xlink">
    <!-- Generator: sketchtool 60.1 (101010) - https://sketch.com -->
    <title>E0C91411-E277-4857-9EEF-B11D7C55A7C7</title>
    <desc>Created with sketchtool.</desc>
    <g id="Pac-primário" stroke="none" stroke-width="1" fill="none" fill-rule="evenodd">
        <g id="Produtos-e-soluções" transform="translate(-1314.000000, -1053.000000)" fill="#000000" fill-rule="nonzero">
            <g id="Principais-categorias" transform="translate(40.000000, 780.000000)">
                <g id="Card-Copy-9" transform="translate(1250.000000, 241.000000)">
                    <g id="Group-4">
                        <g id="trowel" transform="translate(24.000000, 32.000000)">
                            <path d="M16.8264322,20.8496094 C17.0488281,21.7583333 17.2420572,22.6497396 17.4143229,23.5147136 C17.5004557,23.9513021 17.8832682,24.266211 18.3285156,24.2666667 C18.3895833,24.2666667 18.4506511,24.2607422 18.5108072,24.2488932 C19.016211,24.1486328 19.3447917,23.6573568 19.2445313,23.1519531 C19.0686197,22.2605469 18.8680989,21.3427083 18.6402344,20.4066406 C18.5618489,20.0821614 18.3157553,19.8242187 17.9949219,19.7303386 C17.6745443,19.6364583 17.3281901,19.7212239 17.0871094,19.9522786 C16.8460286,20.1828776 16.7466797,20.525586 16.8264322,20.8496094 Z" id="Shape"></path>
                            <path d="M15.9085938,17.5159505 C16.0621745,18.0072265 16.5839844,18.2815755 17.0757161,18.1289062 C17.5669922,17.9766928 17.8427083,17.4553386 17.6914062,16.9636068 C16.9417318,14.5022136 15.985612,12.1087239 14.8321614,9.80865888 C14.6817708,9.51061195 14.3832682,9.31555987 14.0496745,9.2973307 C13.7160807,9.27910153 13.3979818,9.44088542 13.2161458,9.72070307 C13.0338542,10.0009765 13.015625,10.3569011 13.1678386,10.6544922 C14.2734375,12.8602214 15.1903646,15.1557292 15.9085938,17.5159505 Z" id="Shape"></path>
                            <path d="M0.0364583333,34.7611979 C0.0569661167,34.8391276 0.0875,34.9138672 0.127604167,34.9840495 C0.1417318,35.0091146 0.149934867,35.0360026 0.166341117,35.0601562 C0.2301432,35.1522136 0.309440133,35.2319661 0.401497367,35.2957682 C0.406966117,35.2998697 0.40970055,35.30625 0.415625,35.3098958 C0.4584636,35.3345053 0.5035807,35.3559244 0.550065133,35.3732422 C0.5787761,35.3901042 0.607942767,35.4051432 0.638020833,35.4188151 L9.33333333,38.3172526 L9.33333333,41.0666667 L8.4,41.0666667 C7.88457028,41.0666667 7.46666667,41.4845703 7.46666667,42 L7.46666667,51.3333333 C7.46666667,53.9104818 9.55618487,56 12.1333333,56 C14.7104818,56 16.8,53.9104818 16.8,51.3333333 L16.8,42 C16.8,41.4845703 16.3820964,41.0666667 15.8666667,41.0666667 L14.9333333,41.0666667 L14.9333333,39.2 L52.2666667,39.2 C54.3283854,39.2 56,37.5283854 56,35.4666667 C56,33.4049479 54.3283854,31.7333333 52.2666667,31.7333333 L42.9333333,31.7333333 L42.9333333,25.2 C42.9333333,24.6845703 42.5154297,24.2666667 42,24.2666667 L41.0666667,24.2666667 L41.0666667,19.6 C41.0666667,19.0845703 40.648763,18.6666667 40.1333333,18.6666667 L33.6,18.6666667 L33.6,16.8 L42,16.8 C43.546289,16.8 44.8,15.546289 44.8,14 C44.8,12.453711 43.546289,11.2 42,11.2 L35.4666667,11.2 L35.4666667,7.46666667 L44.8,7.46666667 C46.8617188,7.46666667 48.5333333,5.79505208 48.5333333,3.73333333 C48.5333333,1.67161458 46.8617188,0 44.8,0 L12.1333333,0 C12.0080078,0.002734375 11.8845053,0.0309895833 11.7705729,0.0829427667 L11.7496094,0.09296875 C11.6479818,0.138541667 11.5559244,0.20188805 11.4770833,0.280273467 C11.4684245,0.288932233 11.4561197,0.291666667 11.4479167,0.30032555 L11.4260417,0.324934867 L11.4205729,0.331770833 C0.1307943,12.5968099 0,33.6428386 0,34.5333333 C0.0123047167,34.6094401 0.0241536167,34.6850911 0.0364583333,34.7611979 Z M5.2272136,34.9808594 L9.15924473,29.4756511 C9.45865888,29.0563803 9.3615886,28.4735026 8.94231777,28.1740886 C8.52304693,27.8746745 7.9401693,27.9717447 7.64075527,28.3910156 L3.37467445,34.3633464 L2.38756513,34.0343099 L5.44322917,29.4510417 C5.6319011,29.1735026 5.65742193,28.816211 5.50976557,28.5149739 C5.36210943,28.2132813 5.0636068,28.0145833 4.72864583,27.9940756 C4.39368487,27.9735678 4.07376305,28.1344401 3.89010417,28.415625 L2.03619792,31.1964844 C2.53294277,24.9416015 4.4834636,11.2815755 12.1301432,2.34244792 C12.1620443,2.38027347 12.1957682,2.4162761 12.2276693,2.45364583 C12.374414,2.62727862 12.5156901,2.80455723 12.6583333,2.98092445 C12.7932292,3.14817708 12.9290364,3.3145182 13.0602864,3.48496097 C13.1997396,3.66542972 13.3341797,3.85 13.4695313,4.03365888 C13.5962239,4.20592445 13.7233724,4.37727862 13.8464193,4.55182292 C13.9790364,4.73958333 14.1070964,4.93053388 14.2351562,5.12102862 C14.3531901,5.29648443 14.4716797,5.47148443 14.5865235,5.64921875 C14.7123047,5.84381513 14.8339844,6.04114583 14.955664,6.23893223 C15.0659506,6.41712237 15.1766928,6.5957682 15.2833333,6.77623695 C15.4013672,6.97539057 15.5157553,7.17636722 15.6296875,7.37779945 C15.7335938,7.56009112 15.8370443,7.7428386 15.9373047,7.92695307 C16.0485026,8.13111973 16.1569661,8.33710943 16.2645182,8.5430989 C16.3602214,8.7272136 16.4563803,8.91178388 16.5493489,9.09680987 C16.6541667,9.30598958 16.75625,9.5160807 16.8574219,9.72617193 C16.946289,9.91119792 17.0351562,10.0966797 17.121289,10.2826172 C17.2197265,10.4949869 17.3154297,10.7087239 17.4106771,10.922461 C17.493164,11.1088542 17.5756511,11.2957031 17.6558594,11.4834636 C17.747461,11.6981119 17.8372396,11.9127604 17.9251953,12.1283203 C18.0017578,12.315625 18.0774089,12.5024739 18.1516928,12.6902344 C18.2373697,12.9071614 18.3216797,13.1245443 18.403711,13.3423828 C18.4743489,13.5292318 18.5440756,13.7160807 18.6124349,13.9033854 C18.6921875,14.1212239 18.7701172,14.3395182 18.8462239,14.5573568 C18.9113932,14.74375 18.9751953,14.9296875 19.038086,15.115625 C19.1123697,15.3357422 19.1848307,15.5554036 19.2559245,15.7746094 C19.3151693,15.9573568 19.3730469,16.1396485 19.4295572,16.3219401 C19.4988281,16.5438803 19.5667318,16.7658203 19.6332682,16.9873047 C19.6865886,17.1668619 19.7389974,17.3459636 19.7904947,17.5246094 C19.8538411,17.745638 19.9162761,17.9657553 19.9773438,18.1854167 C20.0265625,18.3645182 20.0748697,18.5427083 20.1218099,18.7204428 C20.1796875,18.9382812 20.2366536,19.155664 20.2917969,19.3716797 C20.3364583,19.5475911 20.3802083,19.7230469 20.4225911,19.8975911 C20.4759114,20.1145182 20.5283203,20.3309896 20.5789063,20.5460937 C20.6185547,20.715625 20.656836,20.8842447 20.6951172,21.0528646 C20.7438803,21.2684244 20.7921875,21.4835286 20.8382161,21.6968099 C20.8737631,21.8631511 20.9079428,22.0276693 20.9421224,22.1921875 C20.9863281,22.4031901 21.0296224,22.6137369 21.0710937,22.8220053 C21.1029947,22.9828776 21.1330729,23.1414714 21.1636068,23.3000651 C21.2032553,23.508789 21.2433594,23.717513 21.2807292,23.9230469 C21.3085286,24.0770833 21.334961,24.2283854 21.3613932,24.3805989 C21.3969401,24.5833985 21.4324869,24.7861979 21.4657553,24.9848958 C21.4908203,25.1366536 21.5145182,25.2856771 21.5382161,25.4351562 C21.5692057,25.6292969 21.6006511,25.8238932 21.6293619,26.0139322 C21.6516928,26.1593099 21.6717447,26.3010417 21.6927083,26.4436849 C21.7200521,26.6323568 21.7478515,26.8210286 21.7733724,27.0051432 C21.792513,27.1441406 21.8098307,27.2785807 21.8276042,27.4148437 C21.8517578,27.5939453 21.8754557,27.774414 21.8973307,27.9489583 C21.913737,28.0811197 21.9287761,28.2087239 21.9442708,28.3381511 C21.9647786,28.5108724 21.9857422,28.6845053 22.0048828,28.8517578 C22.0185547,28.9725261 22.0304036,29.0882812 22.043164,29.2063151 C22.0609375,29.3708333 22.0791667,29.5371744 22.0951172,29.6957682 C22.1069661,29.8128906 22.1169922,29.9240886 22.1279297,30.0380208 C22.142513,30.1897786 22.1575521,30.3429036 22.1707682,30.4882812 C22.1807943,30.5999349 22.1889974,30.7047526 22.1981119,30.8127604 C22.209961,30.9490235 22.2222656,31.0880208 22.2322917,31.2179036 C22.2404947,31.3236328 22.2473307,31.4207031 22.2550781,31.521875 C22.2641928,31.646289 22.2742188,31.7743489 22.2824219,31.8919271 C22.2888021,31.988086 22.2942708,32.075586 22.3001953,32.1676432 C22.3070313,32.2765625 22.3147786,32.3891276 22.3207031,32.491211 C22.3270833,32.5923828 22.3316406,32.6821614 22.3366536,32.7760417 C22.341211,32.8594401 22.3462239,32.9478515 22.3503256,33.0257812 C22.3548828,33.1132812 22.3580729,33.189388 22.3617188,33.2705078 C22.3649089,33.3420572 22.3685547,33.4204428 22.371289,33.4865235 C22.3772136,33.6255208 22.3817708,33.7526693 22.3854167,33.8656901 L14.9333333,36.349414 L14.9333333,32.6666667 C14.9333333,32.1512369 14.5154297,31.7333333 14,31.7333333 L10.2666667,31.7333333 C9.75123695,31.7333333 9.33333333,32.1512369 9.33333333,32.6666667 L9.33333333,36.349414 L5.2272136,34.9808594 Z M14.9333333,51.3333333 C14.9333333,52.8796224 13.6796224,54.1333333 12.1333333,54.1333333 C10.5870443,54.1333333 9.33333333,52.8796224 9.33333333,51.3333333 L9.33333333,42.9333333 L14.9333333,42.9333333 L14.9333333,51.3333333 Z M11.2,41.0666667 L11.2,33.6 L13.0666667,33.6 L13.0666667,41.0666667 L11.2,41.0666667 Z M44.8,1.86666667 C45.8308594,1.86666667 46.6666667,2.7024739 46.6666667,3.73333333 C46.6666667,4.76419277 45.8308594,5.6 44.8,5.6 L34.5333333,5.6 C34.0179036,5.6 33.6,6.01790362 33.6,6.53333333 L33.6,12.1333333 C33.6,12.6487631 34.0179036,13.0666667 34.5333333,13.0666667 L42,13.0666667 C42.5154297,13.0666667 42.9333333,13.4845703 42.9333333,14 C42.9333333,14.5154297 42.5154297,14.9333333 42,14.9333333 L32.6666667,14.9333333 C32.1512369,14.9333333 31.7333333,15.351237 31.7333333,15.8666667 L31.7333333,19.6 C31.7333333,20.1154297 32.1512369,20.5333333 32.6666667,20.5333333 L39.2,20.5333333 L39.2,25.2 C39.2,25.7154297 39.6179036,26.1333333 40.1333333,26.1333333 L41.0666667,26.1333333 L41.0666667,32.6666667 C41.0666667,33.1820964 41.4845703,33.6 42,33.6 L52.2666667,33.6 C53.2975261,33.6 54.1333333,34.4358072 54.1333333,35.4666667 C54.1333333,36.4975261 53.2975261,37.3333333 52.2666667,37.3333333 L17.8846354,37.3333333 L23.6286458,35.4188151 C24.0096354,35.2916667 24.2666667,34.9348307 24.2666667,34.5333333 C24.2666667,34.4786458 24.266211,34.3473958 24.2625651,34.1486979 C24.2621094,34.1149739 24.2607422,34.0716797 24.2602864,34.0343099 C24.2584636,33.9604818 24.2570964,33.8884765 24.2548178,33.8000651 C24.2534506,33.7481119 24.2511719,33.6856771 24.2493489,33.628711 C24.2466146,33.539388 24.2438803,33.4523437 24.2402344,33.3511719 C24.2379557,33.2864583 24.2347656,33.2135417 24.2320312,33.1438151 C24.2274739,33.0335286 24.2229167,32.9241536 24.2174479,32.8020182 C24.2138021,32.730013 24.2097006,32.6507161 24.2055989,32.5741536 C24.1992188,32.4419922 24.1919271,32.309375 24.1837239,32.1658203 C24.1791667,32.0828776 24.1732422,31.9944661 24.1677735,31.9078776 C24.1586589,31.7583985 24.1495443,31.6080078 24.1381511,31.4480469 C24.1317708,31.3541667 24.1244792,31.2557292 24.1171875,31.1582031 C24.1048828,30.9909505 24.0921224,30.821875 24.0779947,30.6445964 C24.0697917,30.5438803 24.0606771,30.4399739 24.0520182,30.3360678 C24.0365235,30.1528646 24.0201172,29.9669271 24.001888,29.7741536 C23.9914063,29.6606771 23.9800131,29.5449219 23.9686197,29.428711 C23.9494792,29.2341146 23.9294271,29.0367839 23.9080078,28.8335286 C23.8947917,28.7118489 23.8815756,28.5888021 23.8674479,28.4639322 C23.8442057,28.2547526 23.8195964,28.0423828 23.793164,27.8254557 C23.7776693,27.6969401 23.7617188,27.5675131 23.7453125,27.4362631 C23.7175131,27.2138672 23.6878906,26.9882812 23.6569011,26.7585938 C23.6382161,26.6227864 23.6195313,26.4860678 23.5999349,26.3475261 C23.5675781,26.1164714 23.5329428,25.8822265 23.4973958,25.6447917 C23.4755208,25.4998697 23.4531901,25.3554036 23.4304036,25.2082031 C23.3921224,24.9657553 23.3524739,24.7205729 23.3105469,24.4722006 C23.2854818,24.3236328 23.2608724,24.1759765 23.2344401,24.025586 C23.1902344,23.7717447 23.1432943,23.5147136 23.0954428,23.2558594 C23.0676432,23.1045572 23.0398438,22.9541667 23.0102214,22.8010417 C22.9591797,22.5344401 22.9044922,22.2646485 22.8493489,21.9934896 C22.8183594,21.8430989 22.788737,21.6940756 22.7563803,21.5423178 C22.6971354,21.2615886 22.633789,20.978125 22.569987,20.6932943 C22.5367187,20.5451822 22.5043619,20.3988932 22.4701822,20.2498697 C22.4022786,19.9572917 22.3298178,19.6619792 22.2564453,19.3657553 C22.2204428,19.2199219 22.1858072,19.0754557 22.1488932,18.928711 C22.0705078,18.6210938 21.9871094,18.3111979 21.9032553,18.0003906 C21.8658854,17.8632161 21.8307943,17.7269531 21.7925131,17.5893229 C21.7009114,17.2602864 21.6033854,16.9289714 21.5049479,16.5972006 C21.4684896,16.4750651 21.4347656,16.3538411 21.3973958,16.23125 C21.2875651,15.8698568 21.1713542,15.5070964 21.0528646,15.1438803 C21.0223307,15.05 20.9940755,14.9570313 20.963086,14.8631511 C20.818164,14.4265625 20.666862,13.9895182 20.5091797,13.5520182 C20.5014322,13.5310547 20.4950521,13.5100911 20.4873047,13.4895833 C20.1500651,12.5571614 19.7827474,11.6242839 19.3826172,10.6977864 L19.3725911,10.6754557 C19.179362,10.2283854 18.9783854,9.78313805 18.7692057,9.33925778 L18.7669271,9.33333333 L28,9.33333333 L28,7.46666667 L18.6666667,7.46666667 L18.6666667,9.12871097 C18.652539,9.09863278 18.6370443,9.06901042 18.622461,9.03938805 C18.4547526,8.68984375 18.2852214,8.34166667 18.107487,7.9957682 C18.0363932,7.85768223 17.9607422,7.721875 17.8878255,7.58470055 C17.7260417,7.27845055 17.5638021,6.97265625 17.3938151,6.67005208 C17.3063151,6.51419277 17.2133464,6.36061195 17.1235678,6.20611973 C16.9608724,5.92584638 16.7981771,5.64602862 16.6281901,5.3698568 C16.5256511,5.20305987 16.4180989,5.03990888 16.3128255,4.87493487 C16.1464844,4.61380208 15.9796875,4.353125 15.8060547,4.09563805 C15.6916667,3.9265625 15.5722656,3.76022138 15.4551432,3.59296875 C15.2815104,3.3459636 15.1078776,3.09895833 14.9278646,2.85651042 C14.8007161,2.68561195 14.6690104,2.51790362 14.5386719,2.34928388 C14.4147136,2.18886722 14.2957682,2.02480472 14.1686197,1.86666667 L44.8,1.86666667 Z" id="Shape"></path>
                            <path d="M56,6.53333333 L56,0.933333333 C56,0.417903617 55.5820964,0 55.0666667,0 L51.3333333,0 C50.8179036,0 50.4,0.417903617 50.4,0.933333333 L50.4,6.53333333 C50.4,7.04876305 50.8179036,7.46666667 51.3333333,7.46666667 L55.0666667,7.46666667 C55.5820964,7.46666667 56,7.04876305 56,6.53333333 Z M54.1333333,5.6 L52.2666667,5.6 L52.2666667,1.86666667 L54.1333333,1.86666667 L54.1333333,5.6 Z" id="Shape"></path>
                            <path d="M45.7333333,24.2666667 C45.2179036,24.2666667 44.8,24.6845703 44.8,25.2 L44.8,28.9333333 C44.8,29.4487631 45.2179036,29.8666667 45.7333333,29.8666667 L49.4666667,29.8666667 C49.9820964,29.8666667 50.4,29.4487631 50.4,28.9333333 L50.4,25.2 C50.4,24.6845703 49.9820964,24.2666667 49.4666667,24.2666667 L45.7333333,24.2666667 Z M48.5333333,28 L46.6666667,28 L46.6666667,26.1333333 L48.5333333,26.1333333 L48.5333333,28 Z" id="Shape"></path>
                            <path d="M54.1333333,15.8666667 L54.1333333,12.1333333 C54.1333333,11.6179036 53.7154297,11.2 53.2,11.2 L47.6,11.2 C47.0845703,11.2 46.6666667,11.6179036 46.6666667,12.1333333 L46.6666667,15.8666667 C46.6666667,16.3820964 47.0845703,16.8 47.6,16.8 L53.2,16.8 C53.7154297,16.8 54.1333333,16.3820964 54.1333333,15.8666667 Z M52.2666667,14.9333333 L48.5333333,14.9333333 L48.5333333,13.0666667 L52.2666667,13.0666667 L52.2666667,14.9333333 Z" id="Shape"></path>
                            <polygon id="Shape" points="18.6666667 3.73333333 24.2666667 3.73333333 24.2666667 5.6 18.6666667 5.6"></polygon>
                            <polygon id="Shape" points="26.1333333 3.73333333 28 3.73333333 28 5.6 26.1333333 5.6"></polygon>
                            <polygon id="Shape" points="29.8666667 35.4666667 29.8666667 33.6 24.2666667 33.6 24.2666667 35.4666667"></polygon>
                            <polygon id="Shape" points="24.2666667 29.8666667 28 29.8666667 28 31.7333333 24.2666667 31.7333333"></polygon>
                            <polygon id="Shape" points="31.7333333 33.6 33.6 33.6 33.6 35.4666667 31.7333333 35.4666667"></polygon>
                        </g>
                    </g>
                </g>
            </g>
        </g>
    </g>
</svg>