<?xml version="1.0" encoding="UTF-8"?>
<svg width="48px" height="34px" viewBox="0 0 48 34" version="1.1" xmlns="http://www.w3.org/2000/svg" xmlns:xlink="http://www.w3.org/1999/xlink">
    <!-- Generator: sketchtool 64 (101010) - https://sketch.com -->
    <title>E070C720-A5C4-4BA9-84FA-BAFA782BB99C</title>
    <desc>Created with sketchtool.</desc>
    <g id="Pac-auxiliar" stroke="none" stroke-width="1" fill="none" fill-rule="evenodd">
        <g id="Acessibilidade" transform="translate(-336.000000, -2284.000000)" fill="#000000">
            <g id="Group-3" transform="translate(336.000000, 1989.000000)">
                <g id="Group-2" transform="translate(0.000000, 286.000000)">
                    <path d="M20.8529684,33.1655172 L8.00562235,33.1655172 L4.79378584,42.1034483 L0,42.1034483 L12.0324025,9 L16.8261883,9 L28.8585907,42.1034483 L24.0648049,42.1034483 L20.8529684,33.1655172 Z M19.4148326,29.0985222 L14.4292954,15.2896552 L9.4437581,29.0985222 L19.4148326,29.0985222 Z M37.6933604,30.6118227 L31.2217496,30.6118227 L31.2217496,27.017734 L37.6933604,27.017734 L37.6933604,20.7280788 L41.5283891,20.7280788 L41.5283891,27.017734 L48,27.017734 L48,30.6118227 L41.5283891,30.6118227 L41.5283891,36.9014778 L37.6933604,36.9014778 L37.6933604,30.6118227 Z" id="A+"></path>
                </g>
            </g>
        </g>
    </g>
</svg>