<?xml version="1.0" encoding="UTF-8"?>
<svg width="48px" height="38px" viewBox="0 0 48 38" version="1.1" xmlns="http://www.w3.org/2000/svg" xmlns:xlink="http://www.w3.org/1999/xlink">
    <!-- Generator: sketchtool 64 (101010) - https://sketch.com -->
    <title>F568FE11-DF68-4F14-A6CD-451303A2BDAB</title>
    <desc>Created with sketchtool.</desc>
    <g id="Pac-auxiliar" stroke="none" stroke-width="1" fill="none" fill-rule="evenodd">
        <g id="Acessibilidade" transform="translate(-999.000000, -2481.000000)" fill="#000000" fill-rule="nonzero">
            <g id="Group-3" transform="translate(336.000000, 1989.000000)">
                <g id="Group-2-Copy-3" transform="translate(663.000000, 492.000000)">
                    <g id="audio">
                        <path d="M25.2041351,0.138895295 C24.7045975,-0.0994236827 24.1133762,-0.0269210077 23.6853919,0.324563522 L9.6425265,11.8549823 L1.43106656,11.8549823 C0.640736203,11.8549823 0,12.4990669 0,13.2935275 L0,24.5239617 C0,25.3184222 0.640736203,25.9625068 1.43106656,25.9625068 L9.64281272,25.9625068 L23.6853919,37.4926379 C23.9459414,37.7064057 24.2670727,37.8170778 24.5908754,37.8170778 C24.7992387,37.8170778 25.0086514,37.7713321 25.2041351,37.6783061 C25.7034819,37.4402749 26.0217512,36.9341947 26.0217512,36.3785327 L26.0217512,1.43866878 C26.0217512,0.883006745 25.7034819,0.377118371 25.2041351,0.138895295 Z M2.86213313,14.7320726 L8.72158747,14.7320726 L8.72158747,23.0854165 L2.86213313,23.0854165 L2.86213313,14.7320726 Z M23.159618,33.3459836 L11.5837206,23.8413241 L11.5837206,13.9758774 L23.159618,4.47112194 L23.159618,33.3459836 Z" id="Shape"></path>
                        <path d="M40.7808566,3.43895796 C40.2059072,2.88750231 39.273639,2.88750231 38.6984932,3.43895796 C38.1235437,3.99031946 38.1235437,4.88458714 38.6984932,5.4362311 C42.4438613,9.02855464 44.50669,13.8131409 44.50669,18.908433 C44.50669,24.003725 42.4438613,28.7884055 38.6984932,32.3806349 C38.1235437,32.9320905 38.1235437,33.826264 38.6984932,34.377908 C38.9861152,34.653777 39.3628705,34.7917116 39.7395277,34.7917116 C40.1163812,34.7917116 40.4933328,34.653777 40.7806603,34.377908 C45.0823266,30.2522062 47.4514286,24.7582693 47.4514286,18.908433 C47.4514286,13.0585967 45.082523,7.56484803 40.7808566,3.43895796 Z" id="Shape"></path>
                        <path d="M36.3355869,7.97667352 C35.7272063,7.42566291 34.7404578,7.42566291 34.1316617,7.97667352 C33.5230733,8.52749602 33.5230733,9.42088947 34.1315578,9.97199415 C39.5740502,14.8996733 39.5740502,22.9174516 34.1316617,27.8449426 C33.5230733,28.3958591 33.5230733,29.2892526 34.1316617,29.8402632 C34.4359559,30.1158626 34.834894,30.2536622 35.2335204,30.2536622 C35.6321468,30.2536622 36.0311888,30.1158626 36.3352753,29.8402632 C42.9930744,23.8125381 42.9930744,14.0045867 36.3355869,7.97667352 Z" id="Shape"></path>
                        <path d="M31.2694583,12.5137788 C30.7693928,11.9639331 29.9585472,11.9641208 29.4582255,12.5137788 C28.9580746,13.063343 28.9581599,13.9546955 29.4581401,14.5045412 C31.6673251,16.9329092 31.6673251,20.8840279 29.4581401,23.3123958 C28.9581599,23.8621477 28.9581599,24.7534064 29.4582255,25.3031582 C29.708301,25.578128 30.0361568,25.7156129 30.3637565,25.7156129 C30.6913562,25.7156129 31.0192975,25.578128 31.2692876,25.3031582 C34.4771522,21.7770696 34.4771522,16.0398674 31.2694583,12.5137788 Z" id="Shape"></path>
                    </g>
                </g>
            </g>
        </g>
    </g>
</svg>