<?xml version="1.0" encoding="UTF-8"?>
<svg width="48px" height="48px" viewBox="0 0 48 48" version="1.1" xmlns="http://www.w3.org/2000/svg" xmlns:xlink="http://www.w3.org/1999/xlink">
    <!-- Generator: sketchtool 64 (101010) - https://sketch.com -->
    <title>7F768CC6-F921-4652-864E-D8CE984DA809</title>
    <desc>Created with sketchtool.</desc>
    <g id="Pac-auxiliar" stroke="none" stroke-width="1" fill="none" fill-rule="evenodd">
        <g id="Acessibilidade" transform="translate(-336.000000, -2570.000000)" fill="#000000" fill-rule="nonzero">
            <g id="Group-3" transform="translate(336.000000, 1989.000000)">
                <g id="Group-2-Copy-2" transform="translate(0.000000, 581.000000)">
                    <g id="moon-phase-outline">
                        <path d="M47.9648367,32.8673011 C47.8889242,32.4500301 47.6979995,32.095514 47.3936634,31.8035339 C46.7191393,31.1570376 45.9357768,31.0213424 45.0438044,31.3965578 C42.6501585,32.4597774 40.1688244,32.9909491 37.6015171,32.9909491 C34.380836,32.9909491 31.4105292,32.2308807 28.6905965,30.7087725 C25.9706639,29.1871025 23.8167598,27.1235277 22.2283127,24.5176102 C20.639294,21.9118022 19.8452991,19.0664741 19.8452991,15.9810783 C19.8452991,13.5839058 20.3406742,11.3064387 21.3305097,9.14878627 C22.3205739,6.99124342 23.7514796,5.09950546 25.6226552,3.47346288 C26.3409662,2.82751427 26.5044525,2.07686458 26.1127712,1.22206144 C25.7428119,0.36769637 25.0791488,-0.038622615 24.1217819,0.00288544298 C20.792491,0.127847697 17.6372045,0.842246278 14.6559223,2.14465743 C11.6747545,3.44739714 9.11236321,5.16160327 6.96886283,7.2882615 C4.8255911,9.41448165 3.1280769,11.9317975 1.87677755,14.8396615 C0.625821168,17.7477445 0,20.7964511 0,23.9857814 C0,27.2378665 0.663777439,30.3438521 1.99110366,33.3039571 C3.31877287,36.2640621 5.10283193,38.817629 7.3443098,40.9647675 C9.58555901,43.1112488 12.2511868,44.8206361 15.3415361,46.0927102 C18.4315424,47.3639082 21.6733737,48 25.0678305,48 C29.9426962,48 34.4410859,46.7336209 38.564486,44.2007532 C42.6881147,41.6682141 45.7727477,38.2860192 47.8184993,34.0542782 C47.9927323,33.6793914 48.0415495,33.2836959 47.9648367,32.8673011 Z M33.9952141,42.0739855 C31.1775326,43.3565735 28.2016237,43.9973747 25.0678305,43.9973747 C22.2390594,43.9973747 19.5355897,43.4658744 16.9567354,42.4029834 C14.3782242,41.3400923 12.158354,39.9174283 10.2976964,38.1347722 C8.43749613,36.3526637 6.95262852,34.2264435 5.84240759,31.7562213 C4.73264397,29.2858894 4.17770499,26.6960714 4.17770499,23.9860004 C4.17770499,19.5042253 5.56505243,15.5019286 8.33951865,11.9786721 C11.1137562,8.45596312 14.6881623,6.06908551 19.0619366,4.81836777 C16.7988511,8.25784155 15.6671368,11.9786721 15.6671368,15.9812974 C15.6671368,19.7755062 16.6462257,23.2879203 18.6049751,26.5196347 C20.5631528,29.7503635 23.2290092,32.3034924 26.602087,34.1803356 C29.9745931,36.0563027 33.6405744,36.994341 37.6015171,36.994341 C38.8197762,36.994341 40.0171136,36.9007015 41.1922718,36.7128748 C39.2123721,39.0060033 36.8127812,40.7930402 33.9952141,42.0739855 Z" id="Shape"></path>
                    </g>
                </g>
            </g>
        </g>
    </g>
</svg>