<?xml version="1.0" encoding="UTF-8"?>
<svg width="48px" height="48px" viewBox="0 0 48 48" version="1.1" xmlns="http://www.w3.org/2000/svg" xmlns:xlink="http://www.w3.org/1999/xlink">
    <!-- Generator: sketchtool 64 (101010) - https://sketch.com -->
    <title>4C837588-9B8A-49D0-B0A0-9AC1678C4772</title>
    <desc>Created with sketchtool.</desc>
    <g id="Pac-secundário" stroke="none" stroke-width="1" fill="none" fill-rule="evenodd">
        <g id="Institucional" transform="translate(-1184.000000, -846.000000)" fill="#000000" fill-rule="nonzero">
            <g id="Group-4" transform="translate(336.000000, 770.000000)">
                <g id="Group-2-Copy" transform="translate(848.000000, 76.000000)">
                    <g id="brain">
                        <path d="M41.7309942,23.2347135 C41.7309942,20.7952281 40.3787602,18.6151111 38.2239064,17.478924 C38.4864561,15.9941053 38.1488655,14.4722339 37.2538947,13.1989708 C36.3296374,11.8839766 34.9497076,11.0225029 33.3799298,10.7553684 C33.2772865,9.68776608 32.831345,8.68566082 32.0817778,7.86647953 C31.0986667,6.79185965 29.6874854,6.17553216 28.2102456,6.17553216 C26.450152,6.17553216 24.8929123,7.03532164 23.9534035,8.34647953 C23.0138947,7.03532164 21.456655,6.17553216 19.6965614,6.17553216 C18.2193216,6.17553216 16.8081404,6.79185965 15.8250292,7.86647953 C15.075462,8.68566082 14.6295205,9.68785965 14.5268772,10.7553684 C12.9570994,11.0225029 11.5771696,11.8839766 10.6529123,13.1988772 C9.75784795,14.4721404 9.42025731,15.9941053 9.68280702,17.478924 C7.52767251,18.6151111 6.1754386,20.7952281 6.1754386,23.2347135 C6.1754386,25.376 7.21749708,27.325848 8.95597661,28.5441871 C7.95583626,30.1215439 7.80519298,32.0200234 8.58021053,33.8068772 C9.5302924,35.997193 11.6609123,37.4123977 14.0081404,37.4123977 C14.1908772,37.4123977 14.3746433,37.4039766 14.5590643,37.3873216 C14.7043743,38.3596725 15.136655,39.2826199 15.8127719,40.0268538 C16.7968187,41.1098947 18.2122105,41.7310877 19.6964678,41.7310877 C21.4565614,41.7310877 23.0138012,40.8712982 23.9533099,39.5601404 C24.8928187,40.8712982 26.450152,41.7310877 28.210152,41.7310877 C29.6941287,41.7310877 31.109614,41.1099883 32.0935673,40.0270409 C32.7698713,39.2827135 33.2022456,38.3598596 33.347462,37.3873216 C33.5316959,37.4039766 33.7153684,37.4123977 33.8978246,37.4123977 C33.8980117,37.4123977 33.8982924,37.4123977 33.8985731,37.4123977 C36.2459883,37.412117 38.3766082,35.9966316 39.3265965,33.8063158 C40.1014269,32.0196491 39.9508772,30.1213567 38.9506433,28.5441871 C40.6890292,27.325848 41.7309942,25.3760936 41.7309942,23.2347135 Z M23.0176374,36.6634854 L23.0176374,36.6634854 C23.0176374,38.4259181 21.5276725,39.8597427 19.6964678,39.8597427 C18.7386199,39.8597427 17.8279298,39.4619883 17.197848,38.7684678 C16.7278596,38.2510409 16.4507135,37.6209591 16.3892398,36.9520468 C18.0764444,36.2821988 18.5121871,35.1387135 18.8393918,34.2777076 C19.1141053,33.5545263 19.2520234,33.1914854 20.0350877,32.981614 C20.534269,32.8479064 20.8305029,32.3347836 20.6967018,31.8356959 C20.5629942,31.3365146 20.0496842,31.0400936 19.5507836,31.1740819 C17.8427135,31.6318129 17.4077193,32.7768889 17.0899649,33.6130058 C16.7698713,34.4552982 16.5585029,35.0117427 15.2163743,35.3713216 C15.2152515,35.3716959 15.2142222,35.3720702 15.2130994,35.3723509 C15.2120702,35.3726316 15.2110409,35.3727251 15.2100117,35.3730058 C14.8057076,35.4843509 14.4013099,35.5408655 14.0081404,35.5408655 C12.406924,35.5408655 10.9501754,34.5678596 10.297076,33.0619883 C9.67214035,31.6214269 9.94545029,30.0706433 11.028117,28.9137778 C11.2319064,28.6959532 11.3196725,28.3941053 11.2643743,28.1009591 C11.2089825,27.8079064 11.0172632,27.5586433 10.7480702,27.4301754 C9.08191813,26.6344795 8.04678363,25.026807 8.04678363,23.2347135 C8.04678363,21.3013333 9.25052632,19.5928889 11.1134503,18.882152 C11.5819415,18.7034386 11.8262456,18.1872281 11.667462,17.7116257 C11.2787836,16.5473684 11.4668538,15.2947836 12.1836725,14.2750877 C12.9358596,13.2051462 14.1333333,12.5730994 15.4699415,12.5397895 C17.0614269,12.5435322 17.4127719,13.1787602 17.8981053,14.057076 C18.3403041,14.8573567 18.9457778,15.9533099 20.5740351,15.9533099 C21.0907135,15.9533099 21.5097076,15.5344094 21.5097076,15.0176374 C21.5097076,14.5008655 21.0907135,14.0819649 20.5740351,14.0819649 C20.091883,14.0819649 19.9656608,13.9296374 19.536,13.1520936 C19.0603041,12.2911813 18.3723041,11.0475789 16.416655,10.7396491 C16.5134971,10.1471813 16.7821287,9.59251462 17.205614,9.12973099 C17.8352281,8.44163743 18.7431111,8.04697076 19.6964678,8.04697076 C21.5276725,8.04697076 23.0176374,9.48079532 23.0176374,11.2432281 L23.0176374,23.8988538 C20.8206784,23.6852398 20.2717193,22.6808889 19.5989708,21.4460819 C18.940538,20.2375673 18.1211696,18.7335673 15.658386,18.473076 C15.1449825,18.419462 14.683883,18.7912982 14.6295205,19.3051696 C14.5751579,19.8190409 14.9476491,20.2796725 15.461614,20.3341287 C16.9477427,20.4913216 17.3487719,21.2273216 17.9556491,22.3414269 C18.175345,22.7447018 18.409731,23.1735205 18.7080234,23.5873684 C18.214924,24.0883275 17.4711579,24.6072515 16.6273684,25.0256842 C16.1643977,25.2552982 15.9752047,25.8167018 16.2047251,26.2795789 C16.368,26.6090292 16.6993216,26.7999064 17.0437427,26.7999064 C17.183345,26.7999064 17.3250994,26.7685614 17.4587135,26.7023158 C18.5071345,26.1824561 19.4082807,25.5467602 20.0555789,24.8838363 C20.7635088,25.3356725 21.7069474,25.6682105 23.0176374,25.7751579 L23.0176374,36.6634854 L23.0176374,36.6634854 Z M37.1585497,27.4303626 C36.8893567,27.558924 36.6976374,27.8080936 36.6422456,28.1011462 C36.5869474,28.3942924 36.674807,28.6961404 36.8785029,28.9139649 C37.9609825,30.0707368 38.2342924,31.6213333 37.6096374,33.0618012 C36.956538,34.5677661 35.4996959,35.5409591 33.8981988,35.5410526 C33.8981988,35.5410526 33.8979181,35.5410526 33.897731,35.5410526 C33.5050292,35.5410526 33.1008187,35.484538 32.6965146,35.373193 C32.6953918,35.3729123 32.6943626,35.3728187 32.6932398,35.3724444 C32.692117,35.3721637 32.6911813,35.3717895 32.690152,35.3715088 C31.3479298,35.0118363 31.136655,34.4554854 30.8165614,33.613193 C30.4989006,32.777076 30.0638129,31.6319064 28.3557427,31.174269 C27.8569357,31.0403743 27.3436257,31.3367018 27.2098246,31.835883 C27.0760234,32.3349708 27.3722573,32.8480936 27.8714386,32.9818012 C28.6545029,33.1916725 28.7924211,33.5547135 29.0671345,34.2778947 C29.3943392,35.1389006 29.8300819,36.282386 31.517193,36.9522339 C31.4558129,37.6211462 31.1786667,38.2513216 30.7084912,38.7687485 C30.0785029,39.4621754 29.1678129,39.8598363 28.2100585,39.8598363 C26.3788538,39.8598363 24.8889825,38.4260117 24.8889825,36.6635789 L24.8889825,29.9653801 C24.8910409,28.2830409 25.7767485,27.4458947 26.6061287,27.2237661 C27.6358363,26.947462 28.7145731,27.4843509 29.3533567,28.5906901 C29.6116959,29.0382222 30.1836725,29.1914854 30.6314854,28.9331462 C31.0790175,28.674807 31.2323743,28.1025497 30.9739415,27.6550175 C29.9156023,25.821848 27.9660351,24.9221988 26.121731,25.4161404 C25.6698012,25.5372164 25.2567018,25.7326784 24.8889825,25.9899883 L24.8889825,19.9546199 C26.8566082,20.1214503 27.4459883,20.841731 28.1679532,21.7242573 C28.8061754,22.5045146 29.5296374,23.3888187 31.087345,23.8842573 C31.1816608,23.9141988 31.2770994,23.9285146 31.3711345,23.9285146 C31.7676725,23.9285146 32.1359532,23.6742924 32.2624561,23.2761637 C32.4190877,22.7837193 32.1469006,22.2574971 31.6543626,22.1008655 C30.6262456,21.773848 30.1805848,21.2290994 29.6163743,20.5394152 C28.7484444,19.4784561 27.7748772,18.2890292 24.8889825,18.0794386 L24.8889825,11.2433216 C24.8889825,9.48088889 26.3788538,8.04706433 28.2100585,8.04706433 C29.1634152,8.04706433 30.0713918,8.44173099 30.7009123,9.12982456 C31.1243041,9.59270175 31.3929357,10.1471813 31.4898713,10.7397427 C29.5340351,11.0476725 28.8460351,12.2912749 28.3704327,13.1521871 C27.9408655,13.929731 27.8147368,14.0820585 27.3324912,14.0820585 C26.8158129,14.0820585 26.3968187,14.5009591 26.3968187,15.017731 C26.3968187,15.5345029 26.8158129,15.9534035 27.3324912,15.9534035 C28.960655,15.9534035 29.5662222,14.8574503 30.0084211,14.0571696 C30.4936608,13.1788538 30.8450058,12.5436257 32.4365848,12.539883 C33.773193,12.5730994 34.9706667,13.2052398 35.7228538,14.2752749 C36.4394854,15.2949708 36.6276491,16.547462 36.2388772,17.7116257 C36.0800936,18.1872281 36.3243977,18.7034386 36.7928889,18.8822456 C38.6558129,19.593076 39.8595556,21.3015205 39.8595556,23.234807 C39.8595556,25.0269006 38.8246082,26.6344795 37.1585497,27.4303626 Z" id="Shape"></path>
                        <path d="M34.0308772,22.3975673 L34.0189942,22.3975673 C33.5023158,22.3975673 33.0833216,22.8164678 33.0833216,23.3332398 C33.0833216,23.8500117 33.5023158,24.2689123 34.0189942,24.2689123 L34.0308772,24.2689123 C34.5475556,24.2689123 34.9665497,23.8500117 34.9665497,23.3332398 C34.9665497,22.8165614 34.5476491,22.3975673 34.0308772,22.3975673 Z" id="Shape"></path>
                        <path d="M15.4690058,26.5619649 C15.3677661,26.0552047 14.8740117,25.7266901 14.3680936,25.8279298 C14.3546199,25.8305497 14.3418012,25.8333567 14.3283275,25.8364444 C13.824655,25.9522807 13.5103626,26.4544561 13.6261988,26.9580351 C13.7257544,27.3910643 14.1109708,27.6842105 14.5371696,27.6842105 C14.6048187,27.6842105 14.6736842,27.6767251 14.7423626,27.6613801 C15.2449123,27.5567719 15.5698713,27.0661988 15.4690058,26.5619649 Z" id="Shape"></path>
                        <path d="M23.9532164,0 C23.436538,0 23.0175439,0.418900585 23.0175439,0.935672515 L23.0175439,2.80701754 C23.0175439,3.32378947 23.436538,3.74269006 23.9532164,3.74269006 C24.4698947,3.74269006 24.8888889,3.32378947 24.8888889,2.80701754 L24.8888889,0.935672515 C24.8888889,0.418900585 24.4698947,0 23.9532164,0 Z" id="Shape"></path>
                        <path d="M14.1904094,5.17221053 L13.2547368,3.55162573 C12.9963977,3.10409357 12.4241404,2.95083041 11.9766082,3.20916959 C11.529076,3.46750877 11.3757193,4.03976608 11.634152,4.48729825 L12.5698246,6.10788304 C12.7432047,6.40814035 13.0575906,6.57590643 13.3810526,6.57590643 C13.5397427,6.57590643 13.7006784,6.53539181 13.8479532,6.45033918 C14.2954854,6.192 14.4488421,5.61974269 14.1904094,5.17221053 Z" id="Shape"></path>
                        <path d="M6.10797661,12.5698246 L4.48720468,11.634152 C4.03957895,11.3757193 3.46732164,11.5291696 3.20907602,11.9767018 C2.95064327,12.4242339 3.104,12.9964912 3.55153216,13.2548304 L5.17230409,14.1905029 C5.31967251,14.2755556 5.48051462,14.3159766 5.63920468,14.3159766 C5.9625731,14.3159766 6.2771462,14.148117 6.45043275,13.8479532 C6.7088655,13.4004211 6.55550877,12.8281637 6.10797661,12.5698246 Z" id="Shape"></path>
                        <path d="M2.80701754,23.0176374 L0.935672515,23.0176374 C0.418994152,23.0176374 0,23.436538 0,23.9533099 C0,24.4700819 0.418994152,24.8889825 0.935672515,24.8889825 L2.80701754,24.8889825 C3.32369591,24.8889825 3.74269006,24.4700819 3.74269006,23.9533099 C3.74269006,23.436538 3.32369591,23.0176374 2.80701754,23.0176374 Z" id="Shape"></path>
                        <path d="M6.45043275,34.0586667 C6.1922807,33.6112281 5.62011696,33.4578713 5.17230409,33.716117 L3.55153216,34.6517895 C3.104,34.9101287 2.95064327,35.4824795 3.20907602,35.9299181 C3.38236257,36.2300819 3.69684211,36.3979415 4.02030409,36.3979415 C4.17899415,36.3979415 4.33983626,36.3574269 4.48720468,36.2724678 L6.10797661,35.3367953 C6.55550877,35.0784561 6.7088655,34.5061988 6.45043275,34.0586667 Z" id="Shape"></path>
                        <path d="M13.8479532,41.4561871 C13.4002339,41.1976608 12.8281637,41.3511111 12.5698246,41.7986433 L11.634152,43.4192281 C11.3757193,43.8667602 11.529076,44.4390175 11.9766082,44.6973567 C12.1239766,44.7825029 12.2848187,44.822924 12.4435088,44.822924 C12.7668772,44.822924 13.0814503,44.6550643 13.2547368,44.3549006 L14.1904094,42.7343158 C14.4488421,42.2868772 14.2954854,41.7146199 13.8479532,41.4561871 Z" id="Shape"></path>
                        <path d="M23.9532164,44.1639298 C23.436538,44.1639298 23.0175439,44.5828304 23.0175439,45.0996023 L23.0175439,46.9709474 C23.0175439,47.4877193 23.436538,47.9066199 23.9532164,47.9066199 C24.4698947,47.9066199 24.8888889,47.4877193 24.8888889,46.9709474 L24.8888889,45.0996023 C24.8888889,44.5828304 24.4698947,44.1639298 23.9532164,44.1639298 Z" id="Shape"></path>
                        <path d="M36.2724678,43.4193216 L35.3367953,41.7987368 C35.0783626,41.3512047 34.5062924,41.1979415 34.0586667,41.4562807 C33.6111345,41.7146199 33.4577778,42.2868772 33.7162105,42.7344094 L34.651883,44.3549942 C34.8252632,44.6551579 35.1396491,44.8230175 35.4631111,44.8230175 C35.6218012,44.8230175 35.7827368,44.7825029 35.9300117,44.6974503 C36.3775439,44.4391111 36.5309006,43.8668538 36.2724678,43.4193216 Z" id="Shape"></path>
                        <path d="M44.3549006,34.6517895 L42.7343158,33.716117 C42.2866901,33.4577778 41.7145263,33.6111345 41.4561871,34.0585731 C41.1977544,34.5061053 41.3511111,35.0783626 41.7986433,35.3367018 L43.4192281,36.2723743 C43.5665965,36.3574269 43.7274386,36.3979415 43.8861287,36.3979415 C44.2094971,36.3979415 44.5240702,36.2300819 44.6973567,35.9299181 C44.9557895,35.4824795 44.8024327,34.9102222 44.3549006,34.6517895 Z" id="Shape"></path>
                        <path d="M46.9709474,23.0176374 L45.0996023,23.0176374 C44.582924,23.0176374 44.1639298,23.436538 44.1639298,23.9533099 C44.1639298,24.4700819 44.582924,24.8889825 45.0996023,24.8889825 L46.9709474,24.8889825 C47.4876257,24.8889825 47.9066199,24.4700819 47.9066199,23.9533099 C47.9066199,23.436538 47.4876257,23.0176374 46.9709474,23.0176374 Z" id="Shape"></path>
                        <path d="M44.6972632,11.9766082 C44.438924,11.5291696 43.8666667,11.3757193 43.4191345,11.634152 L41.7985497,12.5698246 C41.3510175,12.8281637 41.1976608,13.4004211 41.4560936,13.8479532 C41.6294737,14.1482105 41.9438596,14.3159766 42.2673216,14.3159766 C42.4260117,14.3159766 42.5869474,14.275462 42.7342222,14.1904094 L44.354807,13.2547368 C44.8023392,12.9963977 44.9556959,12.4240468 44.6972632,11.9766082 Z" id="Shape"></path>
                        <path d="M35.9300117,3.20916959 C35.4822924,2.95064327 34.9101287,3.10409357 34.651883,3.55162573 L33.7162105,5.17221053 C33.4577778,5.61974269 33.6111345,6.192 34.0586667,6.45033918 C34.2060351,6.53548538 34.3668772,6.57590643 34.5255673,6.57590643 C34.8489357,6.57590643 35.1635088,6.40804678 35.3367953,6.10788304 L36.2724678,4.48729825 C36.5309006,4.03976608 36.3775439,3.46750877 35.9300117,3.20916959 Z" id="Shape"></path>
                    </g>
                </g>
            </g>
        </g>
    </g>
</svg>