<?xml version="1.0" encoding="UTF-8"?>
<svg width="48px" height="48px" viewBox="0 0 48 48" version="1.1" xmlns="http://www.w3.org/2000/svg" xmlns:xlink="http://www.w3.org/1999/xlink">
    <!-- Generator: sketchtool 64 (101010) - https://sketch.com -->
    <title>A8953EFF-1826-44A2-8EFE-C2C55449BF32</title>
    <desc>Created with sketchtool.</desc>
    <g id="Pac-secundário" stroke="none" stroke-width="1" fill="none" fill-rule="evenodd">
        <g id="Institucional" transform="translate(-1396.000000, -846.000000)" fill="#000000" fill-rule="nonzero">
            <g id="Group-4" transform="translate(336.000000, 770.000000)">
                <g id="Group-2-Copy-2" transform="translate(1060.000000, 76.000000)">
                    <g id="cidades-sustentáveis">
                        <path d="M47.2258065,42.5806452 L46.4516129,42.5806452 L46.4516129,13.9354839 C46.4516129,13.4709677 46.1419355,13.1612903 45.6774194,13.1612903 L38.7096774,13.1612903 L38.7096774,10.0645161 C41.2645161,9.98709677 43.3548387,7.89677419 43.3548387,5.34193548 L43.3548387,4.64516129 C43.3548387,4.18064516 43.0451613,3.87096774 42.5806452,3.87096774 L41.883871,3.87096774 C40.6451613,3.87096774 39.4064516,4.33548387 38.5548387,5.26451613 C38.3225806,5.49677419 38.0903226,5.72903226 37.9354839,6.03870968 C37.7806452,5.72903226 37.5483871,5.49677419 37.316129,5.26451613 C36.4645161,4.33548387 35.2258065,3.87096774 33.9870968,3.87096774 L33.2903226,3.87096774 C32.8258065,3.87096774 32.516129,4.18064516 32.516129,4.64516129 L32.516129,5.34193548 C32.516129,7.89677419 34.6064516,10.0645161 37.1612903,10.0645161 L37.1612903,13.1612903 L30.1935484,13.1612903 C29.7290323,13.1612903 29.4193548,13.4709677 29.4193548,13.9354839 L29.4193548,17.8064516 L23.2258065,17.8064516 L23.2258065,14.7096774 C25.7806452,14.6322581 27.8709677,12.5419355 27.8709677,9.98709677 L27.8709677,9.29032258 C27.8709677,8.82580645 27.5612903,8.51612903 27.0967742,8.51612903 L26.4,8.51612903 C25.1612903,8.51612903 23.9225806,8.98064516 23.0709677,9.90967742 C22.8387097,10.1419355 22.6064516,10.3741935 22.4516129,10.683871 C22.2967742,10.3741935 22.0645161,10.1419355 21.8322581,9.90967742 C20.9806452,8.98064516 19.7419355,8.51612903 18.5032258,8.51612903 L17.8064516,8.51612903 C17.3419355,8.51612903 17.0322581,8.82580645 17.0322581,9.29032258 L17.0322581,9.98709677 C17.0322581,12.5419355 19.1225806,14.7096774 21.6774194,14.7096774 L21.6774194,17.8064516 L14.7096774,17.8064516 C14.2451613,17.8064516 13.9354839,18.116129 13.9354839,18.5806452 L13.9354839,42.5806452 L9.29032258,42.5806452 L9.29032258,38.7096774 C9.29032258,38.2451613 8.98064516,37.9354839 8.51612903,37.9354839 L6.96774194,37.9354839 L6.96774194,36.3096774 C7.2,36.3870968 7.50967742,36.3870968 7.74193548,36.3870968 C9.44516129,36.3870968 10.8387097,34.9935484 10.8387097,33.2903226 C10.8387097,32.0516129 10.1419355,30.9677419 8.98064516,30.5032258 C8.28387097,28.9548387 6.50322581,28.2580645 4.95483871,28.9548387 C4.25806452,29.2645161 3.71612903,29.8064516 3.40645161,30.5032258 C2.24516129,30.9677419 1.5483871,32.0516129 1.5483871,33.2903226 C1.5483871,34.9935484 2.94193548,36.3870968 4.64516129,36.3870968 C4.87741935,36.3870968 5.18709677,36.3870968 5.41935484,36.3096774 L5.41935484,37.9354839 L3.87096774,37.9354839 C3.40645161,37.9354839 3.09677419,38.2451613 3.09677419,38.7096774 L3.09677419,42.5806452 L0.774193548,42.5806452 C0.309677419,42.5806452 0,42.8903226 0,43.3548387 L0,46.4516129 C0,46.916129 0.309677419,47.2258065 0.774193548,47.2258065 L47.2258065,47.2258065 C47.6903226,47.2258065 48,46.916129 48,46.4516129 L48,43.3548387 C48,42.8903226 47.6903226,42.5806452 47.2258065,42.5806452 Z M39.6387097,6.3483871 C40.1806452,5.80645161 40.9548387,5.41935484 41.8064516,5.41935484 C41.8064516,6.19354839 41.4193548,6.96774194 40.8774194,7.58709677 C40.3354839,8.12903226 39.5612903,8.51612903 38.7096774,8.51612903 C38.7096774,7.66451613 39.0967742,6.96774194 39.6387097,6.3483871 Z M34.9935484,7.58709677 C34.4516129,6.96774194 34.0645161,6.27096774 34.0645161,5.41935484 C34.916129,5.41935484 35.6903226,5.80645161 36.2322581,6.3483871 C36.7741935,6.96774194 37.1612903,7.66451613 37.1612903,8.51612903 C36.3096774,8.51612903 35.5354839,8.12903226 34.9935484,7.58709677 Z M24.1548387,10.9935484 C24.6967742,10.4516129 25.4709677,10.0645161 26.3225806,10.0645161 C26.3225806,10.8387097 25.9354839,11.6129032 25.3935484,12.2322581 C24.8516129,12.7741935 24.0774194,13.1612903 23.2258065,13.1612903 C23.2258065,12.3096774 23.6129032,11.6129032 24.1548387,10.9935484 Z M19.5096774,12.2322581 C18.9677419,11.6129032 18.5806452,10.916129 18.5806452,10.0645161 C19.4322581,10.0645161 20.2064516,10.4516129 20.7483871,10.9935484 C21.2903226,11.6129032 21.6774194,12.3096774 21.6774194,13.1612903 C20.8258065,13.1612903 20.0516129,12.7741935 19.5096774,12.2322581 Z M3.09677419,33.2903226 C3.09677419,32.5935484 3.56129032,31.9741935 4.18064516,31.8193548 C4.49032258,31.7419355 4.64516129,31.5870968 4.72258065,31.2774194 C4.95483871,30.5032258 5.80645161,29.9612903 6.65806452,30.2709677 C7.12258065,30.4258065 7.58709677,30.8129032 7.66451613,31.2774194 C7.74193548,31.5096774 7.89677419,31.7419355 8.20645161,31.8193548 C8.82580645,31.9741935 9.29032258,32.5935484 9.29032258,33.2903226 C9.29032258,34.1419355 8.59354839,34.8387097 7.74193548,34.8387097 C7.35483871,34.8387097 6.96774194,34.683871 6.65806452,34.4516129 C6.3483871,34.2193548 5.88387097,34.2193548 5.6516129,34.4516129 C5.03225806,34.9935484 4.02580645,34.9935484 3.48387097,34.3741935 C3.2516129,34.0645161 3.09677419,33.6774194 3.09677419,33.2903226 Z M44.9032258,14.7096774 L44.9032258,42.5806452 L41.8064516,42.5806452 L41.8064516,35.6129032 C41.8064516,35.1483871 41.4967742,34.8387097 41.0322581,34.8387097 L34.8387097,34.8387097 C34.3741935,34.8387097 34.0645161,35.1483871 34.0645161,35.6129032 L34.0645161,42.5806452 L30.9677419,42.5806452 L30.9677419,14.7096774 L44.9032258,14.7096774 Z M40.2580645,42.5806452 L35.6129032,42.5806452 L35.6129032,36.3870968 L40.2580645,36.3870968 L40.2580645,42.5806452 Z M15.483871,19.3548387 L29.4193548,19.3548387 L29.4193548,42.5806452 L26.3225806,42.5806452 L26.3225806,37.1612903 C26.3225806,36.6967742 26.0129032,36.3870968 25.5483871,36.3870968 L19.3548387,36.3870968 C18.8903226,36.3870968 18.5806452,36.6967742 18.5806452,37.1612903 L18.5806452,42.5806452 L15.483871,42.5806452 L15.483871,19.3548387 Z M24.7741935,42.5806452 L20.1290323,42.5806452 L20.1290323,37.9354839 L24.7741935,37.9354839 L24.7741935,42.5806452 Z M4.64516129,39.483871 L7.74193548,39.483871 L7.74193548,42.5806452 L4.64516129,42.5806452 L4.64516129,39.483871 Z M46.4516129,45.6774194 L1.5483871,45.6774194 L1.5483871,44.1290323 L46.4516129,44.1290323 L46.4516129,45.6774194 Z" id="Shape"></path>
                        <path d="M24,27.0967742 L27.0967742,27.0967742 C27.5612903,27.0967742 27.8709677,26.7870968 27.8709677,26.3225806 L27.8709677,21.6774194 C27.8709677,21.2129032 27.5612903,20.9032258 27.0967742,20.9032258 L24,20.9032258 C23.5354839,20.9032258 23.2258065,21.2129032 23.2258065,21.6774194 L23.2258065,26.3225806 C23.2258065,26.7870968 23.5354839,27.0967742 24,27.0967742 Z M24.7741935,22.4516129 L26.3225806,22.4516129 L26.3225806,25.5483871 L24.7741935,25.5483871 L24.7741935,22.4516129 Z" id="Shape"></path>
                        <path d="M17.8064516,27.0967742 L20.9032258,27.0967742 C21.3677419,27.0967742 21.6774194,26.7870968 21.6774194,26.3225806 L21.6774194,21.6774194 C21.6774194,21.2129032 21.3677419,20.9032258 20.9032258,20.9032258 L17.8064516,20.9032258 C17.3419355,20.9032258 17.0322581,21.2129032 17.0322581,21.6774194 L17.0322581,26.3225806 C17.0322581,26.7870968 17.3419355,27.0967742 17.8064516,27.0967742 Z M18.5806452,22.4516129 L20.1290323,22.4516129 L20.1290323,25.5483871 L18.5806452,25.5483871 L18.5806452,22.4516129 Z" id="Shape"></path>
                        <path d="M24,34.8387097 L27.0967742,34.8387097 C27.5612903,34.8387097 27.8709677,34.5290323 27.8709677,34.0645161 L27.8709677,29.4193548 C27.8709677,28.9548387 27.5612903,28.6451613 27.0967742,28.6451613 L24,28.6451613 C23.5354839,28.6451613 23.2258065,28.9548387 23.2258065,29.4193548 L23.2258065,34.0645161 C23.2258065,34.5290323 23.5354839,34.8387097 24,34.8387097 Z M24.7741935,30.1935484 L26.3225806,30.1935484 L26.3225806,33.2903226 L24.7741935,33.2903226 L24.7741935,30.1935484 Z" id="Shape"></path>
                        <path d="M20.9032258,34.8387097 C21.3677419,34.8387097 21.6774194,34.5290323 21.6774194,34.0645161 L21.6774194,29.4193548 C21.6774194,28.9548387 21.3677419,28.6451613 20.9032258,28.6451613 L17.8064516,28.6451613 C17.3419355,28.6451613 17.0322581,28.9548387 17.0322581,29.4193548 L17.0322581,34.0645161 C17.0322581,34.5290323 17.3419355,34.8387097 17.8064516,34.8387097 L20.9032258,34.8387097 Z M18.5806452,30.1935484 L20.1290323,30.1935484 L20.1290323,33.2903226 L18.5806452,33.2903226 L18.5806452,30.1935484 Z" id="Shape"></path>
                        <path d="M33.2903226,20.9032258 L36.3870968,20.9032258 C36.8516129,20.9032258 37.1612903,20.5935484 37.1612903,20.1290323 L37.1612903,17.0322581 C37.1612903,16.5677419 36.8516129,16.2580645 36.3870968,16.2580645 L33.2903226,16.2580645 C32.8258065,16.2580645 32.516129,16.5677419 32.516129,17.0322581 L32.516129,20.1290323 C32.516129,20.5935484 32.8258065,20.9032258 33.2903226,20.9032258 Z M34.0645161,17.8064516 L35.6129032,17.8064516 L35.6129032,19.3548387 L34.0645161,19.3548387 L34.0645161,17.8064516 Z" id="Shape"></path>
                        <path d="M39.483871,20.9032258 L42.5806452,20.9032258 C43.0451613,20.9032258 43.3548387,20.5935484 43.3548387,20.1290323 L43.3548387,17.0322581 C43.3548387,16.5677419 43.0451613,16.2580645 42.5806452,16.2580645 L39.483871,16.2580645 C39.0193548,16.2580645 38.7096774,16.5677419 38.7096774,17.0322581 L38.7096774,20.1290323 C38.7096774,20.5935484 39.0193548,20.9032258 39.483871,20.9032258 Z M40.2580645,17.8064516 L41.8064516,17.8064516 L41.8064516,19.3548387 L40.2580645,19.3548387 L40.2580645,17.8064516 Z" id="Shape"></path>
                        <path d="M33.2903226,27.0967742 L36.3870968,27.0967742 C36.8516129,27.0967742 37.1612903,26.7870968 37.1612903,26.3225806 L37.1612903,23.2258065 C37.1612903,22.7612903 36.8516129,22.4516129 36.3870968,22.4516129 L33.2903226,22.4516129 C32.8258065,22.4516129 32.516129,22.7612903 32.516129,23.2258065 L32.516129,26.3225806 C32.516129,26.7870968 32.8258065,27.0967742 33.2903226,27.0967742 Z M34.0645161,24 L35.6129032,24 L35.6129032,25.5483871 L34.0645161,25.5483871 L34.0645161,24 Z" id="Shape"></path>
                        <path d="M39.483871,27.0967742 L42.5806452,27.0967742 C43.0451613,27.0967742 43.3548387,26.7870968 43.3548387,26.3225806 L43.3548387,23.2258065 C43.3548387,22.7612903 43.0451613,22.4516129 42.5806452,22.4516129 L39.483871,22.4516129 C39.0193548,22.4516129 38.7096774,22.7612903 38.7096774,23.2258065 L38.7096774,26.3225806 C38.7096774,26.7870968 39.0193548,27.0967742 39.483871,27.0967742 Z M40.2580645,24 L41.8064516,24 L41.8064516,25.5483871 L40.2580645,25.5483871 L40.2580645,24 Z" id="Shape"></path>
                        <path d="M33.2903226,33.2903226 L36.3870968,33.2903226 C36.8516129,33.2903226 37.1612903,32.9806452 37.1612903,32.516129 L37.1612903,29.4193548 C37.1612903,28.9548387 36.8516129,28.6451613 36.3870968,28.6451613 L33.2903226,28.6451613 C32.8258065,28.6451613 32.516129,28.9548387 32.516129,29.4193548 L32.516129,32.516129 C32.516129,32.9806452 32.8258065,33.2903226 33.2903226,33.2903226 Z M34.0645161,30.1935484 L35.6129032,30.1935484 L35.6129032,31.7419355 L34.0645161,31.7419355 L34.0645161,30.1935484 Z" id="Shape"></path>
                        <path d="M39.483871,33.2903226 L42.5806452,33.2903226 C43.0451613,33.2903226 43.3548387,32.9806452 43.3548387,32.516129 L43.3548387,29.4193548 C43.3548387,28.9548387 43.0451613,28.6451613 42.5806452,28.6451613 L39.483871,28.6451613 C39.0193548,28.6451613 38.7096774,28.9548387 38.7096774,29.4193548 L38.7096774,32.516129 C38.7096774,32.9806452 39.0193548,33.2903226 39.483871,33.2903226 Z M40.2580645,30.1935484 L41.8064516,30.1935484 L41.8064516,31.7419355 L40.2580645,31.7419355 L40.2580645,30.1935484 Z" id="Shape"></path>
                        <path d="M7.74193548,10.0645161 C9.44516129,10.0645161 10.8387097,8.67096774 10.8387097,6.96774194 C10.8387097,5.26451613 9.44516129,3.87096774 7.74193548,3.87096774 C6.03870968,3.87096774 4.64516129,5.26451613 4.64516129,6.96774194 C4.64516129,8.67096774 6.03870968,10.0645161 7.74193548,10.0645161 Z M7.74193548,5.41935484 C8.59354839,5.41935484 9.29032258,6.11612903 9.29032258,6.96774194 C9.29032258,7.81935484 8.59354839,8.51612903 7.74193548,8.51612903 C6.89032258,8.51612903 6.19354839,7.81935484 6.19354839,6.96774194 C6.19354839,6.11612903 6.89032258,5.41935484 7.74193548,5.41935484 Z" id="Shape"></path>
                        <rect id="Rectangle" x="6.96774194" y="0" width="1.5483871" height="2.32258065"></rect>
                        <rect id="Rectangle" x="6.96774194" y="11.6129032" width="1.5483871" height="2.32258065"></rect>
                        <rect id="Rectangle" x="12.3870968" y="6.19354839" width="2.32258065" height="1.5483871"></rect>
                        <polygon id="Rectangle" transform="translate(11.612903, 3.097006) rotate(-45.000000) translate(-11.612903, -3.097006) " points="10.5290427 2.32282033 12.6967638 2.32282033 12.6967638 3.87119258 10.5290427 3.87119258"></polygon>
                        <rect id="Rectangle" x="0.774193548" y="6.19354839" width="2.32258065" height="1.5483871"></rect>
                        <polygon id="Rectangle" transform="translate(3.870968, 3.096929) rotate(-45.000000) translate(-3.870968, -3.096929) " points="3.09678162 2.01306846 4.64515387 2.01306846 4.64515387 4.18078961 3.09678162 4.18078961"></polygon>
                        <polygon id="Rectangle" transform="translate(3.870890, 10.838865) rotate(-45.000000) translate(-3.870890, -10.838865) " points="2.78702975 10.0646784 4.9547509 10.0646784 4.9547509 11.6130506 2.78702975 11.6130506"></polygon>
                        <polygon id="Rectangle" transform="translate(11.612826, 10.838942) rotate(-45.000000) translate(-11.612826, -10.838942) " points="10.8386397 9.75508136 12.3870119 9.75508136 12.3870119 11.9228025 10.8386397 11.9228025"></polygon>
                    </g>
                </g>
            </g>
        </g>
    </g>
</svg>