<?xml version="1.0" encoding="UTF-8"?>
<svg width="48px" height="48px" viewBox="0 0 48 48" version="1.1" xmlns="http://www.w3.org/2000/svg" xmlns:xlink="http://www.w3.org/1999/xlink">
    <!-- Generator: sketchtool 64 (101010) - https://sketch.com -->
    <title>5BAEA604-5A0E-41B7-B9EC-69E9057E88EB</title>
    <desc>Created with sketchtool.</desc>
    <g id="Pac-secundário" stroke="none" stroke-width="1" fill="none" fill-rule="evenodd">
        <g id="Institucional" transform="translate(-339.000000, -2800.000000)" fill="#000000" fill-rule="nonzero">
            <g id="Group-18" transform="translate(336.000000, 2553.000000)">
                <g id="Group-3" transform="translate(3.000000, 247.000000)">
                    <g id="diamond-(1)">
                        <path d="M47.8464375,20.2097812 L40.159875,8.4886875 C39.9865313,8.2245 39.6919688,8.0653125 39.3760313,8.0653125 L8.6604375,8.0653125 C8.34515625,8.0653125 8.0510625,8.22375 7.877625,8.48709375 L0.1786875,20.1732187 C0.14203125,20.22375 0.11025,20.2783125 0.08371875,20.336625 C-0.06825,20.6716875 -0.010125,21.0645938 0.2323125,21.3413438 L4.13465625,25.797 C4.4758125,26.1865312 5.0679375,26.2257187 5.457375,25.8846563 C5.8468125,25.5435 5.886,24.9512812 5.5449375,24.5619375 L3.00459375,21.6612187 L15.6140625,21.6612187 L21.9503438,43.29375 L14.7901875,35.1182813 C14.449125,34.72875 13.8568125,34.6895625 13.4674688,35.030625 C13.0780313,35.3717812 13.0388438,35.964 13.3799063,36.3533438 L23.2977188,47.6775 C23.4756563,47.88075 23.7328125,47.997375 24.0029063,47.997375 C24.2730938,47.997375 24.5300625,47.88075 24.708,47.6774062 L35.2670625,35.6181562 C35.6082188,35.228625 35.5689375,34.6364063 35.1793125,34.2954375 C34.7896875,33.9542812 34.1974688,33.9935625 33.8565938,34.3831875 L26.0556563,43.2925312 L32.3916563,21.661125 L44.995875,21.661125 L39.1662188,28.31925 C38.8250625,28.7087812 38.8643438,29.301 39.2539688,29.6419687 C39.4318125,29.7977812 39.6519375,29.8741875 39.871125,29.8741875 C40.1319375,29.8741875 40.3914375,29.7659062 40.5766875,29.5542187 L47.767875,21.34125 C48.0451875,21.0245625 48.0773438,20.5618125 47.8464375,20.2097812 Z M2.67871875,19.7864062 L8.6585625,10.7094375 L14.6112188,19.7864062 L2.67871875,19.7864062 Z M10.396125,9.94021875 L22.2670313,9.94021875 L16.331625,18.9909375 L10.396125,9.94021875 Z M24.0028125,10.7121562 L29.9535938,19.7864062 L18.0520313,19.7864062 L24.0028125,10.7121562 Z M24.0028125,43.6315313 L17.567625,21.6612187 L30.438,21.6612187 L24.0028125,43.6315313 Z M31.689375,19.0144687 L25.7385938,9.94021875 L37.6403438,9.94021875 L31.689375,19.0144687 Z M33.4251563,19.7864062 L39.3760313,10.7121562 L45.3267188,19.7864062 L33.4251563,19.7864062 Z" id="Shape"></path>
                        <path d="M14.7364688,30.6578437 C12.318375,30.6578437 10.3510313,28.6905 10.3510313,26.2724062 C10.3510313,25.7547187 9.9313125,25.335 9.413625,25.335 C8.8959375,25.335 8.47621875,25.7547187 8.47621875,26.2724062 C8.47621875,28.6905 6.508875,30.6578437 4.09078125,30.6578437 C3.5731875,30.6578437 3.153375,31.0775625 3.153375,31.59525 C3.153375,32.1129375 3.5731875,32.5326562 4.09078125,32.5326562 C6.508875,32.5326562 8.47621875,34.5 8.47621875,36.9180937 C8.47621875,37.4357812 8.89603125,37.8555 9.413625,37.8555 C9.93121875,37.8555 10.3510313,37.4357813 10.3510313,36.9180937 C10.3510313,34.5 12.318375,32.5326562 14.7364688,32.5326562 C15.2541563,32.5326562 15.673875,32.1129375 15.673875,31.59525 C15.673875,31.0775625 15.2541563,30.6578437 14.7364688,30.6578437 Z M9.413625,33.6259687 C8.90259375,32.8026562 8.20621875,32.106375 7.383,31.59525 C8.20621875,31.0842187 8.9025,30.3879375 9.413625,29.5645312 C9.92465625,30.3878437 10.6210313,31.084125 11.44425,31.59525 C10.6210312,32.106375 9.92475,32.8025625 9.413625,33.6259687 Z" id="Shape"></path>
                        <path d="M47.0625937,3.75215625 C45.5119687,3.75215625 44.250375,2.4905625 44.250375,0.9399375 C44.250375,0.42225 43.8305625,0.00253125 43.3129687,0.00253125 C42.795375,0.00253125 42.3755625,0.42225 42.3755625,0.9399375 C42.3755625,2.4905625 41.1139687,3.75215625 39.5633437,3.75215625 C39.04575,3.75215625 38.6259375,4.171875 38.6259375,4.6895625 C38.6259375,5.20725 39.04575,5.62696875 39.5633437,5.62696875 C41.1139687,5.62696875 42.3755625,6.8885625 42.3755625,8.4391875 C42.3755625,8.956875 42.795375,9.37659375 43.3129687,9.37659375 C43.8305625,9.37659375 44.250375,8.956875 44.250375,8.4391875 C44.250375,6.8885625 45.5119687,5.62696875 47.0625937,5.62696875 C47.5801875,5.62696875 48,5.20725 48,4.6895625 C48,4.171875 47.5801875,3.75215625 47.0625937,3.75215625 Z M43.3129688,5.629875 C43.0455,5.2738125 42.7287187,4.95703125 42.3726563,4.6895625 C42.7287188,4.42209375 43.0455,4.1053125 43.3129688,3.74925 C43.5804375,4.1053125 43.8972188,4.42209375 44.2532813,4.6895625 C43.8972188,4.9569375 43.5803438,5.2738125 43.3129688,5.629875 Z" id="Shape"></path>
                        <path d="M37.7609062,31.4410312 C37.586625,31.2657187 37.34475,31.1663437 37.0982812,31.1663437 C36.851625,31.1663437 36.610875,31.2657187 36.4355625,31.4410312 C36.2611875,31.6154062 36.160875,31.8572812 36.160875,32.10375 C36.160875,32.3502188 36.2610938,32.5920938 36.4355625,32.7664688 C36.6099375,32.9408438 36.851625,33.0411563 37.0982812,33.0411563 C37.3448437,33.0411563 37.586625,32.9408438 37.7609062,32.7664688 C37.9352812,32.5920938 38.0356875,32.3502188 38.0356875,32.10375 C38.0356875,31.8572812 37.935375,31.6154062 37.7609062,31.4410312 Z" id="Shape"></path>
                    </g>
                </g>
            </g>
        </g>
    </g>
</svg>