<?xml version="1.0" encoding="UTF-8"?>
<svg width="48px" height="48px" viewBox="0 0 48 48" version="1.1" xmlns="http://www.w3.org/2000/svg" xmlns:xlink="http://www.w3.org/1999/xlink">
    <!-- Generator: sketchtool 64 (101010) - https://sketch.com -->
    <title>E73C205F-75F3-474D-9D98-408B7FAD597A</title>
    <desc>Created with sketchtool.</desc>
    <g id="Pac-secundário" stroke="none" stroke-width="1" fill="none" fill-rule="evenodd">
        <g id="Institucional" transform="translate(-1219.000000, -2800.000000)" fill="#000000" fill-rule="nonzero">
            <g id="Group-18" transform="translate(336.000000, 2553.000000)">
                <g id="Group-3-Copy-4" transform="translate(883.000000, 247.000000)">
                    <g id="resume-(1)">
                        <path d="M38.8131562,13.9453125 C39.3308437,13.9453125 39.7506562,13.5255937 39.7506562,13.0078125 L39.7506562,2.8125 C39.7506562,1.2616875 38.4889687,0 36.9381562,0 L2.81315625,0 C1.26234375,0 0.00065625,1.2616875 0.00065625,2.8125 L0.00065625,45.1875 C0.00065625,46.7383125 1.26234375,48 2.81315625,48 L36.9381562,48 C38.4889687,48 39.7506562,46.7383125 39.7506562,45.1875 L39.7506562,38.28075 C39.7506562,37.7629687 39.3308437,37.34325 38.8131562,37.34325 C38.2954687,37.34325 37.8756562,37.7629687 37.8756562,38.28075 L37.8756562,45.1875 C37.8756562,45.7044375 37.4550938,46.125 36.9381562,46.125 L2.81315625,46.125 C2.29621875,46.125 1.87565625,45.7044375 1.87565625,45.1875 L1.87565625,2.8125 C1.87565625,2.2955625 2.29621875,1.875 2.81315625,1.875 L36.9381562,1.875 C37.4550938,1.875 37.8756562,2.2955625 37.8756562,2.8125 L37.8756562,13.0078125 C37.8756562,13.5255937 38.2954687,13.9453125 38.8131562,13.9453125 Z" id="Shape"></path>
                        <path d="M19.8756563,5.0625 C15.1198125,5.0625 11.2506563,8.93165625 11.2506563,13.6875 C11.2506563,16.1547188 12.2922188,18.3829688 13.9583438,19.9564687 C13.9895625,19.9898437 14.02275,20.0214375 14.0590313,20.0502187 C15.5938125,21.4545 17.6363438,22.3124063 19.8755625,22.3124063 C22.1147813,22.3124063 24.1573125,21.4544063 25.6920938,20.0502187 C25.728375,20.0214375 25.7615625,19.98975 25.7927813,19.9564687 C27.4590938,18.3829688 28.5006563,16.1547188 28.5006563,13.6875 C28.5006563,8.93165625 24.6315,5.0625 19.8756563,5.0625 Z M19.8756562,20.4375 C18.3448125,20.4375 16.932,19.9245 15.798375,19.062375 C16.6223437,17.6012812 18.1599375,16.6875 19.8756562,16.6875 C21.591375,16.6875 23.1289687,17.6012813 23.9529375,19.062375 C22.8192187,19.9245 21.4065,20.4375 19.8756562,20.4375 Z M18.3756563,13.3125 L18.3756563,12.703125 C18.3756563,11.8760625 19.0485938,11.203125 19.8756563,11.203125 C20.7027188,11.203125 21.3756563,11.8760625 21.3756563,12.703125 L21.3756563,13.3125 C21.3756563,14.1395625 20.7027188,14.8125 19.8756563,14.8125 C19.0485938,14.8125 18.3756563,14.1395625 18.3756563,13.3125 Z M25.3075313,17.6890312 C24.616125,16.6635938 23.6579062,15.8660625 22.545375,15.3736875 C22.9869375,14.8030313 23.2506562,14.0881875 23.2506562,13.3125 L23.2506562,12.703125 C23.2506562,10.8420938 21.7366875,9.328125 19.8756562,9.328125 C18.014625,9.328125 16.5006562,10.8420938 16.5006562,12.703125 L16.5006562,13.3125 C16.5006562,14.0881875 16.764375,14.8030313 17.2059375,15.3736875 C16.0934063,15.8660625 15.1351875,16.6635938 14.4437813,17.6890312 C13.6160625,16.5684375 13.1256563,15.1844063 13.1256563,13.6875 C13.1256563,9.96553125 16.1536875,6.9375 19.8756562,6.9375 C23.597625,6.9375 26.6256562,9.96553125 26.6256562,13.6875 C26.6256562,15.1844063 26.13525,16.5684375 25.3075313,17.6890312 Z" id="Shape"></path>
                        <path d="M24.9381562,41.0625 L19.8756562,41.0625 C19.3579687,41.0625 18.9381562,41.4822188 18.9381562,42 C18.9381562,42.5177812 19.3579687,42.9375 19.8756562,42.9375 L24.9381562,42.9375 C25.4558437,42.9375 25.8756562,42.5177812 25.8756562,42 C25.8756562,41.4822188 25.4558437,41.0625 24.9381562,41.0625 Z" id="Shape"></path>
                        <path d="M24.9381562,35.8125 L11.6256563,35.8125 C11.1079687,35.8125 10.6881563,36.2322188 10.6881563,36.75 C10.6881563,37.2677812 11.1079687,37.6875 11.6256563,37.6875 L24.9381562,37.6875 C25.4558437,37.6875 25.8756562,37.2677812 25.8756562,36.75 C25.8756562,36.2322188 25.4558437,35.8125 24.9381562,35.8125 Z" id="Shape"></path>
                        <path d="M24.9381562,30.5625 L11.6256563,30.5625 C11.1079687,30.5625 10.6881563,30.9822187 10.6881563,31.5 C10.6881563,32.0177812 11.1079687,32.4375 11.6256563,32.4375 L24.9381562,32.4375 C25.4558437,32.4375 25.8756562,32.0177812 25.8756562,31.5 C25.8756562,30.9822187 25.4558437,30.5625 24.9381562,30.5625 Z" id="Shape"></path>
                        <path d="M8.2843125,25.5871875 C8.11003125,25.4128125 7.86815625,25.3125 7.62065625,25.3125 C7.374,25.3125 7.132125,25.4128125 6.95784375,25.5871875 C6.78346875,25.7615625 6.68315625,26.0034375 6.68315625,26.25 C6.68315625,26.4965625 6.783375,26.7384375 6.95784375,26.9128125 C7.13315625,27.0871875 7.374,27.1875 7.62065625,27.1875 C7.86815625,27.1875 8.10909375,27.0871875 8.2843125,26.9128125 C8.4586875,26.7384375 8.55909375,26.4965625 8.55909375,26.25 C8.55909375,26.0034375 8.45878125,25.7615625 8.2843125,25.5871875 Z" id="Shape"></path>
                        <path d="M8.2843125,30.8371875 C8.10909375,30.6628125 7.86815625,30.5625 7.62065625,30.5625 C7.374,30.5625 7.13315625,30.6628125 6.95784375,30.8371875 C6.78346875,31.0115625 6.68315625,31.2534375 6.68315625,31.5 C6.68315625,31.7465625 6.783375,31.9884375 6.95784375,32.1628125 C7.13315625,32.3371875 7.374,32.4375 7.62065625,32.4375 C7.86815625,32.4375 8.10909375,32.3371875 8.2843125,32.1628125 C8.4586875,31.9884375 8.55909375,31.7465625 8.55909375,31.5 C8.55909375,31.2534375 8.45878125,31.0115625 8.2843125,30.8371875 Z" id="Shape"></path>
                        <path d="M8.2843125,36.0871875 C8.10909375,35.9128125 7.86815625,35.8125 7.62065625,35.8125 C7.374,35.8125 7.13315625,35.9128125 6.95784375,36.0871875 C6.78346875,36.2615625 6.68315625,36.5034375 6.68315625,36.75 C6.68315625,36.9965625 6.783375,37.2384375 6.95784375,37.4128125 C7.132125,37.5871875 7.374,37.6875 7.62065625,37.6875 C7.86815625,37.6875 8.11003125,37.5871875 8.2843125,37.4128125 C8.4586875,37.2384375 8.55909375,36.9965625 8.55909375,36.75 C8.55909375,36.5034375 8.45878125,36.2615625 8.2843125,36.0871875 Z" id="Shape"></path>
                        <path d="M24.9381562,25.3125 L11.6256563,25.3125 C11.1079687,25.3125 10.6881563,25.7322187 10.6881563,26.25 C10.6881563,26.7677813 11.1079687,27.1875 11.6256563,27.1875 L24.9381562,27.1875 C25.4558437,27.1875 25.8756562,26.7677813 25.8756562,26.25 C25.8756562,25.7322187 25.4558437,25.3125 24.9381562,25.3125 Z" id="Shape"></path>
                        <path d="M46.0314375,12.2175 C45.1206563,11.6916562 44.0595938,11.5519687 43.0435313,11.824125 C42.0276563,12.096375 41.1784688,12.7479375 40.6527188,13.6587187 L28.8550313,34.09275 C28.7904375,34.2047812 28.7495625,34.329 28.7352188,34.4575313 L27.9047813,41.8960312 C27.8635313,42.2661562 28.0452188,42.6256875 28.3677188,42.8119687 C28.5133125,42.8959688 28.6750313,42.9375937 28.836375,42.9375937 C29.0325,42.9375937 29.227875,42.8761875 29.3924063,42.7549688 L35.4190313,38.3164687 C35.5231875,38.2397812 35.610375,38.142375 35.6749688,38.0303437 L47.4725625,17.5963125 C48.5581875,15.7160625 47.9116875,13.303125 46.0314375,12.2175 Z M30.0059062,39.9744375 L30.4395937,36.0901875 L33.1529062,37.65675 L30.0059062,39.9744375 Z M34.5199687,36.280875 L30.947625,34.218375 L40.4149687,17.8205625 L43.9873125,19.8830625 L34.5199687,36.280875 Z M45.8488125,16.6587187 L44.9247187,18.2593125 L41.352375,16.1968125 L42.2764687,14.5962187 C42.5519062,14.119125 42.9966562,13.777875 43.5287812,13.6352812 C44.0610937,13.4925937 44.6168437,13.5659062 45.0938437,13.8413438 C45.5709375,14.1167812 45.9121875,14.5615312 46.0547812,15.0936562 C46.197375,15.6257812 46.12425,16.181625 45.8488125,16.6587187 Z" id="Shape"></path>
                    </g>
                </g>
            </g>
        </g>
    </g>
</svg>