<svg width="32" height="25" viewBox="0 0 32 25" xmlns="http://www.w3.org/2000/svg"><title>89CBBDC2-23E9-42B8-A69F-B6E5C29336FF</title><g fill="#FFB919"><path d="M28.053.05H3.907A3.91 3.91 0 0 0 0 3.957V20.46a3.91 3.91 0 0 0 3.907 3.907h24.14a3.91 3.91 0 0 0 3.907-3.907V3.964A3.907 3.907 0 0 0 28.053.05zm2.122 20.41c0 1.17-.952 2.122-2.122 2.122H3.907a2.125 2.125 0 0 1-2.122-2.122V3.964c0-1.17.952-2.123 2.122-2.123h24.14c1.17 0 2.122.952 2.122 2.123V20.46h.006z"/><path d="M20.152 12.003l7.815-7.008a.897.897 0 0 0 .066-1.263.897.897 0 0 0-1.263-.066L15.993 13.34l-2.102-1.878c-.007-.006-.013-.013-.013-.02a1.322 1.322 0 0 0-.146-.125L5.177 3.66a.891.891 0 0 0-1.263.072.891.891 0 0 0 .073 1.263l7.907 7.068-7.874 7.372a.896.896 0 0 0 1.223 1.309l7.993-7.478 2.169 1.937a.892.892 0 0 0 1.19-.006l2.228-1.997 7.947 7.55A.892.892 0 0 0 28 19.454l-7.848-7.45z"/></g></svg>