<svg width="24" height="24" viewBox="0 0 24 24" xmlns="http://www.w3.org/2000/svg"><title>BEA19609-1DEA-4366-A656-0C9B16937DE0</title><path d="M17.377 0H6.623A6.63 6.63 0 0 0 0 6.623v10.754A6.63 6.63 0 0 0 6.623 24h10.754A6.63 6.63 0 0 0 24 17.377V6.623A6.63 6.63 0 0 0 17.377 0zm0 21.87H6.623a4.499 4.499 0 0 1-4.494-4.493V6.623A4.499 4.499 0 0 1 6.623 2.13h10.754a4.5 4.5 0 0 1 4.494 4.494v10.754a4.499 4.499 0 0 1-4.494 4.494zM12 5.839A6.17 6.17 0 0 0 5.838 12 6.169 6.169 0 0 0 12 18.162 6.169 6.169 0 0 0 18.162 12 6.17 6.17 0 0 0 12 5.838zm0 2.122A4.045 4.045 0 0 1 16.04 12 4.045 4.045 0 0 1 12 16.04 4.045 4.045 0 0 1 7.96 12 4.045 4.045 0 0 1 12 7.96zm6.486-4.068a1.624 1.624 0 0 1 1.622 1.622c0 .426-.172.844-.475 1.146a1.636 1.636 0 0 1-1.147.475c-.426 0-.844-.174-1.145-.475a1.635 1.635 0 0 1-.476-1.146 1.624 1.624 0 0 1 1.621-1.622z" fill="#FFB919"/></svg>