<svg width="88" height="88" viewBox="0 0 88 88" xmlns="http://www.w3.org/2000/svg"><title>122F6A0F-71F0-4C2F-B8D7-3FAD006FCD23</title><path d="M69.52 54.49c-1.802-1.875-3.974-2.877-6.276-2.877-2.283 0-4.474.984-6.35 2.859l-5.866 5.848c-.483-.26-.965-.501-1.43-.743-.668-.334-1.299-.65-1.837-.983-5.496-3.49-10.49-8.04-15.28-13.925-2.32-2.933-3.88-5.402-5.012-7.908 1.522-1.393 2.933-2.84 4.307-4.233.52-.52 1.04-1.059 1.56-1.578 3.898-3.9 3.898-8.949 0-12.848l-5.07-5.068c-.575-.576-1.169-1.17-1.726-1.764-1.114-1.15-2.283-2.339-3.49-3.453-1.8-1.782-3.954-2.729-6.22-2.729-2.264 0-4.455.947-6.312 2.73l-.037.036-6.312 6.368C1.793 16.6.437 19.495.14 22.855c-.445 5.421 1.151 10.471 2.377 13.776 3.007 8.113 7.5 15.632 14.202 23.69C24.851 70.03 34.635 77.696 45.811 83.1c4.27 2.023 9.97 4.418 16.338 4.827.39.018.798.037 1.17.037 4.288 0 7.89-1.54 10.712-4.604.018-.037.055-.056.074-.093.965-1.17 2.08-2.228 3.249-3.36a73.105 73.105 0 0 0 2.413-2.395c1.838-1.913 2.804-4.14 2.804-6.424 0-2.302-.984-4.511-2.86-6.368L69.52 54.49zm6.646 19.55c-.019 0-.019.018 0 0-.724.78-1.467 1.485-2.265 2.265-1.207 1.151-2.432 2.358-3.583 3.713-1.876 2.005-4.085 2.952-6.981 2.952-.279 0-.576 0-.854-.019-5.514-.352-10.638-2.506-14.481-4.344-10.508-5.087-19.735-12.309-27.403-21.462-6.33-7.63-10.563-14.685-13.367-22.26-1.726-4.622-2.357-8.224-2.079-11.621.186-2.173 1.021-3.973 2.562-5.514l6.33-6.331c.91-.854 1.876-1.318 2.823-1.318 1.17 0 2.116.705 2.71 1.3l.056.055c1.133 1.058 2.21 2.154 3.342 3.323.575.594 1.17 1.188 1.764 1.801l5.068 5.068c1.968 1.968 1.968 3.788 0 5.756-.539.538-1.058 1.076-1.597 1.596-1.56 1.597-3.044 3.082-4.66 4.53-.037.037-.074.056-.093.093-1.596 1.597-1.3 3.156-.965 4.214l.056.167c1.318 3.194 3.174 6.201 5.996 9.784l.019.019c5.124 6.312 10.527 11.232 16.486 15 .761.484 1.541.873 2.284 1.245.668.334 1.3.65 1.838.984.074.037.148.093.222.13.632.315 1.226.464 1.838.464 1.541 0 2.507-.966 2.822-1.281l6.35-6.35c.63-.63 1.633-1.392 2.803-1.392 1.151 0 2.098.724 2.673 1.355l.038.037 10.23 10.23c1.911 1.894 1.911 3.843.018 5.81zM47.538 20.924c4.864.817 9.283 3.12 12.81 6.647 3.527 3.527 5.81 7.946 6.646 12.81a2.491 2.491 0 0 0 2.47 2.08c.148 0 .278-.02.427-.038 1.373-.223 2.283-1.522 2.06-2.896-1.002-5.885-3.787-11.25-8.038-15.502-4.252-4.252-9.617-7.037-15.503-8.04a2.52 2.52 0 0 0-2.896 2.043c-.241 1.355.65 2.674 2.024 2.896zm40.324 17.879c-1.652-9.691-6.22-18.51-13.237-25.528C67.607 6.258 58.788 1.691 49.097.038c-1.355-.241-2.636.687-2.877 2.042a2.519 2.519 0 0 0 2.06 2.897c8.652 1.466 16.542 5.57 22.817 11.826 6.275 6.275 10.36 14.165 11.826 22.817a2.491 2.491 0 0 0 2.47 2.079c.148 0 .278-.019.427-.037a2.46 2.46 0 0 0 2.042-2.86z"/></svg>