<svg width="24" height="21" viewBox="0 0 24 21" xmlns="http://www.w3.org/2000/svg"><title>8A4BDEF4-CF7A-4B2D-A599-6787021C7B4B</title><path d="M24 2.435a9.493 9.493 0 0 1-2.828.819A5.183 5.183 0 0 0 23.337.379a9.556 9.556 0 0 1-3.129 1.26C19.311.629 18.032 0 16.614 0c-2.718 0-4.924 2.327-4.924 5.194 0 .406.044.804.129 1.183C7.726 6.16 4.099 4.089 1.67.947a5.394 5.394 0 0 0-.667 2.616c0 1.801.868 3.39 2.19 4.32a4.69 4.69 0 0 1-2.23-.648V7.3c0 2.516 1.696 4.615 3.949 5.094-.414.12-.846.182-1.297.182-.319 0-.627-.031-.927-.093.627 2.06 2.444 3.567 4.598 3.605A9.535 9.535 0 0 1 0 18.241a13.413 13.413 0 0 0 7.547 2.33c9.056 0 14.01-7.914 14.01-14.774 0-.228-.004-.452-.015-.676A10.165 10.165 0 0 0 24 2.435" fill="#FFB919"/></svg>