<svg xmlns="http://www.w3.org/2000/svg" width="50" height="50.024" viewBox="0 0 50 50.024">
  <g id="icon-support-people" transform="translate(3 0.012)">
    <rect id="grid-50x50" width="50" height="50" transform="translate(-3)" fill="#ffb919" opacity="0"/>
    <g id="icon">
      <path id="Path_454" data-name="Path 454" d="M.638,42.05l8.194,8.194h8.484L4.88,37.808Z" transform="translate(0 -0.882)" fill="#ffb919"/>
      <path id="Path_455" data-name="Path 455" d="M25.3,10.708a3.069,3.069,0,1,1-3.069-3.069A3.069,3.069,0,0,1,25.3,10.708" transform="translate(-0.332 -0.132)" fill="#ffb919"/>
      <path id="Path_456" data-name="Path 456" d="M21.963,13.885h0a3.332,3.332,0,0,0-3.331,3.331v5.591h6.662V17.216a3.332,3.332,0,0,0-3.331-3.331" transform="translate(-0.323 -0.241)" fill="#ffb919"/>
      <path id="Path_457" data-name="Path 457" d="M20.092,42.219H29.61a2.219,2.219,0,0,0,0-4.438H23.481a3.051,3.051,0,0,1-2.257-1.041,6.534,6.534,0,0,0-5.055-2.057s-4.219,0-9.087,5.274" transform="translate(-0.123 -0.601)" fill="none" stroke="#161615" stroke-linecap="round" stroke-linejoin="round" stroke-width="1.276"/>
      <path id="Path_458" data-name="Path 458" d="M16.659,49.231H27.843a6.752,6.752,0,0,0,4.128-1.4L42.292,35.221a2.219,2.219,0,0,0-3.138-3.139l-4.334,4.334" transform="translate(-0.289 -0.545)" fill="none" stroke="#161615" stroke-linecap="round" stroke-linejoin="round" stroke-width="1.276"/>
      <path id="Path_459" data-name="Path 459" d="M4.806,37.808.638,41.977l8.051,8.052h8.338Z" transform="translate(-0.011 -0.655)" fill="none" stroke="#161615" stroke-linecap="round" stroke-linejoin="round" stroke-width="1.276"/>
      <circle id="Ellipse_7" data-name="Ellipse 7" cx="3.069" cy="3.069" r="3.069" transform="translate(18.833 7.507)" fill="none" stroke="#161615" stroke-linecap="round" stroke-linejoin="round" stroke-width="1.276"/>
      <path id="Path_460" data-name="Path 460" d="M21.963,13.885h0a3.332,3.332,0,0,0-3.331,3.331v5.591h6.662V17.216A3.332,3.332,0,0,0,21.963,13.885Z" transform="translate(-0.323 -0.241)" fill="none" stroke="#161615" stroke-linecap="round" stroke-linejoin="round" stroke-width="1.276"/>
      <path id="Path_461" data-name="Path 461" d="M15.585,28.122A14.384,14.384,0,0,0,34.842,8.864" transform="translate(-0.27 -0.154)" fill="none" stroke="#161615" stroke-linecap="round" stroke-linejoin="round" stroke-width="1.276"/>
      <path id="Path_462" data-name="Path 462" d="M28.093,2.115A14.386,14.386,0,0,0,8.835,21.373" transform="translate(-0.128 -0.011)" fill="none" stroke="#161615" stroke-linecap="round" stroke-linejoin="round" stroke-width="1.276"/>
      <path id="Path_463" data-name="Path 463" d="M11.28,26.88l.577-.276a22.236,22.236,0,0,1-2.349-2.518.523.523,0,1,1,.822-.649,21.341,21.341,0,0,0,2.2,2.364l.183-.552,1.215,2.518Z" transform="translate(-0.163 -0.403)" fill="#161615"/>
      <path id="Path_464" data-name="Path 464" d="M34.37,7.172a.523.523,0,0,1-.736-.086,21.14,21.14,0,0,0-2.2-2.363l-.183.551L30.034,2.757l2.649.887-.576.275a22.489,22.489,0,0,1,2.349,2.518.523.523,0,0,1-.086.735" transform="translate(-0.521 -0.048)" fill="#161615"/>
    </g>
  </g>
</svg>
