<svg xmlns="http://www.w3.org/2000/svg" width="50" height="50" viewBox="0 0 50 50">
  <g id="icon-transport" transform="translate(-1277 -3754)">
    <rect id="grid-50x50" width="50" height="50" transform="translate(1277 3754)" fill="#ffb919" opacity="0"/>
    <g id="icon">
      <path id="Path_312" data-name="Path 312" d="M61.649,40.28l-.028.023a.857.857,0,0,1-.511.254c-.493.01-.979.011-1.348.011l-1.261,0a.3.3,0,0,1-.3-.3c0-.147,0-.287,0-.423,0-.283,0-.55,0-.812-.006-.229-.08-.761-.643-.761h-.015a.673.673,0,0,0-.632.749c-.007.274-.006.545,0,.833,0,.13,0,.26,0,.393a.3.3,0,0,1-.3.3H53.742a.3.3,0,0,1-.3-.3c0-.135,0-.269,0-.4,0-.285.007-.554-.007-.822s-.117-.753-.644-.753h-.028c-.492.016-.606.425-.615.765-.007.273-.006.555,0,.827q0,.191,0,.382a.3.3,0,0,1-.3.3H48.96a.3.3,0,0,1-.3-.3c0-.144,0-.286,0-.427,0-.31.006-.6-.006-.9a.6.6,0,0,0-.558-.643.838.838,0,0,0-.085,0c-.381,0-.613.265-.638.727-.015.276-.011.555-.007.85,0,.137,0,.276,0,.418a.3.3,0,0,1-.3.3c-.275,0-.543,0-.807,0l-.754,0c-.428,0-.775,0-1.094.014h-.06a1.572,1.572,0,0,1-1.075-.41c-2.2-1.856-4.453-3.745-6.7-5.615a1.073,1.073,0,0,1-.423-.908c.009-2.466.008-4.973.007-7.4V24.615c0-.076,0-.152,0-.228,0-.13,0-.255,0-.378,0-2.4,0-10.2,0-10.555,0-.6,0-1.217,0-1.826a5.422,5.422,0,0,1,5.414-5.417c3.7-.01,7.393-.016,10.973-.016,3.7,0,7.387.006,10.973.017a5.419,5.419,0,0,1,5.387,5.393c.021,7.164.011,14.448,0,21.491v.643a1.049,1.049,0,0,1-.341.737c-2.341,1.978-4.67,3.923-6.922,5.8" transform="translate(1249.354 3750.091)" fill="#ffb919"/>
      <path id="Path_313" data-name="Path 313" d="M41.357,34.6c-.355-.687-1.524-2.939-1.524-2.939A.3.3,0,0,1,39.9,31.3c.117-.1.232-.2.347-.3.26-.226.528-.46.81-.673a1.243,1.243,0,0,0,.517-1.1l-.007-3.8c-.011-6.039-.023-12.283.011-18.426A6.828,6.828,0,0,0,35.755.076.545.545,0,0,1,35.549,0H12.216l-.044.016a1.392,1.392,0,0,1-.266.075A6.653,6.653,0,0,0,6.328,5.774a24.561,24.561,0,0,0-.1,2.895c0,.318,0,7.688,0,10.258,0,.054-.005.112,0,.174v2.765q0,3.747,0,7.493a1.03,1.03,0,0,0,.407.873c.3.242.595.495.881.74l.378.322a.3.3,0,0,1,.074.362l-.093.186c-.059.117-.111.22-.164.323L5.914,35.608Q3.095,41.033.277,46.458a3.7,3.7,0,0,0-.246.555.62.62,0,0,0,.331.754.593.593,0,0,0,.269.064.606.606,0,0,0,.473-.226,2.588,2.588,0,0,0,.26-.434l.022-.042q2.047-3.937,4.092-7.876l1.5-2.895L8.92,32.632a.3.3,0,0,1,.456-.092c.1.086.2.172.3.256a7.3,7.3,0,0,0,.612.494.834.834,0,0,1,.32,1.134C9.024,38.507,7.434,42.667,5.9,46.69l-.027.071a.941.941,0,0,0-.037.715.6.6,0,0,0,.362.31.645.645,0,0,0,.225.044c.363,0,.567-.383.656-.611q.1-.243.193-.485c.188-.469.383-.954.536-1.437a.9.9,0,0,1,1-.686c5.189.007,10.276.008,14.573.008H32.1a1.932,1.932,0,0,0,.261-.014.662.662,0,0,0,.6-.63.651.651,0,0,0-.583-.636,2.1,2.1,0,0,0-.3-.017H9.013a.3.3,0,0,1-.28-.4c.06-.161.121-.315.18-.466.127-.324.248-.63.339-.937a.9.9,0,0,1,.995-.692c6.429.009,12.961.01,19.063.01H38.06a.3.3,0,0,1,.279.192s.9,2.348,1.16,3.019q.2.515.394,1.032c.284.746.578,1.516.874,2.271.187.476.5.476.6.476.026,0,.052,0,.079,0a.573.573,0,0,0,.566-.516,1.231,1.231,0,0,0-.1-.583c-.464-1.238-.946-2.493-1.413-3.707l-1-2.6c-.759-1.977-1.544-4.022-2.307-6.036a.89.89,0,0,1,.076-.844,9.483,9.483,0,0,1,.827-.724c.107-.087.215-.174.324-.265a.3.3,0,0,1,.192-.07.279.279,0,0,1,.057.006.3.3,0,0,1,.206.152l.1.181c.061.114.116.216.169.318l3.659,7.04q.518,1,1.039,1.993c.877,1.681,1.784,3.418,2.655,5.14a.837.837,0,0,0,.706.522.632.632,0,0,0,.576-.416.328.328,0,0,1,.047-.078v-.259ZM37.61,39.121a.3.3,0,0,1-.279.406H10.464a.3.3,0,0,1-.279-.405l1.563-4.082a.3.3,0,0,1,.47-.123l.609.5c.488.4.948.784,1.409,1.184a1.371,1.371,0,0,0,.962.357q4.35-.007,8.7-.007t8.7.007a1.367,1.367,0,0,0,.957-.359c.451-.393.907-.77,1.39-1.17l.623-.517a.3.3,0,0,1,.192-.07.3.3,0,0,1,.075.01.3.3,0,0,1,.2.182ZM33,35.372l-.028.023a.857.857,0,0,1-.511.254c-.493.01-.979.011-1.348.011l-1.261,0a.3.3,0,0,1-.3-.3c0-.147,0-.287,0-.423,0-.283,0-.55,0-.812-.006-.229-.08-.761-.643-.761H28.9a.673.673,0,0,0-.632.749c-.007.274-.006.545,0,.833,0,.13,0,.26,0,.393a.3.3,0,0,1-.3.3H25.1a.3.3,0,0,1-.3-.3c0-.135,0-.269,0-.4,0-.285.007-.554-.007-.822s-.117-.753-.644-.753h-.028c-.491.016-.606.425-.615.765-.007.273-.006.555,0,.827q0,.191,0,.382a.3.3,0,0,1-.3.3H20.314a.3.3,0,0,1-.3-.3c0-.144,0-.286,0-.427,0-.31.006-.6-.006-.9a.6.6,0,0,0-.558-.643.838.838,0,0,0-.085,0c-.381,0-.613.265-.638.727-.015.276-.011.555-.007.85,0,.137,0,.276,0,.418a.3.3,0,0,1-.3.3c-.275,0-.543,0-.807,0l-.754,0c-.428,0-.775,0-1.094.014h-.06a1.572,1.572,0,0,1-1.075-.41c-2.2-1.856-4.453-3.745-6.7-5.615a1.073,1.073,0,0,1-.423-.908c.009-2.466.008-4.973.007-7.4V19.707c0-.076,0-.152,0-.228,0-.13,0-.255,0-.378,0-2.4,0-10.2,0-10.555,0-.6,0-1.217,0-1.826A5.422,5.422,0,0,1,12.935,1.3c3.7-.01,7.393-.016,10.973-.016,3.7,0,7.387.006,10.973.017A5.419,5.419,0,0,1,40.267,6.7c.021,7.164.011,14.448,0,21.491v.643a1.049,1.049,0,0,1-.341.737c-2.341,1.978-4.67,3.923-6.922,5.8" transform="translate(1278 3754.999)" fill="#161615"/>
      <path id="Path_314" data-name="Path 314" d="M54.687,46.186a2.589,2.589,0,0,1-2.876-2.861q0-3.852,0-7.7a2.591,2.591,0,0,1,2.853-2.836H75.226a2.591,2.591,0,0,1,2.851,2.838q0,3.875,0,7.751a2.57,2.57,0,0,1-2.829,2.812H54.687Zm-.01-12.107c-1.116,0-1.571.458-1.572,1.579q0,3.828,0,7.655c0,1.121.456,1.578,1.572,1.579h8.836c.111,0,.222-.007.328-.013L64,44.869a.3.3,0,0,0,.284-.3V34.378a.3.3,0,0,0-.3-.3H54.677m11.709,0c-.108,0-.216.006-.33.012L65.9,34.1a.3.3,0,0,0-.285.3V44.593a.3.3,0,0,0,.3.3H75.2c1.123,0,1.581-.455,1.582-1.568q0-3.828,0-7.655c0-1.144-.451-1.59-1.608-1.59H66.386" transform="translate(1236.953 3729.026)" fill="#161615"/>
      <path id="Path_315" data-name="Path 315" d="M153.085,117.861a2.934,2.934,0,0,1-2.9-2.9,2.914,2.914,0,0,1,5.828-.013,2.953,2.953,0,0,1-2.908,2.91Zm.014-4.534a1.62,1.62,0,0,0-.017,3.239h.018a1.62,1.62,0,0,0,.017-3.239H153.1" transform="translate(1159.013 3666.24)" fill="#161615"/>
      <path id="Path_316" data-name="Path 316" d="M54.589,117.86a2.914,2.914,0,0,1,.035-5.827h.038a2.968,2.968,0,0,1,2.085.924,2.8,2.8,0,0,1,.8,2.023,2.956,2.956,0,0,1-2.9,2.881Zm.047-4.533a1.62,1.62,0,0,0-.03,3.24h.03a1.634,1.634,0,0,0,1.621-1.587,1.632,1.632,0,0,0-1.588-1.653Z" transform="translate(1237.013 3666.24)" fill="#161615"/>
      <path id="Path_317" data-name="Path 317" d="M92.882,113.335q-.962,0-1.923-.006a.794.794,0,0,1-.684-.332.572.572,0,0,1-.019-.565c.133-.281.374-.395.831-.395.966,0,1.926,0,2.886,0h5.07q.587,0,1.174.006a.7.7,0,0,1,.777.558.558.558,0,0,1-.116.469.844.844,0,0,1-.654.261q-.962.005-1.925,0l-2.708,0H92.882" transform="translate(1206.545 3666.239)" fill="#161615"/>
      <path id="Path_318" data-name="Path 318" d="M94.964,135.158c-1.574,0-2.889,0-4.136-.009a.6.6,0,0,1-.441-.186.639.639,0,0,1-.178-.462.667.667,0,0,1,.649-.627,1.592,1.592,0,0,1,.164-.007h6.739q1.167,0,2.333,0a1.683,1.683,0,0,1,.509.062.562.562,0,0,1,.409.582.68.68,0,0,1-.587.636l-1.584,0q-1.938,0-3.877,0" transform="translate(1206.53 3648.942)" fill="#161615"/>
      <path id="Path_319" data-name="Path 319" d="M171.779,209.865a.65.65,0,0,1-.441-.21.629.629,0,0,1-.184-.443.672.672,0,0,1,.639-.626h.015a.648.648,0,0,1,.441.209.631.631,0,0,1,.184.444.681.681,0,0,1-.638.626Z" transform="translate(1142.401 3589.744)" fill="#ffb919"/>
      <path id="Path_320" data-name="Path 320" d="M158.036,118.263a1.62,1.62,0,0,0-.017,3.239h.018a1.62,1.62,0,0,0,.017-3.239h-.018" transform="translate(1154.077 3661.304)" fill="#fff"/>
      <path id="Path_321" data-name="Path 321" d="M59.567,118.263a1.62,1.62,0,0,0-.03,3.24h.03a1.634,1.634,0,0,0,1.621-1.587,1.632,1.632,0,0,0-1.588-1.653Z" transform="translate(1232.082 3661.304)" fill="#fff"/>
      <path id="Path_322" data-name="Path 322" d="M59.616,39.015c-1.116,0-1.571.458-1.572,1.579q0,3.828,0,7.655c0,1.121.456,1.578,1.572,1.579h8.836c.111,0,.222-.007.328-.013l.155-.009a.3.3,0,0,0,.285-.3V39.313a.3.3,0,0,0-.3-.3H59.616" transform="translate(1232.014 3724.091)" fill="#fff"/>
      <path id="Path_323" data-name="Path 323" d="M119.022,39.017c-.108,0-.216.006-.33.012l-.159.008a.3.3,0,0,0-.285.3V49.531a.3.3,0,0,0,.3.3h9.291c1.123,0,1.581-.455,1.582-1.568q0-3.828,0-7.655c0-1.144-.451-1.59-1.608-1.59h-8.789" transform="translate(1184.316 3724.089)" fill="#fff"/>
    </g>
  </g>
</svg>
