<svg xmlns="http://www.w3.org/2000/svg" width="50" height="50" viewBox="0 0 50 50">
  <g id="icon-flexible" transform="translate(-3957.174 -3753.792)">
    <rect id="grid-50x50" width="50" height="50" transform="translate(3957.174 3753.792)" fill="#ffb919" opacity="0"/>
    <g id="icon">
      <path id="Path_294" data-name="Path 294" d="M44.3,29.276V6.922a2.941,2.941,0,0,0-2.938-2.938h-8.92V.44a.439.439,0,0,0-.879,0V3.983H14.747V.44a.439.439,0,0,0-.879,0V3.983H2.938A2.941,2.941,0,0,0,0,6.922V37.8a2.941,2.941,0,0,0,2.938,2.938H30.672a9.2,9.2,0,0,0,8.163,5h.095a9.148,9.148,0,0,0,9.052-9.2A9.2,9.2,0,0,0,44.3,29.276M.879,6.922A2.062,2.062,0,0,1,2.938,4.862H13.869V9.711a.439.439,0,0,0,.879,0V4.862H31.568V9.711a.439.439,0,1,0,.879,0V4.862h8.92a2.062,2.062,0,0,1,2.059,2.059v5.4H.879ZM2.938,39.864A2.062,2.062,0,0,1,.879,37.8V13.2H43.426V28.7A8.945,8.945,0,0,0,38.9,27.471h-.093a9.116,9.116,0,0,0-9.118,9.265,8.946,8.946,0,0,0,.587,3.128Zm41.8,2.525a8.23,8.23,0,0,1-5.816,2.477h-.085a8.245,8.245,0,0,1-5.809-2.385,8.1,8.1,0,0,1-2.454-5.751,8.247,8.247,0,0,1,8.248-8.38H38.9a8.258,8.258,0,0,1,8.2,8.208,8.141,8.141,0,0,1-2.367,5.832" transform="translate(3958.174 3755.791)" fill="#161615"/>
      <path id="Path_295" data-name="Path 295" d="M47.57,72.814a.439.439,0,0,1-.614.094l-5.207-3.827V62.345a.439.439,0,1,1,.879,0v6.292L47.476,72.2a.44.44,0,0,1,.094.614M35.358,42.858a1.079,1.079,0,1,0-1.174-1.075,1.128,1.128,0,0,0,1.174,1.075m-17.7,0a1.079,1.079,0,1,0-1.174-1.075,1.128,1.128,0,0,0,1.174,1.075m24.5,16.864h.093a8.945,8.945,0,0,1,4.522,1.225v-15.5H4.229V70.055a2.062,2.062,0,0,0,2.059,2.06H33.631a8.936,8.936,0,0,1-.587-3.128,9.116,9.116,0,0,1,9.118-9.265" transform="translate(3954.823 3723.54)" fill="#ffb919"/>
    </g>
  </g>
</svg>
