<svg xmlns="http://www.w3.org/2000/svg" width="50.022" height="50.022" viewBox="0 0 50.022 50.022">
  <g id="icon-home-office" transform="translate(0.011 0.011)">
    <rect id="grid-50x50" width="50" height="50" fill="#ffb919" opacity="0"/>
    <g id="icon">
      <path id="Path_364" data-name="Path 364" d="M28.238,15h0a3.984,3.984,0,0,0-3.969-4H17.061a3.984,3.984,0,0,0-3.969,4v2.49H28.238Z" transform="translate(-0.227 -0.191)" fill="#ffb919"/>
      <path id="Path_365" data-name="Path 365" d="M44.587,12.147a5.525,5.525,0,1,1-5.525-5.566,5.545,5.545,0,0,1,5.525,5.566" transform="translate(-0.581 -0.114)" fill="#ffb919"/>
      <rect id="Rectangle_211" data-name="Rectangle 211" width="21.212" height="9.012" transform="translate(9.832 17.302)" fill="#ffb919"/>
      <path id="Path_366" data-name="Path 366" d="M4.21,26.218h0a3.029,3.029,0,0,0-3.029,3.029v5.811H7.238V29.247A3.029,3.029,0,0,0,4.21,26.218Z" transform="translate(-0.021 -0.455)" fill="none" stroke="#161615" stroke-linecap="round" stroke-linejoin="round" stroke-width="1.276"/>
      <path id="Path_367" data-name="Path 367" d="M47.109,26.218h0a3.029,3.029,0,0,0-3.029,3.029v5.811h6.057V29.247A3.029,3.029,0,0,0,47.109,26.218Z" transform="translate(-0.764 -0.455)" fill="none" stroke="#161615" stroke-linecap="round" stroke-linejoin="round" stroke-width="1.276"/>
      <path id="Path_368" data-name="Path 368" d="M17.692,30.3h0a3.029,3.029,0,0,0-3.029,3.029V46.757H20.72V33.331A3.029,3.029,0,0,0,17.692,30.3Z" transform="translate(-0.254 -0.525)" fill="none" stroke="#161615" stroke-linecap="round" stroke-linejoin="round" stroke-width="1.276"/>
      <path id="Path_369" data-name="Path 369" d="M23.857,30.3h0a3.029,3.029,0,0,0-3.029,3.029V46.757h6.057V33.331A3.029,3.029,0,0,0,23.857,30.3Z" transform="translate(-0.361 -0.525)" fill="none" stroke="#161615" stroke-linecap="round" stroke-linejoin="round" stroke-width="1.276"/>
      <path id="Path_370" data-name="Path 370" d="M14.663,50.189V47.047H26.778v3.142" transform="translate(-0.254 -0.815)" fill="none" stroke="#161615" stroke-linecap="round" stroke-linejoin="round" stroke-width="1.276"/>
      <line id="Line_1" data-name="Line 1" y1="3.142" transform="translate(20.467 46.232)" fill="none" stroke="#161615" stroke-linecap="round" stroke-linejoin="round" stroke-width="1.276"/>
      <rect id="Rectangle_212" data-name="Rectangle 212" width="19.92" height="8.025" transform="translate(29.453 34.604)" fill="none" stroke="#161615" stroke-linecap="round" stroke-linejoin="round" stroke-width="1.276"/>
      <rect id="Rectangle_213" data-name="Rectangle 213" width="10.319" height="8.025" transform="translate(1.161 34.604)" fill="none" stroke="#161615" stroke-linecap="round" stroke-linejoin="round" stroke-width="1.276"/>
      <path id="Path_371" data-name="Path 371" d="M10.608,12.865h-.066A6.3,6.3,0,0,0,4.264,19.19v6.8" transform="translate(-0.074 -0.223)" fill="none" stroke="#161615" stroke-linecap="round" stroke-linejoin="round" stroke-width="1.276"/>
      <rect id="Rectangle_214" data-name="Rectangle 214" width="21.212" height="9.012" transform="translate(9.832 17.302)" fill="none" stroke="#161615" stroke-linecap="round" stroke-linejoin="round" stroke-width="1.276"/>
      <path id="Path_372" data-name="Path 372" d="M28.542,29.97h2.675V27.058H10.005V29.97H12.68" transform="translate(-0.173 -0.469)" fill="none" stroke="#161615" stroke-linecap="round" stroke-linejoin="round" stroke-width="1.276"/>
      <ellipse id="Ellipse_1" data-name="Ellipse 1" cx="5.525" cy="5.566" rx="5.525" ry="5.566" transform="translate(32.957 6.467)" fill="none" stroke="#161615" stroke-linecap="round" stroke-linejoin="round" stroke-width="1.276"/>
      <path id="Path_373" data-name="Path 373" d="M42.057,12.176h-2.9V8.26" transform="translate(-0.679 -0.143)" fill="none" stroke="#161615" stroke-linecap="round" stroke-linejoin="round" stroke-width="1.276"/>
      <path id="Path_374" data-name="Path 374" d="M20.683,10.735A4.584,4.584,0,0,1,18.75,10.3a1.868,1.868,0,0,0-.432,1.181,2.229,2.229,0,0,0,2.365,2.061,2.228,2.228,0,0,0,2.365-2.061,1.868,1.868,0,0,0-.432-1.181A4.584,4.584,0,0,1,20.683,10.735Z" transform="translate(-0.317 -0.178)" fill="none" stroke="#161615" stroke-linecap="round" stroke-linejoin="round" stroke-width="1.276"/>
      <path id="Path_375" data-name="Path 375" d="M24.8,5.534c0,2.887-1.858,5.228-4.15,5.228S16.5,8.421,16.5,5.534s3.316-4.9,5.608-4.9S24.8,2.647,24.8,5.534Z" transform="translate(-0.286 -0.011)" fill="none" stroke="#161615" stroke-linecap="round" stroke-linejoin="round" stroke-width="1.276"/>
      <path id="Path_376" data-name="Path 376" d="M28.238,15h0a3.984,3.984,0,0,0-3.969-4H17.061a3.984,3.984,0,0,0-3.969,4v2.49H28.238Z" transform="translate(-0.227 -0.191)" fill="none" stroke="#161615" stroke-linecap="round" stroke-linejoin="round" stroke-width="1.276"/>
      <path id="Path_377" data-name="Path 377" d="M47.144,26.038v-6.8a6.305,6.305,0,0,0-1-3.419" transform="translate(-0.8 -0.274)" fill="none" stroke="#161615" stroke-linecap="round" stroke-linejoin="round" stroke-width="1.276"/>
      <path id="Path_378" data-name="Path 378" d="M16.5,5.273c1.785-2.957,4.222-.845,6.441-1.845" transform="translate(-0.286 -0.059)" fill="none" stroke="#161615" stroke-linecap="round" stroke-linejoin="round" stroke-width="1.276"/>
      <path id="Path_379" data-name="Path 379" d="M2.276,43.381.638,49.727H4.069L5.233,45.22" transform="translate(-0.011 -0.752)" fill="none" stroke="#161615" stroke-linecap="round" stroke-linejoin="round" stroke-width="1.276"/>
      <path id="Path_380" data-name="Path 380" d="M48.525,43.381l1.638,6.345H46.731L45.568,45.22" transform="translate(-0.79 -0.752)" fill="none" stroke="#161615" stroke-linecap="round" stroke-linejoin="round" stroke-width="1.276"/>
    </g>
  </g>
</svg>
