<svg xmlns="http://www.w3.org/2000/svg" width="50.022" height="50.023" viewBox="0 0 50.022 50.023">
  <g id="icon-coupons" transform="translate(0.011 0.012)">
    <rect id="grid-50x50" width="50" height="50" fill="#ffb919" opacity="0"/>
    <g id="icon" transform="translate(0 0)">
      <path id="Path_407" data-name="Path 407" d="M6.233,15.9a2.344,2.344,0,0,1,2.344-2.344h1.646V.638H2.164A1.526,1.526,0,0,0,.638,2.164V6.508a3.356,3.356,0,1,1,0,6.712v4.344A1.526,1.526,0,0,0,2.164,19.09H6.233Z" transform="translate(-0.011 -0.011)" fill="#ffb919"/>
      <path id="Path_408" data-name="Path 408" d="M14.2,31.314A2.344,2.344,0,0,1,16.54,28.97h1.645V16.052H10.127A1.525,1.525,0,0,0,8.6,17.578v4.344a3.356,3.356,0,0,1,0,6.712v4.344A1.525,1.525,0,0,0,10.127,34.5H14.2Z" transform="translate(-0.149 -0.278)" fill="#ffb919"/>
      <line id="Line_13" data-name="Line 13" y2="0.975" transform="translate(10.212 0.917)" fill="none" stroke="#161615" stroke-linecap="round" stroke-linejoin="round" stroke-width="1.276"/>
      <line id="Line_14" data-name="Line 14" y2="1.023" transform="translate(10.212 1.892)" fill="none" stroke="#161615" stroke-linecap="round" stroke-linejoin="round" stroke-width="1.276" stroke-dasharray="0 2.041"/>
      <line id="Line_15" data-name="Line 15" y2="8.022" transform="translate(10.212 3.897)" fill="none" stroke="#161615" stroke-linecap="round" stroke-linejoin="round" stroke-width="1.276" stroke-dasharray="2.041 0 0 2.041"/>
      <line id="Line_16" data-name="Line 16" y2="0.975" transform="translate(10.212 11.919)" fill="none" stroke="#161615" stroke-linecap="round" stroke-linejoin="round" stroke-width="1.276"/>
      <path id="Path_409" data-name="Path 409" d="M14.3,8.123l.045.816a9.546,9.546,0,0,0,1.112-.192v4.025h1.019V7.723h-.807a4.905,4.905,0,0,1-1.37.4" transform="translate(-0.248 -0.134)"/>
      <path id="Path_410" data-name="Path 410" d="M18.849,9.584c-.087,0-.21,0-.317.009L18.6,8.6h2.226V7.722H17.719l-.187,2.691c.371-.018.695-.027,1.068-.027.657,0,1.276.077,1.276.7,0,.769-.281.883-1.077.883a9.38,9.38,0,0,1-1.277-.114l-.109.8a7.6,7.6,0,0,0,1.623.177c1.233,0,1.911-.468,1.911-1.656,0-1.379-.89-1.586-2.1-1.586" transform="translate(-0.302 -0.134)"/>
      <line id="Line_17" data-name="Line 17" x1="3.265" y2="4.928" transform="translate(23.652 7.389)" fill="none" stroke="#161615" stroke-linecap="round" stroke-linejoin="round" stroke-width="0.992"/>
      <path id="Path_411" data-name="Path 411" d="M25.028,8.12a.975.975,0,1,1-.975-.975.975.975,0,0,1,.975.975" transform="translate(-0.4 -0.124)" fill="#161615"/>
      <path id="Path_412" data-name="Path 412" d="M28.35,11.9a.975.975,0,1,1-.975-.975.975.975,0,0,1,.975.975" transform="translate(-0.458 -0.189)" fill="#161615"/>
      <path id="Path_413" data-name="Path 413" d="M33.736,13.22a3.356,3.356,0,0,1,0-6.713V2.164A1.527,1.527,0,0,0,32.21.637H2.164A1.527,1.527,0,0,0,.638,2.164V6.507a3.356,3.356,0,1,1,0,6.713v4.344A1.527,1.527,0,0,0,2.164,19.09H5.677" transform="translate(-0.011 -0.011)" fill="none" stroke="#161615" stroke-linecap="round" stroke-linejoin="round" stroke-width="1.276"/>
      <line id="Line_18" data-name="Line 18" y2="0.975" transform="translate(18.036 15.773)" fill="none" stroke="#161615" stroke-linecap="round" stroke-linejoin="round" stroke-width="1.276"/>
      <line id="Line_19" data-name="Line 19" y2="1.023" transform="translate(18.036 16.748)" fill="none" stroke="#161615" stroke-linecap="round" stroke-linejoin="round" stroke-width="1.276" stroke-dasharray="0 2.041"/>
      <line id="Line_20" data-name="Line 20" y2="8.022" transform="translate(18.036 18.754)" fill="none" stroke="#161615" stroke-linecap="round" stroke-linejoin="round" stroke-width="1.276" stroke-dasharray="2.041 0 0 2.041"/>
      <line id="Line_21" data-name="Line 21" y2="0.975" transform="translate(18.036 26.776)" fill="none" stroke="#161615" stroke-linecap="round" stroke-linejoin="round" stroke-width="1.276"/>
      <path id="Path_414" data-name="Path 414" d="M24.306,25.527a1.186,1.186,0,0,0,.7-1.137c0-1.1-.885-1.307-1.857-1.307a7.97,7.97,0,0,0-1.544.17l.105.783a10.813,10.813,0,0,1,1.356-.112c.517,0,.893.054.893.572,0,.349-.134.559-.486.61a9.617,9.617,0,0,1-1.14.1v.753h.092a7.921,7.921,0,0,1,1.048.056.569.569,0,0,1,.542.652c0,.6-.344.715-1.082.715a10.527,10.527,0,0,1-1.269-.113l-.111.8a7.978,7.978,0,0,0,1.568.172c1.219,0,1.961-.373,1.961-1.612a1.069,1.069,0,0,0-.779-1.1" transform="translate(-0.374 -0.4)"/>
      <path id="Path_415" data-name="Path 415" d="M27.846,23.082c-1.566,0-1.888.848-1.888,2.578s.321,2.579,1.888,2.579,1.886-.849,1.886-2.579-.319-2.578-1.886-2.578m0,4.332c-.835,0-.855-.7-.855-1.754s.02-1.756.855-1.756.854.7.854,1.756-.018,1.754-.854,1.754" transform="translate(-0.45 -0.4)"/>
      <path id="Path_416" data-name="Path 416" d="M16.562,37.335V32.991a1.526,1.526,0,0,1,1.526-1.526h8.059V49.918H18.088a1.527,1.527,0,0,1-1.526-1.527V44.048a3.356,3.356,0,0,0,0-6.713" transform="translate(-0.287 -0.545)" fill="#ffb919"/>
      <path id="Path_417" data-name="Path 417" d="M49.66,37.335V32.991a1.526,1.526,0,0,0-1.526-1.526H18.088a1.527,1.527,0,0,0-1.526,1.526v4.344a3.356,3.356,0,1,1,0,6.713v4.343a1.527,1.527,0,0,0,1.526,1.527H48.134a1.527,1.527,0,0,0,1.526-1.527V44.048a3.356,3.356,0,0,1,0-6.713Z" transform="translate(-0.287 -0.545)" fill="none" stroke="#161615" stroke-linecap="round" stroke-linejoin="round" stroke-width="1.276"/>
      <line id="Line_22" data-name="Line 22" y2="0.975" transform="translate(25.86 30.92)" fill="none" stroke="#161615" stroke-linecap="round" stroke-linejoin="round" stroke-width="1.276"/>
      <line id="Line_23" data-name="Line 23" y2="0.851" transform="translate(25.86 31.895)" fill="none" stroke="#161615" stroke-linecap="round" stroke-linejoin="round" stroke-width="1.276" stroke-dasharray="0 1.866"/>
      <line id="Line_24" data-name="Line 24" y2="14.669" transform="translate(25.86 33.729)" fill="none" stroke="#161615" stroke-linecap="round" stroke-linejoin="round" stroke-width="1.276" stroke-dasharray="1.866 0 0 1.866"/>
      <line id="Line_25" data-name="Line 25" y2="0.975" transform="translate(25.86 48.398)" fill="none" stroke="#161615" stroke-linecap="round" stroke-linejoin="round" stroke-width="1.276"/>
      <path id="Path_418" data-name="Path 418" d="M30.966,40.412c-.087,0-.21,0-.317.009l.069-.994h2.226V38.55H29.835l-.186,2.691c.371-.018.695-.027,1.068-.027.657,0,1.275.077,1.275.7,0,.769-.281.883-1.077.883a9.38,9.38,0,0,1-1.277-.114l-.109.8a7.6,7.6,0,0,0,1.623.177c1.233,0,1.911-.468,1.911-1.656,0-1.379-.89-1.586-2.1-1.586" transform="translate(-0.512 -0.668)"/>
      <path id="Path_419" data-name="Path 419" d="M35.836,38.5c-1.566,0-1.888.848-1.888,2.578s.321,2.579,1.888,2.579,1.886-.849,1.886-2.579S37.4,38.5,35.836,38.5m0,4.332c-.835,0-.855-.7-.855-1.754s.02-1.756.855-1.756.854.7.854,1.756-.018,1.754-.854,1.754" transform="translate(-0.588 -0.667)"/>
      <line id="Line_26" data-name="Line 26" x1="3.265" y2="4.928" transform="translate(31.333 22.536)" fill="none" stroke="#161615" stroke-linecap="round" stroke-linejoin="round" stroke-width="0.992"/>
      <path id="Path_420" data-name="Path 420" d="M32.844,23.534a.975.975,0,1,1-.975-.975.975.975,0,0,1,.975.975" transform="translate(-0.536 -0.391)" fill="#161615"/>
      <path id="Path_421" data-name="Path 421" d="M36.167,27.313a.975.975,0,1,1-.975-.975.975.975,0,0,1,.975.975" transform="translate(-0.593 -0.456)" fill="#161615"/>
      <line id="Line_27" data-name="Line 27" x1="3.265" y2="4.928" transform="translate(39.157 37.683)" fill="none" stroke="#161615" stroke-linecap="round" stroke-linejoin="round" stroke-width="0.992"/>
      <path id="Path_422" data-name="Path 422" d="M40.806,38.948a.975.975,0,1,1-.975-.975.975.975,0,0,1,.975.975" transform="translate(-0.674 -0.658)" fill="#161615"/>
      <path id="Path_423" data-name="Path 423" d="M44.129,42.727a.975.975,0,1,1-.975-.975.975.975,0,0,1,.975.975" transform="translate(-0.731 -0.724)" fill="#161615"/>
      <path id="Path_424" data-name="Path 424" d="M41.7,28.634a3.356,3.356,0,0,1,0-6.713V17.578a1.527,1.527,0,0,0-1.526-1.527H10.126A1.527,1.527,0,0,0,8.6,17.578v4.343a3.356,3.356,0,1,1,0,6.713v4.344A1.527,1.527,0,0,0,10.126,34.5h3.513" transform="translate(-0.149 -0.278)" fill="none" stroke="#161615" stroke-linecap="round" stroke-linejoin="round" stroke-width="1.276"/>
    </g>
  </g>
</svg>
