<svg xmlns="http://www.w3.org/2000/svg" width="50" height="50" viewBox="0 0 50 50">
  <g id="icon-good-life" transform="translate(0 1)">
    <rect id="grid-50x50" width="50" height="50" transform="translate(0 -1)" fill="#ffb919" opacity="0"/>
    <g id="icon" transform="translate(0 0)">
      <path id="Path_625" data-name="Path 625" d="M33.929,18.931a5.043,5.043,0,0,0,.709-1.3,5.325,5.325,0,0,0,.316-1.431c.006-.05.011-.106.014-.165s.005-.112.005-.156a3.973,3.973,0,0,0-.279-1.615,2.943,2.943,0,0,0-.793-1.1,3.181,3.181,0,0,0-1.181-.628,5.307,5.307,0,0,0-.88-.169c.063-.067.127-.128.191-.2a8.573,8.573,0,0,0,.6-.821q.3-.463.582-.949c.163-.287.312-.569.455-.852-.015.162-.032.323-.044.488q-.029.4-.028.765a6.542,6.542,0,0,0,.052.855,2.657,2.657,0,0,0,.179.7,1.2,1.2,0,0,0,.34.478.854.854,0,0,0,.533.184,1.509,1.509,0,0,0,.69-.119,2.14,2.14,0,0,0,.566-.364,3.151,3.151,0,0,0,.463-.51c.138-.188.265-.377.378-.566s.24-.415.378-.661.277-.507.415-.784a1.636,1.636,0,0,0,.524.194,1.541,1.541,0,0,0,.524.014A2.126,2.126,0,0,0,39.293,10c.057-.03.1-.078.159-.112-.022.064-.049.128-.07.193a5.752,5.752,0,0,0-.241,1.048,1.053,1.053,0,0,0-.009.142V11.4a2.829,2.829,0,0,0,.066.614,1.442,1.442,0,0,0,.218.51,1.093,1.093,0,0,0,.406.35,1.337,1.337,0,0,0,.624.132,1.68,1.68,0,0,0,.774-.194,3.341,3.341,0,0,0,.723-.506,5.3,5.3,0,0,0,.652-.713,8.913,8.913,0,0,0,.562-.827c-.007.044-.01.068-.01.071v.024a3.341,3.341,0,0,0-.028.595,2.991,2.991,0,0,0,.1.694,1.6,1.6,0,0,0,.279.577.635.635,0,0,0,.529.241,1.411,1.411,0,0,0,.519-.1A1.58,1.58,0,0,0,45,12.6a3.39,3.39,0,0,0,.459-.477,7.518,7.518,0,0,0,.472-.657q.231-.358.463-.755t.434-.784q.2-.387.378-.737l.307-.614.095-.209a.487.487,0,0,0-.091-.127.185.185,0,0,0-.136-.052.355.355,0,0,0-.142.029c-.05.088-.112.2-.184.335s-.143.279-.213.43q-.189.349-.419.77t-.483.831q-.249.411-.5.774a4.467,4.467,0,0,1-.482.591q-.122.1-.184.067a.229.229,0,0,1-.085-.16,1.3,1.3,0,0,1-.014-.307c.006-.123.015-.244.028-.364s.027-.23.042-.331.027-.173.033-.217c.031-.2.078-.419.137-.652a1.934,1.934,0,0,0,.061-.652.789.789,0,0,0-.251-.5,1.276,1.276,0,0,0-.779-.26,1.049,1.049,0,0,0-.264.052.144.144,0,0,0-.1.174.6.6,0,0,1-.043.311,1.839,1.839,0,0,0-.089.246q-.18.349-.444.817a9.6,9.6,0,0,1-.572.892,4.643,4.643,0,0,1-.633.723.948.948,0,0,1-.619.3A.4.4,0,0,1,40.909,12a.5.5,0,0,1-.142-.208.881.881,0,0,1-.051-.279,2.608,2.608,0,0,1,0-.283,3.57,3.57,0,0,1,.151-.718,9.569,9.569,0,0,1,.345-.949q.213-.5.487-1.016a7.032,7.032,0,0,1,.586-.92,3.485,3.485,0,0,1,.652-.671,1.112,1.112,0,0,1,.67-.259.692.692,0,0,1,.434.137,1.061,1.061,0,0,1,.293.345,1.455,1.455,0,0,1,.155.467,2.418,2.418,0,0,1,.033.5c-.012.07-.023.134-.033.195a1.028,1.028,0,0,1-.051.194.244.244,0,0,0,.2.113.48.48,0,0,0,.127-.028.219.219,0,0,0,.109-.056l.009-.01A2.119,2.119,0,0,0,45,8.035a2.483,2.483,0,0,0-.071-.788,2.213,2.213,0,0,0-.316-.709,1.787,1.787,0,0,0-.539-.515,1.373,1.373,0,0,0-.736-.2,2.228,2.228,0,0,0-1.04.26,4.109,4.109,0,0,0-.948.689,6.062,6.062,0,0,0-.827.988,9.133,9.133,0,0,0-.666,1.147c-.03.062-.054.124-.084.186-.044.046-.082.1-.129.144a2.584,2.584,0,0,1-.424.322,1.622,1.622,0,0,1-.464.194,1.246,1.246,0,0,1-.141.028.93.93,0,0,1-.123.01.964.964,0,0,1-.624-.255l.529-1.1q.2-.445.392-.9t.34-.888a8.384,8.384,0,0,0,.236-.827,3.186,3.186,0,0,0,.091-.714,1.177,1.177,0,0,0-.165-.656.7.7,0,0,0-.572-.278,1.1,1.1,0,0,0-.813.288,2.631,2.631,0,0,0-.628.841,5.044,5.044,0,0,0-.4,1.18,6.091,6.091,0,0,0-.142,1.289,4.488,4.488,0,0,0,.124,1.072,2.179,2.179,0,0,0,.377.837q-.256.51-.472.9t-.406.693c-.05.089-.111.181-.179.279a1.917,1.917,0,0,1-.232.269,1.42,1.42,0,0,1-.264.2.446.446,0,0,1-.288.061.284.284,0,0,1-.195-.085.514.514,0,0,1-.108-.188,1.227,1.227,0,0,1-.052-.251c-.009-.091-.014-.183-.014-.278,0-.076,0-.149.005-.223s0-.136,0-.194a.305.305,0,0,1,.005-.046.331.331,0,0,0,.005-.047c.013-.176.03-.365.051-.567s.047-.4.077-.595.056-.381.085-.557.054-.334.081-.473l.061-.321c.021-.12.038-.247.051-.383s.023-.272.033-.411a3.489,3.489,0,0,0,0-.4,1.752,1.752,0,0,0-.169-.675.978.978,0,0,0-.454-.468,1.009,1.009,0,0,0-.293-.056,1.614,1.614,0,0,0-.4.009.6.6,0,0,0-.227.076.169.169,0,0,0-.076.188.212.212,0,0,0,.009.072c.006.015.016.036.028.06.019.051.039.108.061.17a.874.874,0,0,1,.042.227,2.555,2.555,0,0,1-.028.439q-.038.3-.1.7c-.025.165-.05.351-.076.538-.029.051-.056.094-.089.156-.06.117-.131.25-.213.4q-.151.293-.341.648t-.4.717c-.139.243-.277.477-.416.7s-.274.423-.406.6a3.079,3.079,0,0,1-.373.425.494.494,0,0,1-.307.16c-.107-.006-.182-.077-.226-.213a1.751,1.751,0,0,1-.067-.533c0-.05,0-.112.005-.184s.007-.14.014-.2c.031-.265.077-.554.137-.87s.127-.631.2-.949.152-.62.232-.906.149-.53.213-.733c.037-.125.067-.242.09-.349A1.523,1.523,0,0,0,31.9,6.94a.581.581,0,0,0-.179-.443,1.647,1.647,0,0,0-.576-.312A.532.532,0,0,0,30.9,6.17a.194.194,0,0,0-.151.147.719.719,0,0,0-.019.179,1.432,1.432,0,0,1-.028.264V6.751l-.132.434q-.293.9-.538,1.79a9.833,9.833,0,0,0-.322,1.818c-.006.076-.011.153-.014.232s-.005.155-.005.231a3.622,3.622,0,0,0,.057.666,1.615,1.615,0,0,0,.178.5c-.266.037-.532.074-.8.133-.365.083-.722.179-1.071.293a10.4,10.4,0,0,0-.978.368q-.256.113-.624.307c-.146.077-.3.174-.448.264.092-.112.185-.215.277-.33q.448-.567.845-1.124.473-.7.93-1.484t.879-1.606q.42-.822.789-1.658t.647-1.644q.278-.807.468-1.563a8.971,8.971,0,0,0,.245-1.416A5.92,5.92,0,0,0,30.839.535a1.484,1.484,0,0,0-.156-.194,1.743,1.743,0,0,0-.236-.213A.7.7,0,0,0,30.2.006a.2.2,0,0,0-.208.067.438.438,0,0,0-.052.188,1.17,1.17,0,0,0,.01.213,2.062,2.062,0,0,0,.037.208,1.007,1.007,0,0,0,.052.165,3.02,3.02,0,0,1,.061.5,4.648,4.648,0,0,1-.014.61,8.151,8.151,0,0,1-.269,1.384q-.213.77-.515,1.6T28.628,6.6q-.367.841-.727,1.587-.209.407-.51.988t-.68,1.261q-.378.68-.812,1.407t-.907,1.426q-.472.7-.973,1.333a9.774,9.774,0,0,1-1.011,1.106q.16-.567.3-1.229t.246-1.294q.047-.311.1-.661t.123-.67l.075-.445c.077-.44.148-.9.218-1.384s.129-.942.179-1.384c.019-.126.033-.253.042-.382s.021-.26.033-.392a16.967,16.967,0,0,0,.052-1.814,8.355,8.355,0,0,0-.213-1.69,5.6,5.6,0,0,0-.586-1.5,4.206,4.206,0,0,0-1.058-1.215,3.3,3.3,0,0,0-1.1-.585A4.724,4.724,0,0,0,20.013.857c-.062,0-.162.006-.3.018s-.278.029-.429.047a5.552,5.552,0,0,0-1.734.577,6.928,6.928,0,0,0-1.5,1.062A6.682,6.682,0,0,0,14.9,3.969a5.716,5.716,0,0,0-.684,1.62,3.863,3.863,0,0,0-.1.42c-.025.136-.041.238-.047.307a3.954,3.954,0,0,0,.061,1.18,3.215,3.215,0,0,0,.4,1.03,2.885,2.885,0,0,0,.728.8A2.777,2.777,0,0,0,16.31,9.8a1.23,1.23,0,0,0,.246.037c.095.007.2.01.3.01a2.733,2.733,0,0,0,1.252-.3,3.977,3.977,0,0,0,1.062-.779,5.185,5.185,0,0,0,.817-1.091,5.732,5.732,0,0,0,.524-1.233H20.5a.07.07,0,0,1,0-.028.067.067,0,0,0,.005-.028l.009-.01.019-.037-.009.009V6.335a.258.258,0,0,1,.019-.056v.009c.012-.037.024-.081.037-.132a1.237,1.237,0,0,0,.028-.188.481.481,0,0,0-.024-.25.15.15,0,0,0-.183-.09c-.138.012-.226.057-.26.136a.973.973,0,0,0-.071.27.231.231,0,0,0-.005.08.785.785,0,0,1,.005.081,5.133,5.133,0,0,1-.327.869,4.871,4.871,0,0,1-.533.884,3.306,3.306,0,0,1-.689.684,1.386,1.386,0,0,1-.793.283,1.117,1.117,0,0,1-.775-.236,2.383,2.383,0,0,1-.656-.756,4.011,4.011,0,0,1-.425-1.115,4.155,4.155,0,0,1,.293-2.715,5.223,5.223,0,0,1,.784-1.229,4.652,4.652,0,0,1,1.034-.9,2.694,2.694,0,0,1,1.133-.424,2.763,2.763,0,0,1,1.342.486,3.473,3.473,0,0,1,.93,1.006,5,5,0,0,1,.572,1.347,8.776,8.776,0,0,1,.265,1.5q.018.454,0,1.106T22.148,8.4q-.067.785-.174,1.6t-.241,1.616q-.133.8-.278,1.544t-.288,1.38q-.142.632-.269,1.115c-.086.321-.159.573-.223.755a1.1,1.1,0,0,1-.141.3,1.569,1.569,0,0,1-.189.237v-.01c-.018.031-.039.065-.061.1a.3.3,0,0,0-.042.09.146.146,0,0,0,.076.183.631.631,0,0,0,.265.09,1.067,1.067,0,0,0,.208.024c.088,0,.176,0,.264,0a2.388,2.388,0,0,0,.652-.094,3.88,3.88,0,0,0,.652-.255,6.668,6.668,0,0,0,.632-.364c.209-.136.409-.278.6-.43.145-.117.3-.249.45-.39a.792.792,0,0,0,.076.427.779.779,0,0,0,.279.3,1.257,1.257,0,0,0,.438.17,1.907,1.907,0,0,0,.557.023,4.192,4.192,0,0,0,1.082-.292,8.442,8.442,0,0,0,1.026-.5,5.232,5.232,0,0,0-.161.633q-.076.378-.146.841t-.142,1q-.07.538-.146,1.124-.085.708-.188,1.459t-.223,1.483c-.079.489-.163.956-.255,1.4s-.194.857-.306,1.228l.009-.009c-.05.114-.1.216-.137.306a.855.855,0,0,1-.127.213.328.328,0,0,0-.067.189c-.056.113-.044.2.038.26a1.257,1.257,0,0,0,.3.155,1.724,1.724,0,0,0,.733-.037,1.4,1.4,0,0,0,.524-.288,1.729,1.729,0,0,0,.364-.459,3.884,3.884,0,0,0,.25-.547q.076-.349.194-1t.26-1.465q.142-.816.3-1.743t.311-1.842q.151-.916.288-1.762t.241-1.488a3.9,3.9,0,0,0-.009-.468,1.145,1.145,0,0,0-.09-.369.559.559,0,0,0-.2-.24.592.592,0,0,0-.336-.086,1.374,1.374,0,0,0-.311.042,2.6,2.6,0,0,0-.369.118,4.614,4.614,0,0,0-.443.223c-.189.1-.384.216-.586.335l-.45.255q-.231.133-.463.246t-.443.208a3.646,3.646,0,0,1-.392.151.665.665,0,0,1-.449,0,.218.218,0,0,1-.128-.236.68.68,0,0,1,.095-.274,1.889,1.889,0,0,1,.236-.322,4.191,4.191,0,0,1,.851-.665,8.883,8.883,0,0,1,1.388-.694,12.1,12.1,0,0,1,1.309-.373,5.891,5.891,0,0,1,1.307-.156A3.8,3.8,0,0,1,31,13.528a2.781,2.781,0,0,1,.68.293,1.9,1.9,0,0,1,.534.482,2.235,2.235,0,0,1,.345.7,3.026,3.026,0,0,1,.113.934c0,.051,0,.1,0,.156s-.008.109-.015.165a4.985,4.985,0,0,1-.278,1.252,4.372,4.372,0,0,1-.633,1.162,4.445,4.445,0,0,1-1.025.968,5.034,5.034,0,0,1-1.445.671.3.3,0,0,0-.094.109.517.517,0,0,0-.052.151.6.6,0,0,0-.009.15.163.163,0,0,0,.042.109,4.145,4.145,0,0,1,1.157.279,2.423,2.423,0,0,1,.774.5,1.775,1.775,0,0,1,.43.685,2.413,2.413,0,0,1,.123.832,3.916,3.916,0,0,1-.284,1.393,6.1,6.1,0,0,1-.737,1.337,7.656,7.656,0,0,1-1.071,1.2,8.044,8.044,0,0,1-1.294.959,6.807,6.807,0,0,1-1.408.637,4.556,4.556,0,0,1-1.4.232c-.07,0-.139,0-.209-.005a1.914,1.914,0,0,1-.217-.023,3.172,3.172,0,0,1-1.233-.4,2.811,2.811,0,0,1-.883-.8,3.244,3.244,0,0,1-.506-1.134,4.38,4.38,0,0,1-.1-1.379,4.109,4.109,0,0,1,.09-.619q.071-.327.174-.647a3.924,3.924,0,0,1,.439-.883,4.4,4.4,0,0,1,.6-.737,3.125,3.125,0,0,1,.67-.506,1.354,1.354,0,0,1,.647-.188.689.689,0,0,1,.359.095.766.766,0,0,1,.274.3,1.6,1.6,0,0,1,.165.524,3.548,3.548,0,0,1,.024.774.2.2,0,0,0,.169.086c.07,0,.148-.063.237-.189.012-.069.023-.141.032-.217s.018-.145.024-.208a2.763,2.763,0,0,0-.052-.87,1.417,1.417,0,0,0-.287-.59,1.155,1.155,0,0,0-.478-.336,1.723,1.723,0,0,0-.609-.1,2.776,2.776,0,0,0-1.025.217,4.41,4.41,0,0,0-1.044.6,4.8,4.8,0,0,0-.907.916,3.968,3.968,0,0,0-.614,1.166,4.862,4.862,0,0,0-.146.572q-.051.278-.081.562a4.191,4.191,0,0,0,.18,1.676,4.043,4.043,0,0,0,.76,1.365,4.433,4.433,0,0,0,1.233,1,5.575,5.575,0,0,0,1.606.586,5.2,5.2,0,0,0,1.048.1,7.887,7.887,0,0,0,1.621-.179,10.08,10.08,0,0,0,3.315-1.356,7.777,7.777,0,0,0,1.394-1.124,5.851,5.851,0,0,0,1.006-1.38,4.238,4.238,0,0,0,.468-1.6,3.327,3.327,0,0,0,.014-.392c0-.135-.011-.266-.024-.392a2.841,2.841,0,0,0-.637-1.46,3.786,3.786,0,0,0-1.6-1.092,4.545,4.545,0,0,0,2.574-1.681M37.455,7.625q.044-.429.128-.865t.2-.831a4.119,4.119,0,0,1,.26-.694,1.582,1.582,0,0,1,.315-.459.378.378,0,0,1,.36-.114q.3.067.3.539a2.793,2.793,0,0,1-.108.694,8.4,8.4,0,0,1-.279.855q-.169.445-.368.883c-.133.292-.255.556-.369.789l-.387.727a2.045,2.045,0,0,1-.095-.746q0-.349.042-.779M49.794,20.42a.2.2,0,0,0-.141-.052.171.171,0,0,0-.146.056,1.044,1.044,0,0,0-.091.151h.01l-.028.057a.08.08,0,0,0-.029.056c-.049.094-.132.25-.245.468s-.246.461-.4.732-.311.551-.482.841-.339.554-.5.793a5.793,5.793,0,0,1-.463.591c-.142.154-.26.232-.355.232a.147.147,0,0,1-.132-.077.589.589,0,0,1-.071-.188,1.128,1.128,0,0,1-.024-.236,2,2,0,0,1,.01-.218,4.949,4.949,0,0,1,.217-1q.18-.576.4-1.19.245-.652.439-1.308a6.227,6.227,0,0,0,.241-1.2,2.145,2.145,0,0,0-.014-.468,1.04,1.04,0,0,0-.128-.373.658.658,0,0,0-.264-.25.91.91,0,0,0-.425-.09,1.347,1.347,0,0,0-.728.213,3.174,3.174,0,0,0-.647.543,6.106,6.106,0,0,0-.586.746q-.278.416-.542.822c-.032.05-.061.1-.091.136s-.058.087-.09.137c.095-.264.176-.526.246-.784a4.05,4.05,0,0,0,.132-.718,2.339,2.339,0,0,0-.023-.439,1.059,1.059,0,0,0-.132-.378.75.75,0,0,0-.274-.264.878.878,0,0,0-.439-.1,1.334,1.334,0,0,0-.709.2,3.033,3.033,0,0,0-.628.524,6.271,6.271,0,0,0-.571.723q-.274.4-.529.8c-.089.132-.171.261-.25.387s-.159.243-.241.35a1.109,1.109,0,0,1,.037-.179c.013-.038.031-.11.056-.217.044-.152.086-.313.123-.487a3.548,3.548,0,0,0,.076-.515,2.071,2.071,0,0,0-.014-.468,1.073,1.073,0,0,0-.151-.42.868.868,0,0,0-.34-.306,1.225,1.225,0,0,0-.581-.119.538.538,0,0,0-.232.047.208.208,0,0,0-.118.17.712.712,0,0,0,0,.085c0,.025.008.053.015.086.012.062.023.132.032.208a1.4,1.4,0,0,1,.005.264,5.656,5.656,0,0,1-.137.8q-.109.463-.232.973c-.023.091-.044.192-.068.283-.018.033-.039.074-.055.1-.107.207-.225.438-.354.693s-.269.515-.42.78v-.01q-.18.3-.411.666a5.518,5.518,0,0,1-.51.68,3.181,3.181,0,0,1-.6.533,1.254,1.254,0,0,1-.68.227.8.8,0,0,1-.378-.118.706.706,0,0,1-.236-.255,1.127,1.127,0,0,1-.118-.35,2.368,2.368,0,0,1-.033-.4v-.156a1.286,1.286,0,0,1,.009-.155c.013-.127.027-.246.043-.36s.036-.223.06-.331a5.376,5.376,0,0,0,1.007-.331,4.817,4.817,0,0,0,.978-.566,3.635,3.635,0,0,0,.774-.784A2.008,2.008,0,0,0,39,19.754a2.2,2.2,0,0,0-.09-.742,2,2,0,0,0-.331-.652,1.741,1.741,0,0,0-.548-.467,1.5,1.5,0,0,0-.741-.179,1.918,1.918,0,0,0-.837.193,2.977,2.977,0,0,0-.756.534,4.461,4.461,0,0,0-.646.789,6.224,6.224,0,0,0-.515.964,7.355,7.355,0,0,0-.364,1.057,6.51,6.51,0,0,0-.188,1.072v-.009a1.694,1.694,0,0,0-.019.25V22.8a4.575,4.575,0,0,0,.094.939,2.472,2.472,0,0,0,.307.794,1.651,1.651,0,0,0,.557.552,1.6,1.6,0,0,0,.836.208,2.549,2.549,0,0,0,1.176-.264,3.579,3.579,0,0,0,.917-.671,5.251,5.251,0,0,0,.713-.9q.311-.5.566-.949c.029-.048.051-.094.079-.142-.045.267-.084.533-.107.794-.006.07-.01.135-.014.2s0,.126,0,.188a3.228,3.228,0,0,0,.051.577,1.6,1.6,0,0,0,.179.5.994.994,0,0,0,.35.359,1.052,1.052,0,0,0,.562.138c.132,0,.208-.041.227-.123a.479.479,0,0,0-.029-.151,2.917,2.917,0,0,1-.071-.369,2.972,2.972,0,0,1-.014-.566,8.008,8.008,0,0,1,.161-.945,6.761,6.761,0,0,1,.254-.878h-.009l.16-.264v.009c.089-.145.2-.328.327-.548s.272-.455.429-.7.322-.5.491-.741.338-.469.5-.666a3.646,3.646,0,0,1,.468-.482.653.653,0,0,1,.392-.184c.062,0,.092.056.085.17a2.783,2.783,0,0,1-.16.6q-.142.4-.34.911c-.095.246-.195.509-.3.789s-.2.565-.288.855-.169.577-.241.86a5.427,5.427,0,0,0-.147.8,1.071,1.071,0,0,0-.009.146V23.8a2.319,2.319,0,0,0,.061.548,1.248,1.248,0,0,0,.2.449.956.956,0,0,0,.374.3,1.354,1.354,0,0,0,.572.108c.138,0,.211-.04.217-.122a.212.212,0,0,0,.005-.072.19.19,0,0,0-.014-.042,1.6,1.6,0,0,1-.151-.477,2.161,2.161,0,0,1-.019-.5,5.719,5.719,0,0,1,.137-.742c.066-.267.149-.546.25-.836l-.009.009c.088-.12.187-.267.3-.443l.373-.6q.265-.443.572-.935c.2-.327.41-.628.614-.9a5.637,5.637,0,0,1,.591-.68.79.79,0,0,1,.5-.268.07.07,0,0,1,.028,0,.045.045,0,0,0,.019.005c.043.018.059.07.047.151a2.723,2.723,0,0,1-.165.595l-.336.907c-.095.246-.194.508-.3.788s-.2.564-.288.851-.168.569-.241.85a5.322,5.322,0,0,0-.146.789c-.007.05-.011.1-.014.155s-.005.1-.005.147a1.5,1.5,0,0,0,.26.911,1.048,1.048,0,0,0,.9.355,1.066,1.066,0,0,0,.581-.194,2.935,2.935,0,0,0,.581-.51,6.6,6.6,0,0,0,.562-.733q.278-.416.534-.86c.169-.3.331-.59.481-.883s.29-.565.416-.817l.283-.566a.419.419,0,0,0-.095-.127m-13.635.973q.127-.307.292-.647t.373-.68a6.7,6.7,0,0,1,.421-.614,2.659,2.659,0,0,1,.424-.445.651.651,0,0,1,.392-.169c.133,0,.246.091.341.274a1.306,1.306,0,0,1,.141.718,1.446,1.446,0,0,1-.322.783,3.142,3.142,0,0,1-.675.634,4.026,4.026,0,0,1-.816.443,2.976,2.976,0,0,1-.747.208,3.526,3.526,0,0,1,.175-.5M22.583,1.687c-.018-.014-.04-.024-.057-.038l-.009-.008Zm8.823,3.765a.784.784,0,0,1-.151-.581,1.073,1.073,0,0,1,.067-.307,1.2,1.2,0,0,1,.141-.278.733.733,0,0,1,.2-.2.456.456,0,0,1,.25-.076.488.488,0,0,1,.25.076.77.77,0,0,1,.241.246,1.647,1.647,0,0,1,.147.345.873.873,0,0,1,.033.288.651.651,0,0,1-.274.5.873.873,0,0,1-.51.174.526.526,0,0,1-.4-.184" transform="translate(0.112 0)" fill="#1d1d1b"/>
      <path id="Path_626" data-name="Path 626" d="M22.3,15.027a6.46,6.46,0,0,0-11.146-4.418A6.46,6.46,0,0,0,.008,15.026,7.8,7.8,0,0,0,.423,17.61a.869.869,0,0,0,1.314.459l.008-.005A.69.69,0,0,0,2,17.241l-.052-.132a5.424,5.424,0,0,1-.339-1.98l0-.075A4.935,4.935,0,0,1,6.468,10.2a5.166,5.166,0,0,1,4.686,2.636A5.931,5.931,0,0,1,15.841,10.2a4.857,4.857,0,0,1,4.851,4.851l0,.075a7.129,7.129,0,0,1-1.026,3.585c-.041.081-.086.16-.129.24l-7.815-5.209a1.032,1.032,0,0,0-1.144,0L6.619,16.378v-1.1A1.023,1.023,0,0,0,5.6,14.251H5.552a1.024,1.024,0,0,0-1.023,1.023v2.495l-2.843,1.89a.368.368,0,0,0-.1.516l.234.348A32.787,32.787,0,0,0,9.641,28.4a2.525,2.525,0,0,0,3.027-.007c4.368-3.278,9.964-8.545,9.632-13.363M11.623,27.182a.8.8,0,0,1-.938,0,30.62,30.62,0,0,1-6.862-6.57.365.365,0,0,1-.064-.28.371.371,0,0,1,.158-.241L10.8,15.535a.645.645,0,0,1,.715,0l7.075,4.715a.129.129,0,0,1,.033.178,31.268,31.268,0,0,1-7,6.753m-2.631-7.5a.646.646,0,0,1,.645-.645h.433a.645.645,0,0,1,.645.645v.433a.644.644,0,0,1-.645.645H9.637a.645.645,0,0,1-.645-.645Zm4.44.433a.644.644,0,0,1-.645.645h-.433a.645.645,0,0,1-.645-.645v-.433a.646.646,0,0,1,.645-.645h.433a.645.645,0,0,1,.645.645Zm-4.5,1.936a.644.644,0,0,1,.645-.645h.433a.645.645,0,0,1,.645.645v.433a.645.645,0,0,1-.645.645H9.579a.644.644,0,0,1-.645-.645Zm4.44.433a.645.645,0,0,1-.645.645H12.3a.644.644,0,0,1-.645-.645v-.433a.644.644,0,0,1,.645-.645h.433a.645.645,0,0,1,.645.645Z" transform="translate(0 0.069)" fill="#fab900"/>
      <rect id="Rectangle_258" data-name="Rectangle 258" width="36.209" height="12.906" transform="translate(6.645 34.423)" fill="#fab900"/>
      <path id="Path_627" data-name="Path 627" d="M20.928,38.277h.288c.62,0,.8.276.8.626,0,.7-.347,1.982-1.425,1.982h-.418Zm-.5,3.67A2.89,2.89,0,0,0,23.4,38.786c0-.914-.507-1.579-1.715-1.579H20.306a.553.553,0,0,0-.546.373l-1.254,4.367Zm-2.956,0a.554.554,0,0,0,.54-.381l.221-.689H16.194l.224-.789h1.594l.342-1.07H16.735l.211-.74h1.493a.561.561,0,0,0,.544-.378l.218-.692H16.291a.556.556,0,0,0-.539.37l-1.26,4.37Zm-4.516-.314,2.508-4.387H14.414a.7.7,0,0,0-.623.373L12.2,40.663l-.16-3.456H11.1a.375.375,0,0,0-.405.409l.327,4.331h1.334a.718.718,0,0,0,.6-.314m16.53.388a2.246,2.246,0,0,0,2.28-1.739l-1.207-.02c-.213.46-.477.7-.8.7-.441,0-.563-.273-.563-.709,0-.6.423-2.055,1.219-2.055.4,0,.495.272.495.584,0,.079-.006.158-.014.245h1.275a2.126,2.126,0,0,0,.058-.448c0-.829-.438-1.447-1.659-1.447A3.026,3.026,0,0,0,27.772,40.4a1.544,1.544,0,0,0,1.715,1.622m5.8-4.814a.532.532,0,0,0-.525.373l-.225.787h1.251l-1.039,3.58h.981a.59.59,0,0,0,.567-.381l.905-3.2h.669a.561.561,0,0,0,.539-.378l.223-.782Zm-2.561,4.74a.587.587,0,0,0,.565-.381l1.234-4.359h-.972a.544.544,0,0,0-.538.373l-1.27,4.367ZM25.939,38.58l-.005,1.779a2.9,2.9,0,0,0-.45-.047,1.847,1.847,0,0,0-.5.068Zm-1.8,3.367a2.241,2.241,0,0,1,1.777-1.21l-.005,1.21h1.414v-4.74H25.939a.779.779,0,0,0-.692.362l-2.7,4.379ZM22.65,42.7H11.078s.044.653.069.954c.018.232.183.4.518.368,7-.613,16.366-.882,23.881-.882a.591.591,0,0,0,.4-.128.749.749,0,0,0,.168-.311H22.65Z" transform="translate(0.085 0.295)" fill="#1d1d1b"/>
    </g>
  </g>
</svg>
