<svg xmlns="http://www.w3.org/2000/svg" width="50" height="50" viewBox="0 0 50 50">
  <g id="icon-health-insurence" transform="translate(-683 -3754)">
    <rect id="grid-50x50" width="50" height="50" transform="translate(683 3754)" fill="#ffb919" opacity="0"/>
    <g id="icon">
      <path id="Path_296" data-name="Path 296" d="M54.51,153.141v.031a1.671,1.671,0,0,1-.486,1.3,1.871,1.871,0,0,1-1.306.335l-.039-.006-11.3.057H41.36a3.179,3.179,0,0,1-2.248-.939l-7.093-7.176a1.862,1.862,0,0,0-1.228-.552l-1.408-.075.05-8.54c.29-.133,3.877-1.632,8.051,3.21a70.548,70.548,0,0,0,7.193,7.341,2.472,2.472,0,0,1,.813,1.371c.1.481.2,1.345-.219,1.725-.371.337-1.2.329-2.346-.022a1.224,1.224,0,0,1-.509-.309l-4.2-4.253a.523.523,0,1,0-.744.735l4.2,4.253a2.276,2.276,0,0,0,.945.574,6.255,6.255,0,0,0,1.8.319,2.217,2.217,0,0,0,1.552-.521,1.927,1.927,0,0,0,.563-1l6,.208h.051a2.223,2.223,0,0,1,1.526.511,1.762,1.762,0,0,1,.394,1.429" transform="translate(660.72 3647.261)" fill="#ffb919"/>
      <path id="Path_297" data-name="Path 297" d="M97.287,19.152a70.511,70.511,0,0,0-7.15-7.383,2.473,2.473,0,0,1-.8-1.376c-.095-.482-.192-1.346.229-1.723.374-.335,1.206-.322,2.346.036a1.225,1.225,0,0,1,.507.312L96.592,13.3a.523.523,0,1,0,.748-.731L93.161,8.288a2.271,2.271,0,0,0-.941-.579c-1.571-.493-2.669-.434-3.357.183a1.928,1.928,0,0,0-.569,1l-6-.243h-.051a2.221,2.221,0,0,1-1.523-.52,1.763,1.763,0,0,1-.386-1.432l0-.031a1.67,1.67,0,0,1,.493-1.294,1.873,1.873,0,0,1,1.308-.327l.039.006,11.3.009a3.179,3.179,0,0,1,2.258.952l7.051,7.218a1.863,1.863,0,0,0,1.224.559l1.407.084-.1,8.54c-.248.11-3.9,1.6-8.032-3.257" transform="translate(620.363 3752.015)" fill="#ffb919"/>
      <path id="Path_298" data-name="Path 298" d="M72.379,81.381a12.245,12.245,0,0,1-5.529-1.3.523.523,0,1,1,.468-.935,11.213,11.213,0,0,0,5.061,1.189H72.5a11.287,11.287,0,0,0,7.976-3.4,11.167,11.167,0,0,0,3.247-8,11.4,11.4,0,0,0-.931-4.415.523.523,0,0,1,.96-.414,12.443,12.443,0,0,1,1.016,4.818A12.389,12.389,0,0,1,72.507,81.381ZM61.377,74a.522.522,0,0,1-.484-.326A12.062,12.062,0,0,1,60,69.183,12.345,12.345,0,0,1,72.347,56.636a12.093,12.093,0,0,1,4.5.812.523.523,0,1,1-.377.975,11.025,11.025,0,0,0-4.116-.742A11.31,11.31,0,0,0,61.045,69.175a11.027,11.027,0,0,0,.815,4.1.523.523,0,0,1-.484.72" transform="translate(636.465 3711.13)" fill="#161615"/>
      <path id="Path_299" data-name="Path 299" d="M92.865,103.95l-.388-.348c-.032-.028-.062-.055-.091-.083l-1.254-1.208q-1.735-1.67-3.466-3.344a6.14,6.14,0,0,1-1.5-2.068,3.717,3.717,0,0,1,.229-3.42,2.293,2.293,0,0,1,1.019-.918,3.737,3.737,0,0,1,2.736-.288,3.87,3.87,0,0,1,1.432.769c.376.316.758.664,1.2,1.094a.355.355,0,0,0,.085.064.293.293,0,0,0,.055-.048,8.434,8.434,0,0,1,1.956-1.59,3.726,3.726,0,0,1,3.963.345,2.889,2.889,0,0,1,.94,1.72,3.77,3.77,0,0,1-.679,3.1A10.209,10.209,0,0,1,98,99.014c-1.134,1.111-2.3,2.228-3.421,3.309l-1.234,1.188c-.03.028-.061.057-.094.086Z" transform="translate(615.985 3683.005)" fill="#161615"/>
      <path id="Path_300" data-name="Path 300" d="M31.576,146.988a3.244,3.244,0,0,0-2.3-.817l-5.947-.206a5.267,5.267,0,0,0-.09-.664,3.522,3.522,0,0,0-1.156-1.956A69.436,69.436,0,0,1,15,136.115c-4.816-5.586-9.137-3.549-9.318-3.459l-.013.008-5.6-.033L0,143.122l5.746.034,1.71.092a.819.819,0,0,1,.54.242l7.093,7.176a4.231,4.231,0,0,0,2.992,1.249H18.1l11.228-.056a2.9,2.9,0,0,0,2.084-.573,2.644,2.644,0,0,0,.86-2.063,2.738,2.738,0,0,0-.7-2.235M1.052,142.083l.049-8.4,4.007.023-.049,8.4Zm30.178,7.073v.031a1.671,1.671,0,0,1-.486,1.3,1.87,1.87,0,0,1-1.306.335l-.039-.006-11.3.057H18.08a3.179,3.179,0,0,1-2.248-.939l-7.093-7.176a1.862,1.862,0,0,0-1.228-.552L6.1,142.128l.05-8.54c.29-.133,3.877-1.632,8.051,3.21a70.554,70.554,0,0,0,7.193,7.341,2.472,2.472,0,0,1,.813,1.371c.1.481.2,1.345-.219,1.725-.371.337-1.2.329-2.346-.022a1.224,1.224,0,0,1-.509-.309l-4.2-4.253a.523.523,0,1,0-.744.735l4.2,4.253a2.276,2.276,0,0,0,.945.574,6.255,6.255,0,0,0,1.8.319,2.217,2.217,0,0,0,1.552-.521,1.927,1.927,0,0,0,.563-1l6,.208h.051a2.223,2.223,0,0,1,1.526.511,1.762,1.762,0,0,1,.394,1.429" transform="translate(684 3651.246)" fill="#161615"/>
      <path id="Path_301" data-name="Path 301" d="M107.54,8.925l-5.745-.067-1.71-.1a.818.818,0,0,1-.538-.246L92.5,1.293A4.232,4.232,0,0,0,89.49.027L78.262.018a2.9,2.9,0,0,0-2.087.561A2.645,2.645,0,0,0,75.3,2.637a2.739,2.739,0,0,0,.684,2.239,3.242,3.242,0,0,0,2.3.831l5.946.24a5.284,5.284,0,0,0,.086.664,3.523,3.523,0,0,0,1.144,1.962A69.48,69.48,0,0,1,92.5,15.845c2.752,3.23,5.354,3.935,7.1,3.935a5.332,5.332,0,0,0,2.194-.422l.013-.008,5.6.066ZM93.3,15.167a70.521,70.521,0,0,0-7.15-7.382,2.473,2.473,0,0,1-.8-1.376c-.095-.482-.192-1.347.229-1.724.374-.335,1.206-.322,2.346.036a1.225,1.225,0,0,1,.507.312L92.6,9.31a.523.523,0,1,0,.748-.731L89.173,4.3a2.27,2.27,0,0,0-.941-.579c-1.571-.493-2.669-.434-3.357.183a1.927,1.927,0,0,0-.569,1l-6-.243h-.027l-.025,0a2.224,2.224,0,0,1-1.523-.52,1.764,1.764,0,0,1-.386-1.432l0-.031a1.669,1.669,0,0,1,.493-1.293,1.869,1.869,0,0,1,1.308-.327l.039.006,11.3.009a3.179,3.179,0,0,1,2.258.952L98.8,9.242a1.863,1.863,0,0,0,1.224.559l1.407.083-.1,8.54c-.248.109-3.9,1.6-8.032-3.257m13.086,3.191-4.007-.047.1-8.4,4.007.047Z" transform="translate(624.352 3756)" fill="#161615"/>
      <path id="Path_302" data-name="Path 302" d="M93.147,97.165a2.918,2.918,0,0,0-1.288.323,1.255,1.255,0,0,0-.57.5,2.684,2.684,0,0,0-.171,2.5,5.16,5.16,0,0,0,1.267,1.718q1.729,1.674,3.464,3.342l1.005.968,1-.958c1.123-1.079,2.283-2.195,3.414-3.3a9.172,9.172,0,0,0,.984-1.156,2.728,2.728,0,0,0,.5-2.269,1.885,1.885,0,0,0-.591-1.135,2.68,2.68,0,0,0-2.769-.236,7.41,7.41,0,0,0-1.713,1.4,1.109,1.109,0,0,1-.79.382,1.149,1.149,0,0,1-.839-.36c-.429-.413-.8-.746-1.153-1.047a2.832,2.832,0,0,0-1.047-.564,2.524,2.524,0,0,0-.7-.1" transform="translate(611.993 3679.02)" fill="#ffb919"/>
      <path id="Path_303" data-name="Path 303" d="M54.86,168.054a.523.523,0,0,0-.744.735l.739.748a.523.523,0,1,0,.743-.735Z" transform="translate(641.245 3622.979)" fill="#161615"/>
      <path id="Path_304" data-name="Path 304" d="M168.82,50.938a.523.523,0,0,0-.748.731l.735.752a.523.523,0,0,0,.748-.731Z" transform="translate(550.96 3715.769)" fill="#161615"/>
    </g>
  </g>
</svg>
