<svg xmlns="http://www.w3.org/2000/svg" width="50" height="50" viewBox="0 0 50 50">
  <g id="icon-good-people" transform="translate(0 2)">
    <rect id="grid-50x50" width="50" height="50" transform="translate(0 -2)" fill="#ffb919" opacity="0"/>
    <g id="icon">
      <path id="Path_361" data-name="Path 361" d="M49.957,40a15.285,15.285,0,0,0-.414-1.574c-.071-.236-.142-.472-.208-.709-.023-.084-.053-.168-.087-.269a2.416,2.416,0,0,1-.171-.768l-.005-.954c-.017-2.894-.034-5.886,0-8.83a6.2,6.2,0,0,0-3.631-6.067,4.857,4.857,0,0,0-1.643-.464l-1.362,0c-1,0-2.01-.007-3.017.006a6,6,0,0,0-4.043,1.6h0a2.133,2.133,0,0,0-.153-.609c-.024-.058-.041-.1-.053-.136.032-.017.076-.038.134-.065a2.862,2.862,0,0,0,1.626-1.662,2.663,2.663,0,0,0-.233-2.112l.035-.021A2.9,2.9,0,0,0,38.3,15.182a2.856,2.856,0,0,0-1.089-2.4,2.648,2.648,0,0,0,.527-3.169,2.842,2.842,0,0,0-2.8-1.653c-1.2.016-2.431.012-3.617.009l-1.433,0a7.924,7.924,0,0,1-1-.034,7.715,7.715,0,0,1,.094-.946l.007-.049A8.015,8.015,0,0,0,28.3,2.259,3.839,3.839,0,0,0,24.411.041a1.318,1.318,0,0,0-1.283,1.517c.027.3.032.612.038.938a11.4,11.4,0,0,0,.075,1.317,3.714,3.714,0,0,1-.6,2.61c-.514.807-1.016,1.636-1.5,2.438-.349.576-.7,1.152-1.054,1.724a2.939,2.939,0,0,0-.452,1.629c.015,1.387.013,2.8.01,4.164q0,.771,0,1.541v1.588c0,1.178,0,2.358,0,3.547l-.534,0q0-5.479,0-10.958c0-.022,0-.046,0-.069a.954.954,0,0,0-.326-.872l-.008-.008a.7.7,0,0,0-.589-.166c-.359,0-.719,0-1.077,0-.9,0-1.822,0-2.724-.039a1.459,1.459,0,0,0-1.119.313,1.473,1.473,0,0,0-.358,1.115c.022,3.125.021,6.3.02,9.377q0,1.042,0,2.085a4.169,4.169,0,0,0-3.2-1.638A3.408,3.408,0,0,1,8.2,21.81a4.469,4.469,0,0,0-.758-.267,9.363,9.363,0,0,0-2.881-.078,1,1,0,0,0-.116.043l-.027.01c-.125.046-.281.1-.425.17A4.992,4.992,0,0,0,.915,26.009a.961.961,0,0,0,.115.716,1.019,1.019,0,0,0,.736.195c.2,0,.4,0,.586,0h.923a.339.339,0,0,1,.339.339v2.523a4.2,4.2,0,0,0,2.231,3.9,1.112,1.112,0,0,1,.464.746,3.306,3.306,0,0,1,.025.695c0,.091-.006.185-.006.282a.34.34,0,0,1-.339.339l-.638,0-.56,0c-.224,0-.445,0-.665.006A4.1,4.1,0,0,0,.092,39.161,9.921,9.921,0,0,0,0,40.82c0,.161,0,.323,0,.483-.007.593.078.757.154.833s.235.162.822.162H15.938a.34.34,0,0,1,.339.339v.819c0,.568,0,1.106,0,1.645,0,.662.158.814.825.814l7.884,0,7.883,0c.661,0,.814-.154.817-.824,0-.556,0-1.113,0-1.684v-.771a.34.34,0,0,1,.339-.339h9.615l5.526,0c.629,0,.794-.162.8-.785,0-.156.009-.314.016-.471A4.571,4.571,0,0,0,49.957,40M39.663,21.5h.107c.281,0,.564,0,.847-.005h.065c.263,0,.526,0,.79,0a19.16,19.16,0,0,1,2.519.134A4.609,4.609,0,0,1,47.9,26.006c.049,2.269.039,4.562.028,6.8,0,.936-.009,1.868-.009,2.793a.339.339,0,0,1-.339.339l-3.6-.281a.338.338,0,0,1-.3-.237A1.116,1.116,0,0,1,44.2,34.1a4.921,4.921,0,0,0,2.142-4.06c.027-1.006.018-2.033.009-3.028l0-.521c0-.489-.186-.679-.672-.7-1.366-.055-1.876-.48-2.024-1.685L43.64,24H42.51v.113c0,.111,0,.221,0,.331a1.247,1.247,0,0,1-1.36,1.337q-.8.006-1.609.005l-1.9,0h-.618a.664.664,0,0,0-.839.849c.005.383.006.766.007,1.149,0,1.061,0,2.158.113,3.22a4.2,4.2,0,0,0,1.95,3.036,1.11,1.11,0,0,1,.57,1.4.34.34,0,0,1-.291.216l-3.571.273h-.026a.339.339,0,0,1-.339-.339V32.14q0-2.791,0-5.582A4.852,4.852,0,0,1,39.663,21.5m1.618,12.437c-.131,0-.261-.006-.389-.019a3.958,3.958,0,0,1-3.579-3.835c-.015-.636-.011-1.256-.007-1.912,0-.3,0-.6,0-.908a.34.34,0,0,1,.339-.339c.349,0,.69,0,1.025,0s.645,0,.962,0c.494,0,.9,0,1.266.013a2.7,2.7,0,0,0,1.965-.629.345.345,0,0,1,.371-.057l1.693.783a.34.34,0,0,1,.2.308c0,.34.014.694.027,1.036a12.681,12.681,0,0,1-.063,2.42,3.778,3.778,0,0,1-3.812,3.147m.711,3.333a1.39,1.39,0,0,1-.768.208,1.233,1.233,0,0,1-.555-.118,1.394,1.394,0,0,1-.648-1.552,3.624,3.624,0,0,0,.013-.412.339.339,0,0,1,.339-.356h1.781a.339.339,0,0,1,.339.357,3.068,3.068,0,0,0,.017.392,1.436,1.436,0,0,1-.517,1.483M34.542,22.94l.062-.091c-.021.03-.042.061-.062.091m.638-.78c-.038.039-.077.077-.114.118.037-.04.076-.079.114-.118m-.394.448c.032-.04.064-.079.1-.118-.032.039-.065.078-.1.118M21.045,11.182c.358-.576.709-1.155,1.06-1.735.483-.8.982-1.621,1.489-2.418a4.849,4.849,0,0,0,.767-3.367A10.386,10.386,0,0,1,24.3,2.476c-.006-.331-.012-.672-.042-1.016-.019-.21-.021-.243.343-.3a1.848,1.848,0,0,1,.305-.025,2.83,2.83,0,0,1,2.382,1.627,6.908,6.908,0,0,1,.584,4.029l-.006.049c-.125.943-.194,1.462.153,1.859s.858.4,1.877.4l1.424,0c1.191,0,2.423.008,3.636-.008a1.71,1.71,0,0,1,1.763,1,1.539,1.539,0,0,1-.349,1.931,1.079,1.079,0,0,0-.383.771,1.159,1.159,0,0,0,.459.812,1.9,1.9,0,0,1,.733,1.461,1.956,1.956,0,0,1-1.033,1.323l-.067.04a.944.944,0,0,0-.4,1.428,1.589,1.589,0,0,1,.184,1.269,1.773,1.773,0,0,1-1.021.991,1.1,1.1,0,0,0-.655,1.671,1.4,1.4,0,0,1-.206,1.288,1.667,1.667,0,0,1-1.314.8c-2.188.022-4.411.022-6.571.02a2.308,2.308,0,0,1-1.1-.822l-.041-.052-2.037.043-1.278,0c-.248,0-.55,0-.867-.007q0-1.782,0-3.564V17.919q0-.769,0-1.539c0-1.369,0-2.785-.01-4.178a1.791,1.791,0,0,1,.282-1.019M24.979,35.74h0q-.129,0-.259-.008a3.953,3.953,0,0,1-3.667-3.572c-.051-.693-.039-1.379-.026-2.1.006-.331.012-.67.012-1.02a.34.34,0,0,1,.339-.339h7.13a.34.34,0,0,1,.339.339c0,.339.012.68.026,1.048a13.758,13.758,0,0,1-.063,2.524,3.766,3.766,0,0,1-3.833,3.132m1.2,3.512a1.136,1.136,0,0,1-1.245,1,1.168,1.168,0,0,1-1.179-1.127c-.03-.456-.023-.916-.017-1.361,0-.192.006-.385.006-.579a.34.34,0,0,1,.339-.339h1.777a.34.34,0,0,1,.339.339c0,.193,0,.389.009.59a11.666,11.666,0,0,1-.029,1.479m1.453-11.659q-1.9.008-3.808.01c-1.256,0-2.376,0-3.422-.014a2.072,2.072,0,0,1-1.423-.575l0-.007c0-.008.006-.017.009-.026s.012-.029.016-.044,0-.019.006-.028,0-.011.005-.017c.006-.033.015-.066.023-.1a1.646,1.646,0,0,0,.062-.41q0-1.088,0-2.176h4.573c1.219,0,1.634.412,1.643,1.631v.154h1.125l.022-.513a.339.339,0,0,1,.339-.325H28.6a.34.34,0,0,1,.339.339c0,.08,0,.162,0,.25,0,.188,0,.381,0,.578a1.223,1.223,0,0,1-1.3,1.272m-13.851-.126.265.024a.468.468,0,0,0,.051,0h2.977l.332,0h.008l.331,0h.189c-.01-.014-.017-.027-.027-.041-.041-.055-.08-.111-.118-.167.038.056.077.112.118.167A1.271,1.271,0,0,1,18,29.019c-.386.614-.785,1.2-1.209,1.833q-.257.38-.521.774a.347.347,0,0,1-.454.1l-.406-.235-.053-.03c-.415-.24-.845-.488-1.253-.754A.908.908,0,0,1,13.794,30c-.009-.863-.012-1.708-.011-2.531m3.655-.835.007.016-.007-.016m.071.16.016.032-.016-.032m.082.163.031.055-.031-.055m.094.165c.017.029.036.057.054.085-.018-.028-.037-.057-.054-.085m-.315,4.9,1.792-2.7a.34.34,0,0,1,.359-.143l.134.031a.338.338,0,0,1,.261.33v3.3a.339.339,0,0,1-.446.322l-1.923-.633a.339.339,0,0,1-.177-.51m1.069-5.849c-.018-.053-.033-.107-.048-.162.014.055.029.109.048.162m-.059-.2c-.013-.053-.022-.108-.032-.163.009.055.019.109.032.163m-.041-.209c-.01-.071-.018-.143-.021-.216,0,.073.011.145.021.216m.642,1.258a2.112,2.112,0,0,1-.37-.472,2.121,2.121,0,0,0,.37.472m-.371-.472c-.032-.055-.061-.112-.088-.171.027.058.056.115.088.171m-.094-.182c-.025-.054-.046-.11-.067-.167.021.057.042.113.067.167m7.575-2.454q.086.028.179.048-.092-.02-.179-.048m.19.05c.053.011.108.02.165.027-.056-.007-.111-.016-.165-.027m.213.032c.047,0,.1.008.145.009-.049,0-.1,0-.145-.009m.2.011c.066,0,.134,0,.2-.006-.07.005-.138.007-.2.006m-5.926-.929c-.156,0-.315-.007-.475-.012.16.006.319.009.475.012m-2.5-.025h0m-4.21-10.97a1.334,1.334,0,0,1,.274-.009c.928.042,1.868.042,2.776.04.288,0,.577,0,.865,0q.007,5.477,0,10.953a2.557,2.557,0,0,0-.262.021c-.334.05-.506.213-.512.482l0,.1a14.328,14.328,0,0,0,.084,2.43c0,.024.01.049.014.073l-.016.006-.025.01-.02-.011-.037-.02a.854.854,0,0,0-.083-.04l-.042-.016a.865.865,0,0,0-.087-.025l-.037-.009a.9.9,0,0,0-.123-.017,1.113,1.113,0,0,0-.182,0l-.024,0a.961.961,0,0,0-.165.034l-.013,0a.853.853,0,0,0-.15.064h0a.815.815,0,0,0-.127.088l-.021.018a.8.8,0,0,0-.1.1H14.483l-.007-.008a.706.706,0,0,0-.087-.1l-.017-.015a.72.72,0,0,0-.09-.067l-.009-.006a.771.771,0,0,0-.094-.046l-.029-.012a.835.835,0,0,0-.081-.026l-.013,0q0-2.17,0-4.341c0-3.076,0-6.256-.02-9.385a1.276,1.276,0,0,1,.021-.281M17.381,26.48l0-.006,0,.006m-.049-.161h0m-3.549,1.146q0-.257,0-.511c0,.17,0,.34,0,.511M13.77,25.9a3.612,3.612,0,0,1,.018.368,3.667,3.667,0,0,0-.018-.368m-.2-.887c-.015-.042-.031-.083-.047-.125.016.041.032.083.047.125m.179.754c-.01-.075-.021-.15-.035-.224.015.074.025.149.035.224m-.072-.389c-.014-.059-.03-.117-.047-.175.017.058.032.116.047.175m-11.16.4a.339.339,0,0,1-.332-.406,3.514,3.514,0,0,1,.965-1.777,3.918,3.918,0,0,1,2.806-1.2,3.866,3.866,0,0,1,2.168.665,1.38,1.38,0,0,0,1.116.278,2.721,2.721,0,0,1,.434-.035,2.917,2.917,0,0,1,2.74,2.029.34.34,0,0,1-.323.442Zm2.258,4.553a20.756,20.756,0,0,1-.029-2.1c.006-.315.012-.634.012-.957a.34.34,0,0,1,.339-.339h7.273a.339.339,0,0,1,.339.357c-.019.355-.027.718-.036,1.078a16.445,16.445,0,0,1-.186,2.485A2.861,2.861,0,0,1,9.7,33.019c-.681.022-1.359.022-2,0a2.983,2.983,0,0,1-2.923-2.69M9.91,36.5a1.147,1.147,0,0,1-1.274,1.032A1.172,1.172,0,0,1,7.475,36.4c-.027-.425-.021-.844-.015-1.3,0-.189.005-.382.005-.58A.34.34,0,0,1,7.8,34.18H9.589a.34.34,0,0,1,.339.339c0,.191,0,.381.009.586a11.134,11.134,0,0,1-.027,1.4m6.368,4.037v.247a.339.339,0,0,1-.339.339H1.494a.338.338,0,0,1-.338-.308,3.622,3.622,0,0,1,.678-2.84A3.013,3.013,0,0,1,4.1,36.875c.052,0,.1,0,.155,0l.2,0a3.993,3.993,0,0,0,.417-.006c.122-.011.233-.016.339-.016a1.939,1.939,0,0,1,1.714.939,2.1,2.1,0,0,0,1.743.908,2.4,2.4,0,0,0,2.1-1.271.934.934,0,0,1,.96-.564c.29.016.582.012.873.009l.376,0h.09a3.064,3.064,0,0,1,3.213,3.2c0,.152,0,.3,0,.467m-1.084-4.305a5.075,5.075,0,0,0-2.568-.5l-.39,0h-.066c-.223,0-.446,0-.668,0a.341.341,0,0,1-.322-.254,1.541,1.541,0,0,1,.692-2.027,11.09,11.09,0,0,0,1.039-.969c.153-.155.3-.309.458-.457a.342.342,0,0,1,.378-.064q.494.228,1,.465l.049.023c.852.4,1.732.807,2.613,1.2l.058.026a4.172,4.172,0,0,0,1.172.4,6.515,6.515,0,0,1,3.681,2.038.931.931,0,0,1,.282.606c.016.318.013.636.011.973v.025c0,.128,0,.26,0,.4a.34.34,0,0,1-.342.339l-.478-.006c-.21,0-.42-.006-.629-.006a4.626,4.626,0,0,0-3.248.916.344.344,0,0,1-.321.063.338.338,0,0,1-.226-.237,4.428,4.428,0,0,0-2.171-2.949m17.365,7.589c0,.2,0,.395,0,.6a.34.34,0,0,1-.339.339H17.707a.34.34,0,0,1-.339-.358c.014-.254.02-.508.026-.772a10.4,10.4,0,0,1,.139-1.748,2.919,2.919,0,0,1,2.8-2.3c.055,0,.109,0,.164,0l.309,0c.065,0,.129,0,.193-.006.143-.011.27-.017.386-.017a2.091,2.091,0,0,1,1.868.987,2.024,2.024,0,0,0,1.693.863,2.375,2.375,0,0,0,2.079-1.24,1,1,0,0,1,1.053-.6c.274.015.548.012.824.008h.05c.194,0,.389,0,.584,0a3.046,3.046,0,0,1,3.017,2.983c.012.413.009.819.006,1.254m-.122-4.6a.34.34,0,0,1-.486.051,4.433,4.433,0,0,0-3.055-.831c-.25,0-.5.005-.759.01l-.437.008a.337.337,0,0,1-.238-.1.342.342,0,0,1-.1-.241l0-.4c0-.375,0-.728.012-1.089a.811.811,0,0,1,.315-.526c.436-.409.9-.832,1.373-1.258a1.207,1.207,0,0,1,.457-.281c.886-.254,1.773-.5,2.679-.753l.817-.227a.339.339,0,0,1,.431.32c0,.228.013.457.021.688.056,1.559.114,3.172-1.025,4.632m1.192-14.205a7.2,7.2,0,0,0-.159,1.55c-.019,1.428-.019,2.97,0,4.853a.844.844,0,0,1-.611.906c-.54.187-1.075.386-1.641.6l-.022.008-.73.271a.339.339,0,0,1-.456-.336c.008-.146.017-.282.026-.422.017-.256.032-.477.032-.7q.007-3.357,0-6.715c.87,0,1.74-.007,2.6-.016a2.477,2.477,0,0,0,1.023-.244c-.022.082-.048.161-.068.244m15.21,15.532V40.8a.34.34,0,0,1-.339.339H34.085a.341.341,0,0,1-.336-.292,3.565,3.565,0,0,1,.671-2.918,3.483,3.483,0,0,1,2.731-1.059v-.113l.005.113.148,0a2.373,2.373,0,0,0,.269,0,1.8,1.8,0,0,1,1.858.866,2.128,2.128,0,0,0,1.8.956,2.386,2.386,0,0,0,2.085-1.242.962.962,0,0,1,1.007-.587c.143.01.3.015.492.015.112,0,.224,0,.336,0h.038c.128,0,.256,0,.384,0h.084a3.077,3.077,0,0,1,3.182,3.176c0,.164,0,.328,0,.5" transform="translate(0 0)" fill="#161615"/>
      <path id="Path_362" data-name="Path 362" d="M110.2,16.038c.358-.576.709-1.155,1.06-1.735.483-.8.982-1.621,1.489-2.418a4.849,4.849,0,0,0,.767-3.367,10.43,10.43,0,0,1-.065-1.187c-.006-.331-.012-.672-.042-1.016-.019-.21-.021-.243.343-.3a1.845,1.845,0,0,1,.305-.025,2.831,2.831,0,0,1,2.382,1.627,6.908,6.908,0,0,1,.584,4.029l-.007.049c-.125.943-.194,1.462.153,1.859s.858.4,1.877.4l1.425,0c1.191,0,2.422.008,3.635-.008a1.711,1.711,0,0,1,1.763,1,1.539,1.539,0,0,1-.349,1.931,1.078,1.078,0,0,0-.383.771,1.16,1.16,0,0,0,.459.812,1.9,1.9,0,0,1,.733,1.461A1.955,1.955,0,0,1,125.3,21.25l-.066.04a.944.944,0,0,0-.4,1.428,1.589,1.589,0,0,1,.184,1.269,1.773,1.773,0,0,1-1.021.991,1.1,1.1,0,0,0-.655,1.671,1.4,1.4,0,0,1-.206,1.288,1.667,1.667,0,0,1-1.314.8c-2.188.022-4.411.022-6.571.02a2.309,2.309,0,0,1-1.1-.822l-.041-.052-2.037.043-1.278,0c-.248,0-.55,0-.867-.007q0-1.782,0-3.564V22.775q0-.769,0-1.539c0-1.369,0-2.785-.01-4.178a1.791,1.791,0,0,1,.282-1.019" transform="translate(-89.155 -4.856)" fill="#ffb919"/>
      <path id="Path_363" data-name="Path 363" d="M74.315,63.868a1.334,1.334,0,0,1,.274-.009c.928.042,1.868.042,2.776.04.288,0,.577,0,.865,0q.007,5.477,0,10.953a2.608,2.608,0,0,0-.262.021c-.334.05-.506.213-.512.482l0,.1a14.307,14.307,0,0,0,.084,2.43c0,.024.01.049.014.073l-.016.006-.025.01-.02-.011-.037-.02a.853.853,0,0,0-.083-.04l-.042-.016c-.029-.01-.058-.018-.087-.025l-.037-.009a.969.969,0,0,0-.123-.017,1.112,1.112,0,0,0-.182,0l-.024,0a.97.97,0,0,0-.165.034l-.013,0a.853.853,0,0,0-.15.064h0a.8.8,0,0,0-.127.089l-.021.018a.8.8,0,0,0-.1.1H74.744l-.007-.008a.728.728,0,0,0-.087-.1l-.017-.015a.722.722,0,0,0-.09-.067l-.009-.006a.731.731,0,0,0-.094-.047l-.029-.012a.791.791,0,0,0-.081-.026l-.013,0q0-2.171,0-4.341c0-3.076,0-6.256-.02-9.385a1.277,1.277,0,0,1,.021-.281" transform="translate(-60.26 -51.795)" fill="#ffb919"/>
    </g>
  </g>
</svg>
