<svg xmlns="http://www.w3.org/2000/svg" width="50" height="50.623" viewBox="0 0 50 50.623">
  <g id="icon-rent-a-car" transform="translate(0 0.132)">
    <rect id="grid-50x50" width="50" height="50" fill="#ffb919" opacity="0"/>
    <g id="icon">
      <ellipse id="Ellipse_5" data-name="Ellipse 5" cx="3.04" cy="2.974" rx="3.04" ry="2.974" transform="translate(4.861 18.893)" fill="none" stroke="#161615" stroke-linecap="round" stroke-linejoin="round" stroke-width="1.276"/>
      <ellipse id="Ellipse_6" data-name="Ellipse 6" cx="3.04" cy="2.974" rx="3.04" ry="2.974" transform="translate(25.478 18.893)" fill="none" stroke="#161615" stroke-linecap="round" stroke-linejoin="round" stroke-width="1.276"/>
      <path id="Path_441" data-name="Path 441" d="M24.76,15.436H9.15a.38.38,0,0,1-.384-.375v-.318" transform="translate(0.041 -0.255)" fill="none" stroke="#161615" stroke-linecap="round" stroke-linejoin="round" stroke-width="1.276"/>
      <line id="Line_35" data-name="Line 35" x2="0.76" y2="2.461" transform="translate(15.356 12.72)" fill="none" stroke="#161615" stroke-linecap="round" stroke-linejoin="round" stroke-width="1.276"/>
      <line id="Line_36" data-name="Line 36" x2="10.753" transform="translate(12.855 22.539)" fill="none" stroke="#161615" stroke-linecap="round" stroke-linejoin="round" stroke-width="1.276"/>
      <path id="Path_442" data-name="Path 442" d="M22.688,36.019h9.73a2.219,2.219,0,1,0,0-4.438H26.152a3.149,3.149,0,0,1-2.308-1.041,6.749,6.749,0,0,0-5.168-2.057s-4.313,0-9.29,5.274" transform="translate(0.044 -0.494)" fill="none" stroke="#161615" stroke-linecap="round" stroke-linejoin="round" stroke-width="1.276"/>
      <path id="Path_443" data-name="Path 443" d="M18.964,43.031H30.4a7,7,0,0,0,4.221-1.4L45.171,29.021a2.185,2.185,0,0,0,0-3.139,2.306,2.306,0,0,0-3.208,0l-4.431,4.334" transform="translate(0.089 -0.437)" fill="none" stroke="#161615" stroke-linecap="round" stroke-linejoin="round" stroke-width="1.276"/>
      <path id="Path_451" data-name="Path 451" d="M0,0,5.961.066l.224,20.226L.224,20.226Z" transform="translate(2.956 35.23) rotate(-45)" fill="none" stroke="#161615" stroke-linecap="round" stroke-width="1.276"/>
      <path id="Path_452" data-name="Path 452" d="M0,0,5.961.066l.224,20.226L.224,20.226Z" transform="translate(2.956 35.23) rotate(-45)" fill="#ffb919"/>
      <path id="Path_453" data-name="Path 453" d="M0,0,5.961.066l.224,20.226L.224,20.226Z" transform="translate(2.956 35.23) rotate(-45)" fill="none" stroke="#161615" stroke-linecap="round" stroke-width="1.276"/>
      <path id="Path_444" data-name="Path 444" d="M29.267,14.843h-2.1a1.06,1.06,0,0,1-.6-.184l-5.441-3.7a1.057,1.057,0,0,0-.6-.184H10.372a1.057,1.057,0,0,0-.674.242L5.347,14.6a1.063,1.063,0,0,1-.674.241H2.623A1.964,1.964,0,0,0,.638,16.786v4a1.964,1.964,0,0,0,1.985,1.943" transform="translate(0.003 -0.187)" fill="none" stroke="#161615" stroke-linecap="round" stroke-linejoin="round" stroke-width="1.276"/>
      <path id="Path_445" data-name="Path 445" d="M33.679,22.9a1.965,1.965,0,0,0,1.986-1.943c0-.088-.01-.175-.014-.262" transform="translate(0.158 -0.359)" fill="none" stroke="#161615" stroke-linecap="round" stroke-linejoin="round" stroke-width="1.276"/>
      <path id="Path_446" data-name="Path 446" d="M41.473,1.019,32.731,9.07a1.391,1.391,0,0,0-.451,1.021V15.3a1.416,1.416,0,0,0,1.348,1.4l5.32.312a1.454,1.454,0,0,0,1.069-.378l8.742-8.051a1.381,1.381,0,0,0,.06-1.983L43.5,1.079a1.456,1.456,0,0,0-2.026-.06m-4.4,13.107a1.447,1.447,0,0,1-2.013-.059,1.372,1.372,0,0,1,.061-1.969,1.447,1.447,0,0,1,2.012.059,1.371,1.371,0,0,1-.06,1.969" transform="translate(0.151 -0.011)" fill="#ffb919"/>
      <path id="Path_447" data-name="Path 447" d="M43.5,1.079,48.818,6.6a1.382,1.382,0,0,1-.061,1.983l-8.742,8.051a1.452,1.452,0,0,1-1.068.378L33.626,16.7a1.415,1.415,0,0,1-1.347-1.4V10.091a1.387,1.387,0,0,1,.451-1.021l8.742-8.051A1.456,1.456,0,0,1,43.5,1.079Z" transform="translate(0.151 -0.011)" fill="none" stroke="#161615" stroke-linecap="round" stroke-linejoin="round" stroke-width="1.276"/>
      <path id="Path_448" data-name="Path 448" d="M35.106,12.293a1.444,1.444,0,0,1,2.011.059,1.371,1.371,0,0,1-.059,1.969,1.448,1.448,0,0,1-2.013-.06A1.371,1.371,0,0,1,35.106,12.293Z" transform="translate(0.162 -0.206)" fill="none" stroke="#161615" stroke-miterlimit="10" stroke-width="1"/>
      <line id="Line_37" data-name="Line 37" x1="0.778" y1="5.43" transform="translate(41.256 5.166)" fill="none" stroke="#161615" stroke-linecap="round" stroke-linejoin="round" stroke-width="1.276"/>
      <path id="Path_449" data-name="Path 449" d="M43.376,8.548A.9.9,0,0,1,43.6,7.276a.947.947,0,0,1,1.3.234.9.9,0,0,1-.225,1.272.946.946,0,0,1-1.3-.234" transform="translate(0.202 -0.123)" fill="#161615"/>
      <path id="Path_450" data-name="Path 450" d="M38.012,8.5a.9.9,0,0,1,.224-1.272.947.947,0,0,1,1.3.234.9.9,0,0,1-.225,1.272.946.946,0,0,1-1.3-.234" transform="translate(0.177 -0.122)" fill="#161615"/>
    </g>
  </g>
</svg>
