<svg xmlns="http://www.w3.org/2000/svg" width="50.022" height="50.129" viewBox="0 0 50.022 50.129">
  <g id="icon-maternity-leave" transform="translate(0.011 0.011)">
    <rect id="grid-50x50" width="50" height="50" transform="translate(0 0)" fill="#ffb930" opacity="0"/>
    <g id="icon">
      <path id="Path_644" data-name="Path 644" d="M17.988,13.179H4.571V14.93a9.761,9.761,0,0,0,9.761,9.761H27.284a9.761,9.761,0,0,0,9.761-9.761V13.517c0-.114-.014-.225-.017-.338Z" transform="translate(-0.079 -0.228)" fill="#ffb919"/>
      <line id="Line_54" data-name="Line 54" x2="32.475" transform="translate(4.491 12.951)" fill="none" stroke="#161615" stroke-linecap="round" stroke-linejoin="round" stroke-width="1.276"/>
      <path id="Path_645" data-name="Path 645" d="M.638,9.1A3.864,3.864,0,0,1,4.5,12.962v1.751a9.761,9.761,0,0,0,9.762,9.761H27.216a9.761,9.761,0,0,0,9.761-9.761V13.3A12.662,12.662,0,0,0,24.315.638h-6.4V12.962" transform="translate(-0.011 -0.011)" fill="none" stroke="#161615" stroke-linecap="round" stroke-linejoin="round" stroke-width="1.276"/>
      <path id="Path_646" data-name="Path 646" d="M11.79,32.823a16.885,16.885,0,0,0,2.459-.1c5.51-.619,9.943-3.808,11.562-7.833" transform="translate(-0.204 -0.432)" fill="none" stroke="#161615" stroke-linecap="round" stroke-linejoin="round" stroke-width="1.276"/>
      <path id="Path_647" data-name="Path 647" d="M10.9,32.948a.878.878,0,1,0,.878-.878.878.878,0,0,0-.878.878" transform="translate(-0.189 -0.556)" fill="#161615"/>
      <path id="Path_648" data-name="Path 648" d="M6.621,32.873a5.08,5.08,0,1,0,5.08-5.08A5.08,5.08,0,0,0,6.621,32.873Z" transform="translate(-0.115 -0.482)" fill="none" stroke="#161615" stroke-linecap="round" stroke-linejoin="round" stroke-width="1.276"/>
      <line id="Line_55" data-name="Line 55" x1="0.663" y1="1.252" transform="translate(35.159 37.771)" fill="none" stroke="#161615" stroke-linecap="round" stroke-linejoin="round" stroke-width="1.276"/>
      <path id="Path_649" data-name="Path 649" d="M31.092,35.707l-6.664,3.534a1.705,1.705,0,0,0-.709,2.305l4,7.54a1.706,1.706,0,0,0,2.305.708l6.2-3.288" transform="translate(-0.408 -0.619)" fill="none" stroke="#161615" stroke-linecap="round" stroke-linejoin="round" stroke-width="1.276"/>
      <path id="Path_650" data-name="Path 650" d="M32.307,40.143a1.491,1.491,0,0,1-.132,1.764,1.494,1.494,0,0,1,1.672.93c.682,1.286-.239,2.085-1.421,2.712a12.51,12.51,0,0,1-1.978.859l-2.9-5.466a12.317,12.317,0,0,1,1.724-1.1c1.064-.564,2.346-.992,3.033.3m-2.181,3.3.94,1.774a7.325,7.325,0,0,0,.921-.417c.761-.4,1.224-.795.809-1.577-.426-.8-1.059-.634-1.805-.238Zm.5-1.154c.729-.386,1.181-.781.782-1.535s-.947-.568-1.728-.154a7.412,7.412,0,0,0-.794.492l.877,1.654Z" transform="translate(-0.478 -0.681)"/>
      <path id="Path_651" data-name="Path 651" d="M47.087,50.033H41.035a2.946,2.946,0,0,1-2.946-2.946V41.035a2.946,2.946,0,0,1,2.946-2.946h6.052a2.946,2.946,0,0,1,2.946,2.946v6.052a2.946,2.946,0,0,1-2.946,2.946" transform="translate(-0.66 -0.66)" fill="#ffb919"/>
      <path id="Path_652" data-name="Path 652" d="M44.5,36.24l1.859-7.662a1.706,1.706,0,0,0-1.255-2.06l-8.294-2.012a1.706,1.706,0,0,0-2.06,1.255l-2.012,8.294a1.7,1.7,0,0,0,1.255,2.059l3.612.877" transform="translate(-0.566 -0.424)" fill="none" stroke="#161615" stroke-linecap="round" stroke-linejoin="round" stroke-width="1.276"/>
      <rect id="Rectangle_264" data-name="Rectangle 264" width="11.944" height="11.944" rx="2.998" transform="translate(37.429 37.429)" fill="none" stroke="#161615" stroke-linecap="round" stroke-linejoin="round" stroke-width="1.276"/>
      <path id="Path_653" data-name="Path 653" d="M46.143,41.871a8.079,8.079,0,0,0-1.256-.1c-1.717,0-1.73.992-1.73,2.342s.014,2.342,1.73,2.342a8.079,8.079,0,0,0,1.256-.1l.1.848a6.914,6.914,0,0,1-1.6.175c-2.1,0-2.622-.992-2.622-3.26s.521-3.26,2.622-3.26a6.855,6.855,0,0,1,1.6.176Z" transform="translate(-0.729 -0.708)"/>
      <path id="Path_654" data-name="Path 654" d="M36.045,33.84l3.224-5.076a.982.982,0,0,1,1.86.452l.51,5.981-1.152-.279-.125-1.777-2.287-.555-.917,1.524ZM40.3,32.26l-.211-3.026-1.56,2.6Z" transform="translate(-0.625 -0.489)"/>
      <path id="Path_655" data-name="Path 655" d="M31.258,27.868a4.981,4.981,0,0,0-.741-.075,5.08,5.08,0,0,0-5.079,5.08,5.018,5.018,0,0,0,.555,2.264" transform="translate(-0.441 -0.482)" fill="none" stroke="#161615" stroke-linecap="round" stroke-linejoin="round" stroke-width="1.276"/>
      <path id="Path_656" data-name="Path 656" d="M16.339,24.894c1.618,4.025,6.051,7.214,11.561,7.832a16.734,16.734,0,0,0,2.407.1l.039-.008" transform="translate(-0.283 -0.432)" fill="none" stroke="#161615" stroke-linecap="round" stroke-linejoin="round" stroke-width="1.276"/>
    </g>
  </g>
</svg>
