<svg xmlns="http://www.w3.org/2000/svg" width="50" height="50.023" viewBox="0 0 50 50.023">
  <g id="learning-discount" transform="translate(8 0.011)">
    <rect id="grid-50x50" width="50" height="50" transform="translate(-8)" fill="#ffb919" opacity="0"/>
    <g id="icon">
      <path id="Path_381" data-name="Path 381" d="M6.66,43.824v6.42l2.16-3.21,2.161,3.21v-6.42Z" transform="translate(-0.132 -0.882)" fill="#ffb919"/>
      <path id="Path_382" data-name="Path 382" d="M3.625,40.784a2.987,2.987,0,1,0,0,5.975" transform="translate(-0.011 -0.707)" fill="none" stroke="#161615" stroke-linecap="round" stroke-linejoin="round" stroke-width="1.276"/>
      <path id="Path_383" data-name="Path 383" d="M3.625,8.139A2.987,2.987,0,0,0,.638,11.126V43.205" transform="translate(-0.011 -0.141)" fill="none" stroke="#161615" stroke-linecap="round" stroke-linejoin="round" stroke-width="1.276"/>
      <line id="Line_2" data-name="Line 2" x2="14.435" transform="translate(8.449 17.021)" fill="none" stroke="#161615" stroke-linecap="round" stroke-linejoin="round" stroke-width="1.276"/>
      <line id="Line_3" data-name="Line 3" x2="6.623" transform="translate(12.355 20.503)" fill="none" stroke="#161615" stroke-linecap="round" stroke-linejoin="round" stroke-width="1.276"/>
      <line id="Line_4" data-name="Line 4" x2="7.56" transform="translate(4.887 43.064)" fill="none" stroke="#161615" stroke-linecap="round" stroke-linejoin="round" stroke-width="1.276"/>
      <path id="Path_384" data-name="Path 384" d="M6.66,50.133V43.824h4.246v6.309L8.783,46.978Z" transform="translate(-0.115 -0.76)" fill="none" stroke="#161615" stroke-linecap="round" stroke-linejoin="round" stroke-width="1.276"/>
      <line id="Line_5" data-name="Line 5" x2="13.998" transform="translate(13.721 46.052)" fill="none" stroke="#161615" stroke-linecap="round" stroke-linejoin="round" stroke-width="1.276"/>
      <line id="Line_6" data-name="Line 6" y2="3.641" transform="translate(26.204 42.411)" fill="none" stroke="#161615" stroke-linecap="round" stroke-linejoin="round" stroke-width="1.276"/>
      <path id="Path_385" data-name="Path 385" d="M29.025,1.254h0a1.192,1.192,0,0,0,1.543.507A1.2,1.2,0,0,1,32.256,3a1.21,1.21,0,0,0,.953,1.327,1.214,1.214,0,0,1,.645,2.007,1.22,1.22,0,0,0,0,1.639A1.214,1.214,0,0,1,33.21,9.98a1.21,1.21,0,0,0-.953,1.327,1.2,1.2,0,0,1-1.688,1.24,1.191,1.191,0,0,0-1.543.507,1.191,1.191,0,0,1-2.087,0,1.191,1.191,0,0,0-1.543-.507,1.2,1.2,0,0,1-1.688-1.24,1.21,1.21,0,0,0-.953-1.327,1.214,1.214,0,0,1-.645-2.007,1.22,1.22,0,0,0,0-1.639,1.214,1.214,0,0,1,.645-2.007A1.21,1.21,0,0,0,23.707,3,1.2,1.2,0,0,1,25.4,1.761a1.192,1.192,0,0,0,1.543-.507,1.191,1.191,0,0,1,2.087,0" transform="translate(-0.378 -0.011)" fill="#ffb919"/>
      <path id="Path_386" data-name="Path 386" d="M29.025,1.254h0a1.192,1.192,0,0,0,1.543.507A1.2,1.2,0,0,1,32.256,3a1.21,1.21,0,0,0,.953,1.327,1.214,1.214,0,0,1,.645,2.007,1.22,1.22,0,0,0,0,1.639A1.214,1.214,0,0,1,33.21,9.98a1.21,1.21,0,0,0-.953,1.327,1.2,1.2,0,0,1-1.688,1.24,1.191,1.191,0,0,0-1.543.507,1.191,1.191,0,0,1-2.087,0,1.191,1.191,0,0,0-1.543-.507,1.2,1.2,0,0,1-1.688-1.24,1.21,1.21,0,0,0-.953-1.327,1.214,1.214,0,0,1-.645-2.007,1.22,1.22,0,0,0,0-1.639,1.214,1.214,0,0,1,.645-2.007A1.21,1.21,0,0,0,23.707,3,1.2,1.2,0,0,1,25.4,1.761a1.192,1.192,0,0,0,1.543-.507A1.191,1.191,0,0,1,29.025,1.254Z" transform="translate(-0.378 -0.011)" fill="none" stroke="#161615" stroke-linecap="round" stroke-linejoin="round" stroke-width="1.276"/>
      <line id="Line_7" data-name="Line 7" x1="2.284" y2="4.5" transform="translate(26.462 4.894)" fill="none" stroke="#161615" stroke-linecap="round" stroke-linejoin="round" stroke-width="1.276"/>
      <path id="Path_387" data-name="Path 387" d="M26.9,5.824a.835.835,0,1,1-.835-.844.84.84,0,0,1,.835.844" transform="translate(-0.437 -0.086)" fill="#161615"/>
      <path id="Path_388" data-name="Path 388" d="M30.923,8.685a.835.835,0,1,1-.835-.844.84.84,0,0,1,.835.844" transform="translate(-0.507 -0.136)" fill="#161615"/>
      <path id="Path_389" data-name="Path 389" d="M18.6,8.139H3.678V40.218h24.1v-23.3" transform="translate(-0.064 -0.141)" fill="none" stroke="#161615" stroke-linecap="round" stroke-linejoin="round" stroke-width="1.276"/>
    </g>
  </g>
</svg>
