<?xml version="1.0" encoding="UTF-8"?>
<svg width="73px" height="88px" viewBox="0 0 73 88" version="1.1" xmlns="http://www.w3.org/2000/svg" xmlns:xlink="http://www.w3.org/1999/xlink">
    <!-- Generator: sketchtool 64 (101010) - https://sketch.com -->
    <title>04A968FB-E8E2-4DED-A51B-BD7338659AD5</title>
    <desc>Created with sketchtool.</desc>
    <g id="Pac-secundário" stroke="none" stroke-width="1" fill="none" fill-rule="evenodd">
        <g id="Descarte-de-embalagens---Ecopontos" transform="translate(-500.000000, -993.000000)" fill="#FFB919" fill-rule="nonzero">
            <g id="Group-2" transform="translate(40.000000, 714.000000)">
                <g id="e-mail-copy" transform="translate(296.000000, 279.000000)">
                    <g id="drops-(1)" transform="translate(164.000000, 0.000000)">
                        <path d="M65.3125,41.765625 C65.3125,40.8162841 64.5430909,40.046875 63.59375,40.046875 C62.6444091,40.046875 61.875,40.8162841 61.875,41.765625 C61.875,47.4522706 57.2491456,52.078125 51.5625,52.078125 C50.6131591,52.078125 49.84375,52.8475341 49.84375,53.796875 C49.84375,54.7462159 50.6131591,55.515625 51.5625,55.515625 C59.1444702,55.515625 65.3125,49.3475952 65.3125,41.765625 Z" id="Shape"></path>
                        <path d="M29.5047607,58.5187377 C28.5963745,59.889038 20.625,72.0559082 20.625,77.171875 C20.625,83.0411378 25.3475341,88 30.9375,88 C36.5274659,88 41.25,83.0411378 41.25,77.171875 C41.25,72.0559082 33.2786255,59.889038 32.3702393,58.5187377 C32.0513306,58.0386964 31.5135497,57.75 30.9375,57.75 C30.3614503,57.75 29.8236694,58.0386964 29.5047607,58.5187377 L29.5047607,58.5187377 Z M37.8125,77.171875 C37.8125,81.1088867 34.5999146,84.5625 30.9375,84.5625 C27.2750854,84.5625 24.0625,81.1088867 24.0625,77.171875 C24.0625,74.5232544 27.8377076,67.6106568 30.9375,62.6477662 C34.0372924,67.6106568 37.8125,74.5232544 37.8125,77.171875 Z" id="Shape"></path>
                        <path d="M12.03125,28.53125 C11.4666138,28.53125 10.9382324,28.8085327 10.6173097,29.2731323 C9.53033452,30.8461914 0,44.8184205 0,50.875 C0,57.5089721 5.39727787,62.90625 12.03125,62.90625 C18.6652221,62.90625 24.0625,57.5089721 24.0625,50.875 C24.0625,44.8184205 14.5321655,30.8461914 13.4451903,29.2731323 C13.1242676,28.8085327 12.5958862,28.53125 12.03125,28.53125 Z M12.03125,59.46875 C7.29260262,59.46875 3.4375,55.6136474 3.4375,50.875 C3.4375,47.5509643 8.24395756,39.1123047 12.03125,33.3316651 C15.8185424,39.1116333 20.625,47.5489503 20.625,50.875 C20.625,55.6136474 16.7698974,59.46875 12.03125,59.46875 Z" id="Shape"></path>
                        <path d="M34.375,40.046875 C34.375,40.9962159 33.6055909,41.765625 32.65625,41.765625 C31.7069091,41.765625 30.9375,40.9962159 30.9375,40.046875 C30.9375,39.0975341 31.7069091,38.328125 32.65625,38.328125 C33.6055909,38.328125 34.375,39.0975341 34.375,40.046875 Z" id="Shape"></path>
                        <path d="M53.0113526,0.793579188 C52.6951294,0.299438563 52.1492919,0 51.5625,0 C50.9757081,0 50.4298706,0.299438563 50.1136474,0.793579188 C49.6188354,1.56903072 37.9360352,19.9247436 33.059082,32.8657227 C32.72406,33.7539673 33.1732177,34.7456055 34.0614624,35.079956 C34.9490357,35.414978 35.9406738,34.9664917 36.2756958,34.0782472 C40.0314331,24.1108398 48.2391357,10.3655396 51.5671998,4.95953373 C57.4431763,14.4616699 68.75,34.2904052 68.75,41.765625 C68.75,51.2429199 61.0397949,58.953125 51.5625,58.953125 C43.8892212,58.953125 37.0840455,53.8002319 35.0128175,46.4216919 C34.7563477,45.5079347 33.8076783,44.9748535 32.8932495,45.2313232 C31.9794922,45.487793 31.4470826,46.4371339 31.7028809,47.3508912 C34.1890259,56.2058105 42.355774,62.390625 51.5625,62.390625 C62.9351197,62.390625 72.1875,53.1382447 72.1875,41.765625 C72.1875,32.291687 57.9138184,8.45880131 53.0113526,0.793579188 Z" id="Shape"></path>
                    </g>
                </g>
            </g>
        </g>
    </g>
</svg>