<?xml version="1.0" encoding="UTF-8"?>
<svg width="100px" height="88px" viewBox="0 0 100 88" version="1.1" xmlns="http://www.w3.org/2000/svg" xmlns:xlink="http://www.w3.org/1999/xlink">
    <!-- Generator: sketchtool 64 (101010) - https://sketch.com -->
    <title>142DA084-EBCA-4C28-833E-E46CC6348DC7</title>
    <desc>Created with sketchtool.</desc>
    <g id="Pac-secundário" stroke="none" stroke-width="1" fill="none" fill-rule="evenodd">
        <g id="Descarte-de-embalagens---Ecopontos" transform="translate(-910.000000, -993.000000)" fill="#FFB919" fill-rule="nonzero">
            <g id="Group-2" transform="translate(40.000000, 714.000000)">
                <g id="e-mail-copy-2" transform="translate(720.000000, 279.000000)">
                    <g id="health" transform="translate(150.000000, 0.000000)">
                        <path d="M82.6460177,10.0919646 C81.5713274,10.0919646 80.699115,10.964177 80.699115,12.0388673 C80.699115,13.1135575 81.5713274,13.9857699 82.6460177,13.9857699 C83.720708,13.9857699 84.5929204,13.1135575 84.5929204,12.0388673 C84.5929204,10.9639823 83.720708,10.0919646 82.6460177,10.0919646 Z" id="Shape"></path>
                        <path d="M92.7617345,8.13046018 C88.1154513,2.90828319 81.6708142,0.0321238938 74.6150442,0.0321238938 C66.8996637,0.0321238938 59.8592743,3.02295575 54.2555044,8.68104425 C52.3068496,10.6483894 50.8503717,12.6139823 49.840708,14.1738407 C48.8310442,12.614177 47.3745664,10.6487788 45.4259115,8.68104425 C39.8221416,3.02276106 32.7819469,0.0321238938 25.0663717,0.0321238938 C10.2979469,0.0321238938 0,12.3873628 0,27.0767434 C0,46.9191858 21.0273274,63.626531 48.5656814,87.4922478 C48.9315044,87.8093982 49.3861062,87.9678761 49.840708,87.9678761 C50.2953097,87.9678761 50.7499115,87.8093982 51.1157345,87.4922478 C78.7196991,63.5694867 99.6814159,46.8915398 99.6814159,27.0767434 C99.6814159,19.874177 97.2240354,13.1456814 92.7617345,8.13046018 Z M49.840708,83.4456106 C23.8361239,60.942531 3.89380531,44.7801239 3.89380531,27.0767434 C3.89380531,13.8786903 12.9959646,3.92612389 25.0663717,3.92612389 C31.7683894,3.92612389 37.6552389,6.41543363 42.5633805,11.3245487 C46.3026018,15.0645487 48.0472212,18.8814513 48.064354,18.9196106 C48.3776106,19.6179646 49.0720708,20.066531 49.8377876,20.0680885 C49.8389558,20.0680885 49.8403186,20.0680885 49.8414867,20.0680885 C50.6070088,20.0680885 51.3024425,19.6177699 51.6172566,18.9196106 C51.6343894,18.8814513 53.3790088,15.0647434 57.1182301,11.3245487 C62.026177,6.41523894 67.9130265,3.92612389 74.6152389,3.92612389 C86.685646,3.92612389 95.7878053,13.8786903 95.7878053,27.0767434 C95.7878053,45.179823 74.5293805,62.0812743 49.840708,83.4456106 Z" id="Shape"></path>
                        <path d="M89.4555044,17.0278053 C88.9561239,16.0753805 87.7792212,15.7085841 86.8271858,16.2077699 C85.8749558,16.7071504 85.5077699,17.8838584 86.0071504,18.8360885 C87.2923009,21.2866549 88,24.2132389 88,27.0767434 C88,32.7025133 85.3224248,38.673469 79.5734159,45.8676637 C78.9021239,46.7075575 79.0389912,47.9327434 79.878885,48.6040354 C80.7242301,49.2796106 81.9482478,49.1332035 82.6152566,48.2985664 C88.9454159,40.3770088 91.8938053,33.6335221 91.8938053,27.0767434 C91.8938053,23.5442832 91.0506018,20.0694513 89.4555044,17.0278053 Z" id="Shape"></path>
                        <path d="M68.5309735,37.3486018 L57.6283186,37.3486018 L57.6283186,26.4459469 C57.6283186,25.3706726 56.7566903,24.4990442 55.6814159,24.4990442 L44,24.4990442 C42.9247257,24.4990442 42.0530973,25.3706726 42.0530973,26.4459469 L42.0530973,37.3486018 L31.1504425,37.3486018 C30.0751681,37.3486018 29.2035398,38.2202301 29.2035398,39.2955044 L29.2035398,50.9769204 C29.2035398,52.0521947 30.0751681,52.923823 31.1504425,52.923823 L42.0530973,52.923823 L42.0530973,63.8264779 C42.0530973,64.9017522 42.9247257,65.7733805 44,65.7733805 L55.6814159,65.7733805 C56.7566903,65.7733805 57.6283186,64.9017522 57.6283186,63.8264779 L57.6283186,52.923823 L68.5309735,52.923823 C69.6062478,52.923823 70.4778761,52.0521947 70.4778761,50.9769204 L70.4778761,39.2955044 C70.4778761,38.2202301 69.6062478,37.3486018 68.5309735,37.3486018 Z M66.5840708,49.029823 L55.6814159,49.029823 C54.6061416,49.029823 53.7345133,49.9014513 53.7345133,50.9767257 L53.7345133,61.8793805 L45.9469027,61.8793805 L45.9469027,50.9767257 C45.9469027,49.9014513 45.0752743,49.029823 44,49.029823 L33.0973451,49.029823 L33.0973451,41.2422124 L44,41.2422124 C45.0752743,41.2422124 45.9469027,40.3705841 45.9469027,39.2953097 L45.9469027,28.3926549 L53.7345133,28.3926549 L53.7345133,39.2953097 C53.7345133,40.3705841 54.6061416,41.2422124 55.6814159,41.2422124 L66.5840708,41.2422124 L66.5840708,49.029823 Z" id="Shape"></path>
                    </g>
                </g>
            </g>
        </g>
    </g>
</svg>