<?xml version="1.0" encoding="UTF-8"?>
<svg width="87px" height="88px" viewBox="0 0 87 88" version="1.1" xmlns="http://www.w3.org/2000/svg" xmlns:xlink="http://www.w3.org/1999/xlink">
    <!-- Generator: sketchtool 64 (101010) - https://sketch.com -->
    <title>DFF2B45D-416C-41D5-8A7C-1D639D52887F</title>
    <desc>Created with sketchtool.</desc>
    <g id="Pac-secundário" stroke="none" stroke-width="1" fill="none" fill-rule="evenodd">
        <g id="Descarte-de-embalagens---Ecopontos" transform="translate(-1341.000000, -993.000000)" fill="#FFB919" fill-rule="nonzero">
            <g id="Group-2" transform="translate(40.000000, 714.000000)">
                <g id="e-mail-copy-3" transform="translate(1144.000000, 279.000000)">
                    <g id="save-(1)" transform="translate(157.000000, 0.000000)">
                        <path d="M60.8504638,53.932495 C78.3582154,41.3668214 77.0543823,14.9524537 58.5462646,4.08270259 C58.4898683,4.04309091 58.428772,4.00817863 58.3643189,3.97796627 C47.36969,-2.37469478 33.2732544,-1.09301758 23.5582885,7.64172372 C23.0285645,8.11773686 22.9849244,8.93280025 23.4609375,9.46185298 C23.9369506,9.99157706 24.7520142,10.0345458 25.2817383,9.55853267 C31.6135865,3.86584481 40.2456055,1.47369389 48.5620728,3.0534668 C48.4432372,4.45800781 47.4650268,5.97869869 46.3961792,6.99517827 C44.2967528,8.99188228 35.6029663,7.26910405 32.4454347,14.1729737 C32.0043335,15.1357422 31.3960572,16.8457642 30.8495483,17.7024537 C30.5722656,16.7356568 30.3460083,15.2169799 29.1274414,14.1864013 C28.3963013,13.5680542 27.6141357,13.2947997 26.8024292,13.3733521 C25.3428345,13.5163574 24.3303833,14.7846069 23.7247924,15.5419311 C22.4458008,17.1438599 23.0151367,18.5819702 23.4300536,19.6326903 C23.8147583,20.604187 24.1464233,21.4427489 23.5287475,22.8399048 C22.9365845,24.1806641 24.166565,25.6442871 24.5707397,26.125 C26.2277221,28.0961914 30.38562,31.364502 32.9194336,30.7367553 C39.1035767,29.1992798 40.8545533,39.2781373 44.9714966,40.3281861 C48.0545044,41.11438 51.0200195,42.8975831 50.6460572,44.5216674 C49.4939576,49.5221557 44.7492676,49.0333862 41.774353,50.3519897 C40.1361694,51.0784302 37.1693114,53.1402589 35.1779785,55.6626587 C33.6055909,55.1611328 32.0949707,54.5239869 30.6602173,53.7599487 C30.8549194,53.3060913 31.0690918,52.8314208 31.3060913,52.3325806 C33.4605714,47.8101197 33.3182372,45.4555664 28.2217408,41.2486573 C25.7792358,39.232483 26.6224975,36.5059815 27.760498,34.5744018 C28.4855957,33.34375 28.1270753,31.746521 26.9440918,30.9388427 C25.1058349,29.6813354 19.7226563,26.4586792 17.2109986,22.7499389 C18.1361694,19.2701417 19.7078857,16.067627 21.8939208,13.2196044 C22.3276367,12.6542969 22.2208862,11.8452759 21.65625,11.41156 C21.0909425,10.9778443 20.2819213,11.0845948 19.848877,11.649231 C12.6455689,21.0345458 11.3464355,34.5334473 18.2422486,45.5569458 C27.3287963,60.0823974 46.628479,63.8884888 60.559082,54.1379395 C60.6913452,54.0701294 60.7705689,54.007019 60.8504638,53.932495 Z M60.4765014,50.9830932 C60.2562866,48.9924316 62.0603027,46.0061035 63.6884155,43.3118287 C65.8227539,39.7803345 67.8382568,36.4448853 66.2356568,34.060791 C64.7163086,31.8015748 62.473877,32.7133178 59.8494263,30.5474244 C58.3112793,29.277832 56.8798828,27.6705323 57.7224732,23.2736206 C57.9608153,22.0275268 59.1592408,20.4759521 61.0961914,18.9049073 C62.3583984,17.8810424 62.8303833,16.1502076 62.2697754,14.5986328 C62.0462037,13.9796143 62.0368042,13.5794677 62.097229,13.4243775 C63.0223999,11.0496825 59.104187,9.77136222 58.7644654,7.25433345 C73.9599609,17.5614624 74.7045288,39.6111451 60.4765014,50.9830932 Z M16.5443114,26.0524902 C19.4836426,29.3060302 23.5193482,31.7196655 25.4898683,33.06781 C25.5576783,33.1134643 25.5784911,33.1987305 25.5395508,33.2658691 C23.2447511,37.1619263 23.6240845,40.7968139 26.5808716,43.2373047 C31.4719238,47.274353 30.3110962,48.142456 28.4278565,52.4285888 C20.0516357,46.8688354 15.0531616,36.7282104 16.5443114,26.0524902 Z M37.9521484,56.3917846 C39.5513917,54.6837768 41.6199341,53.2409668 42.8197021,52.7092285 C45.2763061,51.6209107 51.6249389,51.7605591 53.1590575,45.0997315 C53.9627076,41.6118775 49.9464721,38.9350586 45.6093139,37.8292846 C43.2453613,37.2263794 40.3550415,26.2344361 32.2990723,28.2338256 C32.1365966,28.2720948 31.3396607,28.1767578 29.8478393,27.2489013 C27.7685547,25.9551392 26.2579347,24.2894286 25.982666,23.6576538 C26.8984375,21.3917237 26.2572631,19.7689819 25.8282472,18.684021 C25.4341431,17.6870117 25.4260865,17.5440064 25.7396239,17.151245 C25.9719238,16.8605346 26.6782227,15.9763184 27.0535279,15.939392 C27.1401367,15.9293214 27.2932129,16.0112305 27.4624023,16.1549073 C28.5258789,17.0545653 27.9833984,20.1261596 30.3312377,20.5726317 C32.8422241,21.0493164 33.8412475,17.3204347 34.7899169,15.2451783 C37.3593139,9.62768555 45.0493775,11.8345337 48.1733398,8.86297603 C49.7960815,7.31945809 50.8206177,5.44494638 51.0838013,3.65637216 C52.901245,4.18341069 54.6401367,4.889038 56.2810059,5.76049805 C55.4927979,9.51489258 58.7496948,11.6707154 59.5983276,12.7818604 C59.3915405,13.5445557 59.4741211,14.4489135 59.8447266,15.4741211 C60.0327148,15.9951172 59.8829956,16.5691529 59.4721069,16.9021607 C57.7681275,18.2838745 55.642517,20.4269409 55.1900025,22.7882081 C54.1325684,28.3096925 56.1225586,30.8139648 58.2078857,32.5360717 C63.0552979,36.5368652 67.2058105,32.5058594 61.4815675,41.9777832 C59.3344727,45.5307617 56.9369506,49.5 58.2327271,52.5964355 C52.4245605,56.3481445 45.2051392,57.901062 37.9521484,56.3917846 L37.9521484,56.3917846 Z" id="Shape"></path>
                        <path d="M20.6243287,74.6796875 C20.8760987,75.0288086 21.2702026,75.2141113 21.6703491,75.2141113 C22.7015991,75.2141113 23.3380737,74.0338136 22.7143555,73.1704102 C21.0217896,70.8252564 13.5244141,66.9070435 9.52227788,62.9599609 C7.97003178,61.4285279 5.2495728,56.1400146 4.53588867,53.9110107 L2.77484127,47.571106 C2.57208256,46.8406373 3.63690181,46.3726808 4.00885014,47.1904297 C6.0612793,51.5665284 6.23718253,52.4588013 7.2664185,53.7847901 C9.6323853,56.8335572 12.7039794,59.347229 16.1575927,61.0700073 L21.647522,66.590149 C21.8992919,66.8439331 22.2302857,66.9701538 22.5612793,66.9701538 C23.6999512,66.9701538 24.284729,65.5857544 23.4757081,64.7720337 L17.9354247,59.2008667 L15.7514038,55.8076783 C15.3834838,55.050354 16.3616943,54.3111573 17.0082397,54.979187 C24.5029297,62.8585815 24.1444091,62.6209107 24.5311278,62.808899 L32.5750123,66.7163697 C36.9658814,68.8493652 36.6516724,73.5000611 36.7564087,73.8310547 C36.8215332,74.5400391 37.4472656,75.0603638 38.1582642,74.996582 C38.8679199,74.9314576 39.3895874,74.3037109 39.3244629,73.5947266 L39.2109986,72.3607177 C38.8967896,68.9467163 36.7852784,65.8945923 33.7015991,64.3967285 L25.8692017,60.5919799 L18.8713379,53.1966552 C17.7601928,52.0479126 15.9917603,51.8162841 14.6657715,52.6461183 C13.4693604,53.3947143 12.9040527,54.7891847 13.157837,56.1091309 C11.7250977,54.963745 10.4259643,53.6498413 9.30273438,52.2036744 C8.56286613,51.2503052 8.54003906,50.8165893 6.35601811,46.1229247 C5.71350106,44.7089844 4.17333984,43.9227905 2.69360352,44.2524414 C0.894958453,44.6539308 -0.203430219,46.4848022 0.290039063,48.26062 C2.66271981,56.8006591 1.90942383,54.1547241 2.07122798,54.6690064 C2.88427734,57.2316895 5.79541016,62.90625 7.71154794,64.7948608 C9.89422603,66.947998 12.958435,69.0400391 15.661438,70.8856811 C16.7826538,71.651062 19.9650268,73.7672729 20.6243287,74.6796875 Z" id="Shape"></path>
                        <path d="M84.6014403,44.34375 C83.0277099,43.8153686 81.3237305,44.5559082 80.6375732,46.0645142 C78.4313965,50.8078613 78.4072266,51.2476197 77.6646729,52.2036744 C76.5414428,53.6505128 75.2423097,54.9644165 73.8095703,56.1098022 C74.0633544,54.789856 73.4973755,53.3947143 72.3016357,52.6467896 C70.9763184,51.8169556 69.2072143,52.0479126 68.0866699,53.206726 L61.0982056,60.5919799 L53.2664794,64.3967285 C47.4227294,67.2353516 47.7564087,73.2879029 47.6382447,73.6484375 C47.57312,74.3580932 48.0947876,74.9851685 48.803772,75.050293 C49.5114135,75.1160888 50.1405028,74.59375 50.2056275,73.8847656 C50.3096925,73.5551147 49.9934693,68.8527221 54.3930664,66.7163697 C62.810913,62.5953979 62.5054322,62.8565675 62.8095703,62.5356445 L69.9497681,54.9892578 C70.6130982,54.303772 71.5819091,55.0543823 71.215332,55.8076783 L69.0319824,59.2008667 L63.4916992,64.7720337 C62.6820067,65.5857544 63.2681275,66.9701538 64.4061278,66.9701538 C65.3850098,66.9701538 65.425293,66.3014526 70.8098145,61.0693359 C75.8210449,58.5704347 79.6627198,54.4414062 80.751709,52.0458984 L82.9854126,47.1313477 C83.3070067,46.4230346 84.4127807,46.779541 84.1764526,47.6308594 L82.4315185,53.9103393 C81.7178345,56.1400146 78.9973755,61.4285279 77.4458008,62.9592896 C73.4537354,66.8969727 65.9697876,70.8091431 64.2644654,73.1542969 C63.6400756,74.0109863 64.2651367,75.2026978 65.3057862,75.2026978 C65.7039185,75.2026978 66.0966797,75.0187377 66.3491211,74.6716309 C67.6462402,72.8904419 75.1577148,68.8379517 79.2558594,64.7955323 C81.1713256,62.90625 84.08313,57.2316895 84.8961792,54.6690064 C85.0586548,54.1533814 84.3926392,56.4830932 86.6605835,48.3210449 C87.1285401,46.6358643 86.2241822,44.888916 84.6014403,44.34375 L84.6014403,44.34375 Z" id="Shape"></path>
                        <path d="M38.9290162,77.6405028 L23.1406861,77.6405028 C21.4924316,77.6405028 20.1516724,78.9812623 20.1516724,80.6295167 L20.1516724,85.0116577 C20.1516724,86.6592408 21.4924316,88 23.1406861,88 L38.9290162,88 C40.5765991,88 41.9173583,86.6592408 41.9173583,85.0116577 L41.9173583,80.6295167 C41.9173583,78.9812623 40.5765991,77.6405028 38.9290162,77.6405028 L38.9290162,77.6405028 Z M39.3392333,85.0116577 C39.3392333,85.2379151 39.1552734,85.421875 38.9290162,85.421875 L23.1406861,85.421875 C22.9144286,85.421875 22.7304688,85.2379151 22.7304688,85.0116577 L22.7304688,80.6295167 C22.7304688,80.4032592 22.9144286,80.2192994 23.1406861,80.2192994 L38.9290162,80.2192994 C39.1552734,80.2192994 39.3392333,80.4032592 39.3392333,80.6295167 L39.3392333,85.0116577 Z" id="Shape"></path>
                        <path d="M63.8273926,77.6405028 L48.0383912,77.6405028 C46.3908081,77.6405028 45.0500488,78.9812623 45.0500488,80.6295167 L45.0500488,85.0116577 C45.0500488,86.6592408 46.3908081,88 48.0383912,88 L63.8273926,88 C65.4749755,88 66.8157349,86.6592408 66.8157349,85.0116577 L66.8157349,80.6295167 C66.8157349,78.9812623 65.4749755,77.6405028 63.8273926,77.6405028 L63.8273926,77.6405028 Z M64.2369386,85.0116577 C64.2369386,85.2379151 64.0536499,85.421875 63.8273926,85.421875 L48.0383912,85.421875 C47.8128052,85.421875 47.6288452,85.2379151 47.6288452,85.0116577 L47.6288452,80.6295167 C47.6288452,80.4032592 47.8128052,80.2192994 48.0383912,80.2192994 L63.8273926,80.2192994 C64.0536499,80.2192994 64.2369386,80.4032592 64.2369386,80.6295167 L64.2369386,85.0116577 Z" id="Shape"></path>
                    </g>
                </g>
            </g>
        </g>
    </g>
</svg>